<svg width="80" height="80" viewBox="0 0 80 80" fill="none" xmlns="http://www.w3.org/2000/svg"><path d="M32 65.61c-1.29.06-21.07-.9-21.13-1.15a27.08 27.08 0 01-5.63-.88.51.51 0 01-.32-.58c0-.16-.16-.31-.2-.49a11.24 11.24 0 01-.27-2.46c0-1.51 0-3 .11-4.54 0-.81.19-1.61.25-2.42a24.06 24.06 0 01.91-4.71 14.842 14.842 0 011.24-3c-.17-.34-.35-.67-.51-1a3.76 3.76 0 01-.38-2.12 12.91 12.91 0 01.25-1.66 5.2 5.2 0 011.22-2.42l.8-.9c.07-.08.2-.16.2-.24 0-.37.26-.49.47-.67l.58-.46A5 5 0 0113 34.74c.62.017 1.235.115 1.83.29a4.28 4.28 0 012.07 1.23 9.31 9.31 0 011.53 5.9 6.17 6.17 0 01-1.2 3.72l-.19.26-.06.13c.09.22.18.49.29.73.37.78.74 1.55 1.12 2.31a19.437 19.437 0 011.32 3.35l.1.21c.25-.22.49-.15.74-.15.57 0 .92-.15 1.54-.2v-.56a15.998 15.998 0 01.31-3.59 9.35 9.35 0 012.53-4.71 3.61 3.61 0 011.82-.82c.06 0-.1-.12 0-.16-.23-.23-.59-.39-.78-.61a6.66 6.66 0 01-1.56-3.71 8.47 8.47 0 011.23-5.65A10.81 10.81 0 0128.9 30a3 3 0 011.67-.42c.527.071 1.058.108 1.59.11A7.745 7.745 0 0134 30a3 3 0 011.86 1.26A12.38 12.38 0 0138 35.81c.027.091.044.185.05.28a11.14 11.14 0 01-.66 5c-.2.523-.514.994-.92 1.38 0 0-.27.19-.3.23-.03.04.19-.06.19 0 .132.032.263.072.39.12.354.142.69.327 1 .55a14.619 14.619 0 012.74 2.76c.25.34.46.71.68 1.07.08.13.2-.37.29-.19.13-.56.05-.41.18-.91.195-.977.48-1.935.85-2.86a5.35 5.35 0 011.88-2.12 7.77 7.77 0 01-.67-5.23c.279-1.166.741-2.28 1.37-3.3A4.86 4.86 0 0147 30.81c1.59-.82 2.6-1.46 4.32-1.13.21-.08.9-.12 1.12-.17.22-.05.62.24.84.24a2.11 2.11 0 011.8.94c.26.35.49.73.75 1.08a6.29 6.29 0 011.09 3 8.19 8.19 0 01-1.08 5.49l-.12.19-.16.26c.116.359.263.707.44 1.04a10.43 10.43 0 011.57 4.4c.258 1.54.371 3.1.34 4.66v.65h.53c.38 0 .75.07 1.13.08.38.01.41.17.51.46.4 1.21.83 2.42 1.25 3.62 0 .15.13.28.24.53v-.45a17.68 17.68 0 011.18-5.86c.27-.65.51-1.32.75-2 .47-1.3.06-1.35 1-2.15a8.001 8.001 0 01-1.47-3.43c-.14-.66-.14-1.34 0-2a9.069 9.069 0 011.67-3.94 7.192 7.192 0 011.91-1.79 5.19 5.19 0 013.54-.23 9.89 9.89 0 011.78.69c.362.187.681.445.94.76.41.5.82 1 1.24 1.47.465.508.804 1.117.99 1.78a11.58 11.58 0 01.55 3.67A5.07 5.07 0 0174.21 46a1.62 1.62 0 00-.41 1.14c.387 2.48.763 4.96 1.13 7.44.17 1.17.26 2.36.43 3.53.2 1.42.43 2.83.66 4.24.06.39.15.77.22 1.15.07.38 0 .64-.4.78-.359.12-.727.21-1.1.27a15.837 15.837 0 01-3.07.25c-.63 0-1.26-.12-1.89-.12h-4.46c.07.16-18.63-.24-19 .27L32 65.61zm36.14-2.07h.26c.84 0 1.3-.35 2-.3a21.5 21.5 0 004-.16c.54-.08.12.07.42 0a1.73 1.73 0 010-.23 38.636 38.636 0 01-.64-4.68c-.11-1.556-.3-3.104-.57-4.64-.23-1.3-.38-2.62-.52-3.93-.08-.8-.13-1.6-.21-2.44l-.27.16a2.9 2.9 0 01-1.66.46 15.207 15.207 0 01-3.36-.28 3.48 3.48 0 01-1.59-.84c-.13-.12-.25-.19-.37-.3-.65.08-.6.77-.83 1.35 0 .08 0 .15-.08.22-.38 1-.76 2.08-1.13 3.13-.13.346-.238.7-.32 1.06-.48 1.88-1.27 3.44-.67 5.28.09.24.14.72.19.83.91 2 1.45 3.37 2.35 5.3a7.63 7.63 0 001.91 0v-.37c-.168-2.145-.142-4.3.08-6.44a15.16 15.16 0 01.92-3.72 5.51 5.51 0 01.44-.79c.1-.17.25-.22.4-.09.15.13.49.28.39.42a7 7 0 00-.84 2.24 15.745 15.745 0 00-.44 3.34c0 1.63 0 3.26.08 4.89.006.188.026.375.06.56v-.03zM7.43 46.35A19.74 19.74 0 006.17 51a20.448 20.448 0 00-.24 2c-.12 1.38-.23 2.78-.28 4.17v2.34a14.74 14.74 0 00.19 2.74c.06.29-.07.27 0 .6.72.324 1.5.495 2.29.5 1 .06 1.76.12 2.81.12a.61.61 0 00.49-.25c.52-.7.5-.7 1-1.4a.64.64 0 00.1-.35c-.11-1.15-.21-2.3-.35-3.45-.14-1.15-.35-2.6-.5-3.9a6.7 6.7 0 01-.05-2c0-.08.58-.6.65-.74.026.099.046.199.06.3.141 1.173.342 2.337.6 3.49.285 1.05.492 2.12.62 3.2.11.89-.1 1.5 0 2.07l.11.06a.68.68 0 01.1-.21c1.59-1.94 3.2-3.86 4.79-5.8a1 1 0 00.29-.63 2.75 2.75 0 00-.24-1.08 25.376 25.376 0 00-1.7-4l-.81-1.67c-.05 0 .23-.22.21-.2a3.88 3.88 0 01-2.73 1 12.433 12.433 0 01-3-.26l-3.15-1.3zm30.15 5.5h3.58c0-.86-.06-1.67-.1-2.48.01-.06.01-.12 0-.18a10.45 10.45 0 00-1.35-2.64 17.906 17.906 0 00-2.23-2.29 4.62 4.62 0 00-1.56-.8c-.17-.06-.33-.17-.51-.25-.383.205-.777.389-1.18.55a6.48 6.48 0 01-1.3.34c-1.75.25-2.75.49-4.35-.4a8.18 8.18 0 00-1-.2c-.62 0-.87-.16-1.36.28a7.518 7.518 0 00-1.6 2 10.84 10.84 0 00-1.34 5.35v1.39l3.85-.38v-.56c0-.61.08-1.21.13-1.82a2.4 2.4 0 01.13-.59c.06-.18.56-.26.74-.22a.34.34 0 01.24.38 1.65 1.65 0 01-.06.32c-.116.801-.166 1.61-.15 2.42 3-.26 5.44-.08 8.47-.12-.09-.4-.18-.73-.24-1.07-.06-.34-.16-.89-.23-1.33a.39.39 0 01.27-.46c.19 0 .56 0 .62.27.06.27 0 .31.08.46.19.68.33 1.36.48 2.08l-.03-.05zM57 51.37a1.123 1.123 0 000-.22c.07-2.124-.13-4.248-.6-6.32a7.708 7.708 0 00-.91-2.26c-.24-.42-.37-.33-.62-.76l-.19.15c-.4.39-.7.22-1.17.46-.91.402-1.858.71-2.83.92a4.52 4.52 0 01-2 .11 5.85 5.85 0 01-3.3-1.63c-.23-.22-.36-.23-.59 0-.339.36-.637.755-.89 1.18a13.59 13.59 0 00-1.66 5 2.93 2.93 0 00.09 1.63c.14.37-.28.88-.13 1.37a1.83 1.83 0 000 .93h2.32V50.3c0-.53.13-3.22.19-3.68a.52.52 0 01.62-.43c.21 0 .25.23.23.62 0 .9-.14 4.08-.17 5a.402.402 0 000 .12 10.67 10.67 0 002.46-.2c1.4-.225 2.825-.245 4.23-.06a3.17 3.17 0 00.74-.07c0-.88-.14-4.13-.14-5a.91.91 0 01.05-.41 1.28 1.28 0 01.64-.23c.11 0 .22.16.29.28a.84.84 0 010 .32c0 .64.14 3.89.14 4.53a3.682 3.682 0 000 .37c1.33-.03 1.95-.09 3.2-.09zm-25.75-8.13h1.07a5.83 5.83 0 003-1.3 2.93 2.93 0 00.77-1c.72-1.47.92-2.24.67-3.25 0-.13-.07-1.19-.08-1.23a11.681 11.681 0 00-1.55-4.33A2.72 2.72 0 0033.27 31a3.5 3.5 0 00-1.2-.14 3.08 3.08 0 00-1.53-.22 3.23 3.23 0 00-2.31.82c-.3.24-.59.49-.86.75a6.261 6.261 0 00-1.55 2.42 7.77 7.77 0 00-.41 3.64 4.89 4.89 0 003 4.06 5.83 5.83 0 002.84.91zm20.92-12.52c-2.19-.09-2.19-.16-4.27.94a3.83 3.83 0 00-2 1.8c-.12.27-.24.54-.35.81A8.003 8.003 0 0045 35.8c-.64 3.35.36 4.29 2 5.92a14 14 0 001.79.57c.46.11 1.19-.11 1.65 0 .19.05 1.46-.55 2.2-.76a4.56 4.56 0 003.36-3.3 3.2 3.2 0 00.26-.95c.075-.607.095-1.22.06-1.83a6.41 6.41 0 00-1.4-3.45c-.15-.18-.26-.41-.42-.59a4.998 4.998 0 00-.56-.47l-1.77-.22zM12 36a4.23 4.23 0 00-1.68.84 12.6 12.6 0 00-1.75 2 5.4 5.4 0 00-1.13 2.65 4.75 4.75 0 000 2.34c.48 1.54 1.3 1.8 2.7 2.35a6.17 6.17 0 003.45.57 5.45 5.45 0 001.91-.86A4.45 4.45 0 0017.38 42c.13-2.1.47-2.65-.67-4.3-.39-.56-1-1.37-1.63-1.53-.47-.12-.8-.54-1.28-.61a4.48 4.48 0 00-.67.12L12 36zm57.13-1.02a2.561 2.561 0 00-2.1.59 5.75 5.75 0 00-2.22 2.8c-.19.51-.37 1-.53 1.53-.073.272-.12.55-.14.83a6.46 6.46 0 00.67 3.33c.44 1.06 1.42 1.53 2.26 2.17.09.069.192.123.3.16a9.64 9.64 0 003.17.18 3.35 3.35 0 003-1.16 4.29 4.29 0 001.19-2.81 8.901 8.901 0 00-.43-3.18 2.91 2.91 0 00-.64-1.17 9.789 9.789 0 01-1-1.08 3.16 3.16 0 00-1.59-1.33H71c-.3-.08-.36-.37-.66-.41a5.503 5.503 0 01-1.19-.43l-.02-.02zm-24 20.18a1.52 1.52 0 000 1c.26 1 .53 1.94.83 2.9.303.828.518 1.686.64 2.56l.07.11.52-.08a7 7 0 013.77 0 3.76 3.76 0 003.81-.65c.4-.29.91-.05 1.31-.39.06-.06.18 0 .28 0h.4l-2.45-5.87a5.91 5.91 0 01-2.21.19 1.33 1.33 0 00-.93.24 3.51 3.51 0 01-4 .42 2.6 2.6 0 00-1.97-.43h-.07zm-10.42-.7l-2.2.19-3.25.35c-.43 0-.86.13-1.28.22a.45.45 0 00-.25.18c-.53.91-1 1.83-1.57 2.74-.42.71-.88 1.41-1.32 2.11l-.33.53c.087.005.173.005.26 0 .78.07 1.57.16 2.35.18h4.42a.61.61 0 00.63-.41c.22-.44.43-.88.62-1.33.65-1.51 1.28-3 1.92-4.53.02-.02.03-.08.07-.23h-.07zM23.12 56h-.11a29.726 29.726 0 00-3.66 2.28.48.48 0 00-.18.56.75.75 0 00.45.58l3.91-2.44-.41-.98zm18.75 0l-3.46 2.59.12.21.15.17a.9.9 0 001.24.13l2-1.41.24-.2c-.38-.44-.29-.96-.29-1.49zm1 1.1l.44-1.48h-.54c-.34 0-.45.11-.47.48v.37c.03.39.06.43.58.59l-.01.04zm-25.2 2.07a1.2 1.2 0 00-.79 1c0 .28 0 .37.29.39a1.6 1.6 0 001-.25 1.429 1.429 0 01-.49-1.18l-.01.04zm20.23 1.36c-.2-.19-.33-.29-.43-.41-.1-.12-.18-.3-.29-.47a1.66 1.66 0 00-.52.73c-.09.29 0 .47.31.42.31-.05.57-.2.94-.31l-.01.04zm.1-1.6c-.37.29-.37.64 0 .86a.67.67 0 00.15.06l.4.18.28-.2-.83-.9zM18.15 59c0 .5.23 1 .56 1.06l.25-.17-.39-1-.2.07-.22.04zm5.3-3.12a.93.93 0 00.57 1c.14-.21.49-.76.66-1-.32-.05-.94-.02-1.23-.04v.04z" fill="#2A2B2C"/><path d="M33.27 36v1.42c.026.315.083.626.17.93a.61.61 0 01-.13.68.379.379 0 01-.59-.13 1.41 1.41 0 01-.17-.46 8.93 8.93 0 01-.1-1.15v-2.66a3.01 3.01 0 010-.52c.05-.31.21-.49.41-.45.2.04.37.23.37.52V36h.04zm-3.08.31c0 .78.08 1.55.13 2.32 0 .43-.11.71-.4.75-.29.04-.53-.15-.56-.6-.05-.62-.07-1.25-.07-1.87 0-.62 0-1.47.06-2.2a1.707 1.707 0 010-.39.46.46 0 01.92 0c0 .34 0 .69-.05 1-.05.31 0 .61 0 .91l-.03.08zm23.15.48l-.33-2a1.077 1.077 0 010-.19c0-.2.13-.33.4-.36a.43.43 0 01.48.25c.12.344.207.7.26 1.06.07.72.1 1.43.14 2.15.015.106.015.214 0 .32a.51.51 0 01-.59.35c-.31 0-.39-.21-.38-.42v-1.12l.02-.04zm-2.22-.4c0 .43.09.87.13 1.3 0 .11.06.24 0 .32a.61.61 0 01-.37.26.69.69 0 01-.44-.18.49.49 0 01-.11-.31c0-.81-.07-1.62-.1-2.43a.658.658 0 010-.23.39.39 0 01.43-.27c.28 0 .42.13.45.32.01.157.01.313 0 .47v.75h.01zm-34.7 6.13a1.36 1.36 0 01-.31.33.37.37 0 01-.5-.13 2.62 2.62 0 01-.21-.45l-1-3.06a1.283 1.283 0 01-.1-.21.42.42 0 01.29-.47.4.4 0 01.5.14.81.81 0 01.13.24c.39 1.12.77 2.25 1.15 3.37.02.05.02.11.05.24zm-2.61.54a.449.449 0 01-.42.5.429.429 0 01-.48-.38c-.16-.82-.3-1.65-.46-2.47 0-.25-.11-.5-.14-.75-.03-.25.08-.5.34-.55a.44.44 0 01.54.37c.105.402.188.81.25 1.22.13.65.25 1.36.37 2.06zM69.14 39c-.11.64-.21 1.28-.32 1.91 0 .23-.07.47-.11.7-.02.125-.05.25-.09.37a.46.46 0 01-.49.24c-.27 0-.44-.13-.45-.33.005-.264.025-.528.06-.79.11-.79.22-1.58.34-2.38a1.005 1.005 0 010-.23.46.46 0 01.51-.28c.27 0 .44.13.47.32a2.46 2.46 0 010 .47h.08zm-1.91-.07c-.13.71-.25 1.42-.37 2.13a.92.92 0 01-.09.23.49.49 0 01-.51.23c-.24 0-.39-.15-.4-.32a2.41 2.41 0 010-.6l.3-2.18a.852.852 0 010-.23c0-.18.22-.27.47-.27.25 0 .44.09.46.26.015.25.015.5 0 .75h.14z" fill="#2A2B2C"/></svg>