<svg width="80" height="80" viewBox="0 0 80 80" fill="none" xmlns="http://www.w3.org/2000/svg"><path d="M23.52 44.42a3.723 3.723 0 00-.47 0l-3.72.33a2.729 2.729 0 01-.5 0c-.47 0-.66-.33-.52-.78s.29-1.05.44-1.57c.42-1.41.83-2.83 1.25-4.24.15-.48.32-1 .49-1.43a3.88 3.88 0 01.33-.75.92.92 0 01.95-.55c1.64.05 3.29 0 4.93 0 .78 0 1.55-.1 2.33-.15 1.6-.1 3.2-.23 4.8-.27 3.91-.1 7.83-.27 11.75-.3 2.64 0 5.3-.14 7.94-.42.818-.03 1.638.007 2.45.11.35 1 .66 1.9 1 2.8.34.9.64 1.6 1 2.4.36.8.71 1.71 1 2.59.114.444.148.904.1 1.36a.91.91 0 01-.32.65A3.33 3.33 0 0157 45c-.43 0-.87.06-1.29.09v2.7c.11 3.37.26 6.74.15 10.11-.073 2.36-.133 4.72-.18 7.08 0 .8 0 1.6.05 2.4.009.378-.018.757-.08 1.13-.1.52-.31.67-.84.63-.53-.04-.81-.14-1.27-.14a25.237 25.237 0 00-3.79.13c-2.71.12-5.43.19-8.15.28-2.72.09-5.18.11-7.76.28-2.58.17-5 .27-7.46.21a9.877 9.877 0 01-1.44-.14 9.498 9.498 0 01-1.37-.44c-.28-.12-.33-.41-.34-.69-.05-1.71-.12-3.42-.14-5.12v-6.77c0-1.24.09-2.48.13-3.72.06-1.75.1-3.5.16-5.24.04-1.12.09-2.21.14-3.36zm31.24.63h-.89c-2 0-4-.07-5.94-.15-3.3-.14-6.6-.33-9.91-.47-1.18 0-2.36 0-3.54-.06-3.067 0-6.143-.02-9.23-.06h-.58c-.43 1.79-.87 22-.33 24.27.626.11 1.256.186 1.89.23 2.5.08 5 0 7.51-.18 2.82-.18 5.64-.2 8.47-.3 2.5-.09 5-.15 7.51-.28a26.466 26.466 0 014-.12h.71a1.88 1.88 0 00.25-1.25 4.397 4.397 0 010-.89c.06-2.71.17-5.43.19-8.15V45.19c-.03.02-.06-.01-.11-.14zm-22-24.18c-.23-.18-.41-.32-.58-.48a5.94 5.94 0 01-1.93-6.16 4.64 4.64 0 011.28-2.16 12.129 12.129 0 013.66-2.65 17.068 17.068 0 012.45-.79 3.13 3.13 0 011.86.18 9.06 9.06 0 015.71 5.27 8.1 8.1 0 01.65 4.56 3.171 3.171 0 01-1.24 2.16c.54.55 1.1 1.09 1.62 1.66a11.43 11.43 0 012 3.53c.127.444.207.9.24 1.36.11.79.23 1.58.32 2.37.12 1.16.22 2.31.32 3.46v.44c-.25 0-.47.06-.69.07l-6.13.14c-1.3 0-2.61 0-3.91.12-1.3.12-2.8.34-4.2.5-1 .11-1.93.15-2.88.3-.705.07-1.415.07-2.12 0a12.41 12.41 0 01-1.56-.27.518.518 0 01-.06-.16 20.41 20.41 0 011.44-8.78 12.46 12.46 0 013-4.06c.239-.216.49-.42.75-.61zm6.16 1.28A6.32 6.32 0 0044.15 20a3.36 3.36 0 00.79-2.66 8.528 8.528 0 00-3.41-6.43c-.23-.18-.46-.44-.83-.31-.08 0-.22-.1-.32-.17a2.92 2.92 0 00-3.32-.43c-.11 0-.25 0-.36.1l-1.22.53c-.26.1-.45.49-.82.18 0 0-.15.06-.21.12-.75.61-1.52 1.2-2.23 1.85a3.26 3.26 0 00-1 1.66 4.86 4.86 0 001.41 5c.74.659 1.552 1.232 2.42 1.71a9.578 9.578 0 003.87 1zm6.47 1l-.27.18-5.81 4.17a65.712 65.712 0 00-7.06 5.84 3.87 3.87 0 00-.32.4l1.62-.19a2.2 2.2 0 001.08-.45c1-.8 2.08-1.59 3.13-2.36l8.12-5.94c.14-.11.27-.23.43-.37l-.92-1.28zm-1.81-1.75c-.85.6-1.68 1.15-2.46 1.74-2.51 1.89-5 3.8-7.5 5.7A37.629 37.629 0 0029 33.11a4.104 4.104 0 00-.29.4 1.7 1.7 0 002.13-.31c.17-.18.35-.36.54-.53 1.06-1 2.14-1.9 3.18-2.89a26.006 26.006 0 012.93-2.4c.81-.57 1.6-1.17 2.39-1.75l3-2.21 1.68-1.23-.98-.79z" fill="#2A2B2C"/><path d="M39 49.4h4.87c.373.014.744.078 1.1.19.33.08.36.39.37.66 0 1.27.13 2.53.1 3.79a16.705 16.705 0 01-.31 2.63 7.71 7.71 0 01-1.76 3.79c-.18.2-.31.45-.49.66-.45.55-.91 1.1-1.38 1.64a1.791 1.791 0 01-1.65.62A7 7 0 0134.27 60a5.73 5.73 0 01-.77-2.45c-.15-1.34-.38-2.67-.47-4a25.467 25.467 0 010-3.15 1 1 0 011.12-1H39zm1.84-33.9v1.45c0 .45-.17.62-.46.63a.539.539 0 01-.53-.59v-3c0-.38.25-.58.55-.55.3.03.44.21.45.58.01.37 0 1 0 1.51l-.01-.03zm-6.4.04c0-.33-.06-.67-.07-1-.01-.33.14-.62.43-.66.29-.04.53.18.56.55.08.86.13 1.72.18 2.58a.45.45 0 01-.34.47.45.45 0 01-.55-.21 1.54 1.54 0 01-.17-.59v-1.14h-.04z" fill="#2A2B2C"/></svg>