<svg version="1.1" id="Layer_1" xmlns="http://www.w3.org/2000/svg" x="0" y="0" viewBox="0 0 80 80" xml:space="preserve"><style>.st0{fill:#2a2b2c}</style><path class="st0" d="M23.5 44.4c-.7-.1-4 .4-4.7.3-1.2-.1-.1-1.6-.1-2.4.7-2.1 1.1-4.4 2.1-6.4.2-.4.6-.6 1-.5h4.9c6.3-.4 12.6-.6 18.9-.7 3.5.2 6.9-.6 10.4-.3.9 2.8 2.1 5.1 3 7.8.7 2.4-1.4 2.9-3.3 2.9.3 7.5 0 14.8 0 22.3 0 .7.1 1.9-.9 1.8-4.4-.4-8.8.3-13.2.3-5.7 0-11.1.8-16.7.4-.6-.2-1.8-.2-1.7-1.1-.3-8.3 0-16.3.3-24.4zm31.3.6c-10.1-.2-20-.9-30.1-.7-.4 1.8-.9 22-.3 24.3 3.1.5 6.3.2 9.4.1 6.9-.2 13.8-.6 20.7-.7.4-.6.2-1.4.2-2.1.2-6.9.2-13.7.2-20.6-.1-.1-.1-.1-.1-.3zm-22-24.1c-2.9-1.9-3.8-6.3-1.2-8.8 1.9-1.9 5.2-4.1 8-3.3 4.1 1.2 7 5.6 6.4 9.8-.1.8-.6 1.6-1.2 2.2 1.6 1.5 3 3.1 3.6 5.2.5 2.5.7 5.1.9 7.6-.2 0-.5.1-.7.1l-6.1.1c-4.9-.3-9.8 1.6-14.7.6-.6-4.8.8-10.5 5-13.5zm6.1 1.2c2.3.2 5.1-1.1 5.9-3.4.4-1.7-.1-3.5-.9-5-.6-1.1-1.4-2.1-2.4-2.8-.2-.2-.5-.4-.8-.3-.6-.3-1.1-.9-1.9-.9-.7-.1-1.4.2-2.1.4l-1.2.5c-.3.1-.5.5-.8.2-1.3 1-3 2-3.4 3.6-1.4 4.5 3.8 7.6 7.6 7.7zm6.5 1c-4.3 3.1-9.8 6.7-13.5 10.6l1.6-.2c1.6-.4 2.8-1.9 4.2-2.8l8.1-5.9c.1-.1.3-.2.4-.4l-.8-1.3zm-1.8-1.7c-5.1 3.8-10.6 7.3-14.9 12.1 1 .6 2-.1 2.7-.8 2-1.8 3.9-3.7 6.1-5.3 2.2-1.6 4.9-3.6 7.1-5.2l-1-.8z"/><path class="st0" d="M39 49.4c2 .1 4-.2 6 .2.3.1.4.4.4.7.1 3.5.5 7.4-2 10.2-.8.9-1.5 2.2-2.6 2.8-2.5.5-5.2-1.2-6.5-3.3-.4-.7-.7-1.6-.8-2.5-.3-2.4-.7-4.7-.5-7.2 0-.6.5-1.1 1.1-1 .1.1 4.9.1 4.9.1zm1.8-33.9c0 .7.3 2.7-.9 1.9-.3-1 0-2.3-.1-3.4 0-.4.3-.6.6-.6s.4.2.4.6c.1.4 0 1 0 1.5zm-6.4 0c0-.5-.3-1.5.4-1.7.3 0 .5.2.6.6.1.9.1 1.7.2 2.6 0 .3-.4.6-.7.5-.6-.4-.4-1.3-.5-2z"/></svg>