<svg width="80" height="80" fill="none" xmlns="http://www.w3.org/2000/svg"><path d="M16.14 68.57c-.07-.94-.12-1.79-.2-2.65-.15-1.73-.31-3.47-.48-5.2-.15-1.53-.35-3-.46-4.57-.23-3.2-.51-6.4-.54-9.62 0-1.08-.16-2.17-.24-3.26 0-.52 0-1.05-.06-1.57-.05-1-.13-2-.18-3-.05-1-.12-2.06-.13-3.08a5.43 5.43 0 01.21-1.11c0-.22.12-.44.19-.71h-.55l-2.64.1h-.31a.62.62 0 01-.52-.92c.28-.52.49-1.07.74-1.6 1.46-3.093 2.927-6.18 4.4-9.26.4-.84.82-1.66 1.19-2.51a.55.55 0 011-.1 20.79 20.79 0 001.6 1.77c.6.63 1.19 1.25 1.8 1.85.4.4.84.76 1.25 1.16.62.62 1.27 1.22 1.85 1.88 1.09 1.22 2.13 2.48 3.19 3.73.08.09.17.22.28.24a.93.93 0 01.65.68h.47a.44.44 0 01.37.45.46.46 0 01-.33.48.93.93 0 01-.24.05l-2.14.43c.09 3.31.18 6.58.27 9.93l4-.2c-.19-.71-.33-1.31-.52-1.9-.19-.59-.45-1.31-.66-2-.21-.69-.07-.9.61-1 .87-.14 1.75-.23 2.62-.32h.88c0-5.35 0-10.65.05-16h-.5l-3.48.26a7.673 7.673 0 01-1.07 0 15.81 15.81 0 00-4 .35c-.125.03-.252.05-.38.06-.48 0-.75-.32-.61-.79.092-.32.226-.626.4-.91 1.878-3.06 3.59-6.217 5.13-9.46a1.5 1.5 0 011.46-.95c2.41-.1 4.82-.32 7.23-.41 2.41-.09 4.87-.15 7.3-.14 3.38 0 6.76.11 10.14.15h5.92c.67 0 1.35 0 2 .05.65.05 1.08.36 1.18 1.18.1.82.21 1.75.26 2.63.11 1.93.14 3.86.29 5.78.18 2.41.26 4.82.65 7.21.155.974.255 1.955.3 2.94.11 2.69.15 5.38.28 8.06.25 5.12.09 10.25.12 15.37 0 1.95-.22 3.89-.33 5.84a42.894 42.894 0 00.15 6.66c.09.91.07 1.84.12 2.76 0 .41.06.83.1 1.27h6.21c.471.057.93.189 1.36.39a.47.47 0 01.29.57c-.09.47-.17.95-.29 1.41-.12.46-.28.61-.8.61h-5.17a41.42 41.42 0 01-5.34-.14c-1.9-.18-3.81-.3-5.71-.43-.273 0-.544.03-.81.09a20.653 20.653 0 01-5.21.08c-1.3-.07-2.6-.3-3.9-.24a40.091 40.091 0 00-4.52 0c-.44.03-.88.03-1.32 0-4 0-8.06 0-12.09-.2a32.366 32.366 0 00-4.72.1c-2.24.19-4.48.32-6.72.45-2.85.17-5.7.32-8.55.47-.25 0-.48.07-.7-.16-.22-.23-.37-.09-.55.06-.38.3-.37.28-.71 0a.75.75 0 01-.3-.93 4.26 4.26 0 00.16-.79c.1-.73.63-.94 1.24-1a52.505 52.505 0 016.4-.44c.53.12 1.03.05 1.67.02zm1-.09h6.63c1.82 0 3.64-.17 5.47-.21 3-.06 6.08-.12 9.13-.1 3.55 0 7.09.12 10.64.19h.69c.066-.206.116-.416.15-.63a7.168 7.168 0 00.1-1.86c-.2-1-.34-2.11-.46-3.17-.08-.71-.08-1.42-.12-2.17l-.47-.1-1.23-.23a.65.65 0 01-.57-.59c-.099-.47-.172-.943-.22-1.42-.07-1.53-.1-3.06-.15-4.6v-.71c-.78 0-1.49-.07-2.2-.14-.711-.05-1.419-.14-2.12-.27-.75-.15-.88-.37-.85-1.13.068-.878.091-1.76.07-2.64-.07-1.112-.02-2.229.15-3.33.14-.92.27-1.85.41-2.81a4 4 0 00-1.52.17c-.302.087-.61.154-.92.2-.43 0-.64-.29-.5-.7.066-.15.113-.308.14-.47v-2.2c0-.48-.07-1-.11-1.42a33.776 33.776 0 00-8.83.06c0 .14.07.28.12.42.33 1.14.68 2.29 1 3.43.17.6 0 .88-.63 1h-.31l-3.39.21a2 2 0 00-1 .24.66.66 0 01-.58 0c-.2-.09-.21-.32-.17-.55.045-.244.065-.492.06-.74 0-.61-.08-1.21-.09-1.82-.073-2.333-.14-4.667-.2-7v-.83c-3.5.2-6.85 1-10.28 1.29 0 .17-.11.31-.07.41a2 2 0 01-.05 1.22c-.01.103-.01.207 0 .31.05 1 .09 2 .15 3s.12 1.88.17 2.82c0 .55 0 1.09.06 1.64.08 1.4.19 2.8.26 4.21.12 2.3.14 4.61.42 6.91a5.45 5.45 0 01.08 2.46v.12c.16 1.33.36 2.66.49 4 .22 2.25.4 4.51.6 6.77.02.28.03.45.06.76h-.01zm17.3-47.72v1.27c0 3.19.1 6.38.14 9.57v5.24l2.21.09 2.58.07a.78.78 0 01.86.67c.065.201.105.41.12.62v3.4c.76-.13 1.44-.25 2.12-.35.68-.1.95.24.84.81-.16.82-.33 1.64-.47 2.47a15.158 15.158 0 00-.25 4.2c.035.46.035.92 0 1.38v1.29c.6.07 1.18.16 1.76.2.84.06 1.68.08 2.52.14.49 0 .68.19.77.67.025.27.025.54 0 .81.05 1.59.09 3.19.15 4.78 0 .37.1.74.15 1.13l1.54.26c.77.13.91.29.86 1.09-.05 1.004.013 2.01.19 3 .338 1.282.496 2.604.47 3.93a5.92 5.92 0 00.05.82h3.6c0-.42-.05-.87.41-1.12.07 0 .06-.27.06-.41 0-1.68-.05-3.36-.08-5C55 60.52 55 59.28 55 58c0-1.55.09-3.1.1-4.65 0-2.56-.21-5.11-.39-7.67-.22-3-.64-6-1-9-.17-1.38-.42-2.74-.54-4.12-.22-2.51-.38-5-.54-7.53-.08-1.22-.11-2.44-.18-3.65a1.002 1.002 0 00-1.07-1c-.46 0-.93 0-1.39-.05h-8.18a6.74 6.74 0 00-1.63.11 2.6 2.6 0 01-1.51.06h-.06l-1.61.09-2.56.17zm30.15 11c.35.59.37.64.08 1.16a17.46 17.46 0 01-1.08 1.7c-.51.72-1.08 1.39-1.6 2.1a21.49 21.49 0 00-1.61 2.71l4.28 5.4a.44.44 0 00.13.14l.41.15c.09-4.47-.17-8.84-.34-13.21 0-.06-.09-.09-.27-.18v.03zm-4.91 6.78c.14-.22.24-.42.37-.6.59-.89 1.15-1.81 1.78-2.66a16.414 16.414 0 002.25-3.47l-.88.07c-.52.06-1 .16-1.55.2-1.7.14-3.39.25-5.08.4a5.07 5.07 0 00-1.89.35 57.404 57.404 0 005 5.68v.03zm-14-24.16l6.49-4.47C48 9.71 44 9.72 39.93 9.85v.12l5.75 4.41zm7.08-3.52a40.994 40.994 0 00-6.15 4.25l.24.19a57.796 57.796 0 015.14 3.94.63.63 0 00.77.14v-8.52zm8 41.22c1.7 1.69 2.71 3.76 4.12 5.67.361-3.608.465-7.237.31-10.86h-.13l-4.3 5.19zm-7.19-30.35c-.082 1.7-.039 3.405.13 5.1.19 1.67.13 3.36.36 5.06a31.743 31.743 0 012.2-2.89c.72-.95 1.48-1.88 2.22-2.82-.87-.7-1.78-1.34-2.6-2.09-.82-.75-1.54-1.57-2.31-2.36zm2.14 23.53a1.9 1.9 0 00.44-.31c.226-.276.424-.574.59-.89.79-1.52 1.56-3.05 2.34-4.58l-4.72-5.43 1.35 11.21zM63 20.6l-9.14-.12c1.7 1.82 3.22 3.63 5.37 4.82 1.15-1.58 2.71-2.86 3.77-4.7zm-3.08 5.45c.43.41.85.78 1.25 1.17.4.39 1.06 1.07 1.57 1.62a14.666 14.666 0 002.13 1.85c0-1.26-.06-2.49-.19-3.72-.2-1.89-.56-3.77-.58-5.68v-.22h-.12c-1.11 1.87-2.79 3.24-4.11 4.98h.05zm4.5 42.47c0-.11 0-.19-.09-.25-.56-.76-1.1-1.53-1.69-2.27-.59-.74-1.1-1.26-1.65-1.9l-.38-.46c-1.57 1.17-4.09 4-4.26 4.76 2.668.213 5.347.253 8.02.12h.05zm-.59-49.36a47.311 47.311 0 00-.54-8.51 25.548 25.548 0 00-4.31 4.21l4.85 4.3zm-3.7 32.12l4.2-5.1a36.858 36.858 0 00-7.79.1.79.79 0 00.1.27c1.1 1.57 2.26 3.13 3.44 4.73h.05zM40 18.86l4.9-3.76a62.53 62.53 0 00-5.24-4.1c.22 2.59-.08 5.18.34 7.86zm14-9.04c.94 1.93 2.65 3 4.11 4.41l4.5-4.59-8.61.18zM24.88 20.24c.76-.07 1.52-.16 2.29-.21.77-.05 1.57.07 2.38-.05 0-1.07.1-2.08.1-3.08 0-1.24-.07-2.47-.08-3.71 0-.51.06-1 .09-1.67l-4.78 8.72zm25.49-.9l.06-.16-4.73-3.49-4.94 3.65h9.61zm9.15 32.88c-1.27-1.6-2.33-3.29-3.61-4.85.07 3.29.13 6.52.2 9.89 1.21-1.72 2.37-3.33 3.41-5.04zm-2.6 5.66c2.31.06 4.51.12 6.87.1a38.862 38.862 0 00-3.53-5l-3.34 4.9zM59.27 27a31.672 31.672 0 00-3.55 4.56c2.48-.23 5-.28 7.52-.7A38.878 38.878 0 0059.27 27zM35 14.59l3.64-4.74-7.64.53c.307.448.686.843 1.12 1.17.472.378.916.79 1.33 1.23.55.56.96 1.16 1.55 1.81zm27.61 4.86l-4.21-3.78-3.73 3.77c2.628.137 5.261.14 7.89.01h.05zM59.79 40.3l-2.45 4.84 6.09-.21a.64.64 0 00-.1-.22l-3.54-4.41zM30.62 18.82l.14.08 3.44-3.57a12.68 12.68 0 00-3.6-3.66 3.337 3.337 0 00-.06.51c.02 2.22.06 4.43.08 6.64zm4.87-3.41A8.18 8.18 0 0039 19.23a2.206 2.206 0 000-.23 42.164 42.164 0 01-.22-5.39v-1.7a3.15 3.15 0 00-.13-.46l-3.16 3.96zm20.59 43.9a54.085 54.085 0 00.11 7.19l3.61-3.69c-.26-.3-.51-.63-.8-.92a10.51 10.51 0 00-.8-.7l-1.66-1.44c-.15-.13-.29-.28-.46-.44zm-2.33-40.68A32.92 32.92 0 0057.39 15c-1.29-1.32-2.82-2.31-3.71-3.93l-.16.07c.08 2.44.15 4.86.23 7.49zM64.73 60c-1.26.92-2.34 1.89-3.44 2.87.577.82 1.212 1.6 1.9 2.33.67.68 1.24 1.47 1.93 2.31-.12-2.51-.26-4.96-.39-7.51zm-30-43.9L31 19.82l.05.12 6.33-.38v-.12a9.819 9.819 0 01-2.68-3.34h.03zm25.84 46l3.77-3.1c-2.43.09-4.74-.08-7.07 0 .337.406.72.772 1.14 1.09a8.55 8.55 0 011.85 1.7c.087.121.18.238.28.35l.03-.04z" fill="#2A2B2C"/><path d="M24.62 51.63c0 .84 0 1.68-.12 2.51a6.772 6.772 0 01-.44 1.5 1 1 0 01-.85.65c-1.26.06-2.51.14-3.77.11-.73 0-.85-.25-.88-1-.06-1.55-.12-3.1-.21-4.65A12.192 12.192 0 0018 49c-.14-.67 0-1 .57-1.29a2.74 2.74 0 011-.26h2.45c.39 0 .79.11 1.18.17.1 0 .2.07.3.07.62 0 .64.06.81.62a10.08 10.08 0 01.31 3.32zm-5 3.83h.79l1.88-.09c.92 0 1-.11 1.2-1 0-.12 0-.25.05-.37 0-1.45.08-2.89.09-4.33a5.904 5.904 0 00-.21-1.16c-.79 0-1.5-.11-2.2-.08a4.49 4.49 0 00-2.2.18c.64 2.21.28 4.5.58 6.85h.02zm13.94-2.8c0 .75-.05 1.51-.12 2.26-.07.75-.31.83-.91.94a5.6 5.6 0 01-.81.1l-2.64.13c-1.11 0-1.53-.32-1.63-1.44 0-.5-.05-1 0-1.51a21.594 21.594 0 00-.34-4.32c-.15-.84.05-1.12.88-1.26a11.998 11.998 0 014.06.13c.292.036.568.15.8.33.189.185.312.428.35.69.12 1 .2 2 .28 2.94v1l.08.01zm-1.07 2.24a38.006 38.006 0 00-.33-6.18 10.5 10.5 0 00-4.1-.1c.29 1.65.408 3.326.35 5v.81c0 .21.06.41.11.68l3.97-.21zM20.46 36.5c.67.12 1.35.2 2 .37.16 0 .33.32.38.52.35 1.68.67 3.37 1 5.06.02.186.02.374 0 .56a.82.82 0 01-.69.85c-.28.07-.58.1-.87.15a3 3 0 00-.68.13 9.359 9.359 0 01-2.83.5c-.89.09-1.17-.17-1.23-1.08-.09-1.4-.17-2.8-.26-4.21 0-.58-.11-1.16-.14-1.75-.03-.59.14-.87.81-.9l2.45-.12.06-.08zm2.42 6.42a43.645 43.645 0 00-1-5.21 15.2 15.2 0 00-3.63 0l.41 5.86c1.45.18 2.73-.57 4.22-.65zm-3.7 21.69c-.08-1-.15-2-.23-3-.1-1.3.29-1.72 1.6-1.7h1.26a4.68 4.68 0 012.24.53.74.74 0 01.33.48c.18.655.303 1.324.37 2 .05 1.1 0 2.22 0 3.33 0 .88-.23 1.1-1.1 1.25a14.9 14.9 0 01-3.89 0c-.45 0-.64-.28-.66-.76v-2.08l.08-.05zm4.55 1.82c.203-1.74.102-3.504-.3-5.21A7.09 7.09 0 0020 61c.05 1.81.11 3.62.16 5.48 1.187.133 2.387.116 3.57-.05zm11.45-15.11c0-.84-.09-1.67-.13-2.51 0-.51.15-.76.67-.77h3.77a.61.61 0 01.62.52c.125.444.202.9.23 1.36 0 1.3 0 2.59-.09 3.89-.02.313-.09.62-.21.91a1 1 0 01-1.1.75c-.54 0-1.08-.11-1.62-.17l-.87-.1c-.77-.07-1.1-.36-1.16-1.14-.06-.78 0-1.55-.08-2.32v-.44l-.03.02zm.91-2.3c.07 1.78.14 3.46.22 5.16l2.8.33a17.58 17.58 0 00.12-5.41 14.994 14.994 0 00-3.14-.1v.02z" fill="#2A2B2C"/></svg>