<svg version="1.1" id="Layer_1" xmlns="http://www.w3.org/2000/svg" x="0" y="0" viewBox="0 0 80 80" xml:space="preserve"><style>.st0{fill:#2a2b2c}</style><path class="st0" d="M16.1 68.6c-.8-8.4-1.5-16.8-1.9-25.3.1-3.1-.9-6.4 0-9.5-.4 0-2.8.1-3.2.1-.4.1-.9-.1-.9-.6 1.6-3.8 3.5-7.4 5.2-11.2.5-.9.8-1.9 1.4-2.8.1-.1.2-.1.3-.1.2 0 .4.1.5.3 1 1.3 2.3 2.4 3.4 3.6 2.5 2.1 4.4 4.7 6.6 7 .3.1.6.4.7.7.3 0 .6-.1.7.2.2.2.1.7-.2.8 0 0-2.3.5-2.4.5l.3 9.9 4-.2c-.3-1.5-.7-2.5-1.2-3.9-.2-.7-.1-.9.6-1 1.2-.2 2.3-.3 3.5-.3 0-5.4 0-10.7.1-16-1.1 0-4 .4-5 .3-1.5-.1-2.9.1-4.4.4-1 0-.6-1.2-.2-1.7 1.9-3.1 3.6-6.2 5.1-9.5.2-.6.8-1 1.5-1 8.1-.6 16.4-.6 24.6-.4 2.7 0 5.3-.1 7.9 0 1.7.1 1.2 2.6 1.4 3.8.2 8 1.5 16 1.5 24 .3 5.1.1 10.2.1 15.4-.4 5.7-.5 10.8 0 16.5h6.2c.5.1.9.2 1.4.4.7.4 0 1.4 0 2-.1.5-.3.6-.8.6-3.5-.1-7 .2-10.5-.1-2.2-.1-4.4-.5-6.5-.3-3 .5-6.1-.2-9.1-.2-6-.1-11.9.1-17.9-.2-6.7 0-13.3.8-20 1-.2 0-.5.1-.7-.2-.2-.2-.4-.1-.6.1-.3.3-.3.3-.6 0-.2-.1-.3-.2-.3-.4-.1-.4.2-.9.2-1.3.1-.7.6-.9 1.2-1 2.7-.4 5.3-.4 8-.4zm1-.1c10.8 0 21.7-.6 32.6-.1.7-2.6-.5-5.2-.3-7.8-.3-.1-1.4-.3-1.7-.3-.1 0-.3-.1-.4-.2-.3-.5-.3-1.2-.4-1.8-.1-1.8-.1-3.5-.1-5.3-1.5 0-2.9-.2-4.3-.4-.7-.2-.9-.4-.8-1.1.1-3 0-5.8.6-8.8-.8-.1-1.6.2-2.4.4-.4 0-.6-.3-.5-.7.3-1.3.1-2.8 0-4.1-2.9-.4-5.9-.3-8.8.1.3 1.3.8 2.6 1.1 3.9.2.6 0 .9-.6 1h-.3l-3.4.2c-.6-.1-1 .5-1.6.2-.2-.1-.2-.3-.2-.6.1-3.5-.3-6.9-.2-10.4-3.5.2-6.9 1-10.3 1.3-.2 4.5.3 9.1.5 13.6.1 6.9 1 13.8 1.5 20.9zm17.3-47.7c0 5.4.2 10.7.1 16.1 1.2.1 3.6.1 4.8.2 1.6-.1.8 3.6 1 4.7 3.9-.8 3-.3 2.5 2.9-.5 2.2-.2 4.6-.2 6.9 1.4.2 2.8.3 4.3.3.5 0 .7.2.8.7.1 2.2 0 4.5.3 6.7l1.5.3c.8.1.9.3.9 1.1-.1 2.6.8 5.1.7 7.8h3.6c0-.4-.1-.9.4-1.1.2-3-.1-6.1-.1-9.2.7-11.1-1.9-21.9-2.4-33-.1-1.2-.1-2.4-.2-3.7 0-.3-.1-.5-.3-.7-.6-.5-1.4-.2-2.1-.3-2.3.1-7.6-.2-9.8.1-.5.2-1 .2-1.6.1-1-.2-3.2 0-4.2.1zm30.2 11c.4.6.4.6.1 1.2-1.3 2.3-3.2 4.1-4.3 6.5l4.3 5.4c0 .2.4.2.5.3.1-4.5-.2-8.8-.3-13.2 0-.1-.1-.2-.3-.2zm-4.9 6.7c1.3-2.4 3.2-4.3 4.4-6.7-.8 0-1.6.2-2.4.3-2.3.3-4.7.1-7 .7 1.5 2 3.2 3.9 5 5.7zm-14-24.1l6.5-4.5c-4.2-.2-8.2-.2-12.3-.1v.2l5.8 4.4zm7.1-3.5c-2.2 1.2-4.2 2.6-6.1 4.2 1.8 1.3 3.7 2.6 5.4 4.1.2.2.5.3.8.1v-8.4zm8 41.2c1.7 1.7 2.7 3.8 4.1 5.7.4-3.6.5-7.2.3-10.9h-.1l-4.3 5.2zm-7.2-30.4c-.1 3.4.3 6.8.5 10.2 1.4-2 2.9-3.8 4.4-5.7-1.8-1.3-3.5-2.8-4.9-4.5zm2.1 23.6c1.6-1.3 2.3-4 3.4-5.8L54.4 34l1.3 11.3zM63 20.6l-9.1-.1c1.7 1.8 3.2 3.6 5.4 4.8 1.1-1.6 2.6-2.9 3.7-4.7zM59.9 26c1.7 1.4 3.1 3.3 5 4.6.1-3.3-.7-6.4-.8-9.6H64c-1.1 1.9-2.8 3.3-4.1 5zm4.5 42.5c-1-1.8-2.5-3.3-3.8-4.9-1.6 1.2-4.1 4-4.3 4.8 2.7.2 5.4.2 8.1.1zm-.6-49.3c.1-2.8-.1-5.7-.5-8.5-1.6 1.2-3 2.6-4.3 4.2l4.8 4.3zm-3.7 32.1l4.2-5.1c-2.6-.2-5.2-.2-7.8.1 1 1.7 2.4 3.3 3.6 5zM40 18.9l4.9-3.8c-1.7-1.5-3.4-2.8-5.2-4.1.2 2.6-.1 5.2.3 7.9zm14-9.1c.9 1.9 2.7 3 4.1 4.4l4.5-4.6-8.6.2zM24.9 20.2c1.6-.2 3.1-.2 4.7-.3.2-2.9-.1-5.5.1-8.5l-4.8 8.8zm25.5-.9l.1-.2-4.7-3.5-4.9 3.7h9.5zm9.1 32.9c-1.3-1.6-2.3-3.3-3.6-4.9.1 3.3.1 6.5.2 9.9 1.2-1.7 2.4-3.3 3.4-5zm-2.6 5.7c2.3.1 4.5.1 6.9.1-1-1.8-2.2-3.4-3.5-5l-3.4 4.9zM59.3 27c-1.3 1.4-2.5 2.9-3.5 4.6 2.5-.2 5-.3 7.5-.7-1.3-1.4-2.6-2.7-4-3.9zM35 14.6l3.6-4.7-7.6.5c1.3 1.5 2.8 2.5 4 4.2zm27.6 4.9l-4.2-3.8-3.7 3.8c2.6.1 5.3.1 7.9 0zm-2.8 20.8l-2.5 4.8 6.1-.2c0-.1-.1-.2-.1-.2l-3.5-4.4zM30.6 18.8l.1.1 3.4-3.6c-.9-1.5-2.2-2.7-3.6-3.7-.1 2.4.1 4.8.1 7.2zm4.9-3.4c.7 1.6 2 3 3.5 3.8-.4-2.6 0-5.2-.3-7.8l-3.2 4zm20.6 43.9c-.1 2.4-.1 4.8.1 7.2l3.6-3.7c-.9-1.3-2.6-2.4-3.7-3.5zm-2.3-40.7c1.3-1.1 2.5-2.3 3.6-3.6-1.3-1.3-2.8-2.3-3.7-3.9l-.2.1c.1 2.4.2 4.8.3 7.4zM64.7 60c-1.3.9-2.3 1.9-3.4 2.9 1.2 1.7 2.6 2.9 3.8 4.6-.1-2.5-.2-5-.4-7.5zm-30-43.9L31 19.8v.1l6.3-.4v-.1c-1-.9-2-2-2.6-3.3zm25.9 46l3.8-3.1c-2.4.1-4.7-.1-7.1 0 1 1.2 2.4 1.9 3.3 3.1z"/><path class="st0" d="M24.6 51.6c0 1.5.1 3.3-.9 4.5-1.3.5-2.9.2-4.3.3-.7 0-.9-.3-.9-1-.1-1.6-.1-3.1-.2-4.7 0-1-1-2.5.2-3 1.1-.5 2.3-.2 3.5-.3.5 0 1 .1 1.5.2.6 0 .6.1.8.6.3 1.2.4 2.3.3 3.4zm-5 3.9c.5 0 2.1-.1 2.7-.1.9 0 1-.1 1.2-1 0-1.9.4-4-.1-5.9-1.5 0-2.9-.4-4.4.1.7 2.2.3 4.5.6 6.9zm14-2.8c0 .8-.1 1.5-.1 2.3s-.3.8-.9.9c-.6.1-2.9.1-3.5.2-1.9.2-1.7-1.6-1.6-3 0-1.4-.1-2.9-.3-4.3-.2-.8 0-1.1.9-1.3 1.6-.1 3.4-.3 4.9.5.2.2.3.4.3.7 0 1.4.2 2.6.3 4zm-1.1 2.2c.1-2.1-.1-4.1-.3-6.2-1.3-.3-2.7-.3-4.1-.1.5 2.2.2 4.3.5 6.5l3.9-.2zm-12-18.4c.7.1 1.4.2 2 .4.2 0 .3.3.4.5.3 1.9.9 3.7 1 5.6 0 .9-.9.9-1.6 1-1.2.2-2.3.7-3.5.6-.9.1-1.2-.2-1.2-1.1-.1-2-.2-4-.4-6 0-.6.1-.9.8-.9l2.5-.1zm2.4 6.4c-.2-1.8-.6-3.5-1-5.2-1.2-.1-2.4-.1-3.6 0l.4 5.9c1.4.2 2.7-.6 4.2-.7zm-3.7 21.7c-.1-1-.1-2-.2-3-.1-1.3.3-1.7 1.6-1.7 1.2 0 2.4-.1 3.5.5 1.1 1.6.6 4 .7 5.8 0 .9-.2 1.1-1.1 1.3-1.3.2-2.6.2-3.9 0-.5 0-.6-.3-.7-.8 0-.6 0-1.4.1-2.1zm4.5 1.8c.2-1.7.1-3.5-.3-5.2-1.1-.4-2.3-.4-3.4-.2 0 1.8.1 3.6.2 5.5 1.1.1 2.3.1 3.5-.1zm11.5-15.1c0-.8-.1-1.7-.1-2.5 0-.5.2-.8.7-.8h3.8c.3 0 .6.2.6.5.4 1.7.2 3.5.1 5.2 0 .7-.4 1.8-1.3 1.7-.8 0-1.7-.2-2.5-.3-.8-.1-1.1-.4-1.2-1.1 0-.9-.1-1.8-.1-2.7zm.9-2.3c.1 1.8.1 3.5.2 5.2l2.8.3c.3-1.8.4-3.6.1-5.4-1-.1-2.1-.2-3.1-.1z"/></svg>