<svg width="80" height="80" fill="none" xmlns="http://www.w3.org/2000/svg"><path d="M53.7 62.17c0 .41 0 .71.08 1 .08.29-.07.64-.37.71a.62.62 0 01-.72-.5 6.677 6.677 0 01-.07-.9v-.26c-.38 0-.87-.13-1.06 0a2.66 2.66 0 00-.69 1.25c-.06.21.18.56.37.77.424.435.96.743 1.55.89.33.09.67.17 1 .28.179.048.348.125.5.23a.51.51 0 01.19.67.49.49 0 01-.64.28 7.56 7.56 0 01-3.32-1.48 1.503 1.503 0 00-.26-.15 6.999 6.999 0 000 1.59c0 .41.09.83.1 1.24.01.41-.18.74-.52.77-.34.03-.57-.17-.69-.64a6.172 6.172 0 01-.12-.75 8.65 8.65 0 01.15-3.51c.197-.56.434-1.104.71-1.63a14.003 14.003 0 00-4.11-.03c.23 1 .51 2.07.66 3.12.088.807.112 1.62.07 2.43-.022.357.08.71.29 1 .38.52.72 1.07 1.12 1.58.2.22.424.414.67.58.143.087.28.184.41.29a.5.5 0 010 .69.49.49 0 01-.68.15A3.69 3.69 0 0147 70.7c-.19-.29-.39-.57-.65-1-.18.41-.32.73-.47 1-.15.27-.33.71-.53 1-.2.29-.45.45-.74.34-.29-.11-.39-.35-.31-.74.12-.61.27-1.22.38-1.83.2-1.212.2-2.448 0-3.66a2.442 2.442 0 00-.14-.46.93.93 0 00-.15-.2c-.28.39-.53.77-.82 1.12a9.062 9.062 0 01-1 1c-.34.29-.65.27-.86 0-.21-.27-.19-.52.15-.84a7.529 7.529 0 001.57-2 1.22 1.22 0 000-1 12.137 12.137 0 01-.37-1.69 33.661 33.661 0 00-6.66-.13c-.08.06-.13.07-.15.11-.74 1-.73 1.19 0 2.17a2.84 2.84 0 001.36 1 .641.641 0 01.19.08.54.54 0 01.3.74.51.51 0 01-.7.26c-.32-.13-.63-.28-.95-.42l-.42-.23c0 .48-.06.89-.09 1.3a7.38 7.38 0 01-.71 2.8c-.06.1-.1.21-.17.31-.21.32-.48.43-.75.3s-.39-.43-.24-.82c.15-.39.33-.86.47-1.3a3.39 3.39 0 00-.27-2.75l-.43-.8c-.46-.88-1-1.75-.46-2.83-1.18 0-2.27-.07-3.35 0-1.61.11-3.22.32-4.82.5a9.796 9.796 0 00-1.43.29 1.52 1.52 0 00-.59.31c-.42.3-.72.28-1-.12a6 6 0 01-1-3.2c0-.37.14-.54.51-.61.093-.01.187-.01.28 0 1.112 0 2.22-.11 3.31-.33.34 0 .69-.08 1-.09l6.43-.29c.08-.25.16-.54.24-.82a8.902 8.902 0 011.77-3.18 18.062 18.062 0 013.44-3.21 7.94 7.94 0 013.52-1.37c.32 0 .63-.1.89-.14a47.885 47.885 0 00-.12-7.27c-1.49-.49-3-1.16-4.66-.85-.058.16-.101.323-.13.49a4 4 0 01-1.38 2.42 14.105 14.105 0 01-2.95 2.07 6.539 6.539 0 01-3.53.8 19.885 19.885 0 01-5.3-1 5.787 5.787 0 01-1.18-.56.72.72 0 01-.26-1.13c.64-1 1.25-2.11 2-3.11a7.41 7.41 0 011.55-1.66 10.43 10.43 0 015.25-2.18 6 6 0 015.44 2.32.77.77 0 00.67.39 7.49 7.49 0 013.79.62.817.817 0 00.27.06h.23c-.18-.94-.33-1.89-.56-2.82-.14-.59-.17-1.25-.79-1.62a.4.4 0 01-.11-.18c-.22-.67-.43-1.34-.66-2.05H39c-.91 0-1.81 0-2.71-.12a5.88 5.88 0 01-4.47-2.57c-.5-.75-1.05-1.47-1.6-2.19a8.09 8.09 0 01-1.36-2.78A16.412 16.412 0 0128.1 21c.066-1.037.214-2.066.44-3.08a3.36 3.36 0 01.67-1.35c.76-1 1.56-2 2.41-2.86a9.28 9.28 0 015.11-2.61 12.3 12.3 0 015.23.08c.31.08.63.14.95.2.55.07 1.069.292 1.5.64a3.2 3.2 0 00.79.44 6.66 6.66 0 013.66 4c.566 1.397.881 2.883.93 4.39a30.727 30.727 0 01-.33 3.3 25.793 25.793 0 01-1 4.32A8.72 8.72 0 0141.82 34l-.34.07a21.669 21.669 0 012 6.94c.16 1.22.5 2.42.77 3.67.34-.12.34-.34.34-.57V43a5.75 5.75 0 011.25-3.53 10.6 10.6 0 017-4.22 7.779 7.779 0 003-.84c.48-.29.86-.07.92.51.04.6.04 1.2 0 1.8A7.22 7.22 0 0155.41 41a5.85 5.85 0 01-4.16 2.33c-1.47.18-2.94.38-4.41.55a1 1 0 00-.75.43c-.2.283-.417.553-.65.81a4.15 4.15 0 00-1 3.53c0 .25 0 .5.06.68.94.4 1.81.83 2.72 1.15a10.67 10.67 0 014.42 3.47 8.33 8.33 0 011.87 4h.76l4.9-.48c1-.09 1.89-.15 2.84-.23.31 0 .63-.07 1-.12.37-.05.82-.07 1 .28.18.35.61.8.31 1.35a1 1 0 00-.12.57c.07.67.17 1.33.27 2a.551.551 0 01-.39.7 2.648 2.648 0 01-.69.07c-2.26 0-4.53-.11-6.79-.1-.98-.08-1.89.08-2.9.18zM23 61.71c.84-.18 1.6-.38 2.37-.51s1.83-.22 2.74-.35a27.005 27.005 0 016.16-.25c.89.07 1.8 0 2.7 0 .9 0 1.67-.09 2.5-.07 2.51.08 5 .19 7.55.29 1.59.06 3.18.16 4.78.2a19.06 19.06 0 002.66-.02 31.435 31.435 0 015.82-.1c.93.07 1.88 0 2.88 0l-.24-2.59h-.8c-1 .06-1.94.12-2.91.22-1.49.14-3 .4-4.48.44-3.51.11-7 .35-10.54.25-1.92-.06-3.84-.07-5.76-.06-1.31 0-2.63.1-4 .14-2.17.07-4.34.1-6.51.18-1 0-2.08.13-3.11.24-.8.07-1.58.21-2.38.33.004.6.204 1.184.57 1.66zm16.32-28.77v-.09c.828.08 1.662.08 2.49 0a7.12 7.12 0 005.45-4.44c.48-1.297.839-2.636 1.07-4a13.7 13.7 0 00-.33-7.27 6.1 6.1 0 00-3-3.58c-.49-.25-1-.52-1.47-.78-.26-.13-.54-.23-.65-.57 0-.11-.24-.2-.38-.23s-.56-.05-.83-.1a12.9 12.9 0 00-6.28.64 7 7 0 00-3 1.88c-.76.85-1.48 1.72-2.21 2.58a3.28 3.28 0 00-.71 1.49c-.223.984-.334 1.99-.33 3 .075 1.596.354 3.175.83 4.7a7.54 7.54 0 001.23 2.39c.51.65 1 1.31 1.48 2a4.43 4.43 0 003.08 2c1.24.26 2.38.28 3.56.38zm-2.76 8.22c-.62.12-1.17.18-1.7.34a8 8 0 00-3.78 1.75.49.49 0 01-.74 0 .51.51 0 01-.06-.74 3 3 0 011.22-1 15.294 15.294 0 014.07-1.33 4.84 4.84 0 00.58-.15 4.84 4.84 0 00-5-1.55 10.19 10.19 0 00-3.59 1.57 6 6 0 00-1.92 2.07c-.37.64-.76 1.26-1.15 1.89l-.33.58c.259.126.526.233.8.32 1.29.29 2.56.62 3.86.81a6.27 6.27 0 002.48 0 9.48 9.48 0 004.7-3 2.078 2.078 0 00.56-1.56zM45.7 43a2.49 2.49 0 00.31-.24 13.73 13.73 0 016.58-3.92c.37-.12.64 0 .75.26a.59.59 0 01-.38.78c-.14.07-.31.09-.46.15a14.452 14.452 0 00-4.16 2c-.19.14-.36.31-.54.47l.08.15c1.52-.25 3-.46 4.56-.78a3.07 3.07 0 001.31-.74 5.94 5.94 0 001.89-5.33c-.86.17-1.69.38-2.52.49a10.001 10.001 0 00-3.87 1.44 10.862 10.862 0 00-2.12 1.88 5.3 5.3 0 00-1.35 2.6 6.33 6.33 0 00-.08.79z" fill="#2A2B2C"/><path d="M47.65 22.35a13.18 13.18 0 01-1 6 6.08 6.08 0 01-4.44 3.62c-.43.1-.86.16-1.29.25a4.33 4.33 0 01-1.72 0c-.77-.13-1.57-.11-2.33-.27a6.81 6.81 0 01-5.34-4.42 16.788 16.788 0 01-1-3 9.79 9.79 0 01-.1-3.37 15.85 15.85 0 01.92-3.83 5.56 5.56 0 011.92-2.4 10.79 10.79 0 014.92-2.09 6.32 6.32 0 014.74 1 13.621 13.621 0 013.59 3.71 6.3 6.3 0 011.11 3.38c.03.45.02.94.02 1.42zm-8.48 4.76c-.6.18-1.16.32-1.71.5a.74.74 0 00-.6.81 1.39 1.39 0 001.68 1.39c1.36-.38 2.7-.83 4-1.3a.77.77 0 00.28-1.26 1.58 1.58 0 00-1.33-.59 4.14 4.14 0 01-.61 0l-.16-.66c-.61-2.2-1.21-4.41-1.83-6.61-.1-.378-.24-.743-.42-1.09a.67.67 0 00-1.11-.08 2.7 2.7 0 00-.4.86c-.24.89-.44 1.79-.66 2.68 0 .12-.07.23-.09.34a.72.72 0 00.66 1c.46.1.93.16 1.47.24l.83 3.77z" fill="#2A2B2C"/></svg>