<svg viewBox="0 0 80 80" fill="none" xmlns="http://www.w3.org/2000/svg"><path d="M22.14 47.79L21 46.55c-1.26-1.28-2.51-2.57-3.8-3.81-.77-.73-1.62-1.39-2.44-2.07-.82-.68-1.51-1.19-2.26-1.78a3.114 3.114 0 01-.33-.29c-.37-.4-.31-.74.16-1l2.86-1.6 2.44-1.39c.49-.28 1-.54 1.45-.86 2.05-1.47 4.28-2.63 6.46-3.89.6-.34 1.19-.69 1.79-1a1.43 1.43 0 011.11-.32c.08 0 .19-.08.29-.11.26-.08.52 0 .56.26.15.93.9 1.39 1.43 2 2.07-.45 4.08-.88 6.09-1.33.55-.12 1.09-.3 1.62-.46.36-.11.71-.19 1 .17l.94-1.07c.29-.32.59-.63.88-1a.998.998 0 00.21-.3c.21-.45.25-.49.73-.41l9.54 1.53c.48.078.964.132 1.45.16a33.27 33.27 0 014.46.56 2.42 2.42 0 001.69-.23c3.14-1.53 6.3-3 9.45-4.53a16.364 16.364 0 011.85-.87 4.39 4.39 0 013-.05 1.67 1.67 0 011 2.35 2.76 2.76 0 01-.75 1 11.56 11.56 0 01-1.74 1.09c-.7.38-1.43.69-2.14 1-.25.13-.47.33-.72.47-.25.14-.41.21-.62.31-1.82.94-3.63 1.88-5.46 2.8-1.83.92-3.79 1.88-5.72 2.83.09.36-.1.59-.41.81-.41.341-.8.705-1.17 1.09l.6.25c1 .44 2 .86 3 1.33 1.22.59 2.43 1.21 3.63 1.85.92.49 1.84 1 2.71 1.58a12.39 12.39 0 003 1.54.41.41 0 01.21.71 5.001 5.001 0 01-.68.62 242.665 242.665 0 01-9.13 6.77c-1.49 1.05-3 2.16-4.38 3.3-1 .82-2 1.75-3 2.64-.41.38-.81.77-1.21 1.17a.48.48 0 01-.59.12c-.34-.17-.67-.35-1-.53l-.92-.58-1.47-.92c-.72-.46-1.43-.92-2.16-1.35-.5-.3-1-.55-1.53-.83a.13.13 0 00-.09 0l-2.61 2.21c-.12.11-.23.23-.34.35-.66.72-1.31 1.45-2 2.18a.89.89 0 01-1.07.27c-1.1-.45-2.21-.89-3.3-1.39-2.16-1-4.32-2-6.47-3.07a28.205 28.205 0 00-4-1.32c-1-.3-1.93-.61-2.86-1-.93-.39-1.07-.66-.51-1.6a23.39 23.39 0 011.44-2c.34-.38.64-.72.97-1.12zm16.35 6.35a1.35 1.35 0 01-.51-.8c-.2-.72-.43-1.43-.65-2.16a47.7 47.7 0 00-6.5 4.45 68.017 68.017 0 006.47 2.84c.54-.52 1.09-1 1.54-1.5a11.14 11.14 0 011.71-1.66l1.55-1.2c.118-.091.228-.192.33-.3-.16-.12-.3-.2-.42-.3a.74.74 0 00-.89-.11c-.55.22-1.12.42-1.69.59a6 6 0 01-.94.15zm4.25-6.79s-.08-.08-.13-.09c-.39 0-.79-.12-1.18-.14A23.225 23.225 0 0135.15 46a26.93 26.93 0 00-3.09-.8 26.008 26.008 0 01-4.42-1.27 4.764 4.764 0 01-.65-.29c-.4-.25-.41-.53-.09-.88.79-.86 1.59-1.72 2.36-2.62 1.35-1.58 2.68-3.18 4-4.77l.17-.23c-.29-.35-.54-.69-.81-1-.88-1-1.76-2-2.65-2.94a4.86 4.86 0 01-1.57-2.28c-.34.17-.63.31-.91.47l-1.76 1.07c-2.06 1.28-4.2 2.44-6.15 3.89-.52.38-1.08.72-1.64 1.06-.56.34-.88.49-1.32.74L13.41 38c-.12.07-.22.15-.37.25.74.59 1.45 1.12 2.13 1.69 1 .86 2.07 1.7 3 2.63 1.46 1.4 2.85 2.88 4.28 4.32.63.62 1.3 1.21 1.95 1.81.65.6 1 .9 1.53 1.38a47.047 47.047 0 014.2 4.61c.048.058.102.112.16.16 1.09-.58 2-1.46 3-2.13 1-.67 2.07-1.27 3.06-2A31.642 31.642 0 0139.54 49c1.06-.53 2.13-1.09 3.2-1.65zm-14.9-4.26c1.05.31 2 .66 3 .88 1.89.42 3.77.87 5.61 1.46.956.281 1.932.488 2.92.62 1 .15 2 .18 3.07.32a4.36 4.36 0 012.5.94c.195-.096.376-.217.54-.36 3.5-3.8 7.22-7.4 10.46-11.52-.09 0-.16 0-.21.08-.56.3-1.13.59-1.67.92a2.001 2.001 0 01-1.51.36c-.74-.16-1.51-.2-2.26-.33-.59-.11-.76-.43-.55-1 .4-1 .83-2.08 1.26-3.12a.63.63 0 01.28-.3c.45-.23.91-.43 1.37-.64l3.89-1.79.62-.3a6.748 6.748 0 00-.67-.13l-3.77-.36h-.33c-1.32-.23-2.63-.48-4-.69-2.09-.33-4.19-.63-6.28-1a.62.62 0 00-.65.26c-.8 1-1.57 2-2.43 3-1.35 1.49-2.77 2.92-4.15 4.38-.7.75-1.4 1.51-2.07 2.3C31.23 39 29.63 40.9 28 42.81c0 .06 0 .12-.16.28zm23.27-.78a.74.74 0 01.49.74c0 .14.11.29.18.44.59 1.28 1.19 2.56 1.77 3.84.135.326.249.66.34 1 .17.53.06.78-.46 1-.718.3-1.453.56-2.2.78-2.7.74-5.35 1.65-8 2.6-.18.06-.35.14-.57.23a12.5 12.5 0 002.16 1.39c.62.33 1.24.67 1.83 1 1.1.7 2.18 1.42 3.27 2.13.084.046.17.086.26.12.37-.34.73-.67 1.1-1 1.33-1.13 2.54-2.42 4-3.45 2.29-1.64 4.58-3.3 6.84-5 1.88-1.34 3.64-2.75 5.47-4.13a3 3 0 01.27-.15 1.48 1.48 0 00-.27-.18 10.31 10.31 0 01-2.3-1.32 18.83 18.83 0 00-2.72-1.57c-1.17-.57-2.32-1.19-3.49-1.76-1-.47-1.94-.88-2.91-1.32l-.75-.37-4.31 4.98zm-.56.57c-.17.17-.31.28-.43.41-1.31 1.38-2.6 2.77-3.92 4.14-.248.23-.52.435-.81.61a.452.452 0 01-.63-.09.43.43 0 00-.21-.15c-.24 0-.48-.08-.65-.1a5.56 5.56 0 01-.6.42l-5 2.49-.06.08c.088.9.346 1.776.76 2.58l2.18-.77c2.87-1 5.74-2.1 8.68-2.94.78-.22 1.56-.45 2.34-.69.29-.09.56-.23.92-.37-.8-1.93-1.71-3.73-2.57-5.62zm-27.8 5.51a18.35 18.35 0 00-2.32 3.2c.089.075.186.139.29.19.71.26 1.41.56 2.14.76a27.994 27.994 0 016 2.12 1 1 0 00.29 0c-1.37-1.49-2.59-3-4.06-4.27l-.38.44c-.21.22-.42.45-.65.66-.23.21-.46.24-.62.08-.16-.16-.15-.37.06-.62a2.99 2.99 0 01.29-.32l.74-.79-1.78-1.45zm16.06-18.62l-.07-.11-.4.12c-.94.24-1.89.5-2.84.71-1.2.27-2.4.51-3.61.76-.13.043-.256.093-.38.15l2.61 3.1 4.69-4.73zm28.94-4.55A11.82 11.82 0 0069 27.83c.6-.27 1.15-.53 1.71-.77a.32.32 0 00.17-.52 3.419 3.419 0 00-.21-.38l-1.37-1.64-1.55.7zm-16.12 7.92L51 34.56a1.739 1.739 0 011 1.29c.35 0 .67.07 1 .08a.48.48 0 00.58-.54 3.902 3.902 0 00-.12-1 2 2 0 00-1.83-1.25z" fill="#2A2B2C"/><path d="M27.1 33.16c-.19.057-.377.124-.56.2-1 .47-2 .91-2.92 1.43-2.3 1.29-4.58 2.62-6.87 3.93a1.123 1.123 0 00-.18.12.39.39 0 00.34.68c.137-.044.268-.104.39-.18 1.37-.77 2.75-1.53 4.11-2.33a41.702 41.702 0 015.67-2.94 1.09 1.09 0 00.23-.14.349.349 0 00.13-.48c-.07-.12-.22-.19-.34-.29zm1.69 2.27c0-.37-.2-.55-.47-.49a1.41 1.41 0 00-.42.22c-2.36 1.7-4.9 3.09-7.39 4.57a1.69 1.69 0 00-.36.23.37.37 0 00-.09.53.4.4 0 00.52.18 1.73 1.73 0 00.33-.18c1.81-1.07 3.62-2.13 5.41-3.22.74-.45 1.44-1 2.15-1.48a1.65 1.65 0 00.32-.36zm1.68 2.85c-.2-.17-.27-.28-.35-.29a.69.69 0 00-.29.11c-1.92 1.13-3.81 2.3-5.62 3.6a4.34 4.34 0 01-1.42.88.32.32 0 00-.21.4.33.33 0 00.41.27c.19-.05.367-.138.52-.26a41.414 41.414 0 015.7-4c.3-.17.58-.37.87-.55l.39-.16zM31 49.62c.07-.027.137-.06.2-.1.54-.42 1.08-.83 1.61-1.26.26-.2.51-.41.76-.62.25-.21.23-.25.1-.42-.13-.17-.31-.12-.47 0L31 48.73a1.567 1.567 0 00-.35.33.36.36 0 00.35.56zm.69-3.4c-.16-.06-.26-.14-.35-.12a.779.779 0 00-.32.2l-2 1.46c-.26.19-.53.37-.79.57-.26.2-.27.26-.12.45a.39.39 0 00.54 0c.59-.49 1.18-1 1.78-1.47.33-.26.67-.49 1-.75.097-.105.184-.22.26-.34zm-6.65-1c.49-.201.946-.478 1.35-.82a.41.41 0 000-.39c-.08-.11-.3-.25-.39-.21-.433.207-.85.445-1.25.71a.43.43 0 00-.05.39c.05.1.21.23.3.34l.04-.02zm20.29 4.43l.38-.11 4.54-1.27 1.4-.42c.18-.06.33-.17.27-.4s-.27-.24-.48-.18l-.94.29-4.5 1.19a3.32 3.32 0 00-.71.25.46.46 0 00-.2.38c-.03.11.15.19.24.27zM34 55.49a2.47 2.47 0 00.29-.21l1.64-1.57c.24-.23.49-.43.72-.66.23-.23.24-.47.06-.62-.18-.15-.4-.1-.57.06-.73.66-1.46 1.31-2.17 2-.16.15-.29.33-.38.53-.1.2.09.46.41.47z" fill="#2A2B2C"/><path d="M27.1 33.16c.12.1.27.17.34.29a.352.352 0 01-.13.48 1.09 1.09 0 01-.23.14A41.7 41.7 0 0021.41 37c-1.36.8-2.74 1.56-4.11 2.33a1.734 1.734 0 01-.39.18.39.39 0 01-.34-.68c.056-.046.116-.086.18-.12 2.29-1.31 4.57-2.64 6.87-3.93.95-.52 1.95-1 2.92-1.43.183-.073.37-.136.56-.19zm1.69 2.27a1.65 1.65 0 01-.32.36c-.71.51-1.41 1-2.15 1.48-1.79 1.09-3.6 2.15-5.41 3.22a1.742 1.742 0 01-.33.18.4.4 0 01-.52-.18.37.37 0 01.09-.53c.11-.092.23-.169.36-.23 2.49-1.48 5-2.87 7.39-4.57a1.41 1.41 0 01.42-.22c.27-.06.48.12.47.49zm1.68 2.85l-.39.2c-.29.18-.57.38-.87.55a41.417 41.417 0 00-5.7 4 1.41 1.41 0 01-.52.26.33.33 0 01-.41-.27.32.32 0 01.21-.4 4.341 4.341 0 001.42-.88c1.81-1.3 3.7-2.47 5.62-3.6a.69.69 0 01.29-.11c.08-.03.15.08.35.25zM31 49.62a.36.36 0 01-.32-.56c.099-.127.217-.239.35-.33l2.17-1.51c.16-.12.33-.19.47 0 .14.19 0 .31-.1.42-.1.11-.5.42-.76.62-.53.43-1.07.84-1.61 1.26-.063.04-.13.073-.2.1zm.69-3.4a2.394 2.394 0 01-.28.34c-.33.26-.67.49-1 .75-.6.48-1.19 1-1.78 1.47a.39.39 0 01-.54 0c-.15-.19 0-.34.12-.45.12-.11.53-.38.79-.57l2-1.46a.78.78 0 01.32-.2c.11-.02.21.06.37.12zM25 45.24c-.13-.11-.29-.2-.34-.32a.43.43 0 01.05-.39c.412-.267.844-.504 1.29-.71.09 0 .31.1.39.21a.41.41 0 010 .39 5.07 5.07 0 01-1.39.82zm23-4.59a15.16 15.16 0 01-1.52-.34 51.045 51.045 0 00-6-1.23L36 38.32a4.325 4.325 0 01-.94-.24.51.51 0 01-.19-.91l.12-.11c.88-.83 1.78-1.65 2.65-2.5a1 1 0 011.17-.28c1 .35 2.06.55 3.09.83 1.57.42 3.14.86 4.71 1.27.9.23 1.8.42 2.7.63.265.057.526.134.78.23a.589.589 0 01.37.83 6.17 6.17 0 01-1.83 2.31c-.196.12-.408.21-.63.27zm-14.66-1.71c.6.12 1.22.19 1.81.35 2.75.78 5.56 1.32 8.34 2 .46.1.91.25 1.36.38.09.021.177.051.26.09.37.15.52.38.4.64s-.36.28-.74.17c-1.13-.31-2.26-.65-3.41-.88-2.17-.43-4.3-1-6.44-1.54a14.5 14.5 0 00-1.76-.26c-.38-.05-.58-.17-.57-.43.01-.26.2-.41.58-.44h.16l.01-.08zm8.11 4.84a.67.67 0 01-.18 0 15.225 15.225 0 00-2.83-.78c-1.87-.48-3.75-.94-5.63-1.4-.35-.08-.71-.14-1.06-.21-.35-.07-.46-.24-.43-.47.03-.23.26-.39.59-.31 1.37.31 2.74.65 4.12 1l5.29 1.18.48.1a.45.45 0 01.38.46c0 .23-.16.37-.48.41l-.25.02zm-1.07-12.01c2.235.198 4.456.532 6.65 1 .4.09.82.12 1.23.18.09-.01.18-.01.27 0a.44.44 0 01.35.48.402.402 0 01-.44.38 10.139 10.139 0 01-1.35-.16 48.899 48.899 0 00-6.91-1.07 1.506 1.506 0 01-.37-.06.39.39 0 01-.28-.47.38.38 0 01.36-.34l.49.06zm8.76.23l-4-.7-3.36-.58a1.469 1.469 0 01-.22 0c-.3-.07-.44-.24-.41-.48.03-.24.24-.4.57-.34 1.14.18 2.28.38 3.42.58 1 .17 2 .35 2.93.51.285.035.572.055.86.06h.27c.37 0 .56.18.55.46-.01.28-.23.43-.61.49zm4.25 10.12c.225.066.445.146.66.24 1 .46 1.91 1 2.87 1.42l3.38 1.6c.09 0 .2.08.29.14a.43.43 0 01.16.61.48.48 0 01-.62.18c-1.06-.51-2.12-1-3.17-1.52-1.05-.52-1.87-1-2.81-1.43-.32-.16-.67-.26-1-.39a.42.42 0 01-.34-.48c.03-.22.19-.36.58-.37zm9.01 2.51c0 .39-.27.59-.57.5-.203-.072-.4-.16-.59-.26-.39-.2-.76-.43-1.15-.63l-3.89-2c-.13-.07-.27-.12-.39-.2a.38.38 0 01-.12-.49.41.41 0 01.48-.26c.12.038.237.085.35.14L60 43.21c.68.35 1.35.71 2 1.09.148.091.282.202.4.33zM50.21 54.79c-.42-.17-.8-.29-1.15-.46-.51-.24-1-.52-1.49-.77-.22-.11-.35-.26-.27-.52.08-.26.3-.3.58-.19.201.076.398.163.59.26l1.76.82h.15c.21.11.31.29.21.49s-.25.26-.38.37zm-4.88-5.14c-.09-.08-.27-.16-.29-.27a.46.46 0 01.2-.38 3.31 3.31 0 01.71-.25l4.55-1.19.94-.29c.21-.06.4-.08.48.18.08.26-.09.34-.27.4l-1.4.42-4.54 1.27-.38.11zM34 55.49c-.33 0-.52-.27-.41-.5.09-.2.22-.38.38-.53.71-.66 1.44-1.31 2.17-2 .17-.16.37-.24.57-.06.2.18.16.4-.06.62-.22.22-.48.43-.72.66l-1.63 1.6a2.475 2.475 0 01-.3.21zm4.49-1.35c.49.45.49.63-.05 1s-1 .69-1.52 1c-.26.18-.48.16-.63 0-.15-.16-.14-.39.08-.62a1.14 1.14 0 01.2-.18l1.93-1.18-.01-.02z" fill="#2A2B2C"/></svg>