<svg version="1.1" id="Layer_1" xmlns="http://www.w3.org/2000/svg" x="0" y="0" viewBox="0 0 80 80" xml:space="preserve"><style>.st0{fill:#2a2b2c}</style><path class="st0" d="M22.1 47.8c-1.6-1.7-3.3-3.4-4.9-5.1-1.5-1.3-3.2-2.7-4.7-3.8-.5-.3-.9-1-.2-1.3 2-1.1 4.8-2.7 6.7-3.8 2.6-1.8 5.5-3.3 8.2-4.9.5-.4.9-.2 1.4-.4.3-.1.5 0 .6.3.1.9.9 1.4 1.4 2 2.6-.6 5.2-1 7.7-1.8.4-.1.7-.2 1 .2.6-.7 1.5-1.6 2-2.4.2-.5.2-.5.7-.4l9.5 1.5c2 .3 4 .3 5.9.7.6.1 1.2 0 1.7-.2 3.1-1.5 6.3-3 9.4-4.5 1.5-.8 3.2-1.6 4.9-.9 1 .3 1.5 1.5 1 2.3-1 2-3.6 2.3-5.3 3.6-4 2-7.8 4-11.8 5.9.1.4-.1.6-.4.8-.4.3-.8.7-1.2 1.1 2.5 1 4.9 2.2 7.2 3.4 2 .9 3.6 2.4 5.7 3.1.3 0 .5.5.2.7-4.5 3.9-9.6 7-14.2 10.7-1.4 1.2-2.9 2.5-4.2 3.8-.1.2-.4.2-.6.1-2.5-1.2-4.7-3.1-7.2-4.2L40 56.5c-1 .9-1.7 2.2-2.8 2.9-3.2-.7-7.2-3.1-10.4-4.5-2.2-1-4.7-1.4-6.9-2.3-.9-.4-1.1-.7-.5-1.6 1-1.2 1.9-2.2 2.7-3.2zm16.4 6.3c-.8-.7-.7-2-1.2-3-2.3 1.3-4.5 2.8-6.5 4.5 2.1 1.1 4.3 2 6.5 2.8 1.2-1 2-2.2 3.2-3.2.3-.2 1.7-1.3 1.9-1.5-.3-.2-.5-.5-.8-.5-1.1.3-2 .9-3.1.9zm4.2-6.8c-2.5-.5-5-.4-7.6-1.4-2.7-.9-5.6-1.1-8.2-2.4-.4-.2-.4-.5-.1-.9.8-.9 1.6-1.7 2.4-2.6 1.4-1.7 2.8-3.3 4.2-5-1.1-1.4-2.3-2.7-3.5-3.9-.7-.6-1.3-1.4-1.6-2.3-3.6 2-7 4.2-10.5 6.5-1.2.7-3.7 2.1-4.9 2.8 3.5 2.6 6.4 5.5 9.4 8.6 2.8 2.5 5.5 5 7.8 8 4.1-2.7 8.2-5.3 12.6-7.4zm-14.9-4.2c3.9 1.1 7.6 2.2 11.5 3 1.8.3 4 0 5.6 1.3 3.9-3.6 7.5-7.7 11-11.9-.9.3-1.7 1-2.6 1.3-1 .1-2-.2-3.1-.3-.6-.1-.8-.4-.5-1 .5-1.1.8-2.5 1.5-3.4 1.3-.7 4.5-2.1 5.9-2.7-.7-.2-4-.5-4.8-.5-3.4-.6-6.9-1.1-10.3-1.7-.2-.1-.5.1-.6.3-4.2 5.3-9.4 10-13.6 15.6zm23.3-.8c.3.1.5.4.5.7.7 1.8 1.7 3.4 2.3 5.3.2.5.1.8-.5 1-.7.3-1.5.6-2.2.8-2.9.8-5.7 1.7-8.6 2.8 2.4 1.7 5.1 3 7.5 4.6 5.4-5.1 11.8-9.2 17.7-13.7-4.2-2.5-8-4.6-12.4-6.5l-4.3 5zm-.6.6c-1.9 1.7-3.2 3.9-5.3 5.2-.3.1-.4-.2-.7-.3-.2 0-.5-.1-.7-.1-.1.3-5.2 2.7-5.6 2.9-.1.9.3 1.9.7 2.7 4.6-1.7 9.4-3.2 14.1-4.8-.7-1.9-1.6-3.7-2.5-5.6zm-27.7 5.5c-.9 1-1.7 2.1-2.3 3.2.7.5 1.6.7 2.4 1 2.2.4 4.2 1.5 6.3 2.1-1.4-1.5-2.6-3-4.1-4.3-.3.4-.7.8-1 1.1-.5.5-1-.1-.6-.5.2-.2.8-.9 1-1.1l-1.7-1.5zm16-18.6l-.1-.1c-2.4.8-4.9 1.1-7.2 1.7l2.6 3.1 4.7-4.7zm29-4.6c.3.9.7 1.8 1.2 2.6.6-.4 1.5-.5 1.9-1 .1-.5-1.4-1.9-1.6-2.3l-1.5.7zm-16.2 7.9l-.6 1.5c.5.2.9.7 1 1.3.5 0 1 .3 1.4 0 .6-1.2-.5-2.8-1.8-2.8z"/><path class="st0" d="M27.1 33.2c-3.7 1.4-6.9 3.7-10.4 5.6-.3.1-.5.6-.1.8.2.1.5 0 .6-.2 3.3-1.8 6.3-3.9 9.8-5.3.6-.3.6-.7.1-.9zm1.7 2.2c0-.7-.6-.6-.9-.3-2.5 1.9-5.3 3.2-7.9 4.9-.2.6.4.8.9.4 2.6-1.6 5.6-2.9 7.9-5zm1.7 2.9c-.3-.3-.3-.4-.6-.2-2.5 1.4-4.8 3.2-7.2 4.6-.2.7.6.6.9.3 2.1-1.8 4.4-3.4 6.9-4.7zm.5 11.3c.9-.6 1.7-1.3 2.6-2 .2-.2.2-.3.1-.4-.1-.2-.3-.1-.5 0L31 48.7c-.4.3-.7.9 0 .9zm.7-3.4c-.3-.2-.5-.1-.7.1l-2 1.5c-.3.3-1.6.9-.6 1.1.8-.3 1.3-1.1 2.1-1.6.4-.4.9-.6 1.2-1.1zm-6.7-1c.4-.2 1.6-.6 1.4-1.2-.4-.5-1.2.3-1.6.5-.3.3 0 .5.2.7zm20.3 4.5c1.3-.4 5.1-1.4 6.3-1.8.5-.1.3-.8-.2-.6-.5.2-4.8 1.3-5.4 1.5-.4 0-1.4.4-.7.9zM34 55.5c.2-.1 1.7-1.6 1.9-1.8.3-.3 1.2-.8.8-1.3-.2-.1-.4-.1-.6.1-.7.7-1.5 1.3-2.2 2-.3.3-.6.9.1 1z"/><path class="st0" d="M27.1 33.2c.5.3.5.7 0 .9-3.6 1.4-6.7 3.7-10.2 5.4-.4.1-.7-.4-.3-.7 3.4-1.9 6.8-4.2 10.5-5.6zm1.7 2.2c-2.3 2.1-5.3 3.4-7.9 5.1-.5.4-1.1.1-.9-.4 2.6-1.7 5.3-3.1 7.9-4.9.3-.3.9-.4.9.2zm1.7 2.9c-2.4 1.4-4.8 2.9-7 4.8-.2.1-.5.4-.8.2-.2-.1-.2-.5.1-.6 2.5-1.4 4.7-3.4 7.3-4.6.1-.1.2 0 .4.2zm.5 11.3c-.6-.1-.4-.7 0-.9l2.2-1.5c.2-.1.3-.2.5 0 .1.2 0 .3-.1.4-.8.6-1.7 1.5-2.6 2zm.7-3.4c-.9 1-2.1 1.7-3.1 2.6-.1.1-.4.1-.5 0-.1-.2 0-.3.1-.4.1-.1.5-.4.8-.6l2-1.5c.2-.2.4-.2.7-.1zm-6.7-1c-1.1-.7.5-1.1 1-1.4 1.3.4-.5 1.2-1 1.4zm23-4.5c-4.3-1.2-8.7-1.7-12.9-2.6-.5-.1-.5-.8-.1-1 1.1-.9 2-2.1 3.2-2.8 4 .8 7.9 2.1 11.9 3 1.4.5-1.3 3.3-2.1 3.4zm-14.7-1.8c3.8.8 7.7 1.7 11.5 2.7.4.1.9.4.7.7-.1.3-.4.3-.7.2-3.8-1-7.7-2-11.6-2.7-1 0-.7-.9.1-.9zm8.2 4.9c-3.2-.9-6.4-1.7-9.7-2.4-.4-.1-.5-.2-.4-.5 0-.2.3-.4.6-.3 1.4.3 2.7.6 4.1 1l5.3 1.2.5.1c.5.1.5.9-.1.9h-.3zm-1.1-12c2.8.2 5.4.9 8.1 1.2.2 0 .4.3.4.5s-.2.4-.4.4c-2.8-.3-5.5-1.1-8.3-1.2-.2 0-.5 0-.6-.2-.1-.2 0-.6.3-.6 0-.2.5-.1.5-.1zm8.7.2c-1.9-.3-5.6-1.1-7.6-1.3-.3-.1-.4-.2-.4-.5 0-.2.2-.4.6-.3 2.4.3 4.8 1 7.2 1.2h.3c.8-.1.7.9-.1.9zm4.3 10.1c1.3.4 2.4 1.2 3.5 1.7.2.2 3.7 1.7 3.8 1.9.3.4-.2.9-.6.7-2-.9-4.1-2-6-3-.4-.2-.9-.3-1.3-.6-.1-.3.1-.7.6-.7zm9 2.5c-.1 1.3-1.7-.2-2.3-.4-.2-.1-4.2-2.2-4.3-2.2-.5-.4.1-1 .7-.6 1.6.9 4.5 2.1 5.9 3.2zM50.2 54.8c-1-.3-1.8-.8-2.6-1.2-.2-.1-.4-.3-.3-.5.1-.3.3-.3.6-.2.4.2 1.9.9 2.4 1.1.3 0 .5.3.4.5-.2.1-.4.2-.5.3zm-4.9-5.1c-.8-.4.2-.8.6-.9.7-.2 4.9-1.3 5.5-1.5.5-.2.7.5.2.6-1.1.3-5 1.4-6.3 1.8zM34 55.5c-1.6-.3 1.8-2.5 2.1-3 .4-.4 1 .1.5.6-.6.5-1.9 1.9-2.6 2.4zm4.5-1.4c.5.5.5.6-.1 1-.5.4-1 .7-1.5 1-.5.4-1-.2-.5-.6 0-.1 2-1.3 2.1-1.4z"/></svg>