<svg width="80" height="80" fill="none" xmlns="http://www.w3.org/2000/svg"><path d="M61.07 41.48c-.12.29-.21.56-.33.82a2.42 2.42 0 01-1 1.11 1.38 1.38 0 01-2.11-.59 6.61 6.61 0 01-.75-3.82v-.68l-.24-.2a1.34 1.34 0 010-2.21.69.69 0 00.26-.57v-1.58c.087-2.6.183-5.197.29-7.79v-.74a11.888 11.888 0 01-4-.27c-1.3-.28-2.42-1-3.67-1.39 0 .07-.09.11-.08.14a11.78 11.78 0 01.69 5.06 31.005 31.005 0 01-1.3 7.46 14.32 14.32 0 01-2.61 5.07 12.54 12.54 0 01-3.34 2.77 3.27 3.27 0 01-2.16.4 7.88 7.88 0 01-4.57-2.18l-.38-.37a.502.502 0 00-.13-.07c-.34.21-.31.55-.27.87.04.32.15.92.24 1.37a7.89 7.89 0 01-.16 3.28c-.35 1.65-.72 3.31-1.18 4.93a9.49 9.49 0 01-2.11 3.86c-.27.3-.6.56-.94.87.097.122.2.239.31.35a3.9 3.9 0 01.87 2.31 4.36 4.36 0 01-3 4.34 3.23 3.23 0 01-3.4-1.65c-.19-.37-.32-.77-.5-1.21-.26-.11-.59-.25-.9-.41-.31-.16-.55-.31-.87-.5v.26a1.91 1.91 0 01.8 1.52 2 2 0 01-.45 1.54 3.288 3.288 0 01-1.2 1 .91.91 0 00-.41.39 38.45 38.45 0 01-3.21 5.79c.115.407.202.821.26 1.24a2.44 2.44 0 01-1.09 2.33 5.09 5.09 0 01-3 1 8.595 8.595 0 01-2-.22 5.549 5.549 0 01-3.93-3.85 2.89 2.89 0 01.67-2.83 1.211 1.211 0 011.26-.43c.17 0 .34.06.56.09l2.32-3.6.81-1.29a4.059 4.059 0 00.76-1.66c.047-.217.118-.428.21-.63a2.23 2.23 0 013-1.51c0-.08.13-.15.18-.24a58.767 58.767 0 016.51-9.45c2.45-3 4.63-6.11 6.81-9.26 1.52-2.19 3.1-4.33 4.64-6.51 1.42-2 2.81-4 4.24-6.06a144.44 144.44 0 013-4.06c1.52-2 3-4.08 4.61-6a26.15 26.15 0 002.53-4c.374-.701.806-1.37 1.29-2 1.72-2.17 3.47-4.33 5.22-6.48.219-.276.46-.533.72-.77.34-.32.51-.29.83 0 .1.11.218.201.35.27a9 9 0 014.83 6.12c.142.713.239 1.435.29 2.16a14.4 14.4 0 01-.47 5.62 8.51 8.51 0 01-5.5 6l-.68.24-.13.1c-.3 3.495-.42 7.003-.36 10.51.68.08 1 .67 1.3 1.11A.94.94 0 0159 38a7.47 7.47 0 01-1 .54 5.51 5.51 0 00.51 3.7c.19.39.39.42.74.18a1.839 1.839 0 00.75-1.21 1.848 1.848 0 00-.24 0 .5.5 0 01-.65-.17.57.57 0 010-.67c.64-1 1.05-1.11 2-.29.12.1.25.18.36.29.43.42.33.82-.25 1l-.15.11zM48.16 23.27l-.29.33a76.79 76.79 0 00-4.57 6.46 444.8 444.8 0 01-4.19 6.26c-1 1.47-2.06 2.91-3.08 4.34v.16c.03.06.068.117.11.17a7.37 7.37 0 004 2.46 3.399 3.399 0 002.8-.54 12.19 12.19 0 004.71-6.36 32.007 32.007 0 001.45-6.69c.205-1.51.205-3.04 0-4.55a3 3 0 00-.94-2.04zm9.18.81c.44-5.5.883-10.987 1.33-16.46a15.29 15.29 0 00-1 1.66c-.54.94-1 1.91-1.61 2.81-.94 1.44-1.93 2.83-2.92 4.24L50 20.73l-1 1.46c.79.31 1.53.53 2.22.88a11.8 11.8 0 003 1 7.15 7.15 0 003.12.01zm2.32-18.35c-.41 6.06-.81 12-1.22 18.05.25-.07.44-.11.62-.18a7.37 7.37 0 004.33-4.44c.686-2.073.894-4.275.61-6.44a9.66 9.66 0 00-1.61-4.54 8 8 0 00-2.73-2.45zM30.38 56.56c.096-.165.21-.32.34-.46a8.55 8.55 0 002.7-4.59c.43-1.61.77-3.25 1.13-4.88a7.221 7.221 0 00-.17-3.39c-.75.6-8.26 12.54-8.89 14.14l.63.38c.133-.188.277-.368.43-.54a2.491 2.491 0 012.25-1l1.58.34zM18.91 69.34A28.928 28.928 0 0021.27 65c.07-.15.12-.31.2-.51a5.69 5.69 0 01-4.82-1.77c-.2.31-.35.57-.52.83-1.23 1.87-2.47 3.74-3.7 5.62a1.64 1.64 0 000 2.23 3.72 3.72 0 003 1.46 1.31 1.31 0 001-.41 2.23 2.23 0 01.61-.5l1.87-2.61zm14.83-28.77c-.23.32-.41.56-.58.82-2.29 3.42-4.72 6.74-7.34 9.92a53.292 53.292 0 00-5.51 8.13l-.48.92c.26.16.47.32.7.43a1.699 1.699 0 001.41.06c.25-.1.43-.42.58-.67 1.38-2.28 2.74-4.57 4.1-6.85 2.38-3.92 4.7-7.81 7.38-11.51.16-.23.31-.47.48-.72l-.74-.53zM46.73 22c-.057.097-.121.19-.19.28-1.38 1.91-2.79 3.79-4.14 5.72-1.59 2.28-3.11 4.59-4.68 6.88-1 1.45-2 2.88-3 4.32-.12.17-.24.36-.38.59l.7.51.28-.36c2.66-3.67 5.32-7.34 7.85-11.11 1.23-1.84 2.66-3.56 4-5.33l.53-.67-.97-.83zm1.54.17c.04-.105.09-.206.15-.3a35.759 35.759 0 002.83-4.19c.7-1.13 1.31-2.3 2-3.39a61.672 61.672 0 004-6.65c.09-.16.16-.34.24-.5a.34.34 0 00-.25.14c-1.2 1.49-2.38 3-3.59 4.49a16.133 16.133 0 00-1.86 3c-.42.85-.91 1.66-1.38 2.48-.47.82-.85 1.43-1.27 2.16-.28.5-.29.51-.91.38l-1 1.44 1.04.94zm10.1 15a3.372 3.372 0 00-.64-.46.36.36 0 00-.53.23c-.06.23.12.35.3.44a.76.76 0 00.87-.23v.02z" fill="#2A2B2C"/><path d="M57 70s-1.49.06-1.84 0a27.007 27.007 0 01-3-.5 38.442 38.442 0 01-3.9-1.25 11.77 11.77 0 01-6.64-6.7 9.49 9.49 0 01-.59-4.1 15.39 15.39 0 01.6-4.45 10.29 10.29 0 012.31-4.33 14.6 14.6 0 016.62-4.41 12.36 12.36 0 018.41.43 14.13 14.13 0 016.24 4.49 13.26 13.26 0 012.43 6.07c.1.66.23 1.33.33 2 .04.171.04.349 0 .52-.18.72-.39 1.44-.6 2.15a5.24 5.24 0 01-1.13 2c-.17.198-.314.417-.43.65-.16.31-.29.64-.43 1a10.41 10.41 0 01-4.65 5c-.63.304-1.282.561-1.95.77L57 70zM45.78 55.61c.302.016.603.053.9.11l3.22.95a.78.78 0 00.5 0c.34-.18.93 0 1.22-.22.59-.52 1.13-1.12 1.73-1.62a.872.872 0 00.29-1.2c-.19-.39-.32-.82-.52-1.21-.48-.94-1-1.86-1.47-2.8a1.999 1.999 0 01-.24-.73.42.42 0 00-.4-.43c-1.25-.26-2.5-.51-3.75-.78-.3-.06-.27.29-.51.49a5 5 0 00-1.3 1.56l-.92 1.75a1 1 0 00-.09.82 7.999 7.999 0 001.33 3.29l.01.02zm4.46 10.57c.52-1.12 1.06-2.18 1.51-3.27a2.58 2.58 0 00.15-1.79c-.37-1.13-.84-2.22-1.25-3.34a.67.67 0 00-.57-.45c-1-.23-2.1-.48-3.15-.73-.14 0-.2.38-.33.08a1 1 0 01-.34.47 2.29 2.29 0 00-.72.92c-.57.89-1.12 1.79-1.72 2.65-.22.32.16.49.34.82.63 1.13 1.25 2.27 1.9 3.45 1.49.34 2.59.79 4.17 1.17l.01.02zM58 54.89l1.19-2.39a2.1 2.1 0 01.36-.62.86.86 0 00.23-.72 17.442 17.442 0 00-.92-5 .74.74 0 00-.57-.56c-.76-.2-1.53-.39-2.29-.6a.61.61 0 00-.6.16 15.061 15.061 0 00-2.72 2.69c-.16.242-.306.493-.44.75a28.918 28.918 0 012.58 5.2.43.43 0 00.18.2c1 .3 1.92.58 3 .89zm2.18-2.18c-.43.85-.91 1.79-1.38 2.73a.64.64 0 000 .43c.25.7.53 1.4.78 2.1a1 1 0 00.85.7 10.43 10.43 0 011.67.4c.79.26 1.57.57 2.35.87.54.2.6.19 1-.23.23-.294.478-.574.74-.84a2.4 2.4 0 00.8-2.19c0-.26-.06-.53-.09-.79a15.827 15.827 0 00-1-3.69c-.72 0-1.44-.09-2.16-.06-.72.03-1.62.16-2.42.28-.402.075-.799.172-1.19.29h.05zm-2.79 9.76l1 4c.06.21.08.45.35.51.53.12 1.06.25 1.6.35a.88.88 0 00.49-.13 9.18 9.18 0 002.83-2.72c.25-.41.53-.8.79-1.21a.53.53 0 00.12-.29c0-.61 0-1.23-.06-1.84a.44.44 0 00-.34-.43l-3.66-1.28a.78.78 0 00-1 .33c-.66.93-1.41 1.79-2.17 2.71h.05zm-1 .19l-2.8-.58c-.43-.09-.51 0-.65.42-.18.59-.37 1.17-.6 1.74a12.803 12.803 0 01-.76 1.53.86.86 0 00.05 1.13c.12.16.19.35.31.51a1.24 1.24 0 01.35 1 11 11 0 003.7.48.76.76 0 00.75-.5c.284-.47.506-.974.66-1.5a5.44 5.44 0 00-.33-1.59l-.27-1.09c-.14-.49-.28-1.02-.41-1.55zM42 60.92c.16.88 2.39 3.82 3 4.33-.24-.47-1.63-3.45-1.87-3.8-.24-.35-.66-.23-1.13-.53zm4-13.5C45.3 48 43 50 43.93 51A19.131 19.131 0 0146 47.42zM19.67 65.9a4.76 4.76 0 01-2.55-1.19 2.852 2.852 0 01-.45-.47.46.46 0 010-.7c.21-.19.44-.17.71 0 .373.337.775.642 1.2.91a5.6 5.6 0 001.24.37c.12 0 .28 0 .38.07.1.07.29.24.3.38a.54.54 0 01-.24.42 2.56 2.56 0 01-.59.21zm-1.81 2.53a3.5 3.5 0 01-2.17-.87c-.11-.1-.26-.23-.27-.36a.76.76 0 01.13-.53.43.43 0 01.65 0c.587.47 1.3.755 2.05.82.44.07.65.28.59.56-.06.28-.37.39-.66.4l-.32-.02zm-2.21 2.99a2.21 2.21 0 01-2-1.35.51.51 0 01.82-.57.377.377 0 01.09.09 1.45 1.45 0 001.52.8.42.42 0 01.45.46.45.45 0 01-.37.48c-.23.05-.42.07-.51.09z" fill="#2A2B2C"/></svg>