<svg version="1.1" id="Layer_1" xmlns="http://www.w3.org/2000/svg" x="0" y="0" viewBox="0 0 80 80" xml:space="preserve"><style>.st0{fill:#2a2b2c}</style><path class="st0" d="M61.1 41.5c-.3 1.3-1.7 2.9-3.1 1.9-1.1-1.4-1.2-3.3-1.1-5-.9-.5-1.2-1.7-.2-2.4.5-.6.2-1.4.3-2.1.1-2.8.2-5.7.3-8.5-2.7.4-5.3-.6-7.7-1.7 0 .1-.1.1-.1.1.6 1.6.8 3.3.7 5.1-.3 4.4-1.1 9-3.9 12.5-1.4 1.5-3.2 3.4-5.5 3.2-2-.2-3.6-1.3-5.1-2.6-.3.2-.3.6-.3.9.3 1.4.5 3.2.1 4.7-.8 3.4-1.2 7.4-4.2 9.7 2.9 2.6 0 8.4-3.8 6.7-1.1-.5-1.6-1.5-1.9-2.6-.6-.2-1.2-.6-1.8-.9v.3c1.5 1.1.7 3.4-.9 4.1-.2.1-.3.2-.4.4-.9 2-2 4-3.2 5.8 1.8 4.9-5.8 5.8-8.3 2.9-1-1-1.8-2.5-1.5-4 .2-.7.6-1.4 1.3-1.7.4-.1.8 0 1.3.1.6-.9 2.6-4 3.1-4.9.8-.9.7-2.2 1.4-3.1.6-.8 1.7-1 2.6-.7 3.7-6.8 9.3-12.5 13.5-19 4-5.5 7.8-11.2 11.9-16.6 1.5-2 3-4.1 4.6-6 1.5-1.8 2.4-4.1 3.8-6 1.7-2.2 3.5-4.3 5.2-6.5.4-.4 1-1.4 1.5-.8 2.5 1.4 4.6 3.5 5.2 6.4 1.1 5.1 0 12-5.7 13.8-.1.1-.7.2-.8.3-.3 3.5-.4 7-.4 10.5.8.1 1.2.8 1.4 1.5.1.9-.8 1.2-1.4 1.5-.3.7.1 4.8 1.3 3.9.4-.3.7-.7.7-1.2-.2 0-.4.1-.6 0-.4-.1-.5-.6-.3-.9.6-1 1-1.1 2-.3.6.3 1 1 .1 1.3 0-.2-.1-.1-.1-.1zM48.2 23.3c-3.4 4.1-6 8.7-9.1 13-.9 1.5-2.3 2.9-3.1 4.5 1.3 1.6 3.4 2.9 5.6 2.7 3-1 5-4 6.1-6.9.7-2.2 1.2-4.4 1.4-6.7.1-2.2.6-4.9-.9-6.6zm9.1.8c.4-5.5.9-11 1.3-16.5-2.7 5-6.4 9.9-9.7 14.6 2.8 1 5.5 2.6 8.4 1.9zm2.4-18.4c-.4 6.1-.8 12-1.2 18 7.3-1.8 7.5-14.7 1.2-18zM30.4 56.6c1.3-1.5 2.7-3 3-5.1.6-2.7 1.8-5.5 1-8.3-.8.6-8.3 12.5-8.9 14.1l.6.4c.6-.9 1.5-1.7 2.7-1.5l1.6.4zM18.9 69.3c1-1.5 1.9-3.1 2.6-4.8-1.8.2-3.6-.5-4.8-1.8-1.4 2.2-2.8 4.3-4.2 6.5-.3.3-.4.7-.4 1.1.2 1.7 2.4 2.9 4 2.5.4-.2.7-.6 1.1-.8-.2-.1 1.7-2.7 1.7-2.7zm14.8-28.7c-4.3 6.8-10.2 12.6-13.9 19.8.8.7 2.2 1 2.7-.2 3.9-6.4 7.6-13 12-19.1l-.8-.5zm13-18.6c-4.3 5.8-8.3 11.8-12.4 17.8l.7.5c4.3-5.7 8.1-11.9 12.7-17.5l-1-.8zm1.6.2c1.8-2.5 3.4-5.2 5-7.9 1.6-2.3 3-4.7 4.2-7.1-1.4 1.3-2.5 3.1-3.8 4.6-1.8 2.3-2.9 5.2-4.5 7.6-.3.5-.3.5-.9.4l-1 1.4 1 1zm10.1 15c-.3-.3-.9-.8-1.2-.2-.1.5.9.6 1.2.2z"/><path class="st0" d="M57 70c-1.3.1-3.5-.1-4.8-.5-4.5-1-8.9-3.4-10.5-8-1.3-4.2-.6-9.5 2.3-12.9 5.6-6.9 15.9-6.3 21.3.5 1.8 2.3 2.4 5.2 2.8 8.1.1.9-.4 1.8-.6 2.7-.2 1-1 1.8-1.6 2.6-1.1 3.2-3.7 5.9-7 6.8-.1 0-1.9.7-1.9.7zM45.8 55.6c.6-.1 3.5.9 4.1 1.1.2.1.3.1.5 0 .3-.2.9 0 1.2-.2.6-.7 1.8-1.4 2.1-2.2.1-.7-.4-1.3-.6-1.9-.6-1.3-1.4-2.5-1.8-3.8-1.3-.5-2.7-.6-4-.9-.3-.1-.3.3-.5.5-1 .7-1.7 2.3-2.2 3.3-.5 1.3.5 3 1.2 4.1zm4.4 10.6c.6-1.7 2.1-3.2 1.7-5.1-.4-1.1-.8-2.2-1.3-3.3 0-.1-.1-.2-.2-.3-1.1-.4-2.3-.5-3.5-.9-.1 0-.2.4-.3.1-1.3 1.5-1.7 2.5-2.8 4-.2.3.2.5.3.8.6 1.1 1.2 2.3 1.9 3.4 1.5.4 2.7.9 4.2 1.3zM58 54.9l1.2-2.4c.1-.5.7-.8.6-1.3-.1-1.7-.4-3.4-.9-5-.1-.3-.3-.5-.6-.6-.9-.2-1.7-.6-2.6-.6-1.4.9-2.6 2.2-3.4 3.6 1.2 1.7 1.8 3.6 2.8 5.4.9.3 1.8.6 2.9.9zm2.2-2.2c-.3.9-1.4 2.1-1.4 3.2.4.8.5 1.9 1.1 2.6 1.5.5 3.1.8 4.6 1.5.5.2.6.2 1-.2.4-.6 1.2-1.1 1.4-1.8.4-1.9-.4-3.9-1-5.7-1.9-.2-3.9-.2-5.7.4zm-2.8 9.8l1 4c.1.2.1.4.4.5.7.1 1.4.5 2.1.2 1.6-.9 2.7-2.4 3.6-3.9.3-.6.1-1.4.1-2.1 0-.2-.1-.4-.3-.4l-3.7-1.3c-.4-.2-.8 0-1 .3-.8.9-1.5 1.7-2.2 2.7zm-1 .2l-2.8-.6c-.4-.1-.5 0-.7.4-.3 1.5-1.2 2.7-1.5 3.8 0 .2.1.4.2.6.3.5.8.9.7 1.5 1.3.3 2.8.7 4.2.4.5-.5.7-1.2 1-1.9-.2-1.4-.8-2.8-1.1-4.2zM42 60.9c.2.9 2.4 3.8 3 4.3-.2-.5-1.6-3.5-1.9-3.8-.2-.3-.6-.2-1.1-.5zm4-13.5c-.7.6-3 2.6-2.1 3.6.6-1.3 1.3-2.5 2.1-3.6zM19.7 65.9c-1-.1-1.8-.5-2.5-1.2-.3-.3-.9-.8-.4-1.2.7-.5 1.3.7 1.9.9.5.3 1.1.3 1.6.4.6.5-.1 1-.6 1.1zm-1.8 2.5c-.8 0-3-.7-2.3-1.8.2-.2.5-.2.7 0 .6.5 1.3.8 2 .8.4.1.6.3.6.6-.1.5-.7.5-1 .4zm-2.3 3c-.4 0-.8-.1-1.2-.4-.4-.3-.9-.8-.8-1.3.1-.4.7-.5.9-.1.3.6.9.9 1.5.8.1 0 .2 0 .3.1.2.2.2.5 0 .6 0 .3-.5.3-.7.3z"/></svg>