<svg width="80" height="80" viewBox="0 0 80 80" fill="none" xmlns="http://www.w3.org/2000/svg"><path d="M45.17 60.66a3.73 3.73 0 01-1.46 3.53c-2.06 1.83-4.36 3.23-7.26 3.24a14.633 14.633 0 01-1.62-.08 1.69 1.69 0 01-.78-.22c-.39-.28-.67-.72-1.09-.93a3 3 0 01-1.14-.81c-3.09-4.13-6.16-8.27-8.84-12.68l-.3-.45c-.76.16-1.15-.33-1.52-.91-.67-1.05-1.34-2.1-2.06-3.12a1.45 1.45 0 010-2c-.43-.73-.86-1.45-1.27-2.18C16.4 41.54 15 39 13.54 36.43c-.64-1.13-1.3-2.26-1.94-3.39a8.945 8.945 0 01-.45-.87c-.41-.87-.28-1.12.72-1.32.057-.143.104-.29.14-.44a7 7 0 012-3.77c.437-.482.844-.99 1.22-1.52.347-.44.802-.785 1.32-1a9.638 9.638 0 013.28-.85.65.65 0 01.73.5c.2.53.41 1.05.64 1.63l.81-.3a4 4 0 012.56 0c.324.096.663.13 1 .1.52 0 .82.14.83.64a12.94 12.94 0 001.45 4.79c.81 1.89 1.79 3.71 2.69 5.56a1.13 1.13 0 001 .71 2.81 2.81 0 012.26 1.54c.45.95 1 1.85 1.5 2.79a1.22 1.22 0 010 1.6c.9.33.81 1.26 1.24 2l1.34-.07c-.19-.71-.39-1.33-.53-2a864.43 864.43 0 01-1.38-6.28 3.476 3.476 0 01-.07-.64c-.258-3.8.08-7.615 1-11.31a5.42 5.42 0 011.78-3 1.13 1.13 0 01.57-.23l7-.51c1.3-.09 2.6-.13 3.9-.27 2.61-.27 5.22-.59 7.84-.91 2-.25 4.08-.56 6.13-.79a4.42 4.42 0 014.62 2.34 5.87 5.87 0 01.21 6c-.62 1.18-.44.95-1.71 1a29.198 29.198 0 00-3.21.37 12.998 12.998 0 00.13 3c.22 2.07.45 4.15.64 6.23.09.91 0 1.85.18 2.76a5.53 5.53 0 01.1 2.48c.71 2.36.2 4.68-.3 7a8 8 0 01-2.45 3.86c-.6.59-1.29 1.09-1.91 1.65-.29.27-.51.62-.79.9-.175.155-.374.28-.59.37-.32.15-.67.23-1 .4a24.91 24.91 0 01-8.59 2.87c-1.39.22-2.81.41-4.28.61zm8-8.39c0 1.78.54 2.42 2.1 2.79h.15a3.71 3.71 0 003.64-1c2-2.14 3.66-4.42 4-7.46.229-1.858.26-3.736.09-5.6-.42-3.47-.9-6.94-1.4-10.4a15.527 15.527 0 01-.21-4c.08-.75.14-1.51.17-2.27a7 7 0 011.36-3.69c.1-.14.19-.28.33-.51l-.74.08c-.94.14-1.87.3-2.81.42-2.16.27-4.31.53-6.47.77-1.8.2-3.61.39-5.42.55-2.62.21-5.25.4-7.87.58a1.76 1.76 0 00-1.8 1.47 35.695 35.695 0 00-1 4.52c-.21 2.18-.19 4.39-.25 6.58-.01.463.03.926.12 1.38.36 1.75.72 3.5 1.13 5.25.23 1 .55 1.9.85 2.91 1.43 0 2.78-.08 4.13-.15 1.35-.07 2.55-.22 3.82-.24a62.265 62.265 0 009.25-.55 1 1 0 01.69.27.562.562 0 01-.08.81c-.286.283-.6.534-.94.75a4.23 4.23 0 00-1.62 1.75c.16.01.32.01.48 0l5-.7c.21 0 .42-.08.64-.1.22-.02.6.06.69.42.09.36-.1.57-.51.71a1.93 1.93 0 01-.48.08l-6.06.67c-.17 0-.44.06-.5.17a3.91 3.91 0 00-.62 2.41h.69l4.47-.19c.63 0 .89.11.93.51.04.4-.18.66-.78.74-.51.07-1.025.11-1.54.12-1.19.06-2.41.1-3.67.15h.04zm.34-6.89c-1.07 0-2 .1-2.91.13l-11 .4c-1.07 0-2.14.14-3.21.18-1.07.04-2.33.09-3.49 0a1.33 1.33 0 00-1.14.46 4 4 0 00-1.08 2.16c-.36 2.64 0 5.09 2.11 7 .3.27.58.57.9.82A11.2 11.2 0 0039 59a31.2 31.2 0 008.36.07 28.81 28.81 0 007-1.61c.27-.1.53-.22.74-.31-.73-.48-1.4-1-2.11-1.41a4.349 4.349 0 01-2.06-4A9.33 9.33 0 0152.42 47c.3-.53.65-1 1.05-1.62h.04zm-33.68-.64a40.785 40.785 0 013-3.72 44.302 44.302 0 013.87-3l-.35-.63c-1.08-1.88-2.21-3.74-3.25-5.64-1.17-2.17-2.27-4.38-3.38-6.59-.15-.3-.36-.54-.67-.47a4.42 4.42 0 00-2.9 1.31c-.48.61-.95 1.25-1.49 1.82a5.47 5.47 0 00-1.33 2.65c-.15.68-.35 1.35-.53 2 2.36 4.08 4.36 8.36 6.99 12.27h.04zM37 59.83c-.46-.22-.82-.42-1.2-.56a11.761 11.761 0 01-4.3-3 7.35 7.35 0 01-1.75-2.89 10 10 0 01-.32-4.59c.078-.846.405-1.65.94-2.31.91-1 .74-1 .07-2.26-.13-.23-.29-.45-.46-.73a9.359 9.359 0 00-1.06.43 19.84 19.84 0 00-4.43 3.16 8.39 8.39 0 00-1.23 1.7 1.82 1.82 0 00.09 2c2.33 3.83 4.9 7.48 7.53 11.11.63.87 1.3 1.72 2 2.63A8.46 8.46 0 0137 59.83zm-7.46-22.76c-1.9-3.318-3.4-6.85-4.47-10.52-1.57-.53-2-.64-3.25.07 1.9 3.72 4 7.35 6.18 11l1.54-.55zm14.32 24.42h-.45a5.52 5.52 0 00-2.47.75 8.79 8.79 0 00-3.37 2.32c-.57.71-.94.7-1.6 0l-1.2-1.15c-.213.452-.4.916-.56 1.39-.22.82 0 1.15.89 1.26 3.17.41 5.68-1 7.9-3 .276-.301.512-.637.7-1 .076-.183.13-.374.16-.57zm-5.5-1.24c-.21.89-.21.88-1.08 1a1 1 0 00-.53.18c-.44.35-.85.74-1.32 1.16l1.2 1.11a14.77 14.77 0 014.67-3.12l-2.94-.33zm-3.63-15.4c-.47-.67-.85-1.24-1.26-1.77a.752.752 0 00-.53-.26c-.53 0-1 .17-1.67.27l1 1.76h2.46z" fill="#2A2B2C"/><path d="M42.58 32.36L40.68 34c-.14.13-.27.27-.42.39a.62.62 0 01-.82 0 .538.538 0 01-.14-.79c.36-.39.29-.85.38-1.29.14-.69.25-1.38.37-2.07-.4-.394-.78-.808-1.14-1.24-.49-.63-.42-.93.22-1.4l.3-.26c.44-.4.57-.41 1.06-.11.16.1.32.19.48.27h.25c.22-.47.46-1 .71-1.47a1.83 1.83 0 011.46-.83.66.66 0 01.6.66c.07.61.13 1.23.2 1.88.19.04.385.057.58.05a1.85 1.85 0 011.72.65c.4.41.43.79 0 1.16-.43.37-.86.64-1.35 1 .23.86.47 1.72.7 2.57 0 .19.1.37.14.55a.63.63 0 01-.32.76.71.71 0 01-.82-.15c-.73-.67-1.46-1.28-2.26-1.97zm-1.67 10.71a.67.67 0 01-.66-.49.57.57 0 01.29-.7 3.89 3.89 0 011-.35c2-.35 4-.79 6.09-1 3-.31 6-.43 9-.69 1.08-.09 2.14-.35 3.21-.54.185-.044.372-.077.56-.1a.68.68 0 01.78.64.74.74 0 01-.69.77c-.53.07-1.06.16-1.59.22-1.57.17-3.13.37-4.69.48-3.35.14-6.689.473-10 1-.93.17-1.85.41-2.77.62l-.53.14zm1.32-4.14h-.24c-.07 0-.35-.18-.34-.26a.599.599 0 01.25-.43c.192-.102.403-.163.62-.18 3.21-.49 6.42-1 9.65-1.46 2.297-.23 4.578-.6 6.83-1.11.207-.058.417-.101.63-.13a.54.54 0 01.67.44.53.53 0 01-.41.69c-.42.1-.85.2-1.27.26l-7.42 1-8.3 1.12-.67.06zM50.25 33a5.23 5.23 0 01-.56 0 .57.57 0 01-.52-.54.56.56 0 01.37-.65c.179-.057.363-.094.55-.11l8.78-1.11c.133-.015.267-.015.4 0a.67.67 0 01.68.66.6.6 0 01-.6.64c-1.36.19-2.73.41-4.09.58-1.67.22-3.34.4-5 .59l-.01-.06zm7.82-6.08c.64 0 1.06.48.8 1a.9.9 0 01-.56.39c-1.6.23-3.21.42-4.82.62-.51.06-1 .15-1.54.19a.66.66 0 01-.81-.58c0-.36.2-.62.65-.69l6.11-.87.17-.06z" fill="#2A2B2C"/></svg>