<svg width="80" height="80" fill="none" xmlns="http://www.w3.org/2000/svg"><path d="M26 36.34l1.72-2.12a.531.531 0 00-.09-.11 5.39 5.39 0 01-1.89-3.69A7.29 7.29 0 0128 24.06a3.261 3.261 0 013.23-.89c.23.05.47.05.7 0 .311-.027.624.01.92.11a10.26 10.26 0 013.73 2.09 4.4 4.4 0 011.7 3.63 12.57 12.57 0 01-.1 1.62.69.69 0 00.35.75c.222.133.452.25.69.35l1.1.43a5.53 5.53 0 011.66 1c.23.19.48.34.68.48l1.89-1.49c-.06-.35-.16-.73-.2-1.11a6 6 0 01.48-2.87c.159-.376.356-.735.59-1.07 1.32-1.94 2.43-3.34 4.1-3.65a7.55 7.55 0 012.55-.1 2.24 2.24 0 011.14.43.51.51 0 00.24.13 3.75 3.75 0 012.7 2.58 9.06 9.06 0 01-.24 6.5v.11c.31.38.63.71.89 1.09.26.38.44.81.64 1.17l1-.08a1.51 1.51 0 011.33.76c.274.353.524.724.75 1.11a3.46 3.46 0 01.24 2.24 3.74 3.74 0 01-1.66 2.73l-.18.13a2 2 0 00.23 1.26 3.381 3.381 0 01.43 3 19.65 19.65 0 00-.77 6.08c0 .4-.09.81-.14 1.22a.84.84 0 01-.48.63c-.26.11-.51.23-.75.35 0 1.28.16 2.55-1.13 3.36a2.18 2.18 0 01.78 1.72c-.068.652-.175 1.3-.32 1.94.51.28 1 .61 1.6.9.6.29.5.36.28.82a2.002 2.002 0 00-.08.42c-.024.34-.088.675-.19 1a13.59 13.59 0 01-1.12 2.18 56.475 56.475 0 01-4.9 5.91 1.51 1.51 0 00-.3.52.58.58 0 01-.42.48 1.53 1.53 0 01-1 0l-2.35-.7a.937.937 0 01-.23-.1c-1-.49-2-.94-2.9-1.49-.9-.55-1.56-1.09-2.35-1.61A10.807 10.807 0 0140.57 68c-.09-.1-.16-.21-.27-.34-.3.13-.62.24-.91.4-2 1.08-4.12 1.9-6.21 2.8-1 .44-2.1.86-3.15 1.28a3.271 3.271 0 01-.53.17 1.79 1.79 0 01-1.83-.53c-.05-.06-.11-.11-.15-.17-.82-1.39-2-2.47-2.95-3.79a13.91 13.91 0 01-2.12-4.19c-.1-.4-.1-.82 0-1.22a1.44 1.44 0 01.76-1.14c.32-.12.37-.55.78-.58.34-.063.674-.153 1-.27a2.75 2.75 0 00-.16-.31 2.09 2.09 0 01-.2-1.88 3.5 3.5 0 01.52-.8 2.48 2.48 0 01-.82-2.56l-.3-.1c-.51-.16-.5-.17-.5-.75a6.064 6.064 0 00-.1-.83 33.519 33.519 0 01-.27-7.69c.05-.68.17-1.36.27-2.08l-.66-.57a3.54 3.54 0 01-1.21-2.38 2.39 2.39 0 01.17-1.19 27.42 27.42 0 011.48-2.36 3 3 0 01.7-.55c.05 0 .16 0 .2-.09.37-.48.8-.33 1.25-.15.19.06.44.13.64.21zm17 13.93l-9.28-14.79a14.75 14.75 0 01-5.09-.69 6.65 6.65 0 00-1.8 2.13 7.101 7.101 0 011.52 2.73 3.22 3.22 0 01-.55 3.28 2.84 2.84 0 01-1.26.88 5.34 5.34 0 01-1.91.06h-.41a29.66 29.66 0 00.21 10 7.27 7.27 0 004.93.77c-.05-.48-.12-.92-.13-1.36-.037-2.61.097-5.218.4-7.81a16.65 16.65 0 011.05-4.28 1.23 1.23 0 01.15-.35.39.39 0 01.32-.12c.09 0 .16.19.18.3a.75.75 0 01-.1.31 15.999 15.999 0 00-.86 4.43c-.14 2-.21 3.91-.27 5.87 0 .78.07 1.56.1 2.34a.76.76 0 00.32.65c.27.19.21.5-.07.7a2.44 2.44 0 01-.32.15l.25.32.53-.23a1.91 1.91 0 012.09.56c.19.22.37.46.57.71l2.94-1.2c-.06-.46-.1-.84-.16-1.22a45.222 45.222 0 01-.68-5.32 38.62 38.62 0 01.51-8.59c.08-.45.5-.61.69-1 0-.06.3-.06.41 0a7.677 7.677 0 002.17.49c.21 0 .43 0 .65.07.31-1 .59-2 .91-2.92a8.17 8.17 0 011.23-2.61C41 33.18 39.36 32.77 37.79 32c-.06.29 0 .35-.74 1.24s-.12.54-1.72 1.66L43 50.27zM32.84 34.63h.95a2.39 2.39 0 001.63-.63 5.68 5.68 0 001.8-3.09c.102-.632.156-1.27.16-1.91A3.48 3.48 0 0036 26.1a9.42 9.42 0 00-3.37-1.92 1.25 1.25 0 00-.69-.11c-.298.1-.622.1-.92 0a2.37 2.37 0 00-2.45.68 6.49 6.49 0 00-1.92 5.6 4.51 4.51 0 003.9 4.14c.76.11 1.53.11 2.29.17v-.03zM52.16 24.3a4.45 4.45 0 00-2.08-.09 3.7 3.7 0 00-1.74.71 8.3 8.3 0 00-2.9 4.18 4.27 4.27 0 00.25 3.3 5.73 5.73 0 002.72 2.54 4.32 4.32 0 004.17 0 5.09 5.09 0 002.58-2.53 8 8 0 00.46-4.49 4 4 0 00-1.14-2.44l-2.32-1.18zm3.5 43.5a10.42 10.42 0 001.86-3.12c.072-.305.11-.617.11-.93a.57.57 0 00-.34-.58c-1-.56-1.92-1.19-2.91-1.7a40.753 40.753 0 01-4.5-2.68c-.693-.37-1.36-.784-2-1.24-.34-.316-.698-.613-1.07-.89-.12-.09-.27-.24-.37-.22a2.91 2.91 0 00-1.48.4c-.65.55-1.36 1-2 1.56-.32.25-.61.54-.95.83.576.53 1.218.983 1.91 1.35l.5-.4a1.25 1.25 0 011-.29.859.859 0 01.58 1.23c-.12.27-.27.54-.42.82a48.247 48.247 0 004.92 3.55c.58-.65 1.13-1.1 2.06-.71a1 1 0 01.62 1v1.1l2.48.92zm-14.29-6.93c.26.61.49 1.21.77 1.8a7.01 7.01 0 01.6 2.54 1.45 1.45 0 01-.93 1.66 9.15 9.15 0 00-.87.45 16.492 16.492 0 002.15 2.05c.65.43 1.27.92 1.94 1.31 1.11.64 2.25 1.22 3.38 1.83h.06l2.19.65.35.06c.14-.19.26-.36.39-.52l3.08-3.46c.083-.114.157-.234.22-.36l-2.07-1.1a4.582 4.582 0 01-.49.4 3.23 3.23 0 01-2.14.66c-.68-.08-.92-.43-.73-1.08.11-.343.243-.677.4-1 .09-.18.2-.35.29-.53L45 62.7l-.37.31a4.937 4.937 0 01-.61.4.87.87 0 01-1 0 .89.89 0 01-.32-1c.067-.253.154-.5.26-.74.07-.148.15-.292.24-.43l-1.46-1-.37.63zm-.59-1.68c.41-.15.35-.39.27-.65-.41-1.5-.82-3-1.11-4.54a30.72 30.72 0 01-.49-5.5v-2.46a.62.62 0 00-.44-.68 6.584 6.584 0 01-.83-.44c-.5-.31-1-.63-1.53-1 0 .74-.1 1.44-.13 2.14a37.09 37.09 0 00.56 7.29.5.5 0 00.11.3.83.83 0 01.2.73c0 .27 0 .54-.09.9.38-.13.73-.22 1.06-.37a.54.54 0 01.7.15c.37.415.686.875.94 1.37.416.869.68 1.802.78 2.76zM25.4 43a1.78 1.78 0 002-1.21 2.94 2.94 0 00-.06-2.2c-.21-.49-.45-1-.67-1.45-.06-.13-.17-.32-.28-.34-.39-.07-.56-.4-.83-.61a1 1 0 00-.85-.27 1.69 1.69 0 00-1.05.69c-.37.58-.74 1.16-1.09 1.75a1.71 1.71 0 00-.13 1.4A3.27 3.27 0 0025.4 43zm11.7 19l1.08-.49c.19-.09.38-.17.56-.27a.44.44 0 00-.053-.8.42.42 0 00-.327.02c-.14 0-.27.14-.4.2l-1.24.55-.11-.14c-.39-.62-.39-.62-1.08-.38h-.22a.57.57 0 00-.43.73c0 .19.1.38.17.6a33.362 33.362 0 01-5.72 2.34l-.56-.61a.45.45 0 00-.61-.06c-.57.35-.64.54-.38 1.2 0 .06 0 .13.06.26l-1.65.56c-.29.09-.44.29-.39.52a.46.46 0 00.57.33 5.6 5.6 0 00.8-.23l1.13-.46c.164.252.34.496.53.73a.87.87 0 00.43.31c.53.12.86-.27.69-.8-.08-.29-.19-.58-.31-.92a38.999 38.999 0 005.83-2.4l.13.22c.17.265.36.516.57.75a.63.63 0 00.73.13.56.56 0 00.3-.61c-.03-.37-.06-.78-.1-1.28zm22.83-23.35a2.689 2.689 0 00-.14-.87 7.058 7.058 0 00-.84-1.3 1.32 1.32 0 00-.68-.33c-.13 0-.4.06-.43.15-.12.35-.44.47-.69.6a1.73 1.73 0 00-.84.85 3.92 3.92 0 00-.15 2.72 2.5 2.5 0 00.5.8 1.56 1.56 0 001.22.42 1.6 1.6 0 00.9-.48 3.17 3.17 0 001.15-2.56zm-23.24 4.43c.254.06.502.144.74.25.55.34 1.08.72 1.63 1.06.124.065.255.115.39.15l.38-3.54-2.75-.48-.39 2.56zm19.84 12.1c-.39.06-.72.14-1.05.16-.76.047-1.52.077-2.28.09a.58.58 0 00-.56.35 1.311 1.311 0 001 1.94 3.5 3.5 0 001.33 0 1.738 1.738 0 001.59-1.89c-.04-.19-.03-.39-.03-.65zm-31.43 0a1.36 1.36 0 00.34 1.21c.24.262.504.5.79.71a3 3 0 002.26.54c.69-.13.94-.38 1-1v-1c-.733.04-1.467.04-2.2 0-.74-.1-1.44-.3-2.19-.45v-.01zm25.1 2.69a13.369 13.369 0 004.35 2.58c.4-.57.4-.83 0-1.76h-.71a2.46 2.46 0 01-1.58-.69 2.19 2.19 0 00-1.41-.44.61.61 0 00-.65.32v-.01zM27 59.53a41.462 41.462 0 004-1.77 2.42 2.42 0 00-1.4.44 1.13 1.13 0 01-.57.24c-.507.07-1.018.11-1.53.12-.28 0-.53 0-.69.25-.16.25-.02.46.19.72z" fill="#2A2B2C"/><path d="M43.15 25.5a.63.63 0 00.14 0c.4.09.54.2.52.45-.02.25-.22.45-.51.5l-.46.13c-.11.26-.13.65-.56.61-.43-.04-.39-.39-.44-.72h-.44c-.46 0-.62-.35-.37-.72s.26-.43-.17-.67c-.43-.24-.41-.56 0-.79a.52.52 0 00.3-.5 1.39 1.39 0 01-.67-1.36v-1.79a2.914 2.914 0 00-.34-.09c-2.31-.29-3.29-2-3-4.14.07-.617.316-1.2.71-1.68a5.54 5.54 0 012-1.65 4.18 4.18 0 014.35.34 4.77 4.77 0 012.08 3.65c.03.353.03.707 0 1.06a2.8 2.8 0 01-2 2.66l-.36.14-.06.06c-.07 1 .19 2.06-.81 2.76 0 .21 0 .34.26.36.129.005.256.025.38.06a.4.4 0 01.31.42.42.42 0 01-.32.41c-.11.01-.22.01-.33 0-.24.11-.29.26-.21.5zm-1.77-4v1.11a.54.54 0 00.21.37.929.929 0 001.34-.65c.035-.39.035-.78 0-1.17-.06-.78 0-.85.75-1.1L44 20a1.76 1.76 0 001.27-1.43 4.21 4.21 0 00-1.07-3.88 3 3 0 00-1.53-1 3.751 3.751 0 00-3.6 1 3 3 0 00-1.07 2.8 2.159 2.159 0 001.38 1.93c.427.132.86.24 1.3.32.5.1.68.25.72.76 0 .33-.02.67-.02 1zM35 16.3a4.82 4.82 0 01-2.39-1 .44.44 0 01-.12-.64c.15-.2.36-.23.64-.06a4.94 4.94 0 002 .82c.34.05.48.27.43.53-.05.26-.27.35-.56.35zm-.73-5.96c.26 0 .32.22.36.46a3 3 0 001.24 2 .69.69 0 01.13.11.35.35 0 010 .5.34.34 0 01-.49.06 3.56 3.56 0 01-1.69-2.69.379.379 0 01.45-.44zm9.51-.34a2.77 2.77 0 01.72-1.71c.24-.26.46-.3.67-.12a.42.42 0 010 .64 2.42 2.42 0 00-.53 1.43c0 .4-.18.59-.45.58-.27-.01-.42-.26-.41-.82zm7.73 3.23c0 .06-.13.23-.26.29-.61.29-1.22.56-1.84.81a.434.434 0 11-.36-.79c.63-.29 1.26-.57 1.9-.82.31-.12.58.1.56.51zM39.66 7.91a.48.48 0 01.42.42c.1.45.23.89.37 1.33.14.44.06.55-.17.67s-.48 0-.64-.29a3.2 3.2 0 01-.44-1.59c.01-.34.18-.54.46-.54zM46.92 12a.43.43 0 01-.38-.68c.363-.394.754-.762 1.17-1.1.16-.14.35-.07.5.07.15.14.21.35.07.5-.38.4-.79.78-1.19 1.15-.09.06-.09.06-.17.06zm4.36 4.71h.32a.69.69 0 01.26.38.36.36 0 01-.3.41l-1.17.33a.43.43 0 01-.55-.25.408.408 0 01.27-.57c.37-.16.77-.26 1.15-.39l.02.09zm-16.15 2.38c.34 0 .5.1.57.32a.36.36 0 01-.18.47c-.319.163-.654.29-1 .38-.13 0-.35-.12-.43-.25a.36.36 0 01.15-.52 9.45 9.45 0 01.89-.4zM33.62 32a1.46 1.46 0 01-.3.36.35.35 0 01-.48-.17c-.12-.18-1.27-1.5-1.4-1.68-.3-.42-.64-.82-1-1.22a3.482 3.482 0 01-.26-.3.42.42 0 010-.6.41.41 0 01.6 0c.994.938 1.88 1.984 2.64 3.12.08.158.146.322.2.49zm1.54-1.58a1.34 1.34 0 01-.3.35.38.38 0 01-.49-.13l-.06-.09a13.877 13.877 0 00-2.37-2.88.399.399 0 010-.6.41.41 0 01.6 0 12.29 12.29 0 012.57 3.14c.02.07.037.14.05.21zm12.31-.25c.033-.157.08-.311.14-.46a7.49 7.49 0 011.75-2.56.93.93 0 01.31-.22.36.36 0 01.49.15.79.79 0 010 .46c0 .11-.16.2-.25.29a6.48 6.48 0 00-1.61 2.52.75.75 0 01-.25.35c-.27.18-.59-.06-.58-.53zm1.89 1.69c.07-.21.15-.55.28-.86a8.22 8.22 0 012.12-2.93c.079-.08.17-.148.27-.2a.41.41 0 01.56.18.59.59 0 010 .69c-.11.148-.238.282-.38.4a6.24 6.24 0 00-1.89 3.1c-.07.33-.26.51-.56.46-.3-.05-.42-.33-.4-.84z" fill="#2A2B2C"/><path d="M40.93 16.23a1.13 1.13 0 011.62.12 1.46 1.46 0 011.78 1.88.33.33 0 01-.36.28.34.34 0 01-.32-.33 7.778 7.778 0 00-.13-.82.46.46 0 00-.6-.37v.45a2.36 2.36 0 01-.11.6.52.52 0 01-.38.23.47.47 0 01-.32-.31 4.22 4.22 0 010-.94c.05-.44-.26-.71-.67-.56-.21.08-.29.2-.2.43.093.264.167.535.22.81a.94.94 0 010 .44.28.28 0 01-.54.08 3.002 3.002 0 01-.26-.83 2.783 2.783 0 010-.5c0-.23-.09-.4-.34-.43a.49.49 0 00-.55.44.8.8 0 00.33.78.52.52 0 01.21.3c0 .23-.25.31-.5.17a1.37 1.37 0 01-.47-1.72 1.14 1.14 0 011.59-.2z" fill="#2A2B2C"/></svg>