<svg version="1.1" id="Layer_1" xmlns="http://www.w3.org/2000/svg" x="0" y="0" viewBox="0 0 80 80" xml:space="preserve"><style>.st0{fill:#2a2b2c}</style><path class="st0" d="M26 36.3l1.7-2.1c-3-2.6-2.5-7.6.3-10.2.8-.9 2.1-1.2 3.2-.9 2-.1 3.9.9 5.4 2.2 1.1.8 1.8 2.2 1.7 3.6.1.8-.5 1.9.2 2.4.4.3 1.3.6 1.8.8.9.3 1.6 1 2.3 1.5l1.9-1.5c-.5-1.7-.2-3.6.9-5 1.3-1.9 2.4-3.3 4.1-3.6 1.3-.2 2.8-.3 3.9.5 1.3.3 2.3 1.3 2.7 2.6.8 2.2.6 4.5-.2 6.6.6.7 1.2 1.4 1.5 2.3.9-.1 1.8-.2 2.3.7 1.7 1.8 1.3 4.9-.8 6.2-.1.4 0 .9.2 1.3.6.9.8 2 .4 3-.8 2.4-.7 4.9-.9 7.3-.1.6-.8.7-1.2 1 0 1.3.2 2.6-1.1 3.4 1.2.9.7 2.4.5 3.7.5.3 1 .6 1.6.9.6.3.5.4.3.8-.6 3.9-3.9 6.6-6.3 9.5-.3.3-.2.9-.7 1-.7.3-2.7-.6-3.4-.7-3-1.4-6-3-8-5.7-2.3 1.1-4.7 2.2-7.1 3.2-1.5.5-3.1 1.7-4.7 1.4-.4-.1-.7-.4-1-.7-.8-1.4-2-2.5-3-3.8-1-1.6-3.5-5-1.4-6.6.3-.1.4-.5.8-.6.3-.1.7-.2 1-.3-.7-.9-.7-2.2.2-3-.7-.6-1.1-1.6-.8-2.6-.6-.2-.9-.1-.8-.9-.5-3.5-.7-7.1-.1-10.6-1.3-.9-2.3-2.5-1.7-4.1.7-1 1.2-2.5 2.4-3 .6-.7 1.3-.1 1.9 0zm8.7-1c-2.1.5-4.1.1-6.1-.5-.7.6-1.4 1.3-1.8 2.1 2.8 3 2.3 7.7-2.6 7-.5 3.3-.4 6.7.2 10 1.5.8 3.2 1.1 4.9.8-.3-3.1 0-6.1.3-9.2.2-1.6.6-3.2 1.2-4.6.1-.1.2-.1.3-.1.1 0 .2.2.2.3-1.2 3.4-1.1 7.1-1.2 10.6 0 .9 0 1.8.2 2.7.1.1.1.2.2.3.4.3 0 .8-.4.9l.2.3c1.3-.8 2.4-.2 3.2 1l2.9-1.2c-.9-5-1.3-10.1-.3-15.1.1-.4.5-.6.7-1 0-.1.3-.1.4 0 .9.4 1.9.4 2.8.6.6-1.9 1-3.9 2.1-5.5-1.2-1.3-2.9-1.8-4.5-2.5-.1.3 0 .3-.7 1.2-.7.9-.1.5-1.7 1.7.1-.2-.3.1-.5.2zm-1.9-.7c3.1.5 4.7-3 4.5-5.6.1-2.6-2.6-4.1-4.7-4.8-.5-.3-1.1.1-1.6-.1-2-.6-3.5 1.6-4.1 3.2-1.3 4.5 1.3 7.7 5.9 7.3zm19.4-10.3c-3.2-1-5.9 2-6.7 4.8-1.1 3.1 2 6.3 5.1 6.4 1.9 0 3.8-1.3 4.7-3.1.8-2.2 1-5.1-.7-6.9-.1 0-2.4-1.2-2.4-1.2zm3.5 43.5c.9-1.2 2.2-2.8 1.9-4.4-2.4-1.7-5.2-2.8-7.7-4.6-1.3-.6-2.3-1.6-3.4-2.4-1.8.1-3.1 1.7-4.4 2.8.6.5 1.2 1 1.9 1.4.4-.3.9-.8 1.5-.7 1.1.3.6 1.4.2 2 1.6 1.3 3.2 2.5 4.9 3.5.6-.8 1.8-1.3 2.5-.3.3.5.1 1.1.1 1.7l2.5 1zm-14.3-6.9c.6 1.7 1.8 3.5 1.2 5.3-.3.6-1.1.7-1.6 1.1 2 2.4 4.8 3.9 7.5 5.2.2.1 2.4.7 2.5.7.4-.7 3.3-3.6 3.7-4.3l-2.1-1.1c-.6.8-3.8 1.9-3.4 0 .2-.5.4-1 .7-1.5l-5-3.5c-.4.3-.9.8-1.5.9-1.3-.1-.8-1.6-.3-2.3l-1.5-1-.2.5zm-.6-1.7c.4-.1.4-.4.3-.6-.9-3.3-1.6-6.6-1.6-10-.1-.9.1-2-.1-2.9-.9-.6-1.8-1-2.7-1.7-.1 3.2-.4 7 .7 10.1.1.4 0 .8-.1 1.3.5-.1.9-.4 1.4-.4 1.4.8 1.9 2.6 2.1 4.2zM25.4 43c1.8.3 2.6-2 1.9-3.4-.3-.6-.5-1.4-.9-1.8-.5-.1-.7-.7-1.2-.8-1.4-.3-1.9 1.5-2.6 2.4-.9 1.7 1.1 3.6 2.8 3.6zm11.7 19l1.1-.5c.3-.2.7-.2.8-.5.1-.2 0-.5-.3-.5-.3-.1-.5.1-.7.2l-1.2.5c-.4-.6-.4-.8-1.2-.5-.8-.1-.7.8-.5 1.3-1.8 1-3.7 1.7-5.7 2.3-.2-.2-.6-.8-.9-.8-.1 0-.2 0-.3.1-.6.4-.6.5-.4 1.2 0 .1 0 .1.1.3l-1.6.6c-.3.1-.4.3-.4.5.2.6.9.2 1.4.1l1.1-.5c.3.4.5.9 1 1 .5.1.9-.3.7-.8l-.3-.9c2-.6 4-1.4 5.8-2.4.3.6 1.1 1.7 1.7.8 0-.4-.2-.8-.2-1.5zm22.8-23.3c.1-.9-1.1-3-2.1-2.4-.3.7-1.2.6-1.5 1.5-.9 1.7.2 5.3 2.5 3.5.7-.7 1.2-1.7 1.1-2.6zm-23.2 4.4c1.1.2 1.8 1.1 2.8 1.5l.4-3.5-2.8-.5-.4 2.5zm19.8 12.1c-1.1.2-2.2.2-3.3.3-.2 0-.5.1-.6.3-.9 1.9 1.7 2.4 3 1.8 1-.5 1-1.5.9-2.4zm-31.4 0c-.2 1.6 2 2.7 3.4 2.5 1.2-.1 1-1.2 1-2-1.5.1-2.9-.1-4.4-.5zm25.1 2.7c1.3 1.1 2.7 2 4.3 2.6.4-.6.4-.8 0-1.8h-.7c-1.2 0-1.8-1.3-3-1.1-.2-.1-.5 0-.6.3zM27 59.5c1.4-.5 2.7-1.1 4-1.8-.8-.1-1.3.5-2 .7-.7.3-3-.2-2 1.1z"/><path class="st0" d="M43.2 25.5c.8 0 .9.8.1 1l-.5.1c-.1.3-.1.6-.6.6-.4 0-.4-.4-.4-.7-.5.1-1.2-.1-.8-.7.2-.4.3-.4-.2-.7s-.4-.6 0-.8c.2-.1.3-.3.3-.5-1.1-.7-.6-2.1-.7-3.2-5.9-.8-3.4-8.3 1.6-8 2.2.2 4.1 2.2 4.2 4.4.1.9 0 2-.6 2.7-.4.6-1.1.9-1.8 1.1-.2 1 .2 2.1-.9 2.8-.1.6.7.2.9.6.2.2 0 .6-.2.7-.2.1-.6.2-.4.6zm-1.8-4c.1.5-.2 1.1.2 1.5.5.3 1.2-.1 1.3-.7v-1.2c-.1-.8 0-.9.8-1.1h.3c1.5-.4 1.5-2.3 1.2-3.5-.5-1.9-2.5-3.4-4.5-2.8-1.1.3-2.1 1.2-2.6 2.2-.5 1.2-.1 3 1.2 3.5 1.7.5 2.3 0 2.1 2.1zM35 16.3c-.9-.1-1.8-.5-2.5-1.1-.1-.2-.1-.4 0-.5.1-.2.4-.2.6-.1.6.4 1.3.7 2 .8.7.1.5 1-.1.9zm-.7-6c.3 0 .3.2.4.5.1.9.7 1.6 1.4 2.1.3.3-.2.8-.5.6-.9-.6-1.6-1.6-1.7-2.7-.1-.3.1-.5.4-.5zm9.5-.3c-.1-.6 1.1-2.9 1.5-1.5-.2.6-.7.8-.7 1.8 0 .8-.9.7-.8-.3zm7.7 3.2c0 .1-.1.2-.3.3-.7.3-1.4.8-2.2.8-.4-.1-.4-.7 0-.8.7-.1 2.5-1.5 2.5-.3zM39.7 7.9c.6.1.5 1.2.8 1.7.1.4.1.6-.2.7-.8.5-1.6-2.4-.6-2.4zm7.2 4.1c-1.2-.3.4-1.4.8-1.8.2-.1.4-.1.5.1.2.1.2.4.1.5-.4.4-.9 1-1.4 1.2zm4.4 4.7c.5-.1.8.7.3.8-.2 0-1.3.5-1.5.3-1-.7.6-1 1.2-1.1zm-16.2 2.4c.4 0 .7.2.6.6-.2.4-.8.4-1.2.6-.2 0-.5-.2-.5-.4 0-.5.8-.6 1.1-.8zM33.6 32c-.1.3-.6.6-.8.2-.1-.2-1.3-1.5-1.4-1.7-.2-.6-2.2-1.9-1-2.3.1 0 .2 0 .3.1 1.1 1.2 2.3 2.3 2.9 3.7zm1.6-1.6c-.2.4-.6.6-.9.1-.7-1.3-2.1-2.4-2.5-3.2.3-1.6 3.2 2.5 3.4 3.1zm12.3-.2c-.1-.7 2.8-4.9 2.7-2.6-.7.8-1.5 1.7-1.9 2.8-.2.5-.8.5-.8-.2zm1.9 1.7c0-.8 2.9-5.7 3.3-3.5 0 .3-.3.5-.5.7-.9.8-1.6 1.9-1.9 3.1-.2.8-1.1.6-.9-.3z"/><path class="st0" d="M40.9 16.2c.5-.4 1.2-.4 1.6.1.8-.2 1.7.3 1.8 1.1.1.3.1.7-.2 1-.2.2-.6 0-.6-.3-.1-.5 0-1.4-.7-1.2 0 .4 0 1.6-.7 1.2-.4-.5.3-2-.8-1.7-.2.1-.3.2-.2.4.1.4.5 1.3 0 1.5-.1 0-.3-.1-.3-.2-.2-.4-.3-.9-.3-1.3 0-.2-.1-.4-.3-.4-.5-.1-.7.5-.5.9.1.3.4.4.5.6 0 .2-.3.3-.5.2-1.2-.8-.2-2.8 1.2-1.9z"/></svg>