<svg version="1.1" id="Layer_1" xmlns="http://www.w3.org/2000/svg" x="0" y="0" viewBox="0 0 80 80" xml:space="preserve"><style>.st0{fill:#2a2b2c}</style><path class="st0" d="M38.6 41.5c0 .1 2.8-4 2.9-3.9 3.8-4.5 7.7-8.9 12.1-12.8.6-.6.9-.6 1.9.1l2-2.7c-1.8-6 4.5-8 8.7-10.2 1.5-.8 2.9-2 3.8-3.5 0-.2.1-.4.4-.5 1.3-.3 1 1.7 1.3 2.4.1.7.2 1.1.3 1.6.7 2.3-.3 4.7.2 7 .3 2.9 1.2 6.5-.9 8.9-.6.7-1.5.4-2.1 0-.7 5.3 1.1 11.4-1.2 16.4-.5 1.1-2.5 1.7-3 .3-1.3-4.2.9-8.5.6-12.8-.4.6-.5 1-1.1 1.4-.7.4-1.8.1-2.1-.7-.7-1.3-.8-2.8.7-3.8 1.6-1 3-2.7 2.9-4.7-1.4.6-3 .9-4.2 2-.2.2-.4.4-.5.6-.7 1.7-2.4 2.1-3.9 3-.3 1.2-1 2.3-2 3.1-2.7 2.7-5.5 5.2-8.2 7.9 4.2 3 9.2 4.5 14.2 5.5.6 0 1.2.6 1.2 1.3-1.5 4.1-3.6 8-5.4 12-1.5 2.9-3.2 6-5.8 8.1-3.7 3.2-8.5 4.4-13.1 5.8-.4.5-.8.4-1.3.2-2.8-1.1-4.9-4.1-5.3-7.1-2.8-.5-5.9-.9-8.5-2.2-3.1 2.5-6.1 5.1-9.2 7.7-1 .7-1.9 1.6-3.1 1.9-6.6-.6 5.9-11.2 7.3-13.3-3.5-3.5-5.3-8.1-6.7-12.8-.8-2.8-1.5-5.5-2.2-8.3-.1-.6-.1-1.5.7-1.6 7.7-1.8 15.4-3.6 23.1-5l2.1-.6c.9-.2 1.1-.1 1.3.8.6 2.5 1.6 5.8 2.1 8.5zm-28-2.5c.9 4.1 2.1 8.1 3.5 12.1 1.3 4.1 3.9 7.9 7.6 10.2 1.8 1.3 3.7 2.6 5.9 3 1.7.3 3.3.6 5 .9.6.2 1.1-.1 1.6-.5h.2c.4.1.6-.2.7-.4.7-1.1 1.2-2.2 1.5-3.5 2-8.9 1.4-18.4-1.3-27.1-8.3 1.4-16.5 3-24.7 5.3zm27.5 21.2c3-1 6.5.3 6.6 3.8 0 1.5-.6 3.8-2.4 3.9-1.6-.3-.6-2.8-1.5-3.8-.9-1.4-2.4-.9-3.7-.7L35.3 66c-.2.3-.5.6-.9.4-.7-.3-1.3.1-2-.1 1.1 1.9 2.1 3.8 3.9 5.1.4.3.8.6 1.3.4 3.9-1.1 7.9-2.1 11.3-4.3 3.5-1.9 5.6-5.5 7.3-8.9 1.7-3.8 3.7-7.4 5.2-11.4-6.6-1.1-12.8-3.9-18.2-7.8-1.5 2.7-2.7 5.5-3.9 8.3-.4.8-.1 1.9-.2 2.8v1.8c1.1-1 1.6-2.6 3-3.2 1-.3 2.4-.2 2.2 1.1v.5c.8.4.8.6.5 1.4-.3.8-.7 1.5-1.4 2-1.5 1.3-2.9 2.9-5 3.1l-.3 3zm23.3-44.3l-.1-.1c-1.9 1.2-3.7 3.8-2.7 6 .7.2 1.6.2 2.2.8.6.6.7 1.3 1 2.1.3-.7.9-.8 1.4-1l1.7-.7c-1.5-1.1-.9-2.5-.7-3.7-2.8.4-4-.6-2.8-3.4zM43.8 51.4l-.9-1.1c-1.2 0-1.7 1.4-2.5 2.1-.5.5-.8.9-1.1 1.3-.5.5-.3 1.4-.5 2.1 1.6-.1 4.7-2.9 5-4.4zm-6.2 10.4l.1.1.8-.1c1.8-.4 3.7.9 4 2.8.1.6.1 1.1.3 1.7h.2c1-1.6.8-4.5-1.3-4.9-1.4-.2-3.2-.9-4.1.4zM59.4 27l.6-.7-2.5-2.1-.5.6c.9.5 1.8 1.3 2.4 2.2zm1-1.9c.5-1.2-1-2.5-2.1-1.8.6.7 1.3 1.3 2.1 1.8zm-3.8.9l-.1.1 1 1.9.9-.5-1.8-1.5z"/><path class="st0" d="M34.8 53.3c-.1 2.7-1.8 5.3-4.2 6.4-3.1.5-6.9-1.6-8.3-4.4-.2-1.1.6-2.4 1.8-2.2 1.5.2 2.3 1.8 3.7 2.3.7.2 1.5 0 2.1-.5.9-.9 1-2.4 2-3.3 1.3-1.3 3.2 0 2.9 1.7zm-1.3.2c.1-1.4-.7-1.3-1.4-.3-.2.4-.3.9-.5 1.3-.8 2.3-4 3.1-5.7 1.3-.5-.5-1.1-.9-1.7-1.3-.2-.1-.4-.2-.6 0-.4.5.2 1.2.5 1.6 1.1 1.2 2.4 2 3.9 2.3 2.1.5 2 .4 3.4-.9 1.4-1 2.1-2.5 2.1-4zm-10.9-8.6c1.8 0 3.6.8 4.1 2.7.4 1 0 2.5-1.2 2.7-2.8 0-3.6-1.8-5.5 1.5-.7 1-1.6 1-2.2 0-1.8-3.2 1.3-7.4 4.8-6.9zM19 51.2c.8-1.1 1.2-2.1 2.5-2.6.6-.2 1.3-.2 1.9 0 .8.2 2.8 1 2.3-.7-.5-1.6-2.5-2-4-1.8-2.4.4-3.6 3-2.7 5.1zm17.9-5.4c-.1 1-.6 2.1-1.6 2.3-.9.2-1.5-.7-2.4-.7-1.2.3-2 2.3-3.3 1.5-.8-.3-1.2-1.1-1.1-1.9.2-2.5 2.6-4.4 5-4.7 1.8.1 2.9 1.9 3.4 3.5zm-1.9 1c.5-.5.7-.8.5-1.2-.2-.8-.7-1.5-1.5-1.9-.6-.3-1.1.3-1.6.1-1.3.5-2.3 1.7-2.6 3-.1.6-.1.6.5.9 1.9-1.8 2.4-2 4.7-.9zm12.7 9.5c.1-1.6.8-3.4 2.3-4.2 2.3-.6 2.6 2.5 2.1 4-.3.9 0 1.9.7 2.6.7.7.7 1.9 0 2.6-3.3 2.4-5.3-2.2-5.1-5zm2.7-3.1c-2.1 1.5-2 5.4-.2 7.2.4.2.9.4 1.3.2.6-.3.7-.9.2-1.2-.8-.8-1.2-2.1-.9-3.2.1-1 .6-2.3-.4-3z"/></svg>