<svg width="80" height="80" fill="none" xmlns="http://www.w3.org/2000/svg"><path d="M38.6 41.52c0 .07 2.84-4 2.89-3.85l.61-.67c1-1.22 2.1-2.43 3.13-3.66a113.374 113.374 0 018.34-8.5c.59-.57.86-.57 1.86.06l2-2.73a5.61 5.61 0 011.33-5.84 7.57 7.57 0 012.6-2c1.6-.75 3.17-1.54 4.73-2.37a10 10 0 003.79-3.48 2.41 2.41 0 01.18-.26.67.67 0 011.22.26c.18.63.27 1.28.4 1.93.13.65.2 1.08.33 1.62a8.329 8.329 0 01.16 3.44 13.217 13.217 0 00.08 3.61c.07.94.25 1.87.36 2.81a11.55 11.55 0 01-.3 4.46 3.39 3.39 0 01-.94 1.65 1.27 1.27 0 01-1.83.14 3.104 3.104 0 00-.31-.15c0 .5-.13 1-.13 1.41v5.76a29.941 29.941 0 01-.26 7.08 9 9 0 01-.83 2.1 2.08 2.08 0 01-1.18 1 1.339 1.339 0 01-1.83-.73 4.333 4.333 0 01-.28-1.14 18.79 18.79 0 01.41-6.34c.318-1.768.459-3.564.42-5.36-.23.37-.35.59-.5.79a1.53 1.53 0 01-2.71-.14c-.7-1.32-.77-2.76.68-3.78a7 7 0 002.28-2.35 4.15 4.15 0 00.6-2.38c-1.43.65-3 .94-4.15 2a2 2 0 00-.47.6 3.84 3.84 0 01-1.81 1.9c-.68.34-1.34.73-2.06 1.13a5.74 5.74 0 01-2 3.06c-1.44 1.35-2.82 2.76-4.24 4.12-1 .93-2 1.82-3 2.74-.34.32-.64.68-1 1a.56.56 0 00.1.15 36.717 36.717 0 0011 4.61c1 .22 2.09.5 3.15.69a1.25 1.25 0 011 1.86c-.64 1.35-1.19 2.75-1.82 4.11-1.13 2.42-2.31 4.83-3.46 7.26a32.169 32.169 0 01-4.17 6.57 10.471 10.471 0 01-1.6 1.52 22.7 22.7 0 01-6.85 3.81 46.413 46.413 0 01-5.49 1.7 1.17 1.17 0 00-.72.28c-.39.47-.81.35-1.28.21a6 6 0 01-2.27-1.38 12 12 0 01-2.93-4.7 4.828 4.828 0 01-.14-1c-.69-.12-1.51-.24-2.32-.4-1.11-.21-2.23-.38-3.32-.69-1.09-.31-1.86-.7-2.9-1.1l-.69.55c-2.85 2.37-5.69 4.76-8.55 7.11a28.345 28.345 0 01-2.39 1.67 1.56 1.56 0 01-1.44.15 1.52 1.52 0 01-1-2.27 11.202 11.202 0 011.73-2.89c1.77-2.16 3.71-4.16 5.63-6.18.56-.59 1.08-1.2 1.66-1.86a5.245 5.245 0 00-.34-.42 21.09 21.09 0 01-4.78-7.81c-.51-1.52-1.12-3-1.56-4.54-.79-2.76-1.5-5.53-2.21-8.3a2.64 2.64 0 01.05-1.08c.06-.33.36-.41.66-.48 1.26-.27 2.52-.54 3.77-.84 2.66-.63 5.3-1.34 8-1.9 3.78-.81 7.58-1.5 11.37-2.26.72-.15 1.42-.36 2.13-.55.89-.24 1.1-.09 1.29.81.19.9.49 2 .76 3 .22.84.48 1.66.66 2.3l.7 3.35zM10.55 39c.14.59.26 1.15.4 1.71a67.871 67.871 0 002 7.12c.41 1.08.75 2.18 1.14 3.27a20.416 20.416 0 002.58 5.39 17.25 17.25 0 005 4.78c.42.27.828.56 1.22.87a11 11 0 004.71 2.1c1.66.3 3.32.57 5 .85a1.43 1.43 0 001.4-.38.49.49 0 01.36-.13c.4.09.56-.19.74-.44a9.63 9.63 0 001.51-3.5c.46-2 .73-4.09 1-6.14.078-.6.122-1.205.13-1.81 0-1.73 0-3.47-.09-5.2s-.24-3.52-.37-5.27c0-.45-.1-.89-.17-1.33a51.002 51.002 0 00-1.52-6.44c-.1-.32-.17-.64-.25-.93C27 35.13 18.78 36.72 10.55 39zm27.58 21.16a5.38 5.38 0 013.09-.16 3.61 3.61 0 012.54 1.28 4.84 4.84 0 01.24 5.4 2 2 0 01-1.29 1.09.94.94 0 01-1.24-.67 2.542 2.542 0 01-.12-.61c-.07-.52-.08-1-.18-1.57a2.25 2.25 0 00-3-1.78 8.62 8.62 0 01-1.1.2L35.31 66c-.23.32-.54.58-.93.42-.67-.27-1.31.07-2-.1.54.92 1 1.74 1.52 2.59a10.43 10.43 0 002.35 2.52c.226.183.483.322.76.41a.84.84 0 00.52 0c2.06-.62 4.16-1.09 6.18-1.86a24.72 24.72 0 005.1-2.46A14.532 14.532 0 0052 65a30.25 30.25 0 004.1-6.43l3-6.42c.49-1 1-2 1.49-3 .27-.6.48-1.22.76-1.93a44.715 44.715 0 01-9.55-2.81 51.69 51.69 0 01-8.62-5c-.14.25-.27.48-.39.71-.81 1.65-1.63 3.29-2.41 5-.41.85-.66 1.78-1.1 2.61-.44.83-.14 1.9-.24 2.84a11.98 11.98 0 000 1.34v.51c.217-.167.4-.374.54-.61.52-.69 1-1.4 1.59-2a2.39 2.39 0 012-.7c.85.05 1.16.39 1.16 1.25v.46c.75.44.8.58.53 1.4a4.93 4.93 0 01-1.35 2c-.55.53-1.16 1-1.71 1.52a6 6 0 01-3.28 1.63l-.39 2.79zm23.28-44.25l-.12-.13a6.23 6.23 0 00-2.94 4.3 2.42 2.42 0 00.29 1.71c.54.13 1 .23 1.55.37a1.85 1.85 0 011.09 1c.22.45.37.93.58 1.46.28-.66.86-.8 1.39-1l1.69-.67c-1.46-1.09-.85-2.47-.72-3.71a10.84 10.84 0 01-1.68.07A1.581 1.581 0 0161 17.18c.12-.43.28-.85.41-1.27zM43.84 51.39l-.91-1.07a1.29 1.29 0 00-1.13.52c-.48.52-.92 1.08-1.38 1.61-.46.53-.77.85-1.15 1.28a1.17 1.17 0 00-.29.43c-.09.56-.14 1.13-.2 1.7 1.65-.13 4.71-2.94 5.06-4.47zm-6.23 10.4l.08.12.75-.11a3.46 3.46 0 014 2.76c.07.36.08.73.14 1.09.03.192.07.382.12.57h.18a4.06 4.06 0 00.36-3.42 2.24 2.24 0 00-1.69-1.5 18.413 18.413 0 00-2.37-.3 2.65 2.65 0 00-1.06.25c-.2.13-.34.37-.51.54zM59.37 27l.57-.73-2.53-2.09-.46.66A6.18 6.18 0 0159.37 27zm1-1.88a1.49 1.49 0 00-.44-1.67 1.46 1.46 0 00-1.67-.12 9.938 9.938 0 002.1 1.82l.01-.03zm-3.75.88l-.14.12 1 1.93.93-.54L56.62 26z" fill="#2A2B2C"/><path d="M34.81 53.3a7.19 7.19 0 01-1.94 4.7c-.39.42-.86.77-1.29 1.16a2.58 2.58 0 01-2.11.66 9.41 9.41 0 01-4-1.19 13.84 13.84 0 01-2.62-2.35 1.87 1.87 0 01-.41-2 1.58 1.58 0 011.7-1.12 5.089 5.089 0 011.6.75c.393.306.764.64 1.11 1a2.23 2.23 0 003.62-.86c.155-.39.332-.77.53-1.14a5.31 5.31 0 01.87-1.29 1.7 1.7 0 012.92.9c.023.26.03.52.02.78zm-1.27.15c0-.66-.09-1-.35-1.05-.26-.05-.69.18-1 .75a4.996 4.996 0 00-.24.58c-.09.25-.18.49-.26.74A3.52 3.52 0 0126 55.82a3.86 3.86 0 00-.51-.48c-.38-.28-.78-.52-1.15-.8-.2-.14-.41-.23-.56 0a.67.67 0 00-.11.57c.162.368.385.706.66 1 .424.432.874.836 1.35 1.21.217.192.463.348.73.46.602.26 1.224.47 1.86.63 2.12.48 2 .41 3.44-.92a5.71 5.71 0 001.83-4.04zm-10.9-8.56c.52.042 1.038.116 1.55.22a3.56 3.56 0 012.58 2.43c.117.32.165.66.14 1a1.68 1.68 0 01-2.08 1.68 14.276 14.276 0 01-1.69-.4 1.94 1.94 0 00-2.28.8c-.26.36-.49.74-.74 1.11-.69 1-1.57 1.05-2.22 0a3 3 0 01-.52-1.45 5 5 0 012.31-4.72 5.17 5.17 0 012.95-.67zM19 51.17c.42-.6.69-1.05 1-1.45a3 3 0 013.36-1.14c.46.12.91.25 1.37.34.82.17 1.16-.21.88-1a2.41 2.41 0 00-1.4-1.51 5.06 5.06 0 00-2.55-.27c-2.17.34-3 2.09-3 4.07.073.333.187.655.34.96zm17.9-5.38a2.87 2.87 0 01-1 2 1.22 1.22 0 01-1.32.25 8.717 8.717 0 01-1.07-.49.91.91 0 00-1.16.1c-.32.28-.62.57-.93.85-.67.62-1.1.71-1.77.37a1.76 1.76 0 01-1.11-1.89 4.689 4.689 0 012-3.41 6.13 6.13 0 013-1.32c.333-.012.66.079.94.26a4.58 4.58 0 011.9 1.95c.198.433.372.877.52 1.33zm-1.92 1c.52-.53.67-.77.54-1.2a2.79 2.79 0 00-1.5-1.9c-.58-.27-1.08.27-1.64.12a4.21 4.21 0 00-2.57 3c-.1.56-.11.56.53.89.37-.34.74-.71 1.14-1a2.08 2.08 0 012.61-.25c.296.139.6.259.91.36l-.02-.02zm12.68 9.55a5.59 5.59 0 011.79-3.9 1.48 1.48 0 012.17.1 2.73 2.73 0 01.63 2.12 8.09 8.09 0 01-.18 1.48 2.52 2.52 0 00.73 2.58 1.86 1.86 0 01-.88 3.08 2.58 2.58 0 01-2.64-.59 4.362 4.362 0 01-.82-1.13 8.75 8.75 0 01-.8-3.74zm2.78-3.13a2.43 2.43 0 00-1 1.12 5.86 5.86 0 00.22 5.43 1.51 1.51 0 001.31.88.93.93 0 001-.4c.24-.4 0-.64-.28-.89a3.41 3.41 0 01-.89-3.18c.096-.489.163-.983.2-1.48a1.4 1.4 0 00-.56-1.48z" fill="#2A2B2C"/></svg>