<svg width="80" height="80" viewBox="0 0 80 80" fill="none" xmlns="http://www.w3.org/2000/svg"><path d="M65 72.56a28.665 28.665 0 00-5.85.29c-.957.11-1.923.11-2.88 0a57.42 57.42 0 00-6.15-.16H37.88c-4.78.11-9.56.22-14.34.4-1.73.07-3.46.3-5.19.48-1.73.18-3.55.42-5.32.6a5.608 5.608 0 01-1.23 0c-.45-.06-.62-.28-.66-.73a2.805 2.805 0 010-.29c0-.77 0-1.54-.06-2.31-.05-1.75 0-1.86 1.61-2.11 1.17-.18 2.35-.31 3.53-.38 8.2-.44 16.4-.77 24.61-.89 4.39-.07 8.79-.1 13.18-.18 1.67 0 3.33-.16 5-.19h6.52c1.18 0 2.36 0 3.54-.08h.65a.6.6 0 01.6.44c.076.23.123.468.14.71 0 .94.06 1.88.1 2.82a1.24 1.24 0 01-.9 1.32 5.888 5.888 0 01-2.2.37c-.81-.12-1.63-.11-2.46-.11zM18 50.28a8.231 8.231 0 01-1.2-3.89 5.74 5.74 0 013.93-6.22 3.48 3.48 0 012.21-.07c.49.118.972.272 1.44.46a3 3 0 011.43 1.57 6.92 6.92 0 01.62 3.53 17.994 17.994 0 01-.19 1.8c-.14.78-.35 1.54-.53 2.31a9.71 9.71 0 016.08 7.28c.1-.49.21-1 .3-1.48a8.11 8.11 0 012.28-4.12 9.66 9.66 0 011.17-.88 1.257 1.257 0 00-.05-.16 8.51 8.51 0 01-.32-6 5.75 5.75 0 014.55-4.46 4 4 0 012.07.19c.436.194.888.351 1.35.47.28 0 .57.43.74.73A9.12 9.12 0 0145.05 46a8.94 8.94 0 01-.93 3.91c.175.02.349.05.52.09a3.85 3.85 0 012.18 1.34 11 11 0 012 3.58c.07.23.18.44.32.78.09-.4.14-.68.2-.95a10.91 10.91 0 011.22-3.17A4.46 4.46 0 0153 49.55c0-.16-.05-.32-.09-.48a10.28 10.28 0 01.38-5.71 4.9 4.9 0 016.29-2.73c.218.101.451.166.69.19a1.12 1.12 0 01.89.42c.645.78 1.227 1.608 1.74 2.48a6.93 6.93 0 01.3 5c-.14.56-.37 1.1-.57 1.68a10.42 10.42 0 012.59 5.91c.11 1.4.28 2.79.32 4.19a34.89 34.89 0 01-.14 3.54 1.6 1.6 0 01-1.48 1.33h-1.95a70.982 70.982 0 00-9.34.2c-2.53.19-5.06.25-7.6.39-1.39.07-2.79.18-4.18.27h-.51c-2.92.06-5.84.1-8.77.19-2.93.09-6.08.24-9.12.34a68.626 68.626 0 01-7.31.16c-.68-.06-1.31-.06-1.31-.73 0-1.67 0-3.33.07-5 .06-1.42.18-2.84.34-4.26a9.11 9.11 0 012-5c.558-.58 1.146-1.13 1.76-1.65zm-2.7 15.25c.996.13 2.004.13 3 0 .05-1.39.25-6.67.31-8 0-.58.22-.83.6-.82.38.01.56.3.54.86 0 0-.16 4.08-.16 4.12 0 1.07-.08 2.13-.11 3.19 0 .18 0 .37.05.57l6.66-.39a2.63 2.63 0 000-.42c-.08-.82-.18-1.63-.26-2.45 0-.29-.43-4-.42-4.25a.48.48 0 01.44-.49.51.51 0 01.6.31c.06.15.45 3.7.47 3.87.07.5.11 1 .17 1.51.06.51.15 1.23.24 1.88l4.27-.12c-.06-.27-.1-.46-.15-.64a7.91 7.91 0 01-.26-1c-.1-.74-.13-1.49-.2-2.23a29.224 29.224 0 00-.83-4.92 8.54 8.54 0 00-3.88-4.77 1.94 1.94 0 00-.6-.24 1.32 1.32 0 00-1.45.33 3.17 3.17 0 01-2.55 1 4.481 4.481 0 01-2.24-.73 1.27 1.27 0 00-1.64.1c-.179.162-.342.34-.49.53a8.41 8.41 0 00-1.69 4.26c-.17 1.55-.31 3.12-.38 4.69-.09 1.37-.04 2.77-.04 4.25zm28-14.32l-1 .76a4.88 4.88 0 01-5.44.24 1.26 1.26 0 00-1.88.26 6.69 6.69 0 00-1.68 3 24.082 24.082 0 00-.67 6.61c0 .93.08 1.87.12 2.86 1.418.053 2.839.002 4.25-.15v-3.77c0-.17.24-2.59.28-2.75a.53.53 0 01.56-.46.55.55 0 01.55.49c0 .16-.23 2.58-.23 2.75v2.1c0 .52.07 1.05.11 1.54a11.19 11.19 0 004.11-.24c-.06-.63-.13-1.28-.17-1.92 0-.46-.16-3.55-.13-4a.54.54 0 01.52-.53c.31 0 .54.25.57.63 0 .16.13 3 .14 3.14a12 12 0 00.27 2.72c1.86 0 3.66 0 5.51-.18.026-.279.002-.56-.07-.83a3.261 3.261 0 01-.27-1.48c-.09-1.28-.13-2.56-.3-3.83a11.64 11.64 0 00-2.49-6 2 2 0 00-2.13-.9 1.83 1.83 0 01-.56-.06h.03zm11.89 12.58h4.06v-.36c0-.8 0-4.61.07-5.41 0-.45.25-.7.57-.7.32 0 .57.26.58.69.01.43 0 3.69 0 4v1.77l3.39.11c0-1 .17-2 .12-2.89-.1-1.9-.27-3.81-.48-5.7a6.92 6.92 0 00-1.5-3.71 5 5 0 01-8.57-.94 3.06 3.06 0 00-.79.38 6.74 6.74 0 00-1.07 1.26 10.3 10.3 0 00-1.31 4.47 56.403 56.403 0 000 6.88c.012.208.036.415.07.62L54 64c0-.82-.09-1.56-.14-2.3 0-.36-.37-4.1-.36-4.46a.48.48 0 01.48-.46.47.47 0 01.54.39c0 .23.38 3.85.41 4.09.07.82.19 1.68.26 2.53zm3.62-22.57c-.51 0-1 0-1.42.1a3.68 3.68 0 00-3.12 2.49 8.43 8.43 0 00.11 6.19c.94 2.14 2.2 2.73 4.54 2.39a3.3 3.3 0 002.47-2.14c.286-.61.513-1.247.68-1.9a5.8 5.8 0 00-.18-3.9 15.241 15.241 0 00-1.47-2.22c-.15-.22-.36-.17-.59-.12-.83.16-.97.05-1.02-.89zM36 47.19a5.27 5.27 0 00.62 2.93 2.61 2.61 0 002.3 1.62 4.24 4.24 0 004.24-2.43 7.36 7.36 0 00.68-4.37c-.19-1.31-.38-2.67-1.56-3.6-.21-.15-.37-.37-.63-.41a4.14 4.14 0 00-2.62.3 5.44 5.44 0 00-2.34 2.29 7.75 7.75 0 00-.69 3.67zm-10.67-2h-.06c.015-.22.015-.44 0-.66-.19-1.17-.36-2.36-1.58-3a.45.45 0 01-.19-.22c-.13-.42-.92-.12-1.25-.16a4.15 4.15 0 00-4.34 4.13 9.142 9.142 0 00.47 3.2A4 4 0 0020.64 51a2.5 2.5 0 003.05-.54A4.52 4.52 0 0025 48c.14-.9.21-1.87.32-2.83l.01.02zm16.34-10.86c-.32.89-.6 1.71-.89 2.52-.15.42-.22 1-.82 1s-.78-.44-1-.85c-.27-.59-.46-1.22-.68-1.83a3.09 3.09 0 00-.14-.32 1.194 1.194 0 00-.23 0c-1.45 0-2.9-.08-4.34-.06-.797.026-1.592.103-2.38.23a3.37 3.37 0 00-1.94.91c-.38.37-.75.75-1.16 1.08-.69.57-1.41 1.1-2.12 1.64a.66.66 0 01-.81.07c-.3-.18-.27-.48-.23-.78.22-1.33.44-2.66.66-4.08A6.07 6.07 0 0123.81 31c-.29-.61-.55-1.24-.89-1.82a16.62 16.62 0 01-2-6.84 18.301 18.301 0 01-.13-2.45 6.002 6.002 0 01.36-1.83 21.65 21.65 0 014.59-7 9.142 9.142 0 012.32-1.72 27.091 27.091 0 017.26-2.82 21.07 21.07 0 017.21-.3c2 .25 3.91.6 5.85 1a7.419 7.419 0 011.77.61c1.6.748 3.124 1.649 4.55 2.69A9.08 9.08 0 0156.37 12a27.29 27.29 0 012.39 3.08 11.7 11.7 0 011.82 5.36c.08 1.16.18 2.32.2 3.47a11.18 11.18 0 01-3.25 8c-.24.237-.5.451-.78.64-.19.15-.4.27-.6.41-1 .73-1 .77-.8 2 .13.86.17 1.73.23 2.59a.71.71 0 01-1.24.61 9.007 9.007 0 01-.85-.79 5.732 5.732 0 01-.74-.89 2.75 2.75 0 00-2.45-1.3c-2.28-.19-4.55-.53-6.83-.79-.57-.02-1.15-.02-1.8-.06zm12.59 2.27l.14-.05c.01-.19.01-.38 0-.57-.11-.66-.21-1.33-.34-2a.88.88 0 01.43-1 14.305 14.305 0 002.16-1.7 9.701 9.701 0 003-6.92c0-1.25-.12-2.51-.18-3.76A11.22 11.22 0 0058 16a20.87 20.87 0 00-3-3.86 4.103 4.103 0 00-.73-.59 31.999 31.999 0 00-4.62-2.72 5.34 5.34 0 00-1.29-.45c-1.94-.35-3.89-.72-5.85-1a19.91 19.91 0 00-6.84.28 24.841 24.841 0 00-6.92 2.7 9.38 9.38 0 00-2 1.49 19.653 19.653 0 00-4.38 6.59 4.372 4.372 0 00-.37 1.5 22.51 22.51 0 00.13 2.46 15.54 15.54 0 001.09 4.71c.73 1.63 1.54 3.22 2.35 4.81.188.335.443.628.75.86a1.11 1.11 0 01.54 1.4c0 .19-.12.37-.16.56-.14.69-.27 1.39-.41 2.09l.16.08 1.11-1c.57-.49 1.13-1 1.71-1.46.141-.13.308-.229.49-.29a16.06 16.06 0 014.07-.58h4.21a1.18 1.18 0 011.32 1c.1.3.17.6.27.9.071.174.158.342.26.5.25-.74.48-1.35.66-2a1.05 1.05 0 011-.81c.24-.02.48-.02.72 0 1.25.11 2.5.21 3.75.35l5.53.66a1.768 1.768 0 011.24.65c.45.62.96 1.17 1.47 1.77z" fill="#2A2B2C"/><path d="M55.82 45.05c0-.42.19-.66.49-.69a.55.55 0 01.6.41c.07.23.11.47.16.7.09.48.74 3.31.83 3.78.09.47 0 .66-.35.76a.6.6 0 01-.75-.4s-.59-2.45-.6-2.5c-.13-.71-.26-1.42-.38-2.06zm4.44 3.83a.56.56 0 01-.41.64.542.542 0 01-.69-.37c-.18-.72-.84-3.72-1-4.45a.52.52 0 01.41-.6.5.5 0 01.65.3c.103.244.177.499.22.76.14.49.73 3.26.82 3.72zm-21.37-4.45c-.06.38.06 3.65 0 4.15-.06.5-.36.74-.68.69-.32-.05-.49-.33-.43-.86s-.06-3.72 0-4.2.27-.69.59-.68c.32.01.54.3.52.9zm1.24.17a3.78 3.78 0 01.06-.52.511.511 0 01.58-.43.49.49 0 01.5.44c0 .38.17 3.9.13 4.28a.48.48 0 01-.52.41.5.5 0 01-.51-.43c-.04-.21-.21-3.55-.24-3.75zm-19.21 3.74a.54.54 0 01-.49.44.52.52 0 01-.6-.41c-.09-.54-.77-2.92-.79-3.47a.52.52 0 01.52-.57.55.55 0 01.6.51c.07.5.71 2.83.76 3.5zm.41-3.81c0-.4.14-.65.43-.67a.73.73 0 01.59.26c.2.45.71 3.36.8 3.85a.46.46 0 01-.42.56c-.2 0-.53-.1-.59-.25-.21-.45-.69-3.36-.81-3.75zm17.72-25.2l.46-.63a11.12 11.12 0 012.43-2.46 4.89 4.89 0 013.22-.86c.338.026.663.144.94.34a3.59 3.59 0 011.26 4.65 7.64 7.64 0 01-.85 1.25 46.502 46.502 0 01-4.61 4.7c-.48.44-.93.91-1.39 1.37-.12.12-.23.24-.36.35-.74.6-.8.59-1.47-.1a6.156 6.156 0 00-.57-.44 20.36 20.36 0 01-4.3-3.83 6.2 6.2 0 01-1.16-3.59 2.08 2.08 0 01.63-1.57 6.45 6.45 0 01.94-.79 2.32 2.32 0 013 .06c.62.46 1.18 1 1.83 1.55z" fill="#2A2B2C"/></svg>