<svg width="80" height="80" viewBox="0 0 80 80" fill="none" xmlns="http://www.w3.org/2000/svg"><path d="M69.83 53.47a5.342 5.342 0 01-.79.19c-1.64.14-3.27.22-4.9.39-3.76.4-7.53.44-11.3.6h-1.53a60.576 60.576 0 00-7.62.16 83.692 83.692 0 01-8.53.24c-1.85 0-3.7.05-5.55.13-2.186.12-4.377.1-6.56-.06-1.29-.12-2.59-.12-3.89-.12-.53 0-.68-.25-.57-.78.04-.289.04-.581 0-.87 0-.68-.09-1.36-.13-2.08H15.2v.59c0 1.44.06 2.87.12 4.31 0 1.17.12 2.35.22 3.53.075.4.075.81 0 1.21a.34.34 0 00.09.27.72.72 0 01-.29 1.26 4.19 4.19 0 01-2.08.06c-.36-.08-.72-.19-1.07-.3a2.21 2.21 0 01-1.19-.88 1.29 1.29 0 01-.26-.93 6.31 6.31 0 00-.4-3.13A7.51 7.51 0 007.9 54a1.26 1.26 0 00-.45-.15 4.49 4.49 0 01-1.91-.74 3.71 3.71 0 01-1.35-3.81c.12-.76.31-1.5.5-2.24a1.17 1.17 0 01.92-1c.187-.044.36-.13.51-.25a12.468 12.468 0 002.52-2.29 6.12 6.12 0 001.25-3.25c.09-.91.14-1.83.19-2.74a1.07 1.07 0 01.6-1 4.4 4.4 0 011.51-.53c.228-.04.462-.04.69 0a.83.83 0 00.7-.07.48.48 0 01.7.47c-.21 1.87.24 3.7.26 5.56 0 .62.06 1.23.09 1.85v.45h3.25v-1.32c-.15-2.7-.33-5.39-.46-8.09-.05-1.1 0-2.21 0-3.31 0-.91-.05-1.81-.08-2.71 0-.26-.06-.53-.05-.79a.42.42 0 01.18-.32c.08 0 .23.07.35.11.12.04.16.1.23.09l5.63-.71a8.752 8.752 0 011.14-.09c4.22-.11 8.44-.12 12.66.16 3.6.24 7.2.25 10.81.18 3.34-.07 6.69-.24 10-.38.55 0 1.1-.12 1.64-.19.54-.07.59 0 .74.47l.18-.22c.8-1.24 1.64-2.46 2.4-3.72a16.6 16.6 0 012.25-2.89c.62-.65 1.06-1.41 1.61-2.1.55-.69.81-1.14 1.26-1.68a2.27 2.27 0 012.85-.58 3 3 0 011.82 2.53 2.08 2.08 0 01-.22 1.3c-.15.24-.29.47-.45.7a.66.66 0 00-.16.58.69.69 0 01-.16.47c-.19.26-.42.5-.62.76A26.093 26.093 0 0069.49 25c-.54.9-1.11 1.78-1.71 2.72l1.67.07c.05.009.1.009.15 0 .44-.19.7-.05.72.44 0 1.18 0 2.36.06 3.54.07 2.31.14 4.63.22 6.94 0 1.1.12 2.19.14 3.28 0 2.23.08 4.45.09 6.67 0 1-.09 2.08-.11 3.12v1.24c0 .26-.08.5-.33.56a1.864 1.864 0 01-.56-.11zM19.61 54h.51c1 0 2 0 3 .11 2.11.165 4.23.165 6.34 0C31.5 54 33.55 54 35.6 54h4.69c2.53-.1 5.05-.3 7.58-.39 1.5 0 3 .08 4.52 0 3.81-.14 7.63-.19 11.43-.59 1.51-.16 3-.23 4.55-.34l1.36-.11v-.85c0-1 .11-2.08.11-3.12 0-1.89 0-3.77-.08-5.65 0-1.44-.07-2.89-.15-4.33a81.862 81.862 0 01-.11-8.86v-1l-2-.17a.54.54 0 00-.5.28c-.69 1-1.4 2-2.08 3-.68 1-1.54 2.27-2.27 3.43a2.34 2.34 0 01-1 1.11c-.74.33-1.42.77-2.12 1.16-.3.17-.6.33-.88.52-.62.44-1.08.25-1.16-.51-.015-.2-.015-.4 0-.6a7 7 0 00-.38-2.44 1.172 1.172 0 00-.2-.34.52.52 0 01.05-.78.8.8 0 00.24-.28c.41-.73.77-1.49 1.21-2.2.58-.93 1.22-1.81 1.84-2.72.06-.09.11-.18.19-.32-.43.07-.8.18-1.16.2-1.52.07-3 .11-4.56.19-4.26.22-8.52.26-12.78.26h-.93c-2.15-.11-4.31-.28-6.46-.33-3.1-.07-6.21-.06-9.31-.08-.52 0-1 .05-1.56.1-1.62.15-3.24.32-4.85.48l-.88.12L19 44.15h.16c1.88-.1 3.75-.24 5.63-.29 2.21-.06 4.42-.08 6.63 0 1.58 0 3.16 0 4.75-.08a41.133 41.133 0 015.44-.17c1.23.07 2.47.05 3.7.07 1.23.02 2.27.07 3.41.05 1.098.088 2.2.112 3.3.07a6.765 6.765 0 011-.05.9.9 0 011 1c0 1 .06 1.91.13 2.86.033.584.107 1.166.22 1.74a.79.79 0 01-.8 1c-.56 0-1.13-.06-1.69 0s-1.18.08-1.77.09c-.59.01-1.44 0-2.16 0-2.64.11-5.28.28-7.93.36-1.55 0-3.1-.08-4.65-.09h-6.7c-.72 0-1.43.08-2.15.14-1.52.12-3 .26-4.54.36h-2.47l.1 2.79zm33.25-9.19l-5.94-.11v1.41c0 .24-.11.43-.33.43a.74.74 0 01-.45-.27c-.07-.06-.07-.21-.07-.33v-1.22h-3.65c0 .59.06 1.13.13 1.68s.19 1 .28 1.53c.09.53-.07.65-.32.7a.55.55 0 01-.59-.5c-.12-.6-.25-1.19-.31-1.79-.06-.6 0-1.12 0-1.71h-3.26c.08.41.15.78.21 1.14.02.116.02.234 0 .35 0 .22-.16.41-.39.38a.89.89 0 01-.42-.31.85.85 0 01-.1-.4c-.06-.36-.11-.72-.17-1.11l-3.2.18c.028.132.048.266.06.4.11 1.18.22 2.36.31 3.55a.49.49 0 01-.49.59.521.521 0 01-.53-.55c0-.73-.08-1.47-.15-2.19-.07-.72-.15-1.2-.23-1.79l-2.47-.1c-.17 0-.22.06-.24.22 0 .39-.09.78-.14 1.17 0 .2-.14.37-.34.32-.2-.05-.25-.19-.33-.33a.63.63 0 010-.31c0-.36.07-.73.11-1.12h-2.57v.16c-.08 1.179-.03 2.362.15 3.53a.452.452 0 01-.35.58.49.49 0 01-.56-.4 2.7 2.7 0 01-.06-.41c0-1.08-.06-2.16-.1-3.25v-.21a5.692 5.692 0 00-.59 0c-.4 0-.86-.14-1.17.27h-.12l-1.11.26c0 .34.08.68.14 1a.5.5 0 01-.22.58.422.422 0 01-.6-.11 2.452 2.452 0 01-.29-.78 3.29 3.29 0 010-.7h-3.33a5.93 5.93 0 00.21 2.23.5.5 0 01-.25.68.47.47 0 01-.66-.26 3.25 3.25 0 01-.28-1v-1.7h-2c0 .51.06 1 .11 1.54 0 .33-.07.55-.33.59-.26.04-.44-.14-.46-.45-.05-.56-.06-1.13-.09-1.7h-.6l.44 5.18 3-.09h2.71c2.4 0 4.77-.43 7.18-.42 2.71 0 5.42-.18 8.13-.15 2.3 0 4.59.06 6.89-.09 1.6-.11 3.2-.17 4.8-.26a8.373 8.373 0 011.11-.07 12.39 12.39 0 002.51.06c.6 0 1.2-.07 1.8-.1l-.42-4.42zm17.29-22.43l.88-1c-.54-.43-1-.85-1.56-1.23s-1.09-.72-1.67-1.1l-1 1.28 3.35 2.05zm-12 12l-.07.11c.086.302.153.61.2.92 0 .4.17.67.6.73.152.054.3.121.44.2a.36.36 0 00.23 0l1.1-.61-2.5-1.35zM7.92 48.67A2 2 0 007.84 50c.08.27.2.43.5.42a.46.46 0 00.51-.42c0-.16.06-.33.08-.5a.78.78 0 00-.42-.7l-.59-.13z" fill="#2A2B2C"/><path d="M24.68 38.68l1-.06c1.68 0 3.35-.14 5-.13 2.46 0 4.91.14 7.36.13 2.1 0 4.193-.08 6.28-.24 2.36-.17 4.73-.31 7.1-.29 1.57 0 3.14-.07 4.71-.11h.74a.51.51 0 01.53.54c0 .29-.23.47-.57.47-2.89 0-5.78.06-8.67.14-1.54 0-3.07.2-4.61.32-2.736.188-5.48.222-8.22.1-2.08-.07-4.16 0-6.24 0h-3.76c-.45.05-.51.13-.44.56v.12c0 .38-.12.63-.41.65-.29.02-.45-.17-.49-.54-.09-.82-.17-1.63-.27-2.44 0-.26.05-.45.32-.5.27-.05.42.1.47.36.05.26.12.65.17.92zm25.69 7.49c.43.06.76.09 1.08.15a1 1 0 01.72 1.3 2.67 2.67 0 01-.33.68.81.81 0 01-1.09.3 7.343 7.343 0 01-.69-.34 1.21 1.21 0 01-.15-1.9 1.5 1.5 0 01.46-.19zm.76 1.47v-.38a4.13 4.13 0 00-.67-.31c-.12.47-.12.47.67.69z" fill="#2A2B2C"/></svg>