<svg version="1.1" id="Layer_1" xmlns="http://www.w3.org/2000/svg" x="0" y="0" viewBox="0 0 80 80" xml:space="preserve"><style>.st0{fill:#2a2b2c}</style><path class="st0" d="M69.8 53.5c-8.7 1.3-17.5.9-26.1 1.3-4.7.4-9.4.1-14.1.4-3.5.3-7-.2-10.5-.2-.5 0-.7-.2-.6-.8.1-1-.1-1.9-.1-3h-3.3c-.1 3.3.3 6.5.4 9.8.2.3.4.5.3.8-.5 1.4-4.3.5-4.9-.6-.2-.3-.3-.6-.3-.9.1-1.1 0-2.1-.4-3.1-.6-1.3-1.5-2.9-2.9-3.4-3.7-.6-3.8-3.9-2.8-6.8.1-.5.4-.9.9-1 2.2-1.1 4.1-3.3 4.3-5.8.2-1.1 0-2.3.3-3.3.7-.8 2-1.1 3-.9.3 0 .6-.3.8-.1.1.1.2.3.2.4-.2 2.6.4 5.2.4 7.9h3.2c-.2-5.4-.5-10.8-.6-16.2.1-.4.2-.4.5-.2.1 0 .2.1.2.1l5.6-.7c8.2-.6 16.4.5 24.6.2 3.9-.2 7.8-.1 11.6-.6.5-.1.6 0 .7.5.9-1.3 1.8-2.6 2.6-3.9 1.1-1.8 2.7-3.2 3.9-5 .9-1 1.2-2.2 2.6-2.5 2.1-.4 4.1 2.1 3.1 4.1-.2.3-.4.6-.6 1-.1.3 0 .6-.2.8-1.7 1.9-3 3.8-4.3 6h1.8c.4-.2.7-.1.7.4 0 1.2 0 2.4.1 3.5.1 6.7.6 13.3.3 20 .5.8.9 2.3-.4 1.8zm-50.2.5c3.3 0 6.6.5 9.8.1 6.1-.2 12.3 0 18.4-.5 7.3.2 14.6-.5 21.9-1 .4-7.9-.5-15.9-.2-23.8-.2 0-2.1-.3-2.3-.1-1.7 2.1-3 4.3-4.6 6.6-.6 1.3-2.1 1.5-3.1 2.3-.7.4-1.9 1.5-2 0 0-1.1 0-2.4-.6-3.4-.1-.1-.2-.3-.2-.4 1.4-2.4 2.1-3.6 3.7-5.9-6.1.7-12.3.6-18.5.7-8-.3-16-.9-24 .3l1 15.3c5.7-.5 11.4-.2 17.2-.4 5.3-.5 10.6.1 15.8 0 .8-.1 2.1-.2 2 1 0 1.6.1 3.1.3 4.6.1.2 0 .5-.1.7-.2.2-.4.3-.7.3-1.2-.1-2.3.1-3.5.1-3.3 0-6.8.3-10.1.4-3.8-.1-7.6-.1-11.4-.1-3.1.1-6.1.6-9.2.5l.4 2.7zm33.3-9.2l-5.9-.1v1.4c0 .2-.1.4-.3.4-.8-.2-.4-1.2-.5-1.8h-3.7c0 1.1.2 2.1.4 3.2.1.5-.1.7-.3.7-.3 0-.6-.2-.6-.5-.3-1.2-.4-2.3-.3-3.5h-3.3c0 .5.6 1.8-.2 1.9-.7-.3-.5-1.2-.7-1.8l-3.2.2c.2 1.4.3 2.8.4 4.2-.1.4-.6.5-.9.2-.1-.1-.2-.2-.1-.4 0-1.3-.2-2.8-.4-4l-2.5-.1c-.2 0-.2.1-.2.2 0 .4-.1.8-.1 1.2 0 .2-.1.4-.3.3-.7-.3-.2-1.2-.2-1.8h-2.6c-.2 1.5.2 2.9.1 4.1-.2.4-.8.2-.9-.2-.1-1.3-.1-2.6-.2-3.9-.6.1-1.3-.3-1.8.3h-.1l-1.1.3c0 .5.2.9.1 1.3-.7 1.1-1.3-.7-1.1-1.3h-3.3c-.2.9.2 1.8.2 2.6-.1.3-.4.4-.7.3-.8-.7-.5-2-.6-3h-2c-.1.5.5 1.9-.2 2.1-.3 0-.4-.1-.5-.5 0-.6-.1-1.1-.1-1.7h-.6l.4 5.2 3-.1c3.3.1 6.6-.3 9.9-.4 8.4-.1 16.8-.3 25.2-.6l-.2-4.4zm17.3-22.4l.9-1c-1-.9-2.1-1.6-3.2-2.3l-1 1.3 3.3 2zm-12 12l-.1.1c.3.6 0 1.5.8 1.7.2.1.3.1.4.2h.2l1.1-.6-2.4-1.4zM7.9 48.7c-.2.5-.3 1.7.4 1.8.2 0 .4-.1.5-.2.1-.5.3-1.1-.3-1.4 0-.1-.6-.2-.6-.2z"/><path class="st0" d="M24.7 38.7c4.5-.3 8.9-.1 13.4-.1 6.4-.1 12.7-.7 19-.6.5.2.4 1-.2 1-7.2-.2-14.3.9-21.5.6-3.1-.1-6.5 0-9.6 0-.4 0-1-.1-.8.6.1.8-.8 1.1-.9.2l-.3-2.4c0-.3.1-.5.3-.5.6-.2.4.8.6 1.2zm25.7 7.5c.7.1 1.4 0 1.7.6.3.6-.1 1.6-.7 1.9-.6.1-1.3-.3-1.7-.8-.4-.7-.1-1.6.7-1.7zm.7 1.4v-.4c-.2-.1-.4-.2-.7-.3-.1.5-.1.5.7.7z"/></svg>