<svg width="80" height="80" fill="none" xmlns="http://www.w3.org/2000/svg"><path d="M55.82 59H57a31.698 31.698 0 015.32.4c1.15.15 2.31.27 3.46.45a26.71 26.71 0 014.3 1.15c.14 0 .29.07.43.12.14.05.24.08.27.16.13.32.62.4.56.84v.6c-.12.75-.25 1.5-.38 2.34l2.27 1c.1 0 .21.07.31.12a.65.65 0 01.42.8c-.07.42-.15.85-.24 1.3h.39a15.76 15.76 0 013.06.27c.16.04.317.09.47.15a.58.58 0 01.37.59v2.94c0 .58-.23.83-.81.78-3.17-.26-6.35-.17-9.52-.28-2-.07-4.1 0-6.14 0-1.85 0-3.69-.13-5.53-.24-2-.13-4.07-.2-6.11-.24a18.5 18.5 0 00-2.35.21c-.26 0-.5.08-.47.43a.27.27 0 01-.12.21c-.22.11-.23.31-.29.5a2.431 2.431 0 01-1.28 1.64 6.7 6.7 0 01-5.54.36 6.12 6.12 0 01-2.92-2.21 7.112 7.112 0 00-.6-.63s-.06 0-.07-.05c-.17-.4-.54-.35-.86-.36-2.7-.1-5.41-.17-8.12-.29-1.74-.08-3.48-.23-5.22-.35h-1c-3.58 0-7.16-.05-10.74-.05-1.48 0-2.95.06-4.43.11-.61 0-1.22.12-1.83.19-.43 0-.68-.08-.74-.51-.1-.81-.19-1.64-.21-2.46 0-.54.18-.71.71-.8.53-.09 1.3-.2 1.92-.29v-1.22a.93.93 0 01.42-.84c.37-.25.72-.52 1.09-.75a.83.83 0 00.36-.59c.11-.69.21-1.38.35-2.06a.73.73 0 01.27-.44c.14-.09.32-.12.47-.2a10.82 10.82 0 013.57-1.23c1.7-.3 3.4-.61 5.1-.85 1.22-.18 2.45-.25 3.67-.36h.33c-.12-5.52 0-11 .13-16.54h-.22L19 43a.4.4 0 01-.46-.3c-.08-.23 0-.4.33-.57-.21-.27-.05-.5.09-.74 1.26-2.23 2.53-4.45 3.78-6.68.32-.57.57-1.17.84-1.76.09-.2.2-.3.42-.26a.17.17 0 00.14 0c.13-.24.35-.23.57-.23h4c1.54.06 3.06.19 4.59.29h1.32l.1-4.13-1.17-.14c-.19 0-.37-.09-.57 0a.37.37 0 01-.48-.17.42.42 0 010-.54c.295-.35.609-.684.94-1a32.833 32.833 0 003.64-3.63c.28-.34.6-.65.9-1a.59.59 0 01.63-.16c.307.082.594.228.84.43 1.35 1.26 2.68 2.53 4 3.81.36.35.67.73 1 1.09.127.127.264.244.41.35a.48.48 0 01.23.49.45.45 0 01-.38.36h-.12a1.28 1.28 0 01-1.26.22.342.342 0 00-.1 0c-.056 1.32.004 2.641.18 3.95h.21c2.87 0 5.74.1 8.62.13.51 0 1-.1 1.52-.14a.47.47 0 01.48.34c.157.418.34.826.55 1.22a43.244 43.244 0 012.52 5.22c.33.8.75 1.55 1.14 2.32a.63.63 0 01-.09.69c-.37.63-.94.56-1.51.57h-.8a9.635 9.635 0 00-.22 1.27c-.09 2.9-.19 5.8-.24 8.7 0 1.3.06 2.6.1 3.91v1.65c.11.23.12.35.13.44zm-23.56.7v-.26a9.713 9.713 0 01-.14-1.44c0-1 .11-2 .21-3a6.999 6.999 0 012.41-4.91 5.52 5.52 0 012.31-1.32 9.18 9.18 0 013.53-.44 2.72 2.72 0 011.48.67 6.17 6.17 0 012.11 4.62c0 2.14 0 4.28-.05 6.43v1.43a41.9 41.9 0 0110.7-2.38c-.01-.2-.01-.4 0-.6 0-.13.08-.26.08-.39 0-1.24-.11-2.48-.1-3.71 0-2.43 0-4.85.13-7.27a17.319 17.319 0 01.29-4.05h-.67c-.78.07-1.56.2-2.35.22-2 .06-4 .11-6 .11-3.62 0-7.24 0-10.85-.28-1.81-.11-3.61-.2-5.42-.28-2.44-.1-4.88-.22-7.32-.1-.16 0-.25.07-.27.21 0 .37-.11.74-.12 1.12 0 1.94-.05 3.89 0 5.84v9.34a69.615 69.615 0 0110.04.46v-.02zm40.58 8.33c.07-.38.14-.72.19-1.06 0 0-.07-.14-.13-.16-.76-.35-1.54-.68-2.3-1a10.74 10.74 0 01-1.12-.68 2.618 2.618 0 00-.54-.35c-.7-.272-1.42-.495-2.15-.67a33.517 33.517 0 00-6.79-.68c-2.29 0-4.57.18-6.84.37a32.997 32.997 0 00-5.6 1 24.528 24.528 0 00-3.88 1.55 6.58 6.58 0 00-2.21 1.36.51.51 0 01-.47.07c-.21-.07-.49-.15-.48-.45.01-.3-.09-.27-.24-.34-1.1-.51-2.17-1.07-3.29-1.54a23.187 23.187 0 00-3.63-1.39 43.75 43.75 0 00-10.7-1.21 47.516 47.516 0 00-9.22.85c-1.505.28-2.989.664-4.44 1.15-.09.047-.173.104-.25.17a3.822 3.822 0 01-.32.27c-.31.2-.63.38-.93.58-.3.2-.48.37-.71.56-.07.06-.17.14-.18.22v.83l1-.18c2.18-.46 4.35-.94 6.54-1.37 2.453-.51 4.955-.74 7.46-.69 1.77.05 3.54.18 5.31.27 1.841.115 3.665.426 5.44.93a27.92 27.92 0 015.91 2.42c.945.614 1.95 1.13 3 1.54a.55.55 0 00.38 0c.7-.33 1.38-.73 2.1-1 1.26-.5 2.56-.91 3.83-1.37a33.998 33.998 0 0110.61-1.84c1.49 0 3 0 4.48.11 2.184.106 4.353.414 6.48.92 1.2.27 2.42.54 3.69.83v-.02zm-64.34-4c.61-.19 1.17-.39 1.75-.54A44.81 44.81 0 0120.43 62a49.31 49.31 0 0110.85.7c1.078.159 2.142.406 3.18.74 1.68.62 3.3 1.38 4.93 2.11.68.3 1.34.67 2 1 .28-.17.57-.35.88-.52a24.92 24.92 0 018-2.78c1.73-.27 3.48-.41 5.22-.56a41.145 41.145 0 017-.05 42.59 42.59 0 014.36.56c1.147.209 2.257.59 3.29 1.13.1-.67.22-1.31.29-1.95a.43.43 0 00-.37-.52 1.539 1.539 0 01-.35-.1A27.296 27.296 0 0065 60.64c-1.33-.19-2.66-.3-4-.5a28.467 28.467 0 00-7.66 0c-1.5.19-3 .56-4.48.86a32.66 32.66 0 00-7.83 2.91.41.41 0 01-.62-.23c0-.23-.17-.29-.34-.37l-.79-.4a24.519 24.519 0 00-3.64-1.6 22.393 22.393 0 00-5.38-.93c-1.59-.15-3.19-.21-4.79-.26h-3.11a.58.58 0 00-.29.15c-.16.15-.36.23-.52.09a.681.681 0 00-.58-.12l-.6.06c-1.13.11-2.26.17-3.37.32-1.58.21-3.16.48-4.73.74a11.35 11.35 0 00-3.17.89.64.64 0 00-.44.58c.01.43-.09.82-.16 1.24v-.04zM38.29 49.5v.67c0 3.13-.06 6.26 0 9.39 0 .49-.26.91-.21 1.39 0 .08-.1.18-.15.28l1.3.65 1.75.86c.1.034.21.034.31 0l1.8-.74a.28.28 0 00.22-.33c0-.47-.07-.94-.07-1.41v-6.27a5.532 5.532 0 00-1.58-4 1.85 1.85 0 00-1-.64 4.49 4.49 0 00-2.37.15zm4-20.77c-2.28-.2-4.58-.13-6.89-.11a2.018 2.018 0 000 .22c0 1.47.15 2.94.06 4.41-.01.11-.01.22 0 .33l.27 3.57v.81h.46c1.49.11 3 .23 4.45.32a2.45 2.45 0 001.9-.28 60.54 60.54 0 00-.23-9.27h-.02zM37.37 61V49.67a2.996 2.996 0 00-.51.16 6.17 6.17 0 00-3.16 3.22c-.32.91-.519 1.858-.59 2.82a11.8 11.8 0 000 3.75.3.3 0 00.3.28c.77.16 1.54.32 2.3.53.58.15 1.1.38 1.66.57zM70 68.46v-.09l-1.53-.23v-.18l-.34-.08a45.492 45.492 0 00-7.81-.83 32.341 32.341 0 00-5.3.24c-1.054.08-2.102.22-3.14.42-1.46.34-2.89.81-4.33 1.22l-.15.08 3.09-.16c2.69-.14 5.37-.29 8.06-.41 1.37-.07 2.75-.09 4.13-.1h4.76c.86.04 1.69.09 2.56.12zm-37.35-.95a17.189 17.189 0 00-4-1c-1.27-.11-2.54-.2-3.81-.3a37.887 37.887 0 00-8.38.19 63.15 63.15 0 00-6.69 1.28l-.15.06h1.25c1 0 2-.1 2.94-.12h4.32c2.64-.06 5.29-.19 7.93-.23 1.82 0 3.65 0 5.48.06.32 0 .66.03 1.08.06h.03zM38.46 70c.131.515.377.994.72 1.4a3.15 3.15 0 002.75 1.6 1.62 1.62 0 001.13-.26 3.61 3.61 0 001.32-2c.06-.25.12-.5.18-.79l-.2.07c-1 .47-1.9.93-2.83 1.41-.35.17-.56.13-.74-.19a.44.44 0 00-.19-.16c-.28-.14-.58-.26-.86-.41L38.46 70z" fill="#2A2B2C"/><path d="M27.28 56.54h-2.36a1.768 1.768 0 01-.65-.21 1.11 1.11 0 01-.58-1.12c0-2.49 0-5 .11-7.46.032-.532.14-1.058.32-1.56a.7.7 0 01.69-.56c1 0 1.94.07 2.91.14.97.07 1.74.17 2.6.24a.89.89 0 01.72.4.77.77 0 01.08.43c-.13 1.59-.31 3.18-.39 4.77-.06 1.22 0 2.46 0 3.69a.565.565 0 000 .13c.05.54 0 .47-.43.81a1.87 1.87 0 01-1.19.29h-1.85l.02.01zm-.27-10c-.46 0-.88-.09-1.31-.1-.95 0-.74-.13-.94.73-.022.079-.038.16-.05.24-.05 1.23-.09 2.45-.14 3.68v.07h2.23l.21-4.62zm.68 4.6h2.13l.35-4.28-2.28-.23-.2 4.51zm0 .83l-.15 3.71 2.32-.09v-3.25c0-.09-.09-.25-.15-.26-.65-.03-1.32-.08-2-.08l-.02-.03zm-1 3.75l.16-3.65a5.15 5.15 0 00-2.34.11c0 1 .08 2 .1 3a.37.37 0 00.38.41c.53.1 1.08.12 1.68.15l.02-.02zm22.6-8.5c.71 0 1.4-.08 2.09-.09a6.329 6.329 0 011.15 0c.38.06.52.28.57.67.09.64.22 1.28.26 1.93.037.564.013 1.13-.07 1.69a43.628 43.628 0 00-.37 4.83c0 .89-.2 1.23-1.32 1.23-1.51 0-3-.15-4.51-.23a.6.6 0 01-.62-.64c-.09-1.19-.17-2.38-.26-3.56a.63.63 0 00-.15-.32.461.461 0 010-.66.52.52 0 00.12-.33c0-.65-.1-1.29-.1-1.94a6.711 6.711 0 01.13-1.56 1.83 1.83 0 01.57-.9 1.18 1.18 0 01.76-.16c.56.02 1.17.04 1.75.04zm.81.85a16 16 0 00-.1 3.79l2.26-.16s.1-.08.1-.13c.086-.475.133-.957.14-1.44a18.482 18.482 0 00-.28-2 .26.26 0 00-.18-.17c-.64.04-1.3.09-1.94.11zm0 8.44c.42.05.82.1 1.22.13.146.015.294.015.44 0 .16 0 .22-.09.22-.25v-.88c0-.95.1-1.91.16-2.9l-2.14.12.1 3.78zm-1-8.47a7.935 7.935 0 00-2.06.18 10.839 10.839 0 000 3.55h2.06v-3.73zm0 4.65h-2.03l.25 3.73 1.94.14-.16-3.87zm-8.95 4.68l-.9-.1a.45.45 0 01-.43-.48.46.46 0 01.54-.39l1 .08c.3 0 .5.18.5.44a.46.46 0 01-.5.44h-.19l-.02.01zm-1.34-20.66a3.49 3.49 0 01-1.87-.78 2 2 0 01-.58-2.13 3.331 3.331 0 011.72-2.27 1.76 1.76 0 012.39.59 4.9 4.9 0 01.78 2.06 2.3 2.3 0 01-2.44 2.53zm.56-4.71a1.774 1.774 0 00-.37 0 2.58 2.58 0 00-1.88 2.28 1.09 1.09 0 00.68 1.16c.266.122.54.226.82.31a1.39 1.39 0 001.69-1.67 9.078 9.078 0 00-.55-1.33c-.07-.21-.23-.43-.39-.75zm-3.92 24.43c.111.012.222.032.33.06a.31.31 0 01.24.37.61.61 0 01-.29.32c-.202.052-.41.08-.62.08a.36.36 0 01-.43-.33.381.381 0 01.33-.45l.44-.05z" fill="#2A2B2C"/><path d="M38.15 33.84c0-.25.07-.57.13-.9a.433.433 0 01.86.1c.01.11.01.22 0 .33-.07.29-.12.57.2.79a.49.49 0 010 .46.51.51 0 01-.4.21 1 1 0 01-.79-.99z" fill="#2A2B2C"/></svg>