<svg version="1.1" id="Layer_1" xmlns="http://www.w3.org/2000/svg" x="0" y="0" viewBox="0 0 80 80" xml:space="preserve"><style>.st0{fill:#2a2b2c}</style><path class="st0" d="M55.8 59c2.2 0 4.4 0 6.5.4 2.8.3 5.9.7 8.5 1.9.1.3.6.4.6.8 0 1-.2 1.9-.4 2.9.2.1 2.5 1.1 2.6 1.1.8.4.2 1.4.2 2.1 1.2 0 2.3.1 3.4.3.3.1.6.1.8.4.2 1.1 0 2.3.1 3.3 0 .6-.2.8-.8.8-5.2-.3-10.4-.3-15.7-.3-4.7 0-9.3-.8-14-.3-.3 0-.5.1-.5.4 0 .1 0 .2-.1.2-.4.3-.3 1-.7 1.5-2.5 2.5-7.3 1.7-9.3-1.2-.2-.2-.4-.5-.7-.7-.2-.4-.5-.4-.9-.4-10.4-.1-20.9-1.1-31.3-.2-.4 0-.7-.1-.7-.5-.1-.8-.2-1.6-.2-2.5 0-.5.2-.7.7-.8.5-.1 1.3-.2 1.9-.3.1-.7-.3-1.6.4-2.1.5-.4 1.3-.6 1.5-1.3.3-1 0-2.5 1.1-2.7 1.1-.6 2.3-1 3.6-1.2 3-.5 6-1.1 9.1-1.2-.1-5.5 0-11 .1-16.5-.3-.1-2.5.3-2.8.1-.3-.2-.3-.6.2-.8-.2-.3-.1-.5.1-.7 1.5-2.8 3.3-5.5 4.6-8.4.1-.3.3-.2.6-.3.1-.2.3-.2.6-.2 3.3-.1 6.6.2 9.9.3l.1-4.1c-.4 0-1.4-.2-1.7-.1-.2.1-.4 0-.5-.2-.4-.6.6-1.1.9-1.5 1.7-1.4 3.1-3 4.5-4.6.4-.4 1.1 0 1.5.3 1.9 1.8 3.8 3.6 5.6 5.5.2.3-.1.7-.5.6-.4.3-.9.3-1.4.2-.1 1.3 0 2.6.2 4 3.4-.1 6.9.3 10.4 0 .2 0 .4.1.5.3 1.4 3 3.1 6 4.3 9.1-.5.9-1.7.6-2.7.6-.5 5.3-.5 10.8-.2 16zm-23.5.7c-.3-3.3-.3-7.3 2.5-9.6 1.6-1.5 5.5-2.6 7.3-1.1 1.3 1.1 2.1 2.9 2.1 4.6v7.9c3.4-1.3 7-2.1 10.7-2.4.2-5.3-.3-10.7.4-16-10.9 1-21.7-.4-32.6-.3-.2 0-.2.1-.3.2 0 .4-.1.7-.1 1.1v15.2c3.3-.1 6.6 0 10 .4zM72.8 68c.1-.4.1-.7.2-1.1 0 0-.1-.1-.1-.2-1.4-.6-2.7-1.1-4-2-2.8-1.1-5.9-1.3-8.9-1.3-6.3.2-13.3.4-18.5 4.3-.3.2-1 0-.9-.4 0-.3-.1-.3-.2-.3-8.1-4.6-17.8-4.9-26.8-3.3-2.4.4-4.8 1-6.6 2.7-.3.2-.1.7-.2 1 2.5-.5 5-1.1 7.5-1.5 4.2-1 8.5-.7 12.8-.4 4 .2 7.9 1.4 11.3 3.3 1.1.6 2.2 1.5 3.4 1.5.7-.3 1.4-.7 2.1-1 9.1-3.9 19.3-3.9 28.9-1.3zM8.5 64c7.3-2.4 15.2-2.6 22.8-1.3 3.6.5 6.9 2.3 10.1 3.9 4.2-2.7 9.2-3.6 14.1-3.9 4.9-.3 10.1-.4 14.6 1.6.1-.7.3-1.4.3-2.1 0-.1-.1-.2-.2-.3-1.7-.6-3.4-1-5.2-1.3-8.2-1.5-16.7-.5-24.1 3.3-.2 0-.4-.1-.4-.3 0-.2-.2-.3-.3-.4l-.8-.4c-2.8-1.5-5.9-2.4-9-2.5-2.7-.1-5.5-.5-8.2-.1-.3.3-.5.1-.8 0-.4 0-.6.1-.9.1-3.8.4-7.7.6-11.3 1.9-.8.3-.5 1.3-.7 1.8zm29.8-14.5c0 3.4-.1 6.7 0 10.1 0 .5-.3.9-.2 1.4 0 .1-.1.2-.2.3.7.4 2.3 1.1 3.1 1.5.2.2 1.9-.7 2.1-.7.1 0 .3-.2.2-.3-.1-1.9-.1-3.8-.1-5.7.3-3.3-.7-8-4.9-6.6zm4-20.8c-2.3-.2-4.6-.1-6.9-.1 0 1.7.1 3.3.1 5 0 .6.3 3.8.3 4.4 1.6 0 3.3.2 4.9.3.6.2 1.3.1 1.9-.3.1-3.1 0-6.2-.3-9.3zM37.4 61V49.7c-4.1 1.2-4.9 6.5-4.2 10.1 1.4.4 2.8.6 4.2 1.2zM70 68.5l-1.5-.3V68c-6.9-1.4-14.4-1.4-21.1 1.1 7.5-.5 15.1-1 22.6-.6zm-37.3-1c-7.4-2.3-15.6-1.7-23 .2 7.6 0 15.2-.5 23-.2zm5.8 2.5c1.1 3.7 5.5 4.4 6.1-.1-1.1.4-2 1-3 1.5-.3.2-.6.1-.7-.2-.3-.3-.7-.4-1-.6-.2.1-1.4-.6-1.4-.6z"/><path class="st0" d="M27.3 56.5c-1.1-.1-2.8.5-3.5-.7-.1-.2-.1-.4-.1-.7.1-3-.3-6.1.4-9 .1-.3.4-.6.7-.6 1 0 1.9.1 2.9.1 1 .1 1.7.2 2.6.2.3 0 .6.2.7.4 0 3-.5 6-.3 9 0 .5 0 .5-.4.8-.9.8-2 .4-3 .5zm-.3-10c-.5 0-.9-.1-1.3-.1-1 0-.7-.1-.9.7-.2 1.3-.1 2.6-.2 3.9v.1h2.2l.2-4.6zm.7 4.6h2.1l.4-4.3-2.3-.2-.2 4.5zm0 .9l-.1 3.7 2.3-.1v-3.2c0-.1-.1-.2-.2-.3-.6-.1-1.3-.1-2-.1zm-1 3.7l.2-3.7c-.8-.1-1.6-.1-2.3.1.1 1.1-.1 2.3.2 3.3.5.4 1.2.3 1.9.3zm22.6-8.5c1.1 0 2.2-.2 3.2-.1.4.1.5.3.6.7.7 2.8-.2 5.6-.2 8.5 0 .9-.2 1.2-1.3 1.2-1.6 0-3.2-.1-4.8-.3-.2-.1-.4-.3-.4-.6-.2-1.3 0-2.7-.4-3.9-.4-.4.1-.6.1-1 0-1.4-.6-3.3.6-4.4.8-.3 1.8 0 2.6-.1zm.8.9c-.2 1.3-.2 2.5-.1 3.8l2.3-.2c.4-1.1.2-2.6-.1-3.7-.7-.1-1.4.1-2.1.1zm0 8.4c.6.1 1.1.2 1.7.1.2 0 .2-.1.2-.3 0-1.2.1-2.5.2-3.8l-2.2.2.1 3.8zm-1-8.5c-.7 0-1.4 0-2.1.2-.2 1.2-.2 2.4 0 3.5h2.1V48zm0 4.7h-2l.2 3.7 1.9.1-.1-3.8zm-8.9 4.7l-.9-.1c-.6 0-.5-1 .1-.9l1 .1c.7 0 .6.9 0 .9h-.2zm-1.4-20.7c-1.4-.1-3-1.4-2.4-2.9.3-1.3 1.6-2.8 3-2.5 1.2.3 1.7 1.7 1.9 2.8.1 1.4-1.1 2.7-2.5 2.6zm.6-4.7c-1.4-.1-2.7 1.7-2.1 3 .7 1 2.7 1.2 3-.2.2-1.1-.5-1.9-.9-2.8zm-3.9 24.4c.6 0 .8.4.3.8-.4.1-1.2.2-1-.4-.1-.4.4-.3.7-.4z"/><path class="st0" d="M38.2 33.8c0-.3 0-.9.3-1.2.3-.2.8 0 .7.4.1.4-.3.8.2 1.1.2.3-.1.7-.4.7-.5-.1-.9-.5-.8-1z"/></svg>