<svg width="80" height="80" viewBox="0 0 80 80" fill="none" xmlns="http://www.w3.org/2000/svg"><path d="M46.21 50.19a51.183 51.183 0 00.47 7.44l8.8-.47-.48-3.73a2.736 2.736 0 01-.5-.3c-.24-.27-.12-.63.24-.82a16.06 16.06 0 015.38-1.63c2.051-.27 4.129-.27 6.18 0 .773.13 1.515.402 2.19.8a.499.499 0 01.17.15c.17.3.434.534.75.67.31.14.27.49.2.79-.17.72-.33 1.43-.49 2.14a2.378 2.378 0 000 .29l.88-.15a2.87 2.87 0 012 .4 5.27 5.27 0 012.44 2.62 3.42 3.42 0 010 2.38 6.3 6.3 0 01-2.37 3.15 4.17 4.17 0 01-2.21.71h-2a1.76 1.76 0 01-.89 2.17 7.11 7.11 0 01-2.92.76 16.68 16.68 0 01-5.13-.35 8.314 8.314 0 01-1.92-.75.71.71 0 01-.28-.46c-.2-1.24-.37-2.48-.56-3.72 0-.3 0-.71-.22-.86-.22-.15-.58-.05-.89-.05-4.47.06-8.94.15-13.41.17-4.47.02-8.71 0-13.06-.08h-.51v.52c-.1 1.6-.21 3.2-.31 4.8a1.11 1.11 0 01-.8 1 17.09 17.09 0 01-4.3.75c-2.29.29-4.58.61-6.87.89-.687.073-1.38.097-2.07.07-.5 0-.7-.31-.75-.81l-.86-7.81c-.12-1.08-.21-2.16-.31-3.25a1 1 0 01.06-.41.58.58 0 011-.26.631.631 0 00.58.18l1.56-.21a35.72 35.72 0 01-3.75-5.76 39.558 39.558 0 01-2.95-7C8 43 7.6 41.93 7.26 40.81a4.3 4.3 0 01-.1-.72.68.68 0 01.32-.73.65.65 0 01.79.06 21.16 21.16 0 012.25 1.86c1 1.08 1.93 2.26 2.89 3.4a.58.58 0 00.11.1c-.08-.94-.2-1.84-.24-2.74-.1-1.82-.2-3.64-.22-5.46a14 14 0 01.86-4.28c.36-1.14.68-2.29 1-3.43a4.97 4.97 0 01.22-.65.6.6 0 01.67-.41.62.62 0 01.56.6c.05.728.14 1.452.27 2.17.51 2.28 1.06 4.55 1.59 6.82.35 1.5.71 3 1.06 4.49 0 .16.09.31.13.45l1.17-3.67c.068-.208.155-.409.26-.6a6.07 6.07 0 00.73-3.32c-.06-2.22 0-4.44-.07-6.66 0-1.43-.13-2.85-.21-4.27 0-.42-.1-.84-.15-1.26a1.41 1.41 0 01.64-1.43 9.28 9.28 0 014.23-1.74c2.18-.29 4.38-.56 6.58-.69 4.73-.29 9.47-.48 14.2-.73 4-.21 7.9-.45 11.84-.69.79 0 1.57-.11 2.35-.19a1.759 1.759 0 011.28.42 4.56 4.56 0 011.42 2.11 13.91 13.91 0 01.84 4.94c0 2.85-.24 5.71-.21 8.55 0 2.59.22 5.19.48 7.76.245 1.657.392 3.326.44 5A2.69 2.69 0 0164 48.33 11.94 11.94 0 0158.55 50c-3.994.274-7.999.347-12 .22l-.34-.03zM24.86 46.3h.09c.37-.49.73-1 1.09-1.47.36-.47.67-.7.4-1.24v-.08c0-1.34 0-2.69-.07-4 0-.91-.11-1.82-.19-2.73-.08-.91-.28-2-.31-3-.07-2.7-.09-5.39-.1-8.09.043-.624.12-1.245.23-1.86a.59.59 0 01.52-.55c.39-.08.79-.16 1.19-.21 2-.23 3.95-.56 5.93-.66 4.9-.24 9.8-.44 14.71-.53 3.11-.06 6.24.1 9.36.15h2.27c.76 0 1.08.44 1 1.17a8.59 8.59 0 00-.12 1.34c0 4.91 0 9.81-.07 14.72 0 1.56-.18 3.13-.27 4.69a.85.85 0 01-.48.73 1.9 1.9 0 01-1.13.15 26.083 26.083 0 00-2.93 0c-1.69.1-3.37.29-5.07.33-2.77.08-5.54 0-8.32.09-3.57.1-7.13.24-10.7.4-.906.078-1.808.204-2.7.38-.24 0-.36.14-.39.42-.09.63-.23 1.26-.34 1.89-.01.083-.01.167 0 .25h3.73c1.72.06 3.44.23 5.15.27 2.8.05 5.61 0 8.41 0 4.3.1 8.6.1 12.9-.21 1.7-.09 3.35-.595 4.81-1.47A1.32 1.32 0 0064 46c.002-1.18-.071-2.36-.22-3.53a59.26 59.26 0 01-.69-9.59c0-2.61.18-5.21.2-7.82.01-1.14-.086-2.278-.29-3.4a11.297 11.297 0 00-.86-2.49 1.31 1.31 0 00-1.52-.83 20 20 0 01-2.19.19l-7.74.47c-2.31.13-4.61.3-6.92.39-5.43.22-10.86.41-16.26 1a10.2 10.2 0 00-4.64 1.52c-.55.37-.54.35-.33 1a.86.86 0 010 .67 1 1 0 00-.19.86c.18 2.88.48 5.76.43 8.65v.35c.21-.42.37-.77.54-1.11a.63.63 0 01.7-.36.59.59 0 01.51.6v1c-.13 3.39 0 6.78.18 10.17l.15 2.56zm31.44 7.44c0 .39.08.75.13 1.1.17 1.27.35 2.54.52 3.81.1.73.15 1.47.27 2.2.19 1.24.43 2.48.61 3.72.18 1.24 0 1.14 1.3 1.42a13.93 13.93 0 006 .15 4.32 4.32 0 001.25-.48 1 1 0 00.34-.6c0-.26-.06-.54 0-.8 0-.42.17-.83.22-1.25.31-2.29.6-4.58.9-6.87.1-.71.22-1.41.31-2-1 .07-2 .19-3 .2-1.88 0-3.75-.05-5.63-.08a8.87 8.87 0 01-3.22-.52zM28 50c-.36 2-.45 4.06-1.44 5.91l.56.09c.73.13 1 .41 1 1.15v1.15l12.51-.47-.2-7.67h-.51c-2.4-.08-4.8-.12-7.2-.26A28.185 28.185 0 0028 50zm5.4-5.8v.08h.23c.76-.17 1.53-.33 2.29-.52a1 1 0 00.47-.36c.67-.82 1.32-1.64 2-2.48a107.911 107.911 0 0111.28-12.09L54 24.69a.7.7 0 00.18-.93.902.902 0 01-.06-.22.63.63 0 00-.63-.62c-.5 0-1 0-1.53-.05s-.92 0-1.37 0a.89.89 0 00-.54.24 25.25 25.25 0 00-2 2.17 28.17 28.17 0 01-4.21 4.52c-1 .82-1.79 1.76-2.7 2.64a60.64 60.64 0 00-5.86 6.73 35.833 35.833 0 01-3.49 4.1c-.34.32-.42.63-.25.91.17.28.48.37 1 .23l.86-.21zM15.56 31.47h-.06c-.13.39-.26.77-.38 1.15a13.543 13.543 0 00-.82 3.75 53.52 53.52 0 00.79 10.35c.015.176.015.354 0 .53a1.29 1.29 0 000 .52c.49 1 1.05 2 1.5 3.08.6 1.41 1.12 2.86 1.68 4.29 0 .12.11.29.2.3.61.13.66.56.54 1.1l.9-.09v-.2c-.13-1.92-.22-3.85-.4-5.76a41.54 41.54 0 00-.67-5.23c-.89-4-1.92-7.95-2.89-11.92-.13-.62-.25-1.25-.39-1.87zm43.32-6.74c.06-.29-.24-.47-.52-.71-.48-.41-.72-.43-1.11.05-.59.72-1.13 1.46-1.74 2.16-1.07 1.23-2.23 2.38-3.27 3.64-2.54 3.06-5.26 6-8 8.85-1.15 1.21-2.26 2.45-3.39 3.68a.75.75 0 00-.23.9c.17.34.49.36.83.36.34 0 .72.07 1.08.08a2 2 0 00.48-.08c.12 0 .23-.13.35-.14a1.41 1.41 0 00.94-.55c2-2.28 4-4.54 5.9-6.86a55.777 55.777 0 014.16-4.54A22.31 22.31 0 0058 27.51a6.05 6.05 0 00.88-2.78zm-35.54 10.8h-.13c-.18.42-.34.85-.54 1.26a27.38 27.38 0 00-2.37 6.48 5 5 0 00-.17 1.73c.43 2.62.64 5.27.81 7.92.07 1.11.14 2.22.21 3.36l1.59-.2c.11-.354.198-.715.26-1.08.306-1.988.506-3.99.6-6 0-3-.19-5.9-.27-8.85-.02-1.54.01-3.08.01-4.62zm-5.84 21c-.5-1.23-.86-2.53-1.39-3.73-.69-1.6-1.51-3.14-2.22-4.73a20.848 20.848 0 00-4.69-6.39c-.17-.16-.35-.31-.59-.52.023.128.053.255.09.38.64 1.79 1.22 3.6 1.93 5.36a38.08 38.08 0 005.22 9.1 1.29 1.29 0 001.55.59l.1-.06zm24.18-6.41l.18 7.66 3.5-.12-.49-7.54h-3.19zm-13.54 10h.29c4.6 0 9.19.1 13.79.08 4.6-.02 8.93-.11 13.4-.17.083.007.167.007.25 0L55.68 59h-.42c-2.1.1-4.2.26-6.31.3-3.59.07-7.19.05-10.78.09-2.44 0-4.877.053-7.31.16-.91 0-1.81.16-2.72.24v.33zm-.33-15.88h-.07c-.12.14-.24.26-.35.4-.77 1-1.55 1.91-2.31 2.88a.81.81 0 00-.18.51 35.35 35.35 0 01-.39 5.34c-.11.84-.25 1.69-.38 2.6.39-.16.78.08 1.09-.31a4.88 4.88 0 001-2.16c.46-2.38.89-4.76 1.32-7.15.07-.64.16-1.35.27-2.02v-.09zm41 13.72a3.3 3.3 0 012.2.16 1.65 1.65 0 01.93.92 2.53 2.53 0 01-1 3.15 6.2 6.2 0 01-2.54.94 1 1 0 00-.28.11c.538.058 1.08.081 1.62.07a3.17 3.17 0 002.21-.93 5.47 5.47 0 001.32-2 2.34 2.34 0 000-1.69 3.93 3.93 0 00-1.51-1.74 2.39 2.39 0 00-2.61-.23.37.37 0 00-.22.22c-.09.42-.11.73-.15 1.11l.03-.09zm-12.08-5.18v.2a2.71 2.71 0 001.62.14 8.665 8.665 0 011.56-.52 28.007 28.007 0 015.64-.2 2.57 2.57 0 011.58.53.52.52 0 00.43.08.481.481 0 00.2-.37c0-.1-.17-.24-.3-.27-.49-.15-1-.25-1.48-.39a10.002 10.002 0 00-3.36-.26 26.114 26.114 0 00-3.4.43c-.83.15-1.65.42-2.49.63zm11.52 9.16l.11.12c.61-.25 1.23-.49 1.82-.77a1.45 1.45 0 00.74-1 1.08 1.08 0 00-.3-1.09 2.16 2.16 0 00-1.89-.13s-.11.1-.12.16l-.36 2.71z" fill="#2A2B2C"/></svg>