<svg version="1.1" id="Layer_1" xmlns="http://www.w3.org/2000/svg" x="0" y="0" viewBox="0 0 80 80" xml:space="preserve"><style>.st0{fill:#2a2b2c}</style><path class="st0" d="M46.2 50.2c0 2.5.1 5 .5 7.4l8.8-.5-.5-3.7c-2.6-1.2 4.3-2.7 5.1-2.8 2.8-.2 5.9-.6 8.4.8.3.3.5.7.9.8.3.1.3.5.2.8-.2.8-.5 1.6-.5 2.4.9-.2 2-.3 2.9.3 3.7 1.9 3.2 6 .1 8.1-1.2.9-2.8.7-4.2.7 1 4.2-8.8 3.2-10.9 1.8-.2-.1-.3-.3-.3-.5-.2-1.2-.4-2.5-.6-3.7 0-.3 0-.7-.2-.9-.2-.1-.6 0-.9 0-9 .2-18.1.3-27 .1 0 1.8-.2 3.5-.3 5.3 0 .5-.4.9-.8 1-1.4.4-2.8.7-4.3.8-3 .3-5.9 1-8.9 1-.5 0-.7-.3-.8-.8l-.9-7.8c-.1-1.1-.2-2.2-.3-3.2 0-.2 0-.5.2-.7.5-.4.7 0 1.1.2.2.1 1.7-.2 1.9-.2-3-3.8-5.2-8.2-6.7-12.8-.2-1.5-1.2-2.9-1-4.4 1-1.9 5.5 4.3 6.3 5.1-.3-2.8-.4-5.4-.5-8.2.1-2.9 1.3-5.6 2.1-8.4.1-.3.4-.5.7-.4.3 0 .6.3.6.6.6 4.7 2 9.3 3.1 13.9l1.2-3.7c.6-1.2 1.1-2.5 1-3.9-.1-2.2 0-4.4-.1-6.7 0-1.9-.1-3.7-.4-5.5-.1-.5.2-1.1.6-1.4 3.1-2.3 7.2-2 10.8-2.4 4.7-.3 9.5-.5 14.2-.7 4-.2 7.9-.4 11.8-.7 1 .1 2-.3 3-.1 1 .4 1.7 1.4 2 2.4 1.6 4.3.5 9 .6 13.5 0 2.6.2 5.2.5 7.8.2 1.7.4 3.3.4 5 .1 1-.4 1.9-1.2 2.5-1.7 1-3.5 1.6-5.4 1.7-4.1.2-8.2.3-12.3.1zm-21.3-3.9c.5-.5.8-1 1.2-1.5.4-.5.7-.7.4-1.2 0-6-.9-11.9-.7-17.9.1-.7 0-1.6.4-2.2.1-.1.2-.2.4-.2 11-1.7 22.2-1.4 33.4-1.3 1.5 0 .9 1.6.9 2.5 0 4.9 0 9.8-.1 14.7 0 1.6-.2 3.1-.3 4.7 0 .3-.2.6-.5.7-9.3.7-18.8.4-28.1 1-.9.1-1.8.2-2.7.4-.2 0-.4.1-.4.4-.1.7-.3 1.4-.3 2.1 5.8 0 11.5.5 17.3.3 4.2.2 8.5.2 12.9-.1 1.8-.2 4.1-.5 5.2-2 .3-1.4 0-2.8-.1-4.2-.5-3.2-.7-6.4-.7-9.6-.2-4.6 1.1-9.4-.9-13.7-.6-1.5-2.5-.5-3.7-.6-4.2.3-10.5.7-14.7.9-5.4.2-10.9.4-16.3 1-1.6.1-3.2.6-4.6 1.5-.6.4-.5.4-.3 1 .2.4-.1.7-.2 1.1.1 3.1.5 6.3.4 9.5.3-.5.4-1.1.8-1.4 1.1-.4.9.8.9 1.5-.1 4.1.1 8.4.4 12.6zm31.4 7.4c.4 3.6.9 7.2 1.5 10.8.2 1.2 0 1.1 1.3 1.4 1.7.4 6.9 1 7.6-.9 0-.3-.1-.5 0-.8.6-3.3.9-6.8 1.4-10.1-2.9.3-5.7.2-8.6.1-1.1.1-2.2-.1-3.2-.5zM28 50c-.4 2-.5 4.1-1.4 5.9l.6.1c1.3.1 1 1.4 1 2.3l12.5-.5-.2-7.7c-4.2.1-8.4-.5-12.5-.1zm5.4-5.8c.8 0 1.7-.3 2.5-.4 1-.7 1.6-1.9 2.5-2.8 4.5-5.8 10.2-11.1 15.6-16.2.4-.3.3-.8.1-1.2 0-.2-.1-.3-.2-.4-.6-.4-1.3-.1-2-.2h-1.4c-1.1.4-1.7 1.6-2.5 2.4-1.9 2.7-4.7 4.8-6.9 7.2-3.5 3.3-6 7.4-9.3 10.8-.7.6-.2 1.4.7 1.1 0-.1.9-.3.9-.3zM15.6 31.5c-2.3 5.2-.8 10.9-.5 16.3 1.6 2.8 2.3 5.4 3.4 7.7.6.1.7.6.5 1.1l.9-.1c-.2-3.7-.4-7.5-1.1-11.2-1-4.7-2.3-9.2-3.2-13.8zm43.3-6.8c.1-.3-.2-.5-.5-.7-.5-.4-.7-.4-1.1 0-4.2 5-8.5 9.9-13 14.7-1.2 1.2-2.3 2.4-3.4 3.7-.6.5-.2 1.4.6 1.3.5 0 1.1.2 1.6 0 .1 0 .2-.1.4-.1s.4-.1.5-.2c3.7-3.7 6.7-8.1 10.5-11.8 1.8-1.9 4.2-4 4.4-6.9zM23.3 35.5h-.1c-1.1 2.5-2.4 5-2.9 7.7-.2.6-.2 1.1-.2 1.7.6 3.7.8 7.5 1 11.3l1.6-.2c1.7-6.7.4-13.6.6-20.5zm-5.8 21c-2.1-5.5-4.2-11.4-8.9-15.4 1.6 5.3 3.8 10.5 7.2 14.8.3.7 1.1 1 1.7.6zm24.2-6.4l.2 7.7 3.5-.1-.5-7.5h-3.2zm-13.6 10c9.2.1 18.6.1 27.7-.1l-.2-1c-9.2.7-18.4 0-27.5.8v.3zm-.3-15.9c-1 1.1-1.8 2.2-2.7 3.3-.1.1-.2.3-.2.5 0 2.7-.4 5.3-.8 7.9.4-.2.8.1 1.1-.3.5-.6.9-1.4 1-2.2.6-3 1.2-6 1.6-9.2zm41 13.8c1.9-.6 3.9.7 3.2 2.8-.5 1.7-2.4 2-3.9 2.4 1.3.1 2.8.2 3.8-.9.9-.9 1.8-2.3 1.3-3.7-.7-1.5-2.5-2.9-4.1-2-.4.4-.2 1.1-.3 1.4zm-12.1-5.2v.2c1.1.5 2.1-.1 3.2-.4 1.9-.3 3.8-.3 5.6-.2.6 0 1.1.2 1.6.5.2.1.5.2.6-.1.1-.2 0-.4-.2-.5-3.5-1.1-7.3-.5-10.8.5zm11.5 9.1l.1.1c1.1-.5 2.9-.8 2.6-2.4-.2-.9-1.5-.9-2.2-.6 0 0-.1.1-.1.2l-.4 2.7z"/></svg>