<svg width="80" height="80" fill="none" xmlns="http://www.w3.org/2000/svg"><path d="M37.05 70.87c-.69 0-1.39.11-2.09.14-1.85.08-3.7.2-5.55.2-2.13 0-4.26-.14-6.39-.18H15.3c-1 0-2 .11-3 .12a12.1 12.1 0 01-4.22-.61 5.855 5.855 0 01-.8-.38 1.87 1.87 0 01-.89-2.5c.23-.63.64-1.18 1.18-1.58a13.56 13.56 0 011.18-.8c.41-.23.86-.4 1.3-.61l-.13-.12a3.55 3.55 0 01-1.14-1.38 2.69 2.69 0 01.56-3 4.74 4.74 0 012.25-1.42c1.1-.36 2.252-.546 3.41-.55 1-.058 2-.058 3 0 .84.096 1.675.236 2.5.42l.27.06c-.1-.18-.18-.31-.25-.46a2.54 2.54 0 01-.19-1.91A3.52 3.52 0 0122.3 54a7.581 7.581 0 012.9-.77c.405.004.81.037 1.21.1l2.87.33a7.85 7.85 0 012.8.81l.24.11c0-.35 0-.69.08-1a3.51 3.51 0 011.91-2.44 5 5 0 014.36-.1c.7.236 1.33.645 1.83 1.19a2.39 2.39 0 01.84 2.13c.27-.13.51-.24.74-.38a.351.351 0 00.13-.26c0-.77.07-1.54 0-2.32 0-1.94.13-3.88.23-5.82l.3-5.52c0-.37.05-.73.07-1a4.16 4.16 0 01-2 1.25 3.67 3.67 0 01-2.27-.13A9.21 9.21 0 0136.29 39a4.21 4.21 0 01-1.89-3.16 8.932 8.932 0 01.06-2.58c0-.16 0-.32.06-.5a3.46 3.46 0 01-1.78-.07 3.16 3.16 0 01-1.37-.87A6 6 0 0130 29.61a5 5 0 01.55-4 8.45 8.45 0 012.35-2.74.503.503 0 00-.11-.1 3.5 3.5 0 01-1.84-3A3.23 3.23 0 0132 17.11a6.052 6.052 0 011.18-1 11.34 11.34 0 013.48-1.73 5 5 0 012.61 0c.23.06.46.08.73.13v-.3a4.71 4.71 0 01.39-2.29A2.29 2.29 0 0141 11a5.36 5.36 0 013.8-1.42 4.17 4.17 0 012.2.82c.396.27.703.654.88 1.1l.33-.18a6.83 6.83 0 013.18-.81 3.68 3.68 0 013.24 1.71 4.53 4.53 0 01.92 2.2 2.84 2.84 0 012.91 1 4.82 4.82 0 011.33 4.44c-.14.78-.41 1.54-.62 2.31v.12c.306.035.608.102.9.2.307.12.588.297.83.52a4.12 4.12 0 011.32 2.53 5.17 5.17 0 01-2.36 4.77l-.19.13c.2.24.4.47.57.72a2.701 2.701 0 01.14 2.24 5.13 5.13 0 01-4.64 3.86c-.88.08-1.77.1-2.64.15-.08.32-.16.7-.28 1.06a2.59 2.59 0 01-1.62 1.73.35.35 0 00-.26.32c-.1 1.18-.21 2.35-.29 3.52-.16 2.32-.08 4.64 0 7 .005.505-.025 1.01-.09 1.51a35.75 35.75 0 00-.09 4.39c0 1 0 2 .06 3.08v.44c.44.32.91.65 1.36 1a6.06 6.06 0 011.27 1.53 2.36 2.36 0 010 2.53l-.11.2 1.71.47a2.681 2.681 0 012 1.88c0 .16.07.32.11.5h.94l5.26.22c.29 0 .58.07.86.08a.38.38 0 00.26-.1 4.24 4.24 0 011.51-1.28c.07 0 .11-.17.1-.26-.06-.86-.14-1.72-.2-2.58-.09-1.36-.11-2.73-.25-4.09-.17-1.65 0-3.31-.1-5s-.13-3.5-.17-5.25v-2.08h-1.07c-.75-.09-1.49-.2-2.23-.35a.92.92 0 01-.83-.78 1.3 1.3 0 01.53-1.28 3.29 3.29 0 011.61-.48 14 14 0 013.42.2c.45.09.91.19 1.36.32a1 1 0 01.83 1c.155.879.175 1.775.06 2.66-.08.43-.2.87-.32 1.3a.55.55 0 01-.59.45 1.553 1.553 0 00-.22 0v1c.09 2.3.14 4.6.3 6.89.16 2.29.41 4.6.63 6.9 0 .42.12.84.18 1.26a.49.49 0 01-.19.55c.07.16.24.06.32.2.18.184.38.346.6.48a3 3 0 011 1.89c.01.123.01.247 0 .37-.34 2.24-1.38 3.84-3.87 4.24a2.72 2.72 0 01-2.26-.67 3.45 3.45 0 01-1.16-1.84.29.29 0 00-.17-.19 4.492 4.492 0 00-.87-.18c-2.27-.1-4.55-.19-6.82-.26-1.95-.06-3.91 0-5.86-.11-1.16 0-2.31-.13-3.47-.21h-.37A1.5 1.5 0 0145.8 73a1.45 1.45 0 01-.22.45 4.1 4.1 0 01-5 1.4 3.17 3.17 0 01-2.11-2.17 2.31 2.31 0 01.09-1.59l-1.51-.22zm-1.78-36.78h-.1c0 .48 0 1 .05 1.45a3.42 3.42 0 001.56 2.73c.832.522 1.75.894 2.71 1.1a2.52 2.52 0 003-1.76.94.94 0 010-.13.52.52 0 01.88-.2c.224.227.435.468.63.72.26.31.5.65.78.93.224.247.492.45.79.6a4.33 4.33 0 002.12.41c.776-.04 1.548-.137 2.31-.29a5.391 5.391 0 001.42-.56 1.86 1.86 0 00.73-1.16A1.161 1.161 0 0052 37a.44.44 0 01.47-.65.819.819 0 01.22 0 9.44 9.44 0 003 0 4.33 4.33 0 003.89-3.46 1.58 1.58 0 00-1-2 .45.45 0 01-.06-.83c.23-.16.49-.27.72-.43a4.31 4.31 0 002.06-4.07 3 3 0 00-.69-1.56 1.57 1.57 0 00-2.15-.6.41.41 0 01-.61-.35.39.39 0 01.09-.25 6.41 6.41 0 00.9-2.18 5.2 5.2 0 000-2.95 3.43 3.43 0 00-2.15-2.38 1.101 1.101 0 00-.87 0 2.23 2.23 0 00-.93.87.44.44 0 01-.61.18.45.45 0 01-.18-.61c.078-.16.172-.31.28-.45a1.45 1.45 0 00.13-1.58c-.23-.457-.5-.893-.81-1.3a2.58 2.58 0 00-2.16-1 7.45 7.45 0 00-1.34.14 6.15 6.15 0 00-2.41 1.1c-.25.18-.48.18-.64 0a.43.43 0 010-.59c.21-.27.21-.41 0-.64a3.78 3.78 0 00-2.61-1 4.89 4.89 0 00-2.5.85 2.281 2.281 0 00-1.06 1.58 4 4 0 000 1.79c.11.52-.14.79-.66.74a7.328 7.328 0 01-1.06-.18 4.44 4.44 0 00-2.79.15 10.802 10.802 0 00-3.38 2c-.35.324-.661.686-.93 1.08a1.76 1.76 0 00-.33 1.18 2.88 2.88 0 001.66 2.63c.81.38.84.78.12 1.28A7.44 7.44 0 0031.33 26a4.17 4.17 0 00-.5 3.39 5 5 0 001.41 2.11c.134.117.286.212.45.28a2.65 2.65 0 001.9.12c.61-.17.86.05.82.69l-.14 1.5zm20.66 34.42A1.589 1.589 0 0055 67.2c-.59-.24-1.21-.4-1.82-.58-.3-.09-.62-.13-.91-.23a.53.53 0 01-.23-.91c.095-.103.182-.213.26-.33a1.51 1.51 0 00.09-1.68 5.49 5.49 0 00-1.56-1.76 10 10 0 00-3.46-1.53c-.62-.16-1.27-.25-1.9-.4-.63-.15-.82-.52-.46-1.13.169-.264.323-.538.46-.82a2.18 2.18 0 00-.27-2.42 2.6 2.6 0 00-3.54-.14.42.42 0 01-.54.08.4.4 0 01-.2-.48v-.19c-.19-.14-.13-.32-.11-.49a1.17 1.17 0 00-.27-.9 4.64 4.64 0 00-2.89-1.79 3.87 3.87 0 00-3 .36 2.65 2.65 0 00-1.45 2.47c0 .25.05.5.05.76a.5.5 0 01-.75.51c-.16-.07-.31-.16-.46-.23A6.421 6.421 0 0030 54.6c-1.43-.2-2.85-.4-4.28-.53a5.64 5.64 0 00-3.3.83 2.3 2.3 0 00-.75 3.44c.189.252.356.52.5.8a.62.62 0 010 .5.83.83 0 01-.47.17c-.08 0-.17 0-.26-.05-1-.23-2-.51-3.08-.67a15.937 15.937 0 00-4.14 0 8.6 8.6 0 00-3.32.93 3 3 0 00-1.38 1.6 1.29 1.29 0 000 1c.122.28.276.546.46.79.361.43.816.772 1.33 1 .22.12.43.26.37.55-.06.29-.25.36-.5.41A6.66 6.66 0 007.87 67a2.39 2.39 0 00-.76 1.27.89.89 0 00.44 1.11c.27.173.56.317.86.43a11.48 11.48 0 003.94.54c.82 0 1.63-.09 2.45-.11h3.7c1.23 0 2.46-.07 3.69 0 1.91 0 3.81.17 5.72.19 1.72 0 3.44 0 5.15-.08 1.24 0 2.48-.18 3.72-.21a1 1 0 001-.61 1.83 1.83 0 01.26-.38 2.72 2.72 0 012.41-1.18c1.73.05 3.47.11 5.2.25 3.07.23 6.14.35 9.22.39l1.06-.1zm-.23.87c-2.4-.07-4.8-.1-7.2-.2-2.07-.09-4.14-.28-6.22-.39h-2.43a.55.55 0 00-.26.06 3.44 3.44 0 00-1.28 1.41l3.89.29c2.58.16 5.15.35 7.73.45 2.35.1 4.7.08 7 .15 2.07.06 4.13.12 6.21.31 0-.27.09-.58.16-.88.07-.3.15-.61.23-.93l-1.23-.09-5.3-.17-1.3-.01zm12.19-1.87a150.874 150.874 0 01-1.09-16c-.26.05-.47.07-.68.13a.29.29 0 00-.15.19v2.05c0 .88.1 1.76.11 2.64 0 .65-.06 1.3 0 1.94.113 2.067.24 4.13.38 6.19.06.88.16 1.77.24 2.67l1.19.19z" fill="#2A2B2C"/><path d="M37.51 21.65a1.28 1.28 0 01.87-1.19.34.34 0 00.18-.11.76.76 0 011.21-.12 1.41 1.41 0 01.37 1.55c-.125.31-.282.604-.47.88a1 1 0 01-1.2.45 1.22 1.22 0 01-.93-1c-.02-.11-.02-.31-.03-.46zm2.15 4.66a1.73 1.73 0 01-1.11 1.48A1.1 1.1 0 0137 26.68c.01-.59.25-1.154.67-1.57a.72.72 0 011.1-.05c.066.055.14.099.22.13a1 1 0 01.67 1.12zm.74-1.91c.006-.098.023-.195.05-.29a.88.88 0 01.66-.71 1.1 1.1 0 011 .32.752.752 0 00.18.13A1.18 1.18 0 0143 25.2a1.38 1.38 0 01-1.08 1.15 1.21 1.21 0 01-1.31-.82c-.12-.36-.17-.75-.26-1.12l.05-.01zm12.02.98a.63.63 0 01.86.42 1.63 1.63 0 01-1.21 2.06 1.32 1.32 0 01-1.39-1.45 1.93 1.93 0 01.71-1.29c.37-.32.73-.22 1.03.26zm1.74 2.1a2.11 2.11 0 011.26-1.68c.196-.068.402-.102.61-.1a.49.49 0 01.28.18c.12.14.22.31.33.46a.86.86 0 01.1 1 2.41 2.41 0 01-1.49 1.16c-.65.22-1.14-.24-1.09-1.02zm-.5-3.05c-.76-.07-1.38-.69-1.25-1.29a2 2 0 011.16-1.49.83.83 0 01.89.13c.06 0 .15.15.13.21-.06.23.1.37.18.54a1.21 1.21 0 01-.12 1.36 1.05 1.05 0 01-.99.54zM38.4 61.57a1.83 1.83 0 01-1.1-.57.86.86 0 01-.19-.9c.11-.447.38-.839.76-1.1a1 1 0 011.49.41c.174.351.286.73.33 1.12.07.7-.44 1.12-1.29 1.04zm-4.17-1.33c-.69-.06-1.31-.63-1.26-1.17A1.19 1.19 0 0134.13 58c.92.09 1.34.49 1.28 1.24a1.11 1.11 0 01-1.18 1zm3.92-3.36a.89.89 0 01-1.32.79 2.61 2.61 0 01-.73-.54 1.16 1.16 0 01.35-1.71.881.881 0 01.83.08c.72.4.9.7.87 1.38zM19.77 68.21a1.62 1.62 0 01-.5.88c-.19.2-.44.13-.66 0-.22-.13-.39-.27-.58-.42a.74.74 0 01-.25-.91 3 3 0 01.32-.55.41.41 0 01.55-.12.21.21 0 00.11 0 .998.998 0 011.01 1.12zM21.94 70a3.413 3.413 0 01-.63-.24.522.522 0 01-.24-.7c.18-.41.35-.82.88-.91a1 1 0 011.23.72.64.64 0 01-.21.71 1.86 1.86 0 01-1.03.42zm-3.11.37a.89.89 0 01-1.16.92c-.56-.14-.87-.46-.85-.9a.8.8 0 011-.82h.26c.53.05.75.28.75.8z" fill="#2A2B2C"/></svg>