<svg version="1.1" id="Layer_1" xmlns="http://www.w3.org/2000/svg" x="0" y="0" viewBox="0 0 80 80" xml:space="preserve"><style>.st0{fill:#2a2b2c}</style><path class="st0" d="M37 70.9c-7.2.6-14.5 0-21.8.2-2.9.1-6.2.6-8.6-1.3-1.7-2.3 1.5-4.3 3.4-5.1-1.5-1-2.1-3.2-.7-4.5 1.4-1.6 3.7-1.9 5.7-2 1.9-.1 3.9 0 5.8.5-1.9-3 1.6-5.4 4.4-5.4 2.3.2 5.3.3 7.1 1.3-.2-3.3 3.7-4.8 6.4-3.5 1.4.5 2.9 1.7 2.7 3.3.3-.2.8-.2.9-.6 0-2.7 0-5.4.2-8.1 0-.7.3-6 .4-6.5-2.2 2.6-6.2 1-7.8-1.4-.9-1.5-.7-3.3-.5-4.9-2.1.5-3.9-1.3-4.5-3.2-.8-2.6.9-5.2 2.9-6.7-2.1-1.1-2.7-4.2-.9-5.8 2.1-2 5.1-3.5 8-2.6-.1-1.2.1-2.6 1-3.5 1.8-1.8 5.6-2.1 6.9.5 3.2-1.9 7-1.1 7.7 2.9 2-.5 3.6 1.3 4.1 3 .6 1.6-.2 3.2-.5 4.8 4.2.6 3.7 6.4.5 8.1 1.7 1.6.6 4.3-1 5.6-1.5 1.4-3.7 1.2-5.6 1.3-.2.7-.3 1.6-.9 2.1-.3.3-.6.5-1 .7-.1 0-.3.2-.3.3-.4 3.5-.5 7-.3 10.5-.2 3.2-.2 6.2-.1 9.4 1.7 1.1 4 3.1 2.5 5.3l1.7.5c1.2.2 2 1.2 2.1 2.4 1.3 0 5.8.2 7.1.3.1 0 .2 0 .3-.1.4-.5.9-1 1.5-1.3.1 0 .1-.2.1-.3-.2-2.2-.3-4.4-.4-6.7-.1-4.1-.3-8.2-.3-12.3-1.3 0-2.7 0-3.9-.6-.5-.5-.3-1.4.3-1.8 2-1 4.4-.4 6.4 0 .5.1.8.5.8 1 .2.9.2 1.8.1 2.7-.2.7-.1 1.9-1.1 1.8 0 5 .4 9.9.9 14.8-.1.6.5 1.4 0 1.8.9.6 1.8 1.3 1.9 2.6-.1 2.4-1.3 4.2-3.9 4.6-1.6.3-3.1-1-3.4-2.5-.2-.3-.7-.3-1-.4-2.3-.1-4.6-.2-6.8-.3-3.2 0-6.5-.1-9.7-.3 1 1.5-.9 3.1-2.3 3.5-2.3.8-5.8-1.3-4.8-4l-1.7-.1zm-1.7-36.8h-.1c-.1 1.6.2 3.3 1.6 4.2 2.1 1.3 5 2 5.9-1 .6-.5 1 .4 1.4.7.8 1.3 2.2 2.1 3.7 1.9 1.7-.1 5.3-.5 4.3-2.9-.2-.5.3-.7.7-.6 2.7.5 6.3-.3 6.9-3.5.2-.6 0-1.3-.5-1.7-.2-.2-.5-.2-.8-.5-.4-.6.5-.8.9-1.1 1.8-1.1 2.8-3.9 1.4-5.6-.3-.6-.9-.9-1.6-.8-.3 0-.6.3-.9.2-.3 0-.4-.4-.2-.6.9-1.5 1.4-3.4.9-5.1-.4-1.7-2.8-3.6-4-1.5-.3.5-1.1.1-.8-.4.4-.6.8-1.3.4-2-.6-1.2-1.5-2.4-3-2.3-1.3 0-2.7.4-3.7 1.2-.3.2-.5.2-.6 0-.2-.2-.2-.4 0-.6.2-.3.2-.4 0-.6-1.4-1.3-3.6-1.2-5.1-.1-1.1.7-1.3 2.2-1.1 3.4.1.5-.1.8-.7.7-1.3-.2-2.6-.6-3.8 0-2.2.9-5.9 3-4.2 5.8.4 1 2.9 1.3 1.3 2.4-1.8 1.3-3.5 3.6-2.8 5.9.5 1.6 2 3.1 3.8 2.5.6-.2.9.1.8.7l-.1 1.3zm20.6 34.4c-.2-1.7-2.4-1.7-3.7-2.1-.2 0-.3-.2-.4-.4-.1-.4.3-.6.4-.9.9-1.3-.5-2.7-1.5-3.4-1.6-1.2-3.5-1.6-5.4-1.9-.6-.2-.8-.5-.5-1.1 1.3-1.6.7-3.9-1.6-4-.7 0-1.3.2-1.8.6-.2.2-.6.2-.7-.1-.1-.1 0-.3 0-.5-.3-.3 0-.6-.2-1-1.6-3.4-8.3-3.2-7.5 1.4.1.3-.2.6-.5.6s-.5-.2-.7-.3c-1.9-1.1-4.2-1-6.3-1.3-1.2-.1-2.3.2-3.3.8-.9.5-1.4 1.6-1.2 2.5.1.7.9 1.2 1 2 0 .4-.5.5-.8.4-2.3-.6-4.8-1-7.2-.7-3.2.1-7.2 3-2.9 5.3.2.1.4.3.4.5-.1.3-.2.4-.5.4-1.7.4-4.3 1.5-4.1 3.5.2.5.8.7 1.3.9 3.3 1 6.7.2 10.1.4 6.1-.1 12.2.5 18.3-.1.7.1.9-.5 1.3-1 .5-.8 1.5-1.2 2.4-1.2 5.3.2 10.5 1 15.6.7zm-.2.9c-4.5-.1-8.9-.3-13.4-.6-.9 0-1.8-.1-2.7.1-.6.3-1 .8-1.3 1.4 8.2.8 16.6.7 24.8 1.2 0-.6.3-1.2.4-1.8-1.7-.2-6.1-.3-7.8-.3zm12.2-1.9c-.6-5.3-1-10.7-1.1-16-.3.1-.6 0-.8.2-.1.7 0 1.5-.1 2.2.1 4.5.3 9 .7 13.4l1.3.2z"/><path class="st0" d="M37.5 21.6c0-.7.5-1.1 1.1-1.3.5-.8 1.5-.1 1.6.6.1.8-.3 1.8-1 2.2-1 .3-1.8-.5-1.7-1.5zm2.2 4.7c0 1.6-2.6 2.3-2.7.4 0-.8.6-2.1 1.5-1.8.6.4 1.3.6 1.2 1.4zm.7-1.9c0-.7.6-1.2 1.3-1 .3.1.4.3.6.4.3.1.5.3.6.5.4.8-.1 1.8-1 2-1.1.2-1.4-1-1.5-1.9zm12 1c1-.3 1.1 1.1.7 1.7-.7 1.3-2.6.8-2.4-.7 0-.8 1-2.2 1.7-1zm1.8 2.1c.1-1.1 1.8-2.6 2.5-1.1 1 1.3-2.6 3.4-2.5 1.1zm-.5-3.1c-.8-.1-1.4-.7-1.2-1.3.1-.9 1.2-2 2.1-1.4.1 0 .1.2.1.2-.1.2.1.4.2.5.3.9-.3 2.1-1.2 2zM38.4 61.6c-.6-.1-1.2-.4-1.3-1-.1-.8.7-2 1.6-1.7.7.2.9 1 1 1.7.1.6-.5 1.1-1.3 1zm-4.2-1.4c-1.6-.2-1.6-2.1-.1-2.2 1.8 0 1.7 2.3.1 2.2zm4-3.3c-.1 1.5-2 .9-2.3-.2-.2-.8.6-1.7 1.4-1.2.7.4.9.7.9 1.4zM19.8 68.2c-.1.5-.6 1.3-1.2.9-.5-.3-1.1-.7-.8-1.3.1-.3.3-.6.6-.7h.3c.2 0 .4 0 .5.1.4.1.6.6.6 1zm2.1 1.8c-.4-.1-1-.2-.9-.7.1-.5.4-1 .9-1.1.6-.2 1.4.4 1.2 1.1-.1.4-.7.6-1.2.7zm-3.1.4c.1 1.6-2.5 1-1.9-.3.1-.4.6-.6.9-.5.6-.1 1.1.1 1 .8z"/></svg>