<svg version="1.1" id="Layer_1" xmlns="http://www.w3.org/2000/svg" x="0" y="0" viewBox="0 0 80 80" xml:space="preserve"><style>.st0{fill:#2a2b2c}</style><path class="st0" d="M14.7 37.1c-2.6-5.3-1.6-11.9 3.4-15.3 1.5-1.2 3.1-2.5 5.1-2.5 2.7 0 5.6 0 8.1 1.3l2.1 1c1.6.8 2.9 2.1 4.2 3.4 1.2-2.3 3.5-4 5.1-6 2.1-1.9 5-2.6 7.8-2.4 3.6.1 8 .9 10.1 4.1 2.4 4 2.9 8.8 2.1 13.4 2-2.6 5.9-3.6 8.7-1.7 2.6 1.7 3.2 5.1 3 8-.5 5.8-4 10.7-7.8 14.8C63 59 59.3 63.1 54.7 66c-2.2 1.4-4.6 2.7-7 3.7-4.7 2-10 3.7-15.1 2.2-4.6-1.5-9-4.9-12.8-7.7-.6-.3-1.3-.6-2-.3-2.2.8-4.4 1.8-6.6 2.5-.4.1-.7-.5-.9-.9-.5-1.3-1-2.6-1.3-4-1.4-6.3-3.1-12.4-3-18.8 2.2-2.5 5.4-4.9 8.7-5.6zm-6 4.9c-.6.5-.9 1.3-.8 2 .1 1.2.1 2.4.3 3.6.6 5.5 2.1 10.8 3.5 16.1.2.7.6.8 1.3.6 1.8-.7 2.6-1.3 4.3-2 .9-.2 1.9-.1 2.8.2 9.4 6.2 14.8 12.2 26.7 6.3 7.6-2.9 13.3-8.7 18.7-14.6 3.6-3.8 6.8-8.4 7.2-13.7.2-2.6-.3-5.7-2.6-7.2-1.2-.8-1.3-.7-2.7-.4-2.7.5-4.5 2.7-5.3 5.2-2 5-4.5 10.4-9.2 13.4-.1.1 0 .1 0 .1l.1.1c3 2.7 1.9 6.7-.3 9.4-3 3.9-8.4 5.1-13.1 5-4.4-.3-8.6-2-11.9-4.9-.4-.3-.7-.8-.8-1.4 0-.5.1-1.5.7-1.1.3.4.2.9.7 1.2 3 2.5 6.7 4.4 10.7 4.6 3.6 0 7.3-.6 10.4-2.5 2.6-1.9 4.7-5.7 2.9-8.8-.3-.5-.1-.4-.7-.9-2.2 1.7-5.1 3.4-7.4 5-1.6 1.1-3 2.2-4.6 3.2-.2.1-.3 0-.4-.2-.1-.2-.4-.2-.5-.3-3.1-2.1-6.1-4.5-9.4-6.3C24 50 18.9 45.6 15.8 39.9c-.4-.8-.3-1.8-1.2-1.5-.2.2-5.9 3.6-5.9 3.6zm44.1 7c1.4-1.1 2.7-2.3 3.7-3.8-.2-.7-.1-1.4 0-2.1 0-.5.2-.5.5-.5.6.1.3 1 .3 1.4h.1l1.5-2.5c-.5 0-.5-.4-.6-.7-.6-2.1-3.2-2-5-1.7-5.1 1.1-4 8-3.2 11.9l2.1-1.5c-.4-1.8-.4-3.5-.5-5.4 0-.1.1-.2.2-.3.1.1.2.2.2.3.2 1.7.4 3.1.7 4.9zm-24.6 1.9l-.2-2c0-.6-.4-1.5 0-1.9.6 1 .7 3.2 1 4.5l1.9 1.2c0-5 0-14.3-7.6-10.7-1.6.6-2.9 2.7-1.1 3.9 2 1.7 4 3.4 6 5zm25-23.5c-2.2.3-4.6 2.4-4.2 4.7.2 1.1.6 2.4 1.7 2.9.9.3 1.9.8 2.8.7 1.5-.2 3.1-1 3.4-2.6.6-2.4-1-5.6-3.7-5.7zm-12.1 9.2l-1.3-.1c-1.3-.1-2.5.8-2.9 2-1.2 2.6.2 5 2.9 5.6 2.8 1 4.4-2.6 3.8-4.9-.1-.3-.2-.6-.4-.9-.5-.5-.6-1-1.3-1.2-.2-.2-.5-.4-.8-.5zm-11.3-1.9c0-1.1-.7-2.2-1.1-3.2-.3-.7-1.1-.8-1.7-1.2-2.3-.3-4 2.1-4 4.3.2 1.9 2 3.5 3.9 3.3 1.4-.4 2.9-1.7 2.9-3.2zm15.5 17.6c-.3-.6-.6-1.3-1.1-1.8-.4 0-.9.1-1.3.1l-7 .3c-.2 0-.3 0-.5-.1-.4.6-.6 1.2-.7 1.8.1 0 2.3-.1 2.5-.1 2.7-.4 5.4.4 8.1-.2zm-9.8-2c2.7-.1 5.5 0 8.1-.4v-.1c-2.3-2.4-6.3-2.6-8.1.5zm6.5 2.8c-1.5-.1-3-.1-4.5 0-.1 0-.2.1-.2.2v2.2c1.7.1 3.4 0 5-.3l-.3-2.1zm.4 2.8h-5.1c0 .3-.1.6 0 .9.3.3.8.4 1.2.6.5.1.4.5.9.7.9-.6 2.5-1.4 3-2.2zm-5.9-2.8c-.6 0-1.4.1-2 0 0 .5-.1 1.1-.1 1.7.5.5 1.3.7 2 .6l.1-2.3zm6.3.1l.3 1.8c.9-.1 1.8-.5 2.5-1.1.1-.3-.1-.6-.1-.8l-2.7.1zm-6.3 3.1v-.4H36l.5.4z"/><path class="st0" d="M53.7 31.7c-.1-.7-.4-.9 0-1.5 1.4-2.1 2 4.2.4 3.1m-1.5-1c0 .6.2.9-.1 1-1.4 1-1.3-2.2-1.2-3 .7-1.7 1.3 1.4 1.3 2zm-10.4 9.2c0 .4-.3.7-.7.7-.4 0-1.1-3.5-1.1-4 0-.2 0-.4.2-.5.1-.1.3-.2.5-.2.4-.1 1.1 3.4 1.1 4zm-2.5.2c.1.8-.9.9-1.1.2-.1-.2-.1-3.4-.1-3.6.1-.4.5-.6.8-.4.3.3.4 3.6.4 3.8zm-12.8-9.3c.2-.8.7-.5.8-.2.1.4.3 2.9.3 3.3 0 .5-.8 1-1 .4m-1-3.6c-.1.3-.5 3.4-.7 3.5-.4.1-.8-.2-.9-.5-.1-.4.4-3.7.7-3.7.1 0 .5-.2.6-.1.3.1.3.1.3.8z"/></svg>