<svg width="80" height="80" viewBox="0 0 80 80" fill="none" xmlns="http://www.w3.org/2000/svg"><path d="M14.74 37.06c-.17-.47-.36-.94-.53-1.41a12.221 12.221 0 01-.84-3.91A11.61 11.61 0 0115 25a15 15 0 013.17-3.29c.68-.56 1.42-1.06 2.15-1.55a5.48 5.48 0 013-.92 27.56 27.56 0 015.74.43 9.22 9.22 0 012.35.87l2.14 1c.7.336 1.345.778 1.91 1.31.5.46 1 .9 1.54 1.36.25.23.48.48.72.74a4.35 4.35 0 011.15-1.69c1.32-1.45 2.66-2.88 4-4.32.178-.194.38-.365.6-.51a11.349 11.349 0 014.41-1.8c.91-.1 1.825-.14 2.74-.12a17.52 17.52 0 016.24 1.16 9.41 9.41 0 012.87 1.72c.398.35.735.762 1 1.22a19.999 19.999 0 012.17 5.82c.261 1.418.338 2.863.23 4.3 0 1.09-.19 2.17-.29 3.25l.23-.27a6.918 6.918 0 014.79-2.44 6.12 6.12 0 016 4.06 11.15 11.15 0 01.65 5 19.52 19.52 0 01-3.22 9 42.12 42.12 0 01-4.62 5.78 104.203 104.203 0 01-7.93 7.94 36.22 36.22 0 01-4 2.9 40.6 40.6 0 01-7 3.66 43.872 43.872 0 01-7.49 2.49 17.164 17.164 0 01-3.72.24 13.68 13.68 0 01-3.87-.57c-.93-.3-1.82-.76-2.73-1.14a26.121 26.121 0 01-5.44-3.21l-4.62-3.35a4.053 4.053 0 00-.71-.29 1.509 1.509 0 00-1.28 0c-1.33.52-2.65 1-4 1.53-.533.218-1.077.408-1.63.57-.27.07-.55.35-.84.35a.855.855 0 00-.16 0c-.4.08-.68-.48-.85-.85a22.381 22.381 0 01-1.26-4c-.71-2.89-1.49-5.76-2.12-8.67a52.18 52.18 0 01-.78-5.16c-.15-1.22-.2-2.44-.27-3.66v-1.22a.46.46 0 01.09-.23c.453-.46.934-.89 1.44-1.29 1-.83 2.07-1.64 3.16-2.38a12.37 12.37 0 014.08-1.71zM8.68 42a2.14 2.14 0 00-.79 2c.13 1.19.14 2.39.29 3.58.19 1.63.37 3.28.72 4.89.64 2.9 1.39 5.78 2.12 8.66.27 1.06.37 1.51.71 2.55.22.68.62.83 1.28.58 1.75-.65 2.55-1.31 4.29-2a5 5 0 012.83.21c.44.208.86.452 1.26.73.69.47 1.33 1 2 1.47 1.38 1 2.77 2 4.16 2.93a33.85 33.85 0 006 3c.123.047.25.08.38.1.76.13 1.5.29 2.26.36 1.566.177 3.15.123 4.7-.16 2.63-.53 3.43-1.17 5.9-2.16 2.24-.92 4.39-2.05 6.42-3.37a33.002 33.002 0 004.84-3.67c2.59-2.4 5-5 7.41-7.57a38.563 38.563 0 004-5 18.66 18.66 0 003.17-8.75 10.15 10.15 0 00-.6-4.72 5.21 5.21 0 00-2-2.5c-1.16-.77-1.26-.7-2.7-.37A7.51 7.51 0 0064 34.55 10.501 10.501 0 0062 38a47.307 47.307 0 01-3.43 7.14 17.9 17.9 0 01-5.76 6.28c-.07.06 0 .06 0 .06l.15.09c1.53 1.57 2.06 2.86 1.78 4.74a9.34 9.34 0 01-2.1 4.69 9.48 9.48 0 01-3 2.64 22.67 22.67 0 01-4.94 1.95c-1.06.17-2.128.288-3.2.35a9.837 9.837 0 01-2 .08 22.998 22.998 0 01-7-1.65 24.93 24.93 0 01-4.9-3.21 2.13 2.13 0 01-.81-1.38c-.05-.32.08-1.12.35-1.18a.46.46 0 01.53.43 1.4 1.4 0 00.56.91c.69.53 1.37 1.07 2.08 1.56a16.461 16.461 0 005.45 2.54c1.034.289 2.098.46 3.17.51a29.327 29.327 0 003.85-.28 17.055 17.055 0 003.84-1A10 10 0 0049.31 62a8.61 8.61 0 003.44-5.11 4.55 4.55 0 00.16-1.75 6.42 6.42 0 00-.67-1.93c-.27-.53-.13-.37-.74-.86-.341.325-.72.607-1.13.84L47.67 55c-1.18.78-2.38 1.55-3.55 2.36-1.43 1-2.83 2-4.24 3-.12.092-.251.17-.39.23-.2.1-.29 0-.44-.19-.15-.19-.38-.18-.55-.27a2.549 2.549 0 01-.41-.34 1.078 1.078 0 00-.2-.16c-.23-.13-.49-.23-.72-.38-.43-.28-.86-.58-1.26-.9a36.593 36.593 0 00-4.19-2.93c-.89-.52-1.8-1-2.66-1.55a52.639 52.639 0 01-9.53-8.22 24.21 24.21 0 01-4-5.61c-.43-.84-.28-1.76-1.18-1.47L8.68 42zm44.12 7a19.708 19.708 0 003.72-3.76 4.741 4.741 0 01-.15-.73c0-.47.07-.94.12-1.41.05-.47.24-.52.53-.47.29.05.4.28.36.6l-.09.77h.07l1.49-2.49c-.47 0-.51-.41-.65-.69a2.43 2.43 0 00-.83-1.21 4.1 4.1 0 00-1.76-.61c-.792-.04-1.586 0-2.37.12a4.23 4.23 0 00-3.42 3.05c-.16.78-.3 1.57-.39 2.37a11.119 11.119 0 00-.12 2.08c.08 1 .27 1.91.43 2.87.08.49.18 1 .28 1.49l2.14-1.55c0-.25-.12-.46-.14-.67-.08-.75-.16-1.5-.21-2.25-.05-.75-.08-1.64-.1-2.46 0-.09.11-.19.17-.28.06.09.17.17.18.27.19 1.22.36 2.44.54 3.66.05.36.12.77.2 1.3zm-24.56 1.87h.07l-.24-2c-.06-.54-.13-1.09-.17-1.63 0-.09.12-.2.19-.29.06.08.17.16.19.26.23 1.08.44 2.16.66 3.24.06.31.11.63.19 1L31 52.63c.004-.07.004-.14 0-.21a37 37 0 00-.43-6.31 8.33 8.33 0 00-1-3.1 3.12 3.12 0 00-1.91-1.73 5.566 5.566 0 00-1.14-.15 8.34 8.34 0 00-3.1.78 4.998 4.998 0 00-1 .61 2.43 2.43 0 00-.92 1.54 3.23 3.23 0 000 .76.48.48 0 00.09.29c.24.25.5.48.76.72 1.63 1.46 3.19 3 5 4.33l.89.71zm25-23.43a4.608 4.608 0 00-.59.09 5.77 5.77 0 00-2.9 2 3.42 3.42 0 00-.75 2.65 5 5 0 001 2.36c.172.235.403.422.67.54.598.247 1.213.45 1.84.61.326.087.665.11 1 .07A4.71 4.71 0 0056 34.69a2.53 2.53 0 00.94-1.53 5.16 5.16 0 00-.21-2.81 4.6 4.6 0 00-1.24-1.88 9.402 9.402 0 01-.81-.64 1.94 1.94 0 00-.8-.33 3.604 3.604 0 00-.69-.06h.05zm-12.1 9.12l-1.28-.13a2.92 2.92 0 00-2.88 2 12.252 12.252 0 00-.43 1.57 3.3 3.3 0 001.26 3 5 5 0 002.11 1 2.66 2.66 0 003.25-1.28 5.13 5.13 0 00.59-3.6 2 2 0 00-.45-.88c-.47-.53-.63-1-1.27-1.23a7.277 7.277 0 01-.95-.45h.05zM29.8 34.65a4.621 4.621 0 00-.15-.94c-.32-.77-.66-1.52-1-2.25-.34-.73-1.06-.85-1.65-1.19a.91.91 0 00-.47 0 3.17 3.17 0 00-2.59 1.48 4.67 4.67 0 00-.94 2.82 3.72 3.72 0 002.71 3.17 2.66 2.66 0 002.29-.36c.2-.14.39-.29.6-.42a2.82 2.82 0 001.2-2.31zm15.46 17.61a8.13 8.13 0 00-1-1.77.17.17 0 00-.14-.06c-.4 0-.8.08-1.21.1l-7 .26a3.107 3.107 0 01-.5-.09 4.48 4.48 0 00-.66 1.85c.1-.01.2-.01.3 0l2.15-.1a32.194 32.194 0 014.71 0 9.61 9.61 0 003.35-.19zm-9.74-2l.07.08h.48l1.86-.09c1.57-.07 3.14-.14 4.71-.23.32 0 .63-.1.94-.15v-.1c-.3-.24-.59-.48-.9-.7-.31-.22-.62-.43-1-.62a1.9 1.9 0 00-.68-.35 10.746 10.746 0 00-1.88-.1 4.2 4.2 0 00-2.71 1.12c-.325.35-.623.724-.89 1.12v.02zm6.48 2.8a26.55 26.55 0 00-4.55 0c-.06 0-.16.13-.16.2v2.18c1.673.144 3.358.04 5-.31L42 53.06zm.4 2.88h-5.12v.78a.36.36 0 00.14.26c.36.19.74.35 1.11.52.14.07.35.12.39.23a.759.759 0 00.51.45c.94-.64 1.88-1.29 2.8-1.94.09-.06.11-.24.16-.3h.01zm-5.9-2.86c-.34 0-.66.05-1 .05l-1-.06c0 .48-.08 1-.11 1.57a.27.27 0 000 .15 2.12 2.12 0 002 .57l.11-2.28zm6.3.11l.31 1.81c.382-.04.758-.124 1.12-.25.44-.232.862-.5 1.26-.8a.31.31 0 00.12-.22c0-.26-.1-.52-.13-.7l-2.68.16zm-6.34 3.09v-.37H36l.46.37z" fill="#2A2B2C"/><path d="M53.74 31.73c-.1-.74-.4-.95 0-1.51s.74-.58 1-.11a6.35 6.35 0 01.38 1.89c-.045.397-.112.79-.2 1.18a.531.531 0 01-.81.13m-1.52-.98c0 .56.25.87-.14 1a.35.35 0 00-.15.07.49.49 0 01-.79-.15 6.89 6.89 0 01-.26-2.89c.16-.49.45-.72.8-.33.295.735.477 1.51.54 2.3zm-10.35 9.15a.618.618 0 01-.65.67c-.42 0-1.13-3.47-1.13-4a.66.66 0 01.64-.73c.44 0 1.14 3.49 1.14 4.06zm-2.5.26c0 .38-.19.64-.46.68a.58.58 0 01-.67-.43c-.06-.2-.14-3.37-.15-3.58a.56.56 0 01.82-.39c.29.19.42 3.45.46 3.72zm-12.86-9.31c.23-.81.67-.54.77-.17.1.37.34 2.93.33 3.27a.89.89 0 01-.5.67.44.44 0 01-.55-.26M26 32.3c-.07.31-.45 3.39-.71 3.46a.77.77 0 01-.86-.52c-.1-.36.38-3.66.75-3.73.1 0 .53-.22.58-.15.24.23.24.2.24.94z" fill="#2A2B2C"/></svg>