<?xml version="1.0" encoding="utf-8"?>
<!-- Generator: Adobe Illustrator 24.3.0, SVG Export Plug-In . SVG Version: 6.00 Build 0)  -->
<svg version="1.1" id="Layer_1" xmlns="http://www.w3.org/2000/svg" xmlns:xlink="http://www.w3.org/1999/xlink" x="0px" y="0px"
	 viewBox="0 0 80 80" style="enable-background:new 0 0 80 80;" xml:space="preserve">
<style type="text/css">
	.st0{fill:#2A2B2C;}
</style>
<path class="st0" d="M23.5,44.4c-0.7-0.1-4,0.4-4.7,0.3c-1.2-0.1-0.1-1.6-0.1-2.4c0.7-2.1,1.1-4.4,2.1-6.4c0.2-0.4,0.6-0.6,1-0.5
	c1.6,0,3.3,0,4.9,0c6.3-0.4,12.6-0.6,18.9-0.7c3.5,0.2,6.9-0.6,10.4-0.3c0.9,2.8,2.1,5.1,3,7.8c0.7,2.4-1.4,2.9-3.3,2.9
	c0.3,7.5,0,14.8,0,22.3c0,0.7,0.1,1.9-0.9,1.8c-4.4-0.4-8.8,0.3-13.2,0.3c-5.7,0-11.1,0.8-16.7,0.4c-0.6-0.2-1.8-0.2-1.7-1.1
	C22.9,60.5,23.2,52.5,23.5,44.4z M54.8,45c-10.1-0.2-20-0.9-30.1-0.7c-0.4,1.8-0.9,22-0.3,24.3c3.1,0.5,6.3,0.2,9.4,0.1
	c6.9-0.2,13.8-0.6,20.7-0.7c0.4-0.6,0.2-1.4,0.2-2.1c0.2-6.9,0.2-13.7,0.2-20.6C54.8,45.2,54.8,45.2,54.8,45z"/>
<path class="st0" d="M32.8,20.9c-2.9-1.9-3.8-6.3-1.2-8.8c1.9-1.9,5.2-4.1,8-3.3c4.1,1.2,7,5.6,6.4,9.8c-0.1,0.8-0.6,1.6-1.2,2.2
	c1.6,1.5,3,3.1,3.6,5.2c0.5,2.5,0.7,5.1,0.9,7.6c-0.2,0-0.5,0.1-0.7,0.1l-6.1,0.1c-4.9-0.3-9.8,1.6-14.7,0.6
	C27.2,29.6,28.6,23.9,32.8,20.9z M38.9,22.1c2.3,0.2,5.1-1.1,5.9-3.4c0.4-1.7-0.1-3.5-0.9-5c-0.6-1.1-1.4-2.1-2.4-2.8
	c-0.2-0.2-0.5-0.4-0.8-0.3c-0.6-0.3-1.1-0.9-1.9-0.9c-0.7-0.1-1.4,0.2-2.1,0.4c0,0-1.2,0.5-1.2,0.5c-0.3,0.1-0.5,0.5-0.8,0.2
	c-1.3,1-3,2-3.4,3.6C29.9,18.9,35.1,22,38.9,22.1z M45.4,23.1c-4.3,3.1-9.8,6.7-13.5,10.6l1.6-0.2c1.6-0.4,2.8-1.9,4.2-2.8
	c0,0,8.1-5.9,8.1-5.9c0.1-0.1,0.3-0.2,0.4-0.4L45.4,23.1z M43.6,21.4c-5.1,3.8-10.6,7.3-14.9,12.1c1,0.6,2-0.1,2.7-0.8
	c2-1.8,3.9-3.7,6.1-5.3c2.2-1.6,4.9-3.6,7.1-5.2L43.6,21.4z"/>
<path class="st0" d="M39,49.4c2,0.1,4-0.2,6,0.2c0.3,0.1,0.4,0.4,0.4,0.7c0.1,3.5,0.5,7.4-2,10.2c-0.8,0.9-1.5,2.2-2.6,2.8
	c-2.5,0.5-5.2-1.2-6.5-3.3c-0.4-0.7-0.7-1.6-0.8-2.5c-0.3-2.4-0.7-4.7-0.5-7.2c0-0.6,0.5-1.1,1.1-1C34.2,49.4,39,49.4,39,49.4z"/>
<path class="st0" d="M40.8,15.5c0,0.7,0.3,2.7-0.9,1.9c-0.3-1,0-2.3-0.1-3.4c0-0.4,0.3-0.6,0.6-0.6c0.3,0,0.4,0.2,0.4,0.6
	C40.9,14.4,40.8,15,40.8,15.5L40.8,15.5z"/>
<path class="st0" d="M34.4,15.5c0-0.5-0.3-1.5,0.4-1.7c0.3,0,0.5,0.2,0.6,0.6c0.1,0.9,0.1,1.7,0.2,2.6c0,0.3-0.4,0.6-0.7,0.5
	C34.3,17.1,34.5,16.2,34.4,15.5L34.4,15.5z"/>
</svg>
