<?xml version="1.0" encoding="utf-8"?>
<!-- Generator: Adobe Illustrator 24.3.0, SVG Export Plug-In . SVG Version: 6.00 Build 0)  -->
<svg version="1.1" id="Layer_1" xmlns="http://www.w3.org/2000/svg" xmlns:xlink="http://www.w3.org/1999/xlink" x="0px" y="0px"
	 viewBox="0 0 80 80" style="enable-background:new 0 0 80 80;" xml:space="preserve">
<style type="text/css">
	.st0{fill:#2A2B2C;}
</style>
<path class="st0" d="M32,65.6c-1.3,0.1-21.1-0.9-21.1-1.2c-1.9-0.1-3.8-0.4-5.6-0.9C5,63.5,4.9,63.2,4.9,63c-0.8-2.4-0.4-5-0.4-7.5
	c0.3-3.4,0.7-7,2.4-10.1c-1.4-2.2-1.1-5.2,0.6-7.2c0,0,0.8-0.9,0.8-0.9c0.1-0.1,0.2-0.2,0.2-0.2c0-0.4,0.3-0.5,0.5-0.7
	c1.1-1,2.5-1.7,4-1.6c4.2-0.1,5.7,3.8,5.4,7.4c0,1.5-0.6,2.9-1.4,4.1c0.9,2.2,2.1,4.3,2.8,6.6c0.2-0.2,0.5-0.1,0.7-0.1
	c0.6,0,0.9-0.2,1.5-0.2c-0.1-3.5,0.7-8.7,4.7-9.7c0.1,0-0.1-0.1,0-0.2c-3.1-2.2-3-7-1.1-10c1.3-1.4,2.9-3.1,4.9-3.1
	c1.1,0.2,2.3,0,3.4,0.4c2.4,0.7,3.3,3.7,4,5.8c0.2,2.3,0.1,5.3-1.8,6.9c0,0,0.2-0.1,0.2,0c2.1,0.7,3.7,2.7,4.8,4.5
	c0.1,0.1,0.2-0.4,0.3-0.2c0.4-2.2,0.9-4.6,2.9-5.9c-1.8-3.4-0.7-8.3,2.6-10.3c1.6-0.8,2.6-1.5,4.3-1.1c0.2-0.1,0.9-0.1,1.1-0.2
	c0.2-0.1,0.6,0.2,0.8,0.2c0.4,0,0.7,0.1,1,0.2c3.2,2.5,3.5,7.5,1.3,10.7c1.9,3.4,2.5,6.9,2.3,10.8c0.5,0,1.1,0,1.7,0.1
	c0.4,0,0.4,0.2,0.5,0.5c0.5,1.4,0.9,2.8,1.5,4.2c-0.1-2.9,0.9-5.6,1.9-8.3c0.5-1.3,0.1-1.4,1-2.2c-2.8-3.4-1.5-8.8,2.1-11.2
	c2.8-1.2,5.9,0.3,7.5,2.7c1.8,2.3,2.3,6.5,0.1,8.8c-0.3,0.3-0.4,0.7-0.4,1.1c0.4,2.5,0.8,5,1.1,7.4c0.4,3,0.7,6,1.3,8.9
	c0.1,0.4,0,0.6-0.4,0.8c-3.4,1-7,0.2-10.5,0.4c0.1,0.2-18.6-0.2-19,0.3L32,65.6z M68.1,63.5c0.9,0.1,1.5-0.3,2.3-0.3
	c1.4,0.1,3.1-0.1,4.4-0.2c-0.7-5.3-1.4-10.6-1.9-15.9c-0.6,0.4-1.2,0.7-1.9,0.6c-1.9,0-3.9,0-5.3-1.4c-0.7,0.1-0.6,1-0.9,1.6
	c-0.5,1.3-1.1,2.8-1.5,4.2c-0.5,1.9-1.3,3.4-0.7,5.3c0.7,2.3,1.6,4,2.5,6.1c0.6,0.1,1.3,0.1,1.9,0c-0.1-3.8-0.5-7.9,1.4-11.3
	c0.1-0.2,0.3-0.2,0.4-0.1c0.2,0.1,0.5,0.3,0.4,0.4C67.5,55.9,68,59.9,68.1,63.5L68.1,63.5z M7.4,46.3c-2,5.2-1.9,11-1.6,16.5
	c1.7,0.7,3.6,0.7,5.4,0.6c0.7-0.6,0.7-0.9,1.2-1.6c0.1-0.1,0.1-0.2,0.1-0.4c-0.1-3.1-1-6.2-0.9-9.3c0-0.1,0.6-0.6,0.7-0.7
	c0.3,2.9,1.5,6.1,1.3,9.1l0.1,0.1c1.5-2.1,3.3-4,4.9-6c0.2-0.2,0.3-0.4,0.3-0.6c-0.4-2.4-1.8-4.6-2.8-6.8c-0.1,0,0.2-0.2,0.2-0.2
	c-1.5,1.4-3.8,1.1-5.7,0.7C10.6,47.7,7.4,46.3,7.4,46.3z M37.6,51.8c1.2,0,2.4,0,3.6,0c0.1-2-0.2-3.7-1.5-5.3
	c-1.2-1.5-2.5-2.7-4.3-3.3c-2.1,1-4.7,1.7-6.8,0.5c-0.8-0.1-1.7-0.5-2.4,0.1c-2.5,2.2-3.1,5.6-2.9,8.7l3.8-0.4c0-1,0-2,0.3-3
	c0.1-0.2,0.8-0.4,0.9-0.1c0,1-0.3,2-0.2,3c3-0.3,5.4-0.1,8.5-0.1c-0.2-0.9-0.3-1.5-0.5-2.4c0-0.2,0.1-0.4,0.3-0.5
	c0.2,0,0.6,0,0.6,0.3C37.2,50.3,37.5,51,37.6,51.8L37.6,51.8z M57,51.4c-0.1-3.2,0.1-7-2.1-9.6L54.7,42c-0.4,0.4-0.7,0.2-1.2,0.5
	c-2.6,1.3-6,1.7-8.1-0.6c-0.2-0.2-0.4-0.2-0.6,0c-1.5,1.7-2.2,4-2.6,6.2c-0.1,0.5-0.1,1.1,0.1,1.6c0.1,0.4-0.3,0.9-0.1,1.4
	c-0.1,0.3-0.1,0.6,0,0.9h2.3c0-1.4,0.1-3.9,0.2-5.3c0-0.3,0.3-0.5,0.6-0.4c0.2,0,0.2,0.2,0.2,0.6c0,1-0.2,4.1-0.2,5.1
	c0.8,0,1.7,0,2.5-0.2c1.6-0.4,3.3,0,5-0.1c0-0.9-0.1-4.1-0.1-5C52.6,46.2,53,46,53.4,46c0.2,0,0.4,0.4,0.3,0.6c0,0.9,0.2,4,0.1,4.9
	C55.1,51.4,55.8,51.4,57,51.4z M31.2,43.2c1.8,0.1,3.9-0.6,4.8-2.3c0.7-1.5,0.9-2.2,0.7-3.3c0-0.1-0.1-1.2-0.1-1.2
	c-0.4-2-1-5-3.4-5.5c-1.7-0.3-3.6-0.8-5,0.5c-2.8,2-3.9,6.4-1.9,9.3C27.5,42.2,29.4,43.1,31.2,43.2z M52.2,30.7
	c-2.2-0.1-2.2-0.2-4.3,0.9c-1.7,0.6-2.4,2.5-2.9,4.1c-0.6,3.3,0.4,4.3,2,5.9c0.6,0.2,1.2,0.4,1.8,0.6c0.5,0.1,1.2-0.1,1.6,0
	c0.2,0,1.5-0.5,2.2-0.8c0.8-0.2,1.5-0.6,2.1-1.2c2.5-2.6,1.9-7.2-0.8-9.4C53.9,30.9,52.2,30.7,52.2,30.7z M12,36
	c-3,1-5.2,4.7-4.6,7.8c0.5,1.5,1.3,1.8,2.7,2.4c1.1,0.5,2.3,0.7,3.4,0.6c2.2-0.5,4-2.5,3.8-4.8c0.1-2.1,0.5-2.6-0.7-4.3
	c-0.4-0.6-1-1.4-1.6-1.5c-0.5-0.1-0.8-0.5-1.3-0.6C13.3,35.6,12.4,35.9,12,36z M69.1,35c-2.7-0.2-4.3,2.7-4.8,4.9
	c-0.3,1.4-0.1,2.9,0.5,4.2c0.5,1.1,1.6,1.7,2.6,2.3c1.6,0.3,3.3,0.4,4.8,0c3.1-1.3,3.2-5.7,1.5-8.1c-0.9-0.8-1.4-2-2.6-2.4
	c-0.3,0-0.4-0.4-0.7-0.4C69.9,35.3,69.5,35.2,69.1,35z M45.1,55.2c-0.2,2.2,1.3,4.3,1.5,6.5c0,0,0,0,0.1,0.1
	c1.4-0.3,2.9-0.5,4.3-0.1c1.3,0.5,2.8,0.2,3.8-0.7c0.4-0.3,0.9,0,1.3-0.4c0.1-0.1,0.2,0,0.7,0l-2.4-5.9c-1,0.4-2.2-0.1-3.1,0.4
	c-0.5,0.5-1.2,0.8-1.9,0.8C47.7,56.3,46.6,54.8,45.1,55.2z M34.7,54.5c-1.3,0.1-4.1,0.4-5.5,0.5c-0.4,0-0.9,0.1-1.3,0.2
	c-0.8,0.7-1.1,2-1.8,2.9c-0.5,0.9-1.1,1.8-1.6,2.6c2.4,0.2,5,0.4,7.4,0.1C33.1,58.9,33.9,56.6,34.7,54.5L34.7,54.5z M23.1,56
	c-1.3,0.5-2.6,1.5-3.8,2.3c-0.4,0.3-0.1,1,0.3,1.1l3.9-2.4L23.1,56z M41.9,56l-3.5,2.6c0.3,0.6,1,0.9,1.5,0.5
	c0.1-0.1,2.2-1.5,2.2-1.6C41.8,57,41.9,56.5,41.9,56z M42.9,57.1l0.4-1.5c-0.4,0-1-0.2-1,0.5C42.3,56.6,42.2,56.9,42.9,57.1
	L42.9,57.1z M17.7,59.2c-0.4,0.1-0.7,0.6-0.8,1c0,0.3,0,0.4,0.3,0.4c0.4,0,0.7-0.1,1-0.2C17.8,60,17.6,59.6,17.7,59.2L17.7,59.2z
	 M37.9,60.5c-0.4-0.3-0.5-0.5-0.7-0.9c-0.3,0.2-1,1.2-0.2,1.2C37.3,60.8,37.5,60.6,37.9,60.5L37.9,60.5z M38,58.9
	c-0.7,0.6,0,0.9,0.5,1.1l0.3-0.2L38,58.9z M18.1,59c0,0.5,0.2,1,0.6,1.1l0.2-0.2l-0.4-1C18.5,58.9,18.3,59,18.1,59z M23.5,55.9
	c-0.1,0.4,0.2,0.8,0.6,1c0.1-0.2,0.5-0.8,0.7-1C24.4,55.8,23.7,55.9,23.5,55.9L23.5,55.9z"/>
<path class="st0" d="M33.3,36c0,0.8-0.1,1.6,0.2,2.3c0.2,0.3-0.1,0.8-0.5,0.8c-0.3-0.1-0.4-0.4-0.4-0.7c-0.2-1.4-0.1-2.9-0.1-4.3
	c0.1-0.7,0.8-0.5,0.8,0.1C33.2,34.7,33.2,35.4,33.3,36L33.3,36z"/>
<path class="st0" d="M30.2,36.3c0,0.8,0.1,1.5,0.1,2.3c0,0.4-0.1,0.7-0.4,0.8c-0.3,0-0.5-0.2-0.6-0.6c-0.1-1.5-0.1-2.9,0-4.5
	c0-0.1,0-0.2,0.1-0.3c0.2-0.2,0.5-0.2,0.7,0c0.3,0.4,0.1,0.9,0.1,1.3C30.1,35.7,30.3,36,30.2,36.3z"/>
<path class="st0" d="M53.3,36.8l-0.3-2c-0.1-0.4,0.3-0.7,0.7-0.5c0.4,0.3,0.3,0.9,0.5,1.3c0.1,0.8,0.1,1.6,0.1,2.5
	c0,0.1-0.1,0.2-0.2,0.3c-0.3,0.2-0.8,0-0.7-0.4C53.3,37.6,53.3,37.2,53.3,36.8z"/>
<path class="st0" d="M51.1,36.4c0,0.5,0.2,1.1,0.1,1.6c-0.2,0.3-0.6,0.3-0.8,0.1c-0.3-0.8-0.1-1.8-0.2-2.7c0-0.2,0-0.4,0.2-0.4
	c0.3-0.2,0.7,0,0.7,0.3C51.1,35.5,51.1,36.1,51.1,36.4L51.1,36.4z"/>
<path class="st0" d="M16.4,42.5c-0.4,0.6-0.8,0.4-1-0.3c0,0-1-3.1-1-3.1c0-0.1-0.1-0.1-0.1-0.2c-0.1-0.4,0.6-0.7,0.8-0.3
	C15.6,39.9,16,41.2,16.4,42.5z"/>
<path class="st0" d="M13.8,43.1c0.1,0.6-0.8,0.7-0.9,0.1c-0.2-1.1-0.4-2.2-0.6-3.2c0-0.2,0.1-0.5,0.3-0.5c0.2,0,0.4,0,0.5,0.2
	C13.5,40.7,13.6,41.9,13.8,43.1z"/>
<path class="st0" d="M69.1,39c-0.2,0.9-0.3,1.7-0.4,2.6c0,0.3-0.2,0.7-0.6,0.6c-0.3,0-0.4-0.1-0.4-0.3c0-1.1,0.3-2.3,0.4-3.4
	c0.1-0.4,0.9-0.4,1,0C69.1,38.7,69.1,38.8,69.1,39L69.1,39z"/>
<path class="st0" d="M67.2,38.9c-0.2,0.8-0.2,1.6-0.5,2.4c-0.1,0.2-0.3,0.3-0.5,0.2c-0.2,0-0.4-0.1-0.4-0.3
	c-0.1-0.4,0.3-2.3,0.3-2.8c-0.1-0.3,0.1-0.5,0.5-0.5c0.7,0,0.4,0.6,0.5,1H67.2z"/>
</svg>
