<?xml version="1.0" encoding="utf-8"?>
<!-- Generator: Adobe Illustrator 24.3.0, SVG Export Plug-In . SVG Version: 6.00 Build 0)  -->
<svg version="1.1" id="Layer_1" xmlns="http://www.w3.org/2000/svg" xmlns:xlink="http://www.w3.org/1999/xlink" x="0px" y="0px"
	 viewBox="0 0 80 80" style="enable-background:new 0 0 80 80;" xml:space="preserve">
<path d="M16.1,68.6c-0.8-8.4-1.5-16.8-1.9-25.3c0.1-3.1-0.9-6.4,0-9.5c-0.4,0-2.8,0.1-3.2,0.1c-0.4,0.1-0.9-0.1-0.9-0.6
	c1.6-3.8,3.5-7.4,5.2-11.2c0.5-0.9,0.8-1.9,1.4-2.8c0.1-0.1,0.2-0.1,0.3-0.1c0.2,0,0.4,0.1,0.5,0.3c1,1.3,2.3,2.4,3.4,3.6
	c2.5,2.1,4.4,4.7,6.6,7c0.3,0.1,0.6,0.4,0.7,0.7c0.3,0,0.6-0.1,0.7,0.2c0.2,0.2,0.1,0.7-0.2,0.8c0,0-2.3,0.5-2.4,0.5
	c0.1,3.3,0.2,6.6,0.3,9.9l4-0.2c-0.3-1.5-0.7-2.5-1.2-3.9c-0.2-0.7-0.1-0.9,0.6-1c1.2-0.2,2.3-0.3,3.5-0.3c0-5.4,0-10.7,0.1-16
	c-1.1,0-4,0.4-5,0.3c-1.5-0.1-2.9,0.1-4.4,0.4c-1,0-0.6-1.2-0.2-1.7c1.9-3.1,3.6-6.2,5.1-9.5c0.2-0.6,0.8-1,1.5-1
	C38.7,8.7,47,8.7,55.2,8.9c2.7,0,5.3-0.1,7.9,0c1.7,0.1,1.2,2.6,1.4,3.8c0.2,8,1.5,16,1.5,24c0.3,5.1,0.1,10.2,0.1,15.4
	c-0.4,5.7-0.5,10.8,0,16.5c2.1,0,4.1,0,6.2,0c0.5,0.1,0.9,0.2,1.4,0.4c0.7,0.4,0,1.4,0,2c-0.1,0.5-0.3,0.6-0.8,0.6
	c-3.5-0.1-7,0.2-10.5-0.1c-2.2-0.1-4.4-0.5-6.5-0.3c-3,0.5-6.1-0.2-9.1-0.2c-6-0.1-11.9,0.1-17.9-0.2c-6.7,0-13.3,0.8-20,1
	c-0.2,0-0.5,0.1-0.7-0.2c-0.2-0.2-0.4-0.1-0.6,0.1C7.3,72,7.3,72,7,71.7c-0.2-0.1-0.3-0.2-0.3-0.4c-0.1-0.4,0.2-0.9,0.2-1.3
	c0.1-0.7,0.6-0.9,1.2-1C10.8,68.6,13.4,68.6,16.1,68.6z M17.1,68.5c10.8,0,21.7-0.6,32.6-0.1c0.7-2.6-0.5-5.2-0.3-7.8
	c-0.3-0.1-1.4-0.3-1.7-0.3c-0.1,0-0.3-0.1-0.4-0.2c-0.3-0.5-0.3-1.2-0.4-1.8c-0.1-1.8-0.1-3.5-0.1-5.3c-1.5,0-2.9-0.2-4.3-0.4
	c-0.7-0.2-0.9-0.4-0.8-1.1c0.1-3,0-5.8,0.6-8.8c-0.8-0.1-1.6,0.2-2.4,0.4c-0.4,0-0.6-0.3-0.5-0.7c0.3-1.3,0.1-2.8,0-4.1
	c-2.9-0.4-5.9-0.3-8.8,0.1c0.3,1.3,0.8,2.6,1.1,3.9c0.2,0.6,0,0.9-0.6,1c0,0-0.3,0-0.3,0l-3.4,0.2c-0.6-0.1-1,0.5-1.6,0.2
	c-0.2-0.1-0.2-0.3-0.2-0.6c0.1-3.5-0.3-6.9-0.2-10.4c-3.5,0.2-6.9,1-10.3,1.3c-0.2,4.5,0.3,9.1,0.5,13.6
	C15.7,54.5,16.6,61.4,17.1,68.5L17.1,68.5z M34.4,20.8c0,5.4,0.2,10.7,0.1,16.1c1.2,0.1,3.6,0.1,4.8,0.2c1.6-0.1,0.8,3.6,1,4.7
	c3.9-0.8,3-0.3,2.5,2.9c-0.5,2.2-0.2,4.6-0.2,6.9c1.4,0.2,2.8,0.3,4.3,0.3c0.5,0,0.7,0.2,0.8,0.7c0.1,2.2,0,4.5,0.3,6.7l1.5,0.3
	c0.8,0.1,0.9,0.3,0.9,1.1c-0.1,2.6,0.8,5.1,0.7,7.8h3.6c0-0.4-0.1-0.9,0.4-1.1c0.2-3-0.1-6.1-0.1-9.2c0.7-11.1-1.9-21.9-2.4-33
	c-0.1-1.2-0.1-2.4-0.2-3.7c0-0.3-0.1-0.5-0.3-0.7c-0.6-0.5-1.4-0.2-2.1-0.3c-2.3,0.1-7.6-0.2-9.8,0.1c-0.5,0.2-1,0.2-1.6,0.1
	C37.6,20.5,35.4,20.7,34.4,20.8z M64.6,31.8c0.4,0.6,0.4,0.6,0.1,1.2c-1.3,2.3-3.2,4.1-4.3,6.5l4.3,5.4c0,0.2,0.4,0.2,0.5,0.3
	c0.1-4.5-0.2-8.8-0.3-13.2C64.9,31.9,64.8,31.8,64.6,31.8L64.6,31.8z M59.7,38.5c1.3-2.4,3.2-4.3,4.4-6.7c-0.8,0-1.6,0.2-2.4,0.3
	c-2.3,0.3-4.7,0.1-7,0.7C56.2,34.8,57.9,36.7,59.7,38.5L59.7,38.5z M45.7,14.4l6.5-4.5C48,9.7,44,9.7,39.9,9.8V10L45.7,14.4z
	 M52.8,10.9c-2.2,1.2-4.2,2.6-6.1,4.2c1.8,1.3,3.7,2.6,5.4,4.1c0.2,0.2,0.5,0.3,0.8,0.1V10.9z M60.8,52.1c1.7,1.7,2.7,3.8,4.1,5.7
	c0.4-3.6,0.5-7.2,0.3-10.9h-0.1L60.8,52.1z M53.6,21.7c-0.1,3.4,0.3,6.8,0.5,10.2c1.4-2,2.9-3.8,4.4-5.7
	C56.7,24.9,55,23.4,53.6,21.7z M55.7,45.3c1.6-1.3,2.3-4,3.4-5.8L54.4,34L55.7,45.3z M63,20.6l-9.1-0.1c1.7,1.8,3.2,3.6,5.4,4.8
	C60.4,23.7,61.9,22.4,63,20.6z M59.9,26c1.7,1.4,3.1,3.3,5,4.6c0.1-3.3-0.7-6.4-0.8-9.6H64C62.9,22.9,61.2,24.3,59.9,26L59.9,26z
	 M64.4,68.5c-1-1.8-2.5-3.3-3.8-4.9c-1.6,1.2-4.1,4-4.3,4.8C59,68.6,61.7,68.6,64.4,68.5z M63.8,19.2c0.1-2.8-0.1-5.7-0.5-8.5
	c-1.6,1.2-3,2.6-4.3,4.2L63.8,19.2z M60.1,51.3l4.2-5.1c-2.6-0.2-5.2-0.2-7.8,0.1C57.5,48,58.9,49.6,60.1,51.3L60.1,51.3z M40,18.9
	l4.9-3.8c-1.7-1.5-3.4-2.8-5.2-4.1C39.9,13.6,39.6,16.2,40,18.9z M54,9.8c0.9,1.9,2.7,3,4.1,4.4l4.5-4.6L54,9.8z M24.9,20.2
	c1.6-0.2,3.1-0.2,4.7-0.3c0.2-2.9-0.1-5.5,0.1-8.5L24.9,20.2z M50.4,19.3l0.1-0.2l-4.7-3.5l-4.9,3.7H50.4z M59.5,52.2
	c-1.3-1.6-2.3-3.3-3.6-4.9c0.1,3.3,0.1,6.5,0.2,9.9C57.3,55.5,58.5,53.9,59.5,52.2z M56.9,57.9c2.3,0.1,4.5,0.1,6.9,0.1
	c-1-1.8-2.2-3.4-3.5-5L56.9,57.9z M59.3,27c-1.3,1.4-2.5,2.9-3.5,4.6c2.5-0.2,5-0.3,7.5-0.7C62,29.5,60.7,28.2,59.3,27z M35,14.6
	l3.6-4.7L31,10.4C32.3,11.9,33.8,12.9,35,14.6z M62.6,19.5l-4.2-3.8l-3.7,3.8C57.3,19.6,60,19.6,62.6,19.5z M59.8,40.3l-2.5,4.8
	l6.1-0.2c0-0.1-0.1-0.2-0.1-0.2L59.8,40.3z M30.6,18.8l0.1,0.1l3.4-3.6c-0.9-1.5-2.2-2.7-3.6-3.7C30.4,14,30.6,16.4,30.6,18.8z
	 M35.5,15.4c0.7,1.6,2,3,3.5,3.8c-0.4-2.6,0-5.2-0.3-7.8L35.5,15.4z M56.1,59.3c-0.1,2.4-0.1,4.8,0.1,7.2l3.6-3.7
	C58.9,61.5,57.2,60.4,56.1,59.3z M53.8,18.6c1.3-1.1,2.5-2.3,3.6-3.6c-1.3-1.3-2.8-2.3-3.7-3.9l-0.2,0.1
	C53.6,13.6,53.7,16,53.8,18.6z M64.7,60c-1.3,0.9-2.3,1.9-3.4,2.9c1.2,1.7,2.6,2.9,3.8,4.6C65,65,64.9,62.5,64.7,60z M34.7,16.1
	L31,19.8l0,0.1l6.3-0.4v-0.1C36.3,18.5,35.3,17.4,34.7,16.1L34.7,16.1z M60.6,62.1l3.8-3.1c-2.4,0.1-4.7-0.1-7.1,0
	C58.3,60.2,59.7,60.9,60.6,62.1L60.6,62.1z"/>
<path d="M24.6,51.6c0,1.5,0.1,3.3-0.9,4.5c-1.3,0.5-2.9,0.2-4.3,0.3c-0.7,0-0.9-0.3-0.9-1c-0.1-1.6-0.1-3.1-0.2-4.7
	c0-1-1-2.5,0.2-3c1.1-0.5,2.3-0.2,3.5-0.3c0.5,0,1,0.1,1.5,0.2c0.6,0,0.6,0.1,0.8,0.6C24.6,49.4,24.7,50.5,24.6,51.6z M19.6,55.5
	c0.5,0,2.1-0.1,2.7-0.1c0.9,0,1-0.1,1.2-1c0-1.9,0.4-4-0.1-5.9c-1.5,0-2.9-0.4-4.4,0.1C19.7,50.8,19.3,53.1,19.6,55.5L19.6,55.5z"/>
<path d="M33.6,52.7c0,0.8-0.1,1.5-0.1,2.3s-0.3,0.8-0.9,0.9C32,56,29.7,56,29.1,56.1c-1.9,0.2-1.7-1.6-1.6-3
	c0-1.4-0.1-2.9-0.3-4.3c-0.2-0.8,0-1.1,0.9-1.3c1.6-0.1,3.4-0.3,4.9,0.5c0.2,0.2,0.3,0.4,0.3,0.7C33.3,50.1,33.5,51.3,33.6,52.7
	L33.6,52.7z M32.5,54.9c0.1-2.1-0.1-4.1-0.3-6.2c-1.3-0.3-2.7-0.3-4.1-0.1c0.5,2.2,0.2,4.3,0.5,6.5L32.5,54.9z"/>
<path d="M20.5,36.5c0.7,0.1,1.4,0.2,2,0.4c0.2,0,0.3,0.3,0.4,0.5c0.3,1.9,0.9,3.7,1,5.6c0,0.9-0.9,0.9-1.6,1
	c-1.2,0.2-2.3,0.7-3.5,0.6c-0.9,0.1-1.2-0.2-1.2-1.1c-0.1-2-0.2-4-0.4-6c0-0.6,0.1-0.9,0.8-0.9L20.5,36.5L20.5,36.5z M22.9,42.9
	c-0.2-1.8-0.6-3.5-1-5.2c-1.2-0.1-2.4-0.1-3.6,0l0.4,5.9C20.1,43.8,21.4,43,22.9,42.9z"/>
<path d="M19.2,64.6c-0.1-1-0.1-2-0.2-3c-0.1-1.3,0.3-1.7,1.6-1.7c1.2,0,2.4-0.1,3.5,0.5c1.1,1.6,0.6,4,0.7,5.8
	c0,0.9-0.2,1.1-1.1,1.3c-1.3,0.2-2.6,0.2-3.9,0c-0.5,0-0.6-0.3-0.7-0.8C19.1,66.1,19.1,65.3,19.2,64.6L19.2,64.6z M23.7,66.4
	c0.2-1.7,0.1-3.5-0.3-5.2c-1.1-0.4-2.3-0.4-3.4-0.2c0,1.8,0.1,3.6,0.2,5.5C21.3,66.6,22.5,66.6,23.7,66.4z"/>
<path d="M35.2,51.3c0-0.8-0.1-1.7-0.1-2.5c0-0.5,0.2-0.8,0.7-0.8c1.3,0,2.5,0,3.8,0c0.3,0,0.6,0.2,0.6,0.5
	c0.4,1.7,0.2,3.5,0.1,5.2c0,0.7-0.4,1.8-1.3,1.7c-0.8,0-1.7-0.2-2.5-0.3c-0.8-0.1-1.1-0.4-1.2-1.1C35.3,53.1,35.2,52.2,35.2,51.3
	L35.2,51.3z M36.1,49c0.1,1.8,0.1,3.5,0.2,5.2l2.8,0.3c0.3-1.8,0.4-3.6,0.1-5.4C38.2,49,37.1,48.9,36.1,49L36.1,49z"/>
</svg>
