<?xml version="1.0" encoding="utf-8"?>
<!-- Generator: Adobe Illustrator 24.3.0, SVG Export Plug-In . SVG Version: 6.00 Build 0)  -->
<svg version="1.1" id="Layer_1" xmlns="http://www.w3.org/2000/svg" xmlns:xlink="http://www.w3.org/1999/xlink" x="0px" y="0px"
	 viewBox="0 0 80 80" style="enable-background:new 0 0 80 80;" xml:space="preserve">
<path d="M22.1,47.8c-1.6-1.7-3.3-3.4-4.9-5.1c-1.5-1.3-3.2-2.7-4.7-3.8c-0.5-0.3-0.9-1-0.2-1.3c2-1.1,4.8-2.7,6.7-3.8
	c2.6-1.8,5.5-3.3,8.2-4.9c0.5-0.4,0.9-0.2,1.4-0.4c0.3-0.1,0.5,0,0.6,0.3c0.1,0.9,0.9,1.4,1.4,2c2.6-0.6,5.2-1,7.7-1.8
	c0.4-0.1,0.7-0.2,1,0.2c0.6-0.7,1.5-1.6,2-2.4c0.2-0.5,0.2-0.5,0.7-0.4l9.5,1.5c2,0.3,4,0.3,5.9,0.7c0.6,0.1,1.2,0,1.7-0.2
	c3.1-1.5,6.3-3,9.4-4.5c1.5-0.8,3.2-1.6,4.9-0.9c1,0.3,1.5,1.5,1,2.3c-1,2-3.6,2.3-5.3,3.6c-4,2-7.8,4-11.8,5.9
	c0.1,0.4-0.1,0.6-0.4,0.8c-0.4,0.3-0.8,0.7-1.2,1.1c2.5,1,4.9,2.2,7.2,3.4c2,0.9,3.6,2.4,5.7,3.1c0.3,0,0.5,0.5,0.2,0.7
	c-4.5,3.9-9.6,7-14.2,10.7c-1.4,1.2-2.9,2.5-4.2,3.8c-0.1,0.2-0.4,0.2-0.6,0.1c-2.5-1.2-4.7-3.1-7.2-4.2c0,0-2.6,2.2-2.6,2.2
	c-1,0.9-1.7,2.2-2.8,2.9c-3.2-0.7-7.2-3.1-10.4-4.5c-2.2-1-4.7-1.4-6.9-2.3c-0.9-0.4-1.1-0.7-0.5-1.6C20.4,49.8,21.3,48.8,22.1,47.8
	z M38.5,54.1c-0.8-0.7-0.7-2-1.2-3c-2.3,1.3-4.5,2.8-6.5,4.5c2.1,1.1,4.3,2,6.5,2.8c1.2-1,2-2.2,3.2-3.2c0.3-0.2,1.7-1.3,1.9-1.5
	c-0.3-0.2-0.5-0.5-0.8-0.5C40.5,53.5,39.6,54.1,38.5,54.1z M42.7,47.3c-2.5-0.5-5-0.4-7.6-1.4c-2.7-0.9-5.6-1.1-8.2-2.4
	c-0.4-0.2-0.4-0.5-0.1-0.9c0.8-0.9,1.6-1.7,2.4-2.6c1.4-1.7,2.8-3.3,4.2-5c-1.1-1.4-2.3-2.7-3.5-3.9c-0.7-0.6-1.3-1.4-1.6-2.3
	c-3.6,2-7,4.2-10.5,6.5c-1.2,0.7-3.7,2.1-4.9,2.8c3.5,2.6,6.4,5.5,9.4,8.6c2.8,2.5,5.5,5,7.8,8C34.2,52,38.3,49.4,42.7,47.3z
	 M27.8,43.1c3.9,1.1,7.6,2.2,11.5,3c1.8,0.3,4,0,5.6,1.3c3.9-3.6,7.5-7.7,11-11.9c-0.9,0.3-1.7,1-2.6,1.3c-1,0.1-2-0.2-3.1-0.3
	c-0.6-0.1-0.8-0.4-0.5-1c0.5-1.1,0.8-2.5,1.5-3.4c1.3-0.7,4.5-2.1,5.9-2.7c-0.7-0.2-4-0.5-4.8-0.5c-3.4-0.6-6.9-1.1-10.3-1.7
	c-0.2-0.1-0.5,0.1-0.6,0.3C37.2,32.8,32,37.5,27.8,43.1z M51.1,42.3c0.3,0.1,0.5,0.4,0.5,0.7c0.7,1.8,1.7,3.4,2.3,5.3
	c0.2,0.5,0.1,0.8-0.5,1c-0.7,0.3-1.5,0.6-2.2,0.8c-2.9,0.8-5.7,1.7-8.6,2.8c2.4,1.7,5.1,3,7.5,4.6c5.4-5.1,11.8-9.2,17.7-13.7
	c-4.2-2.5-8-4.6-12.4-6.5L51.1,42.3z M50.5,42.9c-1.9,1.7-3.2,3.9-5.3,5.2c-0.3,0.1-0.4-0.2-0.7-0.3c-0.2,0-0.5-0.1-0.7-0.1
	c-0.1,0.3-5.2,2.7-5.6,2.9c-0.1,0.9,0.3,1.9,0.7,2.7c4.6-1.7,9.4-3.2,14.1-4.8C52.3,46.6,51.4,44.8,50.5,42.9z M22.8,48.4
	c-0.9,1-1.7,2.1-2.3,3.2c0.7,0.5,1.6,0.7,2.4,1c2.2,0.4,4.2,1.5,6.3,2.1c-1.4-1.5-2.6-3-4.1-4.3c-0.3,0.4-0.7,0.8-1,1.1
	c-0.5,0.5-1-0.1-0.6-0.5c0.2-0.2,0.8-0.9,1-1.1L22.8,48.4z M38.8,29.8l-0.1-0.1c-2.4,0.8-4.9,1.1-7.2,1.7l2.6,3.1L38.8,29.8z
	 M67.8,25.2c0.3,0.9,0.7,1.8,1.2,2.6c0.6-0.4,1.5-0.5,1.9-1c0.1-0.5-1.4-1.9-1.6-2.3L67.8,25.2z M51.6,33.1L51,34.6
	c0.5,0.2,0.9,0.7,1,1.3c0.5,0,1,0.3,1.4,0C54,34.7,52.9,33.1,51.6,33.1z"/>
<path d="M27.1,33.2c-3.7,1.4-6.9,3.7-10.4,5.6c-0.3,0.1-0.5,0.6-0.1,0.8c0.2,0.1,0.5,0,0.6-0.2c3.3-1.8,6.3-3.9,9.8-5.3
	C27.6,33.8,27.6,33.4,27.1,33.2z M28.8,35.4c0-0.7-0.6-0.6-0.9-0.3c-2.5,1.9-5.3,3.2-7.9,4.9c-0.2,0.6,0.4,0.8,0.9,0.4
	C23.5,38.8,26.5,37.5,28.8,35.4z M30.5,38.3c-0.3-0.3-0.3-0.4-0.6-0.2c-2.5,1.4-4.8,3.2-7.2,4.6c-0.2,0.7,0.6,0.6,0.9,0.3
	C25.7,41.2,28,39.6,30.5,38.3z M31,49.6c0.9-0.6,1.7-1.3,2.6-2c0.2-0.2,0.2-0.3,0.1-0.4c-0.1-0.2-0.3-0.1-0.5,0L31,48.7
	C30.6,49,30.3,49.6,31,49.6z M31.7,46.2c-0.3-0.2-0.5-0.1-0.7,0.1c0,0-2,1.5-2,1.5c-0.3,0.3-1.6,0.9-0.6,1.1
	c0.8-0.3,1.3-1.1,2.1-1.6C30.9,46.9,31.4,46.7,31.7,46.2z M25,45.2c0.4-0.2,1.6-0.6,1.4-1.2c-0.4-0.5-1.2,0.3-1.6,0.5
	C24.5,44.8,24.8,45,25,45.2L25,45.2z"/>
<path d="M45.3,49.7c1.3-0.4,5.1-1.4,6.3-1.8c0.5-0.1,0.3-0.8-0.2-0.6c-0.5,0.2-4.8,1.3-5.4,1.5
	C45.6,48.8,44.6,49.2,45.3,49.7z"/>
<path d="M34,55.5c0.2-0.1,1.7-1.6,1.9-1.8c0.3-0.3,1.2-0.8,0.8-1.3c-0.2-0.1-0.4-0.1-0.6,0.1c-0.7,0.7-1.5,1.3-2.2,2
	C33.6,54.8,33.3,55.4,34,55.5z"/>
<path d="M27.1,33.2c0.5,0.3,0.5,0.7,0,0.9c-3.6,1.4-6.7,3.7-10.2,5.4c-0.4,0.1-0.7-0.4-0.3-0.7
	C20,36.9,23.4,34.6,27.1,33.2z"/>
<path d="M28.8,35.4c-2.3,2.1-5.3,3.4-7.9,5.1c-0.5,0.4-1.1,0.1-0.9-0.4c2.6-1.7,5.3-3.1,7.9-4.9
	C28.2,34.9,28.8,34.8,28.8,35.4z"/>
<path d="M30.5,38.3c-2.4,1.4-4.8,2.9-7,4.8c-0.2,0.1-0.5,0.4-0.8,0.2c-0.2-0.1-0.2-0.5,0.1-0.6c2.5-1.4,4.7-3.4,7.3-4.6
	C30.2,38,30.3,38.1,30.5,38.3z"/>
<path d="M31,49.6c-0.6-0.1-0.4-0.7,0-0.9c0,0,2.2-1.5,2.2-1.5c0.2-0.1,0.3-0.2,0.5,0c0.1,0.2,0,0.3-0.1,0.4
	C32.8,48.2,31.9,49.1,31,49.6z"/>
<path d="M31.7,46.2c-0.9,1-2.1,1.7-3.1,2.6c-0.1,0.1-0.4,0.1-0.5,0c-0.1-0.2,0-0.3,0.1-0.4c0.1-0.1,0.5-0.4,0.8-0.6
	l2-1.5C31.2,46.1,31.4,46.1,31.7,46.2z"/>
<path d="M25,45.2c-1.1-0.7,0.5-1.1,1-1.4C27.3,44.2,25.5,45,25,45.2z"/>
<path d="M48,40.7c-4.3-1.2-8.7-1.7-12.9-2.6c-0.5-0.1-0.5-0.8-0.1-1c1.1-0.9,2-2.1,3.2-2.8c4,0.8,7.9,2.1,11.9,3
	C51.5,37.8,48.8,40.6,48,40.7z"/>
<path d="M33.3,38.9c3.8,0.8,7.7,1.7,11.5,2.7c0.4,0.1,0.9,0.4,0.7,0.7c-0.1,0.3-0.4,0.3-0.7,0.2c-3.8-1-7.7-2-11.6-2.7
	C32.2,39.8,32.5,38.9,33.3,38.9L33.3,38.9z"/>
<path d="M41.5,43.8c-3.2-0.9-6.4-1.7-9.7-2.4c-0.4-0.1-0.5-0.2-0.4-0.5c0-0.2,0.3-0.4,0.6-0.3c1.4,0.3,2.7,0.6,4.1,1
	l5.3,1.2l0.5,0.1c0.5,0.1,0.5,0.9-0.1,0.9C41.7,43.8,41.5,43.8,41.5,43.8z"/>
<path d="M40.4,31.8c2.8,0.2,5.4,0.9,8.1,1.2c0.2,0,0.4,0.3,0.4,0.5c0,0.2-0.2,0.4-0.4,0.4c-2.8-0.3-5.5-1.1-8.3-1.2
	c-0.2,0-0.5,0-0.6-0.2c-0.1-0.2,0-0.6,0.3-0.6C39.9,31.7,40.4,31.8,40.4,31.8z"/>
<path d="M49.1,32c-1.9-0.3-5.6-1.1-7.6-1.3c-0.3-0.1-0.4-0.2-0.4-0.5c0-0.2,0.2-0.4,0.6-0.3c2.4,0.3,4.8,1,7.2,1.2
	c0,0,0.3,0,0.3,0C50,31,49.9,32,49.1,32z"/>
<path d="M53.4,42.1c1.3,0.4,2.4,1.2,3.5,1.7c0.2,0.2,3.7,1.7,3.8,1.9c0.3,0.4-0.2,0.9-0.6,0.7c-2-0.9-4.1-2-6-3
	c-0.4-0.2-0.9-0.3-1.3-0.6C52.7,42.5,52.9,42.1,53.4,42.1z"/>
<path d="M62.4,44.6c-0.1,1.3-1.7-0.2-2.3-0.4c-0.2-0.1-4.2-2.2-4.3-2.2c-0.5-0.4,0.1-1,0.7-0.6
	C58.1,42.3,61,43.5,62.4,44.6z"/>
<path d="M50.2,54.8c-1-0.3-1.8-0.8-2.6-1.2c-0.2-0.1-0.4-0.3-0.3-0.5c0.1-0.3,0.3-0.3,0.6-0.2c0.4,0.2,1.9,0.9,2.4,1.1
	c0.3,0,0.5,0.3,0.4,0.5C50.5,54.6,50.3,54.7,50.2,54.8z"/>
<path d="M45.3,49.7c-0.8-0.4,0.2-0.8,0.6-0.9c0.7-0.2,4.9-1.3,5.5-1.5c0.5-0.2,0.7,0.5,0.2,0.6
	C50.5,48.2,46.6,49.3,45.3,49.7z"/>
<path d="M34,55.5c-1.6-0.3,1.8-2.5,2.1-3c0.4-0.4,1,0.1,0.5,0.6C36,53.6,34.7,55,34,55.5z"/>
<path d="M38.5,54.1c0.5,0.5,0.5,0.6-0.1,1c-0.5,0.4-1,0.7-1.5,1c-0.5,0.4-1-0.2-0.5-0.6C36.4,55.4,38.4,54.2,38.5,54.1
	L38.5,54.1z"/>
</svg>
