<?xml version="1.0" encoding="utf-8"?>
<!-- Generator: Adobe Illustrator 24.3.0, SVG Export Plug-In . SVG Version: 6.00 Build 0)  -->
<svg version="1.1" id="Layer_1" xmlns="http://www.w3.org/2000/svg" xmlns:xlink="http://www.w3.org/1999/xlink" x="0px" y="0px"
	 viewBox="0 0 80 80" style="enable-background:new 0 0 80 80;" xml:space="preserve">
<path d="M61.1,41.5c-0.3,1.3-1.7,2.9-3.1,1.9c-1.1-1.4-1.2-3.3-1.1-5c-0.9-0.5-1.2-1.7-0.2-2.4c0.5-0.6,0.2-1.4,0.3-2.1
	c0.1-2.8,0.2-5.7,0.3-8.5c-2.7,0.4-5.3-0.6-7.7-1.7c0,0.1-0.1,0.1-0.1,0.1c0.6,1.6,0.8,3.3,0.7,5.1c-0.3,4.4-1.1,9-3.9,12.5
	c-1.4,1.5-3.2,3.4-5.5,3.2c-2-0.2-3.6-1.3-5.1-2.6c-0.3,0.2-0.3,0.6-0.3,0.9c0.3,1.4,0.5,3.2,0.1,4.7c-0.8,3.4-1.2,7.4-4.2,9.7
	c2.9,2.6,0,8.4-3.8,6.7c-1.1-0.5-1.6-1.5-1.9-2.6c-0.6-0.2-1.2-0.6-1.8-0.9c0,0.1,0,0.2,0,0.3c1.5,1.1,0.7,3.4-0.9,4.1
	c-0.2,0.1-0.3,0.2-0.4,0.4c-0.9,2-2,4-3.2,5.8c1.8,4.9-5.8,5.8-8.3,2.9c-1-1-1.8-2.5-1.5-4c0.2-0.7,0.6-1.4,1.3-1.7
	c0.4-0.1,0.8,0,1.3,0.1c0.6-0.9,2.6-4,3.1-4.9c0.8-0.9,0.7-2.2,1.4-3.1c0.6-0.8,1.7-1,2.6-0.7c3.7-6.8,9.3-12.5,13.5-19
	c4-5.5,7.8-11.2,11.9-16.6c1.5-2,3-4.1,4.6-6c1.5-1.8,2.4-4.1,3.8-6c1.7-2.2,3.5-4.3,5.2-6.5c0.4-0.4,1-1.4,1.5-0.8
	c2.5,1.4,4.6,3.5,5.2,6.4c1.1,5.1,0,12-5.7,13.8c-0.1,0.1-0.7,0.2-0.8,0.3c-0.3,3.5-0.4,7-0.4,10.5c0.8,0.1,1.2,0.8,1.4,1.5
	c0.1,0.9-0.8,1.2-1.4,1.5c-0.3,0.7,0.1,4.8,1.3,3.9c0.4-0.3,0.7-0.7,0.7-1.2c-0.2,0-0.4,0.1-0.6,0c-0.4-0.1-0.5-0.6-0.3-0.9
	c0.6-1,1-1.1,2-0.3c0.6,0.3,1,1,0.1,1.3C61.2,41.4,61.1,41.5,61.1,41.5z M48.2,23.3c-3.4,4.1-6,8.7-9.1,13c-0.9,1.5-2.3,2.9-3.1,4.5
	c1.3,1.6,3.4,2.9,5.6,2.7c3-1,5-4,6.1-6.9c0.7-2.2,1.2-4.4,1.4-6.7C49.2,27.7,49.7,25,48.2,23.3z M57.3,24.1
	c0.4-5.5,0.9-11,1.3-16.5c-2.7,5-6.4,9.9-9.7,14.6C51.7,23.2,54.4,24.8,57.3,24.1z M59.7,5.7c-0.4,6.1-0.8,12-1.2,18
	C65.8,21.9,66,9,59.7,5.7z M30.4,56.6c1.3-1.5,2.7-3,3-5.1c0.6-2.7,1.8-5.5,1-8.3c-0.8,0.6-8.3,12.5-8.9,14.1l0.6,0.4
	c0.6-0.9,1.5-1.7,2.7-1.5C28.8,56.2,30.4,56.6,30.4,56.6z M18.9,69.3c1-1.5,1.9-3.1,2.6-4.8c-1.8,0.2-3.6-0.5-4.8-1.8
	c-1.4,2.2-2.8,4.3-4.2,6.5c-0.3,0.3-0.4,0.7-0.4,1.1c0.2,1.7,2.4,2.9,4,2.5c0.4-0.2,0.7-0.6,1.1-0.8C17,71.9,18.9,69.3,18.9,69.3z
	 M33.7,40.6c-4.3,6.8-10.2,12.6-13.9,19.8c0.8,0.7,2.2,1,2.7-0.2c3.9-6.4,7.6-13,12-19.1L33.7,40.6z M46.7,22
	c-4.3,5.8-8.3,11.8-12.4,17.8l0.7,0.5c4.3-5.7,8.1-11.9,12.7-17.5L46.7,22z M48.3,22.2c1.8-2.5,3.4-5.2,5-7.9c1.6-2.3,3-4.7,4.2-7.1
	c-1.4,1.3-2.5,3.1-3.8,4.6c-1.8,2.3-2.9,5.2-4.5,7.6c-0.3,0.5-0.3,0.5-0.9,0.4l-1,1.4L48.3,22.2z M58.4,37.2
	c-0.3-0.3-0.9-0.8-1.2-0.2C57.1,37.5,58.1,37.6,58.4,37.2L58.4,37.2z"/>
<path d="M57,70c-1.3,0.1-3.5-0.1-4.8-0.5c-4.5-1-8.9-3.4-10.5-8c-1.3-4.2-0.6-9.5,2.3-12.9c5.6-6.9,15.9-6.3,21.3,0.5
	c1.8,2.3,2.4,5.2,2.8,8.1c0.1,0.9-0.4,1.8-0.6,2.7c-0.2,1-1,1.8-1.6,2.6c-1.1,3.2-3.7,5.9-7,6.8C58.8,69.3,57,70,57,70z M45.8,55.6
	c0.6-0.1,3.5,0.9,4.1,1.1c0.2,0.1,0.3,0.1,0.5,0c0.3-0.2,0.9,0,1.2-0.2c0.6-0.7,1.8-1.4,2.1-2.2c0.1-0.7-0.4-1.3-0.6-1.9
	c-0.6-1.3-1.4-2.5-1.8-3.8c-1.3-0.5-2.7-0.6-4-0.9C47,47.6,47,48,46.8,48.2c-1,0.7-1.7,2.3-2.2,3.3C44.1,52.8,45.1,54.5,45.8,55.6z
	 M50.2,66.2c0.6-1.7,2.1-3.2,1.7-5.1c-0.4-1.1-0.8-2.2-1.3-3.3c0-0.1-0.1-0.2-0.2-0.3c-1.1-0.4-2.3-0.5-3.5-0.9
	c-0.1,0-0.2,0.4-0.3,0.1c-1.3,1.5-1.7,2.5-2.8,4c-0.2,0.3,0.2,0.5,0.3,0.8c0.6,1.1,1.2,2.3,1.9,3.4C47.5,65.3,48.7,65.8,50.2,66.2
	L50.2,66.2z M58,54.9l1.2-2.4c0.1-0.5,0.7-0.8,0.6-1.3c-0.1-1.7-0.4-3.4-0.9-5c-0.1-0.3-0.3-0.5-0.6-0.6c-0.9-0.2-1.7-0.6-2.6-0.6
	c-1.4,0.9-2.6,2.2-3.4,3.6c1.2,1.7,1.8,3.6,2.8,5.4C56,54.3,56.9,54.6,58,54.9z M60.2,52.7c-0.3,0.9-1.4,2.1-1.4,3.2
	c0.4,0.8,0.5,1.9,1.1,2.6c1.5,0.5,3.1,0.8,4.6,1.5c0.5,0.2,0.6,0.2,1-0.2c0.4-0.6,1.2-1.1,1.4-1.8c0.4-1.9-0.4-3.9-1-5.7
	C64,52.1,62,52.1,60.2,52.7L60.2,52.7z M57.4,62.5l1,4c0.1,0.2,0.1,0.4,0.4,0.5c0.7,0.1,1.4,0.5,2.1,0.2c1.6-0.9,2.7-2.4,3.6-3.9
	c0.3-0.6,0.1-1.4,0.1-2.1c0-0.2-0.1-0.4-0.3-0.4c0,0-3.7-1.3-3.7-1.3c-0.4-0.2-0.8,0-1,0.3C58.8,60.7,58.1,61.5,57.4,62.5L57.4,62.5
	z M56.4,62.7l-2.8-0.6c-0.4-0.1-0.5,0-0.7,0.4c-0.3,1.5-1.2,2.7-1.5,3.8c0,0.2,0.1,0.4,0.2,0.6c0.3,0.5,0.8,0.9,0.7,1.5
	c1.3,0.3,2.8,0.7,4.2,0.4c0.5-0.5,0.7-1.2,1-1.9C57.3,65.5,56.7,64.1,56.4,62.7z M42,60.9c0.2,0.9,2.4,3.8,3,4.3
	c-0.2-0.5-1.6-3.5-1.9-3.8C42.9,61.1,42.5,61.2,42,60.9z M46,47.4C45.3,48,43,50,43.9,51C44.5,49.7,45.2,48.5,46,47.4z"/>
<path d="M19.7,65.9c-1-0.1-1.8-0.5-2.5-1.2c-0.3-0.3-0.9-0.8-0.4-1.2c0.7-0.5,1.3,0.7,1.9,0.9c0.5,0.3,1.1,0.3,1.6,0.4
	C20.9,65.3,20.2,65.8,19.7,65.9z"/>
<path d="M17.9,68.4c-0.8,0-3-0.7-2.3-1.8c0.2-0.2,0.5-0.2,0.7,0c0.6,0.5,1.3,0.8,2,0.8c0.4,0.1,0.6,0.3,0.6,0.6
	C18.8,68.5,18.2,68.5,17.9,68.4z"/>
<path d="M15.6,71.4c-0.4,0-0.8-0.1-1.2-0.4c-0.4-0.3-0.9-0.8-0.8-1.3c0.1-0.4,0.7-0.5,0.9-0.1c0.3,0.6,0.9,0.9,1.5,0.8
	c0.1,0,0.2,0,0.3,0.1c0.2,0.2,0.2,0.5,0,0.6C16.3,71.4,15.8,71.4,15.6,71.4z"/>
</svg>
