<?xml version="1.0" encoding="utf-8"?>
<!-- Generator: Adobe Illustrator 24.3.0, SVG Export Plug-In . SVG Version: 6.00 Build 0)  -->
<svg version="1.1" id="Layer_1" xmlns="http://www.w3.org/2000/svg" xmlns:xlink="http://www.w3.org/1999/xlink" x="0px" y="0px"
	 viewBox="0 0 80 80" style="enable-background:new 0 0 80 80;" xml:space="preserve">
<path d="M45.2,60.7c0.2,1.3-0.4,2.7-1.5,3.5c-2.4,2.2-5.5,3.7-8.9,3.2c-0.8,0-1.2-0.8-1.9-1.1c-0.4-0.2-0.8-0.5-1.1-0.8
	c-3.2-4.3-6.3-8.6-9.1-13.1c-0.8,0.2-1.1-0.3-1.5-0.9c-0.7-1-1.3-2.1-2.1-3.1c-0.5-0.5-0.5-1.5,0-2c-2.6-4.3-4.9-8.8-7.5-13.2
	c-0.4-0.9-1.3-2,0.3-2.2c0.4-2.5,1.9-3.9,3.4-5.7c1.1-1.3,3-1.7,4.6-1.9c0.9-0.1,1,1.5,1.4,2.1c1.1-0.5,2.3-0.7,3.4-0.3
	c0.6,0.3,1.8-0.2,1.8,0.7c0.2,1.7,0.7,3.3,1.5,4.8c1,2,1.8,4.2,3.1,6.1c0.2,0.1,0.4,0.2,0.6,0.2c1,0.1,1.8,0.7,2.3,1.5
	c0.5,0.9,1,1.8,1.5,2.8c0.4,0.4,0.4,1.2,0,1.6c0.9,0.3,0.8,1.3,1.2,2l1.3-0.1c-0.8-3-1.5-5.9-2-8.9c-0.3-3.8,0.1-7.6,1-11.3
	c0.3-1.3,1-2.8,2.3-3.2c8.2-0.5,16.8-1.3,24.9-2.5c4.3-0.7,6.9,4.9,4.8,8.3c-0.6,1.2-0.4,1-1.7,1c-1.1,0.1-2.1,0.2-3.2,0.4
	c0,4,0.8,8,0.9,12c0.2,0.8,0.3,1.7,0.1,2.5c0.7,2.4,0.2,4.7-0.3,7c-0.6,2.4-2.5,4-4.4,5.5c-0.4,0.4-0.8,1-1.4,1.3
	c-3.1,1.4-6.2,2.9-9.6,3.3C48.1,60.3,46.6,60.5,45.2,60.7z M53.2,52.3c0,1.8,0.5,2.4,2.1,2.8c1.3,0.3,2.8,0,3.8-1
	c6.7-6.1,3.6-15.7,2.7-23.5c-0.4-2.1-0.2-4.2,0-6.3c0.1-1.6,0.8-2.9,1.7-4.2c-5.1,0.7-10.3,1.4-15.4,1.8c-2.6,0.2-5.2,0.4-7.9,0.6
	c-0.4,0-0.8,0.1-1.2,0.4c-0.3,0.3-0.6,0.7-0.6,1.1c-0.4,1.5-0.8,3-1,4.5c-0.2,2.6-0.4,5.3-0.1,8c0.6,2.7,1.1,5.5,2,8.2
	c5.8-0.3,11.5-0.2,17.2-0.9c0.6-0.1,1.2,0.6,0.6,1.1c-0.9,0.8-2.1,1.3-2.6,2.5c0.8,0,5.3-0.7,6.1-0.8c0.2,0,0.6,0.1,0.7,0.4
	c0.2,0.5-0.5,0.8-1,0.8c0,0-6.1,0.7-6.1,0.7c-0.2,0-0.4,0.1-0.5,0.2c-0.5,0.7-0.7,1.6-0.6,2.4c0.3,0,4.7-0.2,5.2-0.2
	c0.6,0,0.9,0.1,0.9,0.5c0,0.4-0.2,0.7-0.8,0.7C56.6,52.2,54.9,52.2,53.2,52.3L53.2,52.3z M53.5,45.4c-2,0.1-11.7,0.5-13.9,0.5
	c-2.3,0.1-4.4,0.4-6.7,0.2c-1.3-0.1-2,1.5-2.2,2.6c-0.4,2.6,0,5.1,2.1,7c1.7,1.7,3.8,2.9,6.2,3.3c5.4,0.7,11.1,0.2,16.1-1.8
	c-1.3-1-2.9-1.6-3.7-3.1C50.1,51,51.7,47.9,53.5,45.4L53.5,45.4z M19.8,44.7c1.8-2.7,4.1-4.9,6.9-6.7c-2.5-4.2-4.9-8.5-7-12.9
	c-0.2-0.3-0.4-0.5-0.7-0.5c-2.1,0-3.2,1.7-4.4,3.1c-1.2,1.2-1.4,3.1-1.9,4.6C15.2,36.5,17.2,40.8,19.8,44.7L19.8,44.7z M37,59.8
	c-3-1.3-6.2-3.2-7.2-6.5c-0.6-2.2-0.8-5,0.6-6.9c0.9-1,0.7-1,0.1-2.3c-0.1-0.2-0.3-0.5-0.5-0.7c-2.2,0.8-8.4,4.5-6.6,7.3
	c2.9,4.8,6.1,9.3,9.5,13.7C33.6,62.5,35.1,60.8,37,59.8z M29.5,37.1c-1.9-3.3-3.4-6.8-4.5-10.5c-1.6-0.5-2-0.6-3.2,0.1
	c1.9,3.7,4,7.4,6.2,11L29.5,37.1z M43.9,61.5c-2.4,0-4.7,1.4-6.3,3.1c-0.6,0.7-0.9,0.7-1.6,0l-1.2-1.1c-0.4,0.9-1.4,2.6,0.3,2.6
	c3.2,0.4,5.7-1,7.9-3C43.4,62.6,43.8,62.1,43.9,61.5z M38.4,60.2c-0.2,0.9-0.2,0.9-1.1,1c-0.8,0.1-1.2,0.9-1.8,1.3l1.2,1.1
	c1.3-1.3,2.9-2.4,4.7-3.1L38.4,60.2z M34.7,44.8c-0.6-0.7-0.9-1.5-1.5-2c-0.6-0.2-1.2,0.1-2,0.2l1,1.8H34.7z"/>
<path d="M42.6,32.4L40.7,34c-0.2,0.2-0.5,0.5-0.8,0.5c-0.3,0-0.6-0.2-0.7-0.5c0-0.1,0-0.3,0.1-0.4
	c0.4-0.4,0.3-0.8,0.4-1.3c0.1-0.7,0.2-1.4,0.4-2.1c-0.6-0.7-2.3-1.8-0.9-2.6c0.5-0.4,0.8-0.8,1.4-0.4c0.3,0.1,0.4,0.3,0.7,0.3
	c0.4-0.7,0.6-1.6,1.3-2.1c0.4-0.2,0.9-0.4,1.3,0c0.4,0.7,0.2,1.5,0.4,2.3c0.8,0.1,1.7-0.1,2.3,0.7c1,1-0.7,1.6-1.3,2.2
	c0.3,1,0.6,2.1,0.8,3.1c0.1,0.3,0,0.6-0.3,0.8c-0.3,0.1-0.6,0.1-0.8-0.1C44.1,33.7,43.4,33,42.6,32.4z"/>
<path d="M40.9,43.1c-0.6,0-1-0.9-0.4-1.2c2.3-0.8,4.7-1,7.1-1.4c4.4-0.4,8.8-0.5,13.1-1.3c0.5,0.1,0.7,0.8,0.3,1.1
	c-0.1,0.1-0.3,0.2-0.5,0.2c-2.1,0.3-4.2,0.5-6.3,0.7C49.7,41.5,45.2,41.9,40.9,43.1z"/>
<path d="M42.2,38.9c-1,0-0.5-0.9,0.3-0.9c5.5-1,11-1.4,16.5-2.6c0.4-0.1,1.2-0.3,1.3,0.3c0.2,0.9-1.1,0.8-1.7,1
	C54.4,37.3,46.5,38.4,42.2,38.9z"/>
<path d="M50.2,33c-0.3,0-0.7,0.1-0.9-0.2c-0.3-0.3-0.2-0.9,0.2-1c0.2-0.1,0.4-0.1,0.5-0.1l8.8-1.1
	c0.5-0.1,1.1,0.1,1.1,0.7c0,0.3-0.3,0.6-0.6,0.6C56.3,32.3,53.3,32.7,50.2,33L50.2,33z"/>
<path d="M58.1,26.9c0.6,0,1.1,0.5,0.8,1c-0.1,0.2-0.3,0.3-0.6,0.4c-1.6,0.2-3.2,0.4-4.8,0.6c-0.7,0-1.4,0.4-2.1,0.1
	c-0.5-0.4-0.3-1.1,0.4-1.2c0,0,6.1-0.9,6.1-0.9L58.1,26.9z"/>
</svg>
