<?xml version="1.0" encoding="utf-8"?>
<!-- Generator: Adobe Illustrator 24.3.0, SVG Export Plug-In . SVG Version: 6.00 Build 0)  -->
<svg version="1.1" id="Layer_1" xmlns="http://www.w3.org/2000/svg" xmlns:xlink="http://www.w3.org/1999/xlink" x="0px" y="0px"
	 viewBox="0 0 80 80" style="enable-background:new 0 0 80 80;" xml:space="preserve">
<path d="M38.6,41.5c0,0.1,2.8-4,2.9-3.9c3.8-4.5,7.7-8.9,12.1-12.8c0.6-0.6,0.9-0.6,1.9,0.1l2-2.7
	c-1.8-6,4.5-8,8.7-10.2c1.5-0.8,2.9-2,3.8-3.5C70,8.3,70.1,8.1,70.4,8c1.3-0.3,1,1.7,1.3,2.4c0.1,0.7,0.2,1.1,0.3,1.6
	c0.7,2.3-0.3,4.7,0.2,7c0.3,2.9,1.2,6.5-0.9,8.9c-0.6,0.7-1.5,0.4-2.1,0c-0.7,5.3,1.1,11.4-1.2,16.4c-0.5,1.1-2.5,1.7-3,0.3
	c-1.3-4.2,0.9-8.5,0.6-12.8c-0.4,0.6-0.5,1-1.1,1.4c-0.7,0.4-1.8,0.1-2.1-0.7c-0.7-1.3-0.8-2.8,0.7-3.8c1.6-1,3-2.7,2.9-4.7
	c-1.4,0.6-3,0.9-4.2,2c-0.2,0.2-0.4,0.4-0.5,0.6c-0.7,1.7-2.4,2.1-3.9,3c-0.3,1.2-1,2.3-2,3.1c-2.7,2.7-5.5,5.2-8.2,7.9
	c4.2,3,9.2,4.5,14.2,5.5c0.6,0,1.2,0.6,1.2,1.3c-1.5,4.1-3.6,8-5.4,12c-1.5,2.9-3.2,6-5.8,8.1c-3.7,3.2-8.5,4.4-13.1,5.8
	c-0.4,0.5-0.8,0.4-1.3,0.2c-2.8-1.1-4.9-4.1-5.3-7.1c-2.8-0.5-5.9-0.9-8.5-2.2c-3.1,2.5-6.1,5.1-9.2,7.7c-1,0.7-1.9,1.6-3.1,1.9
	c-6.6-0.6,5.9-11.2,7.3-13.3c-3.5-3.5-5.3-8.1-6.7-12.8c-0.8-2.8-1.5-5.5-2.2-8.3c-0.1-0.6-0.1-1.5,0.7-1.6c7.7-1.8,15.4-3.6,23.1-5
	c0.7-0.2,1.4-0.4,2.1-0.6c0.9-0.2,1.1-0.1,1.3,0.8C37.1,35.5,38.1,38.8,38.6,41.5z M10.6,39c0.9,4.1,2.1,8.1,3.5,12.1
	c1.3,4.1,3.9,7.9,7.6,10.2c1.8,1.3,3.7,2.6,5.9,3c1.7,0.3,3.3,0.6,5,0.9c0.6,0.2,1.1-0.1,1.6-0.5c0.1,0,0.1,0,0.2,0
	c0.4,0.1,0.6-0.2,0.7-0.4c0.7-1.1,1.2-2.2,1.5-3.5c2-8.9,1.4-18.4-1.3-27.1C27,35.1,18.8,36.7,10.6,39z M38.1,60.2
	c3-1,6.5,0.3,6.6,3.8c0,1.5-0.6,3.8-2.4,3.9c-1.6-0.3-0.6-2.8-1.5-3.8c-0.9-1.4-2.4-0.9-3.7-0.7L35.3,66c-0.2,0.3-0.5,0.6-0.9,0.4
	c-0.7-0.3-1.3,0.1-2-0.1c1.1,1.9,2.1,3.8,3.9,5.1c0.4,0.3,0.8,0.6,1.3,0.4c3.9-1.1,7.9-2.1,11.3-4.3c3.5-1.9,5.6-5.5,7.3-8.9
	c1.7-3.8,3.7-7.4,5.2-11.4c-6.6-1.1-12.8-3.9-18.2-7.8c-1.5,2.7-2.7,5.5-3.9,8.3c-0.4,0.8-0.1,1.9-0.2,2.8c0,0.6,0,1.2,0,1.8
	c1.1-1,1.6-2.6,3-3.2c1-0.3,2.4-0.2,2.2,1.1c0,0,0,0.5,0,0.5c0.8,0.4,0.8,0.6,0.5,1.4c-0.3,0.8-0.7,1.5-1.4,2
	c-1.5,1.3-2.9,2.9-5,3.1L38.1,60.2z M61.4,15.9l-0.1-0.1c-1.9,1.2-3.7,3.8-2.7,6c0.7,0.2,1.6,0.2,2.2,0.8c0.6,0.6,0.7,1.3,1,2.1
	c0.3-0.7,0.9-0.8,1.4-1l1.7-0.7c-1.5-1.1-0.9-2.5-0.7-3.7C61.4,19.7,60.2,18.7,61.4,15.9z M43.8,51.4l-0.9-1.1
	c-1.2,0-1.7,1.4-2.5,2.1c-0.5,0.5-0.8,0.9-1.1,1.3c-0.5,0.5-0.3,1.4-0.5,2.1C40.4,55.7,43.5,52.9,43.8,51.4z M37.6,61.8l0.1,0.1
	l0.8-0.1c1.8-0.4,3.7,0.9,4,2.8c0.1,0.6,0.1,1.1,0.3,1.7h0.2c1-1.6,0.8-4.5-1.3-4.9C40.3,61.2,38.5,60.5,37.6,61.8z M59.4,27
	l0.6-0.7l-2.5-2.1L57,24.8C57.9,25.3,58.8,26.1,59.4,27z M60.4,25.1c0.5-1.2-1-2.5-2.1-1.8C58.9,24,59.6,24.6,60.4,25.1L60.4,25.1z
	 M56.6,26l-0.1,0.1l1,1.9l0.9-0.5L56.6,26z"/>
<path d="M34.8,53.3c-0.1,2.7-1.8,5.3-4.2,6.4c-3.1,0.5-6.9-1.6-8.3-4.4c-0.2-1.1,0.6-2.4,1.8-2.2
	c1.5,0.2,2.3,1.8,3.7,2.3c0.7,0.2,1.5,0,2.1-0.5c0.9-0.9,1-2.4,2-3.3C33.2,50.3,35.1,51.6,34.8,53.3z M33.5,53.5
	c0.1-1.4-0.7-1.3-1.4-0.3c-0.2,0.4-0.3,0.9-0.5,1.3c-0.8,2.3-4,3.1-5.7,1.3c-0.5-0.5-1.1-0.9-1.7-1.3c-0.2-0.1-0.4-0.2-0.6,0
	c-0.4,0.5,0.2,1.2,0.5,1.6c1.1,1.2,2.4,2,3.9,2.3c2.1,0.5,2,0.4,3.4-0.9C32.8,56.5,33.5,55,33.5,53.5z"/>
<path d="M22.6,44.9c1.8,0,3.6,0.8,4.1,2.7c0.4,1,0,2.5-1.2,2.7c-2.8,0-3.6-1.8-5.5,1.5c-0.7,1-1.6,1-2.2,0
	C16,48.6,19.1,44.4,22.6,44.9z M19,51.2c0.8-1.1,1.2-2.1,2.5-2.6c0.6-0.2,1.3-0.2,1.9,0c0.8,0.2,2.8,1,2.3-0.7c-0.5-1.6-2.5-2-4-1.8
	C19.3,46.5,18.1,49.1,19,51.2z"/>
<path d="M36.9,45.8c-0.1,1-0.6,2.1-1.6,2.3c-0.9,0.2-1.5-0.7-2.4-0.7c-1.2,0.3-2,2.3-3.3,1.5c-0.8-0.3-1.2-1.1-1.1-1.9
	c0.2-2.5,2.6-4.4,5-4.7C35.3,42.4,36.4,44.2,36.9,45.8z M35,46.8c0.5-0.5,0.7-0.8,0.5-1.2c-0.2-0.8-0.7-1.5-1.5-1.9
	c-0.6-0.3-1.1,0.3-1.6,0.1c-1.3,0.5-2.3,1.7-2.6,3c-0.1,0.6-0.1,0.6,0.5,0.9C32.2,45.9,32.7,45.7,35,46.8L35,46.8z"/>
<path d="M47.7,56.3c0.1-1.6,0.8-3.4,2.3-4.2c2.3-0.6,2.6,2.5,2.1,4c-0.3,0.9,0,1.9,0.7,2.6c0.7,0.7,0.7,1.9,0,2.6
	C49.5,63.7,47.5,59.1,47.7,56.3z M50.4,53.2c-2.1,1.5-2,5.4-0.2,7.2c0.4,0.2,0.9,0.4,1.3,0.2c0.6-0.3,0.7-0.9,0.2-1.2
	c-0.8-0.8-1.2-2.1-0.9-3.2C50.9,55.2,51.4,53.9,50.4,53.2z"/>
</svg>
