<?xml version="1.0" encoding="utf-8"?>
<!-- Generator: Adobe Illustrator 24.3.0, SVG Export Plug-In . SVG Version: 6.00 Build 0)  -->
<svg version="1.1" id="Layer_1" xmlns="http://www.w3.org/2000/svg" xmlns:xlink="http://www.w3.org/1999/xlink" x="0px" y="0px"
	 viewBox="0 0 80 80" style="enable-background:new 0 0 80 80;" xml:space="preserve">
<path d="M65,72.6c-2.9-0.3-5.8,0.6-8.7,0.3c-10.9-0.4-21.8-0.1-32.7,0.2c-3.5,0.2-7,0.7-10.5,1.1
	c-0.8,0.1-2.1,0.2-1.9-1c0-0.8,0-1.5-0.1-2.3c-0.1-1.8,0-1.9,1.6-2.1c9.3-1,18.8-1,28.1-1.3c9.6-0.1,19.3-0.4,28.9-0.4
	c0.6,0,0.7,0.7,0.7,1.1c-0.1,1.2,0.4,2.5-0.1,3.6C69,73.2,66.8,72.4,65,72.6z"/>
<path d="M18,50.3c-6.1-11.6,12.4-15.5,7.7-0.5c3.1,1.2,5.5,4,6.1,7.3c0.4-2.6,1.4-5.1,3.8-6.5c-2.5-5.2,1.2-13,7.6-10
	c0.3,0,0.6,0.4,0.7,0.7c1.5,2.6,1.6,5.9,0.2,8.6c2.9,0.3,4.1,3.4,5,5.8c0.5-2.4,1.3-5.3,3.9-6.2c-1.3-5.6,1.4-11,7.8-8.6
	c0.9,0.7,1.5,1.8,2.1,2.8c1.1,2.2,0.6,4.5-0.3,6.7c2.6,2.7,2.8,6.6,2.9,10.1c-0.1,1.4,0.3,3.4-0.6,4.5c-0.8,0.7-2,0.3-2.9,0.4
	C56.3,65.1,50.7,65.8,45,66c-4.5,0.4-9,0.3-13.5,0.5c-5.4,0.1-11,0.6-16.4,0.5c-0.7-0.1-1.3-0.1-1.3-0.7c0-1.7,0-3.3,0.1-5
	C14,57.2,14.4,52.7,18,50.3z M15.3,65.5c1,0.1,2,0.1,3,0c0.1-1.4,0.2-6.7,0.3-8c-0.1-1.1,1.3-1.1,1.1,0c0,2.2-0.3,5.7-0.2,7.9
	l6.7-0.4c-0.1-1.9-0.5-5.2-0.7-7.1c0-0.2,0.2-0.5,0.4-0.5c0.2-0.1,0.5,0.1,0.6,0.3c0.3,2.1,0.6,5.1,0.9,7.3l4.3-0.1
	c-0.8-2.9-0.6-5.9-1.4-8.8c-0.7-2.2-2.3-4.2-4.5-5c-0.5-0.2-1.1-0.1-1.5,0.3c-0.6,0.7-1.6,1.1-2.6,1c-0.8,0-1.6-0.3-2.2-0.7
	c-0.2-0.2-0.5-0.3-0.8-0.3c-0.6,0-1,0.5-1.3,0.9c-0.9,1.2-1.5,2.7-1.7,4.3C15.4,59.6,15.2,62.5,15.3,65.5z M43.3,51.2l-1,0.8
	c-1.6,1.2-3.8,1.3-5.4,0.2c-0.3-0.2-0.6-0.3-1-0.3c-3.8,1.9-3.3,9.3-3.1,13c1.4,0.1,2.8,0,4.2-0.2c0-2,0-4.5,0.3-6.5
	c0.1-0.6,1.1-0.6,1.1,0c-0.2,2-0.4,4.4-0.1,6.4c1.4,0.2,2.8,0.1,4.1-0.2c-0.2-1.5-0.3-4.4-0.3-5.9c0-0.7,1.1-0.7,1.1,0.1
	c0.1,1.7,0,4.2,0.4,5.9c1.9,0,3.7,0,5.5-0.2c0.1-0.8-0.4-1.5-0.3-2.3c-0.1-3.5-0.4-7.1-2.8-9.8c-0.2-0.4-0.5-0.6-0.9-0.8
	C44.5,51.1,43.9,51.4,43.3,51.2L43.3,51.2z M55.2,63.8h4.1c0-1,0-4.7,0.1-5.8c0-0.9,1.2-0.9,1.2,0c0,1.5,0,4.4,0,5.8l3.4,0.1
	c0.3-2.9,0-5.7-0.4-8.6c-0.1-1.4-0.6-2.6-1.5-3.7c-2.1,3-7.2,2.5-8.6-0.9c-4.3,2.1-3.2,9.6-3.1,13.6L54,64c0-1.8-0.4-5-0.5-6.8
	c0-0.1,0.1-0.2,0.1-0.3c0.3-0.3,0.8-0.1,0.9,0.3C54.7,59,55,62,55.2,63.8z M58.8,41.2c-1.9-0.1-3.9,0.7-4.5,2.6
	c-1.4,3.4-0.2,9.7,4.6,8.6c2-0.3,2.7-2.3,3.1-4c0.8-2.2-0.2-4.4-1.7-6.1c-0.1-0.2-0.4-0.2-0.6-0.1C59,42.3,58.9,42.2,58.8,41.2z
	 M36,47.2c-0.2,3.3,2.2,5.8,5.4,4c2.1-1.2,2.7-4,2.4-6.3c-0.2-1.5-0.6-3.3-2.2-4C38.1,40.2,35.6,44,36,47.2z M25.3,45.2L25.3,45.2
	c-0.1-1.4-0.3-2.9-1.6-3.7c-0.1-0.1-0.2-0.1-0.2-0.2c-0.1-0.4-0.9-0.1-1.2-0.2c-0.6,0-1.1,0.1-1.6,0.3c-4.4,1.4-3.2,10.2,1.7,9.9
	C24.9,50.6,25.1,47.5,25.3,45.2L25.3,45.2z"/>
<path d="M41.7,34.3c-0.3,0.9-0.6,1.7-0.9,2.5c-0.1,0.4-0.2,1-0.8,1c-0.6,0-0.8-0.4-1-0.8c-0.3-0.7-0.5-1.5-0.8-2.2
	c-2.9,0.2-6.5-0.8-8.9,1.1c-1,1-2.1,1.9-3.3,2.7c-0.2,0.2-0.6,0.2-0.8,0.1c-0.3-0.2-0.3-0.5-0.2-0.8c0.2-1.3,0.4-2.7,0.7-4.1
	c-1.5-1.2-1.7-3.1-2.7-4.7c-1.7-3.3-2.7-7.4-1.8-11.1c2.6-6.6,7.3-10,14.2-11.5c2.4-0.5,4.8-0.6,7.2-0.3c2.6,0.4,5.2,0.6,7.6,1.6
	c1.6,0.7,3.1,1.6,4.5,2.7c3,2.4,5.6,6,5.9,9.9c0.7,4.6-0.2,9.9-4.4,12.5c-1,0.7-1,0.8-0.8,2c0.1,1,0.3,2.1,0.2,3.1
	c-0.8,1.3-2.2-0.9-2.8-1.5c-0.5-0.8-1.5-1.3-2.4-1.3C47.4,35,44.6,34.4,41.7,34.3z M54.3,36.6l0.1,0c0.1-1-0.5-2.1-0.3-3.1
	c0.7-0.8,1.8-1.3,2.5-2.1c3-2.7,3.3-6.9,2.8-10.7C59.3,19,58.8,17.4,58,16c-1.8-3.4-4.9-5.6-8.4-7.2c-2.3-0.9-4.8-1-7.1-1.5
	C37,6.7,31,8.3,26.7,11.8c-1.9,1.9-3.4,4.1-4.4,6.6c-1.3,4.7,1.1,9.4,3.2,13.5c0.3,0.6,1,0.8,1.3,1.5c0.2,0.5,0,0.9-0.2,1.4
	c-0.1,0.7-0.3,1.4-0.4,2.1l0.2,0.1c0.9-0.8,1.9-1.7,2.8-2.5c1.3-0.8,3-0.8,4.6-0.9c1.4,0,2.8,0,4.2,0c0.3,0,0.6,0,0.9,0.2
	c0.7,0.5,0.5,1.5,1,2.2c0.4-0.9,0.4-1.9,1-2.6c0.2-0.1,0.4-0.2,0.6-0.2c1.5,0,3,0.2,4.5,0.3c0,0,5.5,0.7,5.5,0.7
	C52.9,34.3,53.4,35.8,54.3,36.6z"/>
<path d="M55.8,45c-0.1-0.8,0.9-0.9,1.1-0.3c0.2,0.9,0.8,3.6,1,4.5c0.3,0.9-0.9,1-1.1,0.4C56.5,48.4,56,46.3,55.8,45z"/>
<path d="M60.3,48.9c0.1,0.5-0.7,0.9-1,0.5c-0.3-0.8-0.9-3.8-1.1-4.6c-0.1-0.5,0.6-0.9,1-0.5
	C59.6,45.2,60,47.9,60.3,48.9z"/>
<path d="M38.9,44.4c-0.1,0.4,0.1,3.7,0,4.2c-0.1,0.5-0.4,0.7-0.7,0.7s-0.5-0.3-0.4-0.9c0.1-0.5-0.1-3.7,0-4.2
	C37.9,43.2,39,43.3,38.9,44.4z"/>
<path d="M40.1,44.6c0-0.3,0-0.7,0.3-0.9c0.3-0.2,0.8-0.1,0.9,0.3c0,0.4,0.2,3.9,0.1,4.3c-0.1,0.6-1,0.5-1,0
	C40.3,48.1,40.2,44.8,40.1,44.6z"/>
<path d="M20.9,48.3c-0.1,0.6-1,0.6-1.1,0c-0.1-0.5-0.8-2.9-0.8-3.5c-0.1-0.7,1.1-0.8,1.1-0.1
	C20.2,45.3,20.9,47.7,20.9,48.3z"/>
<path d="M21.3,44.5c-0.1-0.7,0.6-0.8,1-0.4c0.2,0.6,0.8,3.4,0.8,4c-0.1,0.5-0.8,0.4-1,0.1
	C21.9,47.8,21.5,44.9,21.3,44.5z"/>
<path d="M39,19.3c1.4-2,3.4-4.2,6.1-3.9c2.2,0.3,3.2,3.2,2.2,5c-1.4,2.3-3.5,4.1-5.5,6c-0.6,0.5-1.2,1.2-1.8,1.7
	c-0.7,0.6-0.8,0.6-1.5-0.1c-2.6-2-6.1-4.2-6-7.9c0-1.5,1.7-2.9,3.1-2.9C37.2,17.3,38,18.5,39,19.3z"/>
</svg>
