<?xml version="1.0" encoding="utf-8"?>
<!-- Generator: Adobe Illustrator 24.3.0, SVG Export Plug-In . SVG Version: 6.00 Build 0)  -->
<svg version="1.1" id="Layer_1" xmlns="http://www.w3.org/2000/svg" xmlns:xlink="http://www.w3.org/1999/xlink" x="0px" y="0px"
	 viewBox="0 0 80 80" style="enable-background:new 0 0 80 80;" xml:space="preserve">
<style type="text/css">
	.st0{fill:#2A2B2C;}
</style>
<path class="st0" d="M69.8,53.5c-8.7,1.3-17.5,0.9-26.1,1.3c-4.7,0.4-9.4,0.1-14.1,0.4c-3.5,0.3-7-0.2-10.5-0.2
	c-0.5,0-0.7-0.2-0.6-0.8c0.1-1-0.1-1.9-0.1-3h-3.3c-0.1,3.3,0.3,6.5,0.4,9.8c0.2,0.3,0.4,0.5,0.3,0.8c-0.5,1.4-4.3,0.5-4.9-0.6
	c-0.2-0.3-0.3-0.6-0.3-0.9c0.1-1.1,0-2.1-0.4-3.1c-0.6-1.3-1.5-2.9-2.9-3.4c-3.7-0.6-3.8-3.9-2.8-6.8c0.1-0.5,0.4-0.9,0.9-1
	c2.2-1.1,4.1-3.3,4.3-5.8c0.2-1.1,0-2.3,0.3-3.3c0.7-0.8,2-1.1,3-0.9c0.3,0,0.6-0.3,0.8-0.1c0.1,0.1,0.2,0.3,0.2,0.4
	c-0.2,2.6,0.4,5.2,0.4,7.9h3.2c-0.2-5.4-0.5-10.8-0.6-16.2c0.1-0.4,0.2-0.4,0.5-0.2c0.1,0,0.2,0.1,0.2,0.1l5.6-0.7
	c8.2-0.6,16.4,0.5,24.6,0.2c3.9-0.2,7.8-0.1,11.6-0.6c0.5-0.1,0.6,0,0.7,0.5c0.9-1.3,1.8-2.6,2.6-3.9c1.1-1.8,2.7-3.2,3.9-5
	c0.9-1,1.2-2.2,2.6-2.5c2.1-0.4,4.1,2.1,3.1,4.1c-0.2,0.3-0.4,0.6-0.6,1c-0.1,0.3,0,0.6-0.2,0.8c-1.7,1.9-3,3.8-4.3,6
	c0,0,0.3,0,0.6,0c0.7,0,1,0,1.2,0c0.4-0.2,0.7-0.1,0.7,0.4c0,1.2,0,2.4,0.1,3.5c0.1,6.7,0.6,13.3,0.3,20
	C70.7,52.5,71.1,54,69.8,53.5z M19.6,54c3.3,0,6.6,0.5,9.8,0.1c6.1-0.2,12.3,0,18.4-0.5c7.3,0.2,14.6-0.5,21.9-1
	c0.4-7.9-0.5-15.9-0.2-23.8c-0.2,0-2.1-0.3-2.3-0.1c-1.7,2.1-3,4.3-4.6,6.6c-0.6,1.3-2.1,1.5-3.1,2.3c-0.7,0.4-1.9,1.5-2,0
	c0-1.1,0-2.4-0.6-3.4c-0.1-0.1-0.2-0.3-0.2-0.4c1.4-2.4,2.1-3.6,3.7-5.9c-6.1,0.7-12.3,0.6-18.5,0.7c-8-0.3-16-0.9-24,0.3l1,15.3
	c5.7-0.5,11.4-0.2,17.2-0.4c5.3-0.5,10.6,0.1,15.8,0c0.8-0.1,2.1-0.2,2,1c0,1.6,0.1,3.1,0.3,4.6c0.1,0.2,0,0.5-0.1,0.7
	c-0.2,0.2-0.4,0.3-0.7,0.3c-1.2-0.1-2.3,0.1-3.5,0.1c-3.3,0-6.8,0.3-10.1,0.4c-3.8-0.1-7.6-0.1-11.4-0.1c-3.1,0.1-6.1,0.6-9.2,0.5
	L19.6,54z M52.9,44.8l-5.9-0.1c0,0.5,0,1,0,1.4c0,0.2-0.1,0.4-0.3,0.4c-0.8-0.2-0.4-1.2-0.5-1.8h-3.7c0,1.1,0.2,2.1,0.4,3.2
	c0.1,0.5-0.1,0.7-0.3,0.7c-0.3,0-0.6-0.2-0.6-0.5c-0.3-1.2-0.4-2.3-0.3-3.5h-3.3c0,0.5,0.6,1.8-0.2,1.9c-0.7-0.3-0.5-1.2-0.7-1.8
	l-3.2,0.2c0.2,1.4,0.3,2.8,0.4,4.2c-0.1,0.4-0.6,0.5-0.9,0.2c-0.1-0.1-0.2-0.2-0.1-0.4c0-1.3-0.2-2.8-0.4-4l-2.5-0.1
	c-0.2,0-0.2,0.1-0.2,0.2c0,0.4-0.1,0.8-0.1,1.2c0,0.2-0.1,0.4-0.3,0.3c-0.7-0.3-0.2-1.2-0.2-1.8h-2.6c-0.2,1.5,0.2,2.9,0.1,4.1
	c-0.2,0.4-0.8,0.2-0.9-0.2c-0.1-1.3-0.1-2.6-0.2-3.9c-0.6,0.1-1.3-0.3-1.8,0.3c0,0-0.1,0-0.1,0l-1.1,0.3c0,0.5,0.2,0.9,0.1,1.3
	c-0.7,1.1-1.3-0.7-1.1-1.3h-3.3c-0.2,0.9,0.2,1.8,0.2,2.6c-0.1,0.3-0.4,0.4-0.7,0.3c-0.8-0.7-0.5-2-0.6-3h-2
	c-0.1,0.5,0.5,1.9-0.2,2.1c-0.3,0-0.4-0.1-0.5-0.5c0-0.6-0.1-1.1-0.1-1.7h-0.6l0.4,5.2l3-0.1c3.3,0.1,6.6-0.3,9.9-0.4
	c8.4-0.1,16.8-0.3,25.2-0.6L52.9,44.8z M70.2,22.4l0.9-1c-1-0.9-2.1-1.6-3.2-2.3l-1,1.3L70.2,22.4z M58.2,34.4l-0.1,0.1
	c0.3,0.6,0,1.5,0.8,1.7c0.2,0.1,0.3,0.1,0.4,0.2c0.1,0,0.2,0,0.2,0l1.1-0.6L58.2,34.4z M7.9,48.7c-0.2,0.5-0.3,1.7,0.4,1.8
	c0.2,0,0.4-0.1,0.5-0.2c0.1-0.5,0.3-1.1-0.3-1.4C8.5,48.8,7.9,48.7,7.9,48.7z"/>
<path class="st0" d="M24.7,38.7c4.5-0.3,8.9-0.1,13.4-0.1c6.4-0.1,12.7-0.7,19-0.6c0.5,0.2,0.4,1-0.2,1c-7.2-0.2-14.3,0.9-21.5,0.6
	c-3.1-0.1-6.5,0-9.6,0c-0.4,0-1-0.1-0.8,0.6c0.1,0.8-0.8,1.1-0.9,0.2c-0.1-0.8-0.2-1.6-0.3-2.4c0-0.3,0.1-0.5,0.3-0.5
	C24.7,37.3,24.5,38.3,24.7,38.7z"/>
<path class="st0" d="M50.4,46.2c0.7,0.1,1.4,0,1.7,0.6c0.3,0.6-0.1,1.6-0.7,1.9c-0.6,0.1-1.3-0.3-1.7-0.8
	C49.3,47.2,49.6,46.3,50.4,46.2z M51.1,47.6c0-0.1,0-0.3,0-0.4c-0.2-0.1-0.4-0.2-0.7-0.3C50.3,47.4,50.3,47.4,51.1,47.6z"/>
</svg>
