<?xml version="1.0" encoding="utf-8"?>
<!-- Generator: Adobe Illustrator 24.3.0, SVG Export Plug-In . SVG Version: 6.00 Build 0)  -->
<svg version="1.1" id="Layer_1" xmlns="http://www.w3.org/2000/svg" xmlns:xlink="http://www.w3.org/1999/xlink" x="0px" y="0px"
	 viewBox="0 0 80 80" style="enable-background:new 0 0 80 80;" xml:space="preserve">
<path d="M46.2,50.2c0,2.5,0.1,5,0.5,7.4l8.8-0.5L55,53.4c-2.6-1.2,4.3-2.7,5.1-2.8c2.8-0.2,5.9-0.6,8.4,0.8
	c0.3,0.3,0.5,0.7,0.9,0.8c0.3,0.1,0.3,0.5,0.2,0.8c-0.2,0.8-0.5,1.6-0.5,2.4c0.9-0.2,2-0.3,2.9,0.3c3.7,1.9,3.2,6,0.1,8.1
	c-1.2,0.9-2.8,0.7-4.2,0.7c1,4.2-8.8,3.2-10.9,1.8c-0.2-0.1-0.3-0.3-0.3-0.5c-0.2-1.2-0.4-2.5-0.6-3.7c0-0.3,0-0.7-0.2-0.9
	c-0.2-0.1-0.6,0-0.9,0c-9,0.2-18.1,0.3-27,0.1c0,1.8-0.2,3.5-0.3,5.3c0,0.5-0.4,0.9-0.8,1c-1.4,0.4-2.8,0.7-4.3,0.8
	c-3,0.3-5.9,1-8.9,1c-0.5,0-0.7-0.3-0.8-0.8c-0.3-2.6-0.6-5.2-0.9-7.8c-0.1-1.1-0.2-2.2-0.3-3.2c0-0.2,0-0.5,0.2-0.7
	c0.5-0.4,0.7,0,1.1,0.2c0.2,0.1,1.7-0.2,1.9-0.2c-3-3.8-5.2-8.2-6.7-12.8C8,42.6,7,41.2,7.2,39.7c1-1.9,5.5,4.3,6.3,5.1
	c-0.3-2.8-0.4-5.4-0.5-8.2c0.1-2.9,1.3-5.6,2.1-8.4c0.1-0.3,0.4-0.5,0.7-0.4c0.3,0,0.6,0.3,0.6,0.6c0.6,4.7,2,9.3,3.1,13.9l1.2-3.7
	c0.6-1.2,1.1-2.5,1-3.9c-0.1-2.2,0-4.4-0.1-6.7c0-1.9-0.1-3.7-0.4-5.5c-0.1-0.5,0.2-1.1,0.6-1.4c3.1-2.3,7.2-2,10.8-2.4
	c4.7-0.3,9.5-0.5,14.2-0.7c4-0.2,7.9-0.4,11.8-0.7c1,0.1,2-0.3,3-0.1c1,0.4,1.7,1.4,2,2.4c1.6,4.3,0.5,9,0.6,13.5
	c0,2.6,0.2,5.2,0.5,7.8c0.2,1.7,0.4,3.3,0.4,5c0.1,1-0.4,1.9-1.2,2.5c-1.7,1-3.5,1.6-5.4,1.7C54.4,50.3,50.3,50.4,46.2,50.2z
	 M24.9,46.3L24.9,46.3c0.5-0.5,0.8-1,1.2-1.5c0.4-0.5,0.7-0.7,0.4-1.2c0-6-0.9-11.9-0.7-17.9c0.1-0.7,0-1.6,0.4-2.2
	c0.1-0.1,0.2-0.2,0.4-0.2C37.6,21.6,48.8,21.9,60,22c1.5,0,0.9,1.6,0.9,2.5c0,4.9,0,9.8-0.1,14.7c0,1.6-0.2,3.1-0.3,4.7
	c0,0.3-0.2,0.6-0.5,0.7c-9.3,0.7-18.8,0.4-28.1,1c-0.9,0.1-1.8,0.2-2.7,0.4c-0.2,0-0.4,0.1-0.4,0.4c-0.1,0.7-0.3,1.4-0.3,2.1
	c5.8,0,11.5,0.5,17.3,0.3C50,49,54.3,49,58.7,48.7c1.8-0.2,4.1-0.5,5.2-2c0.3-1.4,0-2.8-0.1-4.2c-0.5-3.2-0.7-6.4-0.7-9.6
	c-0.2-4.6,1.1-9.4-0.9-13.7c-0.6-1.5-2.5-0.5-3.7-0.6c-4.2,0.3-10.5,0.7-14.7,0.9c-5.4,0.2-10.9,0.4-16.3,1
	c-1.6,0.1-3.2,0.6-4.6,1.5c-0.6,0.4-0.5,0.4-0.3,1c0.2,0.4-0.1,0.7-0.2,1.1c0.1,3.1,0.5,6.3,0.4,9.5c0.3-0.5,0.4-1.1,0.8-1.4
	c1.1-0.4,0.9,0.8,0.9,1.5C24.4,37.8,24.6,42.1,24.9,46.3z M56.3,53.7c0.4,3.6,0.9,7.2,1.5,10.8c0.2,1.2,0,1.1,1.3,1.4
	c1.7,0.4,6.9,1,7.6-0.9c0-0.3-0.1-0.5,0-0.8c0.6-3.3,0.9-6.8,1.4-10.1c-2.9,0.3-5.7,0.2-8.6,0.1C58.4,54.3,57.3,54.1,56.3,53.7z
	 M28,50c-0.4,2-0.5,4.1-1.4,5.9l0.6,0.1c1.3,0.1,1,1.4,1,2.3l12.5-0.5l-0.2-7.7C36.3,50.2,32.1,49.6,28,50z M33.4,44.2L33.4,44.2
	c0.8,0,1.7-0.3,2.5-0.4c1-0.7,1.6-1.9,2.5-2.8c4.5-5.8,10.2-11.1,15.6-16.2c0.4-0.3,0.3-0.8,0.1-1.2c0-0.2-0.1-0.3-0.2-0.4
	c-0.6-0.4-1.3-0.1-2-0.2c-0.5,0-0.9,0-1.4,0c-1.1,0.4-1.7,1.6-2.5,2.4c-1.9,2.7-4.7,4.8-6.9,7.2c-3.5,3.3-6,7.4-9.3,10.8
	c-0.7,0.6-0.2,1.4,0.7,1.1C32.5,44.4,33.4,44.2,33.4,44.2z M15.6,31.5L15.6,31.5c-2.3,5.2-0.8,10.9-0.5,16.3
	c1.6,2.8,2.3,5.4,3.4,7.7c0.6,0.1,0.7,0.6,0.5,1.1l0.9-0.1c-0.2-3.7-0.4-7.5-1.1-11.2C17.8,40.6,16.5,36.1,15.6,31.5z M58.9,24.7
	c0.1-0.3-0.2-0.5-0.5-0.7c-0.5-0.4-0.7-0.4-1.1,0c-4.2,5-8.5,9.9-13,14.7c-1.2,1.2-2.3,2.4-3.4,3.7c-0.6,0.5-0.2,1.4,0.6,1.3
	c0.5,0,1.1,0.2,1.6,0c0.1,0,0.2-0.1,0.4-0.1c0.2,0,0.4-0.1,0.5-0.2c3.7-3.7,6.7-8.1,10.5-11.8C56.3,29.7,58.7,27.6,58.9,24.7z
	 M23.3,35.5h-0.1c-1.1,2.5-2.4,5-2.9,7.7c-0.2,0.6-0.2,1.1-0.2,1.7c0.6,3.7,0.8,7.5,1,11.3l1.6-0.2C24.4,49.3,23.1,42.4,23.3,35.5z
	 M17.5,56.5c-2.1-5.5-4.2-11.4-8.9-15.4c1.6,5.3,3.8,10.5,7.2,14.8C16.1,56.6,16.9,56.9,17.5,56.5z M41.7,50.1l0.2,7.7l3.5-0.1
	l-0.5-7.5H41.7z M28.1,60.1c9.2,0.1,18.6,0.1,27.7-0.1l-0.2-1c-9.2,0.7-18.4,0-27.5,0.8V60.1z M27.8,44.2L27.8,44.2
	c-1,1.1-1.8,2.2-2.7,3.3c-0.1,0.1-0.2,0.3-0.2,0.5c0,2.7-0.4,5.3-0.8,7.9c0.4-0.2,0.8,0.1,1.1-0.3c0.5-0.6,0.9-1.4,1-2.2
	C26.8,50.4,27.4,47.4,27.8,44.2z M68.8,58c1.9-0.6,3.9,0.7,3.2,2.8c-0.5,1.7-2.4,2-3.9,2.4c1.3,0.1,2.8,0.2,3.8-0.9
	c0.9-0.9,1.8-2.3,1.3-3.7c-0.7-1.5-2.5-2.9-4.1-2C68.7,57,68.9,57.7,68.8,58L68.8,58z M56.7,52.8V53c1.1,0.5,2.1-0.1,3.2-0.4
	c1.9-0.3,3.8-0.3,5.6-0.2c0.6,0,1.1,0.2,1.6,0.5c0.2,0.1,0.5,0.2,0.6-0.1c0.1-0.2,0-0.4-0.2-0.5C64,51.2,60.2,51.8,56.7,52.8z
	 M68.2,61.9l0.1,0.1c1.1-0.5,2.9-0.8,2.6-2.4c-0.2-0.9-1.5-0.9-2.2-0.6c0,0-0.1,0.1-0.1,0.2L68.2,61.9z"/>
</svg>
