<?xml version="1.0" encoding="utf-8"?>
<!-- Generator: Adobe Illustrator 24.3.0, SVG Export Plug-In . SVG Version: 6.00 Build 0)  -->
<svg version="1.1" id="Layer_1" xmlns="http://www.w3.org/2000/svg" xmlns:xlink="http://www.w3.org/1999/xlink" x="0px" y="0px"
	 viewBox="0 0 80 80" style="enable-background:new 0 0 80 80;" xml:space="preserve">
<path d="M37,70.9c-7.2,0.6-14.5,0-21.8,0.2c-2.9,0.1-6.2,0.6-8.6-1.3c-1.7-2.3,1.5-4.3,3.4-5.1c-1.5-1-2.1-3.2-0.7-4.5
	c1.4-1.6,3.7-1.9,5.7-2c1.9-0.1,3.9,0,5.8,0.5c-1.9-3,1.6-5.4,4.4-5.4c2.3,0.2,5.3,0.3,7.1,1.3c-0.2-3.3,3.7-4.8,6.4-3.5
	c1.4,0.5,2.9,1.7,2.7,3.3c0.3-0.2,0.8-0.2,0.9-0.6c0-2.7,0-5.4,0.2-8.1c0-0.7,0.3-6,0.4-6.5c-2.2,2.6-6.2,1-7.8-1.4
	c-0.9-1.5-0.7-3.3-0.5-4.9c-2.1,0.5-3.9-1.3-4.5-3.2c-0.8-2.6,0.9-5.2,2.9-6.7c-2.1-1.1-2.7-4.2-0.9-5.8c2.1-2,5.1-3.5,8-2.6
	c-0.1-1.2,0.1-2.6,1-3.5c1.8-1.8,5.6-2.1,6.9,0.5c3.2-1.9,7-1.1,7.7,2.9c2-0.5,3.6,1.3,4.1,3c0.6,1.6-0.2,3.2-0.5,4.8
	c4.2,0.6,3.7,6.4,0.5,8.1c1.7,1.6,0.6,4.3-1,5.6c-1.5,1.4-3.7,1.2-5.6,1.3c-0.2,0.7-0.3,1.6-0.9,2.1c-0.3,0.3-0.6,0.5-1,0.7
	c-0.1,0-0.3,0.2-0.3,0.3c-0.4,3.5-0.5,7-0.3,10.5c-0.2,3.2-0.2,6.2-0.1,9.4c1.7,1.1,4,3.1,2.5,5.3l1.7,0.5c1.2,0.2,2,1.2,2.1,2.4
	c1.3,0,5.8,0.2,7.1,0.3c0.1,0,0.2,0,0.3-0.1c0.4-0.5,0.9-1,1.5-1.3c0.1,0,0.1-0.2,0.1-0.3c-0.2-2.2-0.3-4.4-0.4-6.7
	c-0.1-4.1-0.3-8.2-0.3-12.3c-1.3,0-2.7,0-3.9-0.6c-0.5-0.5-0.3-1.4,0.3-1.8c2-1,4.4-0.4,6.4,0c0.5,0.1,0.8,0.5,0.8,1
	c0.2,0.9,0.2,1.8,0.1,2.7c-0.2,0.7-0.1,1.9-1.1,1.8c0,5,0.4,9.9,0.9,14.8c-0.1,0.6,0.5,1.4,0,1.8c0.9,0.6,1.8,1.3,1.9,2.6
	c-0.1,2.4-1.3,4.2-3.9,4.6c-1.6,0.3-3.1-1-3.4-2.5c-0.2-0.3-0.7-0.3-1-0.4c-2.3-0.1-4.6-0.2-6.8-0.3c-3.2,0-6.5-0.1-9.7-0.3
	c1,1.5-0.9,3.1-2.3,3.5c-2.3,0.8-5.8-1.3-4.8-4L37,70.9z M35.3,34.1h-0.1c-0.1,1.6,0.2,3.3,1.6,4.2c2.1,1.3,5,2,5.9-1
	c0.6-0.5,1,0.4,1.4,0.7c0.8,1.3,2.2,2.1,3.7,1.9c1.7-0.1,5.3-0.5,4.3-2.9c-0.2-0.5,0.3-0.7,0.7-0.6c2.7,0.5,6.3-0.3,6.9-3.5
	c0.2-0.6,0-1.3-0.5-1.7c-0.2-0.2-0.5-0.2-0.8-0.5c-0.4-0.6,0.5-0.8,0.9-1.1c1.8-1.1,2.8-3.9,1.4-5.6c-0.3-0.6-0.9-0.9-1.6-0.8
	c-0.3,0-0.6,0.3-0.9,0.2c-0.3,0-0.4-0.4-0.2-0.6c0.9-1.5,1.4-3.4,0.9-5.1c-0.4-1.7-2.8-3.6-4-1.5c-0.3,0.5-1.1,0.1-0.8-0.4
	c0.4-0.6,0.8-1.3,0.4-2c-0.6-1.2-1.5-2.4-3-2.3c-1.3,0-2.7,0.4-3.7,1.2c-0.3,0.2-0.5,0.2-0.6,0c-0.2-0.2-0.2-0.4,0-0.6
	c0.2-0.3,0.2-0.4,0-0.6c-1.4-1.3-3.6-1.2-5.1-0.1c-1.1,0.7-1.3,2.2-1.1,3.4c0.1,0.5-0.1,0.8-0.7,0.7c-1.3-0.2-2.6-0.6-3.8,0
	c-2.2,0.9-5.9,3-4.2,5.8c0.4,1,2.9,1.3,1.3,2.4c-1.8,1.3-3.5,3.6-2.8,5.9c0.5,1.6,2,3.1,3.8,2.5c0.6-0.2,0.9,0.1,0.8,0.7L35.3,34.1z
	 M55.9,68.5c-0.2-1.7-2.4-1.7-3.7-2.1c-0.2,0-0.3-0.2-0.4-0.4c-0.1-0.4,0.3-0.6,0.4-0.9c0.9-1.3-0.5-2.7-1.5-3.4
	c-1.6-1.2-3.5-1.6-5.4-1.9c-0.6-0.2-0.8-0.5-0.5-1.1c1.3-1.6,0.7-3.9-1.6-4c-0.7,0-1.3,0.2-1.8,0.6c-0.2,0.2-0.6,0.2-0.7-0.1
	c-0.1-0.1,0-0.3,0-0.5c-0.3-0.3,0-0.6-0.2-1c-1.6-3.4-8.3-3.2-7.5,1.4c0.1,0.3-0.2,0.6-0.5,0.6c-0.3,0-0.5-0.2-0.7-0.3
	c-1.9-1.1-4.2-1-6.3-1.3c-1.2-0.1-2.3,0.2-3.3,0.8c-0.9,0.5-1.4,1.6-1.2,2.5c0.1,0.7,0.9,1.2,1,2c0,0.4-0.5,0.5-0.8,0.4
	c-2.3-0.6-4.8-1-7.2-0.7c-3.2,0.1-7.2,3-2.9,5.3c0.2,0.1,0.4,0.3,0.4,0.5c-0.1,0.3-0.2,0.4-0.5,0.4c-1.7,0.4-4.3,1.5-4.1,3.5
	c0.2,0.5,0.8,0.7,1.3,0.9c3.3,1,6.7,0.2,10.1,0.4c6.1-0.1,12.2,0.5,18.3-0.1c0.7,0.1,0.9-0.5,1.3-1c0.5-0.8,1.5-1.2,2.4-1.2
	C45.6,68,50.8,68.8,55.9,68.5z M55.7,69.4c-4.5-0.1-8.9-0.3-13.4-0.6c-0.9,0-1.8-0.1-2.7,0.1c-0.6,0.3-1,0.8-1.3,1.4
	c8.2,0.8,16.6,0.7,24.8,1.2c0-0.6,0.3-1.2,0.4-1.8C61.8,69.5,57.4,69.4,55.7,69.4z M67.9,67.5c-0.6-5.3-1-10.7-1.1-16
	c-0.3,0.1-0.6,0-0.8,0.2c-0.1,0.7,0,1.5-0.1,2.2c0.1,4.5,0.3,9,0.7,13.4L67.9,67.5z"/>
<path d="M37.5,21.6c0-0.7,0.5-1.1,1.1-1.3c0.5-0.8,1.5-0.1,1.6,0.6c0.1,0.8-0.3,1.8-1,2.2
	C38.2,23.4,37.4,22.6,37.5,21.6z"/>
<path d="M39.7,26.3c0,1.6-2.6,2.3-2.7,0.4c0-0.8,0.6-2.1,1.5-1.8C39.1,25.3,39.8,25.5,39.7,26.3z"/>
<path d="M40.4,24.4c0-0.7,0.6-1.2,1.3-1c0.3,0.1,0.4,0.3,0.6,0.4c0.3,0.1,0.5,0.3,0.6,0.5c0.4,0.8-0.1,1.8-1,2
	C40.8,26.5,40.5,25.3,40.4,24.4L40.4,24.4z"/>
<path d="M52.4,25.4c1-0.3,1.1,1.1,0.7,1.7c-0.7,1.3-2.6,0.8-2.4-0.7C50.7,25.6,51.7,24.2,52.4,25.4z"/>
<path d="M54.2,27.5c0.1-1.1,1.8-2.6,2.5-1.1C57.7,27.7,54.1,29.8,54.2,27.5z"/>
<path d="M53.7,24.4c-0.8-0.1-1.4-0.7-1.2-1.3c0.1-0.9,1.2-2,2.1-1.4c0.1,0,0.1,0.2,0.1,0.2c-0.1,0.2,0.1,0.4,0.2,0.5
	C55.2,23.3,54.6,24.5,53.7,24.4z"/>
<path d="M38.4,61.6c-0.6-0.1-1.2-0.4-1.3-1c-0.1-0.8,0.7-2,1.6-1.7c0.7,0.2,0.9,1,1,1.7C39.8,61.2,39.2,61.7,38.4,61.6z
	"/>
<path d="M34.2,60.2c-1.6-0.2-1.6-2.1-0.1-2.2C35.9,58,35.8,60.3,34.2,60.2z"/>
<path d="M38.2,56.9c-0.1,1.5-2,0.9-2.3-0.2c-0.2-0.8,0.6-1.7,1.4-1.2C38,55.9,38.2,56.2,38.2,56.9z"/>
<path d="M19.8,68.2c-0.1,0.5-0.6,1.3-1.2,0.9c-0.5-0.3-1.1-0.7-0.8-1.3c0.1-0.3,0.3-0.6,0.6-0.7c0.1,0,0.2,0,0.3,0
	c0.2,0,0.4,0,0.5,0.1C19.6,67.3,19.8,67.8,19.8,68.2z"/>
<path d="M21.9,70c-0.4-0.1-1-0.2-0.9-0.7c0.1-0.5,0.4-1,0.9-1.1c0.6-0.2,1.4,0.4,1.2,1.1C23,69.7,22.4,69.9,21.9,70z"/>
<path d="M18.8,70.4c0.1,1.6-2.5,1-1.9-0.3c0.1-0.4,0.6-0.6,0.9-0.5C18.4,69.5,18.9,69.7,18.8,70.4z"/>
</svg>
