<?xml version="1.0" encoding="utf-8"?>
<!-- Generator: Adobe Illustrator 24.3.0, SVG Export Plug-In . SVG Version: 6.00 Build 0)  -->
<svg version="1.1" id="Layer_1" xmlns="http://www.w3.org/2000/svg" xmlns:xlink="http://www.w3.org/1999/xlink" x="0px" y="0px"
	 viewBox="0 0 80 80" style="enable-background:new 0 0 80 80;" xml:space="preserve">
<path d="M14.7,37.1c-2.6-5.3-1.6-11.9,3.4-15.3c1.5-1.2,3.1-2.5,5.1-2.5c2.7,0,5.6,0,8.1,1.3c0,0,2.1,1,2.1,1
	c1.6,0.8,2.9,2.1,4.2,3.4c1.2-2.3,3.5-4,5.1-6c2.1-1.9,5-2.6,7.8-2.4c3.6,0.1,8,0.9,10.1,4.1c2.4,4,2.9,8.8,2.1,13.4
	c2-2.6,5.9-3.6,8.7-1.7c2.6,1.7,3.2,5.1,3,8c-0.5,5.8-4,10.7-7.8,14.8C63,59,59.3,63.1,54.7,66c-2.2,1.4-4.6,2.7-7,3.7
	c-4.7,2-10,3.7-15.1,2.2c-4.6-1.5-9-4.9-12.8-7.7c-0.6-0.3-1.3-0.6-2-0.3c-2.2,0.8-4.4,1.8-6.6,2.5c-0.4,0.1-0.7-0.5-0.9-0.9
	c-0.5-1.3-1-2.6-1.3-4C7.6,55.2,5.9,49.1,6,42.7C8.2,40.2,11.4,37.8,14.7,37.1z M8.7,42c-0.6,0.5-0.9,1.3-0.8,2
	C8,45.2,8,46.4,8.2,47.6c0.6,5.5,2.1,10.8,3.5,16.1c0.2,0.7,0.6,0.8,1.3,0.6c1.8-0.7,2.6-1.3,4.3-2c0.9-0.2,1.9-0.1,2.8,0.2
	c9.4,6.2,14.8,12.2,26.7,6.3c7.6-2.9,13.3-8.7,18.7-14.6c3.6-3.8,6.8-8.4,7.2-13.7c0.2-2.6-0.3-5.7-2.6-7.2
	c-1.2-0.8-1.3-0.7-2.7-0.4c-2.7,0.5-4.5,2.7-5.3,5.2c-2,5-4.5,10.4-9.2,13.4c-0.1,0.1,0,0.1,0,0.1s0.1,0.1,0.1,0.1
	c3,2.7,1.9,6.7-0.3,9.4c-3,3.9-8.4,5.1-13.1,5c-4.4-0.3-8.6-2-11.9-4.9c-0.4-0.3-0.7-0.8-0.8-1.4c0-0.5,0.1-1.5,0.7-1.1
	c0.3,0.4,0.2,0.9,0.7,1.2c3,2.5,6.7,4.4,10.7,4.6c3.6,0,7.3-0.6,10.4-2.5c2.6-1.9,4.7-5.7,2.9-8.8c-0.3-0.5-0.1-0.4-0.7-0.9
	c-2.2,1.7-5.1,3.4-7.4,5c-1.6,1.1-3,2.2-4.6,3.2c-0.2,0.1-0.3,0-0.4-0.2c-0.1-0.2-0.4-0.2-0.5-0.3c-3.1-2.1-6.1-4.5-9.4-6.3
	c-5.3-3.7-10.4-8.1-13.5-13.8c-0.4-0.8-0.3-1.8-1.2-1.5C14.4,38.6,8.7,42,8.7,42z M52.8,49c1.4-1.1,2.7-2.3,3.7-3.8
	c-0.2-0.7-0.1-1.4,0-2.1c0-0.5,0.2-0.5,0.5-0.5c0.6,0.1,0.3,1,0.3,1.4h0.1l1.5-2.5c-0.5,0-0.5-0.4-0.6-0.7c-0.6-2.1-3.2-2-5-1.7
	c-5.1,1.1-4,8-3.2,11.9l2.1-1.5c-0.4-1.8-0.4-3.5-0.5-5.4c0-0.1,0.1-0.2,0.2-0.3c0.1,0.1,0.2,0.2,0.2,0.3
	C52.3,45.8,52.5,47.2,52.8,49z M28.2,50.9L28.2,50.9l-0.2-2c0-0.6-0.4-1.5,0-1.9c0.6,1,0.7,3.2,1,4.5l1.9,1.2c0-5,0-14.3-7.6-10.7
	c-1.6,0.6-2.9,2.7-1.1,3.9C24.2,47.6,26.2,49.3,28.2,50.9z M53.2,27.4c-2.2,0.3-4.6,2.4-4.2,4.7c0.2,1.1,0.6,2.4,1.7,2.9
	c0.9,0.3,1.9,0.8,2.8,0.7c1.5-0.2,3.1-1,3.4-2.6C57.5,30.7,55.9,27.5,53.2,27.4L53.2,27.4z M41.1,36.6c0,0-1.3-0.1-1.3-0.1
	c-1.3-0.1-2.5,0.8-2.9,2c-1.2,2.6,0.2,5,2.9,5.6c2.8,1,4.4-2.6,3.8-4.9c-0.1-0.3-0.2-0.6-0.4-0.9c-0.5-0.5-0.6-1-1.3-1.2
	C41.7,36.9,41.4,36.7,41.1,36.6L41.1,36.6z M29.8,34.7c0-1.1-0.7-2.2-1.1-3.2c-0.3-0.7-1.1-0.8-1.7-1.2c-2.3-0.3-4,2.1-4,4.3
	c0.2,1.9,2,3.5,3.9,3.3C28.3,37.5,29.8,36.2,29.8,34.7z M45.3,52.3c-0.3-0.6-0.6-1.3-1.1-1.8c-0.4,0-0.9,0.1-1.3,0.1
	c0,0-7,0.3-7,0.3c-0.2,0-0.3,0-0.5-0.1c-0.4,0.6-0.6,1.2-0.7,1.8c0.1,0,2.3-0.1,2.5-0.1C39.9,52.1,42.6,52.9,45.3,52.3z M35.5,50.3
	L35.5,50.3c2.7-0.1,5.5,0,8.1-0.4v-0.1C41.3,47.4,37.3,47.2,35.5,50.3z M42,53.1c-1.5-0.1-3-0.1-4.5,0c-0.1,0-0.2,0.1-0.2,0.2
	c0,0.7,0,1.5,0,2.2c1.7,0.1,3.4,0,5-0.3L42,53.1z M42.4,55.9h-5.1c0,0.3-0.1,0.6,0,0.9c0.3,0.3,0.8,0.4,1.2,0.6
	c0.5,0.1,0.4,0.5,0.9,0.7C40.3,57.5,41.9,56.7,42.4,55.9L42.4,55.9z M36.5,53.1c-0.6,0-1.4,0.1-2,0c0,0.5-0.1,1.1-0.1,1.7
	c0.5,0.5,1.3,0.7,2,0.6L36.5,53.1z M42.8,53.2l0.3,1.8c0.9-0.1,1.8-0.5,2.5-1.1c0.1-0.3-0.1-0.6-0.1-0.8L42.8,53.2z M36.5,56.3v-0.4
	H36L36.5,56.3z"/>
<path d="M53.7,31.7c-0.1-0.7-0.4-0.9,0-1.5c1.4-2.1,2,4.2,0.4,3.1"/>
<path d="M52.6,32.3c0,0.6,0.2,0.9-0.1,1c-1.4,1-1.3-2.2-1.2-3C52,28.6,52.6,31.7,52.6,32.3z"/>
<path d="M42.2,41.5c0,0.4-0.3,0.7-0.7,0.7c-0.4,0-1.1-3.5-1.1-4c0-0.2,0-0.4,0.2-0.5c0.1-0.1,0.3-0.2,0.5-0.2
	C41.5,37.4,42.2,40.9,42.2,41.5z"/>
<path d="M39.7,41.7c0.1,0.8-0.9,0.9-1.1,0.2c-0.1-0.2-0.1-3.4-0.1-3.6c0.1-0.4,0.5-0.6,0.8-0.4
	C39.6,38.2,39.7,41.5,39.7,41.7z"/>
<path d="M26.9,32.4c0.2-0.8,0.7-0.5,0.8-0.2c0.1,0.4,0.3,2.9,0.3,3.3c0,0.5-0.8,1-1,0.4"/>
<path d="M26,32.3c-0.1,0.3-0.5,3.4-0.7,3.5c-0.4,0.1-0.8-0.2-0.9-0.5c-0.1-0.4,0.4-3.7,0.7-3.7c0.1,0,0.5-0.2,0.6-0.1
	C26,31.6,26,31.6,26,32.3z"/>
</svg>
