<?xml version="1.0" encoding="utf-8"?>
<!-- Generator: Adobe Illustrator 24.3.0, SVG Export Plug-In . SVG Version: 6.00 Build 0)  -->
<svg version="1.1" id="Layer_1" xmlns="http://www.w3.org/2000/svg" xmlns:xlink="http://www.w3.org/1999/xlink" x="0px" y="0px"
	 viewBox="0 0 100 100" style="enable-background:new 0 0 100 100;" xml:space="preserve">
<path d="M98.9,80.1L57.2,7.7c-3.1-5.4-11.3-5.6-14.4,0L1.1,80.1C-2,85.5,2,92.5,8.4,92.5h83.2
	C98,92.5,102,85.7,98.9,80.1z M50.1,65c4.3,0,8,3.6,8,8c0,4.5-3.6,8-8,8c-4.5,0-8-3.5-8-8C42.1,68.6,45.6,65,50.1,65z M42.4,36.3
	c-0.2-1.2,0.9-2.3,2.1-2.3h10.9c1.2,0,2.3,1,2.1,2.3L56.3,60c-0.2,1.2-1,1.9-2.1,1.9h-8.5c-1,0-1.9-0.7-2.1-1.9L42.4,36.3z"/>
</svg>
