<?xml version="1.0" encoding="utf-8"?>
<!-- Generator: Adobe Illustrator 24.3.0, SVG Export Plug-In . SVG Version: 6.00 Build 0)  -->
<svg version="1.1" id="Layer_1" xmlns="http://www.w3.org/2000/svg" xmlns:xlink="http://www.w3.org/1999/xlink" x="0px" y="0px"
	 viewBox="0 0 100 100" style="enable-background:new 0 0 100 100;" xml:space="preserve">
<path d="M1.9,54l32,31.9c2.2,2.2,5.8,2.2,7.9,0c2.2-2.2,2.2-5.7,0-7.8L19.2,55.5h75.2c3,0,5.6-2.5,5.6-5.5c0-3-2.5-5.5-5.6-5.5H19.3
	L41.8,22c2.2-2.2,2.2-5.7,0-7.8c-1-1-2.5-1.7-4-1.7c-1.5,0-2.8,0.5-4,1.7l-32.1,32c-1,1-1.7,2.5-1.7,4C0.2,51.5,0.8,52.9,1.9,54z"/>
</svg>
