<?xml version="1.0" encoding="utf-8"?>
<!-- Generator: Adobe Illustrator 24.3.0, SVG Export Plug-In . SVG Version: 6.00 Build 0)  -->
<svg version="1.1" id="Layer_1" xmlns="http://www.w3.org/2000/svg" xmlns:xlink="http://www.w3.org/1999/xlink" x="0px" y="0px"
	 viewBox="0 0 100 100" style="enable-background:new 0 0 100 100;" xml:space="preserve">
<path d="M98.1,46l-32-31.9c-2.2-2.2-5.8-2.2-7.9,0c-2.2,2.2-2.2,5.7,0,7.8l22.6,22.5H5.6C2.5,44.5,0,47,0,50c0,3,2.5,5.5,5.6,5.5
	l75.1,0L58.2,78c-2.2,2.2-2.2,5.7,0,7.8c1.1,1,2.5,1.7,4,1.7c1.5,0,2.8-0.5,4-1.7l32.1-32c1-1,1.7-2.5,1.7-4
	C99.8,48.5,99.2,47.1,98.1,46z"/>
</svg>
