<?xml version="1.0" encoding="utf-8"?>
<!-- Generator: Adobe Illustrator 24.3.0, SVG Export Plug-In . SVG Version: 6.00 Build 0)  -->
<svg version="1.1" id="Layer_1" xmlns="http://www.w3.org/2000/svg" xmlns:xlink="http://www.w3.org/1999/xlink" x="0px" y="0px"
	 viewBox="0 0 100 100" style="enable-background:new 0 0 100 100;" xml:space="preserve">
<style type="text/css">
	.st0{fill:#231F20;}
</style>
<path class="st0" d="M12.8,35.9c-1.2,1.2-1.2,3.1,0,4l4.8,4.7c1,1.2,2.9,1.2,4,0l22.3-22.9v75.5c0,1.7,1.2,2.8,2.9,2.8h6.7
	c1.4,0,2.9-1.2,2.9-2.8V21.7l22.1,22.9c1.2,1.2,3.1,1.2,4,0l4.8-4.7c1.2-0.9,1.2-2.8,0-4L52,0.9c-1.2-1.2-2.9-1.2-4,0L12.8,35.9z"/>
</svg>
