<?xml version="1.0" encoding="utf-8"?>
<!-- Generator: Adobe Illustrator 24.3.0, SVG Export Plug-In . SVG Version: 6.00 Build 0)  -->
<svg version="1.1" id="Layer_1" xmlns="http://www.w3.org/2000/svg" xmlns:xlink="http://www.w3.org/1999/xlink" x="0px" y="0px"
	 viewBox="0 0 100 100" style="enable-background:new 0 0 100 100;" xml:space="preserve">
<path d="M84.4,12.5H75V2.3C75,1.2,73.8,0,72.7,0h-7.8c-1.4,0-2.3,1.2-2.3,2.3v10.2h-25V2.3c0-1.2-1.2-2.3-2.3-2.3h-7.8
	C26,0,25,1.2,25,2.3v10.2h-9.4c-5.3,0-9.4,4.3-9.4,9.4v68.8c0,5.3,4.1,9.4,9.4,9.4h68.8c5.1,0,9.4-4.1,9.4-9.4V21.9
	C93.8,16.8,89.5,12.5,84.4,12.5z M83.2,90.6H16.8c-0.8,0-1.2-0.4-1.2-1.2V31.2h68.8v58.2C84.4,90.2,83.8,90.6,83.2,90.6z"/>
</svg>
