<?xml version="1.0" encoding="utf-8"?>
<!-- Generator: Adobe Illustrator 25.4.1, SVG Export Plug-In . SVG Version: 6.00 Build 0)  -->
<svg version="1.1" id="Layer_1" xmlns="http://www.w3.org/2000/svg" xmlns:xlink="http://www.w3.org/1999/xlink" x="0px" y="0px"
	 viewBox="0 0 100 100" style="enable-background:new 0 0 100 100;" xml:space="preserve">
<g>
	<path d="M96.9,32.3c-2-2-4.6-3.1-7.4-3.1H81V19.1c0-2.8-1.1-5.4-3.1-7.4c-2-2-4.6-3.1-7.4-3.1H10.4
		c-2.8,0-5.4,1.1-7.4,3.1S0,16.3,0,19.1v36.4c0,2.8,1.1,5.4,3.1,7.4c2,2,4.6,3.1,7.4,3.1h5.4v25.2L44.6,66h25.9
		c2.8,0,5.4-1.1,7.4-3.1c2-2,3.1-4.6,3.1-7.4V34.3h8.5c1.4,0,2.8,0.6,3.8,1.6c1,1,1.6,2.4,1.6,3.8v31.6c0,0.7-0.1,1.4-0.4,2.1
		c-0.3,0.7-0.7,1.2-1.2,1.7c-0.5,0.5-1.1,0.9-1.7,1.2c-0.7,0.3-1.3,0.4-2.1,0.4h-7.3v13.4L63.5,76.7H41.1v5.1h20.7L87.3,100V81.8
		h2.2c1.4,0,2.7-0.3,4-0.8c1.3-0.5,2.4-1.3,3.4-2.3c1-1,1.7-2.1,2.3-3.4c0.5-1.3,0.8-2.6,0.8-4V39.7C100,36.9,98.9,34.3,96.9,32.3z
		 M75.9,55.5c0,1.4-0.6,2.8-1.6,3.8c-1,1-2.4,1.6-3.8,1.6H42.7L20.9,80V60.9H10.4c-1.4,0-2.8-0.6-3.8-1.6c-1-1-1.6-2.4-1.6-3.8V19.1
		c0-1.4,0.6-2.8,1.6-3.8c1-1,2.4-1.6,3.8-1.6h60.1c1.4,0,2.8,0.6,3.8,1.6s1.6,2.4,1.6,3.8v10.1v5.1V55.5z"/>
</g>
</svg>
