<?xml version="1.0" encoding="utf-8"?>
<!-- Generator: Adobe Illustrator 25.4.1, SVG Export Plug-In . SVG Version: 6.00 Build 0)  -->
<svg version="1.1" id="Layer_1" xmlns="http://www.w3.org/2000/svg" xmlns:xlink="http://www.w3.org/1999/xlink" x="0px" y="0px"
	 viewBox="0 0 100 100" style="enable-background:new 0 0 100 100;" xml:space="preserve">
<path fill-rule="evenodd" clip-rule="evenodd" d="M25,66.8L8.7,50.5C3.1,44.9,0,37.5,0,29.6S3.1,14.2,8.7,8.7S21.7,0,29.6,0c7.9,0,15.3,3.1,20.9,8.7L66.8,25
	l-9.1,9.1L41.4,17.8c-3.1-3.1-7.3-4.9-11.8-4.9s-8.6,1.7-11.8,4.9c-3.1,3.1-4.9,7.3-4.9,11.8s1.7,8.6,4.9,11.8l16.3,16.3L25,66.8z
	 M70.4,100c-7.9,0-15.3-3.1-20.9-8.7L33.2,75l9.1-9.1l16.3,16.3c3.1,3.1,7.3,4.9,11.8,4.9c4.5,0,8.6-1.7,11.8-4.9
	c3.1-3.1,4.9-7.3,4.9-11.8c0-4.5-1.7-8.6-4.9-11.8L65.9,42.3l9.1-9.1l16.3,16.3c5.6,5.6,8.7,13,8.7,20.9s-3.1,15.3-8.7,20.9
	C85.8,96.9,78.3,100,70.4,100z M25,34.1l9.1-9.1L75,65.9L65.9,75L25,34.1z"/>
</svg>
