<svg viewBox="0 0 16 16" fill="none" xmlns="http://www.w3.org/2000/svg">
  <path
    fill-rule="evenodd"
    clip-rule="evenodd"
    fill="black"
    d="
      M11.6766,0
      C11.1259,0,10.5978,0.218752,10.2083,0.608011
      L5.10414,5.71218
      L0,10.8163
      V15.9998
      H5.18345
      L15.3917,5.79157
      C15.7811,5.40205,15.9998,4.87384,15.9998,4.32316
      C15.9998,3.77247,15.781,3.24418,15.3916,2.85467
      L13.1451,0.608186
      C12.7556,0.218695,12.2273,0,11.6766,0
      z

      M9.9526,3.69213
      L11.6221,2.02261
      C11.6366,2.00815,11.6563,2,11.6766,2
      C11.6971,2,11.7166,2.00815,11.7309,2.02243
      L13.9773,4.2688
      C13.9917,4.28319,13.9998,4.30273,13.9998,4.32316
      C13.9998,4.3436,13.9917,4.36315,13.9773,4.37753
      L12.3076,6.04718
      z

      M8.53839,5.10635
      L10.8934,7.46139
      L4.35503,13.9998
      H2
      V11.6448
      z
    "
  />
</svg>
