<svg width="79" height="67" fill="none" xmlns="http://www.w3.org/2000/svg"><path d="M59.5 14c-.93 0-1.86.07-2.79.2C52.76 5.68 44.1 0 34.5 0 21.2 0 10.34 10.65 10.01 23.87 4.17 25.94 0 31.55 0 38c0 8.25 6.7 14.97 14.95 15L8.52 67h8.8l6.43-14h11.2l-6.43 14h8.8l6.43-14h11.2l-6.43 14h8.8l6.66-14.5C72.66 50.48 79 42.77 79 33.5 79 22.75 70.25 14 59.5 14zm.43 31H15c-3.86 0-7-3.14-7-7 0-3.64 2.84-6.7 6.47-6.97l4.19-.31-.52-4.17c-.09-.79-.14-1.44-.14-2.05C18 15.4 25.4 8 34.5 8c7.35 0 13.87 4.95 15.87 12.03l1.17 4.15 4.05-1.47c1.28-.47 2.6-.7 3.92-.7C65.84 22 71 27.16 71 33.5c0 6.23-4.86 11.27-11.07 11.5z" fill="#000"/></svg>