<svg width="79" height="53" fill="none" xmlns="http://www.w3.org/2000/svg"><path d="M60.06 53H15C6.73 53 0 46.27 0 38c0-6.45 4.17-12.06 10.01-14.13C10.34 10.65 21.2 0 34.5 0c9.6 0 18.26 5.68 22.21 14.2.92-.14 1.85-.2 2.79-.2C70.25 14 79 22.75 79 33.5c0 10.6-8.29 19.16-18.87 19.5h-.07zM34.5 8C25.4 8 18 15.4 18 24.5c0 .61.05 1.26.14 2.05l.52 4.17-4.19.31C10.84 31.3 8 34.36 8 38c0 3.86 3.14 7 7 7h44.93C66.14 44.77 71 39.73 71 33.5 71 27.16 65.84 22 59.5 22c-1.31 0-2.63.24-3.92.7l-4.05 1.47-1.17-4.15C48.37 12.95 41.85 8 34.5 8z" fill="#000"/></svg>