<svg width="73" height="73" fill="none" xmlns="http://www.w3.org/2000/svg"><path fill-rule="evenodd" clip-rule="evenodd" d="M41 0h-8v8h8V0zm-4.5 14C24.09 14 14 24.09 14 36.5S24.09 59 36.5 59 59 48.91 59 36.5 48.91 14 36.5 14zm0 37c-8 0-14.5-6.5-14.5-14.5S28.5 22 36.5 22 51 28.5 51 36.5 44.5 51 36.5 51zM8.217 13.17l5.657-5.656 5.656 5.657-5.656 5.656-5.657-5.657zM8 32H0v8h8v-8zm-.487 27.126l5.657-5.657 5.657 5.657-5.657 5.657-5.657-5.657zM40 65h-8v8h8v-8zm13.468-5.17l5.657-5.657 5.657 5.657-5.657 5.656-5.657-5.657zM73 33h-8v8h8v-8zM54.172 13.874l5.657-5.657 5.657 5.657-5.657 5.657-5.657-5.657z" fill="#000"/></svg>