<svg width="66" height="72" fill="none" xmlns="http://www.w3.org/2000/svg"><path d="M63.51 43.84l-1.55-5.8-13.49 3.62L38.68 36l9.79-5.66 13.49 3.62 1.55-5.8-7.69-2.06 9.53-5.5-3-5.2-9.53 5.51 2.06-7.69-5.79-1.56-3.62 13.49-9.79 5.65V19.49l9.87-9.87-4.24-4.24-5.63 5.63V0h-6v11.01l-5.63-5.63-4.24 4.24 9.87 9.87V30.8l-9.8-5.65-3.61-13.49-5.8 1.56 2.06 7.69L3 15.4l-3 5.2 9.53 5.5-7.69 2.06 1.56 5.8 13.48-3.62 9.8 5.66-9.8 5.66L3.4 38.04l-1.56 5.8 7.69 2.06L0 51.4l3 5.2 9.53-5.51-2.06 7.69 5.8 1.56 3.61-13.49 9.8-5.65v11.31l-9.87 9.87 4.24 4.24 5.63-5.63V72h6V60.99l5.63 5.63 4.24-4.24-9.87-9.87V41.2l9.79 5.65 3.62 13.49 5.79-1.56-2.06-7.69 9.53 5.51 3-5.2-9.53-5.5 7.69-2.06z" fill="#000"/></svg>