<svg xmlns="http://www.w3.org/2000/svg" width="578" height="163" viewBox="0 0 578 163"><path d="M560.976 101.273L543.468 78.9v22.373h-12.97V27.249h12.97V68.51l15.529-17.016h16.218l-20.584 21.878L577 101.273h-16.024zm-49.277-56.319h-10.497l9.701-15.64h14.153l-13.357 15.64zm-9.701 6.539h12.971v49.78h-12.971v-49.78zm-7.269.109l-18.992 49.671h-13.271l-18.992-49.671h13.357l12.26 34.334 12.174-34.334h13.464zm-98.36 37.989c0-10.089 7.808-14.951 19.486-18.199l10.497-2.969c0-5.442-3.657-7.723-8.108-7.723-4.646 0-8.604 2.086-8.604 7.723h-11.873c0-13.359 10.389-18.199 20.477-18.199 9.7 0 20.583 4.754 20.583 18.501v32.57h-12.28V95.55c-3.571 4.562-9.787 7.121-15.831 7.121-7.033-.022-14.347-3.484-14.347-13.08zm29.489-7.227v-4.153l-8.021 2.281c-6.927 1.979-8.798 4.84-8.798 7.529 0 2.581 1.979 4.065 4.84 4.065 4.558-.022 11.979-3.979 11.979-9.722zm-60.805 29.688h1.592c3.85 0 6.731-1.873 6.731-7.53V51.6h12.97v52.362c0 13.747-7.807 19.297-16.519 19.297h-4.753v-11.207h-.021zm7.033-76.5c0-4.152 3.463-7.723 7.808-7.723 4.259 0 7.723 3.571 7.723 7.723 0 4.346-3.464 7.809-7.723 7.809-4.345.021-7.808-3.442-7.808-7.809zm-22.475 65.721L332.102 78.9v22.373h-12.97V27.249h12.97V68.51l15.529-17.016h16.218l-20.584 21.878 22.37 27.902h-16.024zm-37.858-49.671l-28.886 71.659h-12.561l8.518-22.268-20.886-49.391h13.96l13.25 32.85 12.561-32.85h14.044zm-56.481 29.385h-34.629c.495 5.334 4.151 10.992 12.282 10.992 5.742 0 8.904-2.667 9.894-6.13h11.765c-1.979 10.281-9.7 16.822-21.875 16.822-15.745 0-25.036-11.272-25.036-26.223 0-14.736 9.786-26.224 24.349-26.224 12.668 0 23.25 8.411 23.25 24.438v6.325zm-12.175-9.014c-.192-6.238-4.452-11.079-11.271-11.079-7.119 0-10.689 5.141-11.184 11.079h22.455zm-70.526 3.076h-5.743v26.224h-13.55V32.002h22.563c17.121 0 24.24 10.778 24.24 21.47 0 8.304-4.259 16.629-14.153 19.984l15.745 27.816h-15.228l-13.874-26.223zm-5.744-12.068h7.808c7.915 0 11.765-3.657 11.765-9.508 0-5.852-3.851-9.401-11.765-9.401h-7.808v18.909z" fill="#3D3F3E"/><path d="M84.945 65.709v9.505l9.369-6.337 9.233 6.268v-9.436l-9.233-6.13-9.369 6.13zm-33.24-19.703l-7.113-5.166-9.37 6.336v9.574l9.37-6.405 7.044 5.303 7.318-5.303 9.37 6.405v-9.574l-9.37-6.336-7.249 5.166zm42.609-5.3l-9.369 6.13v9.505l9.369-6.337 9.233 6.337v-9.505l-9.233-6.13zM9.165 31.2l9.37 6.268V23.693h16.688v13.913l9.37-6.406 7.044 5.303 7.318-5.303 9.37 6.406V23.693h16.62v13.775l9.369-6.268 9.233 6.268V0H85.013v15.359h-16.62V0H35.086v15.359H18.535V0H0v37.468L9.165 31.2zm0 37.674l9.37 6.268v-9.505l-9.37-6.13L0 65.706v9.436l9.165-6.268zm9.37-12.533v-9.505l-9.37-6.13L0 46.836v9.437l9.165-6.268 9.37 6.336zm75.779 22.038l-9.369 6.13v52.551c9.985-11.296 17.234-24.863 18.535-39.328V84.438l-9.166-6.059zm-75.779 6.13l-9.37-6.13L0 84.509V97.8c1.299 14.465 8.549 28.103 18.535 39.468V84.509zm49.79.964l-9.37-6.267-7.181 5.165-7.182-5.165-9.438 6.267-.068 66.879c5.334 3.856 10.942 7.231 16.482 9.779 5.677-2.618 11.354-5.991 16.756-9.986m.001-85.819l-9.37-6.268-7.25 5.166-7.113-5.166-9.438 6.268v9.643l9.438-6.475 7.044 5.304 7.318-5.304 9.37 6.475" fill="#0376E1"/></svg>