<svg version="1.1" id="Layer_1" xmlns="http://www.w3.org/2000/svg" x="0" y="0" viewBox="0 0 578 163" xml:space="preserve"><style>.st0{fill:#3d3f3e}.st1{fill:#0376e1}</style><path class="st0" d="M561 101.3l-17.5-22.4v22.4h-13v-74h13v41.3l15.5-17h16.2l-20.6 21.9 22.4 27.9h-16zM511.7 45h-10.5l9.7-15.6h14.2L511.7 45zm-9.7 6.5h13v49.8h-13V51.5zm-7.3.1l-19 49.7h-13.3l-19-49.7h13.4l12.3 34.3 12.2-34.3h13.4zm-98.3 38c0-10.1 7.8-15 19.5-18.2l10.5-3c0-5.4-3.7-7.7-8.1-7.7-4.6 0-8.6 2.1-8.6 7.7h-11.9c0-13.4 10.4-18.2 20.5-18.2 9.7 0 20.6 4.8 20.6 18.5v32.6h-12.3v-5.7c-3.6 4.6-9.8 7.1-15.8 7.1-7.1-.1-14.4-3.5-14.4-13.1zm29.5-7.2v-4.2l-8 2.3c-6.9 2-8.8 4.8-8.8 7.5 0 2.6 2 4.1 4.8 4.1 4.5 0 12-4 12-9.7zm-60.8 29.7h1.6c3.9 0 6.7-1.9 6.7-7.5v-53h13V104c0 13.7-7.8 19.3-16.5 19.3h-4.8v-11.2zm7-76.5c0-4.2 3.5-7.7 7.8-7.7s7.7 3.6 7.7 7.7c0 4.3-3.5 7.8-7.7 7.8-4.4 0-7.8-3.5-7.8-7.8zm-22.5 65.7l-17.5-22.4v22.4h-13v-74h13v41.3l15.5-17h16.2l-20.6 21.9 22.4 27.9-16-.1zm-37.8-49.7l-28.9 71.7h-12.6l8.5-22.3-20.9-49.4h14l13.2 32.8 12.6-32.8h14.1zM255.3 81h-34.6c.5 5.3 4.2 11 12.3 11 5.7 0 8.9-2.7 9.9-6.1h11.8c-2 10.3-9.7 16.8-21.9 16.8-15.7 0-25-11.3-25-26.2 0-14.7 9.8-26.2 24.3-26.2 12.7 0 23.2 8.4 23.2 24.4V81zm-12.2-9c-.2-6.2-4.5-11.1-11.3-11.1-7.1 0-10.7 5.1-11.2 11.1h22.5zm-70.5 3h-5.7v26.2h-13.6V32h22.6c17.1 0 24.2 10.8 24.2 21.5 0 8.3-4.3 16.6-14.2 20l15.7 27.8h-15.2L172.6 75zm-5.8-12h7.8c7.9 0 11.8-3.7 11.8-9.5 0-5.9-3.9-9.4-11.8-9.4h-7.8V63z"/><path class="st1" d="M84.9 65.7v9.5l9.4-6.3 9.2 6.3v-9.4l-9.2-6.1-9.4 6zM51.7 46l-7.1-5.2-9.4 6.3v9.6l9.4-6.4 7 5.3 7.3-5.3 9.4 6.4v-9.6L59 40.8 51.7 46zm42.6-5.3l-9.4 6.1v9.5l9.4-6.3 9.2 6.3v-9.5l-9.2-6.1zM9.2 31.2l9.4 6.3V23.7h16.7v13.9l9.4-6.4 7 5.3 7.3-5.3 9.4 6.4V23.7H85v13.8l9.4-6.3 9.2 6.3V0H85v15.4H68.4V0H35.1v15.4H18.5V0H0v37.5l9.2-6.3zm0 37.7l9.4 6.3v-9.5l-9.4-6.1L0 65.7v9.4l9.2-6.2zm9.3-12.6v-9.5l-9.4-6.1L0 46.8v9.4L9.2 50l9.3 6.3zm75.8 22.1l-9.4 6.1v52.6c10-11.3 17.2-24.9 18.5-39.3V84.4l-9.1-6zm-75.8 6.1l-9.4-6.1L0 84.5v13.3c1.3 14.5 8.5 28.1 18.5 39.5V84.5zm49.8 1L59 79.2l-7.2 5.2-7.2-5.2-9.4 6.3-.1 66.9c5.3 3.9 10.9 7.2 16.5 9.8 5.7-2.6 11.4-6 16.8-10m-.1-85.9L59 60.1l-7.2 5.2-7.1-5.2-9.4 6.3V76l9.4-6.5 7 5.3 7.3-5.3 9.4 6.5"/></svg>