<svg version="1.1" id="Layer_1" xmlns="http://www.w3.org/2000/svg" x="0" y="0" viewBox="0 0 106 166" xml:space="preserve"><style>.st0{fill:#0376e1}</style><path class="st0" d="M87 67.3V77l9.6-6.5 9.5 6.4v-9.7L96.5 61 87 67.3zM52.9 47.1l-7.3-5.3-9.6 6.5v9.8l9.6-6.6 7.2 5.4 7.5-5.4 9.6 6.6v-9.8l-9.6-6.5-7.4 5.3zm43.6-5.4L87 47.9v9.7l9.6-6.5 9.5 6.5v-9.7l-9.6-6.2zM9.4 31.9l9.6 6.4v-14h17.1v14.2l9.6-6.6 7.2 5.4 7.5-5.4 9.6 6.6V24.3h17v14.1l9.6-6.4 9.5 6.4V0H87v15.7H70V0H35.9v15.7H19V0H0v38.4l9.4-6.5zm0 38.6l9.6 6.4v-9.7l-9.6-6.3L0 67.3V77l9.4-6.5zM19 57.7V48l-9.6-6.3L0 47.9v9.7l9.4-6.4 9.6 6.5zm77.5 22.5L87 86.5v53.8c10.2-11.6 17.6-25.5 19-40.3V86.4l-9.5-6.2zM19 86.5l-9.6-6.3L0 86.5v13.6c1.3 14.8 8.8 28.8 19 40.4v-54zm50.9 1l-9.6-6.4-7.3 5.3-7.4-5.3-9.6 6.4-.1 68.5c5.5 3.9 11.2 7.4 16.9 10 5.8-2.7 11.6-6.1 17.2-10.2m-.1-87.9l-9.6-6.4-7.4 5.3-7.3-5.3-9.6 6.4v9.9l9.7-6.6 7.2 5.4 7.5-5.4 9.6 6.6"/></svg>