<svg xmlns="http://www.w3.org/2000/svg" width="106" height="166"><path fill="#0376E1" d="M86.957 67.266v9.73l9.591-6.487L106 76.926v-9.66l-9.452-6.275-9.591 6.275zM52.93 47.097l-7.281-5.288-9.592 6.486v9.801l9.592-6.557 7.211 5.429 7.492-5.429 9.592 6.557v-9.801l-9.592-6.486-7.422 5.288zm43.619-5.427l-9.591 6.275v9.73l9.591-6.487L106 57.676v-9.73l-9.451-6.276zM9.383 31.939l9.591 6.417V24.254h17.083v14.243l9.592-6.558 7.211 5.429 7.492-5.429 9.592 6.558V24.254h17.013v14.102l9.591-6.417L106 38.356V0H87.028v15.723H70.014V0H35.918v15.723H18.974V0H0v38.356l9.383-6.417zm0 38.566l9.591 6.417v-9.73l-9.591-6.275L0 67.263v9.659l9.383-6.417zm9.591-12.829v-9.73L9.383 41.67 0 47.946v9.66l9.382-6.417 9.592 6.487zm77.575 22.56l-9.591 6.275v53.796c10.222-11.563 17.643-25.453 18.974-40.261V86.439l-9.383-6.203zm-77.575 6.276l-9.591-6.275L0 86.512v13.605c1.33 14.808 8.752 28.769 18.974 40.403V86.512zm50.97.986l-9.592-6.416-7.351 5.287-7.352-5.287-9.662 6.416-.07 68.464c5.461 3.947 11.202 7.402 16.873 10.011 5.811-2.68 11.623-6.133 17.153-10.223m.001-87.853l-9.592-6.416-7.422 5.288-7.281-5.288-9.662 6.416v9.872l9.662-6.628 7.211 5.43 7.492-5.43 9.592 6.628"/></svg>