<svg version="1.1" id="Layer_1" xmlns="http://www.w3.org/2000/svg" x="0" y="0" viewBox="0 0 112 172.3" xml:space="preserve"><style>.st0,.st1{transition:all var(--logo-transition)}.st0{fill:var(--logo-background-color, #FFFFFF);stroke:var(--logo-background-color, #FFFFFF);stroke-width:5.8642;stroke-miterlimit:10}.st1{fill:var(--logo-fill-color, #0376E1)}</style><path class="st0" d="M3 3v100.1c5.1 40.8 44.7 62.4 52.8 65.9 25.1-12.5 48.1-33.1 53.2-66V3H3z"/><path class="st1" d="M90 70.3V80l9.6-6.5 9.5 6.4v-9.7L99.5 64 90 70.3zM55.9 50.1l-7.3-5.3-9.6 6.5v9.8l9.6-6.6 7.2 5.4 7.5-5.4 9.6 6.6v-9.8l-9.6-6.5-7.4 5.3zm43.6-5.4L90 50.9v9.7l9.6-6.5 9.5 6.5v-9.7l-9.6-6.2zm-87.1-9.8l9.6 6.4v-14h17.1v14.2l9.6-6.6 7.2 5.4 7.5-5.4 9.6 6.6V27.3h17v14.1l9.6-6.4 9.5 6.4V3H90v15.7H73V3H38.9v15.7H22V3H3v38.4l9.4-6.5zm0 38.6l9.6 6.4v-9.7l-9.6-6.3L3 70.3V80l9.4-6.5zM22 60.7V51l-9.6-6.3L3 50.9v9.7l9.4-6.4 9.6 6.5zm77.5 22.5L90 89.5v53.8c10.2-11.6 17.6-25.5 19-40.3V89.4l-9.5-6.2zM22 89.5l-9.6-6.3L3 89.5v13.6c1.3 14.8 8.8 28.8 19 40.4v-54zm50.9 1l-9.6-6.4-7.3 5.3-7.4-5.3-9.6 6.4-.1 68.5c5.5 3.9 11.2 7.4 16.9 10 5.8-2.7 11.6-6.1 17.2-10.2m-.1-87.9l-9.6-6.4-7.4 5.3-7.3-5.3-9.6 6.4v9.9l9.7-6.6 7.2 5.4 7.5-5.4 9.6 6.6"/></svg>