<?xml version="1.0" encoding="utf-8"?>
<!-- Generator: Adobe Illustrator 24.3.0, SVG Export Plug-In . SVG Version: 6.00 Build 0)  -->
<svg version="1.1" id="Layer_1" xmlns="http://www.w3.org/2000/svg" xmlns:xlink="http://www.w3.org/1999/xlink" x="0px" y="0px"
	 viewBox="0 0 80 80" style="enable-background:new 0 0 80 80;" xml:space="preserve">
<path d="M34.6,55.7C24.8,56.2,8.5,52,8.3,40c0.2-3.6,2.6-6.5,5.4-8.6c0.9-1.3,0.4-3.2,0.7-4.7c-3.2,0.4-6.5,0.4-9.5-1
	c-2.2-1-5.1-3-3.7-5.7c3.3-7.8,14.9-19.3,23-11.1C27.4,6.6,31.1,6,34.9,6c3.6-0.5,6.4,1.2,9.1,3.1c3-2.6,8-2.8,10.9,0.1
	c3.2,3.4,6.4,7.3,7.5,12c0.4,4.7-4.9,6.8-8.6,7.9c-0.7,0.3-1.3-0.3-2-0.5c0,1.6,0,2.7-0.2,4.3c0,0.3,0.2,0.7,0.4,0.9
	c2.2,1.9,3.6,4.6,4,7.4c3.5,0.4,7.2,0.6,10.4,2.2c1.2-2,2.2-4.1,3.6-5.9c0.2-0.3,0.5-0.5,0.9-0.6c1.2-0.1,2.1,1.1,2.3,2.1
	c0.5,2.5,1.1,4.9,1.7,7.4c0.9,0.7,1,1.8,1.3,2.8c0.7,2.2,1.3,4.5,1.7,6.8c0.7,5.6,1.6,15.4-5.4,17.2c-8.3,2.5-17.2,2.5-25.8,1.1
	c-4.2-1.1-8.6-3.3-11.4-6.6C33.4,64.1,34,59.6,34.6,55.7z M42.5,40.1c-0.9,1.5-1.6,3.1-2,4.8c-0.1,0.3-0.2,0.6-0.4,0.8
	c-0.5,0.4-0.9,1.1-1,1.7c-1.5,5.3-2.9,10.9-2.4,16.5c0,3.3,3.5,4.6,5.8,6.1c1.5,0.9,3.1,1.5,4.8,1.8c4.6,0.6,9.3,1.2,13.9,0.7
	c3.5-0.2,6.9-0.8,10.2-1.7c1.9-0.4,3.4-2,3.7-3.9c1.1-5.4,0.5-10.9-1.2-16.1c-0.4-1.5-0.6-3.1-1.6-4.3c-0.6-1.9-1.2-3.9-1.6-5.9
	c-0.9,1.6-2.3,2.9-2.9,4.6c0.1,0.8-0.7,1.5-1.5,1.4c-4.6-2.8-10.3-3.2-15.6-2.3c-1.4,0-2.3,1-3.4,1.7C44.7,46.9,43.9,41.9,42.5,40.1
	z M36.7,47.2c1.2-2.2,3.3-10,5.9-10c2.2,1.1,2.9,4,4.3,5.9c1.9-1.3,4.1-1.5,6.2-1.7c-0.2-2.7-2.3-4.6-3.7-6.7
	c-0.6-0.6-0.8-1.6-0.5-2.4c0.7-5.9-0.1-12-3.1-17.2c-1.5-2.7-3.9-4.8-6.8-6c-0.5-0.3-1,0.1-1.5,0c-8.3-3.2-17.9,4.7-19.8,12.7
	c0.9-2.6,8-8.2,10.2-4.8c3.7,3.8,6.2,9.2,4.7,14.5c9.1-0.3,6.3,4.6,1.4,8.7c-0.7,1-0.1,2.5-0.2,3.7C34.3,45.3,35.7,46.1,36.7,47.2z
	 M27.9,36.7c-5.6,0.8-10,0.1-11.2-6.2c-0.2,0.6,0.2,1.2-0.2,1.7c-0.7,1.2-2.2,1.6-3,2.6c-6.7,6,0.5,13.8,7,15.9
	c0.6,0.3,1.2,0.5,1.6,0.6c0.6-0.5,1.1-0.9,1.6-1.2c2.6-1.6,5-3.4,7.4-5.4c0.6-1.1,0.1-2.7,0.3-4C30.2,39.5,28.8,38.5,27.9,36.7z
	 M14.8,24c0.6-5.4,3.5-10.5,7.9-13.8C19.8,8,16,8.1,13.1,10.1c-3.9,2.8-7.7,6.1-9.5,10.7c-0.3,0.7-0.3,1,0.3,1.3
	C7.1,24.6,11,24.7,14.8,24z M25.1,18.5c-2.3,1.2-4.4,2.5-5.2,5.1c-1,3.4-1.7,9.3,2.5,10.7c1.5,0.3,3.2,0.4,4.6-0.2
	c0.3-0.5,0.4-1.2,1-1.5c0.5-0.5,1.1-0.6,1.7-0.8c2.3-4.1-0.1-8.8-2.8-12.1C26.1,19.4,25.4,19.5,25.1,18.5z M24.9,52.2
	c0.1,0,6.3,0.9,6.4,0.9c0.1,0,0.1,0,0.2,0c0-0.2,0.1-0.3,0.2-0.3c1,0.2,2.1,0.2,3.1,0.3c0.2,0,0.3-0.1,0.4-0.3
	c0.2-0.9,0.5-1.8,0.6-2.8c-0.1-1-1.4-1.4-1.9-2.1v0.2c-0.9,0.2-1.9-0.2-2.6,0.5l-0.1-0.5L24.9,52.2z"/>
<path d="M55,66.3c0.1-0.6-0.2-1.3-0.7-1.7c-0.9-1.1-2.1-2.2-2.7-3.5c0-0.9,1.1-1.9,1.9-2c0.8,0,1.4,0.8,1.9,1.2
	c0.7,0.8,1.4-0.4,2.1-0.6c1-0.7,2.7-0.6,2.8,0.8c-0.1,1.9-1.7,3.2-2.9,4.4c-0.2,0.8,0.1,1.7,0.2,2.6c1,0.2,1.9,0.8,3,0.8
	c0.3,0,0.6,0.2,0.8,0.4c0.6,0.6,0.4,1.6-0.4,1.9c-1.2,0.2-2.6-0.3-3.7-0.8c-1.5-0.4-2.8,0.8-4.3,0.6c-1.2-0.1-3.9-0.4-3.3-2.2
	c0.2-0.6,1-0.9,1.5-0.6c1,0.4,2,0.4,3,0.2C55,67.8,55.1,67.3,55,66.3z"/>
<path d="M72,60.4c-0.5,1.9-3.4,1.9-4.8,2.9c-0.9,0.6-2.2-0.5-1.6-1.5c1.2-1.4,3.1-1.7,4.7-2.6C71.1,58.9,72.1,59.5,72,60.4z"/>
<path d="M48.3,55.3c-0.2,3.1-4,2.4-4-0.4C44.7,51.7,48.2,52.3,48.3,55.3z"/>
<path d="M65.2,56.8c-2.3,0.1-2.7-3.4-0.7-4.1c1.5-0.5,2.4,1.2,2.7,2.4C67.5,56.3,66.2,56.8,65.2,56.8z"/>
<path d="M43.7,62.3c-0.8-0.1-1.7-0.2-2.5-0.3c-1.9-0.2-2-2.8,0-2.5c0,0,2.2,0.4,2.2,0.4c0.6,0,1.3,0,1.7,0.4
	C46.1,61.4,45,62.4,43.7,62.3L43.7,62.3z"/>
<path d="M45.1,62.7c0.8-0.1,1.5,0.7,1.2,1.5c-0.8,1.1-2.4,1.4-3.5,2.1c-1.2,0.7-2.4-1-1.3-1.9C42.5,63.5,43.8,63.1,45.1,62.7z"/>
<path d="M68.1,64c1.3,0.6,5,0.9,3.6,3.1c-1.1,1-2.5-0.8-3.8-0.7c-1.5-0.2-1.2-2.3,0.2-2.2L68.1,64z"/>
<path d="M43.8,27.4c-0.6,3.7-5.6,3.4-5.7-0.5c-0.2-2.2,2.1-4.1,4.1-2.7C43.1,25,43.5,26.3,43.8,27.4z"/>
<path d="M21.8,27.2c0-1.2,1-2.6,2-3.2c2.2-0.7,3.7,1.9,3.5,3.8C26.7,31.9,22.1,30.8,21.8,27.2z"/>
</svg>
