<?xml version="1.0" encoding="utf-8"?>
<!-- Generator: Adobe Illustrator 24.3.0, SVG Export Plug-In . SVG Version: 6.00 Build 0)  -->
<svg version="1.1" id="Layer_1" xmlns="http://www.w3.org/2000/svg" xmlns:xlink="http://www.w3.org/1999/xlink" x="0px" y="0px"
	 viewBox="0 0 80 80" style="enable-background:new 0 0 80 80;" xml:space="preserve">
<path d="M59.4,65.2c-9.5-1.7-5.7-15.8,2.6-15.8c0.3,0,0.5-0.1,0.6-0.4c1.2-3.1,4.3-5.2,7.6-5.3c10,0.2,10.2,14.8,0.7,16.3
	c-0.9,0.2-1.9-0.1-2.8,0C66.1,63.3,63.4,65.7,59.4,65.2z M60.4,62.7c3.2,0.2,5.5-3.2,5.8-6.1c0.4-2.6-2.4-4.2-4.4-4.9
	c-2.5,0.2-4.5,2.9-5.4,5C55.6,59.5,57.3,62.9,60.4,62.7L60.4,62.7z M68.8,57.5c5.1,0.9,8.6-5.7,5.3-9.5c-2.7-3.2-7.9-1.8-9.3,2
	C67.4,52,69.4,54.2,68.8,57.5L68.8,57.5z"/>
<path d="M60.2,40c1,8.3-0.8,7.2-7.8,7.1c-0.2,1.8,0.9,5.5-1.8,5.8c-12.6,1-25.2,0-37.8-0.1c-2.6-0.4-9,2-9.4-1.9
	C3.9,44.6,4,38.3,4.1,32c0-0.8-0.1-1.7,0.6-2.3c1.4-1.1,3.5-0.5,5.2-0.8c1.1,0,2.2-0.2,3.2-0.2c0.8-5.8-0.7-8.8,6.7-6.6
	c0.3-1.5-0.5-4.3,1.5-4.7c6.1-0.3,12.3-0.5,18.4-0.3c1.8-10,15.2-11.4,15.6,0.1c2.3,0.1,5.1,0.2,7.3,0.3c1.1,0,2.7-0.3,2.7,1.3
	c-0.1,6.6,0.3,13.3-0.3,19.9c-0.3,1.2-1.6,1.7-2.8,1.3C62.4,40,60.2,40,60.2,40z M16.1,23.8c-0.6,6.7-1.4,13.3-1.5,20.1
	c0,0.6,0.3,0.9,0.7,0.9c14.2-0.4,28.4-0.7,42.6-0.2c0.4-1.5-0.2-3-0.1-4.6c-11.9-0.3-23.9-0.1-35.8-0.3c-0.9,0.1-2.1,0.4-2.4-0.7
	c-0.5-4.6,0.2-9.3,0.2-14c0-0.5-0.2-0.7-0.6-0.7C18.1,24.2,17.1,24,16.1,23.8z M5.9,50.5c14.6-0.9,29.3,1.1,43.9-0.2v-3.4
	c-10,0.1-25.5-0.1-35.5,0.4c-0.8,0.3-1.2,0.2-1.6-0.6c-0.5-0.5-0.8-1.1-0.6-1.9c0.2-4.5,0.4-9.2,0.8-13.7l-6.2,0.5
	C6.7,37.9,6.5,44.2,5.9,50.5z M25.2,33.5c-0.8,1.3,0.3,1.9,1.3,1.7c0,0,6,0,6,0h22.9c1,0.1,2.1-0.3,3-0.1c0.6,0.5,1.6,0.2,1.7-0.6
	c0.4-3.2,0.3-6.5,0.5-9.7c-0.1-1.1,0.8-4.9-1.3-3.5c-0.2,0.2-0.5,0.3-0.7,0.3c0,0-12.2-0.4-12.2-0.4c-1.7-0.1-18.8-0.7-20.1-0.7
	c-1.9,0-1,2.6-1.3,3.8c-0.1,2.6-0.1,5.2-0.2,7.8C24.6,32.7,24.8,33.2,25.2,33.5z M47.2,17.2c0.1-0.8-0.3-1.6-0.1-2.3
	c1.6-2,2.5,1,2.4,2.4h3.2c-0.1-8.3-8.9-6.5-10.6-0.1L47.2,17.2z"/>
<path d="M59.6,57.2c-0.1-1.3,0-3.6,1.9-2.4c0.8,1.2,0.2,2.9,0.6,4.3c0.3,0.9-0.8,1.8-1.6,1.3C59.4,59.7,59.7,58.2,59.6,57.2
	L59.6,57.2z"/>
<path d="M71.4,51.8c-0.2,1.3,0.6,3.3-0.7,4.1c-2.7,0.7-1.6-5.2-1.5-6.7c0.2-0.8,1.4-1.1,1.9-0.4C71.5,49.6,71.1,50.8,71.4,51.8
	L71.4,51.8z"/>
<path d="M58.7,23.7l-0.5,9.7H26.6c0-1.2,0.2-9.4,0.2-10.8L58.7,23.7z"/>
</svg>
