<?xml version="1.0" encoding="utf-8"?>
<!-- Generator: Adobe Illustrator 24.3.0, SVG Export Plug-In . SVG Version: 6.00 Build 0)  -->
<svg version="1.1" id="Layer_1" xmlns="http://www.w3.org/2000/svg" xmlns:xlink="http://www.w3.org/1999/xlink" x="0px" y="0px"
	 viewBox="0 0 80 80" style="enable-background:new 0 0 80 80;" xml:space="preserve">
<path d="M41.7,62.4c-1.2,1.6-4,4.9-5.1,6.5c-2.7,3.9-6.4-5.4-7.3-7.4c-1.8,0.5-3.5,1.5-5.1,2.6c-1,0.5-3.1,0.9-3.4-0.6
	c-0.5-2.3-1-4.6-1.5-7.1l-3.7,0.4c-1.3,0-2.8,0.6-4,0.1c-0.6-0.3-0.7-1-1.1-1.4c-0.2-0.2-0.3-0.5-0.3-0.8s0.1-0.6,0.3-0.8
	c1.5-1.7,3.2-2.9,4.9-4.5c-2.2-1.1-4.6-2.1-6.8-3.1c-3.2-1.5-2.3-3-0.1-4.9c0,0,3-3.1,3-3.1C10,37.5,7,35.7,9.2,34.2
	c2.6-1.4,5.4-2.3,8.1-3.5c0.5-0.2,0.8-0.4,0.9-1c0.2-0.4,0.4-0.7,0.8-1c3.5-3.1,6.9-6.2,10.3-9.4c2.1-2.2,4.8-4,6.7-6.4
	c0.2-0.6,1-1,1.6-0.7c4.3,1.3,8.5,2.8,12.8,3.8c2.1,0.2,9.8-4.9,9.6-0.7c-0.2,1.8-0.4,3.6-0.6,5.5l9.5,3.6c1.4,0.3,2.1,2.2,1.2,3.3
	c-1.2,2-2.6,3.8-3.9,5.7c0.9,0.6,1.8,1.1,2.3,2.1c0.1,0.2,0.3,0.3,0.5,0.4c1.4,0.6,2.7,1.5,4.2,1.7c0.7,0.1,1.3,0.8,1.2,1.5
	c0,0.8-0.4,1.4-1.2,1.4c-0.3,0-0.5,0-0.8,0.1c-0.9,0.4-1.6,1.2-2.2,1.9c-1.1,1.5-2.8,2.2-4.4,2.9c0.2,2.7,0.4,5.1,0.6,7.8
	c0,1-0.1,2.3-0.9,3c-0.2,0.1-0.5,0.2-0.7,0.2c-3,0-6,0-9-0.4C54.7,59,53.8,62,52.9,65c-0.3,1.1-0.4,1.2-1.5,1.3
	c-1.1,0.6-2,0.1-2.9-0.4C46.2,64.8,44,63.5,41.7,62.4z M57.4,16.4c-8.3,3.1-16.1,7.1-24.3,10.5c-6.8,3-13.7,5.8-20.6,8.9
	c4.1,2.3,8,3.8,12.3,5.2c8.9,3,17.9,6,26.6,9.5C52.9,39,55.1,27.7,57.4,16.4z M64.8,35.4c-3.3,4.3-6.2,8.4-9.4,12.7
	c-1.2,1.2-1.3,2.7-1.6,4.2c-0.5,1.1-1.7,1.2-2.7,1c-0.6-0.3-1.3-0.1-1.7,0.4c0,0-3.2,3.3-3.2,3.3c-0.3,0.4-0.5,1.1-1.1,1.3
	c-0.4,0.2-0.8,0.2-1.1,0c-3-0.9-6.1-1.6-9.1-2.3c-6-1.5-11.7-3.8-17.6-5.8c-0.2,1.2-0.2,1.2-1.2,1.9c-1,0.8-1.8,1.4-2.9,2.3
	c0.2,0.1,5-0.3,5.3-0.3c1.2-0.1,1.5,0.1,1.9,1.3c1,0.1,1.2,0.9,1.4,1.7c0.3,1.7,0.8,3,1,4.8c1.7-1.1,3.3-1.9,5.1-2.8
	c0.5-0.3,1.1-0.3,1.6,0c0.6,0.3,1.3,0.3,1.6,1.1c1.2,2.2,2.3,4.5,3.8,6.5c1.5-2,3-4.1,4.5-6.1c0.4-0.5,0.9-1,1.4-1.3
	c1.1-0.5,1.5,1.1,2.5,1.3c1.5,0.7,5.4,2.6,7,3.4c1.3-3.3,1.3-7.6,3.9-10.1c0.4-0.3,1.1-0.2,1.7-0.2c2.6,0,5.2,0.2,7.8,0.1
	c0-0.2,0-0.3,0-0.4l-0.7-7.2c0-0.4-0.3-0.7-0.3-1.1c0-0.6,0.3-1.1,0.8-1.3c2.5-1.1,4.3-2.5,5.9-4.7C67.8,38.1,66.1,37.1,64.8,35.4
	L64.8,35.4z"/>
</svg>
