<?xml version="1.0" encoding="utf-8"?>
<!-- Generator: Adobe Illustrator 24.3.0, SVG Export Plug-In . SVG Version: 6.00 Build 0)  -->
<svg version="1.1" id="Layer_1" xmlns="http://www.w3.org/2000/svg" xmlns:xlink="http://www.w3.org/1999/xlink" x="0px" y="0px"
	 viewBox="0 0 80 80" style="enable-background:new 0 0 80 80;" xml:space="preserve">
<path d="M13,35.7c-10.4-1.1-9.8-11.5,0.3-12.2c0-1.1,0.1-2.3,0.1-3.4c0-0.1-0.1-0.2-0.2-0.3c-0.4-0.4-0.5-1.1-0.1-1.6
	c1.9-1.5,3.4-3.4,5.3-4.9c2.4-2.1,5.9-1.9,8.8-2.1c7.9-0.5,15.7-1,23.6-1.4c1.9-0.1,3.7-0.1,5.6-0.1c0.6,0,1.1,0.3,1.3,0.8
	c1.3,10.7,1,21.5,1.1,32.3c3.3-0.4,6.6-0.5,10-0.8c1.7,0.1,6.7-1.2,6.2,1.6c-1.7,2.3-22.6,25.4-24.8,28.2c-0.2,0.6-0.8,0.9-1.4,0.9
	c0,0-11.4-0.3-11.4-0.3C31,72,17.9,71.6,11.7,71.4c-1.8-0.2-3.7,0.2-5.4-0.5c-0.6-0.5-0.6-1.4,0-1.9c1-1.1,2.1-2.2,3.1-3.3
	c1.3-1.4,2.6-2.9,4-4.3c0.5-0.4,0.7-1.1,0.6-1.7c-4.6,0.4-10.5-4.7-7-9.2c1.4-1.9,4-2.7,6.2-3.4L13,35.7z M16.4,56.9
	c1.4-0.1,2.7-0.5,3.8-1.2c-1.2-0.7-0.8-2.5,0.3-3.1c1.4-0.9,5.2-1,4.9,1.4c-1.6,3.3-5.4,5-8.8,5.4l0.2,4.1c10.4-0.5,20.6-1.1,31-1.5
	c0.4,0,0.6-0.3,0.7-0.6c0.1-0.5,0.5-1.1,0.5-1.6c0-12.5,0.1-28,0.1-40.6l-33.5,0.6v13.1c0.9-0.2,1.8-0.6,2.5-1.1
	c-0.7-1.3-0.3-2.2,1-2.6c0.8-0.2,1.6-0.4,2.3,0c1.5,0.7,1.1,2.9-0.4,3.3c-0.2,0.1-0.3,0.2-0.4,0.3c-1.1,1.8-3.2,2.2-5.1,2.9
	C15.7,42.7,15.8,49.8,16.4,56.9z M51.7,58.2L51.7,58.2c1.5-1.9,3.4-3.6,4.7-5.7c0.2-3-0.2-6-0.2-9.1c0-9.6,0-19.3-0.6-28.9
	c-1.4,1.8-2.7,3.4-4,5.2c-0.3,1.1,0,2.3-0.1,3.4C51.6,34.8,51.6,46.5,51.7,58.2z M54.5,12.1L54.4,12c-6.1,0.2-15.3,0.8-21.4,1.2
	c-3.2,0.2-6.3,0.4-9.4,0.6c-0.3,0.1-0.5,0.2-0.8,0.3c-0.4,0.1-0.7,0.4-1,0.4c-0.2,0-0.5,0-0.7,0.1c-1.4,0.7-2.3,2.1-3.6,2.8l0.1,0.2
	c6.4-0.4,12.7-0.3,19.1-0.5c4.7-0.1,9.3-0.2,13.9-0.4c0.2,0,0.3-0.1,0.5-0.3C52.2,14.8,53.4,13.6,54.5,12.1z M13.1,25.8
	c-6.5,1-7.1,6.5,0,7.3L13.1,25.8z M13.3,49.5c-1.8,0.7-4.3,1.6-4.8,3.7c0,2.5,3.1,4,5.3,3.9L13.3,49.5z"/>
<path d="M32.3,36.5c-0.7,0-1.8,0-3,0c-0.7,0.1-1.3-0.4-1.6-1c-0.3-1.7-0.2-3.4-0.2-5.1c0-0.8,0.6-1.6,1.4-1.8
	c5.1,0.1,10.3,0.3,15.4,0.3c0.8,0,1.5,0.7,1.5,1.5c0,1.5,0.6,3.2-0.4,4.4c-0.5,0.6-1.2,0.9-2,0.8c-1.7,0.2-3.3,0.3-5,0.4L32.3,36.5z
	"/>
</svg>
