<?xml version="1.0" encoding="utf-8"?>
<!-- Generator: Adobe Illustrator 24.3.0, SVG Export Plug-In . SVG Version: 6.00 Build 0)  -->
<svg version="1.1" id="Layer_1" xmlns="http://www.w3.org/2000/svg" xmlns:xlink="http://www.w3.org/1999/xlink" x="0px" y="0px"
	 viewBox="0 0 80 80" style="enable-background:new 0 0 80 80;" xml:space="preserve">
<path d="M56.9,8.9c1.7,0.3,4.7,0.5,6.4,0.8c2.4,0.5,4,2.3,5.2,5c1,2.5,1.5,5.1,1.7,7.7c0.8,6.2,0.9,12.4,1.1,18.6
	c0.1,5,0.4,10,0.7,15.1c0.3,2.7,0,5.5,0.7,8.1c0.7,1.5,1.4,3.6-0.7,4.2c-5.6,1.1-11.3,0.6-16.9,0.9c-6.3,0.3-12.6,0.6-18.8,0.9
	c-4,0.2-8.1,0.2-12.1,0.4c-2.6,0.7-5.9-0.2-6.3-3.2C14.3,56.2,11,45,7.2,33.9c-0.5-1.5,0.2-2.7,1.4-2.8c3.1-0.1,6.2-0.4,9.4-0.6
	c0-1.2-0.1-2.2-0.3-3.2c-0.4-3,0.3-4.4,2.5-4.9c1.7-0.4,3.5-0.6,5.2-0.9c7.5-1,15.1-1.8,22.4-3.9c0.5-0.1,0.7-0.4,0.9-1
	c0.8-2.3,1.5-4.9,3.6-6.5C53.6,9.2,55.3,8.8,56.9,8.9z M21,26.5c0.2,4.8,0.2,9.6,0.3,14.4c0.5,4,0.5,8.1,0.5,12.2
	c0,4.1,0.1,8.1,0.1,12.2c0,0.7,0.2,0.8,0.7,0.8c7-0.6,14-1.7,21-1.8c8.4-0.6,17-1.3,25.5-1.2c-0.9-13.9-0.7-27.9-2.2-41.8
	c-0.1-2.3-0.8-4.5-2-6.4c-0.4-0.7-1-1.2-1.8-1.4c-2.4-0.2-4.9-0.3-7.3-0.4c-1.3,0-2.4,1-3.1,2c-0.4,0.7-0.7,1.4-0.7,2.2
	c-0.2,2.2-1.1,3.7-2.7,4.1c-5.8,1.3-11.7,2.8-17.6,3.6C28.1,25.6,24.5,25.8,21,26.5z M11,35l7.6,23.7c0.1-4.8,0.3-9.5-0.1-14.2
	C18.2,41.2,18,38,18,34.7L11,35z"/>
<path d="M24.5,37.4c0.5-2.3-0.3-7.7,3-7.7c3.2-0.1,6.5-0.2,9.7-0.3c3.9-0.2,7.7-0.9,11.5,0c0.4,0.1,0.8,0.3,1.1,0.6
	c0.3,0.3,0.5,0.7,0.5,1.1c0.4,2.2,1.3,4.5,0.6,6.7c-0.8,1.9-2.9,3-4.8,3.1c-3.9,0.4-7.9,0.7-11.8,1.1c-2,0.2-4,0.5-6,0.7
	c-0.9,0.1-2.1,0.1-2.8-0.7C24.6,40.7,24.8,38.9,24.5,37.4z"/>
</svg>
