<?xml version="1.0" encoding="utf-8"?>
<!-- Generator: Adobe Illustrator 24.3.0, SVG Export Plug-In . SVG Version: 6.00 Build 0)  -->
<svg version="1.1" id="Layer_1" xmlns="http://www.w3.org/2000/svg" xmlns:xlink="http://www.w3.org/1999/xlink" x="0px" y="0px"
	 viewBox="0 0 80 80" style="enable-background:new 0 0 80 80;" xml:space="preserve">
<path d="M75.5,37.2c-0.1,4.6-0.1,9.2-1.6,13.6c-0.4,1.3-1.1,2.5-2,3.5c-2.7,2.9-5.3,6.2-9,8c-1.9,1.1-3.8,2-5.8,2.8
	c-1.3,0.4-2.2,1.7-2.2,3c2.1,0.7,4.5,0.7,6.2,2.2c0.9,0.9,1.5,2.2,1,3.5c-2.6,4-11.3,3.9-15.5,2.8c-1.6-0.4-3.1-1.1-4.5-2.1
	c-0.2-0.2-0.4-0.2-0.7-0.3c-0.3,0-0.5,0-0.7,0.2c-4.1,1.7-8.6,2.2-13,2.1c-8.5-0.3-10.6-6.5-1.5-8.7c0.3-0.1,0.3-0.2,0.3-0.4
	c0.5-4.4-4.1-6.3-7.1-8.3c-5-3-10.1-6.7-12-12.5C5.7,41.6,4,33.3,8.2,29.3c1.4-1.5,3.9-1.9,5.5-0.4c2.7,2.3,4,5.8,5.1,9
	c0.4,1.2,0.9,2.5,1.5,3.6c0.1,0.3,0.5,0.5,0.8,0.7c-0.4-5.2-0.5-10.3-0.2-15.5c0,0-1.9,1.5-1.9,1.5c-1.1,0.8-2.5,2.4-3.6,1
	c-0.7-1.5-0.4-3.3-0.7-4.8c0-0.3-0.2-0.6-0.3-0.9c0.1-0.9,0-1.9,0.9-2.6c7-5.6,14.9-9.7,22.3-15c1.4-0.8,2.4-2.1,3.8-3
	c0.6-0.7,1.7-0.7,2.4-0.1c7.2,5.9,14.9,11.3,22.1,17.2c0.5,0.4,1.1,0.8,1,1.6c-0.2,2.8,0.2,8.5-4.2,6.7c0,5.8-0.7,11.6-0.3,17.4
	c2.3-1.9,2.5-5.2,2.6-7.9c-0.1-3-0.2-6.1,1.7-8.6c0.9-1.8,3.2-2.2,4.9-1.6c2.5,1.5,3.7,4.5,4.1,7.2C75.5,34.9,75.5,37.2,75.5,37.2z
	 M34.7,48.3c-0.2-4.4,0-8.8,0.1-13.2c0-0.8,0.8-1.4,1.5-1.3c3.7-0.1,7.4,0.4,11-0.3c0.6-0.1,1.2,0.1,1.6,0.5
	c0.3,0.3,0.4,0.7,0.4,1.1c-0.2,4.7,0.5,9.3,0.4,14c3.2-1.5,6.1-4.1,9.9-4c-0.2-6.2,0.3-12.5,0.3-18.6c-5.7-4.5-12-8.3-16.9-13.8
	c-6.5,4.1-12.9,8.3-19.5,12.4c-0.1,0.1-0.2,0.3-0.2,0.4C23,31.2,23.1,37.2,23.6,43c0,0.2,0.2,0.4,0.3,0.5
	C27.3,45.5,30.8,47.5,34.7,48.3z M41.7,60c0.2-4.2-2.8-8.2-6.9-9.2c-1.1-0.3-2.2-0.5-3.2-0.9c-2.8-1-5.5-2.3-8-3.8
	c-0.2-0.1-0.4-0.2-0.6-0.1c-0.5,0.2-1.1,0-1.5-0.4c-0.2-0.2-0.2-0.6-0.4-0.8c-0.3,0-0.7,0-1,0.1c-0.1,0.1-0.2,0.5-0.1,0.7
	c1,3.2,4.2,5.1,6.8,6.9c1.9,1.4,4,2.3,6.3,2.6c0.4,0,0.8,0.3,1,0.8c0.3,1.7-1.7,1.4-2.7,1.2c-4-0.8-7.3-3.5-10.4-5.9
	c-1.8-1.5-3.6-3.8-3.4-6.3c0-0.6,0.5-1,0.6-1.5c-1.4-3.1-2.4-6.6-4-9.7c-0.7-1.2-1.4-2.7-2.8-3.1c-2.4,0.2-2.8,3.2-3.1,5.2
	c-0.2,3.8,0.4,7.5,1.8,11c2.7,6.6,9.8,9.5,15.3,13.4c2.9,1.7,4.1,5.3,3.4,8.5c-0.1,0.6-0.1,1.3,0,1.9c3,1.6,7.4,0.7,10.5-0.5
	c0.3-0.1,0.5-0.2,0.4-0.6C40,66.1,41.7,63.2,41.7,60L41.7,60z M72.8,39.3c0-3.5,0.6-6.9-2.2-9.3c-0.5-0.4-1.4-0.4-1.9,0.2
	c-2.4,3.1-1.2,7.2-1.9,10.8c-0.2,2.7-1.6,5.2-3.8,6.8c-0.1,0.1-0.2,0.3-0.2,0.5c0.2,2.5-1.7,4.4-3.5,6c-1,1-2.2,1.8-3.3,2.7
	c-0.3,0.3-0.7,0.4-1.2,0.3c-0.9-0.1-1.3-1.4-0.6-2c1.7-1.8,4-2.9,5.4-5c0.5-0.8,0.8-2.1,0.3-2.9c-1.2-0.4-2.7,0.1-3.8,0.6
	c-2.1,1.2-4.3,2.3-6.4,3.5c-0.8,0.4-1.5,0.9-2,1.6c-1.4,2-3.1,4-3,6.6c0,0.2-0.1,0.5-0.2,0.6c-0.3,0.3-0.5,0.7-0.4,1.1
	c-0.6,2.4-1.3,4.8-1.9,7.2c-0.1,0.2,0,0.5,0.1,0.7c0.6,0.6,1.2,1,2,1.3c2.3,1.1,4.8,1.5,7.3,1.1c0.3,0,0.4-0.1,0.4-0.4
	c0-0.9,0-1.8,0.1-2.7c-0.1-2.5,1.6-4.9,3.9-5.7c3.6-1.6,7.3-3.1,10.1-5.9c1.2-1.3,2.4-2.7,3.7-4c1-1,1.6-2.3,1.9-3.7
	C72.6,46,73,42.7,72.8,39.3z"/>
</svg>
