<?xml version="1.0" encoding="utf-8"?>
<!-- Generator: Adobe Illustrator 24.3.0, SVG Export Plug-In . SVG Version: 6.00 Build 0)  -->
<svg version="1.1" id="Layer_1" xmlns="http://www.w3.org/2000/svg" xmlns:xlink="http://www.w3.org/1999/xlink" x="0px" y="0px"
	 viewBox="0 0 80 80" style="enable-background:new 0 0 80 80;" xml:space="preserve">
<path d="M24.6,62.4c-0.1-3.5-0.1-7.1-0.1-10.6c0.1-0.6,0.5-1.1,0.6-1.7c0.2-4.9,0.2-9.7,0.5-14.6c-0.6-0.1-1.3-0.2-1.5-0.8
	c-0.5-1.8-0.3-3.7-0.5-5.6c0-0.7,0.3-1.4,0.6-1.9c0.2-0.4,0.7-0.6,1.1-0.6c0,0,6.8-0.6,6.8-0.6h0.5c0.1-0.1,0.1-0.2,0.1-0.2
	c-0.3-2.8-0.5-5.5-0.4-8.3c-0.1-0.2-0.2-0.4-0.3-0.5c-0.5-0.6-0.4-1.4-0.1-2c2.1-3,4.9-5.7,7.2-8.7c0.6-0.7,1.5-1.5,2.4-1.4
	c0.4,0.1,0.7,0.2,0.9,0.5c1.2,1.2,2.3,2.4,3.5,3.5c0.3,0.4,0.7,0.7,1.2,0.8c1.5,1,2.7,2.9,4.1,4.1c0.4,0.5,1.1,0.9,1.4,1.4
	c0.3,0.5,0.1,1.2-0.4,1.5c-0.8,1.1-2.3,1-3.4,1.2c0.4,2.6,0.1,5.1,0.3,7.7c1.6,0,3.2,0,4.9,0c1.3,0,1.8,0.5,1.9,1.8
	c0.1,2,0.1,4.1,0.3,6.1c0.1,0.4,0,0.9-0.3,1.2c-0.1,0.1-0.2,0.3-0.2,0.5c0,4.8-0.2,9.6-0.1,14.3c1,0.5,2.9,0.3,2.8,1.8
	c0,3.7-0.1,7.4-0.1,11.2c5.2-0.8,2.7,0.9,3.4,4.3c0.1,2.2,0.2,4.4,0.1,6.5c0.1,0.9-0.8,1.7-1.7,1.6c-4.1,0-8.1,0.2-12.1,0
	c-0.5,0-1-0.2-1.2-0.6c-0.1-0.1-0.2-0.2-0.4-0.3c-0.2-0.1-0.5-0.3-0.6-0.5c-0.7-3-0.2-6.2-0.2-9.2c-2.9-0.5-5.7-0.2-8.5-0.2
	c0.3,2.7,0.4,5.4,0.5,8c0.1,0.6-0.2,1.2-0.7,1.4c-0.1,0-0.2,0.1-0.3,0.2c-0.4,0.8-1.2,0.8-1.9,0.8c-4.2,0-8.5-0.1-12.8-0.1
	c-0.7,0.1-1.7-0.1-1.7-1c0-0.4,0.2-0.8,0.2-1.2c0-2.6,0-5.2,0.1-7.8c0-0.5,0.2-0.9,0.4-1.3c0.2-0.4,0.7-0.5,1.1-0.6L24.6,62.4z
	 M45.8,36.3L37,36.2c0.1,4.7-0.3,9.3,0.1,14c1,0,7.2-0.2,8.4-0.2c0.4,0,0.8-0.1,0.7-0.6C45.6,45,46.1,40.6,45.8,36.3z M48,36.2
	c0.1,4.5,0.2,8.8,0.3,13.2h4.8c0.1-4.4,0.3-8.8,0.4-13.1C51.5,36.3,50,36.3,48,36.2z M46.2,25.4c0-1.6,0-3.1,0.2-4.6
	c0-0.9-0.2-1.9,0.5-2.7c-3.2-0.1-6.3-0.1-9.5,0.1l0.1,7.2C40.4,25.3,43.3,25.5,46.2,25.4z M59.4,64.9c-0.3,0-0.4,0-0.5,0
	c-1.2,0.3-2.3-0.3-3.5-0.3c-0.2,0-3.3-0.1-3.3,0.1c0.4,2.8,0.3,5.6,0.4,8.4c2.4-0.3,4.7,0.1,7.1-0.2C59.4,70.1,59.4,67.5,59.4,64.9z
	 M34.6,50.1L34.9,36c-1.2-0.1-2.5-0.2-3.7-0.2c0.1,4.7-0.2,9.4-0.1,14.1L34.6,50.1z M22.7,72.6l6-0.4l0.1-7.4
	c-2.1,0-4.2-0.5-6.3-0.1C22.6,67.4,22.4,70,22.7,72.6z M30.9,65c-0.2,2.4-0.1,4.9,0.3,7.3c1.3,0.1,2.7,0.1,4,0v-6.9
	C33.8,64.9,32.4,64.8,30.9,65z M41.9,15.3l-1.6-7.2c-1.9,2.6-3.7,4.8-5.8,7.2C37,15.5,39.5,15.5,41.9,15.3L41.9,15.3z M27.6,35.5
	c0.1,4.9-0.2,9.7-0.2,14.7l1.4-0.1c0.1-4.9,0.2-9.7,0.3-14.5L27.6,35.5z M49.9,73.1c0.2-2.9,0.1-5.7-0.2-8.6l-2.1,0.1
	c0,2.9-0.1,5.6,0.1,8.4L49.9,73.1z M47.8,15l0.1-0.2L43,9.4l-0.1,0.1l1.4,5.7L47.8,15z M35.1,24.9c0.2-2.3,0.3-4.7,0.2-7
	c-0.3,0-0.6,0-0.8,0C34.2,20.3,35.1,22.6,35.1,24.9L35.1,24.9z"/>
</svg>
