<?xml version="1.0" encoding="utf-8"?>
<!-- Generator: Adobe Illustrator 24.3.0, SVG Export Plug-In . SVG Version: 6.00 Build 0)  -->
<svg version="1.1" id="Layer_1" xmlns="http://www.w3.org/2000/svg" xmlns:xlink="http://www.w3.org/1999/xlink" x="0px" y="0px"
	 viewBox="0 0 80 80" style="enable-background:new 0 0 80 80;" xml:space="preserve">
<path d="M31.6,32.4c1-1.6,2-3.2,2.9-4.8c0.7-1.1,1.1-3.6,2.9-3.2c0.4,0.2,0.7,0.6,1,1c1.1,1.6,2.3,3.3,3.4,4.9
	c2.3-6.1,7.4-8.7,13.7-7.6c1.8,0.5,3.4,1.7,5,2.7c3.5,2.8,5.6,7.2,6.1,11.6c1.9,0,3.8,0,5.6,0c1,0,1.4,0.4,1.4,1.4
	c0.4,8,0.6,15.9,1.3,23.9c-3.9,0.6-10.5,0.8-14.5,1.1c-3.9,0.4-7.9,0.1-11.7,0.9c0,0.8,0.3,1.4-0.1,2c-0.2,0.4-0.7,0.5-1,0.8
	c-0.3,0.4-0.9,0.7-1.4,0.7c-5.3,0.2-10.6,0.2-15.9,0.1c-1,0-1.1,0-1.5-1c0-0.1-0.1-0.2-0.1-0.2c-1-0.7-0.7-2.1-0.9-3.1
	c-6.1-0.3-12.2,0.3-18.2,0.5c-0.6,0-1.3,0.1-1.8-0.1c-0.4-0.1-0.5-0.6-0.9-0.7c-0.4-0.2-0.7-0.7-0.7-1.2c-0.1-1.7-0.7-6.1-0.8-7.7
	c-0.5-7,0.2-14.1,0.1-21.1c-0.3-0.9,0.2-1.5,0.9-2c7.1-6,14.2-12,22.1-16.9c1.9-1.2,2.2,0.9,2.2,2.4c0.2,5.2,0,10.4,0.6,15.5
	L31.6,32.4z M71.7,39.3c-0.3-0.1-6.1,0-6.6-0.1c-1.8-0.3-3.6-0.3-5.4-0.2c-3.8,0.2-7.6,0.2-11.4,0.4c1.2,2.3,2.8,4.3,4.1,6.5
	c0.4,0.5,0.3,1.4-0.3,1.7c-0.4,0.2-0.6,0.6-1,0.8c-1.1,0.3-2.2,0-3.3,0.3c0,4.5,0.2,8.9,0.9,13.3c8.1-0.8,16.1-1.1,24.2-1.7
	C72,53.4,72,46.4,71.7,39.3z M64.3,36.6c-0.6-5.1-4.1-10.1-9.1-11.7c-3.4-0.6-7.4,0.2-9.5,3.2c-0.5,0.6-0.8,1.3-1.2,1.9
	c-0.8,0.9-0.5,2-0.7,3c0,0.1,0.1,0.2,0.2,0.4c1,1.3,1.8,2.9,2.9,4.1C52.7,37.2,58.6,36.9,64.3,36.6z M29.6,50.5
	c0.8,5.1,0.4,10.3,1.1,15.5l4.3-0.2c-0.2-2.3-0.4-4.3-0.5-6.6c-0.1-0.4,0-0.8,0.2-1.1c1.1-1.6,3.6-1.4,5.3-1.2
	c0.7,0,1.3,0.7,1.3,1.4c0.4,2.5,0.3,5.1,1.1,7.6c1.4,0,2.9,0,4.3-0.2c-0.8-5.7-1.1-11-1.1-16.7L29.6,50.5z M28.7,17.3
	c-1.5,0.9-2.9,1.8-4.3,2.8c-5.3,4.2-10.8,8.3-15.9,12.7c6.9-0.3,13.7-1.1,20.6-1.3C28.7,26.7,28.6,22.1,28.7,17.3z M22.1,43.9
	c0.2-3.2,0.1-6.5-0.1-9.7l-6.8,0.5l0.6,9.5L22.1,43.9z M8,35v9.3c1.8,0,3.6,0,5.4-0.1L13,34.9L8,35z M15.8,46.5
	c0.3,2.5,0.3,4.9,0.6,7.3l5.6-0.2c0.1-2.5,0.2-5,0.2-7.4L15.8,46.5z M8,46.3c-0.3,2.5-0.2,5.1,0.1,7.6H14c-0.2-2.5-0.4-5-0.6-7.4
	L8,46.3z M8.2,56.2l0.7,5.9l5.9-0.6l-0.4-5.4H8.2z M24.3,34c0.1,3.3,0.2,6.5,0.3,10c1.8-2.5,3.1-5.3,4.7-7.9
	c0.4-0.6-0.1-1.5-0.2-2.2L24.3,34z M22.6,61.2l-0.4-5.2h-5.5l0.3,5.4L22.6,61.2z M39.2,58.9c-0.9-0.2-1.8-0.1-2.7,0.1
	c0.2,2.2,0.5,4.5,0.7,6.8h2.5C39.6,63.5,39.4,61.3,39.2,58.9z M27.9,56h-3.3c0.1,1.8,0.2,3.5,0.5,5.3h2.9L27.9,56z M27.7,53.6
	c0-1.1-0.2-2-0.2-3.1l-3.4-0.1l0.2,3.2H27.7z"/>
<path d="M64.4,49.9c-1-0.1-2.1,0.3-2.9-0.4c-0.3-0.3-0.5-0.6-0.5-1.1c-0.3-1.5-0.3-3.1-0.1-4.6c0.2-2.5,3.8-0.9,5.3-1.8
	c2.9-1.5,2.6,4.4,2.4,6C68.4,50,65.9,49.7,64.4,49.9L64.4,49.9z M66.3,47.4c0.1-1,0.1-2.1-0.1-3.1l-3,0.3c-0.2,1-0.1,2,0.1,2.9
	L66.3,47.4z"/>
<path d="M49.8,55.8c0.3-1.8-0.3-4.3,2-4.3c0,0,3.3-0.1,3.3-0.1c0.7,0,1.3,0.1,1.5,0.9c1.1,1,1,2.4,1.1,3.7c0.3,3.4-4,2.6-6.3,2.9
	c-0.7,0.1-1.3-0.3-1.5-0.9C49.7,57.2,49.9,56.2,49.8,55.8z M55.4,56.3c0-1-0.1-1.9-0.4-2.8l-2.7,0.2v2.7L55.4,56.3z"/>
</svg>
