<?xml version="1.0" encoding="utf-8"?>
<!-- Generator: Adobe Illustrator 24.3.0, SVG Export Plug-In . SVG Version: 6.00 Build 0)  -->
<svg version="1.1" id="Layer_1" xmlns="http://www.w3.org/2000/svg" xmlns:xlink="http://www.w3.org/1999/xlink" x="0px" y="0px"
	 viewBox="0 0 80 80" style="enable-background:new 0 0 80 80;" xml:space="preserve">
<path d="M35.6,26.3c2.1-5.4,4.6-10.5,7.5-15.5c0.7-0.9,1.6-2,2.8-2.2c1.2,0.3,2.3,1.1,3.4,1.6c1,0.7,2.3,0.8,3.5,0.4
	c0.7-0.3,1.3,0.2,2,0.4c0.2,0.1,0.3,0.2,0.4,0.4c0.1,0.6-0.2,1.2-0.4,1.7c-1.1,2.6-2.2,5.1-3.3,7.7c-1.1,2.8-2.1,5.3-3.1,8
	c2.7,0.1,5.4-0.4,8.1-0.1c0.7,0.1,1.4,0.3,1.8,0.9c0.2,0.3,0.2,0.6,0.2,0.9c-0.1,2.3-0.1,4.6-0.1,6.8c0.6,0.1,1,0.6,1.6,0.2
	c0.1,0,0.2,0.1,0.3,0.1l1.3,0.8c0.2,1.1,0.1,2.1-0.2,3.2c-0.6,5-1.7,10-2.2,15c0.7,1.5,1.7,3,1.6,4.8c-0.2,3.8-3.8,8-8.7,6.8
	c-2.4-0.9-4.2-2.3-5-4.9L35.6,64c-2.3,12.7-18.4,6.3-14.9-4.8c-0.5-4.9-2.6-11.2-3.2-16.7c-0.2-1.1,0.1-3,1.5-3.1
	c0,0,1.5-0.2,1.5-0.2c-1.3-2.5-2.5-5-3.3-7.7c-0.3-1,0.5-1.4,1.3-1.8c3.2-2.1,7.2-4.8,10.4-6.9c0.4-0.4,1-0.2,1.4,0
	c0.8-0.2,1.2,0.3,1.7,0.8C33,24.6,34.3,25.5,35.6,26.3z M22.8,38.8c3.3-0.3,6.6-0.6,9.9-1c-1.5-4.2-2.7-8.1-3.8-12.4
	c-0.1,0.1-0.2,0.1-0.3,0.2l-7.6,4.9c-0.5,0.3-1,0.5-1,1.2c0,0.2-0.2,0.4-0.4,0.6L22.8,38.8z M22.6,63.8c1.1,5.5,9.2,7,10.5,0.7
	c-0.1-2.1,0-2.7-1.2-5.1c-0.4-0.3-0.5-0.8-0.8-1.3c-0.2-0.4-1-0.6-1-1c-1.8-0.9-4-0.1-5.8,0.8c-0.4,0.3-1,0.6-1.2,1.1
	c-0.2,0.5,0.2,1.1,0,1.6C23.2,60.7,22.6,63.8,22.6,63.8z M40.6,31.2h0.2c1.6-3.1,3.2-6.3,5.1-9.3c0.6-1.2,1.7-2.4,1.9-3.7
	c0-0.3-0.1-0.7-0.3-1c-0.9-1.7-1.6-3.3-2.5-5.1c-2.9,5-5.4,10.2-7.7,15.5c0.8,0.8,1.9,1.2,2.8,2C40.4,30.1,40.4,30.7,40.6,31.2z
	 M49.4,61.1c0,0.2,0.2,2,0.2,2.1c0.4,1.6,1,2.4,3.1,2.9c2.6,0.6,5.5-1.1,6-3.8c-0.2,0,0.1-0.9,0-0.9c0-0.6-0.3-0.2-0.4-0.8
	c0-0.5-0.1-1-0.3-1.5c-0.3-0.9-1.2-1.3-1.5-2.1c-0.1-0.3-0.4-0.5-0.7-0.6c-2.7-1.3-5.5,1.5-6.2,3.9C49.4,60.9,48.9,61,49.4,61.1z
	 M56.2,37.1l0.4-6.2c-3-0.4-5.9,0.3-8.8-0.2c-0.9,2-1.6,4.1-1.9,6.3L56.2,37.1z M31.3,26c0.4,2.3,3.2,10.7,3.9,11.6l4.3-0.4
	c-0.2-1.6-0.6-3.1-0.8-4.6c0-0.4-0.2-0.8-0.4-1.1c-0.2-0.3-0.5-0.6-0.8-0.9C35.5,29.1,33.5,27.5,31.3,26z M41.9,37.1l1.5-0.1
	c1.3-5.3,3.4-10.3,5.3-15.4c-2.7,4.2-4.9,8.7-7.2,13.1C41.4,35.5,41.7,36.2,41.9,37.1z M51.4,13.2C49.7,13,48.5,12,47,11.4l2.6,4.9
	C50.3,15.3,50.9,14.3,51.4,13.2z"/>
</svg>
