<?xml version="1.0" encoding="utf-8"?>
<!-- Generator: Adobe Illustrator 24.3.0, SVG Export Plug-In . SVG Version: 6.00 Build 0)  -->
<svg version="1.1" id="Layer_1" xmlns="http://www.w3.org/2000/svg" xmlns:xlink="http://www.w3.org/1999/xlink" x="0px" y="0px"
	 viewBox="0 0 80 80" style="enable-background:new 0 0 80 80;" xml:space="preserve">
<path d="M47.5,66.6l-3,1.7c-0.1,1,0.3,2.6-0.8,3.2c-0.8,0.5-2-0.1-2.1-1c0-0.5,0-0.9,0-1.3h-2.5c-0.1,1.1,0.3,2.5-0.6,3.3
	c-0.5,0.4-1.4,0.4-1.8-0.1c-0.7-0.7-0.3-1.8-0.5-2.8c0,0,0-0.6,0-0.6c-1.3-0.4-2.6-1.2-4-1.2c-1.9,0.1-3.8,0.1-5.7,0
	c-5.2-0.3-9.3-3.1-10.1-8.5c-4.2,0.4-6.1-3.4-3.1-7.1c-3.2-2.6,0-8,3.8-6.1l0.5-3.8c-0.8-0.3-1.5-0.6-2.3-0.8
	c-6.3-2.1-5-9.5-4.5-14.7c0.7-4.8,1.7-9.6,3-14.4c0.1-0.9,0.7-1.4,1.2-2.1c1.9-3.4,5.6-5.6,9.5-5.8c4.4-0.2,9.4,0.1,12.7,3.4
	c3.7,3.4,6.8,7.7,7.1,12.9c0.5,5.3,1,10.5,1.1,15.8l0.6,0.2c2.9-6.4,9.5-8.6,15.4-4.6c2.4,1.6,3.2,4.7,4.4,7.2
	c3.7-0.7,5.4,3.7,4.5,6.7c-0.5,2-2.1,3.4-3.9,4.4c0.6,2.8,0.4,5.7,0.2,8.6c-0.3,2.9-2.4,5.2-4.4,7.1c-1.1,1-2.4,1.7-3.9,1.8
	C54.8,68.9,50.9,68.6,47.5,66.6z M15.1,21.5c-0.7,3.7-1.3,7.3-1.4,11.1c0,1.4-0.1,2.9,0.6,4.2c1,1.7,3.3,1.7,5,2.4
	c1,0.5,1.6,1.7,1.4,2.8c-0.1,1.7-0.4,3.4-0.5,5.2c0,1.8,0.1,3.7-0.4,5.4c-0.1,1.7-0.2,3.4-0.1,5.1c0.2,1.8,0.4,3.8,1.8,5
	c1.9,1.6,4.6,2.2,7,1.8l-2-4.9c-1.7,0-6,0.5-5.1-2.4c1.1-1.3,2.9-1.9,4.3-2.8c0.2-0.1,0.4-0.3,0.5-0.5c0.1-0.2,0.1-0.4,0.1-0.6
	c-0.3-2.5,0.9-5,2.9-6.4c0.6-0.4,1-1.2,0.9-1.9c-0.1-4-0.2-8.1-0.2-12.1c-0.2-3.2,0.4-6.5-0.5-9.6c-2.3-0.4-4.4-1-6.7-1
	C20.1,22.3,17.6,21.9,15.1,21.5z M50.1,52.5h-0.3c-1.3,1.6-2,3.6-3.4,5c-1.8,1-4,0.7-6,0.6c-1.2-0.1-2.4-0.6-3-1.7
	C37.2,56,37.1,55.5,37,55c-0.2-1.9-0.7-3.8-1.6-5.6c-0.2-0.4-0.5-0.8-1-1c-1.4-0.6-4.1,0.4-4.7,1.9c-1.8,5.3-0.4,13.9,6,15.2
	c4.3,1.3,9.4,0.3,11.8-3.8C49.4,59,50.7,55.7,50.1,52.5L50.1,52.5z M48,49c0.9,0.1,1.7-0.6,2.6-0.3c0.6,0.1,1.1,0.5,1.4,0.9
	c1,1.1,1.5,2.6,1.5,4.1c-0.1,3.9-1.7,7.6-3.8,10.8c2.6,1,5.5,1.1,8.2,0.6c2.3-0.3,3.7-2.3,5-4c1.5-1.9,0.9-4.3,1.1-6.5
	c0.2-1.5-0.8-2.7-0.7-4.1c-0.7-0.2-1.4-0.6-1.9-1.2c-0.8-1-1.9-1.8-3.2-2.3c-1.6,1.6-5.5,2.1-6.6-0.3c-1.8-0.2-3.3,1.1-4.6,2.2
	c-0.9,0.8-1.3,2.2-1,3.4C47,51.5,47.3,50.1,48,49z M54.5,45.2c0.5,0.6,1.5,0.5,1.9-0.2c2.4-1.8,5.3,0.6,7.1,2.2
	c0.4,0.4,0.7,0.7,1.3,0.7c2.1-0.2,3.6-3.2,2.5-5.1c-0.3-0.7-1-0.1-1.4,0.2c-0.3,0.2-0.7,0.4-1.1,0.3c-0.4-0.1-0.7-0.3-0.9-0.6
	c-1.1-1.9-1.7-4.1-2.7-6C61,36,60.6,35.5,60,35.1c-3.6-2.3-6.2-2.2-9.4,0.4c-0.9,0.7-1.5,1.7-1.6,2.8c-0.3,1.6-1.2,3.1-2.9,1.9
	c-2.1-1.3-3-0.1-3.6,1.9c-0.3,1,0.3,1.7,1.3,1.9c1.1,0.3,2.2,0.7,3.1,1.3c1.3-1,2.9-1.6,4.6-1.6l0.3-1.7c-2-0.4-2.3-2.5-0.7-3.4
	c0.7-0.4,1.5-0.1,2.2,0.2c0.4,0.1,0.8,0.3,1,0.6c0.2,0.3,0.4,0.7,0.3,1.2C54.7,42,54.7,43.6,54.5,45.2z M16.4,55.8v-2
	C14.7,53.9,14.3,56.6,16.4,55.8z M16.6,50.2c0.2-1-0.1-1.5-0.8-1.6c-0.3,0-0.5,0.1-0.6,0.4C15.3,49.5,16,50.2,16.6,50.2z"/>
<path d="M25.4,33.4l-1.5,0.2c-0.2,0.8-0.2,1.6-0.9,2.1c-1,0.7-2.4-0.2-2.2-1.3c-0.1-0.8,0.9-2-0.4-2.2c-0.8,0.7-1.5,2.1-2.7,2.2
	c-0.6,0-1.2-0.5-1.4-1.1c-0.2-0.6,0.2-1.2,0.6-1.6c0.8-0.9,1.6-1.9,2.5-2.7c0.5-0.3,1.1-0.3,1.6,0.1c0.9,0.6,1.9,1.2,3,1.3
	c1.3,0.3,3.1-1.2,3.9,0.4c0.2,0.7,0,1.6,0.5,2.3c0.3,0.5,0.7,1.1,0.5,1.8c-0.2,1-1.6,1.4-2.3,0.7C26,34.8,25.8,34.1,25.4,33.4z"/>
<path d="M33.6,53.7c0.2,1.7-2.3,2.6-3.1,1C29.8,52.6,33.4,51.1,33.6,53.7z"/>
<path d="M56.6,53.8c0.8,0,1.6-0.5,2-1.2c0.3-0.7,1.3-1,1.9-0.6c0.7,0.3,1.1,1.3,0.7,2c-0.8,2.1-3.3,3-5.4,2.7
	c-2-0.2-1.8-2.9,0.2-2.8C56.2,53.8,56.3,53.8,56.6,53.8z"/>
<path d="M60.3,40.7c0,2.3-3.4,2.4-3.4,0C56.9,38.5,60.4,38.4,60.3,40.7z"/>
</svg>
