<?xml version="1.0" encoding="utf-8"?>
<!-- Generator: Adobe Illustrator 24.3.0, SVG Export Plug-In . SVG Version: 6.00 Build 0)  -->
<svg version="1.1" id="Layer_1" xmlns="http://www.w3.org/2000/svg" xmlns:xlink="http://www.w3.org/1999/xlink" x="0px" y="0px"
	 viewBox="0 0 80 80" style="enable-background:new 0 0 80 80;" xml:space="preserve">
<path d="M25.4,35.9c-0.8-5.8-1.5-11.7-1.9-17.6c0-0.5,0.2-1,0.7-1.2c0,0,3.9-2.4,3.9-2.4c3.3-2,6.4-4.4,9.8-6.1
	c0.4-0.1,0.7,0,1.1,0.1c3.1,0.9,6.1,1.8,9.2,2.7c3.1,0.8,6.1,1.6,9.2,2.5c0.4,0.1,0.7,0.3,1,0.6c0.2,0.3,0.4,0.7,0.3,1.1
	c0.2,3.4,0.7,6.8,1.1,10.2c0.2,3.1,1,6.3,0.9,9.4c-1.5,2.1-4.7,2.9-7,3.9c1.5,0.3,2.9,1.1,4.2,1.6c0.3,0.1,0.6,0.3,0.8,0.5
	c0.2,0.3,0.2,0.6,0.1,0.9c0,1.7,0.2,3.4,0.2,5c4.2,0.2,8.3,0.4,12.4,0.9c1.7,0.4,1.8,2.1,1.7,3.6c0,3.4,0.1,6.8,0.1,10.2
	c0.1,0.8-0.3,1.5-0.9,2c0,0-6.4,5.1-6.4,5.1c-0.8,0.7-1.6,1.6-2.7,1.6c-0.5,0-0.7-0.6-1.2-0.6c-5.3-0.5-10.7-1.2-15.8-2.1
	c-1.3-0.3-2.7-0.2-4-0.6c-0.4-0.3-0.6-0.8-1-1.2c-3.8,1.8-7.6,3.7-11.7,4.8c-0.9,0.3-1.4,0.1-1.9-0.8c-0.7,0.3-1.2,0-1.8-0.3
	c-1.5-0.8-3-1.4-4.5-2.2c-3.4-1.8-6.8-3.6-10.2-5.4c-0.4-0.2-0.8,0-1.2-0.1c-0.5-0.1-0.9-0.5-1.1-1c-0.5-5.1-1.2-14.5-1.2-19.6
	c0.5-0.8,1.6-0.8,2.5-1.1c0,0,14.9-4.3,14.9-4.3S25.4,35.9,25.4,35.9z M27.4,67.8c-0.3-5-0.4-10.1-0.6-15.1c0-0.3-0.1-0.5-0.4-0.6
	c-3.9-1.8-12.6-6.2-16.6-8c0.4,5,0.8,9.9,1.1,14.9c0,0.3,0.1,0.5,0.5,0.5c0.5-0.1,0.9,0.3,1.1,0.7c0.1,0.2,0.2,0.3,0.4,0.3l14.1,7.1
	C27,67.7,27.2,67.7,27.4,67.8L27.4,67.8z M43,40.2c-0.6-5.2-1.2-10.3-1.8-15.5c0-0.3-0.1-0.4-0.4-0.5c-5.1-1.4-10.1-2.6-15.1-4.3
	l1.8,15.4c0.6-0.1,1.2,0.1,1.5,0.6c0.1,0.1,0.2,0.2,0.4,0.2C34,37.1,38.6,38.7,43,40.2z M54,41.3v-0.2c-0.4-0.1-2.6-0.4-3-0.5
	c-0.2-0.1-0.5-0.1-0.7,0c-1.4,0.6-2.8,1.2-4.2,1.8c-1.9,1.1-4.1-0.2-5.9-0.9c-4-1.3-8.1-2.5-12.2-3.7c-0.4-0.1-0.8-0.1-1.1,0
	c-2.6,0.7-5.2,1.5-7.8,2.2c-2.8,0.8-5.4,1.4-8,2.2l15.8,7.6c3.6-1.4,7.4-2.4,11.1-3.6C43.4,44.9,48.5,42.7,54,41.3z M43.3,53.9
	c0.1,2.5,0.2,5,0.3,7.5c0,1-0.1,2,0,3c0,0.8,0.2,0.9,0.9,1C50,66,55.6,67,61.3,67.5V56.4c-3.4-0.2-6.8-0.8-10.2-1.2
	C48.5,54.9,45.9,54.6,43.3,53.9z M27,18.1c4.6,1.3,9.3,2.5,14,3.8c0.3,0.1,0.6,0.1,0.9,0.1c4.3-2.1,8.7-4.1,12.9-6.5
	c-1.5-0.5-3-0.8-4.5-1.2c-0.5-0.2-0.9,0.2-1.4,0.1c-0.5,0-0.7-0.5-1.1-0.6c-2.3-0.6-4.6-1.2-6.9-1.7c-1.1-0.3-2.3-0.4-3.5-0.6
	c-0.2,0-0.4,0-0.5,0.1C35.9,12.2,27.9,17.5,27,18.1z M45.4,52v0.2c4.9,0.7,9.9,1.1,14.8,1.8c0.5,0.1,1.1,0.1,1.5-0.5
	c0.2-0.3,0.8-0.3,1.1-0.5c0,0,5.2-2.9,5.2-2.9c0.1,0,0.2-0.1,0.3-0.3c-4.9-0.5-9.7-0.5-14.6-1c-0.7,0-1.5-0.3-2.1,0.3
	C49.4,49.8,47.5,51.1,45.4,52z"/>
</svg>
