<?xml version="1.0" encoding="utf-8"?>
<!-- Generator: Adobe Illustrator 24.3.0, SVG Export Plug-In . SVG Version: 6.00 Build 0)  -->
<svg version="1.1" id="Layer_1" xmlns="http://www.w3.org/2000/svg" xmlns:xlink="http://www.w3.org/1999/xlink" x="0px" y="0px"
	 viewBox="0 0 80 80" style="enable-background:new 0 0 80 80;" xml:space="preserve">
<path d="M58.9,49.4l-2.6-4.5c-0.5-0.6-0.7-2.1-1.6-1.8c-3.5,0.6-7,0.7-10.6,0.4c-2-0.1-3.3-2.5-3-5.7c0.1-2.4,0.9-5.1,2.9-6.5
	c1.2-0.7,2.6-0.4,3.9-0.6c-1.1-2.4-1.8-5-3-7.3c-2.4-0.1-4.9,0.3-7.2,0.4c-0.3,0-0.5,0.2-0.7,0.6c-1.5,3-2.9,5.9-4.4,8.9
	c0.5,0.1,1.3,0.3,1.8,0.4c0.5,0.2,0.9,0.7,1,1.2c0.3,1.6,0.4,3.3,0.1,5c-0.1,2.8-3.2,3.2-5.3,4.1c0.9,2.7,2.1,5.4,3.1,8.1
	c0.2,0.5,0.4,0.7,0.8,0.7c4.3,0.2,8.8,0.3,13.1,0.4c1.2,0,1.9,0.8,1.7,2.4c1.6,1.4,2.7,3.4,2.4,5.6c-0.2,2.2-0.8,3.9-2.2,4.5
	c-3.4,1.3-7.1,1.7-10.6,2.3c-3.4,0.3-6.7,0.4-10.1,0.6c-2.8,0.1-4-1.6-4.1-4.6c0.2-3.5-0.3-11.3,4.1-11.5c0.8,0,1.6,0,2.5,0
	c-0.9-2.7-2-5-2.9-7.6c-0.1-0.3-0.3-0.5-0.5-0.4c-2,0.5-4,1-6,1.3c-0.2,0-0.4,0.1-0.5,0.3c-1.5,2-3,4.1-4.5,6.1
	c1.7,3.1,1.9,6.8,0.2,9.9c-2.1,3.3-4.8,3.7-7.3,1.5C7,61.3,5.8,52.6,10.2,51c0.2-0.1,0.4-0.2,0.6-0.3c1.2-1.1,2.4-1.2,3.6,0.1
	l3.7-6.3c-1.6-2.5-1.9-7.2-0.6-10.5c0.6-1.5,1.5-2.3,2.6-2.2c3.3,0.2,6.6,0.4,9.9,1c0.1,0,0.3-0.1,0.4-0.2c1.3-2.8,2.6-5.5,3.8-8.3
	c-1.8-0.1-3.6,0.2-5.3,0.2c-1.3,0.1-2.1-0.4-2.4-2c-0.7-4.2-0.6-9.1,1.7-12.8c1.4-1.8,3.8-2.4,6-2.5c4.2-0.3,8.2,0.6,12.3,1.5
	c0.5,0.2,1,0.2,1.5,0c0.6-0.3,1.1,0.1,1.4,0.9c1.6,4.5,4.6,12.5-2.1,13.3c0.8,2.2,1.7,4.3,2.9,6.3c0.4,0.5,1,1.5,1.6,1.5
	c0,0,4.1,0,4.1,0c0.4,0,0.8,0.1,1.1,0.3s0.5,0.5,0.7,0.9c0.6,1.2,1.3,2.2,1.8,3.4c0.8,1.8,0.9,4,0.1,5.8c-0.4,0.7-1.2,1.1-1.9,1.4
	c1.4,2.1,2.8,4.1,4.3,6.2c0.1,0.1,0.3,0.2,0.5,0.2c3.8,0.1,7.5,0.1,11.3,0.2c0.6,0.1,1.1,0.5,1.4,1c2.3,3.7,1.4,10.3-2.2,12
	c-3.3,1.7-16,3.6-18.1,0c-0.4-0.6-0.6-1.4-0.5-2.1c0.1-2.2,0.2-4.4,0.3-6.6C54.7,50.3,56.9,50.2,58.9,49.4z M61.2,60.6
	c3.6-0.2,6.8-0.6,10.2-1.6c1.7-0.5,2.4-1.6,2.6-4c0.1-1.2-0.4-2.8-1.5-2.8c-3.1,0.1-6.1,0-9.1,0.2c-0.6,0.7-1.2,1.1-1.9,0.4
	c-0.1-0.1-0.3-0.3-0.5-0.2c-1.2,0.3-2.4,0.6-3.6,0.9c-0.5,0.1-0.6,0.5-0.7,1.2c0,1.3-0.1,2.6-0.2,3.9c0,1.3,0,1.5,0.9,1.6
	C58.7,60.4,60,60.5,61.2,60.6z M50.1,34.2v-0.1l-4.7,0.3c-0.7,0.1-1.3,0.6-1.4,1.3c-0.3,1.1-1.5,4.1,0.2,4.3
	C48.6,40,53,40.2,57.3,39c0.8-0.1,0.5-1.3,0.2-2c-0.4-0.8-0.9-1.6-1.3-2.5c-0.1-0.4-0.6-0.7-1-0.6C55.2,33.9,50.1,34.2,50.1,34.2z
	 M32.6,36.5c-4-0.7-8.2-1.1-12.4-1.3c-0.4,0-0.8,0.3-0.9,0.9c-0.3,1.4-1,5.5,0.8,5.9c0.8,0.1,1.6,0.1,2.4,0
	c3.5-0.7,7.1-1.4,10.4-2.8C33.9,38.6,32.9,37.5,32.6,36.5z"/>
</svg>
