<?xml version="1.0" encoding="utf-8"?>
<!-- Generator: Adobe Illustrator 24.3.0, SVG Export Plug-In . SVG Version: 6.00 Build 0)  -->
<svg version="1.1" id="Layer_1" xmlns="http://www.w3.org/2000/svg" xmlns:xlink="http://www.w3.org/1999/xlink" x="0px" y="0px"
	 viewBox="0 0 80 80" style="enable-background:new 0 0 80 80;" xml:space="preserve">
<path d="M23.3,42.7c-7.6-9.4-4.9-24.4,6.5-29.2c1.9-0.9,3.9-1.4,5.9-1.5c0.3,0,0.4-0.1,0.5-0.4c0.7-1.6,1.3-3.2,2-4.8
	c0.2-0.6,0.7-1,1.2-1.1c0.2-0.1,0.3-0.5,0.5-0.6c0.7-0.4,1.6-0.4,2.2,0c1.2,0.6,1.4,2.1,1.5,3.2c0,0.7-0.4,1.1-1.1,1.1
	c-0.1,0-0.2,0.1-0.3,0.2L41,12.1c9.9,1.6,17.8,11.2,17,21.3c5.9,1.4,15.8,3.7,15.6,11.2c0.1,2.3-0.2,4.6-0.5,6.9
	c0.4,1.7,0.1,3.4-0.2,5.1c-0.9,2.8-4,4.2-6.7,4.3c-1.7,0-3.4,0.1-5,0.7c-3.9,1.6-7.5,3.6-11,5.9c-3.7,2.5-7.5,4.8-11.5,6.8
	c-4.9,1.2-10,1.4-14.9,0c-4.1-1-8.3-1.8-12.1-3.6c-0.6-0.3-1.1-0.7-1.5-1.3c-1-1.6-0.9-3.7-1.3-5.5C8.4,60.7,8.7,57.3,8.6,54
	c0-0.6,0.2-1.2,0.3-1.9c0.2-0.9,0-1.9,0.4-2.7c0.7-0.9,2-1.1,2.9-1.7C15.9,46,19.4,44.1,23.3,42.7z M35.5,13.9
	C24.6,14.8,17.6,27.1,22.2,37c4.9,12.8,24,16.2,31.4,3.9c7-10.5-1.1-25.4-13.2-26.9c-0.4,1.4-0.6,2.8-0.5,4.2c1-0.2,1.9-0.6,2.8-0.7
	c0.8,0.1,1,1.1,0.5,1.6c-1.2,1.5-12,1.6-11.6-1.1c0.1-0.8,1.2-0.9,1.7-0.5c0.4,0.3,0.9,0.5,1.4,0.5C34.9,16.6,35.4,15.3,35.5,13.9z
	 M11,54.6c0,1.5-0.1,3-0.2,4.5c0,0.2,0.1,0.4,0.2,0.5c0.7,0.8,1.6,1.5,2.6,1.9c3.3,1.4,6.3,3.3,9.9,4c1.1,0,2.1,0.3,3.1,0.5
	c3.4,0.4,6.9,0.8,10.4,0.4l0.4-3.9c-3.2-0.4-6.3-1.2-9.5-1.6c-1.2-0.3-3.2-0.9-4.4-1.2C19,58.6,14.7,57.1,11,54.6z M10.8,62.4
	c0.1,1.9,0.4,3.8,1,5.6c0.5,1.4,2.2,1.6,3.4,2c4.7,1.1,9.3,2.8,14.1,3.1c2.6-0.1,5.2,0,7.7-0.7V69C28.6,69,17.2,68.5,10.8,62.4z
	 M40,66c2.7-1.7,7.8-5.1,10.4-6.8c1.6-1.4,3.6-2.3,5.4-3.4c2-1.3,4.2-2.3,6.6-2.9c0.1,0,0.2-0.2,0.2-0.3c0.2-1.6,0.3-3.1,0.6-4.7
	c-2.7,0.8-4.9,2.8-7.3,4.3c-2.4,1.7-5,3.2-7.6,4.5c-2.8,1.6-5.9,2.9-8.4,4.9c-0.3,1,0,2.1-0.1,3.1C39.6,65,39.7,65.6,40,66z
	 M39.1,71.9c5.5-2.9,10.3-6.7,15.8-9.6c2.3-1.3,4.8-2.2,7.1-3.2c0.3-1.3,0.3-2.8,0.5-4.1c-4.1,1.5-8,3.9-11.5,6.5
	c-3.8,2.6-7.7,5-11.8,7.1c-0.1,0.1-0.2,0.2-0.2,0.3C39.1,69.9,39.1,70.9,39.1,71.9z M65.1,52.7c1.1,0,2.2,0.7,3.4,0.4
	c0.8-0.2,1.7-0.2,2.3-0.8c0.7-1.7,0.8-3.7,0.9-5.5c-1.9,1.1-4.2,1.3-6.3,0.9c-0.1,1.2-0.3,2.4-0.3,3.6
	C65.3,51.7,65.3,52.2,65.1,52.7z M64.7,54.8L64.3,59c3.4-0.1,6.5-0.6,6.7-4.6C68.9,55.3,66.8,54.9,64.7,54.8L64.7,54.8z M38,18.2
	c0-3.3,0.9-6.6,2.7-9.4l-0.9-1.1c-1.6,3.3-2.6,6.9-2.9,10.5H38z"/>
</svg>
