<?xml version="1.0" encoding="utf-8"?>
<!-- Generator: Adobe Illustrator 24.3.0, SVG Export Plug-In . SVG Version: 6.00 Build 0)  -->
<svg version="1.1" id="Layer_1" xmlns="http://www.w3.org/2000/svg" xmlns:xlink="http://www.w3.org/1999/xlink" x="0px" y="0px"
	 viewBox="0 0 80 80" style="enable-background:new 0 0 80 80;" xml:space="preserve">
<path d="M24.9,18.2c-0.5-2.7-1-5.2-1-7.9c0-0.2,0.1-0.4,0.2-0.5c0.7-0.5,1.8-0.5,2.6-0.8c4.4-0.8,8.8-1.5,13.3-1.6
	c0.5-0.1,8.9-0.5,9.1-0.6c0.7-0.2,1.3,0.6,1,1.3c-0.7,3.3-0.3,6.7-0.6,10H50L62.3,18c0.3,0,0.7,0.1,1,0.2c0.7,0.2,0.4,0.9,0.6,1.4
	c3.1,4.5,2.9,10.4,3.1,15.7c0,0.3,0.1,0.6,0.4,0.8c3.8,2.6,6.7,6.3,8.3,10.6c0.6,1.6,1.1,3.3,1.3,5c0.4,0.5,0.3,1.1,0.3,1.7
	c0.8,11-8.3,21.9-19.7,21.1c-6.5-0.4-11.9-3.3-16-9.1c-0.1-0.2-0.3-0.3-0.5-0.2c0,0-17.7,0.2-17.7,0.2c-3.9,0-7.7,0.1-11.6,0.1
	c-1,0.1-1.1-1-1.3-1.7c-3.8-9.9-6.4-20.4-5.2-31.1c0.4-4.7,0.6-10,2.9-14.2C8.5,18,9,17.9,9.4,18c0.3,0,0.6,0.3,0.9,0.3
	c0,0,14.1-0.1,14.1-0.1S24.9,18.2,24.9,18.2z M14.5,46.5c-0.1-1.5-0.4-3.1-0.2-4.7c0.4-1.1,1.7-0.9,2.7-1c0.9,0,1.3,0.3,1.6,1.4
	c0.4,1.4,0.6,2.8,0.9,4.3c0,0,0.3,0,0.3,0s18.2,0.1,18.2,0.1c0.3,0,0.4-0.1,0.4-0.4c0.7-2.3,1.8-4.5,3.2-6.4
	c5.3-7.4,15.9-9.3,23.8-5c-0.2-4.8,0-10.1-2.7-14.3c-0.2-0.2-0.2-0.7-0.6-0.6c0,0-12.1,0.1-12.1,0.1c-0.4,0-0.6,0.4-1,0.4
	c-0.4,0-0.7-0.5-1.1-0.4c0,0-10.3,0-10.3,0L10,20.2c-0.4,0.1-0.8-0.3-0.9,0.3C6.8,27.7,6.5,35.5,7,43.1c0.1,1,0.3,2,0.5,3.1
	c0,0.3,0.2,0.4,0.4,0.4h6.1H14.5z M40.2,63.3c-2.5-4.5-3.3-9.7-2.5-14.7h-18c0,1.7,1.3,4.8-1.2,5.3c-1.1,0-2.4-0.3-3.1-1.2
	c-0.7-1.2-0.5-2.8-0.7-4.2h-7c0.9,5,2.6,9.8,4.4,14.6c0.1,0.3,0.4,0.5,0.6,0.4C14.5,63.5,39.2,63.3,40.2,63.3z M57.2,44.9
	c-0.6,3.4-0.8,6.7-1.8,10c-0.3,0.7,0.5,1.3,1,1.7c2.1,1.4,4.1,2.8,6.2,4.3c-0.4,0.6-1,1.4-0.2,1.9c1,0.3,2.1,0,3.1,0.1
	c0.8,0,1.3-0.3,1.4-1.2c0.1-1.1,0.3-3-0.6-3.8c-1.1-0.6-2,0.5-2.6,1.4c-0.1,0-0.1-0.1-0.2-0.1l-5.3-3.7c-0.2-0.1-0.2-0.2-0.2-0.5
	c0.4-3.3,1-6.5,1.2-9.8c0.7-0.1,1.5,0.4,2.1-0.3c0.3-0.3,0.3-0.8,0.2-1.1c-0.3-1.2-0.7-2.4-1.2-3.6c-0.4-0.9-1-1.2-1.8-0.3
	C57.6,41.2,53.6,44,57.2,44.9z M28.9,14c0.1,1.3,0.4,2.5,0.5,3.8c0,0.3,0.2,0.4,0.4,0.4l14.2,0h0.3v-4.9C39.1,13.1,34,13.4,28.9,14z
	"/>
</svg>
