<?xml version="1.0" encoding="utf-8"?>
<!-- Generator: Adobe Illustrator 24.3.0, SVG Export Plug-In . SVG Version: 6.00 Build 0)  -->
<svg version="1.1" id="Layer_1" xmlns="http://www.w3.org/2000/svg" xmlns:xlink="http://www.w3.org/1999/xlink" x="0px" y="0px"
	 viewBox="0 0 80 80" style="enable-background:new 0 0 80 80;" xml:space="preserve">
<path d="M76.9,63.1c-0.4-0.2-0.3-0.5-0.3-0.8l-0.8-9.5c-0.1-0.5,0.3-1,0.3-1.5c-0.8-2.4-2.5-4.8-3.7-7.1C72,43,70.2,43,70.2,44.3
	c-0.6,1.4-1.5,2.6-1.8,4.1c-0.1,0.7,0.1,1.3,0.1,2L64,51.4c-0.2-1.2-0.1-2.4-0.6-3.5c-0.6-0.8-1.2-1.6-1.8-2.4
	c-0.9-1.4-2.1-0.3-3,0.5c-0.3-3.6-0.6-7.1-0.9-10.7c2.6,0,5.4,0,8,0c1.4,0.2,1.9-1.3,1-2.2c-4-4-7.8-8.1-12.1-11.8
	c-3.3-2.9-6.5-6-9.4-9.2c-1.9-2.1-3.7-4.2-5.5-6.3c-0.7-1.1-2-1.4-2.4,0.1c-0.4,0.1-0.7,0.3-1,0.5c-1.2,1.4-2.4,2.7-3.5,4.2
	c-6.6,8.6-13.3,17.1-19.1,26.3c-0.6,1,0.4,1.4,0.7,2.1c0.2,0.5,0.7,0.7,1.2,0.6c1.9-0.3,5.7-0.9,7.5-1.2c0.2,3.1,0.2,6.1,0.2,9.2
	c0,0-0.1,0-0.1,0c-0.8-1.2-2.1-2.7-3-0.6c-0.9,1.8-2,3.5-1.7,5.6L11.7,54c0-2.3-1.8-4-2.7-6.1c-0.5-1.3-2.5-3.6-3.5-1.6
	c-0.6,1.8-0.7,3.7-1,5.5C4.3,52.6,5,53.1,5,53.8c0.5,3.6,0.9,7.2,1.4,10.9c0.1,0.9,0.2,1.8,0.4,2.8c0.2,1,0.6,1.2,1.6,1.2
	c4.9-0.3,9.8-0.3,14.7-0.5c2,0.4,4,0.6,6,0.7c0.5,2.4,0.2,4.8,1.4,6.9c0.5,0.8,1.5,0.4,1.8-0.3c1.6-2.3,3.4-4.5,4.6-7
	c0.4,0,0.8-0.1,1.2-0.1l18.9-0.8c1.1,0.1,2-0.4,3.1-0.5c1.8-0.2,15.1-1.4,16.6-1.7C76.8,64.7,77.1,63.6,76.9,63.1z M9,66.2
	c-0.7-4.1-1.2-8.1-1.8-12.1c-0.1-0.6-0.1-1.3-0.7-1.7l0.6-3.2c0.7,1.1,1,2.5,2.1,3.3c0.2,0.2,0.2,0.4,0.2,0.6c0.4,4.4,0.7,8.6,1,13
	L9,66.2z M12,56.1l6.6-1.2l0.3,4.8c-2.2,0.3-4.3,0.5-6.5,0.7L12,56.1z M12.7,66l-0.1-3.5l6.4-0.4l0.7,3.7L12.7,66z M23.3,66
	l-1.5-0.1c-0.5-3.8-0.7-7.5-0.9-11.3c0-1.3-0.6-2.7-0.1-3.9c0.3-0.5,0.5-1.1,0.8-1.7c0.4,0.5,0.7,1.2,1.2,1.5
	c0.6,0.3,0.6,0.9,0.6,1.5C23.4,56.8,23.5,61.3,23.3,66z M34.9,67.7c-0.6,1-1.2,2-1.9,3h-0.2c-0.8-5.3-1.6-10.6-2.4-15.9
	c-0.2-0.6,0-1.3,0.5-1.7c1.1-1,2-2.2,3.2-3.2c0.4,4.2,0.6,8.5,0.9,12.7C35.1,64.3,35.8,66.1,34.9,67.7z M46.8,65.6
	c0.6-0.5,0.8-1.3,0.6-2c-0.1-2.6-0.1-5.2-0.3-7.8c-0.1-2.8-0.3-5.6-0.5-8.4c-0.1-0.7-0.5-1.4-0.9-2c-0.3-0.5-0.8-0.5-1.3-0.4
	c-1.9,0.3-6.9,1.2-8.7,1.4c-0.6,0-1.1,0.3-1.5,0.6l-4,3.8c-0.3,0.3-0.6,0.6-1.1,0.6c-0.6,0.1-1,0.9-0.9,1.5c0,4.5,0.2,9,0.7,13.6
	c-1,0-2,0.1-2.9,0c-0.4-0.2-0.2-0.6-0.3-0.9c0-6.6,0-13,0-19.6c0-2.2-0.2-4.5-0.4-6.8c-0.1-0.5,0-1,0.2-1.4c10-0.3,20-1.7,30-2.6
	c0.9,10,0.9,20.1,2.4,30L46.8,65.6z M60.2,64.9c-0.6-5.2-1.1-10.2-1.4-15.3c0-0.3,0.1-0.6,0.3-0.7c0.4-0.4,0.8-0.8,1.2-1.3
	c0.5,0.8,1.3,1.4,1.4,2.3c0.1,1.9,0.2,3.7,0.4,5.6c0.2,2,0.4,4.1,0.7,6.1c0.4,0.9,0.6,1.9,0.7,2.9L60.2,64.9z M65.2,59.5
	c-0.2-2.1-0.9-3.9-1-6.1l4.5-0.7c0.2,2.2,0.3,4.2,0.4,6.3L65.2,59.5L65.2,59.5z M65.8,64.2l-0.3-2.5c1.3-0.2,2.7-0.3,4-0.4l0.3,2.5
	L65.8,64.2z M74.2,63.3c-0.3,0-2,0.2-2.3,0.2c-0.3-4-0.5-7.9-0.9-11.9c-0.2-1.5-0.7-3.2,0.4-4.6c0.7,1.1,1.2,2.3,1.9,3.4
	c0.2,0.3,0.3,0.7,0.1,1.1c-0.2,0.8,0.2,1.6,0.3,2.3C73.8,57,74.1,60.2,74.2,63.3z"/>
</svg>
