<svg width="228" height="228" viewBox="0 0 228 228" fill="none" xmlns="http://www.w3.org/2000/svg">
<path d="M205.639 137.789C205.343 135.146 204.523 132.536 203.061 130.297C201.95 128.596 200.63 127.158 198.957 126.221C200.443 120.267 200.386 113.976 198.51 108.06C197.931 106.235 197.19 104.468 196.312 102.772C195.31 100.725 194.067 98.7978 192.612 97.0373C191.474 95.6604 189.904 93.9665 188.145 92.756C188.058 92.6898 187.974 92.6198 187.887 92.5545C187.634 92.3664 187.371 92.2062 187.106 92.0532C188.857 90.1019 190.092 87.6609 190.633 85.0943C191.832 79.409 189.629 73.4791 185.831 69.2356C181.536 64.4378 175.353 60.915 169.103 59.4493C168.238 59.2466 167.374 59.0916 166.511 58.9711C164.004 58.1838 161.42 57.7613 158.838 57.7982C157.848 54.2548 154.494 51.6251 151.219 50.2565C147.293 48.6162 142.874 48.4232 138.786 49.5854C134.281 50.8662 130.309 53.4359 126.686 56.3375C123.135 59.1812 119.764 62.37 116.81 65.8319C110.852 72.815 106.171 80.7531 102.93 89.3397C99.5436 98.311 98.6787 108.048 95.0045 116.92C93.154 121.388 90.5292 125.335 86.7429 128.402C85.0737 129.754 83.0984 130.933 81.075 131.666C80.6178 131.832 80.1351 131.99 79.6405 132.138C79.1824 132.024 78.7228 131.916 78.27 131.808C76.8562 131.472 75.4308 131.184 73.9971 130.946C73.713 130.899 73.4273 130.862 73.1426 130.818C72.9807 130.699 72.7782 130.612 72.519 130.579C72.3936 130.563 72.266 130.554 72.1403 130.539C72.1406 130.536 72.1408 130.534 72.1411 130.532C72.1276 130.532 72.114 130.533 72.1005 130.534C70.4921 130.342 68.8602 130.221 67.2146 130.172C66.559 130.13 65.903 130.096 65.2467 130.074C59.4937 129.886 53.704 130.469 48.1025 131.795C42.016 133.236 34.805 135.831 30.499 140.704C29.2606 141.536 28.0877 142.468 27.0826 143.549C23.5202 147.379 21.9986 152.946 24.1779 157.837C26.1056 162.163 30.4503 165.111 34.5668 167.124C39.7988 169.681 45.365 171.609 51.0649 172.803C54.0259 173.424 57.042 173.8 60.0607 174.005C61.8197 174.528 63.5847 175.031 65.3628 175.49C71.4417 177.062 77.7427 178.149 84.0232 178.364C85.0602 178.399 86.09 178.397 87.1165 178.376C89.29 178.722 91.5245 178.977 93.7018 178.965C98.8548 178.937 104.038 177.891 108.846 176.051C117.076 172.902 127.185 166.444 126.849 156.629C126.919 156.169 126.955 155.706 126.971 155.243C127.448 155.464 127.952 155.652 128.481 155.802C130.83 156.467 133.368 156.307 135.694 155.636C137.123 155.224 138.853 154.652 140.342 153.818C140.342 153.82 140.343 153.821 140.343 153.823C140.905 155.127 141.747 156.392 142.751 157.399C144.884 159.537 147.853 160.875 150.855 161.096C154.77 161.384 159.152 159.339 161.706 156.106C162.105 156.798 162.58 157.437 163.053 157.969C164.84 159.983 167.541 161.132 170.146 161.603C173.109 162.138 176.149 162.042 179.135 161.77C182.024 161.507 184.912 161.046 187.694 160.21C197.347 157.31 206.868 148.761 205.639 137.789ZM164.499 63.2216C167.14 63.476 169.798 64.1791 172.322 65.2178C179.742 70.5074 185.861 79.189 184.077 87.2017C183.171 88.3587 182.385 89.6211 181.426 90.7365C180.26 92.0922 178.93 93.3266 177.457 94.3423C174.451 96.4142 170.852 97.7924 167.235 98.2862C167.106 98.3039 167.004 98.3506 166.908 98.4023C164.023 98.3261 161.114 97.8167 158.355 97.1063C157.945 97.0727 155.272 95.7047 154.786 95.0545C146.221 85.0114 151.817 104.951 131.441 101.644C130.274 101.607 128.25 101.181 127.734 102.546C126.398 104.448 125.369 106.508 124.525 108.667C124.085 109.365 123.854 110.164 123.688 111.007C120.753 120.013 120.231 130.331 114.446 138.19C109.272 147.919 95.3008 159.115 84.4435 155.414C83.8481 153.966 85.2481 153.432 86.3857 153.272C114.148 153.439 116.748 120.741 123.761 100.707C127.174 93.4522 131.447 83.939 137.08 76.0161C144.885 69.3098 153.594 62.171 164.499 63.2216ZM89.4395 142.993C89.7661 142.66 90.0998 142.339 90.4096 141.99C90.5695 141.81 90.8555 141.84 91.0192 141.99C91.1838 142.141 91.1887 142.45 91.0192 142.6C90.6402 142.935 90.2499 143.285 89.8024 143.526C89.3865 143.749 88.9263 143.87 88.4555 143.904C88.4457 143.905 88.4438 143.892 88.4509 143.887C88.8239 143.64 89.1279 143.309 89.4395 142.993ZM87.6915 141.758C87.3389 141.971 86.9573 142.198 86.5563 142.303C86.3467 142.358 86.097 142.37 85.9116 142.476C85.7782 142.552 85.6082 142.587 85.4571 142.625C85.3947 142.642 85.3682 142.545 85.4306 142.529C85.5835 142.49 85.7431 142.429 85.8936 142.408C86.0789 142.382 86.2565 142.216 86.4046 142.106C86.7345 141.861 87.082 141.643 87.3987 141.379C87.7243 141.107 88.0292 140.811 88.3149 140.498C88.4605 140.339 88.5983 140.213 88.773 140.086C88.9387 139.965 89.0996 139.839 89.2576 139.709C89.4235 139.572 89.6851 139.744 89.5666 139.947C89.4586 140.133 89.3461 140.316 89.2275 140.495C89.0938 140.697 88.9559 140.846 88.767 140.998C88.4243 141.273 88.0677 141.531 87.6915 141.758ZM89.2191 138.762C87.2334 140.311 84.7373 141.606 82.1497 141.41C81.9927 141.398 81.9329 141.14 82.1099 141.115C87.1699 140.415 90.539 136.239 93.4146 132.419C93.6396 132.12 94.2259 132.28 94.0742 132.697C93.6309 133.913 93.0165 134.93 92.1789 135.919C91.2939 136.964 90.2985 137.919 89.2191 138.762ZM111.732 106.316C110.654 108.882 109.635 111.438 108.739 114.073C108.718 114.134 108.622 114.107 108.643 114.046C109.548 111.385 110.412 108.707 111.37 106.064C112.307 103.482 113.305 100.888 114.615 98.4724C114.677 98.3586 114.867 98.4375 114.825 98.5608C113.938 101.195 112.809 103.754 111.732 106.316ZM113.929 105.333C113.586 106.304 113.164 107.226 112.713 108.151C112.488 108.61 112.273 109.074 112.085 109.549C111.892 110.035 111.658 110.502 111.482 110.997C111.424 111.161 111.156 111.145 111.164 110.954C111.188 110.441 111.221 109.899 111.353 109.401C111.488 108.891 111.648 108.388 111.822 107.89C112.172 106.883 112.626 105.936 113.098 104.983C113.327 104.522 114.1 104.851 113.929 105.333ZM109.059 125.998C109.887 124.064 110.462 122.03 111.238 120.075C111.386 119.703 112.023 119.711 111.993 120.177C111.846 122.437 111.096 124.47 110.038 126.462C109.523 127.431 108.875 128.323 108.135 129.133C107.383 129.956 106.733 130.856 105.997 131.695C105.954 131.743 105.884 131.672 105.926 131.624C106.695 130.749 107.392 129.876 107.861 128.804C108.268 127.872 108.658 126.933 109.059 125.998ZM125.621 83.2611C125.77 83.0501 125.923 82.8418 126.078 82.6357C126.236 82.4263 126.413 82.2338 126.589 82.0395C126.767 81.8441 126.945 81.6502 127.125 81.4572C127.173 81.4061 127.684 80.8923 127.667 80.8715C127.634 80.8294 127.676 80.7625 127.728 80.7931C127.749 80.8056 127.758 80.8328 127.748 80.8555C127.734 80.8892 127.713 80.8736 127.689 80.8844C127.638 80.9082 127.6 80.9898 127.565 81.0447C127.516 81.1219 127.467 81.199 127.418 81.2762C127.325 81.4233 127.232 81.5705 127.14 81.718C126.952 82.0175 126.767 82.3185 126.586 82.6223C126.41 82.9198 126.204 83.201 126.019 83.4937C125.86 83.7465 125.451 83.5015 125.621 83.2611ZM125.572 80.8242C125.32 81.2749 125.125 81.7483 124.899 82.2113C124.688 82.6436 124.447 83.0637 124.231 83.4937C124.114 83.7258 123.716 83.559 123.81 83.3162C123.999 82.8276 124.168 82.3091 124.414 81.8457C124.659 81.384 124.945 80.9362 125.25 80.5122C125.542 80.1074 125.86 79.6712 126.257 79.3643C126.445 79.2194 126.642 79.0861 126.848 78.969C126.923 78.9262 126.958 78.8688 127.012 78.8159C127.091 78.739 127.206 78.685 127.301 78.6283C127.356 78.5951 127.406 78.6816 127.351 78.7147C127.195 78.8088 126.975 78.9028 126.855 79.0321C126.685 79.2149 126.538 79.4125 126.39 79.6134C126.099 80.0096 125.814 80.3939 125.572 80.8242ZM127.119 77.1468C126.817 77.4087 126.516 77.6786 126.229 77.9563C125.652 78.5146 125.12 79.1446 124.649 79.7943C124.163 80.4638 123.749 81.1741 123.347 81.8956C122.939 82.6272 122.465 83.2894 121.972 83.9643C121.828 84.1612 121.462 84.0519 121.551 83.7867C121.831 82.9473 122.126 82.1489 122.6 81.395C123.046 80.6849 123.543 79.9996 124.083 79.3582C124.63 78.7096 125.23 78.1387 125.924 77.6497C126.275 77.4028 126.632 77.1951 127.027 77.0275C127.412 76.8636 127.762 76.637 128.148 76.4637C128.206 76.4375 128.257 76.5237 128.198 76.55C127.826 76.7174 127.426 76.8798 127.119 77.1468ZM143.144 52.998C142.937 53.0348 142.729 53.0677 142.524 53.1096C140.72 53.4782 138.955 54.0196 137.239 54.6903C139.12 53.8346 141.117 53.2067 143.144 52.998ZM110.323 87.2996C109.353 89.8552 108.436 92.454 107.53 95.059C108.387 92.4432 109.307 89.8506 110.323 87.2996ZM130.902 60.4327C137.037 56.7931 146.993 53.1364 152.919 58.7556C145.553 61.2689 139.957 67.3659 135.207 73.2712C129.939 74.3257 123.77 75.9947 120.183 80.9725C117.24 85.1014 114.882 89.8989 112.731 94.9506C112.496 95.4482 112.264 95.9478 112.024 96.4388L110.225 100.125C109.006 102.619 107.791 105.115 106.579 107.613C104.227 112.461 101.992 117.38 99.4874 122.152C99.0782 122.931 98.6492 123.701 98.2118 124.467C97.995 124.465 97.7721 124.559 97.603 124.807C95.9013 127.303 93.9769 129.639 91.872 131.798C91.8317 131.822 91.7898 131.833 91.7509 131.866C90.5429 132.886 89.3346 133.906 88.1266 134.926C87.8124 135.157 87.4886 135.375 87.1674 135.596C86.9545 135.719 86.7431 135.844 86.5266 135.961C85.0896 136.734 83.6187 137.443 82.1213 138.092C80.6447 138.732 79.1285 139.252 77.629 139.832C77.0453 140.057 76.4241 140.554 76.2734 141.131C76.1668 141.1 76.0589 141.073 75.9534 141.036C75.8207 140.99 75.6905 140.939 75.5594 140.889C75.5349 140.879 75.5265 140.876 75.508 140.87C75.2737 140.76 75.0417 140.65 74.819 140.518C74.7045 140.45 74.5925 140.378 74.4829 140.302C74.3498 140.18 74.2283 140.051 74.1055 139.921C74.0921 139.741 74.0843 139.544 74.1042 139.359C74.1161 139.324 74.162 139.03 74.2248 138.876C112.234 131.409 102.182 78.6432 130.902 60.4327ZM122.589 157.813C121.073 159.23 119.712 160.824 118.201 162.248C116.531 163.823 114.714 165.212 112.77 166.432C110.522 167.844 108.096 169.075 105.579 170.042C103.352 170.487 101.108 170.85 98.8556 171.124C96.7073 171.385 94.5505 171.566 92.3901 171.684C90.7537 171.688 89.1131 171.64 87.4695 171.539C73.079 170.658 59.1591 166.657 45.4069 162.593C41.8217 161.533 38.1251 160.623 34.627 159.298C32.518 158.5 30.353 157.096 29.0523 155.175C28.4223 153.736 28.1221 152.168 28.1869 150.524C28.8139 147.047 31.9668 144.985 34.8879 143.356C37.9999 141.621 41.2727 140.179 44.652 139.05C47.9697 137.941 51.3481 137.13 54.7688 136.593C57.5807 136.238 60.4183 136.046 63.295 136.084C65.5215 136.113 67.7466 136.247 69.9602 136.487C70.0928 136.502 70.2234 136.526 70.3557 136.542C70.341 136.574 70.3222 136.603 70.3082 136.635C69.6404 138.167 69.6586 139.75 70.3661 141.267C70.8902 142.391 71.9172 143.308 72.9854 143.903C74.1695 144.562 75.742 145.093 77.1133 144.94C77.4763 144.9 77.7989 144.77 78.0762 144.587C78.5918 145.515 79.1526 146.418 79.7402 147.301C80.3931 148.283 81.0738 149.247 81.7892 150.184C82.1497 150.656 82.5175 151.123 82.8924 151.584C82.9563 151.662 83.0173 151.745 83.0788 151.826C77.4439 155.639 84.9837 160.63 89.4406 158.779C96.3159 157.483 105.683 154.61 110.56 148.91C111.394 149.05 112.225 149.198 113.068 149.318C114.154 149.473 115.238 149.656 116.32 149.836C116.825 149.92 117.327 150.015 117.832 150.103C119.804 151.037 121.474 152.515 122.589 154.354C122.664 154.677 122.729 155.003 122.761 155.332C122.848 156.199 122.775 157.024 122.589 157.813ZM124.231 133.265C123.303 137.372 121.59 141.619 121.501 145.883C121.468 145.863 121.447 145.83 121.412 145.814C121.305 145.767 121.196 145.73 121.088 145.691C119.799 144.926 118.395 144.341 116.969 143.94C116.87 143.912 116.769 143.894 116.67 143.868C116.745 143.75 116.821 143.631 116.895 143.518C117.865 142.045 118.713 140.475 119.546 138.921C121.279 135.683 122.754 132.322 124.052 128.887C124.945 126.523 125.748 124.121 126.431 121.687C125.835 125.569 125.095 129.439 124.231 133.265ZM199.653 144.228C197.807 148.291 193.959 150.862 189.973 152.559C185.51 154.459 180.531 155.72 175.659 155.575C170.781 155.429 163.789 153.427 164.584 147.241C164.614 147.013 164.542 146.813 164.423 146.656C164.574 146.282 164.72 145.91 164.857 145.544C165.863 142.859 166.492 140.053 166.799 137.205C167.109 134.333 167.276 131.058 166.317 128.292C165.921 127.148 164.236 127.316 164.195 128.579C164.122 130.815 164.414 133.035 164.278 135.277C164.142 137.542 163.743 139.786 163.11 141.965C161.975 145.871 160.058 150.334 156.799 152.949C153.723 155.418 149.688 154.747 146.882 152.19C144.913 150.395 143.83 148.041 143.295 145.527C143.27 145.38 143.258 145.237 143.22 145.087C143.218 145.079 143.213 145.074 143.211 145.066C142.947 143.644 142.84 142.182 142.854 140.743C142.878 138.116 143.258 135.526 143.552 132.921C143.711 131.517 143.855 130.108 143.967 128.699C144.081 127.261 143.979 125.888 143.935 124.454C143.913 123.749 142.894 123.768 142.848 124.461C142.474 130.02 140.491 135.361 140.339 140.968C140.291 142.71 140.4 144.515 140.735 146.268C140.481 147.049 140.115 147.78 139.624 148.424C138.034 148.872 136.542 149.94 134.994 150.448C134.696 150.546 134.394 150.634 134.09 150.714C133.825 150.706 133.56 150.691 133.3 150.664C131.594 150.486 129.819 149.933 128.434 148.894C127.558 148.236 126.999 147.421 126.699 146.505C126.686 145.751 126.785 144.988 126.915 144.276C127.656 140.228 128.956 136.286 129.74 132.237C130.579 127.903 131.046 123.498 131.279 119.092C131.476 115.358 131.654 111.573 131.425 107.831C131.436 106.62 131.393 105.408 131.203 104.223C138.851 105.461 147.772 103.717 151.644 96.3699C159.512 103.76 174.974 102.35 182.944 94.9299C183.261 94.8129 183.571 94.671 183.876 94.5187C184.517 95.2562 185.281 95.9329 185.919 96.5806C186.958 97.635 187.927 98.7322 188.79 99.9365C190.516 102.347 191.856 104.951 192.671 107.806C193.56 110.916 193.84 114.218 193.489 117.434C193.314 119.039 192.943 120.65 192.491 122.198C192.042 123.739 190.916 125.63 191.07 127.237C191.075 127.292 191.095 127.341 191.104 127.395C188.876 126.927 186.589 126.775 184.457 126.893C183.4 126.951 183.129 128.508 184.222 128.783C187.748 129.671 191.522 129.853 194.794 131.398C195.06 131.82 195.595 132.098 196.109 132.117C196.536 132.385 196.954 132.677 197.356 133.013C200.753 135.846 201.455 140.261 199.653 144.228Z" fill="black"/>
<path d="M139.909 82.0818C139.911 82.0782 139.913 82.0743 139.915 82.0706C139.916 82.0657 139.918 82.0625 139.92 82.0573V82.0607C139.921 82.0589 139.922 82.0572 139.923 82.0554C139.923 82.056 139.923 82.0568 139.924 82.0573C139.924 82.0568 139.924 82.0563 139.924 82.0559C139.923 82.0557 139.923 82.0556 139.923 82.0554L139.924 82.0531C139.923 82.0526 139.923 82.0522 139.923 82.0516C139.922 82.0522 139.922 82.0529 139.922 82.0535C139.921 82.0538 139.921 82.055 139.921 82.0554C139.921 82.0549 139.921 82.0545 139.921 82.054C139.92 82.0538 139.921 82.0542 139.921 82.054L139.92 82.0573C139.916 82.0653 139.908 82.0773 139.905 82.0836C139.905 82.085 139.903 82.0883 139.902 82.0895C139.904 82.0878 139.906 82.0858 139.908 82.0843C139.908 82.0835 139.909 82.0826 139.909 82.0818Z" fill="black"/>
<path d="M139.921 82.0516L139.921 82.0519L139.921 82.0522V82.0516Z" fill="black"/>
<path d="M141.368 81.0544C141.113 80.7355 140.727 80.4946 140.333 80.3933C139.87 80.2744 139.404 80.3511 138.976 80.548C138.155 80.9263 137.658 81.8537 137.805 82.7391C137.886 83.2198 138.179 83.6249 138.561 83.9131C138.781 84.1132 139.033 84.279 139.344 84.3488C140.199 84.5408 141.084 84.192 141.584 83.4781C142.111 82.7258 141.907 81.7299 141.368 81.0544Z" fill="black"/>
<path d="M139.898 82.0988L139.897 82.1019L139.9 82.0974L139.898 82.0988Z" fill="black"/>
<path d="M139.921 82.0541L139.921 82.0544L139.922 82.0535L139.921 82.0522L139.921 82.0541Z" fill="black"/>
<path d="M49.7681 142.511C48.7105 142.922 47.6104 143.439 46.452 143.415C45.9255 143.404 45.4449 143.274 44.9934 143.007C44.5932 142.77 44.224 142.465 43.7583 142.364C42.8426 142.165 41.783 142.829 40.9688 143.168C39.8264 143.643 38.6786 144.108 37.5586 144.634C37.2107 144.798 37.4508 145.389 37.8164 145.26C38.9829 144.847 40.1263 144.371 41.2728 143.906C41.767 143.705 42.2587 143.482 42.7614 143.304C43.4521 143.058 43.8385 143.288 44.4028 143.659C46.2251 144.856 48.2936 144.181 50.0746 143.255C50.4754 143.047 50.2027 142.342 49.7681 142.511Z" fill="black"/>
<path d="M62.6065 155.699C61.0444 156.229 59.2799 155.775 58.3091 154.402C58.1447 154.169 57.8095 154.072 57.588 154.303C56.6605 155.269 55.501 155.926 54.1965 156.23C53.7205 156.341 53.921 157.046 54.3916 156.956C55.6689 156.712 56.8396 156.124 57.8297 155.293C59.0095 156.784 61.2233 157.38 62.9505 156.534C63.4115 156.309 63.0971 155.533 62.6065 155.699Z" fill="black"/>
<path d="M113.584 160.626C112.79 161.836 111.083 161.744 110.352 160.525C110.169 160.219 109.732 160.22 109.547 160.523C108.653 161.994 107.056 162.996 105.422 163.443C104.982 163.563 105.168 164.192 105.603 164.116C107.36 163.81 108.786 162.849 109.912 161.534C111.104 163.005 113.52 162.883 114.567 161.193C114.953 160.569 113.983 160.02 113.584 160.626Z" fill="black"/>
</svg>
