<svg width="228" height="228" viewBox="0 0 228 228" fill="none" xmlns="http://www.w3.org/2000/svg">
<path d="M110.526 59.0066C110.508 58.8397 110.476 58.6763 110.455 58.5103C110.527 57.0567 110.467 55.5964 110.224 54.1468C108.755 45.377 100.179 39.8825 91.923 38.6057C82.6308 37.1687 71.2616 40.7167 67.4347 50.0372C67.3796 50.1714 67.352 50.3106 67.3372 50.4505C63.8754 56.0034 63.3537 62.9539 65.99 68.98C66.0751 69.1746 66.1747 69.3599 66.2661 69.5505C68.3819 75.8346 73.8965 80.6485 80.3275 82.2944C81.5067 82.5962 82.6924 82.7754 83.8761 82.8643C86.4773 83.2583 89.1329 83.1795 91.7148 82.6659C98.4657 82.1309 105.047 77.3279 108.131 71.5854C110.18 67.7721 110.993 63.303 110.526 59.0066ZM102.351 48.1707C102.449 48.4438 102.547 48.7167 102.639 48.9917C102.747 49.3124 102.856 49.6332 102.964 49.9539C102.895 50.1223 102.867 50.3098 102.923 50.5162C103.416 52.3092 103.761 54.0161 103.558 55.8889C103.357 57.7395 102.696 59.5319 101.654 61.0719C99.9641 63.5676 97.2939 65.2341 94.4001 65.9653C93.4723 64.9615 92.5388 63.9313 91.655 62.8729C91.9921 62.7017 92.3242 62.5273 92.6439 62.3621C93.7683 61.7809 94.8472 61.1254 95.8486 60.3493C97.6711 58.9366 99.0124 57.1149 99.7813 54.9398C100.497 52.915 100.618 50.7049 100.262 48.5961C100.128 47.8008 99.9004 46.9319 99.5775 46.0915C100.575 46.704 101.512 47.394 102.351 48.1707ZM96.0906 44.3564C97.0184 45.8682 97.8919 47.1879 98.2382 49.0016C98.5821 50.8038 98.4131 52.6997 97.8152 54.4296C97.186 56.2497 95.9715 57.7692 94.4609 58.9434C93.5561 59.6467 92.555 60.2278 91.5427 60.76C91.1817 60.9498 90.7957 61.1238 90.4113 61.3033C89.3259 59.849 88.4671 58.1989 88.0206 56.4376C89.333 56.0437 90.4596 54.5187 91.1305 53.4713C92.017 52.0876 92.5346 50.4973 92.6878 48.8657C92.8622 47.0107 92.3536 44.6291 91.1071 43.0261C92.7695 43.2971 94.4612 43.7252 96.0906 44.3564ZM87.0983 42.726C87.2271 42.9688 87.4485 43.1575 87.7359 43.271C90.1605 44.2279 91.0297 46.7009 90.7355 49.1693C90.7092 49.3914 90.6623 49.6101 90.6165 49.8287C90.6037 49.8247 90.5937 49.8144 90.5805 49.8118C88.9967 48.4393 86.6214 47.602 84.731 47.1069C82.357 46.4853 79.8758 46.3606 77.4516 46.7281C76.3002 46.9026 75.1654 47.2028 74.0719 47.615C77.7672 44.6454 82.1482 42.8067 87.0983 42.726ZM68.122 55.6792C68.5044 54.6441 69.0017 53.6877 69.5508 52.7705C71.8991 50.86 74.6272 49.4844 77.6792 48.9771C79.8268 48.6202 82.0569 48.7634 84.1573 49.3181C85.1813 49.5886 86.1763 49.9528 87.1252 50.4238C88.0286 50.8721 88.8424 51.4826 89.7295 51.9501C89.5329 52.4353 89.2901 52.9029 88.971 53.3451C88.918 53.4187 88.8529 53.4819 88.7966 53.553C88.6327 53.745 88.4665 53.9354 88.2839 54.1131C88.0648 54.3263 87.8351 54.519 87.6114 54.716C87.4746 54.8199 87.332 54.9159 87.1881 55.0098C85.7318 54.2889 84.1675 53.835 82.5458 53.6972C81.4868 53.6071 80.3184 53.6499 79.2254 53.8925C77.107 53.9187 74.9789 54.4186 73.0351 55.3995C70.9415 56.4559 69.1912 58.0618 67.8247 59.9546C67.5743 60.3016 67.3245 60.687 67.0829 61.0884C67.1414 59.2453 67.482 57.4117 68.122 55.6792ZM74.3639 75.9421C74.3063 75.8184 74.2245 75.7001 74.0839 75.6045C70.7566 73.3442 68.5684 69.8487 67.6186 66.023C67.8897 65.3822 68.0945 64.6993 68.381 64.0751C68.7757 63.2152 69.2488 62.3804 69.7935 61.6066C69.8537 61.5211 69.9275 61.445 69.9901 61.361C69.9387 64.152 70.5197 66.9447 71.5711 69.5413C72.2881 71.3124 73.1987 72.9912 74.329 74.5334C74.9738 75.4132 75.6879 76.3329 76.4953 77.1371C75.764 76.777 75.0468 76.3878 74.3639 75.9421ZM86.5472 79.6207C85.5534 79.5802 84.5397 79.4724 83.5377 79.2926C82.9545 79.1032 82.3807 78.8885 81.8246 78.6293C81.0851 78.2848 80.3583 77.8856 79.6742 77.4278C79.6378 77.35 79.5996 77.2721 79.5376 77.1998C78.4099 75.8842 77.0836 74.7896 76.0494 73.3822C75.0016 71.9563 74.1197 70.3885 73.4567 68.7476C72.2541 65.7713 71.7888 62.5998 71.8009 59.4103C72.5044 58.8035 73.2708 58.2693 74.0794 57.8323C74.9968 57.3365 75.9723 56.9873 76.9766 56.7585C76.3389 62.2396 78.0625 67.8219 81.553 72.1262C83.4344 74.4459 85.8973 76.4066 88.5952 77.6935C89.8961 78.314 91.2636 78.817 92.6612 79.1705C90.6364 79.5495 88.5709 79.7032 86.5472 79.6207ZM99.6857 76.7275C99.3253 76.9241 98.9566 77.1051 98.5834 77.2776C98.2597 77.2848 97.9362 77.2876 97.6125 77.2674C97.4414 77.2568 97.2718 77.2324 97.101 77.2179C96.0793 76.597 94.571 76.6304 93.4256 76.3575C92.14 76.0514 90.8964 75.6154 89.7026 75.05C87.3421 73.9321 85.2326 72.4199 83.4917 70.466C80.0945 66.653 78.6331 61.5254 78.8406 56.4811C81.1731 56.2969 83.5748 56.7024 85.7471 57.5238C86.3035 59.6284 87.2633 61.5979 88.5649 63.3262C88.6202 63.4376 88.6939 63.5338 88.7894 63.606C88.8288 63.656 88.8694 63.7052 88.9094 63.7548C89.1837 64.1462 89.4657 64.5316 89.7634 64.9048C90.6737 66.2577 91.6759 67.5466 92.7846 68.7485C94.5197 70.6293 96.5318 72.2394 98.9197 73.2006C99.9627 73.6205 101.323 74.0284 102.658 74.1289C101.753 75.0844 100.765 75.9626 99.6857 76.7275ZM105.57 70.1088C105.421 70.3945 105.235 70.6544 105.071 70.9298C104.217 70.8687 103.351 71.0344 102.489 70.9448C101.472 70.8391 100.442 70.5229 99.5247 70.076C98.0806 69.3727 96.8225 68.3897 95.6756 67.2827C98.7497 66.5425 101.493 64.6613 103.316 62.0302C105.06 59.5152 105.917 56.1564 105.577 53.0184C105.656 53.1644 105.746 53.3055 105.818 53.4548C105.846 53.5409 105.88 53.6255 105.907 53.7117C105.91 53.7226 105.911 53.7336 105.914 53.7444C105.954 53.7961 105.984 53.8558 106.024 53.9081C106.72 55.5294 107.192 57.2787 107.421 59.0255C107.914 62.7787 107.326 66.7415 105.57 70.1088Z" fill="black"/>
<path d="M198.906 173.349C197.307 169.983 194.349 167.957 190.814 166.815C186.246 165.34 181.357 164.407 176.633 163.588C174.9 163.287 173.155 163.039 171.405 162.859C171.383 162.324 171.36 161.789 171.341 161.254C171.141 155.629 170.991 150.003 170.89 144.376C170.689 133.12 170.748 121.866 170.743 110.609C170.742 107.421 170.791 104.233 170.782 101.045C170.772 97.9384 170.853 94.8663 170.307 91.8009C170.163 90.9974 169.173 90.9206 168.673 91.3918C168.429 91.2777 168.144 91.2129 167.808 91.232C164.545 91.4174 161.266 92.2316 158.036 92.7294C154.928 93.2081 151.814 93.6483 148.694 94.0445C142.299 94.8569 135.884 95.4994 129.457 95.9903C116.601 96.9719 103.697 97.304 90.8078 96.9699C87.1267 96.8744 83.4458 96.7553 79.7677 96.5768C77.9293 96.4875 76.0924 96.3733 74.254 96.2834C73.6649 96.2546 73.1094 96.2216 72.573 96.2301C71.7029 96.0538 70.8329 95.8776 69.9628 95.7012C69.6142 95.6306 69.2616 95.7654 69.0652 96.0444C68.6837 96.2443 68.3742 96.6099 68.3239 97.0933C68.0543 99.6918 68.2665 102.359 68.3255 104.966C68.3829 107.497 68.48 110.027 68.5657 112.557C68.7402 117.711 68.8961 122.866 69.1113 128.018C69.5421 138.328 70.0269 148.633 70.523 158.94C70.6411 161.394 70.7593 163.848 70.8774 166.302C69.298 166.377 67.6645 166.722 66.1906 167.057C64.1062 167.532 62.0809 168.24 60.1408 169.136C58.1789 170.042 56.3337 171.347 54.2206 171.885C52.2544 172.386 50.2972 171.875 48.3243 171.7C46.6312 171.551 44.9754 171.866 43.7269 172.695C43.2691 172.747 42.8474 173.028 42.7032 173.599C42.7018 173.605 42.7017 173.611 42.7003 173.616C42.063 174.381 41.6517 175.374 41.5869 176.622C41.5355 177.61 41.7698 178.549 42.1722 179.416C42.4468 180.979 43.3069 182.459 44.4306 183.547C45.4113 184.496 46.5714 185.136 47.7982 185.648C49.6984 186.68 51.9076 187.351 54.1909 187.809C58.4248 189.164 62.6932 190.442 67.0494 191.309C72.5919 192.413 78.1689 192.742 83.8021 192.288C86.379 192.08 88.9478 191.771 91.518 191.48C93.303 191.639 95.0875 191.804 96.8728 191.961C97.3374 192.001 97.8024 192.04 98.267 192.081C99.2157 192.402 100.185 192.666 101.098 192.905C103.118 193.434 105.155 193.894 107.208 194.283C111.515 195.099 115.875 195.604 120.254 195.818C124.03 196.003 127.82 195.964 131.592 195.7C137.547 195.975 143.534 195.725 149.462 195.18C150.566 195.079 151.67 194.964 152.773 194.839C167.888 194.957 183.085 191.403 197.015 185.688C197.06 185.694 197.107 185.681 197.154 185.678C197.724 185.086 198.277 184.478 198.762 183.802C199.369 182.958 199.833 182.056 200.225 181.124C200.424 180.441 200.549 179.738 200.577 179.027C200.65 177.169 200.092 174.936 198.906 173.349ZM167.555 96.7875C167.144 100.584 167.175 104.492 167.035 108.236C163.519 108.903 160.018 109.622 156.508 110.3C156.451 109.146 156.4 107.991 156.322 106.839C156.17 104.585 156.102 102.208 155.837 99.8916C159.821 99.0868 163.776 98.1054 167.555 96.7875ZM85.4944 129.312C85.4778 128.313 85.452 127.314 85.4293 126.316C89.1867 126.48 92.9449 126.613 96.7045 126.708C96.6472 131.203 96.5869 135.698 96.5442 140.193C95.7156 140.087 94.8856 139.991 94.0593 139.871C91.1999 139.453 88.3595 138.93 85.5277 138.36C85.7449 135.373 85.5443 132.287 85.4944 129.312ZM92.318 124.828C90.008 124.742 87.6994 124.627 85.3904 124.519C85.3435 122.769 85.2867 121.019 85.2135 119.27C85.1429 117.581 85.068 115.89 84.9853 114.198C88.9344 114.7 92.8933 115.093 96.8588 115.383C96.8338 117.051 96.8004 118.72 96.7796 120.389C96.7605 121.91 96.7448 123.432 96.7253 124.954C95.2561 124.911 93.7876 124.883 92.318 124.828ZM104.759 146.242C111.279 146.697 117.806 146.589 124.306 146.074C138.698 145.911 153.095 143.637 166.715 139.058C166.786 145.717 166.925 152.375 167.141 159.029C167.179 160.211 167.211 161.396 167.245 162.581C165.423 162.53 163.6 162.575 161.779 162.749C156.934 163.212 151.975 164.474 147.103 163.618C142.558 162.818 138.451 160.558 133.993 159.446C124.509 157.082 114.585 160.055 105.255 161.777C99.6701 162.808 94.0724 163.742 88.44 164.474C85.6197 164.84 82.7936 165.158 79.9656 165.46C78.2255 165.646 76.4703 165.777 74.7282 165.986C74.6506 164.285 74.5729 162.585 74.4953 160.884C74.256 155.636 74.0165 150.389 73.7771 145.142C73.7055 143.573 73.6203 142.004 73.5409 140.435C83.6867 143.551 94.1699 145.503 104.759 146.242ZM132.04 126.585C136.193 126.452 140.346 126.281 144.496 126.065C144.412 130.285 144.238 134.499 144.06 138.719C140.416 139.424 136.744 139.981 133.057 140.406C132.726 135.798 132.382 131.192 132.04 126.585ZM145.743 138.377C146.019 134.262 146.113 130.12 146.121 125.986C146.479 125.966 146.836 125.954 147.194 125.934C149.861 125.783 152.526 125.611 155.19 125.425C155.092 129.017 154.932 132.605 154.787 136.2C152.891 136.726 150.989 137.232 149.064 137.671C147.961 137.923 146.852 138.15 145.743 138.377ZM156.82 125.311C160.112 125.07 163.4 124.791 166.685 124.473C166.683 124.737 166.677 125.001 166.674 125.265C166.653 127.75 166.665 130.234 166.676 132.719C163.254 133.705 159.861 134.751 156.447 135.731C156.705 132.275 156.804 128.791 156.82 125.311ZM156.59 111.844C160.103 111.172 163.59 110.378 167.001 109.386C166.836 113.994 166.751 118.602 166.702 123.212C163.409 123.443 160.116 123.656 156.824 123.853C156.82 121.684 156.8 119.519 156.759 117.368C156.723 115.527 156.667 113.685 156.59 111.844ZM155.263 117.655C155.296 119.755 155.271 121.85 155.227 123.943C152.194 124.118 149.16 124.277 146.126 124.419C146.12 122.478 146.102 120.54 146.07 118.609C146.042 116.946 146.01 115.274 145.965 113.598C146.212 113.562 146.459 113.532 146.706 113.495C149.496 113.078 152.306 112.634 155.107 112.124C155.18 113.967 155.235 115.81 155.263 117.655ZM150.251 100.924C151.593 100.695 152.939 100.456 154.285 100.199C154.443 102.423 154.729 104.662 154.853 106.848C154.923 108.092 154.977 109.337 155.033 110.581C153.015 110.96 150.994 111.323 148.961 111.633C147.945 111.787 146.927 111.922 145.909 112.062C145.803 108.774 145.631 105.479 145.332 102.206C146.985 101.824 148.623 101.389 150.251 100.924ZM144.538 118.898C144.564 120.765 144.556 122.628 144.53 124.49C140.327 124.678 136.124 124.838 131.92 124.954C131.829 123.732 131.741 122.51 131.65 121.288C131.501 119.28 131.347 117.272 131.195 115.264C135.602 114.912 140.002 114.427 144.391 113.816C144.461 115.508 144.514 117.202 144.538 118.898ZM143.786 102.537C143.968 105.787 144.162 109.035 144.315 112.287C139.915 112.86 135.496 113.291 131.07 113.602C130.981 112.438 130.897 111.273 130.806 110.109C130.664 108.29 130.576 106.416 130.442 104.548C134.931 104.156 139.393 103.482 143.786 102.537ZM131.244 140.615C131.092 140.631 130.941 140.653 130.789 140.668C127.987 140.945 125.175 141.137 122.359 141.261C119.984 141.341 117.606 141.377 115.229 141.367C115.048 136.543 114.8 131.719 114.553 126.897C119.796 126.878 125.037 126.796 130.278 126.644C130.596 131.301 130.913 135.959 131.244 140.615ZM129.511 115.389C129.65 117.452 129.786 119.515 129.928 121.578C130.006 122.721 130.086 123.863 130.164 125.006C124.934 125.137 119.701 125.196 114.467 125.202C114.399 123.868 114.33 122.535 114.265 121.202C114.18 119.461 114.096 117.72 114.009 115.98C119.179 115.962 124.349 115.762 129.511 115.389ZM128.73 104.671C128.866 106.596 129.054 108.523 129.175 110.399C129.247 111.506 129.325 112.613 129.399 113.72C124.252 114.044 119.084 114.177 113.915 114.144C113.755 111.019 113.57 107.895 113.366 104.772C118.461 105.067 123.605 105.041 128.73 104.671ZM98.4615 109.436C98.4656 107.633 98.5424 105.784 98.5577 103.938C101.458 104.108 104.361 104.212 107.265 104.272C108.838 104.442 110.417 104.585 112.003 104.695C112.081 107.84 112.179 110.984 112.302 114.128C107.672 114.067 103.044 113.866 98.431 113.534C98.4404 112.168 98.4585 110.802 98.4615 109.436ZM98.38 120.379C98.3972 118.753 98.4026 117.128 98.4164 115.502C103.063 115.809 107.718 115.967 112.374 115.984C112.444 117.727 112.517 119.469 112.589 121.212C112.645 122.543 112.695 123.876 112.748 125.208C107.943 125.2 103.136 125.125 98.3278 124.999C98.3438 123.459 98.3636 121.919 98.38 120.379ZM98.3081 126.754C103.143 126.863 107.979 126.906 112.815 126.901C113.002 131.721 113.19 136.541 113.443 141.356C110.998 141.323 108.553 141.238 106.11 141.107C103.452 140.94 100.798 140.712 98.1543 140.402C98.2169 135.853 98.2608 131.303 98.3081 126.754ZM90.2139 103.301C92.468 103.518 94.7264 103.689 96.9862 103.837C96.9606 105.626 96.9935 107.418 96.957 109.164C96.9273 110.585 96.9131 112.005 96.8897 113.426C95.1743 113.291 93.4609 113.142 91.7512 112.971C89.454 112.742 87.1627 112.463 84.8746 112.16C84.7014 108.976 84.4803 105.794 84.1589 102.626C86.1746 102.874 88.1924 103.106 90.2139 103.301ZM83.9859 129.042C84.0393 132.024 83.8846 135.084 84.0674 138.074C84.0538 138.071 84.0402 138.068 84.0266 138.066C80.5979 137.348 77.1722 136.151 73.7026 135.727C73.5574 135.709 73.4281 135.733 73.3013 135.762C73.1251 132.386 72.9289 129.01 72.7436 125.635C76.463 125.875 80.1845 126.076 83.9076 126.248C83.9303 127.18 83.9692 128.111 83.9859 129.042ZM83.7119 119.279C83.7734 121.003 83.8085 122.727 83.8571 124.45C80.1173 124.267 76.3792 124.054 72.643 123.807C72.4651 120.612 72.3065 117.417 72.1151 114.222C72.0738 113.532 72.0341 112.842 71.9941 112.152C75.8081 112.867 79.6345 113.491 83.4724 114.005C83.5646 115.763 83.6491 117.52 83.7119 119.279ZM71.5117 100.273C74.24 101.673 77.7376 101.775 80.7436 102.19C81.4458 102.286 82.1499 102.368 82.8529 102.459C83.0015 105.624 83.1832 108.787 83.3596 111.951C79.5147 111.416 75.6842 110.782 71.8712 110.05C71.7821 108.536 71.6894 107.022 71.5826 105.509C71.4551 103.701 71.3712 101.864 71.2008 100.042C71.2902 100.125 71.3835 100.207 71.5117 100.273ZM195.093 176.423C194.87 177.771 194.309 178.984 193.461 179.978C191.6 181.149 189.63 182.142 187.598 183.005C186.806 183.181 186.006 183.318 185.215 183.443C182.473 183.877 179.721 184.254 176.973 184.653C165.787 186.279 154.58 187.722 143.348 188.998C139.777 189.404 136.207 189.814 132.636 190.218C131.019 190.094 129.406 189.916 127.801 189.685C122.169 188.876 116.626 187.577 111.05 186.467C102.019 184.669 91.8571 183.015 82.8033 185.711C81.0879 185.698 79.3723 185.688 77.6575 185.72C75.3346 185.763 73.2409 185.702 70.9793 185.126C70.8939 185.104 70.8189 185.107 70.7495 185.12C70.0673 184.87 69.3875 184.615 68.7118 184.352C62.5748 181.968 55.5871 178.831 48.7732 179.209C48.4792 179.057 48.1852 178.884 47.8733 178.653C47.8397 178.625 47.7548 178.558 47.7214 178.53C47.6222 178.447 47.5242 178.362 47.4291 178.273C47.2392 178.097 47.0578 177.911 46.8868 177.717C46.5709 177.357 46.3779 177.074 46.0964 176.552C45.8194 176.039 45.7323 175.813 45.5667 175.238C45.4608 174.87 45.39 174.496 45.3063 174.124C47.4488 173.047 50.9403 174.36 53.0933 174.209C56.3676 173.979 59.0883 171.908 62.0387 170.695C63.7254 170.002 65.4806 169.465 67.2657 169.092C68.5021 168.834 69.7462 168.74 70.9889 168.618C71.0411 169.702 71.0933 170.786 71.1454 171.87C71.2012 173.029 71.1381 174.274 71.619 175.33C72.6837 175.192 73.7628 175.157 74.8418 175.18C75.1043 174.39 75.0745 173.574 75.0341 172.69C74.9699 171.284 74.9058 169.879 74.8417 168.473L74.8005 167.572C78.5295 167.578 82.3405 167.082 85.9942 166.733C90.5958 166.293 95.1856 165.729 99.7679 165.125C104.422 164.513 109.04 163.6 113.655 162.748C118.27 161.896 122.943 161.102 127.655 161.314C132.128 161.515 136.24 163.154 140.389 164.673C144.638 166.228 148.769 167.02 153.307 166.64C157.981 166.25 162.543 165.297 167.257 165.423C167.29 165.424 167.323 165.426 167.355 165.427C167.397 166.482 167.432 167.538 167.501 168.59C167.6 170.089 167.71 171.588 167.807 173.087C167.852 173.793 167.865 174.512 167.936 175.215C169.219 175.391 170.505 175.631 171.759 175.948C172.071 173.925 171.661 171.63 171.631 169.69C171.61 168.367 171.565 167.044 171.515 165.722C174.823 166.079 178.102 166.702 181.352 167.413C183.824 167.954 186.311 168.488 188.754 169.148C190.765 169.692 192.808 170.418 194.398 171.804C194.916 173.308 195.375 174.72 195.093 176.423Z" fill="black"/>
<path d="M67.6562 38.9523C57.0666 31.773 43.3345 30.6208 31.6435 35.744C30.423 36.2789 31.4632 38.0467 32.666 37.5341C43.6206 32.8653 56.8151 33.9815 66.8958 40.2715C67.7338 40.7944 68.4595 39.4969 67.6562 38.9523Z" fill="black"/>
<path d="M61.1442 46.6045C49.6056 42.8501 36.3981 45.5301 27.2956 53.571C26.4223 54.3424 27.6779 55.5705 28.5547 54.8465C37.4337 47.5162 49.6854 44.8982 60.7659 48.0624C61.7025 48.3299 62.061 46.9028 61.1442 46.6045Z" fill="black"/>
<path d="M56.8118 57.9467C51.0924 57.9089 45.5367 60.4965 41.9141 64.9291C41.1895 65.8157 42.4148 67.1045 43.185 66.2167C46.5981 62.2826 51.6109 59.8566 56.8223 59.6716C57.9291 59.6322 57.9268 57.954 56.8118 57.9467Z" fill="black"/>
</svg>
