<svg width="228" height="228" viewBox="0 0 228 228" fill="none" xmlns="http://www.w3.org/2000/svg">
<path d="M207.913 179.005C207.874 170.638 207.534 162.286 206.932 153.941C206.427 146.95 205.744 139.974 204.906 133.016C205.375 121.15 204.711 109.191 204.452 97.3264C204.185 85.136 204.076 72.7978 203.012 60.6429C206.036 57.9031 203.509 51.7753 198.531 52.6969C190.475 54.1883 182.492 55.4797 174.296 55.9207C166.528 56.3386 158.876 55.3661 151.145 55.478C150.044 55.4939 149.186 55.9232 148.582 56.5626C148.262 56.6626 147.936 56.7935 147.601 56.9893C134.96 64.3666 123.02 73.2627 110.882 81.4439C98.716 89.6441 86.5216 97.7747 74.6246 106.361C73.2393 105.317 71.9189 104.13 70.6885 102.787C68.6318 100.542 65.4894 101.53 63.9286 103.658C59.5288 109.657 53.7862 113.943 46.3154 115.198C42.9473 115.763 39.4555 115.693 36.1299 114.913C32.5918 114.084 29.5404 111.729 25.9716 111.278C22.8649 110.885 20.6494 113.532 21.9913 116.483C22.0045 116.512 22.024 116.537 22.0374 116.565C21.7754 117.129 21.6193 117.786 21.6115 118.542C21.4574 133.432 21.314 148.319 21.2934 163.21C21.2731 177.838 19.7901 193.363 21.5428 207.876C22.0656 212.204 26.1254 213.546 28.8891 211.956C34.1164 213.257 40.1983 212.31 45.4281 212.149C52.7195 211.926 60.0112 211.702 67.3029 211.479C82.7479 211.005 98.1856 210.474 113.625 209.829C128.636 209.202 143.647 208.574 158.658 207.947C165.949 207.643 173.24 207.338 180.531 207.034C186.297 206.793 193.692 207.708 199.358 205.641C201.783 206.943 205.569 205.787 206.395 202.777C208.481 195.182 207.95 186.816 207.913 179.005ZM114.825 88.348C127.042 80.2813 139.837 72.6664 151.509 63.8314C151.742 63.6552 151.946 63.4647 152.128 63.266C164.8 66.441 179.683 65.8522 192.94 63.4365C181.528 70.5637 170.798 79.1779 159.902 87.0323L143.486 98.8649C138.717 102.302 133.183 105.367 129.337 109.855C125.996 107.744 123.181 104.531 121.44 100.183C120.216 97.1273 116.41 96.3519 114.486 99.2723C106.899 110.785 93.0257 114.624 81.3302 110.103C92.6287 103.056 103.71 95.6876 114.825 88.348ZM30.8742 123.38C36.5131 125.178 43.3492 125.115 47.9536 124.341C55.8538 123.012 63.938 118.894 68.7717 112.343C83.9123 123.511 104.393 121.739 117.159 108.004C127.555 123.552 150.069 125.278 162.327 110.725C170.657 117.823 182.353 120.1 192.734 116.955C192.981 121.892 194.12 127.047 194.567 131.516C194.987 135.705 195.341 139.9 195.639 144.099C193.997 143.387 192.058 143.596 190.48 145.422C182.551 154.601 167.932 153.436 163.462 141.328C162.185 137.868 156.695 136.132 154.778 140.191C147.807 154.944 128.173 156.661 119.43 142.424C117.542 139.35 113.677 139.688 111.718 142.409C102.409 155.343 82.1529 157.117 70.5323 146.415C68.4757 144.52 65.0115 144.7 63.5725 147.311C57.3264 158.643 43.8897 163.689 31.7019 159.51C31.5809 159.468 31.4706 159.459 31.3529 159.427C31.2449 147.411 31.07 135.396 30.8742 123.38ZM196.616 194.548C191.775 193.922 186.452 194.871 181.745 195.085C174.455 195.416 167.164 195.747 159.873 196.079C144.433 196.78 128.993 197.481 113.554 198.183C98.5373 198.865 83.531 199.651 68.5231 200.5C61.2327 200.912 53.9422 201.324 46.6518 201.737C42.1669 201.99 36.7188 201.647 31.8872 202.522C32.6053 191.37 31.7975 179.789 31.4948 168.576C45.174 172.441 60.1094 167.153 68.5291 155.908C82.9638 165.432 102.778 163.441 115.228 151.593C126.836 164.503 147.188 164.513 158.501 151.688C167.486 163.373 184.967 165.815 196.254 154.502C196.266 154.754 196.283 155.006 196.294 155.258C196.656 163.187 196.835 171.135 196.849 179.072C196.858 184.192 196.496 189.395 196.616 194.548Z" fill="black"/>
<path d="M93.7131 22.8538C82.8352 13.3226 64.5645 12.7091 54.6161 23.7971C49.87 28.233 46.6027 34.2464 45.7108 41.0804C43.96 54.4995 53.1683 66.3626 65.5729 70.588C78.2955 74.9217 91.8563 69.7327 98.3177 57.9357C104.549 46.5582 103.888 31.7688 93.7131 22.8538ZM84.2782 63.4829C72.6863 70.0043 56.4633 62.8549 52.1712 50.5929C51.3888 48.3573 51.0409 46.0802 51.0532 43.8234C51.3283 41.7596 51.7206 39.7202 52.4285 37.749C53.2974 35.3299 54.6711 33.0288 56.2558 31.0092C56.8291 30.2783 57.4627 29.5838 58.1259 28.9174C58.383 28.8011 58.6389 28.6604 58.8897 28.4686C68.526 21.1002 84.5462 21.5471 91.8642 32.0549C98.8095 42.0275 94.6692 57.6372 84.2782 63.4829Z" fill="black"/>
<path d="M76.1604 51.8872C74.4314 53.8505 72.1691 55.397 69.4605 55.6378C66.9297 55.8628 64.5877 54.8737 62.9319 53.0125C61.4197 51.3129 60.8253 48.9065 61.6837 46.7793C62.1173 45.7044 62.8939 44.7058 63.8344 44.0048C64.8687 43.2339 66.0297 42.9244 67.2555 42.5835C67.7598 42.4433 68.0609 42.0293 68.1582 41.5786C68.1541 41.5613 68.1484 41.5442 68.1445 41.527C68.0856 41.2617 68.0335 40.995 67.9794 40.7287C67.9572 40.6497 67.9385 40.5711 67.9165 40.4921C67.7594 40.3063 67.5437 40.1589 67.2445 40.101C64.5295 39.5754 61.7847 41.1745 60.1391 43.1993C58.3816 45.3617 57.6322 48.0426 58.1724 50.7655C58.6973 53.4123 60.4761 55.7139 62.7167 57.2294C65.0452 58.8042 67.9334 59.286 70.6999 58.8432C73.9374 58.3252 76.922 56.4859 78.7503 53.8369C79.7786 52.3468 77.3765 50.5058 76.1604 51.8872Z" fill="black"/>
<path d="M90.4416 52.523C89.8665 51.9145 89.2009 51.3774 88.5837 50.814C87.962 50.2467 87.3403 49.6794 86.7186 49.1123C86.1112 48.5582 85.4891 48.0283 84.8597 47.5011C84.5961 47.2804 84.3316 47.0305 84.0494 46.8405C83.9276 46.7585 83.6548 46.5766 83.4451 46.4862C83.2632 46.1898 82.9919 45.9406 82.622 45.8148C81.5006 45.434 80.4841 45.6348 79.3302 45.7687C78.2618 45.8928 77.1932 46.0169 76.1248 46.1409C75.1524 46.2539 74.1199 46.2825 73.158 46.4737C73.1553 46.2696 73.1638 46.0658 73.1732 45.862C73.2251 44.737 73.2645 43.6121 73.3135 42.4876C73.6266 42.4704 73.939 42.4448 74.2515 42.4251C74.706 42.4318 75.1603 42.4395 75.6148 42.444C75.8097 42.4459 75.9966 42.3864 76.1716 42.2972C76.1918 42.2955 76.2119 42.2949 76.2323 42.2932C76.6602 42.2566 77.0733 41.923 77.05 41.443C77.0426 41.2933 76.9907 41.1586 76.9213 41.0352C76.9198 41.0149 76.9103 40.9972 76.9081 40.9772C76.9063 40.9552 76.9159 40.9358 76.9133 40.9136C76.9052 40.854 76.8721 40.8111 76.8575 40.7555C76.8305 40.6564 76.8032 40.5617 76.7577 40.472C76.7275 40.4159 76.6939 40.3669 76.6563 40.3171C76.4187 39.9672 76.0525 39.72 75.5987 39.7245C74.8747 39.7316 74.151 39.7429 73.4272 39.7545C73.4319 39.6021 73.4418 39.45 73.4462 39.2976C73.4771 38.2043 73.5273 37.1094 73.5364 36.0157C73.542 35.3313 73.5358 34.657 73.4413 33.9971C73.5367 33.9815 73.6333 33.9848 73.7278 33.9585C73.9659 33.892 74.204 33.7923 74.4166 33.6629C74.8508 33.3983 75.0678 32.936 75.1968 32.4548C75.2984 32.0751 75.3297 31.6547 75.2827 31.2628C75.1735 30.3527 74.8029 29.4329 74.0957 28.8355C73.6908 28.4933 73.2706 28.216 72.7518 28.0874C72.2816 27.9709 71.7738 27.9678 71.3054 28.0966C70.4993 28.3184 69.7857 28.9422 69.413 29.7068C69.0317 30.4893 68.8824 31.3824 69.102 32.2396C69.3412 33.1741 70.0356 33.9205 70.9268 34.2203C70.7598 34.9661 70.6878 35.7473 70.6043 36.4813C70.4628 37.725 70.3257 38.969 70.1865 40.2128C70.0473 41.4553 69.9287 42.6988 69.815 43.944C69.708 45.1121 69.4652 46.3468 69.6782 47.5143C69.8966 48.7113 70.7334 49.7473 71.911 50.0409C73.0067 50.3141 74.174 50.043 75.2724 49.9156C76.535 49.7689 77.7977 49.6223 79.0606 49.4757C79.6433 49.408 80.2263 49.3403 80.8091 49.2726C81.0116 49.2491 81.1989 49.2219 81.3786 49.1889C81.392 49.2106 81.3985 49.2343 81.4138 49.2571C81.7159 49.7029 82.0684 50.0589 82.4387 50.441C82.9942 51.0136 83.5597 51.5689 84.1382 52.1167L85.8216 53.7114C86.412 54.2705 86.9826 54.8795 87.6113 55.3926C88.0461 55.7474 88.4606 56.0039 89.0384 56C89.5164 55.9967 90.0932 55.7777 90.4232 55.4113C91.1606 54.5932 91.2168 53.3432 90.4416 52.523Z" fill="black"/>
</svg>
