<?xml version="1.0" encoding="utf-8"?>
<!-- Generator: Adobe Illustrator 24.3.0, SVG Export Plug-In . SVG Version: 6.00 Build 0)  -->
<svg version="1.1" id="Layer_1" xmlns="http://www.w3.org/2000/svg" xmlns:xlink="http://www.w3.org/1999/xlink" x="0px" y="0px"
	 viewBox="0 0 227 227" style="enable-background:new 0 0 227 227;" xml:space="preserve">
<path d="M120.2,11.5c29,10.6,20.8,46.4-11.4,39.7c-12.4-2.7-13.4-18.3-8.3-27.7C103.7,15.8,112.1,11.5,120.2,11.5z"/>
<path d="M157.4,170.9c-0.8,12.5-3.3,24.8-4.7,37.3c0.3,8.7-1.9,6.8-9.2,7.2c-21.1-0.1-42.3,1.3-63.3,0.6c-2.1-0.8-3.3-3.2-2.8-5.4
	c0.7-4.5,1.6-8.9,2.2-13.4c-3.7-0.9-7.3-2.1-10.6-4.1c-1.8-1-2.2-2.3-1.7-4.3c1.6-7.1,3.1-14.3,4.6-21.4c0.4-1.3-1.3-1-2.2-1.4
	c-8.4-2.4-11.7-13.5-4.4-18.7c12.3-9.3,26.5-15.6,39.5-23.7c1.5-1.1,3.5-2.1,4.5-3.7c0.5-3.2-1.5-6.8,0.4-9.7c3-3.7,10-1.7,12.1-6.5
	c0.7-1,0.2-2.6-1-3c-4.6-2.4-10.9-3.4-15.4-0.4c-2.4,1.7-4.6,0.9-5.5-2c-0.4-1-1.2-2-0.9-3.2c7.9-12,38-5.9,31.3,11
	c-2.7,5.3-8.9,7-14.2,8.6c-0.3,0.2-0.5,0.6-0.4,1c0.6,2.2,0,5.2,1.6,6.9c6.6,3.2,13.2,6.4,19.9,9.6c10.3,5.8,26.7,10,33.8,19.1
	C176.8,160.6,167.2,170.9,157.4,170.9z M81.2,159.5c-0.4-2.2,1-3.9,3.1-3.4c1.8,0.7,2.6,3,3.3,4.7c1.9,7,1.4,14.3,0,21.3
	c-1.5,9.6-3.2,19.1-4.8,28.7c0,0,64.1-1,64.1-1c1.1-8.3,2.2-16.4,3.4-24.7c1.3-8.7,2.3-17.3,1.6-26.1c-0.1-1.8-0.6-2.5-2.3-2.9
	c-5.8-1.2-11.6-2.5-17.6-2.5c-11.5-0.3-22.9-1.7-34.4-1.8c-6.2,0.2-13-1.7-18.6,1.7c-1.8,1.2-3.4,4.2-2.3,5.9
	C78.1,159.9,79.7,159.3,81.2,159.5z M71.3,158.7c0.8-18.6,25.6-11.6,37.8-12.1c10.8,0.7,21.6,1.1,32.4,2.2c5.8,1.4,13.4,1,15.9,7.7
	c0.7,1.8,1.2,3.5,0,5.2c0.1,1.2,2.9,1,3.9,0.8c4-0.7,5.8-6.1,2.6-8.9c-11.9-7.8-25.5-12.8-38.3-19.1c-4.3-2.1-8.7-4.2-13-6.4
	c-0.5-0.3-1.1-0.2-1.5,0.2c-8.8,6-18.6,10.4-27.8,15.7c-4.9,2.5-9.5,5.5-13.8,8.9C67,154.6,68.9,158.2,71.3,158.7z M80.6,192
	c0.9-8.2,3.3-16,2.9-24.1c-2.2,0.7-2.2,0.7-6.3-0.2l-4,21.6L80.6,192z"/>
<path d="M75.2,123.2c5.6-16.8,11.7-33,17.7-49.6c1.9-5.1,4.2-10.1,6.4-15.1c0.7-2.1,1.1-5,3.7-4.8c3.1,0.2,3.8,3.8,2.7,6.2
	c-7,18-13.5,36.2-19.8,54.4c-2.3,6.5-1.4,3.6-3.5,10.3c-0.1,0.8-0.5,1.5-1.1,2C78.8,128.8,75.1,126.9,75.2,123.2z"/>
<path d="M154.8,131.9c-1.4-0.1-2.7-1.1-3.1-2.5c-11.1-22.5-16-47.2-24.7-70.6c-1-2,0.6-4.6,2.8-4.5c4.6-0.3,7.6,15.7,9.5,19.7
	c4.2,12.9,7.7,25.9,12.8,38.5c1.9,4.8,4.1,9.5,6.1,14.3C159.5,129.1,157.5,132.2,154.8,131.9z"/>
<path d="M19.2,181.5c-6-0.4-3.5-6-1.4-9.2c5.6-9.6,47.8-83.5,53.6-93C78.2,68.8,83.8,57.2,92.1,48c2.7-1.8,6,1.8,4.2,4.4
	c-17.5,26.9-54.9,93.4-71.4,122C23.1,176.8,22.6,181,19.2,181.5z"/>
<path d="M210,169.8c-6.7-4-43.2-75.2-48.3-81.7c-7-11.5-14-23.1-20.5-34.9c-2-2.8,1.9-6.5,4.6-4.3c8.3,12.5,16.3,25.4,23.8,38.5
	c3.2,5.5,40.9,72.5,44.1,77.5C214.8,167.2,213.1,169.8,210,169.8z"/>
<path d="M93.8,35.3c-0.7,4.1-14,12.3-17.8,15.4C70.7,54.5,27.7,87,22.5,90.9c-2.3,1.7-4.9,1-5.8-1.5c-0.6-1.5,0.1-3.2,1.4-4.1
	c7.5-5.5,52.8-39.5,60.3-44.9C82,38.7,92.3,26.9,93.8,35.3z"/>
<path d="M208.4,79.4c-15.4-8.7-50.7-27.1-64-38.4c-1.7-2.6,1.4-5.9,4.1-4.3c11.5,7.1,49.6,28.6,61.4,35.8
	C213.8,74.4,212.3,79.5,208.4,79.4z"/>
<path d="M112.7,69.6c0.1-3.4,0.2-6.8,0.4-10.3c-0.1-0.9,0.3-1.8,0.9-2.4c2.1-2.1,5.6-0.6,5.5,2.6c0.2,6.4,0.3,12.7,0.5,19.1
	c0,1.7,0.7,3.5-0.5,4.9c-1.1,1.6-3.4,2-4.9,0.8C111.4,80.9,113.2,74.1,112.7,69.6z"/>
</svg>
