<svg width="228" height="228" viewBox="0 0 228 228" fill="none" xmlns="http://www.w3.org/2000/svg">
<path d="M207.773 181.643C207.409 172.668 206.636 163.647 205.1 154.791C205.078 154.669 205.035 154.565 205.002 154.453C204.922 153.807 204.817 153.167 204.676 152.543C204.632 152.349 204.539 152.179 204.429 152.023C204.42 152.024 204.411 152.024 204.402 152.025C204.467 151.488 204.522 150.924 204.337 150.466C204.08 149.827 203.42 149.198 203.017 148.644C201.377 146.392 199.466 144.231 197.383 142.241C197.055 141.856 196.729 141.475 196.414 141.099C192.756 136.751 187.487 132.272 181.48 132.505C181.389 132.472 181.299 132.432 181.207 132.4C181.159 132.4 181.111 132.401 181.063 132.401C180.275 132.108 179.453 132.113 178.596 132.079C177.572 132.038 176.546 132.015 175.521 132.008C174.414 132.001 173.306 132.016 172.199 132.047C169.342 131.602 166.295 131.649 163.566 131.745C159.441 131.891 155.318 132.087 151.195 132.277C146.964 132.472 142.76 132.726 138.521 132.659C134.065 132.588 129.617 132.297 125.171 132.002C124.705 131.971 124.413 132.201 124.265 132.513C123.889 132.54 123.512 132.572 123.135 132.611C121.103 132.526 119.028 132.7 117.012 132.765C114.563 132.843 112.114 132.921 109.665 132.999C106.892 133.088 104.118 133.173 101.345 133.258C102.726 125.738 102.106 117.682 102.043 110.12C101.966 100.949 101.705 91.7798 101.26 82.6189C100.838 73.89 100.229 65.1763 99.4157 56.475C98.6055 47.8077 98.3352 38.0859 95.4911 29.8175C94.9856 28.3474 93.6492 27.8749 92.5298 28.2187C92.1971 27.9773 91.8065 27.7783 91.3532 27.6393C86.1007 26.0299 80.2819 26.9918 74.8265 27.1557C68.759 27.338 62.6908 27.504 56.6239 27.7027C50.5554 27.9013 44.4849 28.1311 38.4228 28.4689C34.058 28.7121 29.7288 28.5241 25.6722 30.0035C24.6117 29.3962 22.9618 29.897 22.5529 31.2338C19.6039 40.8726 20.5358 52.3612 20.3314 62.377C20.105 73.4708 20.0857 84.565 20.3347 95.6585C20.5739 106.305 21.0018 116.947 21.6233 127.579C22.1758 137.03 21.3357 148.516 24.7165 157.458C24.0953 158.742 24.493 160.589 26.143 160.799C36.5697 162.131 47.2965 161.261 57.7736 160.928C61.9085 160.796 66.0429 160.659 70.1773 160.521C70.4107 168.456 70.644 176.391 70.9759 184.325C71.116 187.675 75.3527 187.859 76.4798 185.01C78.7102 179.373 78.1492 173.066 77.9907 167.137C77.987 166.999 77.9837 166.862 77.9801 166.724C78.6568 167.098 79.3253 167.48 79.9791 167.88C83.0841 170.524 86.1842 173.174 89.2754 175.835C89.3563 180.7 89.3516 185.565 89.2084 190.435C89.133 191.984 89.0627 193.533 88.9933 195.083C88.9171 196.781 88.7763 198.605 89.5636 200.174C90.7558 202.551 94.3014 203.189 95.3094 200.317C95.8882 198.668 95.7617 196.681 95.8779 194.959C96.0202 192.853 96.1462 190.745 96.3095 188.641C96.6032 184.852 96.8556 181.061 97.1066 177.27C97.1612 177.269 97.2164 177.265 97.2712 177.265C97.2767 177.146 97.2821 177.029 97.2877 176.907C97.3013 176.607 97.3759 176.352 97.4888 176.134C99.5008 176.077 101.513 176.023 103.524 175.971C104.565 176.023 105.61 176.091 106.668 176.178C106.668 176.165 106.668 176.151 106.668 176.138C106.919 176.119 107.129 176.024 107.291 175.87C110.623 175.781 113.954 175.68 117.284 175.559C123.081 175.678 128.874 175.696 134.676 175.405C138.705 175.203 142.725 174.859 146.736 174.435C147.73 174.33 148.721 174.204 149.714 174.088C158.275 173.883 166.836 173.701 175.4 173.58C175.256 175.226 175.134 176.874 175.074 178.528C175.008 180.363 174.979 182.198 174.986 184.034C174.991 185.202 175.097 186.442 175.671 187.393C175.867 188.372 176.75 188.836 177.631 188.795C177.974 188.883 178.311 188.924 178.639 188.905C178.989 189.16 179.406 189.338 179.901 189.392C181.305 189.546 182.553 188.71 182.957 187.339C183.798 184.482 183.782 181.566 183.635 178.621C183.549 176.9 183.493 175.181 183.446 173.461C188.188 173.383 192.938 173.241 197.646 172.913C197.904 181.444 198.307 189.965 198.592 198.5C198.626 199.523 199.158 200.709 200.143 201.165C202.076 202.06 204.186 201.965 205.846 200.498C207.475 199.059 207.891 197.034 207.95 194.95C208.073 190.523 207.952 186.068 207.773 181.643ZM69.9123 140.425C69.4449 144.321 69.2567 148.212 69.4055 152.123C65.5119 152.391 61.6181 152.653 57.725 152.932C48.8203 153.57 39.6204 153.805 30.7626 155.344C31.9208 146.535 29.4805 136.247 28.9141 127.534C28.1944 116.462 27.6838 105.376 27.3806 94.2846C27.0895 83.6387 26.9323 72.9866 26.9707 62.3367C27.0021 53.6128 28.2016 44.0962 27.1824 35.2783C30.8396 36.1072 34.6176 35.8667 38.4681 35.9232C44.5346 36.0122 50.6068 35.9789 56.6739 35.9216C62.7422 35.8642 68.8102 35.7743 74.8783 35.7007C80.0648 35.6377 85.6408 36.279 90.6312 34.7674C90.605 41.9873 91.859 49.4023 92.4077 56.5176C93.1124 65.6573 93.6743 74.8135 94.068 83.9719C94.4431 92.6981 94.6512 101.431 94.6921 110.165C94.7264 117.534 93.9983 125.18 94.8677 132.539C92.527 132.484 90.166 132.619 87.8438 132.739C84.7942 132.897 81.7398 133.158 78.7244 133.651C76.2107 134.062 73.0029 134.425 70.8533 135.906C69.4174 136.896 68.7335 138.91 69.9261 140.294C69.9239 140.314 69.9222 140.334 69.9198 140.354C69.9163 140.354 69.9127 140.354 69.9092 140.354C69.9102 140.378 69.9112 140.401 69.9123 140.425ZM199.06 149.732C198.961 150.51 198.528 151.211 197.576 151.691C196.342 152.313 194.868 152.322 193.432 152.258C193.301 152.37 193.172 152.477 193.046 152.577C191.613 152.625 190.181 152.688 188.749 152.714C172.481 153.016 156.218 152.327 139.949 152.762C132.357 152.965 124.779 153.559 117.186 153.732C111.353 153.865 105.257 153.877 99.3915 153.009C96.0729 153.315 92.786 153.027 89.9016 151.505C87.0091 149.979 84.535 147.726 82.2274 145.404C82.1861 145.206 82.1043 145.012 81.9603 144.837C81.4208 144.183 80.7053 143.661 80.0737 143.095C79.7535 142.808 79.4309 142.524 79.1077 142.24C78.7863 141.918 78.4679 141.59 78.146 141.268C78.1161 141.283 78.0827 141.291 78.0521 141.305C77.241 140.578 76.26 139.769 76.0391 138.723C76.0242 138.551 75.9867 138.382 75.9927 138.207C76.0016 137.95 75.8875 137.715 75.7131 137.537C76.0927 137.168 76.6157 136.953 77.1487 136.951C81.1059 136.941 85.0337 136.489 88.9812 136.323C92.8263 136.162 96.6822 136.234 100.53 136.183C105.629 136.115 110.69 135.554 115.767 135.446C116.296 135.445 116.826 135.441 117.356 135.436C118.709 135.436 120.064 135.462 121.421 135.559C128.286 136.049 135.068 135.805 141.928 135.285C148.775 134.766 155.632 134.277 162.502 134.246C168.018 134.22 173.583 134.427 178.997 135.502C180.905 135.115 182.937 135.381 184.839 136.136C189.481 137.981 192.959 141.379 196.196 145.031C196.344 145.043 196.491 145.078 196.638 145.126C197.495 146.202 198.312 147.31 199.032 148.454C199.032 148.454 199.032 148.454 199.032 148.454C199.201 148.891 199.196 149.334 199.06 149.732Z" fill="black"/>
<path d="M40.9733 102.184C40.5134 102.057 40.1149 102.269 39.8647 102.598C39.6991 101.847 39.056 101.304 38.2686 101.29C36.7706 101.263 35.3012 102.07 34.2048 103.035C33.137 103.974 32.3788 105.241 31.9251 106.578C31.0118 109.272 31.7917 112.347 34.0672 114.1C36.1322 115.691 39.0692 116.201 41.5253 115.252C44.191 114.221 45.8475 111.76 45.7749 108.89C45.6999 105.922 43.932 102.999 40.9733 102.184ZM42.9273 109.129C42.9238 109.184 42.918 109.24 42.915 109.295C42.9145 109.305 42.9152 109.3 42.9149 109.308C42.9143 109.311 42.9146 109.308 42.9139 109.311C42.8617 109.524 42.8346 109.743 42.7758 109.956C42.7416 110.079 42.6986 110.2 42.6605 110.323C42.6506 110.354 42.6541 110.35 42.652 110.361C42.6425 110.379 42.6418 110.377 42.6236 110.414C42.5186 110.629 42.4062 110.837 42.2765 111.038C42.2164 111.132 42.1496 111.221 42.0892 111.314C42.2732 111.03 42.0852 111.311 41.9774 111.426C41.8442 111.569 41.6976 111.694 41.5516 111.822C41.5118 111.854 41.4519 111.901 41.4002 111.935C41.293 112.005 41.1833 112.071 41.0711 112.133C40.9748 112.186 40.8752 112.232 40.7778 112.283C40.7452 112.299 40.7497 112.299 40.7407 112.306C40.7213 112.312 40.7217 112.31 40.6818 112.324C40.4381 112.408 40.1932 112.483 39.9408 112.538C39.8425 112.56 39.7418 112.574 39.6436 112.595C39.6167 112.598 39.5898 112.601 39.5627 112.603C39.3022 112.622 39.0434 112.634 38.7822 112.626C38.6514 112.622 38.5216 112.611 38.391 112.602C38.3802 112.602 38.3778 112.602 38.3692 112.601C38.3603 112.6 38.3575 112.599 38.3462 112.597C38.0888 112.549 37.8342 112.5 37.5821 112.428C37.4746 112.398 37.368 112.365 37.2623 112.329C37.2103 112.311 37.1577 112.287 37.1047 112.272C37.0842 112.267 37.0885 112.269 37.0798 112.267C36.8925 112.194 36.695 112.074 36.5419 111.985C36.4307 111.92 36.3218 111.851 36.2152 111.779C36.1408 111.729 35.9339 111.515 36.0726 111.682C36.2207 111.861 36.0015 111.615 35.9466 111.565C35.8381 111.467 35.7338 111.364 35.6342 111.257C35.5614 111.178 35.4967 111.09 35.4224 111.014C35.4166 111.003 35.4083 110.989 35.4044 110.983C35.2659 110.766 35.1586 110.537 35.0319 110.315C35.0162 110.273 35.0006 110.23 34.9866 110.187C34.9508 110.078 34.919 109.967 34.891 109.856C34.8644 109.75 34.8457 109.642 34.8226 109.536C34.8238 109.557 34.8248 109.562 34.826 109.59C34.825 109.568 34.8222 109.546 34.8203 109.524C34.82 109.523 34.8195 109.521 34.8192 109.519C34.8096 109.476 34.8074 109.416 34.8091 109.396C34.8081 109.385 34.8068 109.374 34.806 109.362C34.7909 109.134 34.7908 108.904 34.8044 108.675C34.8051 108.663 34.8051 108.623 34.8058 108.583C34.8063 108.581 34.806 108.583 34.8065 108.58C34.8354 108.449 34.8507 108.315 34.8795 108.183C34.9418 107.899 35.0281 107.623 35.1243 107.349C35.1308 107.33 35.1329 107.323 35.1377 107.309C35.1437 107.299 35.1479 107.292 35.1576 107.273C35.2282 107.134 35.2929 106.993 35.3682 106.856C35.5094 106.6 35.6849 106.371 35.8381 106.123C35.861 106.1 35.8873 106.074 35.8955 106.065C35.997 105.948 36.1028 105.835 36.2127 105.727C36.3084 105.632 36.4076 105.54 36.5095 105.452C36.5531 105.414 36.5981 105.378 36.6417 105.34C36.7729 105.227 36.6935 105.274 36.628 105.329C36.7693 105.18 37.1693 105.012 37.3017 104.945C37.3527 104.919 37.405 104.896 37.4558 104.87C37.4568 104.869 37.457 104.869 37.458 104.868C37.5749 104.833 37.6894 104.787 37.8071 104.753C38.1032 104.669 38.4084 104.614 38.7085 104.546C39.1548 104.444 39.4917 104.13 39.699 103.743C39.7844 103.925 39.918 104.09 40.1497 104.197C40.3686 104.297 40.5808 104.409 40.7836 104.539C40.8149 104.56 40.9468 104.651 40.9826 104.674C40.9997 104.687 41.0153 104.699 41.0189 104.702C41.0871 104.762 41.1564 104.82 41.223 104.882C41.3831 105.031 41.5364 105.189 41.6836 105.35C41.7522 105.425 41.8166 105.504 41.8812 105.583C41.8892 105.597 41.9887 105.73 42.0215 105.779C42.1538 105.98 42.2728 106.188 42.3816 106.402C42.4322 106.502 42.4773 106.604 42.5272 106.703C42.529 106.707 42.5344 106.719 42.5394 106.73C42.5583 106.78 42.5985 106.882 42.6054 106.901C42.6803 107.112 42.7445 107.327 42.7977 107.544C42.8288 107.671 42.8535 107.799 42.8795 107.927C42.8885 107.972 42.8952 108.016 42.9024 108.061C42.9031 108.069 42.9029 108.063 42.9037 108.073C42.9227 108.314 42.9408 108.553 42.9388 108.796C42.9379 108.907 42.9341 109.018 42.9273 109.129Z" fill="black"/>
<path d="M34.8091 109.397C34.8128 109.439 34.8164 109.482 34.8203 109.525C34.8211 109.529 34.8218 109.532 34.8226 109.536C34.8158 109.414 34.8106 109.377 34.8091 109.397Z" fill="black"/>
<path d="M177.618 89.583C177.377 89.0466 176.967 88.566 176.61 88.1028C176.269 87.6608 175.908 87.2343 175.528 86.8261C174.827 86.075 174.075 85.3732 173.269 84.7357C173.23 84.7004 173.195 84.662 173.157 84.6269C173.154 84.6296 173.151 84.6323 173.148 84.635C173.07 84.5747 173.001 84.5048 172.922 84.446C172.767 84.3312 172.583 84.303 172.396 84.3077C172.138 84.0996 171.877 83.8926 171.628 83.6823C170.316 82.5783 169.007 81.4709 167.678 80.3883C165.016 78.2201 162.307 76.1059 159.595 74.0015C156.938 71.94 154.214 69.9753 151.472 68.0278C148.977 66.2553 146.473 64.3754 143.791 62.8721C143.648 62.6905 143.533 62.499 143.498 62.2196C143.446 61.8072 143.543 61.4097 143.719 61.0587C144.329 59.8491 145.662 59.111 146.734 58.3716C149.184 56.6818 151.178 54.4825 150.909 51.3056C150.666 48.4334 148.883 46.0003 146.161 45.0178C143.467 44.0457 140.249 44.7923 138.181 46.7393C135.834 48.9485 135.019 52.5175 136.022 55.5482C136.645 57.4349 139.485 56.6971 139.015 54.7439C138.533 52.7443 139.013 50.4094 140.609 49.0249C142.088 47.7426 144.622 47.4936 146.195 48.7612C147.467 49.7863 147.989 51.8123 147.287 53.2862C146.776 54.3578 145.684 55.0613 144.734 55.7058C143.632 56.4545 142.49 57.2133 141.633 58.2489C140.674 59.4081 140.064 60.8033 140.185 62.3325C140.199 62.513 140.229 62.695 140.264 62.8763C140.059 63.1735 139.935 63.5217 139.939 63.885C137.841 65.1989 135.982 67.1489 134.229 68.7616C131.727 71.0642 129.234 73.3753 126.757 75.7062C124.351 77.9716 121.944 80.237 119.537 82.5024C117.1 84.7964 114.306 86.9893 112.232 89.6165C111.385 90.6904 112.033 92.4703 113.188 92.6602C113.279 92.7131 113.369 92.7679 113.473 92.8084C113.997 93.0117 114.643 92.9494 115.202 92.9549C115.679 92.9595 116.156 92.9595 116.633 92.9618C117.613 92.9664 118.574 92.9452 119.55 92.8635C119.62 92.8595 119.685 92.8289 119.754 92.8145C121.968 92.8288 124.182 92.847 126.396 92.8511C126.292 93.8666 126.188 94.8815 126.071 95.892C125.751 98.6559 124.911 101.862 125.458 104.629C125.92 106.973 127.757 108.438 130.07 108.738C132.439 109.046 134.717 107.905 137.025 107.865C136.822 110.649 137.146 113.365 140.218 114.45C142.403 115.222 145.035 114.899 147.303 114.802C149.762 114.697 152.235 114.565 154.664 114.148C156.662 113.806 158.722 113.132 160.211 111.695C161.825 110.135 162.333 107.949 162.393 105.777C162.507 101.662 162.239 97.2859 161.599 93.1179C164.874 93.1997 168.193 93.2738 171.386 92.726C171.946 92.7639 172.513 92.7441 173.065 92.6915C173.575 92.6428 174.083 92.5665 174.584 92.4597C174.91 92.4668 175.237 92.4611 175.562 92.4401C176.197 92.3992 176.852 92.268 177.323 91.803C177.937 91.1965 177.956 90.3332 177.618 89.583ZM137.462 103.647C137.438 104.036 137.396 104.447 137.348 104.867C135.94 104.853 134.588 105.166 133.138 105.461C131.512 105.793 129.11 106.118 128.556 104.06C128.084 102.305 128.791 99.8936 129.005 98.1229C129.217 96.3677 129.429 94.6126 129.643 92.8575C131.987 92.8603 134.331 92.8643 136.675 92.8728C137.332 96.4023 137.695 99.9432 137.462 103.647ZM158.97 108.628C158.094 110.446 156.025 111.092 154.195 111.467C152.142 111.886 149.998 112.083 147.91 112.249C145.901 112.408 143.485 112.764 141.488 112.323C139.17 111.812 139.147 109.697 139.343 107.759C139.375 107.739 139.4 107.711 139.43 107.689C139.455 106.193 139.51 104.697 139.659 103.206C139.675 103.051 139.717 102.912 139.761 102.775C139.796 101.828 139.804 100.88 139.765 99.9268C139.73 99.0798 139.666 98.2257 139.587 97.3708C139.57 97.3311 139.548 97.2934 139.533 97.2527C139.004 95.7679 138.939 94.096 138.687 92.5479C138.572 91.8428 138.434 91.1411 138.252 90.4497C138.173 90.2479 138.101 90.043 138.022 89.8408C138.002 89.3211 137.852 88.8029 137.566 88.3646C137.519 88.2923 137.448 88.246 137.394 88.1796C137.393 88.1764 137.392 88.1733 137.391 88.1701C137.389 88.17 137.387 88.1699 137.385 88.1698C136.679 87.2992 135.489 86.9202 134.406 87.2134C134.163 87.279 134.147 87.6027 134.312 87.729C134.34 87.8176 134.392 87.897 134.498 87.9242C134.787 87.9982 134.964 88.0693 135.203 88.2232C135.232 88.2415 135.26 88.2614 135.288 88.2801C133.574 88.2874 131.859 88.3031 130.145 88.3059C130.274 87.2834 130.487 86.2754 130.975 85.4505C131.652 84.3076 132.936 83.9002 134.236 83.7096C134.302 83.6758 134.357 83.6239 134.433 83.606C134.588 83.5851 134.743 83.5643 134.899 83.5433C134.966 83.5418 135.033 83.5384 135.101 83.536C135.187 83.5329 135.272 83.5297 135.358 83.5265C135.45 83.5231 135.544 83.5131 135.636 83.5187L135.886 83.5337C135.903 83.5347 135.919 83.5356 135.936 83.5366C135.973 83.5338 136.013 83.5306 136.05 83.5277C140.563 83.168 145.271 83.1009 149.758 83.7896C152.999 84.2871 155.516 85.5233 156.949 88.1133C156.835 88.1139 156.721 88.1157 156.607 88.1164C156.919 88.6924 157.152 89.318 157.333 89.9576C158.427 92.2475 158.922 94.8518 158.962 97.4571C159.129 99.2976 159.241 101.139 159.352 102.931C159.463 104.733 159.784 106.94 158.97 108.628ZM160.478 88.0709C159.162 84.5215 156.533 82.0277 152.619 80.9574C147.578 79.5788 141.85 79.7473 136.686 80.1062C134.489 80.2589 132.088 80.3895 130.178 81.6117C128.344 82.7849 127.463 84.7301 127.128 86.8208C127.049 87.3174 126.985 87.8174 126.917 88.3166C124.267 88.322 121.618 88.3229 118.968 88.343C119.846 87.4871 120.716 86.6247 121.594 85.7961L129.013 78.7975C131.417 76.5293 133.808 74.2494 136.187 71.9542C137.343 70.8382 138.489 69.7197 139.601 68.5593C140.311 67.8184 141.067 67.0896 141.722 66.2897C143.79 68.2101 146.076 69.9287 148.251 71.7077C150.899 73.873 153.519 76.0693 156.184 78.213C158.776 80.2982 161.335 82.4236 163.908 84.5325C165.235 85.6203 166.568 86.7008 167.891 87.7937C168.005 87.8876 168.118 87.9837 168.231 88.0787C165.66 87.9206 163.048 88.0194 160.478 88.0709Z" fill="black"/>
<path d="M123.063 143.968C122.504 143.685 121.786 143.641 121.17 143.633C120.524 143.624 119.875 143.706 119.25 143.867C118.885 143.96 118.529 144.09 118.18 144.238C118.005 144.069 117.745 144.01 117.515 143.952C117.286 143.894 117.054 143.842 116.821 143.803C116.341 143.724 115.862 143.691 115.38 143.771C114.804 143.865 114.259 144.122 113.86 144.535C113.648 144.479 113.438 144.419 113.222 144.382C111.977 144.164 110.679 144.206 109.507 144.71C109.189 144.847 109.433 145.268 109.72 145.226C110.85 145.059 111.995 144.971 113.126 145.179C113.243 145.2 113.357 145.234 113.473 145.261C113.533 145.438 113.77 145.503 113.944 145.373C114.211 145.451 114.474 145.544 114.729 145.653C114.994 145.766 115.252 145.896 115.501 146.039C115.749 146.181 115.968 146.361 116.252 146.42C116.479 146.468 116.681 146.263 116.638 146.046C117.04 145.786 117.42 145.498 117.848 145.271C118.36 145 118.9 144.795 119.463 144.659C120.007 144.527 120.565 144.463 121.124 144.462C121.722 144.461 122.295 144.614 122.885 144.641C123.238 144.657 123.38 144.128 123.063 143.968Z" fill="black"/>
<path d="M172.808 142.796C171.556 142.45 170.11 142.526 168.849 142.787C168.659 142.826 168.474 142.883 168.288 142.934C168.264 142.911 168.26 142.878 168.226 142.862C167.357 142.446 166.302 142.324 165.348 142.385C164.43 142.444 163.534 142.697 162.742 143.164C162.537 143.119 162.332 143.069 162.123 143.036C160.848 142.836 159.54 142.831 158.29 143.176C157.985 143.26 158.031 143.771 158.366 143.742C159.568 143.635 160.786 143.613 161.977 143.839C162.568 143.951 163.153 144.111 163.718 144.318C163.984 144.415 164.244 144.525 164.5 144.647C164.784 144.782 165.058 144.96 165.369 145.028C165.582 145.075 165.744 144.94 165.802 144.768C165.993 144.707 166.168 144.617 166.359 144.515C166.638 144.365 166.924 144.226 167.214 144.099C167.784 143.851 168.382 143.667 168.988 143.535C170.253 143.259 171.453 143.31 172.73 143.427C173.1 143.461 173.149 142.89 172.808 142.796Z" fill="black"/>
</svg>
