<svg width="228" height="228" viewBox="0 0 228 228" fill="none" xmlns="http://www.w3.org/2000/svg">
<path d="M186.784 182.875C186.155 174.567 185.595 166.246 185.543 157.911C185.509 152.413 184.909 146.951 184.408 141.481C183.868 135.577 183.379 129.631 183.599 123.697C183.541 122.956 183.477 122.213 183.408 121.47C183.412 121.211 183.412 120.953 183.415 120.694C182.907 114.532 181.984 108.401 179.659 102.727C178.724 100.895 177.82 99.0444 176.832 97.2437C168.346 84.8529 159.588 72.6542 150.511 60.6876C145.177 53.6542 139.677 46.7536 134.077 39.9294C131.495 36.7829 128.82 33.726 126.068 30.7268C125.559 30.1714 125.064 29.59 124.564 29.0223C123.678 27.9424 122.72 26.9182 121.748 25.9336C119.692 23.8523 117.416 22.1308 115.097 20.3658C114.847 20.1759 114.532 20.1308 114.222 20.1766C113.795 20.0889 113.354 20.0778 112.933 20.1696C112.407 19.9387 111.802 19.9193 111.27 20.2642C105.125 24.2517 99.9772 30.6424 95.0506 36.0168C91.3372 40.0675 87.7315 44.2212 84.3985 48.5867C75.4419 55.7218 68.8606 65.8597 62.0402 74.9224C58.2801 79.9188 54.5951 84.9531 51.0339 90.0935C48.8286 93.2767 46.3577 96.5525 44.4418 100.047C43.6781 101.715 42.9241 103.376 42.3986 105.06C41.8269 106.892 41.4086 108.758 41.0734 110.642C40.834 116.28 41.2514 122.106 41.3164 127.539C41.4024 134.72 41.6927 141.886 41.9968 149.057C42.0094 150.478 42.0215 151.899 42.0338 153.32C42.1748 169.564 42.1056 185.857 42.9492 202.081C42.9512 202.12 42.96 202.154 42.9631 202.192C42.9035 204.249 44.0393 206.387 46.0976 207.599C48.3764 208.942 51.235 208.772 53.7783 208.834C58.6828 208.953 63.6044 208.99 68.5095 208.867C75.0931 208.702 81.6911 208.36 88.2661 207.836C95.9097 208.115 103.557 208.282 111.206 208.354C123.343 208.47 135.492 208.223 147.622 207.842C153.689 207.652 159.755 207.422 165.817 207.119C167.576 207.031 169.343 207.025 171.083 206.955C174.199 206.074 177.228 204.948 179.98 203.206C182.363 201.699 184.38 199.701 185.666 197.172C186.979 194.588 187.328 191.688 187.232 188.823C187.084 186.84 186.934 184.858 186.784 182.875ZM164.667 194.078C158.248 194.419 151.826 194.703 145.402 194.929C132.909 195.37 120.414 195.534 107.915 195.652C95.7801 195.767 83.6395 195.671 71.5046 195.56C69.2893 195.54 58.7286 194.563 51.8457 195.787C51.5888 185.017 50.4672 174.202 49.7683 163.415C49.7898 160.033 49.8098 156.651 49.8391 153.272C49.9082 145.325 49.9771 137.377 50.0461 129.43C50.0955 123.731 50.8028 117.391 50.1862 111.494C50.206 109.805 50.1441 108.142 50.0269 106.497C53.0235 103.589 55.5221 100.083 58.0678 96.8354C61.777 92.1039 65.4545 87.3548 69.1033 82.5767C73.4366 76.9025 78.4259 71.2701 82.8077 65.3168C88.4305 58.5658 94.0769 51.8345 99.7552 45.13C102.962 41.3436 106.178 37.5648 109.403 33.7938C109.803 33.3266 110.207 32.873 110.611 32.4166C110.904 32.2063 111.224 32.0255 111.548 31.9269C112.274 31.7055 112.706 31.6641 113.529 31.7132C113.9 31.7352 114.267 31.7936 114.632 31.87C114.675 31.8855 114.718 31.9002 114.76 31.9169C117.235 34.861 120.03 37.6055 122.618 40.2695C122.787 40.4439 122.961 40.6279 123.134 40.8115C124.154 42.16 125.176 43.5067 126.216 44.8392C131.609 51.7483 136.931 58.7086 142.207 65.7072C151.776 78.3994 160.971 91.3663 169.861 104.541C169.795 106.668 169.938 108.826 170.184 110.994C170.049 115.655 170.269 120.363 170.277 124.966C170.289 132.58 170.471 140.189 170.579 147.802C170.688 155.415 170.756 163.028 170.809 170.642C170.861 178.188 170.267 186.037 171.074 193.556C168.887 193.701 166.7 193.97 164.667 194.078Z" fill="black"/>
<path d="M160.361 189.269C161.719 188.92 163.031 188.293 163.861 187.118C164.359 186.414 164.704 185.577 164.783 184.721C164.845 184.043 164.879 183.387 164.969 182.741C165.004 179.588 164.847 176.407 164.83 173.302C164.804 168.512 164.756 163.724 164.653 158.935C164.55 154.146 164.433 149.357 164.279 144.569C164.212 142.48 164.114 140.39 164.009 138.302C164.047 136.658 164.08 134.956 163.663 133.41C163.58 131.645 163.498 129.879 163.416 128.114C163.308 125.798 160.65 124.753 158.945 126.261C155.114 129.651 148.326 128.474 145.722 124.245C144.473 122.217 141.702 122.767 140.958 124.88C139.887 127.924 136.913 130.315 133.694 130.651C130.333 131.002 126.966 129.255 125.221 126.39C124.243 124.785 121.62 124.551 120.692 126.382C118.115 131.467 112.787 134.787 107.033 134.499C101.439 134.219 96.6153 130.281 94.4636 125.247C94.1278 124.461 93.4383 124.107 92.6991 124.054C92.6887 123.912 92.6778 123.769 92.6676 123.627C92.3342 118.95 92.1719 113.957 89.9237 109.721C88.0942 106.274 84.6674 103.415 80.6766 103.117C77.1929 102.857 73.8071 104.78 72.517 108.041C72.0447 109.235 73.8746 109.821 74.5104 108.856C76.0425 106.532 79.4303 106.042 81.8057 107.297C83.127 107.994 84.1538 109.072 84.9461 110.322C82.8226 110.76 80.7191 111.708 78.8432 112.657C77.0983 113.541 75.4343 114.594 73.8818 115.788C72.4764 113.541 70.1834 111.95 67.3176 112.291C63.441 112.751 61.1471 116.201 60.2141 119.691C59.8551 121.034 61.9249 121.975 62.5448 120.645C63.4947 118.606 65.7883 114.47 68.6971 115.984C69.6348 116.473 70.176 117.304 70.4913 118.277C70.2323 118.78 70.3795 119.415 70.8039 119.745C70.9822 121.188 70.8824 122.726 70.8946 123.884C70.9308 127.338 71.0335 130.796 71.1482 134.249C67.1456 133.732 63.2278 132.1 59.9879 129.843C58.8782 129.07 57.7672 130.312 57.9904 131.394C57.5958 131.686 57.299 132.095 57.2201 132.623C56.874 134.94 57.0457 137.359 57.0375 139.699L57.0132 146.714C56.9966 151.481 57.0271 156.248 57.0457 161.014C57.064 165.693 57.1088 170.367 57.2047 175.044C57.2525 177.377 57.2109 179.732 57.3913 182.058C57.5726 184.396 57.4893 186.888 58.0544 189.171C58.1968 189.746 58.6314 190.074 59.1189 190.178C59.3243 190.339 59.5798 190.457 59.9036 190.498C72.5815 192.122 85.5679 192.111 98.3335 191.967C111.072 191.824 123.813 191.055 136.49 189.805C136.585 189.796 136.68 189.785 136.775 189.775C140.833 189.92 144.896 190.103 148.956 190.043C150.794 190.016 152.632 189.968 154.47 189.926C156.437 189.726 158.46 189.758 160.361 189.269ZM87.8408 128.321C84.9089 131.43 80.9704 133.531 76.7042 134.203C76.5438 134.228 76.3821 134.243 76.2212 134.263C76.1857 133.548 76.1486 132.832 76.1179 132.12C76.1106 131.95 76.1028 131.78 76.0954 131.611C79.9757 129.902 83.8588 128.201 87.7418 126.499C87.7722 127.107 87.8106 127.714 87.8408 128.321ZM81.5196 117.337C82.5974 116.797 83.6753 116.257 84.7531 115.717L86.3699 114.907C86.5082 114.838 86.6178 114.761 86.7351 114.686C87.2817 116.922 87.4655 119.247 87.5636 121.573C83.6221 123.244 79.7534 125.11 75.8908 126.974C75.8644 126.379 75.8382 125.783 75.812 125.187C75.7428 123.618 75.6825 122.003 75.452 120.429C77.4602 119.37 79.4895 118.354 81.5196 117.337ZM61.9162 135.221C63.4413 136.28 65.1099 137.122 66.9642 137.729C68.3683 138.189 69.8058 138.5 71.2576 138.68C71.2967 140.721 71.3538 142.762 71.4907 144.79C71.3976 145.408 71.4467 146.051 71.657 146.648C72.5774 149.263 76.5027 148.93 76.5636 145.986C76.6132 143.587 76.5424 141.169 76.4364 138.751C76.8495 138.711 77.2623 138.664 77.6741 138.602C81.5123 138.03 85.0881 136.449 88.1787 134.185C88.311 135.787 88.6074 137.5 89.739 138.554C90.3608 139.133 91.5231 139.292 92.1325 138.569C93.4585 136.996 93.4239 134.751 93.2864 132.679C96.6399 136.656 101.503 139.246 106.867 139.606C113.108 140.025 119.393 136.965 123.242 132.067C126.152 134.739 130.12 136.238 134.116 135.782C138.161 135.32 141.658 133.158 143.965 129.994C147.888 133.316 153.539 134.266 158.354 132.512C158.43 134.26 158.506 136.008 158.582 137.756C158.683 140.084 158.662 142.587 159.073 144.942C159.086 145.469 159.098 145.996 159.111 146.523C159.142 147.809 159.173 149.095 159.203 150.381C154.957 150.728 150.534 148.552 148.215 144.997C147.294 143.584 145.44 143.262 144.173 144.442C138.529 149.694 128.842 148.99 123.764 143.318C122.967 142.428 121.091 142.284 120.308 143.296C116.679 147.985 111.217 151.292 105.266 151.898C102.265 152.203 99.254 151.894 96.372 151.01C93.2857 150.064 90.7517 148.393 88.1117 146.604C87.15 145.953 85.9014 146.494 85.3188 147.355C82.799 151.078 77.6747 153.072 73.4083 153.818C71.1994 154.204 68.8754 154.265 66.6521 153.961C65.0207 153.738 63.4715 153.275 61.9305 152.764C61.9362 150.827 61.9412 148.891 61.9348 146.954C61.9272 144.616 61.9196 142.277 61.9119 139.939C61.9069 138.383 61.963 136.795 61.9162 135.221ZM61.8987 160.985C61.9051 159.409 61.9125 157.834 61.9196 156.258C65.7956 157.751 70.415 157.828 74.3117 157.179C76.9125 156.746 79.4515 155.879 81.7938 154.671C83.6707 153.703 85.3451 152.432 86.9769 151.106C91.8487 155.376 99.2674 157.238 105.507 156.607C111.823 155.968 117.753 153.108 122.146 148.571C128.562 154.06 138.508 154.471 145.521 149.845C149.036 153.704 154.088 155.757 159.325 155.494L159.441 160.338C159.515 163.414 159.579 166.489 159.646 169.565C159.459 169.457 159.264 169.36 159.053 169.28C158.43 169.043 157.824 168.829 157.221 168.54C155.922 167.917 154.652 167.176 153.499 166.312C151.321 164.678 149.553 162.567 148.226 160.202C147.169 158.319 144.86 158.694 143.726 160.194C138.976 166.479 128.34 167.802 122.139 162.986C120.797 161.944 119.154 162.001 118.156 163.499C115.179 167.969 110.029 171.032 104.647 171.362C99.1093 171.703 93.2194 169.308 89.5854 165.097C88.8693 164.267 87.2416 164.225 86.5219 165.077C80.5177 172.184 70.0017 173.66 61.819 169.754C61.8578 166.832 61.8866 163.909 61.8987 160.985ZM81.7296 187.275C75.0444 187.194 68.3635 186.863 61.6797 186.821C61.7314 184.674 61.6953 182.53 61.6312 180.386C61.6956 178.687 61.6961 176.983 61.7312 175.286C61.7444 174.649 61.75 174.011 61.7615 173.374C70.052 177.874 81.0956 176.206 88.0113 169.765C92.5171 174.223 98.6268 176.761 105.093 176.272C111.295 175.802 116.966 172.795 120.938 168.119C128.647 172.548 139.006 171.701 145.611 165.665C147.01 167.539 148.647 169.222 150.523 170.652C151.846 171.661 153.239 172.539 154.755 173.231C156.49 174.023 157.901 174.558 159.753 174.306C159.768 174.892 159.785 175.479 159.802 176.067C159.752 178.293 159.674 180.538 159.681 182.772C159.615 182.777 159.549 182.785 159.486 182.792C159.335 182.807 159.185 182.823 159.035 182.838C158.433 182.369 157.611 182.211 156.786 182.332C131.962 185.995 106.818 187.582 81.7296 187.275Z" fill="black"/>
</svg>
