<svg width="228" height="228" viewBox="0 0 228 228" fill="none" xmlns="http://www.w3.org/2000/svg">
<path d="M162.601 125.64C160.982 121.789 159.296 118.097 158.386 113.99C157.494 109.958 157.177 105.798 157.458 101.677C157.724 97.7866 158.953 93.6273 157.502 89.8314C156.556 87.3558 153.646 84.0241 150.658 85.271C150.206 85.4594 150.226 86.225 150.655 86.4225C152.186 87.1262 153.444 87.4847 154.494 88.9333C155.57 90.4177 155.871 92.1994 155.854 93.9966C155.817 97.8576 154.956 101.635 155.048 105.518C155.134 109.121 155.663 112.724 156.608 116.203C157.576 119.764 158.901 123.496 161.052 126.525C161.726 127.474 163.045 126.694 162.601 125.64Z" fill="black"/>
<path d="M202.404 105.33C202.192 105.194 201.105 104.858 200.329 104.604C200.608 104.364 200.898 103.901 201.201 103.585C202.305 102.435 202.566 100.729 202.427 99.2252C202.006 94.6831 197.636 91.789 193.379 91.6239C193.598 88.2908 193.785 84.9562 193.967 81.6209C194.065 79.8153 194.161 78.0096 194.255 76.2037C194.334 74.665 194.462 73.1599 194.313 71.6433C194.397 71.0018 194.253 70.3439 193.804 69.7982C193.762 69.7421 193.716 69.6926 193.669 69.6425C193.62 69.5918 193.569 69.542 193.514 69.4939C193.444 69.4341 193.372 69.3795 193.295 69.3306C193.233 69.2871 193.184 69.2379 193.116 69.1975C183.583 63.4842 173.584 58.7118 163.257 54.9481C162.523 54.555 161.746 54.1684 160.968 53.911C160.897 53.7791 160.814 53.6562 160.703 53.5583C158.9 51.9647 156.727 51.87 154.462 51.4493C152.283 51.0446 150.118 50.5685 147.97 50.022C145.826 49.4762 143.713 48.8329 141.594 48.1973C140.609 47.9017 139.628 47.591 138.652 47.2652C137.883 47.0085 137.168 46.7088 136.405 46.6529C136.355 46.6337 136.318 46.6 136.265 46.5843C135.044 46.2225 133.736 46.3534 132.474 46.3566C131.198 46.3599 129.923 46.3632 128.647 46.3665L128.503 46.3669C117.596 44.9085 106.506 44.5497 95.3639 45.3859C78.8196 46.6276 61.8403 50.1495 46.684 57.0494C40.2874 59.9615 33.9409 64.1857 30.3663 70.4139C26.1535 77.754 26.5577 86.5476 27.2508 94.6801C29.1964 117.509 31.2053 140.441 34.1357 163.175C34.0674 163.414 34.0366 163.676 34.0688 163.971C34.0911 164.174 34.1197 164.363 34.1478 164.552C34.1478 164.552 34.1478 164.553 34.1478 164.552C34.2282 165.094 34.339 165.582 34.4984 166.015C34.526 166.223 34.5505 166.432 34.5782 166.64C34.6419 167.118 34.8498 167.496 35.1307 167.783C35.294 168.201 35.4634 168.615 35.6527 169.018C35.6814 169.367 35.7326 169.725 35.7747 170.078C35.785 170.201 35.7953 170.323 35.8056 170.446C35.8093 170.445 35.8131 170.445 35.8168 170.444C35.8411 170.629 35.8523 170.808 35.8802 170.995C36.0366 172.044 36.8702 172.532 37.7593 172.557C39.3069 174.664 41.2219 176.522 43.4151 178.105C46.8682 180.597 52.1906 183.311 57.0379 184.23C57.2084 184.354 57.3807 184.476 57.55 184.602C57.7982 184.786 58.0453 184.973 58.2913 185.16C58.2927 185.161 58.2968 185.164 58.2986 185.166C55.3946 185.433 52.4915 185.965 49.8379 186.693C49.6593 186.657 49.4788 186.641 49.3014 186.592C47.8388 185.56 46.2395 184.513 44.6862 183.662C42.7603 181.891 40.9472 179.925 38.4079 179.283C37.5655 178.687 36.6364 178.243 35.5724 178.126C33.7308 177.923 31.6818 178.688 30.7698 180.38C29.6076 182.536 30.9416 184.983 31.8069 186.98C32.3763 188.293 32.9331 189.612 33.4916 190.93C33.3532 191.243 33.3263 191.602 33.527 191.952C33.6171 192.11 33.7041 192.268 33.793 192.426C30.5982 193.993 27.4761 195.746 24.3195 197.381C22.8308 198.153 20.9471 198.906 20.2491 200.559C19.6618 201.95 20.1212 203.542 21.5402 204.191C21.8972 204.355 22.2908 204.445 22.6949 204.511C22.7298 204.517 22.7646 204.523 22.7998 204.528C22.9174 204.545 23.031 204.572 23.1507 204.584C23.1489 204.576 23.1507 204.568 23.149 204.56C23.7422 204.607 24.3534 204.578 24.9281 204.585C25.8096 204.596 26.6882 204.602 27.5693 204.577C29.4765 204.523 31.3838 204.469 33.291 204.415C35.2763 204.359 37.2747 204.342 39.2711 204.297C39.4262 205.132 39.8096 205.942 40.154 206.706C40.5694 207.628 40.9678 208.552 41.329 209.497C42.0428 211.364 42.6117 213.281 43.3201 215.148C44.0821 217.156 45.3413 218.999 47.6601 219.23C49.9672 219.459 51.8434 217.803 52.8875 215.905C53.0011 215.699 53.057 215.489 53.0728 215.283C53.188 215.132 53.3036 214.984 53.4193 214.83C54.2728 213.693 55.0691 212.505 55.7704 211.268C56.7724 209.5 57.5871 207.617 58.2611 205.69C60.0566 205.484 61.9584 205.497 63.747 205.668C63.9136 205.683 64.0354 205.613 64.1367 205.518C67.1431 205.942 70.2165 205.854 73.2292 205.544C74.8939 205.373 76.5663 205.13 78.2032 204.78C78.4025 204.737 78.6428 204.671 78.8902 204.587C79.7854 204.51 80.565 204.147 81.2639 203.589C81.8569 203.115 82.2969 202.464 82.5829 201.767C82.7498 201.36 82.9179 200.91 82.92 200.463C82.9208 200.277 82.8836 200.106 82.8477 199.934C82.8609 199.81 82.8846 199.693 82.8838 199.562C82.8733 197.673 81.2393 196.346 79.652 195.652C77.2811 194.615 74.5251 194.386 72.001 193.906C70.6023 193.64 69.2035 193.355 67.8026 193.081C68.9402 192.769 70.019 192.41 70.9838 191.688C71.4874 191.311 71.9331 190.834 72.3125 190.314C83.9461 195.61 97.8067 196.908 110.406 197.703C117.214 198.132 124.053 198.178 130.865 197.83C135.363 197.601 141.563 197.806 146.472 196.392C146.788 196.494 147.155 196.516 147.566 196.425C155.766 194.596 163.572 190.163 170.48 185.512C174.353 182.905 182.894 178.212 185.316 173.084C187.964 169.914 188.957 165.537 190.091 161.609C191.394 157.096 192.461 152.505 193.22 147.868C194.551 139.742 195.779 130.579 194.154 122.374C201.585 121.532 211.395 111.107 202.404 105.33ZM31.3133 199.284C31.1941 199.463 31.1433 199.51 30.9645 199.632C30.9134 199.666 30.8799 199.676 30.81 199.705C30.6897 199.768 30.56 199.797 30.421 199.792C30.3273 199.79 30.2344 199.777 30.1422 199.756C30.1309 199.753 30.12 199.749 30.109 199.745C29.9042 199.673 29.7832 199.616 29.6249 199.464C29.3457 199.195 29.2295 198.783 29.3338 198.407C29.343 198.374 29.3603 198.347 29.3728 198.317C29.3772 198.304 29.382 198.292 29.3842 198.278L29.3818 198.296C29.3903 198.276 29.398 198.256 29.4071 198.237C29.4196 198.199 29.4143 198.157 29.4332 198.12C29.4561 198.039 29.4973 197.968 29.5568 197.908C29.5995 197.836 29.657 197.779 29.7292 197.736C29.7891 197.677 29.8597 197.635 29.9411 197.613C30.0556 197.552 30.179 197.525 30.3112 197.53C30.3964 197.541 30.4815 197.553 30.5666 197.564C30.6432 197.596 30.7196 197.629 30.7962 197.661C30.8609 197.711 30.9258 197.761 30.9906 197.811C31.1257 197.935 31.1925 198.071 31.2556 198.226C31.2679 198.244 31.2799 198.251 31.2927 198.273C31.3545 198.379 31.3772 198.439 31.3983 198.531C31.4005 198.54 31.402 198.55 31.4053 198.559C31.4281 198.64 31.4408 198.724 31.441 198.812C31.4405 198.981 31.3979 199.138 31.3133 199.284ZM36.6315 196.9C36.6195 196.989 36.6075 197.078 36.5956 197.167C36.5948 197.171 36.5944 197.175 36.5933 197.179C36.5927 197.182 36.5918 197.184 36.591 197.187C36.5775 197.222 36.5623 197.257 36.5467 197.292C36.5605 197.259 36.5743 197.226 36.5881 197.194C36.5857 197.199 36.5841 197.205 36.5821 197.211C36.5479 197.292 36.5136 197.374 36.4794 197.455C36.4786 197.457 36.4778 197.458 36.477 197.46C36.4758 197.462 36.4747 197.465 36.4734 197.467C36.3961 197.599 36.2295 197.793 36.0843 197.858C35.9226 197.952 35.7482 197.999 35.5611 198C35.4184 198.005 35.2852 197.975 35.1617 197.91C35.0332 197.868 34.9219 197.797 34.828 197.696C34.727 197.602 34.6555 197.491 34.6137 197.362C34.5488 197.239 34.519 197.106 34.5244 196.963C34.5248 196.837 34.5541 196.719 34.5964 196.605C34.6514 196.232 34.9127 195.908 35.2846 195.806C35.535 195.737 35.8079 195.773 36.0318 195.904C36.0847 195.935 36.1271 195.977 36.172 196.016C36.2324 196.061 36.2905 196.109 36.3079 196.124C36.3141 196.129 36.3194 196.134 36.3249 196.14C36.3767 196.208 36.4285 196.275 36.4804 196.342C36.4818 196.343 36.483 196.345 36.4842 196.347C36.486 196.35 36.4876 196.353 36.4892 196.356C36.4746 196.33 36.5755 196.529 36.5952 196.612C36.6014 196.639 36.6308 196.858 36.6317 196.884C36.6318 196.888 36.632 196.891 36.6319 196.894C36.6319 196.896 36.6318 196.898 36.6315 196.9ZM37.7235 182.882C37.7016 182.911 37.679 182.939 37.6558 182.967C37.6419 182.985 37.63 183.005 37.6148 183.021C37.586 183.051 37.5456 183.083 37.5054 183.104C37.4826 183.116 37.4047 183.147 37.381 183.156C37.379 183.157 37.3769 183.158 37.3747 183.158C37.4153 183.141 37.456 183.124 37.4967 183.107C37.4152 183.154 37.3273 183.178 37.2331 183.178C37.1608 183.181 37.0934 183.166 37.0309 183.133C36.9658 183.112 36.9095 183.076 36.862 183.024C36.797 182.959 36.752 182.882 36.7271 182.793C36.7142 182.742 36.706 182.689 36.7077 182.637C36.7085 182.611 36.7199 182.52 36.7267 182.495C36.7271 182.493 36.7296 182.487 36.7304 182.485C36.7356 182.47 36.7445 182.447 36.7554 182.422C36.7292 182.341 36.7227 182.257 36.7643 182.175C36.7914 182.122 36.8393 182.074 36.8922 182.046C36.9197 182.031 36.9501 182.019 36.9808 182.013C37.018 182.006 37.0491 182.009 37.0848 182.006C37.0689 182.008 37.053 182.01 37.037 182.012C37.3375 181.951 37.575 182.206 37.7235 182.433C37.7637 182.502 37.7839 182.577 37.7842 182.657C37.7839 182.737 37.7637 182.812 37.7235 182.882ZM40.4919 186.519C40.4862 186.368 40.5177 186.227 40.5863 186.097C40.6305 185.961 40.706 185.843 40.8129 185.744C40.8864 185.671 40.9685 185.612 41.0562 185.564C41.0612 185.561 41.0665 185.558 41.0713 185.555C41.0687 185.556 41.0662 185.558 41.0637 185.56C41.1483 185.51 41.2388 185.469 41.337 185.441C41.5323 185.389 41.7275 185.389 41.9228 185.441C42.0662 185.475 42.1911 185.541 42.2975 185.638C42.4174 185.716 42.512 185.819 42.5812 185.947C42.6809 186.119 42.7311 186.305 42.7317 186.504C42.7185 186.601 42.7054 186.699 42.6924 186.796C42.6749 186.859 42.6457 186.914 42.6188 186.971C42.6111 186.992 42.6029 187.01 42.5939 187.03C42.5872 187.043 42.582 187.056 42.5748 187.068C42.5666 187.083 42.5634 187.101 42.5544 187.116C42.5523 187.119 42.5507 187.122 42.5493 187.126C42.5571 187.107 42.5649 187.089 42.5727 187.07C42.5613 187.089 42.5444 187.105 42.5319 187.123C42.4876 187.199 42.4494 187.278 42.387 187.34C42.2664 187.461 42.0853 187.574 41.9175 187.614C41.8189 187.637 41.7169 187.644 41.6159 187.655C41.7122 187.642 41.8084 187.629 41.9045 187.617C41.9043 187.617 41.9049 187.616 41.9045 187.617C41.7115 187.668 41.5176 187.669 41.3246 187.617C41.1402 187.565 40.98 187.472 40.8441 187.337C40.7746 187.251 40.7035 187.164 40.6415 187.072C40.5424 186.901 40.4925 186.717 40.4919 186.519ZM42.712 194.875C42.6809 194.949 42.6498 195.022 42.6187 195.096C42.618 195.097 42.6172 195.099 42.6164 195.1C42.6139 195.105 42.6111 195.111 42.608 195.115C42.5628 195.184 42.5115 195.257 42.4513 195.317C42.3905 195.377 42.319 195.427 42.2479 195.475C42.2421 195.479 42.2362 195.482 42.2299 195.485C42.1529 195.518 42.0759 195.55 41.9988 195.583L41.9962 195.584C41.8282 195.63 41.6486 195.631 41.4803 195.585C41.467 195.581 41.3069 195.527 41.237 195.479C41.1652 195.43 41.0924 195.379 41.0298 195.318C41.025 195.314 41.0207 195.309 41.0164 195.303C40.8518 195.103 40.8515 195.102 40.7578 194.861C40.7575 194.86 40.7574 194.859 40.7571 194.858C40.7014 194.735 40.6654 194.631 40.6655 194.472C40.6657 194.306 40.7092 194.143 40.7931 194C40.9146 193.792 41.1158 193.637 41.3479 193.573C41.4971 193.532 41.694 193.525 41.8432 193.573C41.845 193.573 41.8469 193.574 41.8487 193.574C41.8508 193.575 42.0687 193.667 42.07 193.668C42.0709 193.668 42.0718 193.669 42.0726 193.669C42.0765 193.671 42.0803 193.674 42.084 193.676C42.157 193.729 42.2317 193.783 42.2988 193.844C42.3083 193.853 42.3176 193.862 42.3267 193.871C42.3433 193.883 42.3651 193.887 42.3803 193.902C42.4498 193.943 42.5051 193.998 42.5463 194.068C42.6281 194.157 42.6833 194.262 42.712 194.383L42.745 194.629C42.734 194.711 42.723 194.793 42.712 194.875ZM49.1653 205.932C49.1136 206.123 48.9815 206.269 48.8229 206.381C48.7946 206.41 48.7637 206.434 48.7193 206.468C48.63 206.537 48.619 206.555 48.4837 206.592C48.3723 206.623 48.2247 206.628 48.1131 206.593C47.9818 206.551 47.8538 206.483 47.7649 206.375C47.7022 206.298 47.6406 206.219 47.5884 206.135C47.5127 206.012 47.4402 205.87 47.4008 205.734C47.3797 205.661 47.3688 205.583 47.3691 205.508C47.3697 205.302 47.4525 205.122 47.5908 204.972C47.6774 204.879 47.8003 204.82 47.9197 204.781C47.9837 204.76 48.0536 204.751 48.1202 204.754C48.1733 204.756 48.2746 204.77 48.3261 204.782C48.3847 204.796 48.4266 204.82 48.4697 204.844C48.4826 204.847 48.4954 204.851 48.5079 204.855C48.5899 204.882 48.6739 204.917 48.7504 204.956C49.1009 205.136 49.2661 205.56 49.1653 205.932ZM49.2074 198.709C49.2153 198.793 49.2169 198.877 49.2089 198.961C49.1879 199.182 49.1622 199.31 49.0661 199.508C49.0605 199.519 49.0547 199.53 49.0479 199.541C49.0288 199.572 49.001 199.602 48.9757 199.635C48.975 199.639 48.9758 199.642 48.975 199.646C48.9432 199.785 48.8464 199.907 48.7364 199.992C48.6721 200.051 48.5966 200.09 48.51 200.111C48.4509 200.119 48.392 200.127 48.3329 200.135C48.2413 200.138 48.1558 200.119 48.0764 200.077C47.9939 200.051 47.9225 200.005 47.8622 199.94C47.8482 199.923 47.8337 199.907 47.8194 199.891C47.6647 199.819 47.5182 199.72 47.4173 199.593C47.3983 199.569 47.3865 199.544 47.3682 199.521C47.3649 199.518 47.3544 199.51 47.3525 199.508C47.341 199.496 47.213 199.33 47.2041 199.316C47.1552 199.24 47.1243 199.144 47.1034 199.047C47.0963 199.03 47.09 199.012 47.0831 198.995C47.0702 198.978 47.0499 198.951 47.0489 198.95C47.0352 198.926 46.8645 198.515 46.9665 198.755C46.9609 198.74 46.9578 198.723 46.9544 198.693C46.9524 198.686 46.9311 198.54 46.9312 198.514C46.9312 198.51 46.961 198.289 46.9619 198.286C46.9623 198.285 47.048 198.082 47.0483 198.081C47.0563 198.067 47.173 197.916 47.1843 197.905C47.2009 197.888 47.3414 197.78 47.3615 197.768C47.3831 197.756 47.5475 197.686 47.5717 197.68C47.575 197.679 47.5782 197.678 47.5814 197.677C47.6587 197.656 47.7506 197.651 47.8297 197.643C47.8545 197.641 47.8794 197.639 47.9044 197.639C47.9098 197.639 47.9151 197.64 47.9205 197.64C48.0487 197.576 48.1858 197.532 48.333 197.525C48.5763 197.514 48.8049 197.633 48.9791 197.793C49.0682 197.876 49.1312 197.974 49.168 198.087C49.2252 198.196 49.2514 198.313 49.2467 198.439C49.2496 198.514 49.219 198.581 49.1996 198.65C49.2014 198.67 49.2055 198.689 49.2074 198.709ZM49.2933 192.487C49.2853 192.662 49.2332 192.826 49.1368 192.977C49.0267 193.211 48.7873 193.387 48.5846 193.528C48.5431 193.557 48.4984 193.581 48.4531 193.603C48.2041 193.727 47.9583 193.834 47.6703 193.817C47.6472 193.816 47.6242 193.814 47.6011 193.812C47.579 193.81 47.5569 193.808 47.5349 193.806C47.3398 193.813 47.1579 193.772 46.9891 193.684C46.8691 193.65 46.7649 193.589 46.6765 193.501C46.5701 193.438 46.4854 193.354 46.4224 193.247C46.3346 193.159 46.2739 193.055 46.2402 192.935C46.1515 192.766 46.1109 192.584 46.1182 192.389C46.1351 192.263 46.1519 192.138 46.1688 192.012C46.2164 191.9 46.2641 191.787 46.3116 191.674C46.3855 191.578 46.4593 191.483 46.5331 191.387C46.5484 191.375 46.563 191.363 46.5775 191.35C46.7535 191.175 46.9607 191.054 47.1996 190.987C47.2344 190.979 47.271 190.979 47.3063 190.973C47.3749 190.944 47.445 190.914 47.4628 190.908C47.4662 190.907 47.4696 190.905 47.4731 190.904C47.4792 190.902 47.4853 190.9 47.4915 190.899C47.5201 190.892 47.8008 190.853 47.8307 190.853C47.833 190.853 47.8354 190.853 47.8378 190.853C47.8478 190.853 48.1652 190.896 48.1748 190.899C48.1962 190.905 48.4573 191.014 48.4777 191.026C48.497 191.037 48.7186 191.208 48.7351 191.224C48.7367 191.226 48.7487 191.241 48.76 191.256C48.7644 191.259 48.773 191.266 48.7768 191.269C48.7899 191.28 48.802 191.293 48.8149 191.304C48.8008 191.293 48.7865 191.282 48.7724 191.271C48.7831 191.285 48.7967 191.302 48.8096 191.319C48.9295 191.417 49.0557 191.509 49.1368 191.646C49.1812 191.751 49.2254 191.856 49.2698 191.961C49.3247 192.136 49.3326 192.312 49.2933 192.487ZM71.5433 196.98C71.5435 196.899 71.5641 196.823 71.6049 196.752C71.6414 196.64 71.7036 196.543 71.7917 196.462C71.8124 196.446 71.833 196.43 71.8535 196.414C71.9328 196.303 72.0283 196.204 72.1495 196.132C72.3023 196.043 72.4742 195.997 72.6513 195.996C72.6939 195.996 72.7356 196.009 72.7786 196.013C72.7816 196.014 72.7846 196.014 72.7876 196.015C72.8339 196.02 72.8814 196.019 72.925 196.033C73.0842 196.085 73.1789 196.141 73.2769 196.213C73.2787 196.213 73.2807 196.214 73.2826 196.215C73.2684 196.204 73.2542 196.193 73.24 196.182C73.2572 196.193 73.2721 196.206 73.2883 196.217C73.3071 196.225 73.3259 196.233 73.3447 196.241C73.3493 196.244 73.3513 196.249 73.3559 196.252C73.3627 196.254 73.3696 196.257 73.3764 196.26C73.4759 196.314 73.5557 196.387 73.6159 196.48C73.6328 196.497 73.6374 196.521 73.6509 196.54C73.672 196.567 73.6846 196.585 73.7011 196.607V196.599C73.7036 196.605 73.7061 196.611 73.7086 196.617C73.716 196.627 73.7294 196.644 73.7336 196.65C73.7358 196.654 73.738 196.657 73.7401 196.661C73.8268 196.805 73.8911 197.02 73.8839 197.19C73.8825 197.224 73.8541 197.434 73.8465 197.467C73.8383 197.503 73.8139 197.544 73.7976 197.583C73.7976 197.584 73.7975 197.584 73.7973 197.584L73.6901 197.839L73.607 197.946C73.5657 197.999 73.5505 198.03 73.5119 198.065C73.5075 198.069 73.3 198.23 73.2956 198.232C73.295 198.232 73.2945 198.233 73.2939 198.233C73.2825 198.24 73.051 198.338 73.0373 198.342C73.034 198.343 72.757 198.38 72.7533 198.38C72.7529 198.38 72.4709 198.342 72.4707 198.342C72.3811 198.322 72.2937 198.285 72.2166 198.235C72.2165 198.235 72.1943 198.218 72.1663 198.196C72.0887 198.16 72.0163 198.121 72.0549 198.146C72.0538 198.145 71.8621 197.997 71.8608 197.996C71.7553 197.899 71.6454 197.712 71.6136 197.572C71.609 197.552 71.5951 197.451 71.5864 197.38C71.5663 197.328 71.5434 197.277 71.5433 197.221C71.5217 197.14 71.5217 197.06 71.5433 196.98ZM56.4344 189.804C56.4343 189.827 56.4072 190.019 56.4023 190.04C56.402 190.041 56.4012 190.043 56.4009 190.044C56.398 190.051 56.395 190.058 56.3921 190.065C56.3897 190.074 56.3904 190.084 56.3877 190.092C56.3576 190.188 56.3195 190.29 56.2628 190.375C56.1463 190.551 56.0413 190.662 55.862 190.775C55.6845 190.887 55.52 190.913 55.3171 190.932C55.2998 190.933 55.283 190.934 55.2657 190.933C55.2641 190.932 55.2624 190.932 55.2608 190.932C55.2578 190.933 55.247 190.938 55.2456 190.938C55.0886 190.989 55.0371 190.972 54.9011 190.954C54.7577 190.934 54.7343 190.941 54.5802 190.851C54.5801 190.851 54.5803 190.851 54.5802 190.851C54.522 190.806 54.4636 190.761 54.4054 190.716C54.2817 190.593 54.2819 190.569 54.227 190.438C54.1953 190.363 54.1761 190.31 54.1643 190.25C54.1601 190.244 54.1508 190.232 54.1488 190.229C54.1469 190.225 54.145 190.222 54.1432 190.219C54.1347 190.204 54.1056 190.133 54.0955 190.108C54.0857 190.086 54.0729 190.056 54.0674 190.039C54.065 190.031 54.0632 190.024 54.0616 190.016C54.0499 189.958 54.0389 189.873 54.0344 189.814C54.034 189.809 54.0336 189.804 54.0334 189.799C54.0333 189.795 54.0334 189.791 54.0334 189.787C54.0337 189.75 54.035 189.77 54.0465 189.685C54.0507 189.653 54.054 189.615 54.0608 189.58C54.0649 189.56 54.0705 189.54 54.0779 189.52C54.1037 189.451 54.1334 189.383 54.1638 189.316C54.1681 189.306 54.1728 189.297 54.1777 189.288C54.1829 189.279 54.1884 189.27 54.1943 189.261C54.2338 189.202 54.2801 189.144 54.3255 189.09C54.3314 189.083 54.3372 189.076 54.3438 189.07C54.3464 189.067 54.3491 189.065 54.3517 189.062C54.3577 189.057 54.3697 189.048 54.378 189.041C54.3827 189.035 54.3923 189.023 54.3949 189.02C54.4195 188.996 54.525 188.916 54.5533 188.898C54.61 188.862 54.6757 188.837 54.7405 188.819C54.7435 188.818 54.7468 188.819 54.7499 188.818C54.8524 188.727 54.9639 188.653 55.0974 188.615C55.1768 188.605 55.2562 188.594 55.3357 188.583C55.4975 188.584 55.6484 188.624 55.7882 188.706C55.8007 188.715 55.8132 188.725 55.8256 188.734C55.8656 188.746 55.9097 188.742 55.9474 188.762C56.0448 188.793 56.1291 188.848 56.2003 188.924C56.2977 189.022 56.365 189.138 56.4023 189.271C56.4266 189.433 56.4591 189.604 56.4394 189.769C56.4382 189.778 56.4353 189.791 56.4342 189.801C56.4342 189.802 56.4344 189.803 56.4344 189.804ZM59.6139 195.363C59.6155 195.353 59.6072 195.44 59.5988 195.473C59.5969 195.48 59.5945 195.488 59.5919 195.495C59.5714 195.552 59.5343 195.637 59.5086 195.692C59.5067 195.697 59.5047 195.701 59.5027 195.705C59.4985 195.713 59.4938 195.722 59.4891 195.73C59.4331 195.825 59.3557 195.914 59.2886 195.999C59.328 195.946 59.37 195.896 59.4089 195.843C59.3675 195.897 59.3262 195.95 59.2847 196.004C59.286 196.002 59.2874 196 59.2886 195.999C59.2285 196.079 59.1702 196.16 59.1052 196.236C59.0704 196.273 59.0226 196.288 58.9818 196.315C58.9811 196.316 58.9755 196.323 58.9755 196.323C58.7456 196.573 58.3107 196.629 58.0251 196.445C57.9871 196.421 57.8963 196.35 57.8633 196.32C57.814 196.274 57.7722 196.215 57.7374 196.156C57.733 196.149 57.729 196.141 57.7252 196.133C57.7083 196.098 57.699 196.059 57.6835 196.023C57.6617 196.013 57.6385 196.009 57.6174 195.997C57.5233 195.942 57.4208 195.846 57.3692 195.749C57.346 195.694 57.3228 195.639 57.2996 195.584C57.2667 195.461 57.2667 195.339 57.2996 195.217C57.3474 195.043 57.4634 194.893 57.6184 194.803C57.6531 194.782 57.7 194.767 57.7445 194.751C57.8223 194.687 57.9104 194.636 58.0058 194.614C58.0059 194.614 58.1982 194.588 58.1984 194.588C58.2187 194.587 58.2411 194.595 58.2624 194.597C58.2672 194.592 58.2676 194.584 58.2726 194.579C58.3265 194.538 58.3803 194.496 58.4341 194.454C58.5258 194.396 58.6247 194.364 58.731 194.36C58.8017 194.341 58.8724 194.341 58.9431 194.36C59.0494 194.364 59.1484 194.396 59.24 194.454C59.2938 194.496 59.3477 194.538 59.4016 194.579C59.4794 194.651 59.5345 194.737 59.5666 194.836C59.6166 194.931 59.6395 195.034 59.6354 195.144C59.6426 195.209 59.6251 195.305 59.6139 195.363ZM63.8173 188.113C63.7693 188.26 63.6871 188.388 63.571 188.496C63.4631 188.612 63.3353 188.694 63.1876 188.742C63.0457 188.817 62.8927 188.851 62.7287 188.845C62.5137 188.844 62.3133 188.79 62.1275 188.682C62.0472 188.62 61.9668 188.558 61.8865 188.496C61.7388 188.347 61.6367 188.172 61.5802 187.97C61.566 187.865 61.5518 187.759 61.5376 187.654C61.5314 187.49 61.5656 187.337 61.6402 187.195C61.6882 187.047 61.7704 186.919 61.8865 186.812C61.9943 186.695 62.1222 186.613 62.2698 186.565C62.4117 186.491 62.5647 186.456 62.7287 186.463C62.9437 186.463 63.1442 186.518 63.3299 186.625C63.4103 186.687 63.4906 186.749 63.571 186.812C63.7186 186.96 63.8207 187.135 63.8773 187.337C63.8915 187.443 63.9057 187.548 63.9198 187.654C63.9261 187.818 63.8919 187.971 63.8173 188.113ZM63.6231 181.768C63.5192 181.176 63.1761 180.6 62.5477 180.171C61.045 179.146 59.3017 178.467 57.4814 177.897C57.5003 177.835 57.5279 177.778 57.5269 177.706C57.4581 172.64 56.7823 167.516 56.394 162.463C56.0036 157.382 55.6212 152.301 55.2226 147.221C54.4251 137.058 53.6751 126.885 52.7065 116.737C52.6118 115.745 51.0677 115.726 51.1344 116.747C51.805 127.007 52.6938 137.256 53.5429 147.503C53.964 152.584 54.396 157.665 54.8224 162.745C55.2329 167.634 55.4063 172.624 56.0923 177.484C55.3654 177.277 54.6353 177.073 53.9064 176.867C53.8137 176.814 53.7183 176.766 53.6258 176.713C51.8599 175.691 50.1178 174.628 48.3946 173.535C49.0894 168.318 49.1403 162.945 48.139 157.786C47.9898 157.018 46.7025 157.18 46.77 157.971C47.189 162.877 47.3827 167.747 46.9886 172.636C46.7593 172.485 46.5231 172.345 46.295 172.192C45.1056 171.396 43.9047 170.617 42.7186 169.815C42.5787 169.721 42.4366 169.621 42.2926 169.52C41.2327 153.76 39.8114 138.014 38.3711 122.285C37.6509 114.42 36.9941 106.546 36.1939 98.6896C35.4843 91.7222 35.3013 84.194 33.4094 77.3829C33.7324 76.3562 34.1198 75.3714 34.569 74.4269C37.1362 72.4085 39.5761 70.2142 42.0489 68.0953C43.9064 66.5038 45.757 64.9052 47.6008 63.2979C48.5223 62.4945 49.4439 61.6911 50.3654 60.8878C50.4877 60.7811 50.6114 60.676 50.7348 60.5704C52.5149 59.751 54.3358 58.9909 56.1908 58.2861C57.6227 58.0808 59.0488 57.7936 60.4411 57.5218C62.8986 57.0421 65.3451 56.4933 67.7894 55.9505C70.2338 55.4076 72.6683 54.8239 75.0988 54.2218C76.3137 53.9208 77.5275 53.615 78.74 53.3045C79.7823 53.0375 80.9355 52.8907 81.8393 52.3173C83.8139 52.5955 85.8678 52.416 87.8479 52.3014C90.213 52.1647 92.5771 51.9458 94.9348 51.717C97.2952 51.4881 99.6478 51.2045 101.998 50.8872C103.205 50.7243 104.411 50.5549 105.616 50.3755C106.409 50.2572 107.199 50.179 107.881 49.8475C118.863 49.8746 129.842 51.0032 140.581 53.3052C148.758 55.058 156.818 57.4479 164.625 60.4787C165.194 60.8063 165.763 61.1355 166.332 61.4638C169.7 63.4082 173.119 65.263 176.525 67.1413C178.189 68.0588 179.852 68.9761 181.515 69.8935C183.162 70.8019 184.983 72.1509 186.843 72.5304C187.229 72.6092 187.611 72.6008 187.977 72.5349C187.982 72.5379 187.987 72.5409 187.992 72.544C188.089 72.6997 188.204 72.8439 188.292 73.0048C188.415 73.2269 188.515 73.4594 188.634 73.683C188.747 73.896 188.916 74.0918 189.086 74.2846C189.065 74.6642 189.039 75.0428 189.02 75.4231C188.943 76.9581 188.865 78.493 188.785 80.0278C188.626 83.0874 188.448 86.1459 188.289 89.2055C188.445 89.2629 188.598 89.3491 188.748 89.4592C188.784 90.2967 188.867 91.1367 188.922 91.9488C189.021 93.4213 189.138 94.8927 189.244 96.3648C188.838 96.3426 188.433 96.2844 188.03 96.165C185.058 95.2842 186.943 92.1628 186.978 90.0211C187.019 87.5239 185.155 86.0788 182.811 85.9002C181.798 85.8231 180.719 86.0076 179.723 85.7794C178.287 85.4501 178.35 84.1579 178.462 82.9349C178.676 80.6007 178.816 78.4995 177.367 76.5736C177.93 76.2633 178.5 75.942 179.088 75.6831C179.332 75.5761 179.39 75.2785 179.353 75.0482C179.35 75.0323 179.344 75.0177 179.341 75.0018C179.491 74.7934 179.421 74.4424 179.2 74.2877C179.154 74.2556 179.107 74.2261 179.061 74.1941C178.632 73.3743 177.851 72.7116 177.149 72.1719C175.964 71.2622 174.724 70.4657 173.392 69.7872C172.109 69.1332 170.76 68.5873 169.389 68.1478C168.841 67.9724 168.263 67.8025 167.678 67.6496C167.549 67.4345 167.409 67.2258 167.301 67C167.254 66.9029 167.21 66.8044 167.166 66.7062C167.158 66.6879 167.155 66.6815 167.151 66.6729C167.115 66.5844 167.08 66.4955 167.042 66.408C167 66.3104 166.955 66.2138 166.912 66.1163C166.91 66.1125 166.912 66.1158 166.91 66.1125C166.865 66.0051 166.832 65.893 166.764 65.7973C166.657 65.6475 166.511 65.5091 166.342 65.4244C165.978 64.7808 165.181 64.4231 164.57 65.1589C163.178 66.8361 160.755 67.5936 158.72 66.6192C156.713 65.6584 155.626 63.2644 155.737 61.1154C155.756 60.7396 155.532 60.5198 155.253 60.4412C154.822 59.6429 153.485 59.3506 152.99 60.3487C151.732 62.8892 149.302 64.7496 146.339 64.3756C143.268 63.9879 141.19 61.0432 141.288 58.0642C141.329 56.8086 139.601 56.4491 138.992 57.4574C138.07 58.9846 136.602 59.7882 135.087 59.9528C133.903 59.4846 132.714 59.2053 131.52 59.0814C130.408 58.3304 129.575 57.1315 129.376 55.5189C129.23 54.3402 127.798 53.8378 127.097 54.9166C123.521 60.4194 116.543 61.0206 111.278 57.7858C111.103 57.378 110.69 57.1486 110.26 57.1619C109.98 57.0761 109.724 57.2115 109.571 57.4418C109.435 57.5635 109.314 57.7121 109.238 57.922C108.185 60.8559 105.299 63.1223 102.05 62.5379C98.9142 61.974 96.7436 58.9191 96.8718 55.8186C96.9234 54.5726 95.0723 54.3974 94.7467 55.554C93.6742 59.3621 90.716 62.5062 87.0021 63.8022C85.0912 64.1814 83.1408 64.2144 81.1629 63.6508C78.1002 62.7781 75.6634 60.8415 73.9347 58.1899C73.9002 58.1387 73.8728 58.085 73.8306 58.0396C73.8298 58.0382 73.8288 58.0371 73.828 58.0358C73.4297 57.4079 72.7778 57.4564 72.377 57.8175C72.3701 57.8225 72.3641 57.8291 72.3572 57.8343C72.3014 57.8872 72.2539 57.9438 72.2105 58.0085C72.1603 58.0682 72.1021 58.11 72.0603 58.1868C71.3273 59.5322 70.4521 60.8793 69.4271 62.0861C69.3492 62.159 69.2828 62.2456 69.2128 62.3289C67.7803 63.9513 66.0579 65.2854 63.9562 65.9007C60.8403 66.8129 57.0717 65.8544 55.488 62.8549C55.2973 62.4938 54.9635 62.3264 54.6164 62.3067C54.2924 62.1719 53.9185 62.1715 53.5541 62.3846C52.6964 62.886 52.5109 63.9379 52.1054 64.7836C51.7447 65.5355 51.3325 66.2627 50.8762 66.9605C49.971 68.3445 48.8643 69.5825 47.6272 70.6783C45.1162 72.9028 42.0209 74.2495 38.9106 75.4112C38.8508 75.4335 38.8069 75.4714 38.7554 75.5021C38.7299 75.5054 38.7046 75.511 38.6792 75.5141C37.6157 75.6456 37.3506 76.8977 38.2085 77.411C38.2111 77.4184 38.208 77.4254 38.211 77.4329C38.6054 78.4375 39.5278 78.825 40.4425 79.3405C41.5438 79.9613 42.6847 80.5364 43.8129 81.1069C45.9374 82.1812 48.0877 83.2172 50.2444 84.2247C52.4054 85.2342 54.5664 86.2437 56.7273 87.2532C57.8799 87.7916 59.0323 88.33 60.1849 88.8685C61.1203 89.3055 61.903 89.7247 62.8575 89.7516C62.6551 92.4196 62.8132 95.075 62.9331 97.7617C63.0779 101.008 63.2162 104.259 63.4265 107.503C63.8422 113.913 64.2673 120.321 64.6378 126.734C65.3792 139.565 65.8385 152.412 66.0918 165.261C66.1632 168.881 66.2133 172.501 66.242 176.122C66.2565 177.932 66.2828 179.742 66.3214 181.552C66.3313 182.011 66.3345 182.469 66.3417 182.926C66.0309 182.808 65.7194 182.69 65.4121 182.562C64.8101 182.311 64.22 182.032 63.6231 181.768ZM149.714 70.5918C147.439 71.207 145.197 71.8712 142.829 72.0273C141.703 72.1015 140.542 72.0331 139.449 71.741C138.898 71.5938 138.352 71.3756 137.849 71.1093C137.395 70.8698 136.986 70.3771 136.514 70.202C135.83 69.9479 134.752 70.4752 134.103 70.7175C133.125 71.0821 132.159 71.4344 131.108 71.5058C129.262 71.6311 127.103 70.5749 126.144 68.9106C125.026 69.3058 124.135 69.9994 123.107 70.6399C122.048 71.3005 120.926 71.8249 119.714 72.1338C119.645 72.1512 119.616 72.0456 119.684 72.0283C122.036 71.4289 124.806 69.9586 125.901 67.7174C126.059 67.3963 126.549 67.2762 126.843 67.4705C127.705 68.0406 128.357 68.7372 129.392 69.0142C130.325 69.2642 131.144 69.1779 132.039 68.8273C133.787 68.143 135.728 66.7979 137.653 67.7152C138.471 68.1048 139.071 68.7424 139.968 69.003C140.9 69.2738 141.867 69.2835 142.829 69.2065C144.913 69.0394 146.945 68.3704 149.002 68.0092C150.672 67.7159 151.404 70.1346 149.714 70.5918ZM99.514 77.0095C96.4897 77.5492 93.3259 77.6773 90.3832 76.6488C89.7896 76.4414 89.2004 76.2053 88.6575 75.8868C88.3033 75.6791 87.7632 75.2051 87.3346 75.2764C86.8957 75.3494 86.3836 75.8592 86.0284 76.1069C85.6351 76.381 85.2505 76.6121 84.8025 76.7851C82.6 77.6359 79.6763 78.3769 77.5422 76.9556C76.9633 76.57 76.1678 75.55 75.4087 75.5804C74.6049 75.6127 73.6689 76.2823 72.9728 76.6381C72.1748 77.0461 71.3368 77.3553 70.538 77.7559C69.5467 78.2531 68.4988 78.5946 67.3845 78.6235C67.314 78.6254 67.3142 78.516 67.3845 78.5142C70.1133 78.4433 71.9179 76.6458 73.9681 75.1385C74.5857 74.6845 75.2607 74.2589 76.0576 74.2953C77.0442 74.3404 77.642 75.1614 78.4343 75.6323C79.5292 76.2832 80.9268 76.1322 82.1084 75.8351C83.2269 75.5539 84.2818 75.1835 85.2149 74.502C86.0894 73.8632 86.9437 73.2349 88.0787 73.5123C88.6334 73.6479 89.1378 73.9483 89.6509 74.1873C90.1847 74.4359 90.7618 74.5898 91.335 74.7213C93.9221 75.3147 96.5999 75.0641 99.2058 74.7317C100.506 74.5659 100.785 76.7828 99.514 77.0095ZM66.3148 196.132C66.3129 196.139 66.3138 196.147 66.3117 196.155C66.2569 196.353 66.1181 196.55 65.9332 196.648C65.9288 196.65 65.7412 196.729 65.7364 196.731C65.6057 196.773 65.4305 196.767 65.3 196.731C65.1961 196.702 65.1055 196.649 65.0234 196.585C65.0146 196.583 65.0062 196.579 64.9973 196.576C64.8874 196.55 64.7916 196.5 64.71 196.425C64.6181 196.365 64.5455 196.286 64.4924 196.188C64.4641 196.121 64.4357 196.054 64.4072 195.986C64.3972 195.911 64.3871 195.836 64.3771 195.762C64.3727 195.645 64.3969 195.537 64.4498 195.436C64.4699 195.365 64.5061 195.302 64.5585 195.25C64.6181 195.158 64.6971 195.085 64.7955 195.032C64.8034 195.029 64.8114 195.025 64.8193 195.022C64.8451 194.989 64.871 194.955 64.8969 194.922C65.0087 194.81 65.1406 194.734 65.2925 194.691C65.372 194.68 65.4514 194.67 65.5309 194.659C65.6543 194.654 65.7695 194.68 65.8763 194.736C65.9874 194.772 66.0836 194.834 66.1648 194.922C66.2522 195.003 66.3141 195.099 66.3502 195.21C66.3595 195.228 66.3553 195.249 66.3629 195.267C66.4015 195.329 66.4524 195.383 66.4727 195.456C66.5375 195.691 66.4687 195.943 66.3148 196.132ZM68.3641 187.327C68.3263 187.493 68.2111 187.675 68.0925 187.793C67.9659 187.92 67.9125 187.944 67.8093 187.986C67.8315 187.977 67.8537 187.968 67.876 187.958C67.8758 187.958 67.8762 187.958 67.876 187.958C67.8547 187.971 67.831 187.976 67.8093 187.986C67.7893 187.995 67.7787 188.001 67.7528 188.012C67.7137 188.039 67.6717 188.057 67.6267 188.065C67.6245 188.065 67.6222 188.066 67.62 188.066C67.5296 188.091 67.4358 188.104 67.3386 188.104C67.3291 188.104 67.3215 188.098 67.312 188.098C67.241 188.088 67.066 188.065 67.0659 188.065C66.9486 188.038 66.8853 188.005 66.8254 187.963C66.8216 187.962 66.8178 187.96 66.814 187.958C66.7809 187.933 66.7479 187.907 66.7149 187.882C66.7118 187.879 66.7102 187.878 66.707 187.876C67.0898 188.172 66.7647 187.926 66.642 187.828C66.6255 187.813 66.6023 187.809 66.5867 187.792C66.5686 187.774 66.5657 187.747 66.549 187.728C66.5006 187.665 66.4351 187.58 66.4344 187.579C66.4341 187.578 66.4337 187.578 66.4333 187.577C66.4324 187.575 66.4315 187.574 66.4307 187.572C66.4295 187.569 66.4285 187.567 66.4273 187.564C66.4036 187.51 66.3809 187.455 66.3579 187.4C66.3475 187.372 66.3215 187.353 66.3133 187.323C66.3133 187.323 66.3133 187.324 66.3133 187.323C66.2626 187.135 66.2625 186.946 66.3131 186.758C66.3489 186.673 66.3846 186.588 66.4202 186.504C66.4539 186.441 66.5121 186.403 66.5582 186.353C66.5694 186.342 66.5718 186.325 66.5839 186.314C66.5965 186.304 66.6091 186.294 66.6217 186.284C66.6488 186.261 66.6634 186.225 66.694 186.206C66.7203 186.181 66.758 186.177 66.7867 186.157L66.7913 186.153C66.7979 186.149 66.8048 186.146 66.8108 186.141C66.8068 186.144 66.8027 186.147 66.7987 186.15C66.8789 186.096 66.9572 186.039 67.0553 186.015C67.0551 186.015 67.0555 186.015 67.0553 186.015C67.2437 185.965 67.4329 185.965 67.6213 186.015C67.8014 186.066 67.9578 186.157 68.0905 186.289C68.2223 186.421 68.3135 186.578 68.3639 186.758C68.3894 186.853 68.4019 186.947 68.4017 187.042C68.4019 187.043 68.4021 187.044 68.4019 187.046C68.401 187.053 68.3656 187.32 68.3641 187.327ZM105.083 190.699C97.3605 189.992 89.7568 188.606 82.1008 187.545C83.6634 170.638 83.5738 153.431 81.986 136.542C81.8897 135.518 80.2986 135.499 80.365 136.552C81.434 153.508 81.4483 170.39 80.616 187.347C80.1106 187.28 79.6051 187.213 79.0991 187.15C77.7195 186.912 76.3394 186.676 74.9619 186.427C74.6034 186.363 74.2429 186.294 73.883 186.226C73.8725 186.222 73.8619 186.218 73.8514 186.213C73.8613 186.218 73.8712 186.222 73.8811 186.226C73.8474 186.219 73.8137 186.213 73.78 186.207C73.6212 186.151 73.4647 186.088 73.3017 186.037C73.1993 186.005 73.0859 185.997 72.9706 185.998C72.8287 185.713 72.6559 185.434 72.4171 185.169C71.9793 184.682 71.4661 184.353 70.909 184.128C71.1071 181.906 70.9674 179.572 70.9577 177.451C70.9429 174.192 70.9107 170.934 70.8614 167.676C70.7643 161.249 70.5946 154.825 70.3393 148.403C69.8285 135.554 69.038 122.723 67.9172 109.913C67.6028 106.319 67.1913 102.731 66.7007 99.1573C66.2419 95.8141 65.922 92.3982 64.9306 89.1656C65.6948 89.4996 66.4881 89.7806 67.2221 90.0723C68.8846 90.7329 70.643 91.2335 72.3722 91.6867C73.2564 91.9185 74.1434 92.1415 75.0331 92.3547C76.1733 102.369 77.2284 112.442 78.9054 122.375C79.0495 123.229 80.5002 123.042 80.4184 122.171C79.4943 112.315 77.9529 102.485 76.4948 92.6867C78.7021 93.1859 80.9227 93.6277 83.157 93.9761C86.9753 94.5716 90.8181 94.9583 94.6709 95.1893C94.6618 95.2411 94.642 95.285 94.6431 95.3441C95.0089 115.435 95.9758 135.528 96.6964 155.609C96.9019 161.336 97.099 167.063 97.3489 172.789C97.3987 173.931 99.167 173.931 99.1328 172.778C98.5379 152.686 97.6861 132.598 96.8929 112.514C96.6667 106.787 96.4812 101.057 96.1663 95.3348C96.1649 95.3097 96.1527 95.2928 96.1495 95.2691C98.373 95.3762 100.598 95.4467 102.826 95.4384C103.047 95.9157 103.476 96.2756 103.958 96.3711C103.954 96.4141 103.932 96.4519 103.934 96.4957C103.983 98.6514 103.986 100.82 104.173 102.97C104.191 103.177 104.243 103.376 104.325 103.559C104.231 105.288 104.384 107.074 104.401 108.725C104.43 111.619 104.552 114.514 104.621 117.408C104.764 123.379 104.827 129.351 104.937 135.323C105.16 147.359 105.165 159.399 105.072 171.436C105.046 174.785 105.005 178.133 104.949 181.482C104.921 183.111 104.89 184.739 104.856 186.368C104.824 187.881 104.766 189.273 105.083 190.699ZM106.609 81.7385C104.937 82.5823 103.391 83.6831 101.646 84.3715C100.368 84.8755 99.0749 85.4438 97.747 85.7975C96.5641 86.1125 95.3205 86.2349 94.1452 85.8303C94.0788 85.8075 94.1075 85.7018 94.1742 85.7248C96.9573 86.683 100.169 84.966 102.411 83.4201C104.043 82.2952 105.544 81.0062 107.253 79.9909C107.953 79.5756 108.811 79.1472 109.64 79.3999C110.764 79.7424 111.648 80.8709 112.515 81.6042C114.285 83.1002 117.091 82.7393 119.219 82.4306C121.873 82.0457 124.434 81.2455 127.084 80.8408C128.679 80.5972 129.354 82.7775 127.762 83.2997C124.777 84.2783 121.716 84.9901 118.576 85.2586C116.072 85.4727 112.979 85.3287 111.091 83.4533C110.61 82.9752 110.186 82.4438 109.723 81.948C109.436 81.6395 109.064 81.1972 108.65 81.0463C108.631 81.0396 108.639 81.0312 108.529 81.0346C108.33 81.0408 108.097 81.1285 107.909 81.1846C107.454 81.3204 107.032 81.5251 106.609 81.7385ZM151.947 188.134C151.427 188.484 150.914 188.846 150.437 189.243C150.002 189.244 149.568 189.256 149.133 189.261C145.564 188.467 141.527 189.057 137.587 189.722C137.971 175.684 137.371 161.598 135.567 147.667C135.435 146.644 133.82 146.617 133.93 147.677C135.387 161.686 136.237 175.735 136.27 189.821C133.093 190.02 129.917 190.228 126.742 190.372C120.713 190.647 114.686 190.732 108.657 190.781C109.338 188.304 109.173 185.663 109.241 183.084C109.32 180.098 109.387 177.111 109.442 174.125C109.554 168.06 109.609 161.997 109.584 155.932C109.534 143.979 109.288 132.037 108.723 120.097C108.56 116.661 108.411 113.22 108.187 109.787C108.116 108.704 108.016 107.622 107.921 106.54C107.976 106.443 108.037 106.353 108.08 106.244C108.521 105.126 108.55 103.698 108.679 102.509C108.805 101.344 108.89 100.175 108.933 99.0035C108.971 97.9629 108.969 96.9261 108.908 95.8881C114.331 95.8387 119.822 94.9557 125.132 94.184C127.498 93.8402 129.855 93.4287 132.208 92.9907C132.255 105.647 132.236 118.342 132.86 130.979C132.905 131.882 134.256 131.883 134.27 130.971C134.457 118.236 133.991 105.464 133.598 92.7301C137.331 92.0093 141.049 91.2024 144.744 90.3332C144.787 90.3256 144.821 90.309 144.862 90.2993C145.126 90.4421 145.368 90.6067 145.554 90.7851C147.054 92.2164 146.356 94.727 145.505 96.3124C143.517 100.014 139.559 102.355 138.365 106.546C137.366 110.053 138.551 113.617 141.953 115.184C142.802 115.576 145.215 116.095 145.142 117.355C145.093 118.183 143.841 118.993 143.244 119.477C141.06 121.244 138.444 123.401 139.287 126.583C140.159 129.873 144.167 130.976 147.144 131.134C148.825 131.223 154.468 130.993 153.709 134.038C153.371 135.394 152.029 136.495 151.192 137.552C150.149 138.87 149.263 140.335 149.245 142.069C149.225 143.994 150.138 145.483 151.485 146.547C151.414 150.035 151.674 153.535 151.774 157.022C151.874 160.541 151.971 164.061 152.027 167.582C152.136 174.434 152.078 181.283 151.947 188.134ZM152.887 142.885C152.23 141.483 153.498 140.096 154.335 139.091C155.422 137.787 156.63 136.449 157.019 134.745C157.905 130.865 154.447 128.561 151.082 128.031C149.351 127.758 147.572 127.949 145.859 127.612C144.785 127.402 142.696 126.928 142.495 125.574C142.321 124.408 143.701 123.397 144.463 122.753C145.578 121.813 146.81 120.962 147.635 119.733C148.429 118.548 148.646 117.125 148.108 115.791C147.374 113.97 145.667 113.254 143.967 112.562C142.285 111.878 141.106 111.062 141.009 109.093C140.899 106.889 142.141 105.019 143.508 103.406C146.434 99.9552 150.961 95.4996 148.701 90.4988C148.178 89.3397 147.192 88.44 146.048 87.895C145.898 87.4374 145.611 87.0207 145.212 86.7551C144.883 85.9651 144.81 85.072 145.045 84.2339C145.21 83.6482 145.557 83.0614 145.969 82.6276C146.04 82.5527 146.118 82.506 146.189 82.4391C149.731 79.965 154.342 78.863 158.274 81.2025C162.282 83.5875 164.055 89.1812 162.253 93.4709C161.759 94.6458 162.307 96.43 163.893 96.2898C165.941 96.1087 167.552 97.589 168.139 99.4888C169.013 102.317 166.577 103.547 164.848 105.289C162.859 107.292 161.651 110.706 163.91 113.003C165.585 114.707 167.925 114.468 170.026 115.13C171.757 115.675 170.509 117.126 169.743 118.132C168.57 119.672 166.951 121.309 167.002 123.397C167.064 125.895 169.41 127.415 171.738 127.137C173.581 126.918 176.905 124.86 177.951 127.314C178.654 128.961 177.761 130.919 177.131 132.446C177.008 132.743 176.881 133.037 176.758 133.334C176.382 133.338 176.036 133.579 176.078 134.072C176.099 134.319 176.115 134.566 176.135 134.813C175.64 135.993 175.149 137.174 174.647 138.351C173.496 141.051 172.338 143.748 171.182 146.446C169.564 144.931 167.158 144.088 165.002 144.087C162.45 144.086 159.989 144.948 157.445 144.998C155.845 145.03 153.639 144.491 152.887 142.885ZM184.857 144.966C184.61 148.388 184.307 151.809 184.104 155.234C183.997 157.034 183.908 158.835 183.806 160.636C183.759 161.467 183.652 162.298 183.656 163.109C183.555 163.392 183.454 163.676 183.353 163.959C182.955 164.407 182.566 164.864 182.179 165.316C181.91 165.63 181.64 165.945 181.371 166.259C179.994 166.945 178.797 168.315 177.63 169.289C176.356 170.352 175.068 171.4 173.778 172.444C171.549 174.247 169.271 175.989 166.962 177.687C167.275 171.797 167.587 165.906 167.9 160.015C167.952 159.028 166.398 159.032 166.36 160.025C166.132 166.066 165.904 172.107 165.675 178.148C165.669 178.32 165.727 178.446 165.811 178.544C165.794 178.556 165.778 178.569 165.762 178.58C163.07 180.527 160.337 182.426 157.585 184.285C156.5 185.018 155.428 185.768 154.351 186.512C154.533 180.247 154.776 173.985 155.008 167.722C155.247 161.286 155.709 154.804 155.739 148.358C156.584 148.505 157.431 148.557 158.225 148.502C160.754 148.328 163.434 147.328 165.97 147.763C167.651 148.051 169.541 149.141 169.364 151.05C169.2 152.81 172.101 153.627 172.799 151.958C174.094 148.862 175.381 145.762 176.671 142.664C177.113 151.194 177.092 159.711 176.364 168.265C176.295 169.068 177.531 169.046 177.61 168.258C178.576 158.659 178.85 148.888 178.107 139.238C178.673 137.896 179.241 136.554 179.81 135.213C180.566 133.433 181.423 131.654 181.683 129.718C182.092 126.681 180.609 123.131 177.288 122.569C175.926 122.339 174.568 122.677 173.264 123.052C172.628 123.235 171.231 123.92 170.688 123.383C170.616 123.312 170.632 123.228 170.737 123.015C170.82 122.846 171.052 122.439 171.221 122.183C171.836 121.248 172.603 120.42 173.248 119.506C174.578 117.622 175.267 115.092 173.602 113.162C171.874 111.16 169.305 111.68 167.098 110.771C164.448 109.679 169.72 105.914 170.423 105.042C170.432 105.031 170.439 105.018 170.448 105.006C173.02 106.368 175.658 107.634 178.31 108.855C176.674 110.359 175.78 112.751 176.238 114.972C177.096 119.137 181.288 121.429 185.233 121.695C185.613 121.72 186.011 121.728 186.417 121.725C185.926 129.474 185.415 137.222 184.857 144.966ZM187.881 118.543C185.085 118.866 181.903 118.477 180.084 116.078C179.319 115.069 178.941 113.773 179.435 112.562C179.86 111.519 180.935 110.411 182.162 110.593C183.845 110.841 185.179 108.489 183.392 107.588C179.584 105.666 175.728 103.754 171.801 102.088C171.793 102.085 171.785 102.084 171.777 102.081C172.514 98.2641 170.081 93.9456 166.32 92.8084C167.049 89.4572 166.525 85.8985 164.905 82.9199C167.754 81.7716 171.239 82.9372 172.494 85.8324C173.673 88.5501 171.696 91.5332 173.057 94.1847C173.716 95.4679 174.984 96.068 176.301 96.4742C177.667 96.8953 178.936 97.3663 180.157 98.1253C181.351 98.8676 182.41 99.794 183.33 100.856C184.301 101.978 184.904 103.278 185.689 104.519C186.352 105.567 188.022 104.928 187.713 103.685C186.988 100.766 184.423 98.1664 182.023 96.5033C180.696 95.5844 179.217 94.894 177.677 94.4179C176.995 94.2068 176.135 94.0817 175.563 93.6139C174.93 93.0964 174.878 92.3186 174.91 91.5583C174.976 89.9795 175.413 88.4766 175.152 86.8903C174.895 85.3291 174.137 83.8483 173.028 82.72C170.691 80.3443 167.206 80.045 164.33 81.5734C164.259 81.611 164.209 81.663 164.161 81.7157C163.533 80.8014 162.798 79.9564 161.946 79.2168C164.764 77.9099 167.607 75.8626 170.861 76.0611C173.026 76.1932 175.627 77.5218 175.886 79.9038C176.137 82.2278 174.995 84.6999 176.555 86.7779C178.122 88.8661 180.587 88.2603 182.827 88.5383C185.545 88.8756 183.629 92.418 183.621 94.1617C183.609 96.6198 185.368 98.3689 187.699 98.8774C189.046 99.1711 190.371 99.0278 191.716 98.8057C193.237 98.5546 194.97 98.0263 196.451 98.7074C196.467 98.715 196.479 98.7232 196.495 98.7309C197.329 99.5768 197.603 100.142 197.572 100.571C197.479 100.826 197.323 101.082 197.129 101.333C196.596 101.797 195.762 102.18 195.483 102.969C193.87 104.459 192.528 106.548 193.873 108.708C195.351 111.081 197.95 110.976 200.274 110.218C200.233 115.63 192.287 118.034 187.881 118.543Z" fill="black"/>
<path d="M45.1239 111.191C44.1195 101.229 43.2874 91.2255 41.9857 81.2977C41.8752 80.4552 40.5631 80.4124 40.6254 81.306C41.3216 91.2859 42.496 101.247 43.4918 111.201C44.4881 121.158 45.2646 131.168 46.5322 141.095C46.6556 142.061 48.1627 142.105 48.0881 141.085C47.358 131.107 46.1273 121.145 45.1239 111.191Z" fill="black"/>
<path d="M122.215 149.509C122.025 144.634 121.835 139.759 121.644 134.883C121.264 125.131 120.87 115.38 120.449 105.63C120.413 104.801 119.13 104.801 119.153 105.638C119.427 115.391 119.729 125.142 120.044 134.893C120.201 139.768 120.359 144.644 120.516 149.52C120.673 154.372 120.578 159.312 121.02 164.147C121.12 165.244 122.732 165.271 122.755 164.136C122.852 159.282 122.404 154.361 122.215 149.509Z" fill="black"/>
</svg>
