<svg width="228" height="228" viewBox="0 0 228 228" fill="none" xmlns="http://www.w3.org/2000/svg">
<path d="M196.816 71.055C195.21 72.3731 193.683 73.7553 191.818 74.711C189.944 75.6713 187.923 76.2819 185.855 76.659C181.334 77.4834 176.682 77.0055 172.21 76.1341C166.554 75.0321 161.003 73.4467 155.251 72.8822C152.458 72.608 149.683 72.6857 146.943 73.0547C146.651 68.7559 146.5 64.4516 146.556 60.1415C146.586 57.7596 146.676 55.3783 146.805 52.9999C146.938 50.5572 146.916 48.1323 147.244 45.7042C147.445 44.2121 145.23 43.5431 144.911 45.0988C144.055 49.2735 142.986 53.3422 142.38 57.5727C141.794 61.6646 141.356 65.7785 141.093 69.9038C140.998 71.3874 140.951 72.8694 140.924 74.3509C140.496 74.477 140.067 74.6001 139.641 74.7398C130.218 77.8324 121.717 83.6167 111.829 85.2954C110.07 85.5942 108.309 85.7222 106.55 85.7418C105.664 76.4267 104.139 66.625 101.359 57.4317C100.642 53.72 99.8425 50.0276 98.9245 46.3702C98.8578 46.1044 98.7424 45.8961 98.5981 45.7347C98.584 45.5208 98.5172 45.3128 98.4112 45.1246C98.3991 44.9649 98.387 44.8053 98.3748 44.6457C98.3118 43.8155 97.6086 43.2202 96.7668 43.4206C96.7228 43.4311 96.6873 43.458 96.6445 43.4714C96.3992 43.3788 96.1289 43.3507 95.8558 43.4198C95.7444 43.448 95.6466 43.5076 95.54 43.548C94.7316 43.4325 93.8214 43.6485 93.306 44.2938C92.9991 44.678 92.8468 45.0991 92.9455 45.5635C92.828 45.8902 92.7814 46.2488 92.8436 46.6243C94.9835 59.5562 98.0611 72.1745 99.0643 85.1778C91.7402 84.0578 84.4789 81.5667 77.4119 80.0037C66.6154 77.616 52.6602 76.5005 44.1792 85.0865C43.2126 86.0651 44.4531 87.8363 45.6723 87.0551C49.8272 84.3931 54.6608 82.6631 59.5794 82.1884C65.0811 81.6574 70.5367 82.5607 75.8645 83.8963C83.6432 85.8461 91.3946 88.7026 99.3466 89.8971C99.4132 91.8196 99.4328 93.7512 99.3835 95.6964C99.1973 103.057 97.1103 110.184 90.2333 113.86C83.2816 117.576 75.2615 116.745 68.02 114.369C57.9904 111.08 43.934 99.7118 33.9244 109.465C27.0185 116.194 31.6256 125.565 38.3498 130.746C37.4647 130.969 36.5982 131.281 35.7972 131.712C33.5359 132.929 31.7771 135.048 31.1474 137.551C30.6023 139.717 31.3144 142.33 32.7804 144.11C30.4141 145.766 28.8387 148.402 28.9501 151.599C29.098 155.838 32.3897 159.155 36.3074 160.133C34.849 162.942 34.9561 166.486 36.7287 169.265C37.8493 171.022 40.1384 172.642 42.5342 173.298C41.7341 175.823 42.5241 178.801 45.0824 180.75C51.9453 185.978 61.8051 179.068 68.7735 177.385C86.2636 173.162 104.969 175.961 122.342 171.266C129.491 170.486 136.475 168.835 143.033 165.36C145.045 164.293 147.004 163.053 148.835 161.65C153.282 159.755 156.298 155.025 157.96 150.374C158.219 149.761 158.463 149.139 158.669 148.498C158.748 148.253 158.768 148.001 158.759 147.751C158.837 147.444 158.915 147.136 158.981 146.836C160.691 139.037 159.195 131.147 156.97 123.614C154.552 115.431 151.817 107.417 150.123 99.0344C148.705 92.021 147.902 84.9833 147.307 77.8799C147.536 77.8286 147.768 77.7894 147.998 77.742C149.968 77.4791 151.968 77.3844 154.015 77.5109C159.788 77.8674 165.391 79.5239 171.043 80.6327C176.41 81.6857 181.846 82.1468 187.258 81.1264C190.606 80.4951 194.392 79.1098 197.102 76.7363C197.936 76.1514 198.748 75.5145 199.512 74.7616C199.991 74.289 200.014 73.7399 199.789 73.3032C200.703 71.3632 198.454 69.7107 196.816 71.055ZM147.569 118.352C148.861 129.09 151.798 139.639 145.643 149.765C141.036 157.345 133.392 160.737 125.571 163.771C118.209 165.898 110.824 166.925 103.364 167.662C93.5658 167.924 83.7304 167.708 74.0407 169.395C68.6167 170.34 63.1875 171.848 58.2996 174.383C58.0569 174.442 57.8166 174.563 57.5898 174.764C57.0612 175.053 56.5532 175.378 56.0388 175.692C55.6561 175.84 55.2714 175.981 54.8828 176.103L53.1261 176.667C51.7169 177.206 50.6425 177.255 49.8641 176.871C49.6311 176.582 49.4333 176.25 49.2778 175.882C48.5944 174.265 49.0728 172.358 49.8691 170.858C50.3436 169.964 50.9772 169.204 51.6331 168.462C52.4829 167.826 53.3127 167.094 53.8528 166.239C54.2252 165.649 54.0851 164.801 53.6056 164.316C53.0783 163.783 52.3232 163.751 51.6734 164.051C51.1256 164.303 50.6589 164.753 50.1746 165.114C49.6774 165.485 49.1948 165.866 48.6714 166.199C47.8178 166.744 46.887 167.195 45.882 167.343C45.3781 167.418 44.8582 167.406 44.3679 167.279C44.308 167.263 43.8959 167.107 43.888 167.116C43.6856 167.016 43.4957 166.899 43.2993 166.788C43.2259 166.747 43.1907 166.729 43.173 166.722C43.1641 166.71 43.139 166.685 43.078 166.632C42.8919 166.469 42.7132 166.299 42.5466 166.116C42.2839 165.828 42.1107 165.57 41.8767 165.094C41.1391 163.594 41.6033 161.438 42.7325 160.018C43.8856 158.569 45.8741 157.747 47.7111 157.165C48.1465 157.027 48.4095 156.74 48.5486 156.41C49.1637 155.944 49.3484 155.024 48.9644 154.351C48.4951 153.529 47.5781 153.414 46.7817 153.756C44.9457 154.543 43.1421 155.484 41.1353 155.76C39.4914 155.986 38.0759 155.697 36.781 154.813C36.7482 154.791 36.7338 154.781 36.7206 154.773C36.6665 154.728 36.6128 154.683 36.5606 154.636C36.4238 154.514 36.2952 154.386 36.1703 154.252C35.9803 154.048 35.8567 153.876 35.6658 153.485C35.4536 153.05 35.3715 152.248 35.4841 151.725C35.8008 150.257 36.7952 149.022 38.1198 148.223C39.0352 147.671 40.0111 147.312 41.0371 147.025C42.1713 146.708 43.2764 146.298 44.392 145.922C45.4317 145.571 45.615 144.238 44.976 143.602C44.978 143.526 44.9969 143.453 44.9851 143.375C44.8913 142.754 44.3206 142.12 43.6319 142.188C42.5385 142.297 41.4197 142.441 40.3198 142.43C39.9514 142.426 39.5498 142.38 39.164 142.303C39 142.201 38.8235 142.106 38.6084 142.043C38.179 141.917 37.794 141.748 37.4484 141.551C37.3464 141.462 37.2412 141.359 37.0845 141.199C37.0518 141.166 37.0289 141.144 37.0118 141.129C37.0026 141.108 36.9873 141.079 36.9637 141.036C36.8761 140.879 36.7862 140.726 36.7092 140.563C36.7013 140.515 36.5908 140.198 36.5796 140.155C36.5672 140.106 36.5238 139.867 36.5045 139.775C36.5027 139.75 36.5002 139.72 36.4929 139.65C36.4863 139.546 36.4828 139.442 36.4823 139.337C36.4813 139.152 36.4914 138.966 36.5109 138.781C36.5274 138.728 36.5896 138.389 36.5998 138.348C36.638 138.192 36.6823 138.039 36.7326 137.887C36.7542 137.822 36.7789 137.757 36.8027 137.693C36.8105 137.679 36.8293 137.638 36.8647 137.559C36.9689 137.373 37.0605 137.182 37.1747 137.002C37.2271 136.919 37.2821 136.838 37.3387 136.757C37.3529 136.74 37.3504 136.744 37.3706 136.719C37.4891 136.589 37.604 136.457 37.7286 136.333C37.8935 136.168 38.0676 136.014 38.2468 135.865C38.4059 135.737 38.4282 135.72 38.3137 135.814C38.4086 135.747 38.5049 135.682 38.6028 135.619C38.9115 135.422 39.1827 135.274 39.4488 135.143C40.2677 134.916 41.1282 134.809 41.9356 134.749C42.9841 134.671 44.0046 134.78 44.9135 134.146C44.939 134.128 44.9562 134.105 44.9808 134.086C47.0974 134.161 48.3724 131.258 46.8118 129.66C44.5612 127.355 41.5601 126.023 39.4068 123.587C36.1657 119.921 35.6254 114.109 41.2923 112.561C44.4341 111.704 47.7592 112.599 51.0147 114.053C53.3348 115.214 55.5834 116.605 57.888 117.649C59.2165 118.376 60.4982 119.05 61.7059 119.565C72.6092 124.209 85.5292 126.165 96.0394 119.381C96.831 118.87 97.5539 118.32 98.2426 117.75C99.2632 117.048 100.222 116.255 101.095 115.351C103.527 112.832 104.877 109.7 105.565 106.376C107.056 101.384 107.267 95.8618 106.941 90.4377C108.141 90.4211 109.347 90.365 110.56 90.2313C113.065 89.9552 115.479 89.4131 117.836 88.7042C117.87 88.6946 117.904 88.6847 117.939 88.6751C117.968 88.6661 117.998 88.6577 118.027 88.6487C124.511 86.8149 130.683 83.8026 136.931 81.2858C138.254 80.7529 139.595 80.2391 140.949 79.7579C141.102 84.786 141.576 89.8014 142.265 94.803C143.364 102.778 145.181 110.666 147.569 118.352Z" fill="black"/>
</svg>
