<svg width="228" height="228" viewBox="0 0 228 228" fill="none" xmlns="http://www.w3.org/2000/svg">
<path d="M202.362 74.3479C196.83 68.9508 188.176 69.5726 181.818 73.1145C175.141 76.8343 170.655 83.342 167.85 90.3281C165.438 88.3326 162.576 86.9131 159.484 86.5099C156.561 86.1287 153.524 86.5243 150.924 87.9708C148.187 89.4933 146.315 92.016 145.201 94.8973C143.162 100.175 143.873 106.453 145.871 111.631C145.875 111.642 145.88 111.652 145.884 111.663C145.839 111.688 145.794 111.707 145.749 111.739C136.964 117.909 135.728 130.554 143.416 138.178C151.034 145.734 165.215 144.359 169.968 134.273C170.012 134.178 170.043 134.084 170.072 133.989C170.564 134.118 171.057 134.233 171.552 134.325C177.896 135.502 184.953 133.069 187.125 126.508C188.247 123.121 187.705 119.651 186.4 116.414C186.364 116.292 186.332 116.164 186.294 116.046C185.79 114.444 185.009 113.021 184.031 111.722C187.973 109.798 192.105 107.711 195.774 105.103C199.187 102.994 202.312 100.303 204.346 96.7999C205.503 94.8086 206.206 92.6123 206.5 90.3577C207.773 84.7024 206.694 78.5752 202.362 74.3479ZM148.628 120.44C147.444 121.921 146.852 123.794 147.127 125.685C147.714 129.719 151.537 132.337 155.385 132.685C157.836 132.906 160.718 132.304 162.816 130.995C162.836 130.983 162.853 130.967 162.872 130.953C163.789 131.485 164.73 131.97 165.685 132.409C164.087 134.009 162.313 135.252 160.039 135.913C157.406 136.679 154.604 136.572 152.053 135.551C146.94 133.505 143.696 128.246 144.275 122.77C144.441 121.2 144.914 119.634 145.636 118.231C146.173 117.189 146.951 116.309 147.576 115.346C148.284 116.68 149.072 117.97 149.941 119.204C149.446 119.551 148.998 119.976 148.628 120.44ZM149.997 123.124C150.276 122.44 150.743 121.797 151.33 121.345C151.38 121.307 151.439 121.276 151.491 121.24C152.709 122.74 154.034 124.157 155.464 125.464C156.888 126.765 158.455 128.035 160.123 129.197C158.595 129.735 157.068 130.136 155.368 129.967C153.569 129.788 151.838 128.915 150.722 127.475C149.757 126.23 149.39 124.61 149.997 123.124ZM180.859 127.44C179.454 128.835 177.324 129.631 175.262 129.719C170.124 129.938 165.051 126.931 161.039 123.996C155.299 119.798 150.428 113.66 148.796 106.648C148.732 101.702 148.825 95.9083 152.694 92.3511C154.266 90.9052 156.398 89.9517 158.55 90.474C161.051 91.0809 163.044 93.0738 164.87 94.7691C165.791 95.6235 166.691 96.5057 167.58 97.4C166.594 98.5694 165.472 99.6341 164.175 100.565C162.681 101.177 162.047 103.101 162.224 104.692C162.462 106.838 163.28 108.979 164.157 110.938C164.977 112.77 165.992 114.694 167.445 116.11C168.275 116.92 169.485 117.612 170.691 117.756C171.264 118.07 171.99 118.09 172.603 117.514C172.759 117.368 172.925 117.241 173.084 117.101C173.09 117.095 173.097 117.091 173.103 117.086C173.106 117.084 173.107 117.08 173.11 117.078C175.001 115.402 177.095 114.058 179.303 112.898C179.675 114.029 180.194 115.098 180.852 116.079C181.66 117.856 182.377 119.735 182.592 121.63C182.847 123.887 182.337 125.973 180.859 127.44ZM198.223 96.7995C195.456 100.507 191.657 103.196 187.634 105.503C181.824 108.118 175.772 110.266 170.917 114.519C169.62 113.969 168.501 113.074 167.605 111.989C167.244 111.328 166.913 110.651 166.602 109.994C166.119 108.974 165.715 107.92 165.378 106.844C165.328 106.449 165.293 106.052 165.292 105.653C165.291 105.022 165.35 104.4 165.488 103.784C165.567 103.431 165.669 103.083 165.761 102.733C165.784 102.643 165.798 102.555 165.818 102.467C166.073 102.335 166.229 102.138 166.299 101.912C170.612 98.9768 173.193 93.7508 175.471 89.2525C177.524 85.1962 179.588 80.5871 183.124 77.5907C186.227 75.6692 190.027 74.5207 193.509 75.0065C196.21 75.66 198.697 77.2268 200.486 79.3873C204.138 84.7715 201.841 91.9518 198.223 96.7995Z" fill="black"/>
<path d="M160.274 152.099C156.515 148.048 151.563 145.854 146.567 143.743C144.834 143.011 143.12 142.268 141.423 141.501C140.064 140.667 138.637 139.924 137.281 139.094C135.463 137.982 133.679 136.807 131.911 135.616C130.192 134.458 128.505 133.247 126.864 131.979C126.071 131.366 125.283 130.747 124.504 130.116C124.244 129.904 123.982 129.67 123.718 129.433C125.387 126.965 126.631 124.217 127.264 121.291C127.583 119.816 127.769 118.285 127.789 116.776C127.812 115.057 127.509 113.316 127.662 111.6C127.896 108.971 129.803 107.419 131.835 105.559C134.117 103.47 136.245 101.262 137.684 98.4874C139.151 95.6598 139.958 92.6183 140.211 89.4513C140.754 82.6696 138.01 75.7317 132.671 71.4568C128.625 68.2178 123.539 66.232 118.377 66.1092C119.275 58.3127 114.766 50.4616 107.26 47.1712C98.1832 43.1915 88.1876 45.2674 80.1661 50.5533C72.871 44.413 62.3671 42.398 53.2673 45.2887C43.2624 48.4669 36.4683 57.4881 35.1567 67.7789C34.5885 72.2367 35.0739 76.7627 36.7443 80.8899C28.5092 83.9495 22.2329 91.6195 20.9222 100.348C19.4805 109.948 24.0221 118.998 32.1295 124.202C35.585 126.42 39.5926 127.753 43.6782 127.98C45.0992 139.288 54.0252 149.293 65.5471 150.92C71.961 151.825 78.737 150.608 84.2008 147.023C86.7474 145.351 88.7806 142.867 91.2976 141.303C94.0225 139.61 97.3307 140.213 100.364 140.493C104.129 140.84 107.774 140.445 111.188 139.262C113.46 142.766 115.705 146.213 117.518 150.019C118.905 152.934 120.032 155.935 121.147 158.946C121.071 158.96 120.997 158.98 120.92 158.992C122.569 164.059 123.711 169.341 126.706 173.833C129.94 178.683 135.01 182.111 140.723 183.321C146.21 184.483 152.18 183.469 156.713 180.077C160.981 176.883 163.98 172.094 164.769 166.793C165.573 161.389 163.998 156.112 160.274 152.099ZM103.462 133.629C100.329 133.555 97.2222 132.755 94.0797 133.024C90.5086 133.329 87.6462 134.814 84.9441 137.098C82.8152 138.898 81.1586 140.573 78.719 141.842C76.7338 142.876 74.3074 143.61 72.1308 143.862C66.52 144.513 60.9692 142.875 57.0114 139.218C52.8542 135.378 50.452 130.091 50.4819 124.399C50.4913 122.604 48.8292 120.757 46.9484 120.908C40.1292 121.455 33.4994 117.995 29.9896 112.257C26.3717 106.343 27.1005 99.3811 30.8993 93.7207C32.8058 90.8801 35.9499 88.2851 39.323 87.1159C40.87 86.5797 41.9529 85.1602 41.8023 83.5371C41.8506 83.1926 41.8037 82.815 41.6227 82.4242C38.0523 74.7175 38.9876 65.3305 43.7932 58.3732C48.5757 51.4494 57.4139 48.3588 65.5777 49.8093C70.2688 50.6428 74.5718 52.7519 77.8856 56.2005C78.6809 57.0281 80.3366 57.396 81.335 56.6739C87.6637 52.0974 95.9218 48.9304 103.579 52.1024C109.683 54.6308 114.197 61.9524 110.99 68.2383C109.65 70.8662 111.873 73.7794 114.764 73.1482C124.43 71.0376 133.497 78.3943 133.3 88.2259C133.256 90.3819 132.697 92.8148 131.822 94.6227C130.654 97.0386 129.255 98.4919 127.275 100.323C125.264 102.183 123.157 104.135 121.976 106.657C120.478 109.857 120.876 113.002 120.913 116.407C121.013 125.485 112.644 133.846 103.462 133.629ZM155.543 174.15C152.273 177.392 147.413 178.185 143.085 177.374C138.3 176.477 134.15 173.787 131.68 169.622C131.27 168.93 130.909 168.217 130.567 167.495C129.882 166.353 129.262 165.151 128.72 163.906C127.867 162.158 127.259 160.265 126.818 158.312C126.616 157.666 126.447 157.014 126.29 156.359C126.254 156.387 126.219 156.415 126.184 156.443C125.162 153.373 123.966 150.369 122.578 147.427C120.926 143.923 119.143 140.221 116.927 136.958C116.84 136.81 116.757 136.659 116.663 136.515C117.003 136.291 117.341 136.064 117.672 135.815C118.533 135.167 119.342 134.448 120.122 133.698C120.151 133.727 120.181 133.755 120.21 133.783C121.044 134.593 121.908 135.372 122.8 136.117C124.63 137.645 126.566 139.051 128.598 140.299C131.679 142.193 135.003 143.626 138.479 144.564C146.667 148.084 158.917 151.228 159.983 161.673C160.445 166.196 158.77 170.949 155.543 174.15Z" fill="black"/>
<path d="M102.081 71.4866C94.0996 64.2808 82.9551 61.6349 72.4779 63.6001C62.1357 65.5399 53.2839 72.4956 48.8882 82.0468C44.6079 91.3474 44.2569 102.243 48.8712 111.496C48.9168 111.588 48.9699 111.675 49.0164 111.766C52.7324 119.691 59.4035 125.789 67.8466 128.856C78.0316 132.556 89.5425 130.864 98.3642 124.629C106.889 118.604 112.463 109.299 112.967 98.7908C113.445 88.8294 109.547 78.228 102.081 71.4866ZM100.151 115.59C98.4852 117.411 96.5951 118.999 94.5617 120.358C92.5053 121.402 90.38 122.301 88.1903 123.029C85.6871 123.861 83.1498 124.428 80.5905 124.896C80.3873 124.835 80.1749 124.784 79.9349 124.765C75.7172 124.43 71.4936 123.645 67.6502 121.815C63.7562 119.961 60.339 117.345 57.5444 114.06C52.0228 107.568 50.2329 98.7845 52.2075 90.5609C54.2155 82.1987 59.71 75.0615 67.6065 71.5163C75.4452 67.9971 85.1791 68.4395 92.6987 72.5439C100.088 76.5774 105.098 84.1138 106.742 92.3524C108.399 100.654 105.842 109.368 100.151 115.59Z" fill="black"/>
<path d="M95.0343 79.3361C89.3659 74.2184 81.4509 72.3392 74.0098 73.7349C66.6646 75.1126 60.3778 80.0527 57.2559 86.8361C54.216 93.4416 53.9667 101.18 57.2439 107.752C57.2763 107.816 57.314 107.879 57.347 107.944C59.9861 113.572 64.7241 117.903 70.7205 120.081C77.9542 122.709 86.1294 121.507 92.3947 117.079C98.4494 112.8 102.408 106.191 102.766 98.7281C103.105 91.6532 100.337 84.1239 95.0343 79.3361ZM62.0573 107.771C59.206 103.409 58.3862 97.9935 59.6134 92.883C61.0395 86.944 64.9418 81.875 70.55 79.3572C76.1172 76.8577 83.0303 77.172 88.3709 80.087C90.1395 81.0523 91.6971 82.3184 93.055 83.7726C86.6675 86.1922 80.6866 89.5349 75.3022 93.7559C72.4106 96.0228 69.7091 98.5314 67.241 101.253C66.041 102.577 64.9052 103.952 63.8278 105.377C63.2553 106.134 62.6177 106.932 62.0573 107.771Z" fill="black"/>
</svg>
