<svg width="228" height="228" viewBox="0 0 228 228" fill="none" xmlns="http://www.w3.org/2000/svg">
<path d="M199.081 154.478C199.21 156.072 199.182 157.702 199.054 159.295C198.798 162.372 198.239 165.476 197.232 168.397C196.362 170.897 194.97 173.442 193.102 175.466C193.102 175.924 192.818 176.391 192.095 176.784C191.765 176.958 191.426 177.114 191.088 177.288C189.934 178.149 188.652 178.808 187.242 179.202C177.993 183.56 168.196 186.71 158.215 188.926C136.513 193.761 113.942 194.558 91.7823 194.53C85.803 194.521 79.8328 194.402 73.8717 194.191C68.6066 193.999 63.3323 193.798 58.1037 193.221C53.388 192.69 48.6997 191.792 44.2312 190.172C40.9806 188.99 37.4094 187.287 34.7723 184.833C34.232 184.732 33.7284 184.513 33.4537 184.238C32.712 183.487 32.5472 182.361 32.2633 181.363C31.9886 180.438 31.7414 179.495 31.5033 178.561C31.0363 176.684 30.6243 174.788 30.2672 172.884C29.9009 170.915 29.5987 168.937 29.3881 166.941C29.2416 165.522 28.8204 163.589 29.0859 162.051C29.0218 161.584 29.0035 161.117 29.0768 160.586C29.3423 158.691 29.9283 157.042 30.9173 155.422C32.8219 152.272 35.7978 149.891 38.847 147.922C44.9455 143.985 51.6024 140.771 58.3601 138.115C72.1136 132.713 86.6546 129.709 101.379 128.455C100.646 117.192 100.234 105.874 99.5381 94.7122C99.2909 90.7748 99.0528 86.8282 98.8147 82.8817C98.6041 82.9091 98.3935 82.9275 98.1921 82.9275C93.4855 82.7718 88.8247 82.1217 84.054 81.792C67.3429 80.6566 50.5494 80.6657 33.8383 81.8378C32.0619 81.9568 29.3331 80.1438 30.9356 78.23C34.8364 73.5234 39.076 69.1282 43.5902 64.9985C51.4925 57.7555 60.2556 51.5289 69.6596 46.4011C74.3295 43.8555 79.146 41.5755 84.0907 39.6159C86.6362 38.5995 89.2276 37.6747 91.8464 36.9055C93.1559 36.5209 94.4836 36.1913 95.8021 35.8616C96.5164 35.6785 97.2398 35.4404 97.9632 35.3763C98.1738 35.358 98.3752 35.358 98.5675 35.3672C100.344 33.49 104.675 33.3802 105.453 36.0814C108.145 45.4122 108.64 55.2191 109.446 64.8611C110.252 74.5032 110.984 84.1545 111.689 93.8057C112.513 105.059 113.658 116.432 114.464 127.796C121.725 127.658 128.995 127.887 136.184 128.437C136.22 128.437 136.248 128.446 136.284 128.446C136.495 127.741 136.742 127.036 137.09 126.34C138.454 123.574 140.57 121.313 143.088 119.591C143.115 119.509 143.161 119.426 143.234 119.344C146.384 116.267 151.21 114.912 155.532 115.031C159.955 115.141 164.203 116.817 167.262 120.04C169.743 122.65 171.318 126.166 171.547 129.764C171.657 131.467 171.4 133.143 170.879 134.727C172.527 135.258 174.166 135.835 175.787 136.449C181.72 138.692 187.681 141.476 192.846 145.184C193.038 145.322 193.212 145.459 193.395 145.596C195.135 146.127 196.545 147.474 197.406 149.094C197.552 149.241 197.68 149.396 197.818 149.552C197.836 149.689 197.836 149.836 197.854 149.973C198.724 151.237 198.962 152.977 199.081 154.478ZM193.45 166.849C194.183 164.441 194.65 161.96 194.888 159.46C193.972 160.549 192.946 161.538 191.921 162.536C188.221 164.661 183.698 165.503 179.632 166.437C173.094 167.939 166.529 169.322 159.945 170.567C153.352 171.812 146.741 172.975 140.112 173.982C133.986 174.907 127.723 176.043 121.514 176.143C120.553 176.198 119.61 176.262 118.667 176.327C114.491 176.638 110.316 176.858 106.14 176.995C91.471 177.48 76.7836 176.931 62.1785 175.411C58.47 175.026 54.7615 174.568 51.0622 174.056C47.7841 173.598 44.4601 173.195 41.2736 172.252C38.4258 171.409 35.6788 170.1 33.6094 167.93C33.8566 169.523 34.1221 171.116 34.4335 172.7C34.8181 174.596 35.2576 176.482 35.7612 178.359C36.0176 179.293 36.2832 180.227 36.567 181.152C36.6769 181.537 36.8051 181.885 36.8966 182.233C38.4441 183.359 40.0008 184.485 41.6948 185.392C43.8741 186.555 46.2182 187.479 48.5898 188.166C53.4429 189.576 58.4975 190.172 63.5245 190.51C74.7965 191.28 86.1509 191.426 97.4504 191.325C108.393 191.225 119.353 190.849 130.259 189.879C150.505 188.093 170.824 183.927 188.972 174.477C191.124 172.526 192.534 169.862 193.45 166.849ZM191.481 158.526C192.882 157.18 193.935 155.403 194.1 153.462C192.076 150.706 189.293 148.499 186.308 146.631C180.896 143.252 174.926 140.716 168.873 138.711C168.461 139.297 168.031 139.855 167.545 140.386C161.978 146.475 152.19 149.168 144.562 145.514C139.452 143.069 135.955 137.996 135.753 132.612C134.169 132.493 132.576 132.383 130.992 132.301C125.589 132.008 120.159 131.898 114.748 131.999C115.059 136.962 115.288 141.925 115.379 146.869C117.522 146.906 119.665 147.052 121.798 147.327C124.701 147.702 129.865 148.691 129.005 152.775C128.126 156.896 122.338 157.473 118.987 158.16C110.416 159.908 101.58 160.458 92.8537 159.762C90.1524 159.551 84.0174 159.158 85.0063 154.881C85.8304 151.329 91.2787 150.504 94.1631 149.809C96.2234 149.314 98.3294 148.884 100.454 148.545C101.342 148.325 102.23 148.133 103.118 147.95C102.514 142.886 102.056 137.786 101.672 132.676C99.1535 132.896 96.6446 133.152 94.1448 133.491C82.0212 135.103 70.0625 138.024 58.763 142.739C53.1408 145.084 47.5643 147.803 42.4731 151.173C40.0008 152.803 37.7391 154.689 36.0542 157.152C35.2301 158.343 34.5342 159.689 34.0672 161.062C33.9848 161.328 33.8841 161.584 33.7834 161.85C33.8474 161.969 33.9024 162.097 33.9848 162.234C34.3694 162.875 34.6899 163.544 35.1019 164.176C35.9535 165.512 37.0249 166.648 38.3343 167.545C41.1271 169.45 44.57 170.045 47.839 170.558C61.4917 172.691 75.3093 173.827 89.1177 174.101C95.9853 174.239 102.853 174.147 109.72 173.836C113.154 173.68 116.579 173.47 120.004 173.204C123.565 172.929 127.146 172.38 130.708 172.316C130.79 172.316 130.863 172.316 130.946 172.325C133.94 171.867 136.934 171.473 139.883 170.988C152.098 169.01 164.258 166.739 176.327 164.02C179.184 163.37 182.077 162.784 184.888 161.96C187.26 161.264 189.668 160.266 191.481 158.526ZM166.245 137.667C168.086 135.689 168.873 132.841 168.534 130.176C168.425 126.385 166.666 122.631 163.636 120.122C161.072 117.998 157.821 117.027 154.506 117.146C153.252 117.192 152.052 117.412 150.889 117.751C146.503 119.179 142.511 121.734 140.24 125.653C139.855 126.092 139.517 126.587 139.224 127.118C138.07 129.215 137.74 131.513 138.299 133.839C138.427 134.398 138.647 134.929 138.931 135.432C140.203 139.645 143.701 143.225 147.996 144.488C154.589 146.43 162.18 143.362 166.154 137.859C166.117 137.85 166.09 137.841 166.053 137.831L166.245 137.667ZM98.5309 78.1293C98.2928 74.0088 98.0547 69.8882 97.8441 65.7585C97.3863 57.087 96.5988 48.2874 97.4962 39.6159C96.1593 40.1104 94.8407 40.6415 93.5038 41.1268C90.8484 42.0974 88.2203 43.1504 85.6198 44.2584C68.4051 51.6021 52.7928 62.7185 40.2297 76.6459C42.9035 76.4994 45.5681 76.3712 48.2419 76.2888C56.6478 76.0049 65.072 76.0141 73.478 76.3071C77.6809 76.4536 81.8839 76.6734 86.0777 76.9664C90.2074 77.2594 94.4378 77.4425 98.5309 78.1293Z" fill="black"/>
<path d="M194.888 159.46C194.649 161.96 194.182 164.441 193.45 166.849C192.534 169.862 191.124 172.526 188.972 174.477C170.824 183.927 150.505 188.093 130.259 189.879C119.353 190.849 108.393 191.225 97.4503 191.325C86.1509 191.426 74.7965 191.28 63.5245 190.51C58.4974 190.172 53.4429 189.576 48.5898 188.166C46.2182 187.479 43.8741 186.555 41.6947 185.392C40.0007 184.485 38.4441 183.359 36.8966 182.233C36.805 181.885 36.6769 181.537 36.567 181.152C36.2831 180.227 36.0176 179.293 35.7612 178.359C35.2576 176.482 34.818 174.596 34.4334 172.7C34.1221 171.116 33.8566 169.523 33.6093 167.93C35.6788 170.1 38.4258 171.409 41.2735 172.252C44.4601 173.195 47.784 173.598 51.0621 174.056C54.7615 174.568 58.47 175.026 62.1785 175.411C76.7835 176.931 91.471 177.48 106.14 176.995C110.316 176.858 114.491 176.638 118.667 176.326C119.61 176.262 120.553 176.198 121.514 176.143C127.723 176.043 133.986 174.907 140.112 173.982C146.741 172.975 153.352 171.812 159.945 170.567C166.529 169.322 173.094 167.939 179.632 166.437C183.698 165.503 188.221 164.661 191.921 162.536C192.946 161.538 193.972 160.549 194.888 159.46Z" fill="black"/>
<path d="M156.375 142.591C156.227 142.401 155.991 142.284 155.782 142.176C155.564 142.063 155.336 141.981 155.1 141.915C154.666 141.794 154.206 141.753 153.758 141.793C153.306 141.833 152.86 141.937 152.453 142.143C152.247 142.247 152.065 142.362 151.891 142.514C151.719 142.664 151.614 142.808 151.486 142.993C151.242 143.346 151.866 143.484 152.091 143.325C152.355 143.138 152.665 142.992 152.961 142.861C153.228 142.743 153.571 142.649 153.791 142.63C154.121 142.601 154.372 142.628 154.672 142.715C154.795 142.751 154.975 142.821 155.112 142.886C155.277 142.963 155.426 143.076 155.6 143.142C155.815 143.225 156.093 143.219 156.286 143.079C156.449 142.962 156.503 142.757 156.375 142.591Z" fill="black"/>
<path d="M145.234 138.936L145.242 138.941L145.238 138.938L145.234 138.936Z" fill="black"/>
<path d="M145.453 139.096C145.453 139.095 145.453 139.096 145.453 139.096C145.393 139.037 145.428 139.09 145.453 139.096Z" fill="black"/>
<path d="M147.066 139.798C147.049 139.702 147.031 139.613 146.998 139.522C146.943 139.368 146.863 139.225 146.776 139.087C146.618 138.835 146.393 138.61 146.138 138.457C145.799 138.254 145.438 138.143 145.044 138.119C145.008 138.117 144.972 138.117 144.936 138.119L144.808 138.131C144.876 138.125 144.883 138.123 144.828 138.127C144.738 138.128 144.636 138.138 144.547 138.158C144.388 138.193 144.222 138.254 144.074 138.322C143.947 138.38 143.84 138.51 143.923 138.65C144.006 138.789 144.208 138.836 144.359 138.802C144.409 138.79 144.464 138.778 144.517 138.773C144.53 138.774 144.551 138.775 144.558 138.775C144.588 138.776 144.618 138.778 144.648 138.78C144.683 138.781 144.719 138.783 144.755 138.784C144.79 138.791 144.897 138.813 144.911 138.816C144.923 138.818 144.972 138.834 144.997 138.838C145.051 138.858 145.106 138.877 145.158 138.9C145.162 138.901 145.209 138.924 145.234 138.936C145.214 138.924 145.193 138.909 145.238 138.938C145.238 138.938 145.238 138.938 145.239 138.938C145.243 138.94 145.255 138.946 145.255 138.946C145.254 138.947 145.249 138.944 145.243 138.941C145.294 138.974 145.345 139.007 145.393 139.045C145.404 139.054 145.447 139.098 145.457 139.098C145.456 139.098 145.455 139.096 145.453 139.096C145.493 139.135 145.531 139.175 145.567 139.218C145.603 139.26 145.636 139.305 145.668 139.35C145.674 139.359 145.704 139.399 145.709 139.413C145.712 139.419 145.707 139.412 145.712 139.423C145.764 139.522 145.807 139.625 145.838 139.732C145.872 139.848 145.889 139.962 145.939 140.072C146.032 140.274 146.277 140.377 146.49 140.371C146.589 140.367 146.687 140.35 146.779 140.315C146.867 140.281 147.019 140.177 147.042 140.072C147.061 139.979 147.083 139.892 147.066 139.798Z" fill="black"/>
<path d="M142.462 130.202C142.345 129.519 141.992 128.882 141.391 128.515C141.22 128.411 140.994 128.388 140.816 128.491C140.681 128.569 140.568 128.75 140.704 128.892C141.099 129.306 141.388 129.744 141.558 130.289C141.719 130.804 141.77 131.405 141.588 131.92C141.507 132.151 141.955 132.228 142.056 132.06C142.393 131.494 142.576 130.862 142.462 130.202Z" fill="black"/>
<path d="M150.553 120.287C150.504 120.108 150.235 120.022 150.074 120.027C149.917 120.032 149.635 120.099 149.596 120.287C149.552 120.495 149.505 120.696 149.477 120.908C149.454 121.076 149.424 121.216 149.368 121.389C149.257 121.738 149.108 122.048 148.878 122.33C148.46 122.842 147.84 123.214 147.166 123.272C147.037 123.283 146.855 123.335 146.852 123.496C146.849 123.65 147.043 123.718 147.166 123.719C148.083 123.726 148.992 123.387 149.656 122.754C149.974 122.451 150.236 122.074 150.409 121.669C150.503 121.45 150.565 121.218 150.605 120.983C150.647 120.737 150.619 120.527 150.553 120.287Z" fill="black"/>
<path d="M149.674 127.784C149.552 127.56 149.272 127.465 149.027 127.523C148.848 127.564 148.537 127.746 148.659 127.983C148.885 128.419 148.954 128.945 148.814 129.42C148.698 129.815 148.436 130.216 148.053 130.409C147.946 130.464 147.858 130.578 147.949 130.691C148.042 130.807 148.218 130.809 148.345 130.765C148.93 130.568 149.413 130.183 149.702 129.635C150.005 129.059 149.982 128.352 149.674 127.784Z" fill="black"/>
<path d="M154.626 136.553C154.345 136.391 154.047 136.275 153.727 136.215C153.158 136.11 152.518 136.172 151.996 136.43C151.883 136.486 151.793 136.607 151.888 136.725C151.984 136.845 152.171 136.851 152.303 136.803C152.399 136.767 152.487 136.744 152.591 136.724C152.722 136.7 152.751 136.697 152.889 136.697C152.921 136.696 152.952 136.698 152.983 136.698C152.992 136.698 153.002 136.698 153.008 136.699C153.058 136.704 153.108 136.712 153.157 136.722C153.211 136.733 153.265 136.746 153.318 136.759C153.328 136.762 153.326 136.761 153.332 136.763C153.334 136.764 153.331 136.763 153.339 136.766C153.368 136.775 153.397 136.784 153.426 136.794C153.529 136.83 153.626 136.877 153.724 136.923C153.726 136.924 153.725 136.924 153.726 136.924C153.753 136.939 153.78 136.954 153.806 136.97C153.853 136.998 153.899 137.028 153.944 137.059C154.041 137.126 154.131 137.2 154.219 137.278C154.224 137.283 154.282 137.332 154.25 137.304C154.197 137.258 154.326 137.371 154.351 137.386C154.426 137.432 154.507 137.475 154.59 137.501C154.814 137.57 155.155 137.543 155.194 137.255C155.236 136.94 154.862 136.689 154.626 136.553Z" fill="black"/>
<path d="M161.289 122.797C161.253 122.788 161.151 122.745 161.287 122.8C161.254 122.787 161.218 122.778 161.185 122.765C161.123 122.743 161.062 122.717 161.003 122.69C160.943 122.662 160.885 122.63 160.825 122.601C160.822 122.599 160.824 122.6 160.821 122.599C160.818 122.597 160.821 122.598 160.816 122.595C160.785 122.576 160.754 122.558 160.723 122.538C160.662 122.498 160.602 122.456 160.545 122.411C160.521 122.392 160.497 122.373 160.474 122.354C160.468 122.349 160.443 122.327 160.425 122.312C160.412 122.299 160.391 122.28 160.387 122.275C160.361 122.249 160.335 122.223 160.31 122.196C160.261 122.142 160.213 122.087 160.168 122.029C160.089 121.929 160.018 121.822 159.952 121.713C159.943 121.697 159.926 121.669 159.922 121.661C159.905 121.629 159.888 121.596 159.872 121.563C159.84 121.497 159.811 121.429 159.781 121.362C159.727 121.24 159.683 121.114 159.653 120.983C159.62 120.84 159.605 120.726 159.55 120.566C159.452 120.283 158.926 120.312 158.816 120.566C158.679 120.881 158.74 121.245 158.808 121.571C158.874 121.89 159.043 122.194 159.233 122.456C159.657 123.039 160.281 123.436 160.987 123.578C161.216 123.624 161.605 123.558 161.687 123.295C161.772 123.02 161.521 122.855 161.289 122.797Z" fill="black"/>
<path d="M163.914 131.077C164.001 130.961 163.946 130.831 163.827 130.766C163.694 130.693 163.506 130.694 163.381 130.785C162.883 131.146 162.574 131.706 162.494 132.311C162.455 132.607 162.484 132.9 162.562 133.188C162.602 133.337 162.67 133.477 162.753 133.607C162.881 133.806 163.066 133.909 163.29 133.97C163.464 134.017 163.761 133.945 163.825 133.754C163.917 133.481 163.735 133.225 163.648 132.975C163.63 132.922 163.614 132.869 163.6 132.815C163.592 132.785 163.585 132.755 163.578 132.725C163.601 132.822 163.562 132.629 163.567 132.665C163.564 132.646 163.559 132.614 163.558 132.609C163.554 132.578 163.55 132.547 163.547 132.516C163.541 132.454 163.537 132.392 163.536 132.33C163.532 132.075 163.556 131.893 163.617 131.677C163.682 131.45 163.778 131.261 163.914 131.077Z" fill="black"/>
<path d="M158.418 129.337C158.351 129.246 158.286 129.151 158.203 129.074C158.171 129.046 158.14 129.018 158.107 128.991C158.103 128.989 158.105 128.99 158.103 128.988C158.101 128.987 158.102 128.988 158.101 128.986C158.063 128.947 158.024 128.909 157.986 128.868C157.908 128.783 157.838 128.691 157.775 128.594C157.761 128.57 157.746 128.547 157.731 128.524C157.727 128.518 157.728 128.519 157.726 128.516C157.697 128.462 157.668 128.409 157.642 128.353C157.596 128.253 157.558 128.148 157.524 128.043C157.506 127.986 157.49 127.928 157.476 127.869C157.471 127.846 157.463 127.797 157.471 127.846C157.466 127.819 157.463 127.791 157.459 127.764C157.434 127.552 157.432 127.307 157.472 127.112C157.502 126.963 157.412 126.861 157.27 126.819C157.141 126.781 156.916 126.789 156.834 126.921C156.525 127.416 156.457 127.994 156.617 128.555C156.692 128.819 156.826 129.065 156.997 129.279C157.23 129.57 157.533 129.761 157.904 129.813C158.068 129.836 158.258 129.819 158.383 129.697C158.488 129.593 158.509 129.461 158.418 129.337Z" fill="black"/>
<path d="M49.1248 156.932C47.4331 156.932 47.4269 158.876 49.1248 158.876C50.8167 158.876 50.8228 156.932 49.1248 156.932Z" fill="black"/>
<path d="M66.7059 144.781C65.014 144.781 65.0079 146.725 66.7059 146.725C68.3976 146.725 68.4038 144.781 66.7059 144.781Z" fill="black"/>
<path d="M64.7129 165.485C63.0211 165.485 63.015 167.429 64.7129 167.429C66.4046 167.429 66.4108 165.485 64.7129 165.485Z" fill="black"/>
<path d="M128.498 168.566C126.806 168.566 126.8 170.511 128.498 170.511C130.19 170.511 130.196 168.566 128.498 168.566Z" fill="black"/>
<path d="M106.263 164.171C104.571 164.171 104.565 166.115 106.263 166.115C107.955 166.115 107.961 164.171 106.263 164.171Z" fill="black"/>
<path d="M93.0773 141.419C91.3855 141.419 91.3794 143.364 93.0773 143.364C94.7692 143.364 94.7752 141.419 93.0773 141.419Z" fill="black"/>
<path d="M122.551 135.99C120.86 135.99 120.853 137.934 122.551 137.934C124.243 137.934 124.249 135.99 122.551 135.99Z" fill="black"/>
<path d="M140.649 151.503C138.958 151.503 138.951 153.447 140.649 153.447C142.341 153.447 142.347 151.503 140.649 151.503Z" fill="black"/>
<path d="M155.645 160.293C153.953 160.293 153.947 162.237 155.645 162.237C157.337 162.237 157.343 160.293 155.645 160.293Z" fill="black"/>
<path d="M166.762 146.332C165.07 146.332 165.064 148.276 166.762 148.276C168.454 148.276 168.46 146.332 166.762 146.332Z" fill="black"/>
<path d="M176.587 154.864C174.895 154.864 174.889 156.808 176.587 156.808C178.279 156.808 178.285 154.864 176.587 154.864Z" fill="black"/>
<path d="M75.2378 152.795C73.546 152.795 73.5398 154.74 75.2378 154.74C76.9296 154.74 76.9357 152.795 75.2378 152.795Z" fill="black"/>
</svg>
