<svg width="228" height="228" viewBox="0 0 228 228" fill="none" xmlns="http://www.w3.org/2000/svg">
<path d="M186.608 50.1692C187.787 49.7669 187.32 48.1147 186.111 48.32C178.684 49.5809 172.767 55.3656 169.981 62.3062C169.687 61.2477 169.305 60.2116 168.799 59.2119C167.111 55.8739 163.705 53.153 159.915 52.7891C154.095 52.2304 150.953 57.1823 149.183 62.6181C148.189 56.8691 146.1 48.0604 139.642 46.5715C132.701 44.9715 129.555 53.0873 128.092 58.2787C125.804 66.4015 124.637 74.8079 124.095 83.2174C124.079 83.4666 124.069 83.7162 124.054 83.9655C123.654 82.9443 123.229 81.9316 122.763 80.9359C118.28 71.3624 110.702 63.5159 101.363 58.5742C96.2215 55.8537 90.6341 53.9842 84.8391 53.4011C83.0463 53.2207 82.6687 56.2142 84.4468 56.5504C93.9762 58.3524 102.793 62.2172 109.983 68.8302C116.256 74.6007 120.791 81.9881 123.114 90.1342C122.295 90.9757 121.479 91.8868 120.745 92.8589C116.603 93.2869 112.519 94.2646 108.644 95.8264C98.9747 99.7226 90.3772 106.608 85.103 115.693C83.8556 117.842 83.1192 120.505 82.4495 122.89C82.4285 122.965 82.4257 123.035 82.4098 123.108C78.2376 130.726 76.2018 139.623 76.9374 148.241C77.9015 159.535 83.4423 169.294 92.5792 175.972C98.226 180.099 104.818 182.623 111.666 183.914C111.656 185.464 111.641 187.014 111.642 188.565L111.644 192.256C111.645 193.106 111.63 193.955 111.688 194.798C111.687 195.253 111.685 195.709 111.684 196.164C110.437 196.041 109.17 196.051 107.86 196.241C104.984 196.658 101.504 197.587 99.5318 199.85C98.7492 200.748 99.4598 202.33 100.741 201.959C102.03 201.586 103.177 200.978 104.419 200.485C105.705 199.974 107.056 199.591 108.415 199.338C109.561 199.125 110.765 198.959 111.974 198.864C112.46 199.571 113.459 199.768 114.234 199.449C115.202 200.252 116.52 200.784 117.568 201.195C119.466 201.941 121.464 202.367 123.492 202.544C125.464 202.717 127.463 202.57 129.404 202.191C130.35 202.005 131.282 201.75 132.188 201.422C132.623 201.264 133.077 201.108 133.49 200.902C134.368 200.975 135.307 200.515 135.51 199.518C135.936 199.413 136.364 199.309 136.795 199.236C137.875 199.052 138.986 199.017 140.078 199.09C140.614 199.126 141.143 199.197 141.67 199.302C142.289 199.425 142.865 199.602 143.494 199.434C144.153 199.257 144.338 198.445 143.893 197.961C143.061 197.056 141.319 197.023 140.169 196.944C138.89 196.857 137.608 196.945 136.345 197.157C136.074 197.203 135.816 197.287 135.551 197.349C135.557 192.94 135.548 188.532 135.532 184.123C143.894 182.972 152.293 180.506 158.929 175.609C168.409 168.612 172.767 157.62 173.44 146.106C173.787 140.176 173.132 134.073 171.524 128.247C172.602 127.191 173.569 126.027 174.457 124.807C176.489 122.016 177.943 118.761 178.808 115.425C180.458 109.061 179.907 102.265 177.05 96.3687C180.318 95.1676 183.22 92.4472 184.89 89.6335C187.407 85.3951 187.575 80.191 185.661 75.6935C183.16 69.8165 177.335 66.4398 171.413 66.343C173.193 58.8419 179.134 52.7176 186.608 50.1692ZM151.443 64.0814C152.101 61.9145 152.869 59.6384 154.324 57.8604C157.337 54.1795 162.103 55.1271 165.049 58.3727C167.094 60.6251 167.857 63.6008 168.139 66.6436C165.605 67.1414 163.162 68.2638 161.078 70.1187C159.07 71.9071 157.601 74.2405 156.695 76.7607C156.324 77.7954 156.085 78.894 155.971 79.9953C154.092 79.543 152.172 79.27 150.241 79.1437C150.303 76.0555 150.268 72.9678 150.056 69.891C150.421 67.9322 150.863 65.9879 151.443 64.0814ZM128.595 65.998C129.276 62.5005 130.01 58.8476 131.348 55.5335C132.336 53.0859 133.911 50.0275 136.644 49.223C143.38 47.2399 145.762 58.7018 146.572 63.0244C147.016 65.3902 147.283 67.7754 147.447 70.1693C147.349 70.788 147.262 71.3778 147.186 71.9208C146.851 74.3115 146.682 76.7061 146.652 79.1005C143.089 79.2528 139.539 79.9673 136.171 81.327C132.608 82.765 129.339 84.7222 126.388 87.1542C126.618 80.0589 127.234 72.9886 128.595 65.998ZM164.186 145.913C164.071 148.447 163.902 149.854 163.341 152.388C163.091 153.52 162.793 154.641 162.442 155.746C162.268 156.296 162.08 156.841 161.88 157.382C161.817 157.552 161.751 157.722 161.686 157.891C161.655 157.953 161.467 158.391 161.407 158.522C160.932 159.564 160.402 160.58 159.815 161.562C159.522 162.053 159.215 162.535 158.893 163.007C158.755 163.21 158.613 163.409 158.471 163.608C158.387 163.725 158.359 163.77 158.35 163.79C158.296 163.853 158.25 163.907 158.169 164.004C155.044 167.744 151.691 170.021 147.094 171.952C143.21 173.583 137.881 174.81 133.271 175.532C127.774 176.392 122.119 176.625 116.578 176.093C114.063 175.851 111.562 175.356 109.125 174.692C106.754 174.045 104.772 173.333 102.813 172.402C94.7152 168.553 88.3185 162.213 85.7443 153.433C83.1922 144.728 84.1487 135.141 88.1264 126.996C89.0202 125.166 90.0503 123.415 91.1641 121.722C91.5531 121.207 91.968 120.644 92.4509 119.929C92.6526 119.63 92.8353 119.362 93.0106 119.107C95.4407 115.881 98.2397 112.937 101.325 110.317C101.582 110.105 101.84 109.894 102.104 109.69C102.184 109.637 102.862 109.136 102.97 109.059C103.913 108.396 104.88 107.768 105.87 107.179C106.794 106.629 107.739 106.113 108.7 105.632C109.181 105.391 109.666 105.16 110.155 104.937C110.365 104.842 110.576 104.75 110.786 104.656C110.895 104.607 110.956 104.579 111.027 104.547C111.059 104.536 111.113 104.516 111.206 104.48C113.277 103.667 115.412 103.015 117.586 102.541C118.111 102.427 118.64 102.323 119.169 102.23C119.302 102.207 120.195 102.074 120.243 102.06C121.379 101.922 122.523 101.837 123.666 101.798C123.675 101.797 123.685 101.798 123.694 101.798C123.732 105.371 123.815 108.943 123.907 112.512C123.946 114.01 126.271 114.409 126.593 112.847C127.34 109.221 127.665 105.533 127.601 101.856C127.953 101.877 128.306 101.895 128.657 101.925C128.842 101.941 129.819 102.055 129.944 102.063C132.185 102.386 134.401 102.877 136.567 103.538C137.63 103.864 138.679 104.232 139.717 104.632C139.767 104.651 139.801 104.664 139.834 104.677C140.069 104.776 140.304 104.876 140.538 104.979C141.118 105.235 141.694 105.504 142.263 105.785C144.324 106.804 146.305 107.983 148.179 109.316C148.308 109.407 149.002 109.933 149.073 109.978C149.446 110.277 149.818 110.58 150.181 110.892C151.083 111.666 151.952 112.478 152.782 113.328C159.237 119.942 163.085 129.358 163.98 138.47C164.222 140.942 164.298 143.432 164.186 145.913ZM174.646 111.704C174.225 115.015 173.101 118.231 171.375 121.084C170.923 121.832 170.417 122.542 169.874 123.223C168.565 119.831 166.91 116.589 164.91 113.598C158.789 104.449 149.67 97.7771 139.131 94.602C135.46 93.4961 131.654 92.8475 127.829 92.6613C130.158 90.6721 132.678 88.9295 135.421 87.5508C138.975 85.7651 142.87 84.6501 146.819 84.3679C146.924 85.7027 147.076 87.036 147.269 88.3677C147.269 88.3691 147.269 88.3705 147.269 88.3719C147.269 88.3719 147.269 88.3719 147.269 88.3719C147.285 88.4812 147.297 88.5905 147.313 88.6997C147.543 90.2208 149.781 89.7429 149.857 88.356C149.93 87.0178 149.997 85.677 150.059 84.3356C151.524 84.4071 152.988 84.5831 154.433 84.9095C166.724 87.6849 176.293 98.7667 174.646 111.704ZM172.403 69.9011C180.192 70.5844 185.48 79.1407 182.389 86.4137C181.596 88.2796 180.315 89.9246 178.766 91.2217C177.692 92.121 176.489 92.716 175.238 93.2339C171.363 87.3876 165.611 83.1832 159.145 80.9396C159.238 80.2618 159.363 79.5884 159.548 78.9305C160.056 77.1299 160.901 75.4138 162.123 73.9871C163.765 72.0715 165.912 70.803 168.268 70.221C168.239 71.0134 168.24 71.8051 168.3 72.5917C168.427 74.2507 170.905 74.279 170.913 72.5758C170.918 71.7034 170.914 70.8226 170.899 69.9406C170.9 69.9131 170.902 69.8859 170.904 69.8584C171.4 69.8444 171.9 69.857 172.403 69.9011Z" fill="black"/>
<path d="M41.5376 27.711C42.7288 27.244 43.8415 27.7121 44.5614 28.729C45.728 30.3756 46.838 32.0631 48.027 33.6937C48.3237 34.1001 48.6205 34.5068 48.9182 34.9121C48.9423 34.9449 48.9364 34.9379 48.9439 34.9497C48.9652 34.9748 48.978 34.9894 49.0357 35.0612C49.2086 35.2749 49.3793 35.4894 49.5544 35.7013C50.1969 36.4775 50.8747 37.2218 51.5594 37.9604C53.9726 40.5636 56.7994 42.8995 59.5409 44.9608C59.8147 44.124 60.2341 43.3213 60.9033 42.6729C59.7608 42.2705 58.6955 41.6424 57.8305 40.7978C56.9216 39.9104 56.1782 38.8132 55.5901 37.6898C54.9935 36.5496 54.454 35.3091 54.2213 34.0369C53.734 31.3712 54.2442 28.3554 56.4104 26.515C57.8871 25.2604 59.8008 24.8356 61.6585 25.0552C61.7145 25.0614 61.7679 25.0669 61.8244 25.0744C62.4755 25.1668 63.0935 25.3514 63.703 25.6241C63.7963 25.6638 63.8967 25.6639 63.989 25.7076C64.0701 25.7466 64.1363 25.8197 64.2164 25.8624C64.4095 25.9684 64.6262 26.0126 64.8109 26.1378C65.0937 26.3299 65.3403 26.5804 65.6049 26.804C65.6178 26.816 65.6316 26.8259 65.645 26.8379C69.4271 30.0666 71.1882 36.2593 67.429 40.1524C67.4285 40.158 67.4247 40.163 67.4242 40.1686C67.4472 40.1673 67.4701 40.1716 67.493 40.1706C68.1772 39.4063 68.8955 38.7173 69.759 38.134C71.5489 36.925 73.5379 36.037 75.6123 35.4404C77.6749 34.8475 79.8715 34.5947 82.0163 34.6492C84.3228 34.7082 86.8129 34.9785 88.7085 36.3897C89.6477 37.0888 90.2475 38.1036 89.9241 39.3084C89.6221 40.4304 88.5601 41.2093 87.4095 41.2245C85.3474 41.252 83.8969 40.7997 82.1326 40.7338C81.2104 40.6994 80.2888 40.733 79.3703 40.8229C79.318 40.828 79.3287 40.8262 79.3031 40.8283C79.277 40.8326 79.2876 40.8317 79.2353 40.8397C78.9818 40.8782 78.7278 40.9166 78.4743 40.9585C78.018 41.034 77.5639 41.1197 77.1129 41.2227C76.2617 41.4175 75.433 41.676 74.609 41.9642C73.6537 42.2983 73.452 42.3639 72.6531 42.7655C72.8607 43.1033 73.127 43.4075 73.2599 43.7818C77.9625 48.1499 80.0641 54.8147 81.1741 61.0919C81.4009 62.3727 81.7249 63.7861 81.7313 65.1523C82.234 65.5568 82.6716 65.9206 83.1263 66.2626C84.596 67.3673 85.9216 68.3951 87.7222 69.4032C88.5131 69.8462 89.3232 70.2545 90.1493 70.6275C91.1249 71.0675 91.1206 71.0712 92.2504 71.4808C93.1027 71.7898 93.9672 72.0532 94.8414 72.292C95.8911 72.5791 96.7658 72.9591 97.5454 73.2595C98.7377 73.7187 99.6054 74.7274 99.4015 76.0778C99.2078 77.3645 98.1736 78.2597 96.864 78.3032C92.6661 78.442 88.4011 76.5373 84.8858 74.3693C82.6396 72.9839 80.6704 71.3725 78.9712 69.4905C78.7513 69.5756 78.557 69.7168 78.3265 69.7707C77.8494 70.0957 77.3328 70.3876 76.7298 70.6005C76.3439 70.7368 75.9591 70.8175 75.5749 70.8863C75.4169 71.0131 75.2334 71.0984 75.0546 71.1913C75.2451 71.4511 75.4276 71.7174 75.624 71.9728C75.703 72.0705 75.9085 72.3288 75.9181 72.3408C76.0638 72.5215 76.2121 72.7005 76.3615 72.8785C76.6897 73.2705 77.0254 73.656 77.3686 74.0352C78.6798 75.4846 80.0737 76.8633 81.5669 78.126C81.9581 78.4569 82.3557 78.7805 82.7597 79.0962C82.8248 79.1472 82.9342 79.2265 83.0052 79.2777C83.2266 79.433 83.4465 79.5888 83.6776 79.7305C83.8884 79.8593 84.104 79.981 84.3276 80.088C84.4098 80.1126 84.492 80.1371 84.5741 80.1614C85.2732 80.3002 85.9163 80.4072 86.5535 80.7642C88.0595 81.609 88.4352 83.8629 87.1459 85.081C84.3975 87.6786 80.7653 85.1213 78.4679 83.246C76.7394 81.8353 75.1101 80.282 73.6617 78.5836C72.1178 76.7729 70.6278 74.841 69.4537 72.7661C68.5465 71.1635 67.7183 69.534 67.3148 67.7686C67.1366 67.5981 66.9268 67.4583 66.7587 67.28C62.1996 62.4423 60.0126 55.9001 60.3809 49.3654C60.336 49.3155 60.3302 49.256 60.2885 49.2053C59.8531 49.4489 59.3413 49.5409 58.8519 49.3608C54.5538 47.7788 50.8133 45.2209 47.5584 42.0138C44.3148 38.8182 41.4848 34.9206 40.0935 30.5568C39.7296 29.4155 40.4735 28.1283 41.5376 27.711Z" fill="black"/>
</svg>
