<?xml version="1.0" encoding="utf-8"?>
<!-- Generator: Adobe Illustrator 24.3.0, SVG Export Plug-In . SVG Version: 6.00 Build 0)  -->
<svg version="1.1" id="Layer_1" xmlns="http://www.w3.org/2000/svg" xmlns:xlink="http://www.w3.org/1999/xlink" x="0px" y="0px"
	 viewBox="0 0 227 227" style="enable-background:new 0 0 227 227;" xml:space="preserve">
<path d="M115.6,21.2c13,0.1,21.5,10.7,21,23.3c-1,3.1,9.1-2.7,16.9,4.4c5.4,3.9,10.7,10,8.7,17c5.8-0.4,12.2,0.2,15.7,5.5
	c3.2,3.9,8.1,15.3,3.1,19c-3.5,4.3-5,12.9-12,12.6c-10.2-4.5,7.6-13,4-20.9c0-9.2-8.7-9.5-15-5.5c-4.2,3.3-8.8-1.5-6.3-5.6
	c1.6-3.4,3.9-8,1.4-11.4c-5-6.7-12.1-7.5-19.4-4.1c-3.6,1.1-6.4-1.1-6-4.8c1.9-8.2,0.1-20.2-10.2-20.8c-5.5-0.8-11.3,0.8-15.6,4.4
	c-5.3,4.4-11.4,8.9-11.7,16.4c-1,3.6-4.4,4.7-7.3,2.4c-2.8-2.7-5.5-5.9-9.6-6.4c-7.4-1-15.3,4.2-17.1,11.7c-0.6,3.2-0.3,6.5,0.7,9.5
	c1.5,3.5,2.5,9.2-2.4,10.1c-3.4,0.3-6.4-3-9.9-1.3c-1.3,0.6-2.4,1.6-3.1,2.8c-4.7,8.8-1.4,16.7,5,21.7c1.2,1.2,2.3-0.7,3.7-0.5
	c2.2,0,4.1,2.2,3.6,4.4c-2,9-12.8,3.3-16.5-1.5c-3.6-3.9-5.8-8.8-6.4-14.1c-0.2-0.9-0.3-2,0-2.9c0.8-9.6,6.5-19.3,17.2-18.8
	c-2.1-10.7,0.9-19.2,10-25.3c8.4-5.6,16.9-5.7,25.4-0.1c2-5,5.7-8.8,9.8-12C99.5,24.6,107.3,21.2,115.6,21.2z"/>
<path d="M188.4,185.2c1.3-19.4-0.3-38.7-1-58.1c0.4-4.2-1.7-13,2.1-15.5c2.8-1.6,5.6,1.2,5.5,4.1c0.5,7.7,0.9,15.4,1.3,23.1
	c0.7,14.8,1.5,29.5,0.5,44.3c-0.9,4.6,1,17.3-4.9,18.1c-0.3,0-0.5,0.1-0.8,0.3c-1.6,1.7-3.6,1.6-5.7,1.6c-17.6-1.3-35.3-0.2-53-0.2
	c-15.8,0.2-31.7,0.2-47.5,0.6c-16.1,0.8-32.4,2.3-48.5,2.8c-3.4-0.3-3.4-3.9-3.9-6.4c-1.9-5.2-0.3-10.3,0.7-15.4
	c-0.2-9.5-0.5-19.1-0.7-28.6c-0.1-7.9-0.1-15.7-0.2-23.6c0-2.4,1.4-4.1,3.5-4.2c2.1-0.1,3.8,1.5,3.9,4c0.8,17.7,1.4,35.4,1.8,53.1
	c0,0.3,0.1,0.5,0.1,1h4.4c23.4,0.2,46.8-0.3,70.1-1.1C140.3,184.4,164.4,185.5,188.4,185.2z"/>
<path d="M108.3,161.6c-0.1-6.6,2.4-14.8-1.4-21.1c-1-1.6-1.6-3.4-1.8-5.3c-0.4-3.6,1-7,2-10.4c1.1-3.1,0.9-6.5-0.6-9.5
	c-2.1-4.7-3.9-9.6-5.9-14.4c-3.6-8.4-1.3-15.6,4.5-22c1.6-2.1,4-4.6,6.8-2.6c3.3,2.4,0.4,5.8-1.5,8.1c-2.4,3.3-4.5,7.5-2.6,11.5
	c1.9,4.8,3.8,9.6,5.7,14.5c2.5,5.3,3.9,11.1,1.7,16.8c-0.7,3.1-2.8,6.5-0.9,9.5c5.6,9.5,1.9,20.8,2.4,31.2c0,1.9,0.8,4-0.3,5.8
	c-1.3,2.2-4.7,2.4-6.2,0.3C107.4,170.2,108.5,166.2,108.3,161.6z"/>
<path d="M82.8,136.8c-1.1,5.2-2.4,10.3-3.2,15.6c-0.4,2.2,1.7,3.9,1.2,6.1c-0.2,0.9-0.1,1.8,0.4,2.5c1.8,3.3,3.5,6.9,2.6,10.8
	c-0.8,2.8-1.3,5.9-3.4,8.1c-1.7,2-5.2,1.4-6.3-1c-1.5-3.4,1.9-6.4,1.6-9.8c-0.5-3.7-3.6-6.5-3.4-10.4c-2.7-6.5,0.6-13.3,1.8-19.9
	c1.5-9.5-12-14.7-7.9-26.7c5.1-17.9,16.8-9.9,11.6-4.8c-2.6,1.7-3.4,4.3-3.9,7c-1.1,4.8,3.3,8.4,5.4,12.4c2,3.1,3.5,6.3,3.4,10.1
	L82.8,136.8z"/>
<path d="M149,171.9c-0.2-4,0.9-8.5-2.2-11.7c-1.1-1.1-1.9-2.5-2.4-4c-1.9-8.5,6.3-15.5,1-24.1c-4.6-7.7-7.9-15.6-1.7-23.6
	c2.4-3.8,9.6-2.1,8,2.9c-0.4,1.3-1.8,1.6-2.5,2.7c-1.1,2-1.4,4.6-0.4,6.8c7,11.2,8.9,18.4,3.8,31c-0.4,1.1-0.1,2.4,0.7,3.2
	c2.9,3.3,4.3,7.7,4,12c-0.6,4.8,1,10.1-0.7,14.7c-1.6,2.6-5.8,2.4-7.1-0.4C148.4,178.4,149.3,174.9,149,171.9z"/>
</svg>
