<svg width="221" height="221" viewBox="0 0 221 221" fill="none" xmlns="http://www.w3.org/2000/svg">
<path d="M78.367 127.094C77.6868 142.568 78.0571 158.051 78.0537 173.533C78.0536 174.142 79.3236 174.145 79.3333 173.533C79.5756 158.053 80.1918 142.577 79.757 127.094C79.7383 126.431 78.3963 126.43 78.367 127.094Z" fill="black"/>
<path d="M132.894 136.229C132.526 150.261 132.81 164.261 132.922 178.291C132.927 178.906 134.2 178.908 134.212 178.291C134.472 164.262 134.904 150.265 134.685 136.229C134.672 135.375 132.916 135.373 132.894 136.229Z" fill="black"/>
<path d="M175.191 143.84C174.811 184.411 179.795 184.253 176.309 143.84C176.285 143.307 175.175 143.308 175.191 143.84Z" fill="black"/>
<path d="M74.9488 74.5252C73.3975 73.228 71.49 72.4389 69.451 72.4494C65.3994 72.4705 61.6961 75.4627 61.446 79.6099C61.3134 81.8088 62.1854 83.9841 63.9306 85.3569C64.7004 85.9625 65.7501 85.0147 65.0432 84.2587C63.8075 82.9372 63.3046 80.8987 63.666 79.1355C64.0499 77.2626 65.3456 75.7959 67.1259 75.1022C68.9329 74.3982 70.9063 74.5571 72.5765 75.5348C73.3898 76.0109 74.1078 76.6561 74.6753 77.4097C75.3034 78.2436 75.6536 79.2291 76.1632 80.1295C76.6082 80.9157 77.8402 80.5723 77.8405 79.6788C77.8411 77.7077 76.409 75.7462 74.9488 74.5252Z" fill="black"/>
<path d="M198.363 135.258C197.837 126.198 196.661 117.213 195.842 108.18C195.153 100.584 195.303 92.9147 194.828 85.3173C194.844 85.1778 194.862 85.0385 194.878 84.8991C195.067 83.2499 195.175 81.3527 194.675 79.7769C194.704 79.4611 194.623 79.1358 194.357 78.8679C194.353 78.8633 194.347 78.8593 194.343 78.8548C194.439 78.3803 194.514 77.8999 194.577 77.417C194.605 77.1978 194.638 76.9816 194.657 76.761C194.876 74.4667 194.684 72.1241 193.872 69.9606C192.853 67.2435 191.137 64.9716 188.766 63.2922C186.638 61.7844 183.879 60.9591 181.27 61.2251C180.417 61.3121 179.496 61.4718 178.649 61.7742C179.028 59.3913 178.461 56.8357 177.092 54.8224C174.913 51.6161 171.3 49.8698 167.519 49.4521C163.64 49.0237 159.492 50.0542 156.004 51.7325C154.199 52.6005 152.196 54.0009 150.964 55.7924C148.035 51.4583 142.57 50.126 138.059 52.2833C135.896 49.7127 132.516 48.2707 129.111 48.8664C127.837 49.0893 126.555 49.6783 125.449 50.5092C125.291 49.1361 124.942 47.7981 124.41 46.5198C123.252 43.7352 121.205 41.327 118.548 39.8704C113.15 36.9114 105.952 37.8496 101.914 42.6341C100.836 43.912 99.9524 45.3666 99.4327 46.9613C99.3708 47.1516 99.3094 47.3541 99.2498 47.5626C99.1729 47.7234 99.0856 47.8796 99.0185 48.0445C97.7429 45.009 95.4819 42.137 92.974 40.1398C89.9158 37.704 86.1281 36.5977 82.2422 37.1433C78.4407 37.6769 75.052 39.7344 72.8887 42.9141C71.998 44.2233 71.3182 45.7803 70.9402 47.403C67.9835 46.341 64.6077 46.517 61.881 48.1916C59.5072 49.6493 57.843 52.0157 57.1692 54.6689C56.9867 55.2123 56.8706 55.7828 56.8343 56.3754C54.8355 55.793 52.7129 55.6355 50.6553 56.0397C49.2154 56.3226 47.8436 56.897 46.5836 57.6601C46.1558 57.8574 45.7322 58.0722 45.3183 58.3223C42.7976 59.8456 40.7786 62.3561 40.2115 65.2907C39.9193 66.8027 39.9452 68.6631 40.5251 70.2327C37.582 69.8613 34.5245 70.5015 31.9917 72.0484C31.8189 72.1461 31.6532 72.2529 31.4868 72.3603C31.3767 72.435 31.2622 72.502 31.1544 72.5803C31.0901 72.6255 31.0205 72.6639 30.9574 72.7106C30.6194 72.961 30.3006 73.2438 29.9927 73.5399C29.9711 73.5601 29.9459 73.5758 29.9245 73.5963C29.865 73.6529 29.8156 73.7183 29.7577 73.7764C29.6102 73.9278 29.466 74.0804 29.328 74.2407C28.9849 74.632 28.6594 75.0377 28.3617 75.4643C28.0791 75.5566 27.8096 75.7477 27.5955 76.0754C26.1406 78.3027 25.3239 80.8784 25.2097 83.5361C25.1618 84.6514 25.2513 85.8944 25.5287 87.0858C22.1362 102.339 22.0146 119.168 22.5064 134.599C22.7784 143.138 23.3604 151.666 24.2519 160.163C25.0425 167.697 25.0522 176.865 28.421 183.696C28.922 184.713 29.6649 185.207 30.4615 185.339C30.4976 185.383 30.5242 185.428 30.5638 185.471C38.5564 194.152 51.2926 198.767 62.7976 201.456C63.1837 201.568 63.5558 201.652 63.9151 201.712C64.4754 201.838 65.0363 201.964 65.589 202.081C79.5483 205.04 94.0962 205.802 108.33 205.838C135.097 205.905 165.819 201.787 188.118 185.508C188.881 185.187 189.651 184.874 190.412 184.553C190.442 184.274 190.463 183.989 190.492 183.709C191.187 183.158 191.566 182.499 191.714 181.814C196.024 176.329 196.952 167.228 197.811 160.759C198.934 152.298 198.856 143.764 198.363 135.258ZM51.4192 189.78C47.9028 188.522 44.5765 186.901 41.2674 185.238C42.292 103.95 34.5908 95.1474 40.1624 184.683C38.9128 184.053 37.6614 183.423 36.4021 182.807C34.5706 154.444 32.6671 126.129 30.4184 97.801C30.4299 95.5303 30.4257 93.2608 30.3921 90.9935C34.7042 95.1449 39.813 98.1723 44.9451 101.122C52.0959 195.26 59.9761 198.666 46.2613 101.848C49.5691 103.626 53.0151 105.202 56.5174 106.283C55.2376 134.921 58.3002 164.042 61.0659 192.679C57.8103 191.858 54.5873 190.915 51.4192 189.78ZM108.28 197.618C106.626 197.616 104.968 197.603 103.309 197.578C99.8156 135.209 94.6079 135.14 101.281 197.533C91.9547 197.333 82.5923 196.697 73.3959 195.209C73.8473 124.049 68.4985 123.892 71.1204 194.818C70.6142 194.727 70.105 194.652 69.6 194.556C68.4414 194.337 67.2884 194.093 66.1356 193.849C63.0675 164.816 62.2276 135.449 60.1537 106.475C70.8038 107.518 81.0562 107.694 91.6838 107.588C80.5849 212.623 88.6173 211.928 92.8114 107.573C97.5283 107.488 102.243 107.314 106.955 107.041C105.858 137.167 108.057 167.446 108.547 197.615C108.458 197.615 108.369 197.618 108.28 197.618ZM150.793 112.44C148.665 139.271 147.145 166.489 148.655 193.367C146.467 193.889 144.27 194.358 142.063 194.772C144.928 127.849 139.26 128.647 139.96 195.168C134.346 196.133 128.68 196.761 122.994 197.142C121.704 176.207 121.852 155.234 122.464 134.289C119.587 131.535 120.456 145.741 119.988 147.529C119.323 164.094 119.484 180.75 121.175 197.252C118.649 197.397 116.121 197.511 113.591 197.565C112.54 167.258 113.265 136.732 110.458 106.572C112.584 105.807 115.08 106.649 117.358 106.487C116.554 127.747 121.255 126.206 118.889 106.526C125.77 106.658 132.667 106.569 139.552 106.532C136.313 143.927 141.753 141.237 141.153 106.523C144.673 106.702 148.177 106.293 151.543 106.021C150.887 108.041 150.981 110.623 150.793 112.44ZM109.34 101.138C109.34 101.138 64.9439 103.537 58.9445 99.9377C54.9391 97.5345 41.481 92.0702 32.9649 88.6982C32.9621 88.5675 32.9425 88.4383 32.8853 88.3226C32.7398 88.0285 32.567 87.7513 32.3869 87.4785C32.1564 86.5382 31.7423 85.6537 31.6155 84.6718C31.4736 83.5738 31.509 82.4381 31.7217 81.3521C31.9532 80.17 32.3651 79.0407 32.9301 77.9936C33.8595 77.1243 34.8936 76.3727 36.0632 75.726C36.5583 75.4523 37.0728 75.2387 37.5983 75.0698C37.8802 75.1135 38.1804 75.0707 38.4723 74.9364C38.6074 74.8742 38.7456 74.8202 38.8825 74.7626C42.5853 74.1429 46.6603 75.7154 49.338 78.2008C50.29 79.0843 51.5555 77.7823 50.7537 76.8034C50.6739 76.7059 50.5792 76.6282 50.4968 76.5339C50.2169 75.5344 49.7566 74.6799 49.0347 73.8257C48.1156 72.7382 46.8937 71.9633 45.5805 71.4388C45.3705 71.3549 45.1531 71.2962 44.9378 71.2301C44.3326 67.4812 45.3946 63.3631 48.5744 61.047C49.8387 60.1261 51.3277 59.6002 52.8648 59.4196C55.9107 59.5789 58.919 60.9418 61.3896 62.8104C61.9795 63.2564 62.9272 62.9527 63.3272 62.4169C63.7985 61.7855 63.7115 61.0348 63.2176 60.4425C62.5008 59.5827 61.6457 58.8708 60.734 58.2417C60.7085 57.7144 60.713 57.1924 60.7717 56.6797C60.859 56.4905 60.9238 56.2869 60.9459 56.0664C61.063 54.8972 61.7153 53.8507 62.6074 53.0226C63.1183 52.8012 63.6698 52.6514 64.2441 52.6001C66.3452 52.4125 68.2868 53.1749 69.8778 54.4394C69.8669 56.2781 70.206 58.4751 71.4488 59.8258C71.9637 60.3855 72.7267 59.8971 72.7995 59.2667C72.8743 58.6201 72.8606 57.9656 72.8339 57.3088C73.3674 56.4937 73.3703 55.3017 73.229 54.3734C73.1934 54.1394 73.1434 53.9068 73.083 53.6763C73.159 53.5328 73.2141 53.3688 73.2111 53.1596C73.2056 52.7775 73.2069 52.3991 73.2158 52.024C73.4584 51.086 73.7873 50.1724 74.2449 49.3122C75.8971 46.2065 78.75 44.0957 82.1721 43.3157C89.0369 41.751 95.9479 46.7068 96.679 53.7289C96.7434 54.3475 97.1354 54.8147 97.6186 55.0511C95.4411 55.9979 93.6397 57.7819 92.9653 60.0673C89.4432 59.8099 85.8919 61.4969 83.968 64.5528C82.6546 66.6391 82.2525 69.1898 82.8675 71.5689C83.094 72.4449 84.549 72.2969 84.474 71.3518C84.1184 66.8636 87.1654 62.5151 91.8807 62.4042C94.0816 62.3524 96.1397 63.214 97.5972 64.8696C98.284 65.6499 98.8158 66.5854 99.131 67.576C99.4798 68.6716 99.4111 69.7728 99.6363 70.8833C99.876 72.0654 101.424 71.8113 101.77 70.8742C102.483 68.9371 101.474 66.2458 100.44 64.6014C99.2659 62.7339 97.5379 61.3325 95.4608 60.5899C95.2958 60.531 95.1284 60.4855 94.9616 60.4363C96.4301 58.104 99.171 56.3795 101.965 56.9651C103.503 57.2873 104.868 58.2349 105.783 59.5065C106.278 60.1947 106.644 60.9666 106.849 61.7884C107.062 62.6385 106.9 63.6657 107.4 64.4103C107.775 64.9684 108.565 65.161 109.077 64.6406C109.977 63.7256 109.73 62.2248 109.442 61.0916C109.162 59.9909 108.658 58.9268 107.987 58.0115C106.646 56.1814 104.691 54.7752 102.417 54.4038C101.457 54.2469 100.475 54.2753 99.5206 54.4579C100.313 53.1072 101.152 51.6574 101.776 50.1543C102.2 49.7505 102.629 49.3526 103.072 48.9673C104.747 47.5073 106.535 46.1411 108.604 45.2803C110.449 44.5123 112.548 44.1436 114.523 44.5619C116.564 44.9942 117.925 46.1317 119.378 47.5494C119.505 47.673 119.637 47.7573 119.771 47.8209C119.994 48.1239 120.206 48.4345 120.398 48.7563C121.097 49.926 121.614 51.2084 121.928 52.5343C122.265 53.9547 122.06 55.335 122.211 56.759C122.233 56.9653 122.319 57.143 122.428 57.3042C122.464 57.4372 122.522 57.5502 122.597 57.6487C122.535 57.9843 122.501 58.3228 122.531 58.661C122.69 60.4601 123.587 62.1509 125.22 63.0167C125.812 63.3302 126.499 62.5369 125.967 62.0497C124.846 61.0247 125.064 59.6794 125.418 58.3661C125.575 57.7847 125.922 57.2014 126.384 56.7149C126.931 56.1384 127.547 55.7337 128.286 55.3905C128.462 55.3091 128.644 55.2338 128.832 55.1642C129.576 54.9416 130.354 54.8339 131.127 54.9376C133.165 55.2113 134.72 56.6631 135.471 58.4809C134.465 60.8737 135.124 63.831 137.493 65.1795C138.539 65.7746 139.815 64.563 139.179 63.5C138.689 62.6794 138.502 61.8279 138.521 60.8656C138.524 60.7095 138.542 60.553 138.558 60.3966C138.744 60.2167 138.904 60.0067 138.982 59.7397C139.394 58.3391 140.522 57.1752 141.885 56.6508C141.999 56.6173 142.11 56.5792 142.225 56.549C142.404 56.5021 142.577 56.4609 142.746 56.4181C143.153 56.3511 143.568 56.324 143.987 56.3853C145.036 56.5385 145.982 57.1118 146.687 57.8886C147.588 58.8815 147.617 59.9063 148.071 61.0767C148.235 61.4977 148.561 61.792 148.932 61.9591C147.754 62.1277 146.619 62.6613 145.74 63.5597C144.763 64.5589 144.073 65.9288 144.188 67.35C144.25 68.1189 145.381 68.3454 145.585 67.524C145.725 66.961 145.962 66.4068 146.312 65.9405C146.595 65.5631 147.003 65.215 147.4 64.977C147.535 64.8964 147.673 64.822 147.815 64.7542C147.842 64.7412 148.054 64.6521 148.105 64.6283C148.376 64.5264 148.654 64.4492 148.939 64.3966C148.992 64.3904 149.103 64.3751 149.13 64.3734C149.285 64.3636 149.44 64.3622 149.595 64.3697C149.645 64.3721 149.694 64.3771 149.744 64.3813C149.753 64.3839 149.782 64.3893 149.849 64.4C149.998 64.44 150.148 64.4687 150.295 64.5166C150.338 64.5303 150.379 64.5463 150.421 64.5614C150.435 64.5685 150.441 64.5724 150.488 64.5938C150.617 64.6668 150.752 64.7288 150.879 64.8057C150.897 64.816 150.998 64.8822 151.071 64.929C151.104 64.9604 151.282 65.1 151.305 65.1214C151.415 65.2225 151.52 65.3289 151.62 65.4399C151.649 65.4721 151.763 65.6263 151.8 65.6706C151.949 65.8991 152.082 66.1309 152.211 66.3724C152.229 66.4146 152.231 66.4165 152.239 66.4327C152.255 66.4761 152.272 66.5194 152.287 66.5633C152.323 66.6695 152.356 66.7772 152.385 66.8856C152.415 66.996 152.436 67.1075 152.458 67.2192C152.437 67.1332 152.49 67.4547 152.493 67.5175C152.5 67.6659 152.5 67.8146 152.493 67.9629C152.489 68.0372 152.483 68.1113 152.475 68.1853C152.509 67.9177 152.501 67.9859 152.452 68.3761C152.44 68.4472 152.427 68.5179 152.411 68.5882C152.367 68.7448 152.355 68.9022 152.373 69.0603C152.426 69.4549 152.436 69.5258 152.403 69.2728C152.469 69.7902 152.679 70.2288 153.199 70.4326C153.679 70.6209 154.187 70.522 154.571 70.1712C155.619 69.2132 155.503 67.3983 155.112 66.1529C154.715 64.8902 153.961 63.7786 152.912 62.9709C152.456 62.6194 151.954 62.3754 151.437 62.196C154.771 57.1974 160.532 53.1472 166.744 54.9477C169.386 55.7134 171.685 57.59 172.531 60.2638C173.109 62.0942 173.091 63.8946 172.549 65.5916C171.639 66.0267 170.769 66.5653 169.969 67.2333C167.269 69.4867 165.7 72.7593 165.613 76.263C165.579 77.6702 167.787 77.9765 168.086 76.5709C168.681 73.7781 170.402 71.2895 172.715 69.7757C172.83 69.735 172.942 69.6847 173.043 69.6062C173.084 69.5745 173.117 69.5372 173.157 69.505C174.974 68.4468 177.114 67.9749 179.351 68.4097C181.869 68.8992 184.161 70.1901 185.541 72.4061C186.249 73.5429 186.737 74.8037 186.933 76.1326C187.134 77.4919 186.72 78.7786 186.823 80.1043C186.827 80.1538 186.84 80.1983 186.847 80.2462C186.689 80.5673 186.528 80.8873 186.339 81.1968C186.116 81.5594 185.876 81.909 185.628 82.2543C185.606 82.2847 185.58 82.321 185.565 82.3408C185.504 82.4196 185.442 82.4977 185.379 82.575C185.245 82.7395 185.107 82.9013 184.966 83.0601C184.495 83.591 183.98 84.0815 183.44 84.542L176.533 87.9389L151.543 100.696L109.34 101.138ZM165.297 121.475C165.331 120.628 163.64 120.653 163.535 121.475C161.185 143.764 161.071 166.401 163.328 188.713C160.213 189.963 157.014 191.074 153.707 192.036C152.628 162.941 154.815 133.824 156.045 104.848C156.16 104.666 156.242 104.47 156.278 104.266C164.675 99.5957 172.787 94.4102 181.362 90.0547C175.985 186.548 183.297 182.313 182.757 89.3036C184.44 88.3794 186.156 87.5161 187.874 86.6588C186.869 92.6325 186.885 98.8989 186.847 104.824C186.826 108.23 186.87 111.634 186.932 115.038C186.17 129.242 185.875 143.47 186.102 157.694C186.107 158.033 186.11 158.375 186.114 158.715C185.672 161.97 185.094 165.205 184.298 168.397C183.349 172.2 181.673 175.696 181.838 179.617C176.191 182.809 170.566 185.725 164.693 188.17C163.717 165.939 163.868 143.684 165.297 121.475Z" fill="black"/>
<path d="M131.322 75.2266C127.894 73.9198 124.079 76.0566 122.506 79.1477C121.526 81.0746 121.278 83.221 121.478 85.3552C121.584 86.4751 123.262 86.509 123.256 85.3444C123.237 81.917 124.662 77.5281 128.631 77.0953C130.289 76.9146 131.717 77.6792 132.551 79.1089C133.467 80.6817 133.575 82.5006 134.012 84.2278C134.31 85.4056 136.158 85.1731 136.128 83.9419C136.047 80.5974 134.707 76.5169 131.322 75.2266Z" fill="black"/>
<path d="M88.1797 89.3092C86.1389 87.4045 82.4662 87.3512 80.7741 89.7375C80.6291 89.9421 80.6306 90.2043 80.711 90.4399C80.1212 91.2378 79.7769 92.2258 79.8657 93.22C79.984 94.5445 80.6509 95.7928 81.6757 96.6419C82.7784 97.5554 84.1476 98.0262 85.5779 97.7965C86.8102 97.5985 87.844 96.8138 88.562 95.8227C89.9619 93.8908 89.9883 90.9973 88.1797 89.3092ZM87.5265 93.0029C87.5266 93.0024 87.5191 93.0846 87.5156 93.1322C87.5063 93.1849 87.4869 93.3088 87.4808 93.3386C87.4579 93.4517 87.4307 93.5642 87.3992 93.6753C87.3715 93.7728 87.3391 93.8683 87.3065 93.9642C87.3029 93.9746 87.2928 94.0012 87.2827 94.0273C87.2637 94.0673 87.2247 94.1542 87.2246 94.1543C87.1355 94.3355 87.0333 94.5108 86.9204 94.6781C86.8953 94.7151 86.8691 94.7513 86.8433 94.7877C86.7641 94.8825 86.6834 94.9757 86.5968 95.064C86.5269 95.1352 86.4546 95.2036 86.3796 95.2693C86.3502 95.2951 86.2813 95.3471 86.2487 95.3727C86.0719 95.4913 85.8916 95.5972 85.6997 95.6909C85.6997 95.6909 85.6998 95.6908 85.6997 95.6909C85.6456 95.7094 85.5925 95.7288 85.5378 95.7458C85.441 95.7757 85.343 95.7987 85.2445 95.8218C85.214 95.8291 85.1826 95.8341 85.1514 95.8396C85.1267 95.8425 85.0813 95.8481 85.0687 95.8486C84.9231 95.8548 84.78 95.8598 84.6341 95.8513C84.6047 95.8496 84.5754 95.8468 84.5461 95.8444C84.5219 95.8408 84.4772 95.8345 84.4635 95.8313C84.3539 95.8056 84.2441 95.7848 84.1357 95.7541C84.0739 95.7366 84.0126 95.7176 83.9516 95.6969C83.938 95.6923 83.8794 95.6705 83.8438 95.6576C83.8223 95.6482 83.8003 95.6387 83.7973 95.6372C83.7246 95.601 83.6519 95.5663 83.5805 95.5277C83.4805 95.4736 83.3826 95.4158 83.2873 95.3538C83.2595 95.3358 83.1059 95.2189 83.076 95.2001C82.8877 95.0395 82.708 94.8705 82.5468 94.6824C82.5149 94.6453 82.4839 94.6074 82.4533 94.5692C82.4492 94.5642 82.4513 94.567 82.4481 94.563C82.4438 94.5561 82.4462 94.5585 82.4353 94.5424C82.3718 94.4481 82.3089 94.3539 82.2515 94.2556C82.1863 94.1439 82.1287 94.0288 82.0721 93.9125C82.0712 93.9106 82.06 93.8841 82.0499 93.8605C82.0373 93.822 81.9993 93.7161 81.9949 93.7021C81.9608 93.5955 81.9319 93.4875 81.9078 93.3782C81.9047 93.3642 81.8898 93.2899 81.8824 93.2571C81.8791 93.2339 81.8758 93.2101 81.8756 93.2077C81.8651 93.0799 81.8577 92.9523 81.86 92.824C81.861 92.7621 81.8651 92.7005 81.8687 92.6386C81.8702 92.6242 81.8703 92.614 81.8733 92.5981C81.895 92.483 81.9192 92.3694 81.9519 92.2569C81.9598 92.2298 81.9991 92.1183 82.0155 92.0682C82.0377 92.0235 82.0843 91.9235 82.1006 91.8931C82.1589 91.7842 82.2255 91.682 82.2926 91.5785C82.2981 91.57 82.3045 91.5621 82.3103 91.5537C82.3232 91.5376 82.3641 91.4845 82.3829 91.4641C82.4674 91.3733 82.5497 91.2824 82.6402 91.1973C82.7206 91.1217 82.8048 91.0505 82.8907 90.9811C82.7268 91.1136 83.0177 90.8987 83.0626 90.8705C83.2648 90.7435 83.4768 90.6441 83.693 90.5441C83.733 90.5256 83.8782 90.4602 83.8949 90.4495C83.9973 90.4103 84.1007 90.3737 84.2057 90.3425C84.8261 90.1581 85.3906 90.1395 85.949 90.3688C85.9882 90.3879 86.0265 90.4096 86.0656 90.4292C86.2221 90.5035 86.3787 90.5864 86.536 90.7032C86.5562 90.7162 86.565 90.7211 86.575 90.7269C86.5806 90.7333 86.5776 90.7327 86.5978 90.751C86.7497 90.8884 86.8857 91.0337 87.0214 91.185C87.0288 91.2017 87.1366 91.3394 87.1585 91.3756C87.2117 91.4622 87.2571 91.5522 87.3051 91.6417C87.3204 91.6701 87.3331 91.6997 87.3466 91.7291C87.3494 91.7362 87.353 91.7445 87.3548 91.7498C87.3936 91.8725 87.4343 91.993 87.4647 92.1183C87.4828 92.1936 87.4966 92.2698 87.5101 92.346C87.5101 92.3633 87.5248 92.4837 87.5275 92.5312C87.5331 92.6311 87.5351 92.7313 87.5332 92.8313C87.5323 92.8885 87.53 92.9458 87.5265 93.0029Z" fill="black"/>
<path d="M63.8873 96.7181C63.0859 94.825 61.1373 93.7486 59.1155 94.1536C57.195 94.5382 55.4972 96.2949 55.5444 98.314C55.5691 99.3691 56.0295 100.321 56.7205 101.054C56.6128 101.333 56.6457 101.655 56.9213 101.901C57.7014 102.595 58.63 102.95 59.6757 102.963C60.6191 102.974 61.6299 102.706 62.4068 102.162C63.2605 101.564 63.9044 100.73 64.161 99.7073C64.4138 98.7001 64.2884 97.6655 63.8873 96.7181ZM62.1546 99.228C62.135 99.306 62.1107 99.3821 62.0873 99.459C62.0809 99.4802 62.0729 99.5008 62.0653 99.5216C62.0588 99.5372 62.0577 99.5432 62.0404 99.5767C61.9659 99.721 61.8695 99.8527 61.7937 99.9947C61.7818 100.009 61.7702 100.024 61.7575 100.038C61.6935 100.108 61.6301 100.178 61.5616 100.244C61.4979 100.305 61.427 100.359 61.3628 100.419C61.3184 100.449 61.2746 100.48 61.2292 100.509C61.0675 100.612 60.8905 100.683 60.7267 100.78C60.726 100.78 60.7273 100.779 60.7267 100.78C60.6923 100.792 60.657 100.806 60.6223 100.818C60.5316 100.849 60.4398 100.877 60.3471 100.902C60.2642 100.924 60.1804 100.943 60.0962 100.959C59.7537 100.982 59.4883 100.954 59.1444 100.844C59.0343 100.809 59.1104 100.839 59.0052 100.792C58.9237 100.755 58.844 100.713 58.7659 100.67C58.6874 100.626 58.6104 100.579 58.5355 100.529C58.4979 100.504 58.4606 100.478 58.4241 100.452C58.4101 100.442 58.4113 100.443 58.4048 100.438C58.3996 100.434 58.3987 100.432 58.3805 100.417C57.7944 99.9287 57.4518 99.3989 57.3383 98.6599C57.3229 98.5595 57.338 98.6424 57.3396 98.6612C57.3358 98.6166 57.3328 98.5721 57.3307 98.5275C57.3265 98.4377 57.3265 98.3479 57.3308 98.2581C57.3325 98.2212 57.3351 98.1842 57.3383 98.1473C57.3397 98.1407 57.338 98.1511 57.3415 98.133C57.3594 98.0377 57.3795 97.9433 57.4058 97.8499C57.4283 97.7705 57.456 97.6928 57.4819 97.6146C57.4904 97.5889 57.4899 97.5864 57.492 97.5773C57.4972 97.5707 57.5008 97.5672 57.516 97.5404C57.6049 97.3837 57.6905 97.2303 57.7928 97.0822C57.8136 97.0558 57.8461 97.0145 57.8668 96.9911C57.9216 96.9294 57.9786 96.8695 58.0375 96.8117C58.0966 96.7536 58.1578 96.6975 58.2207 96.6436C58.2511 96.6175 58.2823 96.5925 58.3132 96.5672C58.318 96.5642 58.3145 96.567 58.3214 96.5625C58.4726 96.4628 58.6232 96.3663 58.7849 96.2841C58.8429 96.2546 58.9023 96.2277 58.9619 96.2013C58.976 96.1984 59.097 96.153 59.1354 96.1408C59.293 96.091 59.4531 96.054 59.6154 96.0237C59.6571 96.0196 59.6986 96.0154 59.7404 96.0128C59.8361 96.0067 59.9322 96.005 60.028 96.0073C60.051 96.0079 60.1394 96.0133 60.1853 96.0152C60.2269 96.0227 60.3225 96.0374 60.3469 96.0426C60.4279 96.0598 60.508 96.0804 60.5873 96.1044C60.6431 96.1214 60.7435 96.1671 60.7528 96.1688C60.8856 96.2381 61.0171 96.3056 61.1444 96.3871C61.1622 96.3985 61.1793 96.4111 61.1964 96.4235C61.2589 96.4859 61.331 96.5402 61.394 96.6024C61.4511 96.6586 61.5061 96.7169 61.559 96.777C61.5834 96.8046 61.6106 96.8388 61.629 96.8619C61.7266 97.0021 61.8198 97.1445 61.8992 97.2962C61.9368 97.368 61.9674 97.4435 62.0052 97.515C61.924 97.3612 61.9952 97.4881 62.0249 97.5728C62.0832 97.7387 62.1297 97.9084 62.1656 98.0804C62.18 98.1496 62.1902 98.2199 62.2039 98.2892C62.2074 98.3319 62.2123 98.3747 62.2151 98.4175C62.2265 98.592 62.2021 98.7675 62.2117 98.9403C62.2118 98.9434 62.212 98.9419 62.2121 98.9446C62.2096 98.9606 62.2076 98.9768 62.2045 98.9928C62.1894 99.0716 62.1741 99.1501 62.1546 99.228Z" fill="black"/>
<path d="M151.266 91.5516C151.151 91.3363 151.008 91.1193 150.849 90.9084C150.837 90.7423 150.772 90.5769 150.658 90.4385C149.265 88.7569 146.722 88.3743 144.813 89.3647C142.811 90.403 141.985 92.8168 142.497 94.9385C143.018 97.0993 144.956 98.5776 147.178 98.5116C149.264 98.4495 151.329 97.104 151.777 94.9799C152.023 93.8161 151.827 92.5978 151.266 91.5516ZM149.688 94.2144C149.691 94.1109 149.665 94.3522 149.657 94.3897C149.636 94.4878 149.615 94.676 149.565 94.805C149.562 94.7953 149.548 94.8021 149.521 94.8512C149.502 94.8854 149.487 94.9216 149.469 94.9562C149.426 95.0375 149.38 95.117 149.33 95.1942C149.324 95.2039 149.306 95.2341 149.289 95.2623C149.224 95.3311 149.165 95.4071 149.099 95.475C149.035 95.5396 148.97 95.6016 148.902 95.661C148.873 95.686 148.84 95.7088 148.813 95.7355C148.721 95.8257 148.89 95.676 148.888 95.6804C148.809 95.8081 148.521 95.9181 148.391 95.9844C148.346 96.0077 148.292 96.0381 148.237 96.064C148.224 96.0676 148.218 96.0689 148.188 96.0785C148.151 96.0905 148.114 96.1043 148.077 96.1166C147.889 96.1781 147.7 96.2194 147.507 96.26C147.486 96.2643 147.493 96.2643 147.484 96.2667C147.469 96.2673 147.47 96.2662 147.438 96.2685C147.347 96.2752 147.256 96.2824 147.164 96.2846C147.029 96.288 146.855 96.2977 146.709 96.2728C146.697 96.2698 146.696 96.269 146.672 96.264C146.634 96.2559 146.595 96.2499 146.557 96.2422C146.468 96.2239 146.38 96.2028 146.292 96.1781C146.205 96.1535 146.121 96.1164 146.033 96.0942C146.018 96.0903 146.021 96.0917 146.015 96.0905C145.992 96.0764 145.966 96.0606 145.954 96.0545C145.802 95.9785 145.66 95.8884 145.519 95.7942C145.515 95.7915 145.516 95.7926 145.513 95.7902C145.497 95.7744 145.48 95.7575 145.474 95.752C145.396 95.6773 145.317 95.6041 145.243 95.5247C145.211 95.4899 145.157 95.4378 145.113 95.3855C145.106 95.3738 145.105 95.3712 145.09 95.348C145.069 95.314 145.045 95.281 145.024 95.2471C144.923 95.089 144.843 94.9225 144.762 94.7547C144.752 94.7317 144.742 94.7041 144.731 94.6743C144.701 94.5846 144.674 94.4938 144.649 94.4022C144.625 94.3104 144.604 94.2179 144.586 94.1247C144.578 94.088 144.572 94.0513 144.566 94.0145C144.566 94.0087 144.566 94.0086 144.565 94.0016C144.553 93.8107 144.542 93.6223 144.549 93.4308C144.55 93.4087 144.554 93.3208 144.557 93.2606C144.558 93.2472 144.559 93.234 144.56 93.2272C144.572 93.1603 144.583 93.0935 144.596 93.027C144.632 92.8548 144.678 92.6849 144.736 92.5189C144.743 92.4985 144.753 92.4765 144.76 92.4534C144.76 92.4541 144.761 92.4527 144.76 92.4534C144.82 92.3683 144.857 92.2565 144.909 92.1651C144.956 92.0832 145.01 92.0055 145.06 91.9254C145.076 91.9029 145.095 91.8777 145.105 91.8662C145.241 91.7155 145.388 91.5858 145.536 91.4491C145.58 91.42 145.623 91.3885 145.667 91.3609C145.76 91.3018 145.857 91.2486 145.954 91.1967C146.04 91.1512 146.126 91.108 146.212 91.0659C146.226 91.0594 146.262 91.0445 146.291 91.0327C146.315 91.0241 146.339 91.0156 146.347 91.0131C146.56 90.9444 146.772 90.8875 146.992 90.8457C147.005 90.8431 147.049 90.8373 147.081 90.833C147.11 90.8306 147.142 90.8278 147.15 90.8272C147.262 90.8182 147.373 90.8134 147.485 90.8129C147.507 90.8128 147.529 90.816 147.551 90.8163C147.592 90.9027 147.647 90.9813 147.723 91.0434C147.91 91.1973 148.095 91.3414 148.298 91.4735C148.374 91.5231 148.446 91.5783 148.52 91.631C148.552 91.6535 148.583 91.6756 148.616 91.6969C148.623 91.7018 148.619 91.6988 148.625 91.7026C148.742 91.8085 148.862 91.9087 148.97 92.0253C149.022 92.0812 149.069 92.1423 149.119 92.1992C149.147 92.2411 149.177 92.2823 149.204 92.3245C149.303 92.4789 149.387 92.6397 149.467 92.8047C149.475 92.8213 149.482 92.8382 149.489 92.8551C149.492 92.8637 149.492 92.8625 149.495 92.8739C149.527 92.9736 149.562 93.0718 149.59 93.1731C149.611 93.2486 149.63 93.3249 149.646 93.4016C149.651 93.4239 149.67 93.544 149.679 93.5908C149.684 93.6477 149.69 93.7243 149.691 93.7445C149.697 93.8482 149.698 93.9522 149.695 94.0561C149.694 94.0769 149.691 94.1571 149.688 94.2144Z" fill="black"/>
<path d="M110.769 105.243C110.839 105.218 110.915 105.168 110.769 105.243V105.243Z" fill="black"/>
<path d="M109.671 103.001C109.667 103.003 109.662 103.005 109.658 103.008C109.636 103.026 109.615 103.045 109.595 103.063C109.575 103.088 109.593 103.083 109.671 103.001Z" fill="black"/>
<path d="M110.347 105.338C110.377 105.336 110.406 105.335 110.435 105.333C110.439 105.332 110.443 105.33 110.448 105.329C110.327 105.328 110.314 105.336 110.347 105.338Z" fill="black"/>
<path d="M111.643 103.936C111.633 103.923 111.633 103.951 111.666 104.035C111.666 104.031 111.666 104.028 111.665 104.024C111.656 103.996 111.649 103.966 111.643 103.936Z" fill="black"/>
<path d="M113.461 103.289C113.028 101.997 111.863 101.103 110.521 100.953C109.313 100.817 108.115 101.56 107.624 102.659C107.46 103.026 107.356 103.359 107.318 103.76C107.289 104.069 107.32 104.379 107.376 104.684C107.484 105.282 107.808 105.88 108.273 106.274C108.312 106.307 108.36 106.327 108.403 106.353C108.442 106.492 108.503 106.624 108.615 106.725C108.9 106.983 109.213 107.166 109.591 107.245C109.887 107.306 110.197 107.33 110.497 107.296C111.105 107.228 111.7 107.038 112.198 106.673C112.759 106.261 113.168 105.762 113.422 105.112C113.644 104.545 113.654 103.865 113.461 103.289ZM111.669 104.177C111.667 104.228 111.657 104.281 111.659 104.332C111.657 104.29 111.658 104.275 111.657 104.252C111.656 104.276 111.653 104.303 111.647 104.326C111.637 104.37 111.624 104.413 111.611 104.456C111.62 104.438 111.624 104.431 111.637 104.407C111.627 104.426 111.618 104.445 111.608 104.464C111.608 104.465 111.608 104.466 111.608 104.466C111.593 104.513 111.565 104.558 111.559 104.56C111.549 104.581 111.539 104.603 111.527 104.623C111.507 104.658 111.485 104.692 111.462 104.726C111.474 104.714 111.477 104.71 111.492 104.695C111.481 104.706 111.471 104.719 111.46 104.73C111.456 104.735 111.453 104.741 111.45 104.746C111.415 104.797 111.37 104.832 111.385 104.809C111.344 104.855 111.304 104.902 111.258 104.944C111.226 104.973 111.193 105 111.161 105.028C111.154 105.033 111.158 105.03 111.149 105.035C111.054 105.1 110.953 105.157 110.85 105.209C110.806 105.23 110.758 105.248 110.715 105.271C110.742 105.256 110.75 105.253 110.769 105.243C110.766 105.244 110.764 105.245 110.762 105.246C110.659 105.281 110.553 105.308 110.447 105.329C110.462 105.33 110.466 105.329 110.485 105.329C110.468 105.329 110.451 105.332 110.435 105.333C110.433 105.333 110.431 105.334 110.429 105.334C110.396 105.34 110.367 105.34 110.347 105.338C110.328 105.34 110.309 105.342 110.291 105.342C110.242 105.343 110.194 105.343 110.145 105.341C110.132 105.34 110.138 105.341 110.128 105.341C109.916 105.303 109.704 105.251 109.497 105.196C109.44 105.181 109.379 105.183 109.319 105.181C109.319 105.18 109.319 105.181 109.319 105.181C109.3 105.155 109.282 105.127 109.27 105.109C109.224 105.035 109.195 104.927 109.141 104.862C109.242 104.983 109.185 104.977 109.153 104.88C109.139 104.836 109.125 104.792 109.114 104.747C109.102 104.702 109.092 104.656 109.083 104.611C109.081 104.6 109.081 104.604 109.08 104.596C109.08 104.594 109.08 104.596 109.08 104.594C109.075 104.501 109.069 104.408 109.071 104.314C109.072 104.282 109.075 104.25 109.077 104.217C109.124 104.035 109.15 103.846 109.207 103.664C109.217 103.633 109.228 103.602 109.239 103.572C109.279 103.492 109.317 103.413 109.364 103.337C109.384 103.304 109.405 103.273 109.426 103.241C109.479 103.181 109.532 103.121 109.591 103.066C109.592 103.065 109.594 103.063 109.595 103.062C109.606 103.048 109.624 103.029 109.652 103.011C109.654 103.01 109.656 103.009 109.657 103.008C109.67 102.997 109.685 102.987 109.696 102.974C109.684 102.988 109.68 102.99 109.67 103.001C109.736 102.958 109.805 102.921 109.875 102.885C109.919 102.872 109.962 102.857 110.006 102.846C110.036 102.838 110.071 102.832 110.106 102.825C110.129 102.823 110.152 102.822 110.175 102.821C110.226 102.819 110.277 102.819 110.328 102.821C110.335 102.822 110.34 102.823 110.347 102.824C110.327 102.819 110.318 102.817 110.29 102.81C110.372 102.832 110.459 102.838 110.542 102.86C110.592 102.873 110.642 102.887 110.691 102.903C110.695 102.905 110.699 102.907 110.704 102.909C110.685 102.899 110.677 102.895 110.65 102.88C110.672 102.892 110.695 102.904 110.717 102.915C110.756 102.931 110.787 102.948 110.787 102.95C110.85 102.981 110.914 103.01 110.975 103.047C111.014 103.071 111.052 103.096 111.09 103.122C111.083 103.113 111.08 103.112 111.072 103.102C111.08 103.112 111.091 103.119 111.1 103.128C111.102 103.129 111.104 103.131 111.107 103.132C111.138 103.154 111.159 103.177 111.17 103.193C111.216 103.232 111.262 103.272 111.303 103.315C111.336 103.349 111.367 103.384 111.398 103.42C111.394 103.41 111.392 103.408 111.387 103.397C111.392 103.408 111.401 103.418 111.406 103.429L111.408 103.431C111.432 103.459 111.445 103.484 111.452 103.502C111.487 103.554 111.522 103.606 111.55 103.66C111.557 103.672 111.563 103.685 111.569 103.699C111.57 103.7 111.571 103.703 111.572 103.704C111.586 103.737 111.599 103.772 111.618 103.798C111.61 103.787 111.609 103.784 111.602 103.775C111.618 103.826 111.632 103.88 111.643 103.936C111.651 103.946 111.662 103.972 111.665 104.021C111.665 104.022 111.665 104.023 111.665 104.024C111.669 104.035 111.67 104.049 111.675 104.06C111.67 104.049 111.67 104.045 111.666 104.035C111.668 104.083 111.67 104.13 111.669 104.177Z" fill="black"/>
<path d="M111.657 104.253C111.656 104.156 111.662 104.186 111.657 104.253V104.253Z" fill="black"/>
<path d="M111.452 103.502C111.436 103.477 111.42 103.453 111.406 103.429C111.404 103.426 111.401 103.423 111.398 103.42C111.448 103.523 111.463 103.531 111.452 103.502Z" fill="black"/>
<path d="M111.46 104.73C111.461 104.729 111.462 104.728 111.463 104.726C111.417 104.772 111.393 104.799 111.385 104.81C111.41 104.782 111.435 104.756 111.46 104.73Z" fill="black"/>
<path d="M110.347 102.824C110.421 102.832 110.482 102.858 110.347 102.824V102.824Z" fill="black"/>
<path d="M111.608 104.464C111.609 104.461 111.61 104.459 111.611 104.456C111.571 104.526 111.555 104.563 111.559 104.56C111.575 104.528 111.592 104.496 111.608 104.464Z" fill="black"/>
<path d="M110.718 102.915C110.713 102.913 110.709 102.911 110.704 102.909C110.759 102.938 110.787 102.951 110.787 102.951C110.764 102.939 110.741 102.927 110.718 102.915Z" fill="black"/>
<path d="M111.171 103.193C111.146 103.172 111.122 103.15 111.1 103.128C111.096 103.126 111.093 103.124 111.09 103.121C111.172 103.212 111.189 103.219 111.171 103.193Z" fill="black"/>
<path d="M111.602 103.774C111.601 103.771 111.6 103.766 111.599 103.762C111.591 103.738 111.581 103.719 111.572 103.704C111.571 103.702 111.57 103.701 111.569 103.699C111.543 103.659 111.533 103.675 111.602 103.774Z" fill="black"/>
<path d="M51.8913 32.5521C49.3912 26.7229 42.6733 23.4808 36.5316 24.5407C30.3299 25.6109 25.6336 31.4752 25.3084 37.6448C24.9852 43.7763 29.5377 49.5761 35.2975 51.3478C41.1816 53.1577 49.05 49.9504 51.1551 43.9669C51.3694 43.659 51.565 43.3433 51.7382 43.0229C53.5055 39.7547 53.3296 35.9052 51.8913 32.5521ZM41.8619 30.4851C43.5977 30.8903 45.1465 31.7876 46.1123 33.2995C47.1814 34.9731 47.5945 36.7975 47.4661 38.799C47.3502 40.6076 46.7109 42.4814 45.4025 43.8229C44.1111 45.147 42.3325 45.8736 40.4945 45.9731C36.6713 46.1801 32.5984 43.9811 31.5414 40.1264C31.0832 38.4557 31.2019 36.6584 31.7613 34.9978C31.9512 34.8872 32.1262 34.7177 32.2643 34.4639C34.0743 31.1392 38.4901 29.6982 41.8619 30.4851Z" fill="black"/>
<path d="M140.519 32.5341C140.025 27.5562 135.838 23.3295 130.797 23.0297C125.963 22.7423 121.158 26.6608 120.445 31.4432C120.08 33.8866 120.725 36.2952 122.139 38.2735C123.476 42.2229 128.363 44.3101 132.44 43.391C137.168 42.3253 141.005 37.4235 140.519 32.5341ZM130.881 38.6113C128.695 38.5644 126.486 37.2623 125.534 35.2031C125.5 35.0812 125.451 34.9666 125.387 34.8593C125.286 34.5916 125.194 34.3186 125.138 34.0288C124.934 32.9842 125.086 31.859 125.49 30.8087C125.73 30.7584 125.957 30.6641 126.115 30.461C126.329 30.1848 126.56 29.9251 126.817 29.6883C126.936 29.5793 127.061 29.4785 127.184 29.3738C127.412 29.178 127.249 29.2934 127.501 29.1307C127.772 28.9559 128.048 28.7975 128.338 28.6561C128.528 28.5635 128.783 28.474 129.17 28.3606C130.475 27.9782 131.577 27.9592 132.901 28.3907C132.993 28.4208 133.085 28.4534 133.176 28.4874C133.321 28.5537 133.464 28.6234 133.604 28.6986C133.769 28.7869 133.932 28.8804 134.089 28.9823C134.156 29.0261 134.222 29.0725 134.288 29.1178C134.306 29.13 134.301 29.125 134.311 29.1319C134.32 29.1397 134.314 29.1355 134.328 29.1472C134.973 29.6994 135.187 29.968 135.534 30.6381C136.028 31.5896 136.213 33.0265 136.003 34.1065C135.497 36.709 133.706 38.6719 130.881 38.6113Z" fill="black"/>
<path d="M174.936 5.34981C166.726 0.84995 155.321 4.09646 152.272 13.3566C152.062 13.9957 152.271 14.5111 152.663 14.8383C150.031 22.1632 153.052 30.6133 160.177 34.1873C167.693 37.9575 177.29 35.0255 181.363 27.6116C185.661 19.7905 182.761 9.63868 174.936 5.34981ZM176.942 25.9824C176.079 27.1943 175.022 28.2951 173.874 29.2393C173.701 29.3811 173.511 29.5012 173.326 29.6282C173.114 29.5452 172.884 29.5182 172.65 29.6126C170.088 30.6444 167.85 31.6065 165.026 30.9864C162.331 30.3948 159.98 28.8037 158.523 26.4487C155.759 21.9782 156.183 15.6356 160.077 11.9493C163.834 8.39348 170.105 7.7345 174.451 10.5708C178.049 13.6658 179.604 18.6837 178.175 23.4678C178.02 23.9861 177.815 24.4797 177.587 24.9607C177.383 25.3044 177.18 25.6483 176.942 25.9824Z" fill="black"/>
<path d="M88.4942 12.876C87.1416 10.124 84.2044 8.29051 80.9139 8.02712C79.8282 7.9402 78.7158 8.06534 77.6538 8.3576C75.6554 8.79091 73.8224 9.89084 72.5464 11.5169C72.0832 12.1071 71.7319 12.7533 71.4774 13.4278C71.3818 13.6361 71.2886 13.8462 71.1972 14.0595C71.1201 14.2395 71.1124 14.4043 71.1513 14.55C70.6918 16.8029 71.2837 19.2337 72.8593 21.0498C75.309 23.8734 80.0891 24.6023 83.6423 23.5263C86.3297 23.0702 88.7975 21.5877 89.6938 18.9798C90.4196 16.8682 89.7895 14.673 88.4942 12.876ZM74.4874 16.1612C74.4879 15.733 74.5533 15.3235 74.6678 14.931C74.8624 14.849 75.0202 14.6862 75.0712 14.4017C75.1269 14.0917 75.2213 13.8008 75.3376 13.5224C76.0235 12.4885 77.0523 11.6116 78.1686 10.8977C78.3868 10.8132 78.6083 10.7417 78.8341 10.6867C78.9609 10.6627 79.0873 10.637 79.2154 10.6205C81.8454 10.5713 84.5568 12.1825 85.4812 14.5787C85.9149 15.7028 86.0194 17.0587 85.3861 18.1333C84.7278 19.2502 83.4351 19.8595 82.1486 20.0504C79.4844 20.4456 74.4835 19.4829 74.4874 16.1612Z" fill="black"/>
</svg>
