<svg width="228" height="228" viewBox="0 0 228 228" fill="none" xmlns="http://www.w3.org/2000/svg">
<path d="M198.43 71.4584C192.401 64.5309 184.565 60.0354 175.998 58.3083C172.707 57.1318 169.275 56.2139 165.773 55.554C155.358 52.5098 143.95 51.1124 133.235 50.4864C122.213 49.8425 110.88 50.7119 100.368 54.2673C93.4724 56.5994 86.9901 60.0578 81.4793 64.7553C79.1332 66.4467 76.9216 68.3858 74.891 70.6448C74.8487 70.6303 74.8059 70.6237 74.7636 70.6083C73.9457 71.9578 73.1864 73.3685 72.5096 74.8207C69.0237 79.9886 66.285 86.1723 66.5408 92.0863C53.6332 94.8387 36.1394 97.98 40.4166 114.522C5.71997 119.951 18.172 167.087 50.1685 153.771C80.1503 188.418 132.765 174.447 141.854 130.077C143.25 130.369 144.677 130.557 146.062 130.755C148.549 131.111 151.042 131.269 153.552 131.361C158.472 131.541 163.442 131.364 168.341 130.885C177.14 130.025 186.536 128.42 193.321 122.307C195.365 120.464 197.449 118.292 198.88 115.826C199.608 115.985 200.36 116.042 201.068 115.981C203.579 115.764 205.639 114.464 207.089 112.427C208.499 110.448 209.069 107.866 209.005 105.465C209.004 105.426 208.998 105.388 208.996 105.348C211.478 93.782 205.796 79.9236 198.43 71.4584ZM132.777 128.862C121.441 172.427 87.2752 175.894 55.2452 150.515C48.8765 146.967 40.6863 154.15 33.8555 149.558C17.0806 139.529 29.9516 121.008 44.9751 118.098C48.3333 114.477 45.8329 107.896 46.9993 103.119C71.3877 91.5938 145.805 86.6836 132.777 128.862ZM97.9644 90.7917C98.4641 89.9035 98.9507 88.9514 99.7435 88.2871C99.7656 88.2711 99.7889 88.2569 99.8115 88.2417C100.21 89.0936 99.98 90.1172 99.6951 90.9715C99.1181 90.9065 98.5413 90.848 97.9644 90.7917ZM131.323 95.3217C131.341 95.3234 131.415 95.3718 131.371 95.3399C131.452 95.3811 131.566 95.5243 131.624 95.6023C132.324 97.0645 131.515 98.7896 130.65 100.031C129.939 99.6389 129.22 99.2597 128.489 98.8943C129.047 97.5387 129.842 95.7828 131.326 95.3164C131.168 95.2907 131.487 95.3363 131.323 95.3217ZM186.585 119.989C172.601 124.506 157.52 125.317 142.932 124.136C143.384 120.798 143.442 117.426 142.866 114.195C145.738 116.12 148.965 113.999 151.933 113.79C158.753 118.178 162.075 115.162 166.271 109.509C181.764 122.778 183.064 113.741 185.379 109.101C186.242 108.636 187.066 108.799 187.946 109.168C189.593 109.859 190.813 111.345 192.192 112.433C192.994 113.067 193.836 113.596 194.704 114.001C192.682 116.874 190.15 118.666 186.585 119.989ZM180.366 111.697C175.087 120.229 169.924 96.3842 158.063 113.013C152.221 108.154 146.262 114.834 143.988 110.607C140.685 106.767 136.696 103.606 132.282 100.975C137.538 94.7163 129.228 90.47 126.754 98.0648C119.036 94.4982 110.344 92.3362 101.565 91.2012C103.38 85.5473 97.4212 85.9254 96.3654 90.6429C88.5458 89.985 80.7934 90.0888 73.7346 90.7186C73.793 86.5839 74.5227 82.8975 75.8195 79.619C77.2247 77.2049 78.8755 74.8797 80.992 72.6565C87.0355 66.3084 94.7132 61.915 103.002 59.2584C112.696 56.6982 123.838 55.8594 134.895 56.1561C135.299 56.1849 135.705 56.2032 136.11 56.2358C146.851 57.1014 157.306 60.0414 168.008 60.9542C168.147 60.9661 168.278 60.9637 168.403 60.954C178.025 62.774 187.45 67.6241 193.736 74.9767C194.146 75.4557 194.538 75.9483 194.922 76.4474C199.735 85.2127 200.656 96.2756 202.79 106.512C202.793 106.665 202.793 106.813 202.797 106.966C202.802 107.125 202.832 107.268 202.857 107.413C202.217 108.673 201.236 109.817 200.027 110.453C199.611 110.197 199.045 110.228 198.683 110.73C194.434 108.733 187.138 97.4848 180.366 111.697Z" fill="black"/>
<path d="M126.607 106.118C110.199 99.677 86.2495 96.7212 67.6574 99.9383C64.7498 100.421 47.59 103.163 54.5713 107.151C77.4756 113.137 103.629 114.611 125.927 107.986C127.098 108.129 127.903 106.613 126.607 106.118Z" fill="black"/>
<path d="M43.6501 133.358C43.6328 133.343 43.6157 133.328 43.5984 133.313C43.6147 133.352 43.6471 133.369 43.6501 133.358Z" fill="black"/>
<path d="M48.0638 133.114C47.8006 123.332 33.0784 129.683 34.3837 136.509C33.5668 147.686 52.429 143.361 48.0638 133.114ZM39.1437 136.673C39.1254 136.601 39.0999 136.508 39.083 136.419C39.0831 136.4 39.084 136.395 39.0831 136.357C39.0814 136.284 39.0743 136.21 39.0727 136.136C39.0699 136.006 39.0792 135.877 39.0816 135.748C39.0818 135.733 39.0815 135.707 39.0817 135.681C39.0845 135.672 39.0871 135.67 39.0898 135.658C39.151 135.382 39.214 135.116 39.3014 134.848C39.3093 134.824 39.3122 134.813 39.3173 134.796C39.3216 134.788 39.3232 134.786 39.3288 134.775C39.3796 134.675 39.4262 134.573 39.4797 134.474C39.5422 134.358 39.6091 134.245 39.6797 134.134C39.7201 134.071 39.763 134.01 39.8047 133.947C39.8404 133.894 40.0039 133.732 39.8407 133.893C39.6553 134.074 39.9529 133.77 39.9982 133.721C40.0868 133.626 40.1794 133.534 40.2753 133.445C40.3047 133.418 40.3597 133.357 40.4178 133.301C40.4297 133.295 40.4486 133.285 40.5044 133.25C40.567 133.211 40.6271 133.168 40.69 133.13C40.8 133.063 40.916 133.007 41.0275 132.943C41.0347 132.939 41.0641 132.922 41.0927 132.906C41.0939 132.906 41.0934 132.906 41.0947 132.906C41.2176 132.867 41.3379 132.824 41.4631 132.791C41.5167 132.777 41.5704 132.764 41.6245 132.752C41.6862 132.739 41.9925 132.722 41.7446 132.726C41.4937 132.729 41.9361 132.721 41.9863 132.721C42.015 132.72 42.1212 132.713 42.2095 132.714C42.2229 132.717 42.2201 132.718 42.2415 132.722C42.2969 132.734 42.353 132.743 42.4084 132.755C42.557 132.787 42.6998 132.832 42.845 132.876C42.8644 132.882 42.8713 132.883 42.8863 132.887C42.8926 132.891 42.8931 132.892 42.9009 132.896C43.0179 132.959 43.1374 133.016 43.2519 133.083C43.3604 133.147 43.4634 133.218 43.5682 133.287C43.5787 133.296 43.5749 133.293 43.5886 133.304C43.5918 133.307 43.5951 133.31 43.5984 133.313C43.5971 133.31 43.5949 133.308 43.5939 133.305C43.6402 133.337 43.652 133.352 43.6501 133.359C43.6583 133.366 43.6666 133.373 43.6749 133.38C43.8761 133.561 44.0539 133.759 44.2297 133.964C44.2405 133.983 44.2493 133.998 44.2676 134.028C44.2834 134.054 44.298 134.08 44.3139 134.106C44.4685 135.065 44.5248 136.037 44.3815 136.929C44.3256 136.989 44.2709 137.051 44.2107 137.108C44.1828 137.135 44.0956 137.207 44.0321 137.261C43.967 137.305 43.8934 137.355 43.8695 137.37C43.7547 137.44 43.637 137.505 43.5166 137.565C43.493 137.576 43.4692 137.587 43.4454 137.599C43.1969 137.671 42.9554 137.75 42.7015 137.808C42.6843 137.812 42.6803 137.813 42.6673 137.816C42.6665 137.816 42.6665 137.816 42.6657 137.816C42.5308 137.825 42.397 137.836 42.2616 137.837C42.1282 137.838 41.9961 137.83 41.863 137.824C41.8537 137.821 41.8521 137.82 41.841 137.818C41.5836 137.756 41.3243 137.705 41.0728 137.621C41.0105 137.6 40.9495 137.576 40.8884 137.552C40.8332 137.519 40.7567 137.489 40.7079 137.465C40.6635 137.443 40.6216 137.417 40.5772 137.395C40.0988 137.2 39.9956 137.157 40.2677 137.267C40.4083 137.326 40.4356 137.336 40.3495 137.296C40.2375 137.212 40.0852 137.158 39.9644 137.083C39.7471 136.947 39.4805 136.899 39.2113 136.896C39.1878 136.822 39.1627 136.749 39.1437 136.673Z" fill="black"/>
<path d="M146.818 70.9821C139.557 70.5833 117.873 67.807 118.797 78.2629C123.831 84.9757 160.529 79.5921 146.818 70.9821Z" fill="black"/>
<path d="M95.2618 69.1825C92.8811 66.1691 85.2712 72.2351 88.094 75.0855C91.0609 76.4698 96.0911 72.3263 95.2618 69.1825ZM93.3548 71.2044C87.7326 77.7766 88.2158 71.267 93.6969 69.5282C94.0837 70.063 93.6773 70.7466 93.3548 71.2044Z" fill="black"/>
<path d="M172.078 96.7125C167.321 83.506 159.407 96.4011 168.67 101.345C171.792 103.004 173.097 99.1205 172.078 96.7125ZM170.184 100.498C167.586 99.7422 165.17 94.7017 166.827 92.2693C169.396 93.4987 171.202 97.8187 170.184 100.498Z" fill="black"/>
<path d="M179.779 74.4405C178.459 72.1649 172.349 67.9954 170.815 71.6592C171.537 74.5865 180.128 80.557 179.779 74.4405ZM177.745 75.4275C177.707 75.5377 177.692 75.5465 177.652 75.5883C177.675 75.565 177.639 75.578 177.61 75.5942C177.467 75.5787 177.301 75.4805 177.282 75.4828C175.788 74.3164 173.882 73.2365 172.861 71.6511C173.682 71.8427 174.512 72.1552 175.272 72.5616C175.829 73.7076 177.926 73.9322 177.745 75.4275Z" fill="black"/>
<path d="M132.943 59.6116C132.745 59.5378 132.527 59.4963 132.319 59.4354C130.578 58.5328 127.621 58.2204 125.995 59.2767C120.124 63.7662 138.537 63.5098 132.943 59.6116ZM131.21 61.0637C123.972 62.1997 126.628 58.7181 132.033 60.8276C131.792 60.9297 131.487 60.9946 131.21 61.0637Z" fill="black"/>
<path d="M194.517 91.2466C193.981 87.666 188.041 86.0862 189.105 90.9302C190.056 95.806 196.826 98.291 194.517 91.2466ZM193.344 94.4618C193.311 94.5482 193.267 94.6088 193.226 94.6809C192.711 94.2685 192.833 93.3461 192.045 93.2508C191.477 92.1159 190.046 90.3067 190.972 89.0687C190.966 89.0745 191.006 89.043 191.047 89.0117C192.54 90.2554 193.595 92.5071 193.344 94.4618Z" fill="black"/>
</svg>
