<svg width="228" height="228" viewBox="0 0 228 228" fill="none" xmlns="http://www.w3.org/2000/svg">
<path d="M200.616 163.793C197.699 160.191 193.377 157.945 189.183 156.178C178.693 151.758 167.601 149.201 156.226 148.633C153.959 148.52 151.69 148.514 149.421 148.563C149.318 148.542 149.211 148.53 149.099 148.532C147.682 148.559 146.265 148.629 144.849 148.684C143.44 148.739 142.009 148.872 140.6 148.83C140.43 148.825 140.277 148.855 140.141 148.91C138.311 148.102 136.399 147.543 134.439 147.157C134.386 142.768 134.333 138.379 134.28 133.991C136.614 134.047 138.946 134.037 141.276 133.92C141.263 134.324 141.252 134.728 141.239 135.132C141.018 135.829 141.021 136.654 140.944 137.384C140.877 138.026 140.809 138.668 140.742 139.31C140.666 140.035 140.582 140.742 140.798 141.458C141.108 142.479 141.974 143.282 143.042 143.414C144.086 143.544 145.024 143.021 145.577 142.145C146.013 141.453 146.062 140.633 145.994 139.842C145.939 139.198 145.882 138.554 145.827 137.91C145.769 137.245 145.782 136.576 145.725 135.912C145.699 135.611 145.628 135.331 145.497 135.076L145.471 133.577C146.415 133.47 147.358 133.348 148.301 133.194C155.995 131.942 163.613 128.555 169.025 122.824C174.836 116.671 177.504 108.157 175.365 99.8528C174.218 95.3989 171.723 91.2441 168.187 88.2793C167.709 87.8787 167.215 87.5045 166.706 87.1545C163.508 83.9249 159.338 81.6043 155.013 80.4179C152.759 79.7998 150.473 79.5126 148.177 79.4708C148.461 77.5928 148.741 75.7096 148.932 73.8207C149.343 69.7677 149.596 65.6932 149.76 61.6235C150.094 53.3843 149.93 45.1565 149.136 36.9476C148.913 34.647 148.605 32.3567 148.277 30.0688C148.153 29.1974 148.044 28.0523 147.794 26.9664C147.739 25.8599 147.634 24.766 147.418 23.7106C147.474 23.5267 147.506 23.3364 147.48 23.1479C147.396 22.5278 146.835 21.9631 146.173 22.0019C145.462 22.0436 144.751 22.0862 144.04 22.1371C142.718 21.8987 141.213 22.1792 139.894 22.2501C139.399 22.2767 138.903 22.3033 138.408 22.3299C137.32 22.2657 136.231 22.215 135.144 22.1686C131.676 22.0208 128.211 21.9951 124.74 22.0428C121.356 22.0892 117.973 22.2029 114.593 22.3825C112.86 22.4747 111.133 22.6128 109.405 22.774C108.582 22.8508 107.758 22.9272 106.937 23.016C105.893 23.129 105.283 23.3394 104.664 24.0402C104.495 24.1327 104.326 24.2414 104.154 24.383C103.84 24.6404 103.539 24.9157 103.236 25.1871C103.214 25.2029 103.194 25.2205 103.172 25.2363C103.171 25.2352 103.171 25.2341 103.17 25.2331C103.157 25.2447 103.144 25.2565 103.131 25.2681C101.668 26.337 100.273 27.493 99.004 28.7887C98.7094 29.0895 98.4443 29.4173 98.1623 29.73C97.2374 30.5724 96.311 31.4132 95.3881 32.2581C94.8009 32.3647 94.3068 32.7577 94.2101 33.5177C93.777 36.9214 94.2874 40.5596 94.5683 43.966C94.711 45.6972 94.8538 47.4284 94.9965 49.1596C95.055 49.8691 95.1135 50.5784 95.1719 51.2879C95.0966 51.3244 95.0193 51.3572 94.945 51.3957C92.5492 52.6379 90.3282 54.1668 88.382 56.0062C88.2348 56.0838 88.0893 56.1659 87.9416 56.242C85.1493 58.5066 82.6645 61.1463 80.5807 64.0944C78.4563 67.1001 76.8523 70.4152 75.7781 73.935C75.7057 74.1723 75.6519 74.4153 75.5893 74.6557C72.5744 82.0535 73.304 90.4873 80.3112 97.6729C86.0136 103.52 92.7563 106.508 99.9361 107.609C99.9445 107.725 99.9521 107.842 99.9609 107.958C99.9369 109.29 99.913 110.622 99.889 111.954C90.2166 110.83 79.9297 111.454 72.1597 118.01C68.0281 121.496 65.6592 126.311 64.8905 131.44C62.8036 139.992 64.1949 148.744 68.1242 156.319C66.3511 156.212 64.5714 156.174 62.8085 156.337C60.221 156.577 57.6133 156.943 55.077 157.515C50.0349 158.654 45.0715 160.63 40.5221 163.066C34.3976 166.345 26.4784 171.637 24.554 178.719C24.4274 179.019 24.3149 179.323 24.2267 179.635C23.9435 180.637 23.9421 181.58 24.1319 182.473C24.1783 183.541 24.3572 184.639 24.7071 185.774C27.391 194.476 37.5098 197.316 45.3991 199.021C46.3522 199.227 47.3079 199.42 48.2632 199.616C57.0742 202.885 66.4749 204.45 75.8824 204.111C76.5812 204.086 77.279 204.051 77.9764 204.009C78.2609 204.036 78.5449 204.067 78.8295 204.092C93.6794 205.432 108.617 205.523 123.474 204.433C130.879 205.499 138.302 206.192 145.739 204.597C151.308 203.403 156.577 201.186 161.967 199.401C167.561 197.548 173.29 196.692 179.065 195.624C188.265 193.922 198.789 190.199 202.023 180.526C202.49 179.641 202.917 178.716 203.258 177.709C204.899 172.849 203.809 167.735 200.616 163.793ZM145.653 100.503C146.636 100.584 147.566 100.831 148.363 101.337C152.047 103.677 148.516 106.661 146.101 108.305C145.927 108.423 145.747 108.531 145.571 108.645C145.598 105.931 145.626 103.217 145.653 100.503ZM143.295 153.176C143.468 153.371 143.636 153.569 143.799 153.769C143.995 154.01 144.178 154.261 144.365 154.509C144.44 154.816 144.619 155.086 144.902 155.245C146.822 157.992 148.184 161.116 148.547 164.476C148.668 165.59 148.61 166.692 148.423 167.765C147.626 167.661 146.817 167.626 145.996 167.693C145.581 167.728 145.164 167.778 144.747 167.83C144.91 167.18 144.933 166.431 144.964 165.853C145.017 164.841 144.966 163.833 144.831 162.829C144.563 160.844 143.954 158.912 143.016 157.14C142.177 155.556 141.079 154.096 139.792 152.849C139.217 152.292 138.596 151.782 137.95 151.31C139.762 151.821 141.494 152.614 143.295 153.176ZM134.687 150.806C134.693 150.812 134.694 150.818 134.7 150.823C135.317 151.354 136.13 151.677 136.808 152.135C137.507 152.608 138.166 153.133 138.782 153.71C140.013 154.863 141.064 156.201 141.868 157.685C142.76 159.33 143.347 161.141 143.606 162.994C143.739 163.94 143.784 164.906 143.755 165.861C143.735 166.526 143.567 167.279 143.577 167.975C142.901 168.053 142.225 168.107 141.553 168.099C140.865 167.896 140.194 167.646 139.531 167.344C139.326 167.251 139.122 167.156 138.918 167.062C139.093 166.341 139.13 165.547 139.142 164.854C139.158 163.874 139.06 162.891 138.893 161.926C138.553 159.965 137.828 158.053 136.783 156.359C135.817 154.793 134.584 153.392 133.145 152.246C132.696 151.888 132.225 151.56 131.745 151.248C132.677 150.948 133.662 150.797 134.687 150.806ZM133.645 161.613C133.427 160.038 132.903 158.502 132.088 157.135C131.337 155.874 130.349 154.765 129.195 153.861C128.944 153.665 128.681 153.471 128.41 153.286C128.952 152.754 129.534 152.305 130.156 151.949C130.843 152.333 131.508 152.764 132.125 153.253C133.441 154.296 134.601 155.561 135.498 156.981C136.484 158.541 137.154 160.267 137.519 162.075C137.705 162.994 137.793 163.926 137.813 164.862C137.825 165.412 137.771 165.978 137.74 166.54C137.308 166.36 136.872 166.192 136.422 166.061C135.77 165.871 135.118 165.795 134.462 165.794C134.285 165.739 134.108 165.684 133.923 165.649C133.78 165.622 133.639 165.62 133.497 165.605C133.656 165.084 133.698 164.495 133.733 163.99C133.787 163.195 133.755 162.401 133.645 161.613ZM128.244 159.269C127.685 158.316 126.932 157.442 126.057 156.721C126.444 155.888 126.894 155.086 127.458 154.356C127.764 154.539 128.065 154.735 128.351 154.961C129.353 155.754 130.227 156.727 130.892 157.818C131.607 158.992 132.078 160.293 132.307 161.647C132.425 162.353 132.472 163.072 132.455 163.787C132.44 164.372 132.3 164.998 132.297 165.592C131.65 165.649 131.007 165.776 130.357 165.913C130.278 165.93 130.194 165.947 130.112 165.963C129.81 165.973 129.508 165.971 129.207 165.961C129.904 163.778 129.374 161.197 128.244 159.269ZM110.183 84.1898C108.45 84.4327 106.682 84.6408 104.9 84.7546C104.835 83.9412 104.771 83.1299 104.724 82.3266C104.646 81.0091 104.588 79.6889 104.478 78.3737C104.446 77.9923 104.422 77.594 104.392 77.1919C105.657 77.1458 106.924 77.064 108.172 77.0241C108.842 77.0028 109.511 76.9792 110.181 76.9582C110.157 79.3678 110.173 81.7797 110.183 84.1898ZM104.211 108.044C106.186 108.15 108.185 108.126 110.195 108.004C110.196 109.757 110.196 111.51 110.196 113.263C108.204 113.019 106.209 112.758 104.208 112.497C104.209 111.012 104.21 109.528 104.211 108.044ZM106.342 132.241C107.623 132.328 108.904 132.416 110.185 132.503C110.186 134.741 110.186 136.978 110.187 139.216C110.055 139.866 110.05 140.53 110.04 141.196C110.026 142.071 110.663 142.739 111.446 143.002C111.944 143.17 112.396 143.006 112.849 142.815C113.416 142.576 113.842 141.771 113.795 141.173C113.738 140.44 113.733 139.644 113.485 138.95C113.466 138.898 113.45 138.845 113.433 138.792C113.434 136.77 113.434 134.748 113.434 132.725C115.534 132.869 117.633 133.012 119.733 133.155C122.243 133.393 124.755 133.574 127.268 133.67C127.841 133.706 128.414 133.738 128.987 133.77C129.197 138.016 129.406 142.262 129.616 146.508C125.68 146.188 121.671 146.261 117.844 146.122C117.031 146.093 116.219 146.036 115.407 145.998C115.084 146.117 114.745 146.197 114.392 146.191C114.046 146.185 113.683 146.111 113.326 146.045C112.354 145.94 111.374 145.902 110.398 145.857C110.038 145.872 109.691 145.788 109.369 145.642C107.81 145.53 106.25 145.42 104.693 145.284C104.528 145.269 104.368 145.257 104.205 145.243C104.15 140.857 104.094 136.47 104.039 132.084L106.342 132.241ZM129.374 104.266C129.261 107.63 129.26 110.997 129.382 114.362C124.026 114.59 118.728 114.219 113.423 113.638C113.424 111.667 113.424 109.696 113.425 107.724C118.777 107.119 124.166 105.852 129.374 104.266ZM113.438 83.7103C113.45 81.424 113.463 79.1365 113.439 76.8512C116.149 76.7657 118.859 76.685 121.569 76.5841C123.743 76.5032 125.924 76.45 128.099 76.3265C128.075 77.6649 128.119 79.0001 128.277 80.3286C128.261 80.6744 128.253 81.02 128.252 81.3661C127.894 81.417 127.529 81.4654 127.173 81.5169C122.602 82.1784 118.057 83.0012 113.492 83.7022C113.474 83.7049 113.456 83.7076 113.438 83.7103ZM124.858 160.443C125.014 159.625 125.246 158.825 125.521 158.04C126.13 158.577 126.665 159.199 127.096 159.925C128.128 161.662 128.293 163.526 128.193 165.452C127.587 165.077 126.997 164.664 126.349 164.381C125.807 164.145 125.237 164.134 124.655 164.092C124.606 164.088 124.559 164.094 124.511 164.094C124.547 162.872 124.628 161.654 124.858 160.443ZM134.324 113.412C134.528 109.791 134.626 106.167 134.647 102.541C135.032 102.407 135.418 102.274 135.799 102.137C136.919 101.875 138.041 101.615 139.165 101.366C139.586 101.273 140.038 101.169 140.509 101.065C140.591 102.436 140.739 103.812 140.791 105.161C140.869 107.166 140.892 109.167 140.874 111.171C138.764 112.1 136.564 112.837 134.324 113.412ZM140.646 80.1695C138.435 80.2211 136.221 80.395 134.029 80.629C134.108 78.9926 134.083 77.3538 133.975 75.7172C136.285 75.321 138.768 74.6403 140.788 73.368C140.64 74.8335 140.74 76.307 140.808 77.7822C140.844 78.5601 140.889 79.3374 140.929 80.115C140.835 80.1348 140.74 80.1489 140.646 80.1695ZM143.945 27.8372C143.956 29.0171 144.004 30.195 144.071 31.3729C144.219 33.9708 144.344 36.5722 144.446 39.1723C144.647 44.3017 144.741 49.4337 144.725 54.5668C144.713 58.0806 144.613 61.594 144.436 65.1034C144.35 65.1723 144.268 65.247 144.176 65.3103C143.167 66.007 142.123 66.6273 141.147 67.3747C141.004 67.4842 140.871 67.6031 140.731 67.7158C140.135 68.1039 139.548 68.5063 138.953 68.8982C138.43 63.6278 137.971 58.352 137.631 53.0661C137.434 50.0246 137.274 46.9806 137.125 43.9364C136.978 40.9626 136.987 37.9481 136.655 34.9857C137.384 34.483 138.041 33.8423 138.663 33.2435C139.587 32.3539 140.499 31.4538 141.396 30.5368C142.261 29.6518 143.101 28.7423 143.945 27.8372ZM101.003 31.48C101.815 30.9164 102.62 30.3419 103.409 29.7712C104.287 29.136 105.164 28.4977 106.04 27.8595C106.23 27.7212 106.421 27.5839 106.611 27.4454C107.517 27.5199 108.485 27.3426 109.432 27.2769C111.161 27.1568 112.891 27.0491 114.621 26.9297C117.999 26.6966 121.382 26.5299 124.767 26.4294C128.068 26.3313 131.372 26.2979 134.674 26.2735C136.407 26.2606 138.14 26.2937 139.873 26.2799C140.536 26.2747 141.262 26.313 141.933 26.2219C141.941 26.2323 141.948 26.2427 141.956 26.2528C141.204 27.0584 140.457 27.8687 139.686 28.6571C138.815 29.5495 137.942 30.441 137.066 31.3297C136.766 31.6346 136.435 31.9508 136.109 32.2801C134.961 31.9574 133.517 32.1585 132.404 32.1338C130.754 32.0973 129.104 32.0623 127.454 32.029L117.554 31.8292C114.336 31.7643 111.119 31.7066 107.901 31.6558C105.6 31.6196 103.236 31.4759 100.907 31.567C100.939 31.5379 100.971 31.5091 101.003 31.48ZM98.8729 38.1431C98.9535 36.7866 99.1314 35.3898 99.1779 34.0135C101.967 34.4121 104.875 34.3146 107.671 34.3898C110.971 34.4786 114.27 34.5607 117.571 34.6349C120.788 34.7073 124.006 34.7797 127.224 34.852C128.873 34.8891 130.523 34.925 132.173 34.9589C132.805 34.9719 133.535 35.0521 134.263 35.0856C134.079 37.9462 134.261 40.8488 134.363 43.7062C134.474 46.8342 134.641 49.9595 134.84 53.0831C135.207 58.846 135.692 64.6025 136.307 70.3444C136.231 70.3751 136.161 70.4172 136.084 70.446C135.31 70.7342 134.513 70.9547 133.708 71.1404C126.727 71.6748 119.745 72.2015 112.761 72.7067C112.575 72.7172 112.39 72.7278 112.205 72.7383C111.92 72.6344 111.61 72.6556 111.335 72.7875C110.402 72.8404 109.469 72.8932 108.536 72.9461C107.592 72.9598 106.649 72.9747 105.706 72.9835C104.468 72.9951 103.231 73.0031 101.994 73.0074C101.712 73.0084 101.321 73.0505 100.901 73.0879C99.8635 72.3572 100.359 70.1606 100.422 69.1279C100.461 68.4817 100.464 67.8392 100.404 67.2164C103.5 65.705 107.087 64.9305 110.351 64.4024C110.416 64.3918 110.484 64.3814 110.549 64.3709C111.105 64.1998 111.661 64.0296 112.219 63.8706C114.815 63.1311 117.756 62.6539 119.291 60.1573C119.699 59.4931 119.9 58.8213 119.946 58.1532C120.463 57.1309 120.607 55.9116 120.178 54.467C119.284 51.4568 117.495 48.1548 114.229 47.3554C111.08 46.5848 107.344 47.3544 104.239 48.0482C102.681 48.3965 101.145 48.8507 99.6389 49.3892C99.6294 49.3035 99.618 49.2164 99.6097 49.1317C99.4402 47.4006 99.2706 45.6696 99.101 43.9385C98.9952 42.8583 98.864 41.7815 98.7392 40.7039C98.7836 39.8502 98.8222 38.9963 98.8729 38.1431ZM97.7108 84.4275C97.2313 84.3124 96.7567 84.1718 96.2919 84.0062C96.3676 84.014 95.5614 83.651 95.3947 83.5566C95.2164 83.4556 94.5304 82.9887 94.5494 83.0295C94.2188 82.7574 93.9048 82.4607 93.6141 82.1477C93.4873 82.0112 93.3641 81.8652 93.2457 81.7189C93.2164 81.6689 93.1586 81.576 93.1083 81.4843C93.0453 81.3699 92.6422 80.5709 92.6354 80.6337C92.0446 78.9267 92.538 77.2121 93.4027 75.5278C93.5792 75.184 93.7806 74.8636 93.9777 74.5391C94.2065 73.7767 94.506 73.0352 94.8552 72.3373C94.8822 73.7367 95.3249 75.1383 96.4203 76.0695C97.421 76.92 98.6604 77.0829 99.9207 77.0531C99.7638 79.6349 99.8322 82.2154 100.121 84.7852C99.1776 84.7322 98.7194 84.6695 97.7108 84.4275ZM88.2802 137.227C88.3163 137.1 88.4704 136.712 88.4982 136.619C88.6898 136.224 88.8943 135.835 89.1312 135.466C89.1981 135.362 89.5001 134.976 89.535 134.918C89.792 134.625 90.0539 134.337 90.3362 134.067C90.4411 133.967 90.9791 133.509 90.9721 133.495C91.3192 133.243 91.6873 133.009 92.0525 132.787C92.9618 132.233 93.9511 131.794 94.9787 131.419C95.1491 131.443 95.3068 131.482 95.4845 131.5C96.7125 131.623 97.9546 131.668 99.1859 131.753L99.2516 131.757C98.9839 136.096 98.901 140.442 99.0316 144.786C97.5292 144.615 96.0519 144.384 94.5419 143.998C94.0463 143.769 93.556 143.527 93.0746 143.269C92.0465 142.719 91.0438 142.104 90.1095 141.405C89.7186 141.113 90.0966 141.385 90.1618 141.44C89.8993 141.219 89.639 140.997 89.3864 140.765C88.9939 140.405 88.6249 140.02 88.2672 139.625C88.2147 139.441 88.1626 139.258 88.1178 139.072C88.1098 139.039 88.1056 139.027 88.0995 139.004C88.0988 138.984 88.0995 138.977 88.0983 138.951C88.0912 138.803 88.11 138.068 88.0783 138.126C88.1261 137.823 88.1974 137.52 88.2802 137.227ZM193.58 181.98C190.224 184.948 185.796 186.477 181.587 187.775C171.614 190.849 161.428 193.276 151.16 195.135C130.695 198.839 109.787 200.11 89.0197 199.03C78.6412 198.49 68.3013 197.355 58.0579 195.599C53.1193 194.753 48.1578 193.844 43.2953 192.627C39.6878 191.724 36.3611 190.665 33.3908 188.344C33.3981 188.336 32.7921 187.815 32.738 187.765C32.4369 187.485 32.1474 187.191 31.8739 186.884C31.4498 186.408 31.1386 185.956 30.708 185.119C30.4862 184.687 30.2418 183.995 30.1148 183.182C30.0048 182.479 30.0428 181.444 30.2175 180.658C31.0715 176.813 34.4658 173.513 37.5238 171.087C44.847 165.279 54.4149 161.8 63.5571 160.287C63.5814 160.283 63.6055 160.279 63.6298 160.275C64.0661 160.272 64.5026 160.271 64.9406 160.282C66.908 160.33 68.8632 160.471 70.8098 160.753C70.8939 160.874 70.9716 160.998 71.0571 161.118C72.2742 162.065 73.5248 162.972 74.7797 163.864C80.4542 167.902 86.7211 171.5 93.0339 173.971C99.9672 176.684 107.301 178.464 114.665 179.51C116.27 179.738 118.284 179.959 120.076 180.115C121.979 180.279 123.886 180.392 125.795 180.451C129.58 180.569 133.379 180.49 137.151 180.15C137.792 180.092 138.434 180.041 139.076 179.989C139.004 179.931 138.932 179.872 138.861 179.814C138.809 179.773 138.78 179.749 138.751 179.725C138.722 179.706 138.69 179.685 138.635 179.648C138.411 179.497 138.193 179.338 137.968 179.19C137.513 178.892 137.059 178.584 136.579 178.329C136.572 178.325 136.048 178.089 136.115 178.106C135.958 178.046 135.8 177.989 135.643 177.933C135.609 177.921 135.574 177.913 135.541 177.901C135.223 177.877 134.906 177.859 134.585 177.809C131.375 177.308 128.601 175.476 126.807 172.782C125.549 170.892 124.795 168.653 124.475 166.311C124.476 166.174 124.478 166.038 124.479 165.901C125.354 166.285 126.278 166.579 127.203 166.762C127.498 166.892 127.798 166.961 128.1 167.006C128.402 167.18 128.705 167.334 129.011 167.445C131.172 168.223 133.316 166.877 135.496 167.321C136.172 167.733 136.845 168.142 137.561 168.494C138.444 168.928 139.357 169.282 140.335 169.419C140.611 169.458 140.887 169.482 141.163 169.495C141.294 169.534 141.424 169.579 141.557 169.613C143.819 170.187 146.168 170.152 148.463 170.51C150.593 170.842 152.74 171.525 154.18 173.216C154.667 173.788 155.413 173.232 155.372 172.627C155.458 172.707 155.556 172.777 155.639 172.86C155.648 172.869 155.658 172.881 155.668 172.89C155.71 172.787 155.72 172.667 155.672 172.531C155.069 170.828 153.237 169.493 151.675 168.722C151.475 168.624 151.268 168.558 151.064 168.474C152.44 163.779 151.089 159.081 148.276 155.324C158.178 155.143 168.065 156.372 177.602 159.085C182.466 160.469 187.387 162.12 191.891 164.441C192.44 164.723 192.985 165.027 193.52 165.35C195.746 166.963 197.618 169.046 198.046 171.821C198.642 175.687 196.405 179.481 193.58 181.98Z" fill="black"/>
<path d="M144.856 175.724C144.537 175.408 144.175 175.141 143.781 174.926C142.999 174.5 142.157 174.382 141.279 174.361C140.965 174.354 140.973 174.826 141.282 174.845C142.025 174.891 142.744 175.259 143.357 175.662C143.655 175.858 143.933 176.092 144.184 176.345C144.455 176.62 144.657 176.96 144.959 177.199C145.25 177.429 145.659 177.227 145.586 176.839C145.501 176.395 145.17 176.034 144.856 175.724Z" fill="black"/>
<path d="M145.638 173.489C145.402 173.148 145.075 172.927 144.711 172.736C144.359 172.552 143.971 172.397 143.584 172.312C142.811 172.144 142.057 172.173 141.283 172.305C140.985 172.356 141.05 172.868 141.354 172.834C142.023 172.76 142.713 172.881 143.345 173.103C143.654 173.212 143.95 173.336 144.238 173.492C144.538 173.656 144.81 173.864 145.124 174.001C145.278 174.068 145.449 174.068 145.576 173.943C145.687 173.833 145.732 173.624 145.638 173.489Z" fill="black"/>
<path d="M150.969 174.009C150.755 173.781 150.515 173.575 150.26 173.396C149.772 173.053 149.182 172.834 148.603 172.706C148.331 172.646 148.237 173.031 148.496 173.122C149.01 173.303 149.432 173.607 149.818 173.968C149.917 174.062 150.014 174.158 150.105 174.259C150.148 174.308 150.191 174.357 150.232 174.407C150.257 174.438 150.281 174.468 150.306 174.499C150.27 174.453 150.307 174.502 150.323 174.523C150.511 174.781 150.65 175.098 150.917 175.283C151.159 175.449 151.517 175.224 151.503 174.942C151.485 174.579 151.208 174.263 150.969 174.009Z" fill="black"/>
<path d="M142.621 178.077C142.56 177.905 142.489 177.746 142.386 177.596C142.181 177.294 141.942 177.058 141.646 176.845C141.143 176.482 140.473 176.38 139.868 176.448C139.749 176.461 139.647 176.531 139.634 176.658C139.622 176.767 139.689 176.9 139.809 176.919C140.078 176.961 140.24 177.025 140.472 177.165C140.589 177.234 140.698 177.311 140.808 177.389C140.813 177.393 140.811 177.391 140.814 177.393C140.817 177.396 140.815 177.394 140.82 177.398C140.841 177.416 140.862 177.434 140.883 177.452C140.934 177.496 140.981 177.542 141.03 177.588C141.125 177.677 141.215 177.769 141.298 177.869C141.32 177.896 141.34 177.923 141.361 177.949C141.368 177.958 141.375 177.967 141.382 177.976C141.391 177.987 141.39 177.985 141.393 177.989C141.423 178.031 141.464 178.095 141.468 178.101C141.538 178.209 141.6 178.323 141.661 178.436C141.693 178.495 141.72 178.557 141.752 178.615C141.765 178.639 141.78 178.663 141.794 178.686C141.813 178.717 141.946 178.89 141.863 178.779C141.973 178.926 142.11 179.02 142.304 178.994C142.461 178.973 142.649 178.844 142.672 178.672C142.699 178.463 142.693 178.278 142.621 178.077Z" fill="black"/>
<path d="M133.672 170.142C133.331 169.718 132.843 169.413 132.347 169.201C132.249 169.159 132.123 169.17 132.068 169.276C132.019 169.37 132.041 169.504 132.143 169.556C132.375 169.673 132.596 169.81 132.802 169.968C132.783 169.953 132.789 169.958 132.804 169.97C132.815 169.979 132.826 169.988 132.838 169.997C132.863 170.017 132.888 170.038 132.912 170.059C132.962 170.101 133.01 170.144 133.06 170.185C133.163 170.27 133.261 170.361 133.36 170.45C133.444 170.527 133.587 170.543 133.67 170.452C133.758 170.358 133.749 170.238 133.672 170.142Z" fill="black"/>
<path d="M132.677 170.83C132.621 170.701 132.523 170.603 132.416 170.515C132.31 170.427 132.199 170.345 132.081 170.275C131.867 170.148 131.629 170.052 131.387 169.996C131.258 169.966 131.109 170.041 131.08 170.177C131.049 170.321 131.127 170.435 131.26 170.484C131.274 170.489 131.287 170.494 131.301 170.499C131.317 170.505 131.355 170.526 131.294 170.495C131.317 170.507 131.341 170.516 131.365 170.527C131.415 170.55 131.464 170.575 131.511 170.602C131.559 170.628 131.606 170.657 131.652 170.688C131.674 170.702 131.696 170.717 131.717 170.732C131.725 170.738 131.734 170.744 131.742 170.751C131.824 170.817 131.902 170.887 131.974 170.964C132.012 171.004 132.046 171.047 132.082 171.089C132.135 171.148 132.202 171.193 132.265 171.24C132.316 171.279 132.396 171.284 132.456 171.276C132.518 171.267 132.583 171.241 132.627 171.194C132.664 171.154 132.691 171.107 132.707 171.055C132.732 170.977 132.708 170.901 132.677 170.83Z" fill="black"/>
<path d="M66.443 174.313C65.8875 174.412 65.352 174.712 64.8262 174.916C64.2886 175.124 63.7437 175.316 63.1871 175.468C62.208 175.735 61.1518 175.904 60.1407 175.726C58.5892 175.452 56.9563 174.334 56.8076 172.65C56.7514 172.012 56.0616 171.719 55.5713 172.137C54.2519 173.263 52.5379 174.096 50.9282 174.711C49.2982 175.334 47.6093 175.812 45.8872 176.098C45.4392 176.172 45.546 176.897 45.993 176.881C47.8597 176.813 49.6984 176.494 51.4558 175.853C52.9254 175.317 54.2466 174.589 55.5696 173.805C56.1048 175.457 57.6348 176.671 59.322 177.13C60.5323 177.459 61.8225 177.373 63.0358 177.106C63.71 176.958 64.3678 176.743 65.0134 176.501C65.6566 176.259 66.4285 176.032 66.982 175.622C67.6297 175.142 67.2724 174.166 66.443 174.313Z" fill="black"/>
<path d="M103.014 185.062C102.068 186.136 100.866 186.944 99.3895 186.954C97.9769 186.963 96.6236 186.212 95.8451 185.041C95.5382 184.579 95.0318 184.553 94.6148 184.872C92.9967 186.11 91.0146 187.456 88.8759 187.319C87.1756 187.21 85.6881 186.107 85.4096 184.397C85.3156 183.82 84.5896 183.768 84.2208 184.074C82.8716 185.197 81.1442 186.011 79.5072 186.614C77.8632 187.219 76.1267 187.629 74.3947 187.885C73.8443 187.966 73.9781 188.862 74.5242 188.843C76.4218 188.778 78.2537 188.414 80.0407 187.771C81.5353 187.233 82.8843 186.496 84.232 185.701C84.8379 187.422 86.673 188.588 88.452 188.818C90.881 189.131 93.0995 187.889 95.0174 186.503C96.0995 187.731 97.635 188.509 99.3043 188.537C101.198 188.57 103.174 187.576 104.106 185.905C104.476 185.242 103.549 184.455 103.014 185.062Z" fill="black"/>
<path d="M182.825 166.399C182.363 166.48 181.961 166.731 181.525 166.894C181.147 167.036 180.754 167.147 180.359 167.227C179.467 167.408 178.528 167.389 177.644 167.174C176.015 166.776 174.605 165.756 173.702 164.346C173.405 163.882 172.713 163.842 172.423 164.344C171.652 165.679 170.358 166.627 168.84 166.93C168.038 167.089 167.197 167.029 166.41 166.821C165.59 166.604 164.943 166.129 164.174 165.826C163.815 165.684 163.503 166.167 163.684 166.467C164.182 167.291 165.295 167.82 166.182 168.101C167.124 168.399 168.136 168.45 169.109 168.289C170.67 168.032 172.063 167.165 173.065 165.961C174.159 167.294 175.657 168.29 177.351 168.679C178.406 168.92 179.494 168.93 180.557 168.743C181.597 168.561 182.865 168.176 183.511 167.292C183.855 166.821 183.285 166.319 182.825 166.399Z" fill="black"/>
</svg>
