<svg width="228" height="228" viewBox="0 0 228 228" fill="none" xmlns="http://www.w3.org/2000/svg">
<path d="M206.855 101.199C206.608 98.152 206.3 95.1098 205.93 92.075C205.625 89.5701 205.343 86.9754 204.75 84.498C204.168 79.0714 200.02 74.6565 195.889 71.3553C191.461 67.8168 186.395 65.2342 180.975 63.5808C167.674 59.523 153.216 60.9768 139.534 61.4553C124.974 61.9645 110.413 62.4737 95.8526 62.9828C88.6246 63.2356 81.3968 63.4884 74.1689 63.7411C67.2074 63.9846 60.1963 64.024 53.2612 64.7216C46.2047 65.4315 39.132 66.9918 33.1057 70.8998C30.5607 72.5502 28.0689 74.6175 26.1417 77.0597C26.0239 77.1364 25.9031 77.1917 25.7889 77.2903C22.1222 80.4563 20.8495 85.7558 21.0139 90.4418C21.2206 96.3296 21.3609 102.215 21.7135 108.098C22.455 120.47 23.7249 132.806 25.6157 145.055C26.687 151.997 27.9825 158.874 29.65 165.699C30.0265 167.24 32.6922 166.963 32.4729 165.317C32.4041 164.802 32.3389 164.286 32.2705 163.77C32.295 163.765 32.3199 163.762 32.3444 163.757C32.4284 161.38 32.5098 159.008 32.4085 156.63C32.374 155.821 32.3349 155.011 32.2995 154.202C32.9506 154.224 33.602 154.2 34.201 154.17C35.6329 154.099 37.0654 153.942 38.4901 153.788C39.9197 153.634 41.3493 153.479 42.7787 153.325C43.5214 153.245 44.37 153.218 45.1576 153.058C45.1769 153.622 45.2 154.185 45.2436 154.756C45.3477 156.121 45.4518 157.486 45.556 158.852C45.6601 160.217 45.7433 161.585 45.8783 162.947C45.949 163.659 46.0313 164.32 46.5307 164.88C47.0917 165.509 47.913 165.726 48.7048 165.435C50.1844 164.891 50.0279 163.347 49.8832 162.086C49.7208 160.67 49.5388 159.26 49.3445 157.848L49.0614 155.793C49.0026 152.225 48.9682 148.656 48.9187 145.09C50.2501 145.014 51.5507 144.77 52.8283 144.431C54.5106 144.458 56.2146 144.192 57.8136 143.744C59.4211 143.294 61.0141 142.594 62.4577 141.757C63.5893 141.102 64.4215 140.298 65.2361 139.41C69.2735 141.743 74.0913 143.306 78.7241 142.809C82.13 142.443 85.3921 141.242 88.204 139.349C89.2606 138.737 90.2578 138.026 91.1824 137.217C96.4623 140.467 102.354 142.185 108.661 141.791C111.27 141.628 113.834 141.129 116.288 140.318C119.881 139.426 123.314 137.875 126.38 135.691C129.918 137.766 133.68 139.537 137.574 140.888C140.811 142.688 144.986 142.604 148.501 141.755C150.451 141.284 152.368 140.517 154.103 139.509C155.375 138.769 157.039 137.772 157.994 136.461C163.287 140.552 170.607 142.292 176.979 140.272C176.984 142.202 176.99 144.131 176.991 146.061C176.992 147.508 176.985 148.954 176.968 150.401C176.958 151.288 176.871 152.147 176.988 152.945C176.991 152.959 176.992 152.973 176.995 152.987C177.034 153.235 177.095 153.477 177.184 153.712C177.16 155.069 177.118 156.425 177.086 157.782C177.154 157.826 177.226 157.861 177.294 157.905C177.23 158.645 177.171 159.386 177.138 160.13C177.088 161.231 176.957 162.369 177.549 163.367C178.386 164.78 180.334 165.119 181.548 163.975C182.542 163.038 182.481 161.692 182.473 160.445C182.463 159.014 182.497 157.564 182.442 156.124C182.59 154.05 182.747 151.977 182.876 149.9C184.689 150.464 186.505 150.936 188.425 151.18C190.807 151.483 193.17 151.563 195.557 151.466C195.489 152.411 195.426 153.357 195.354 154.302C195.28 155.276 195.191 156.249 195.113 157.222C194.813 158.127 194.526 159.035 194.304 159.962C193.795 162.081 192.616 164.973 194.62 166.679C196.633 168.391 199.406 167.735 200.934 165.753C201.904 164.494 202.381 162.889 202.663 161.285C203.142 160.483 203.392 159.521 203.566 158.597C203.856 157.058 204.04 155.494 204.264 153.944C204.294 153.734 204.326 153.525 204.358 153.316C204.967 151.386 205.191 149.355 205.474 147.285C205.892 144.224 206.257 141.156 206.56 138.082C207.167 131.906 207.473 125.707 207.531 119.502C207.588 113.391 207.348 107.291 206.855 101.199ZM142.935 87.7847C143.126 86.6946 143.316 85.6045 143.507 84.5143C143.865 82.4692 144.201 80.4203 144.541 78.3721C145.115 74.9164 145.764 71.3981 145.928 67.8814C151.959 67.9395 157.988 68.1217 164.01 68.4479C164.123 68.454 164.237 68.4598 164.35 68.4659C164.086 69.3982 163.887 70.3546 163.656 71.2456C163.126 73.2985 162.591 75.3503 162.065 77.4043C161.556 79.3923 161.033 81.3768 160.495 83.3573C159.935 85.4214 159.151 87.4954 159.1 89.6473C159.1 89.6488 159.1 89.65 159.1 89.6515C153.656 89.2375 148.206 88.912 142.752 88.6895C142.822 88.4055 142.879 88.1058 142.935 87.7847ZM142.382 67.8738C141.471 71.0922 140.956 74.4404 140.388 77.7219C140.033 79.7673 139.678 81.8125 139.342 83.8609C139.162 84.954 138.983 86.047 138.803 87.14C138.719 87.6515 138.661 88.1039 138.662 88.5372C132.614 88.3441 126.563 88.2617 120.511 88.3043C120.511 88.2148 120.511 88.1277 120.508 88.0342C120.48 86.9276 120.461 85.8208 120.405 84.7152C120.302 82.6408 120.191 80.5668 120.084 78.4926C119.977 76.4144 119.839 74.3376 119.596 72.271C119.467 71.1742 119.315 70.0807 119.164 68.9867C119.136 68.7837 119.096 68.5866 119.057 68.3892C126.827 68.0404 134.603 67.8619 142.382 67.8738ZM116.268 68.5283C116.252 68.6759 116.232 68.8221 116.222 68.9718C116.152 70.077 116.111 71.1855 116.078 72.2924C116.017 74.3671 116.062 76.4423 116.139 78.5165C116.215 80.5909 116.287 82.6655 116.367 84.7396C116.409 85.847 116.487 86.9523 116.556 88.0583C116.562 88.153 116.569 88.2449 116.575 88.3377C110.786 88.428 104.998 88.619 99.2143 88.9285C99.2501 88.2549 99.0324 87.559 98.8211 86.8838C98.491 85.8284 98.1613 84.7729 97.831 83.7175C97.2111 81.738 96.5476 79.7716 95.9007 77.8007C95.2457 75.8042 94.6249 73.7761 93.8247 71.8318C93.5889 71.2589 93.3717 70.6586 93.1056 70.0869C100.818 69.44 108.54 68.9126 116.268 68.5283ZM74.8405 71.8044C79.7439 71.2973 84.653 70.8318 89.5652 70.3987C89.5905 71.6646 90.1192 73.0786 90.4204 74.1249C90.975 76.0514 91.5717 77.9626 92.1733 79.8749C92.7751 81.7874 93.3716 83.7012 94 85.6051C94.3536 86.6763 94.6156 88.0624 95.1816 89.1666C87.831 89.6217 80.4842 90.2321 73.1601 91.039C73.0426 90.5247 72.9177 90.0716 72.5974 89.6002C72.2614 89.1061 71.859 88.6487 71.4885 88.1799C70.7859 87.2904 70.0768 86.406 69.3615 85.5267C67.9309 83.7683 66.466 82.0399 64.9736 80.3339C62.932 78.0001 60.8394 75.733 58.6142 73.5945C64.0197 72.9681 69.4278 72.3642 74.8405 71.8044ZM41.8167 75.849C45.7916 74.9802 49.8254 74.5621 53.9077 74.1221C56.4176 77.2572 59.078 80.257 61.6869 83.3134C63.1181 84.99 64.5272 86.686 65.9244 88.3909C66.6029 89.2188 67.2758 90.0511 67.9432 90.8879C68.1242 91.115 68.301 91.3482 68.48 91.5796C65.2495 91.9718 62.0242 92.4011 58.8057 92.8706C56.6514 93.1849 54.3819 93.4026 52.2063 93.858C50.9535 92.1307 49.3265 90.5998 47.7847 89.1354C46.2192 87.6486 44.5978 86.2206 42.9255 84.8549C41.2136 83.4568 39.4287 82.1456 37.6042 80.8984C36.4356 80.0995 35.2609 79.3757 34.0055 78.8064C36.2952 77.3171 39.022 76.4599 41.8167 75.849ZM29.7753 110.914C29.3927 105.259 29.0156 99.6033 28.7024 93.9442C28.5648 91.4575 28.45 88.8969 28.931 86.4393C29.0343 85.9115 29.1736 85.3809 29.342 84.8604C29.346 84.8629 29.3497 84.8655 29.3536 84.868C29.3672 84.6778 29.3906 84.4881 29.4196 84.3C29.4508 84.0976 29.5041 83.9025 29.579 83.7118C29.8245 83.0867 30.175 82.5156 30.6542 82.0414C30.7623 81.8707 30.8743 81.7071 30.988 81.5475C32.2096 82.7542 33.5765 83.7789 34.9619 84.8211C36.5119 85.9871 38.0025 87.2323 39.4809 88.4873C40.9987 89.7757 42.4719 91.1166 43.8971 92.5067C45.1496 93.7284 46.3118 95.0965 47.5762 96.3165C47.1534 96.5081 46.7309 96.7017 46.3147 96.9092C46.2526 96.997 46.1846 97.0786 46.1242 97.1681C45.1958 98.5442 44.4981 100.014 43.9917 101.593C43.7405 102.376 43.5188 103.186 43.4142 104.003C43.3205 104.736 43.4466 105.492 43.3294 106.216C43.3582 106.994 43.4013 107.767 43.4317 108.525C43.4564 109.139 43.4811 109.754 43.5058 110.369C43.1463 110.371 42.7858 110.389 42.4406 110.392C41.6832 110.398 40.9258 110.404 40.1684 110.41C38.7614 110.42 37.3552 110.475 35.9489 110.517C34.5418 110.561 33.1357 110.644 31.73 110.721C31.0741 110.757 30.425 110.829 29.7753 110.914ZM30.9818 129.537C30.6919 124.537 30.3566 119.541 30.0185 114.544C30.5952 114.61 31.1722 114.667 31.7541 114.694C33.1605 114.759 34.5676 114.829 35.9752 114.86C37.382 114.891 38.7887 114.932 40.1958 114.931C40.9532 114.93 41.7108 114.929 42.4682 114.929C42.866 114.928 43.2801 114.952 43.6895 114.944C43.7347 116.069 43.78 117.195 43.8252 118.32C43.9611 121.707 44.1143 125.093 44.2744 128.478C42.135 128.726 39.9888 128.931 37.8405 129.044C36.3779 129.121 34.9096 129.182 33.4515 129.319C32.6349 129.395 31.787 129.443 30.9875 129.631C30.9856 129.599 30.9837 129.568 30.9818 129.537ZM42.446 149.008C41.0166 149.18 39.5871 149.351 38.1576 149.523C36.6575 149.703 35.1458 149.884 33.6582 150.152C33.1704 150.24 32.651 150.349 32.1322 150.477C32.0892 149.54 32.0503 148.604 32.0059 147.668C31.9365 146.201 31.8538 144.735 31.7733 143.269C31.5801 141.966 31.5651 140.624 31.5586 139.315C31.4341 137.159 31.3058 135.003 31.1776 132.846C31.2116 132.855 31.2431 132.867 31.2776 132.875C31.997 133.039 32.7419 133.098 33.475 133.176C34.9868 133.338 36.5234 133.344 38.0419 133.301C40.1987 133.239 42.3476 133.096 44.4908 132.876C44.5973 135.019 44.7051 137.162 44.8163 139.305C44.825 139.335 44.8432 139.357 44.8473 139.391C44.9154 139.958 44.9229 140.538 44.9117 141.119C44.921 141.277 44.9302 141.434 44.9388 141.591C44.9314 141.59 44.9244 141.587 44.9171 141.586C44.9438 142.009 44.9326 142.435 44.9199 142.862C44.9335 143.024 44.9581 143.186 44.9686 143.349C44.9737 143.427 44.9737 143.51 44.9782 143.589C45.0527 144.049 45.1156 144.511 45.1475 144.977C45.1651 145.233 45.1765 145.502 45.1788 145.773C45.2176 146.458 45.2558 147.143 45.2967 147.828C45.3115 148.137 45.3268 148.445 45.3417 148.754C44.3952 148.657 43.3479 148.899 42.446 149.008ZM157.875 129.761C156.855 128.475 154.897 129.09 154.138 130.242C152.308 133.018 149.417 134.922 146.23 135.786C144.626 136.222 142.97 136.38 141.309 136.332C140.939 136.322 140.577 136.278 140.215 136.229C135.437 134.694 130.914 132.366 126.664 129.631C125.668 128.989 124.29 129.268 123.465 130.042C116.069 136.974 103.436 138.822 94.3066 134.088C93.7723 133.753 93.2436 133.408 92.7344 133.031C92.5918 132.926 92.4099 132.874 92.2174 132.849C92.0553 132.739 91.8831 132.646 91.7242 132.531C91.0132 132.017 89.7489 132.223 89.1727 132.859C85.0398 137.42 78.2262 139.836 72.3007 138.386C70.1036 137.71 68.0612 136.573 66.3648 134.925C65.9597 134.531 65.2997 134.378 64.7587 134.588C64.2629 134.613 63.7691 134.807 63.3456 135.168C62.3577 136.01 61.0007 136.597 59.8845 137.252C58.7252 137.933 57.5228 138.438 56.2436 138.844C53.8189 139.613 51.3241 139.742 48.8303 140.075C48.7989 138.464 48.7674 136.853 48.733 135.242C48.5765 134.158 48.5553 133.045 48.5594 131.959C48.5637 130.838 48.6036 129.714 48.5992 128.592C48.5917 128.244 48.585 127.896 48.5782 127.547C48.5622 127.152 48.5422 126.757 48.5022 126.362C48.4891 126.233 48.5094 126.109 48.5469 125.992C48.5337 125.302 48.5212 124.611 48.5051 123.92C48.3597 117.671 47.9931 111.41 47.9827 105.159C47.9794 103.152 48.0806 100.816 49.8216 99.6858C50.7908 99.0565 51.9745 98.8289 53.0952 98.6287C54.6035 98.3594 56.1294 98.1744 57.6472 97.9676C82.7776 94.5435 108.095 92.9536 133.459 93.5549C146.669 93.8681 159.86 94.7272 172.997 96.1451C173.526 96.9013 173.971 97.7164 174.337 98.5776C174.921 100.778 175.457 102.987 175.928 105.21C176.416 109.572 176.518 113.993 176.703 118.375C176.794 120.548 176.865 122.722 176.932 124.895C176.933 128.226 176.95 131.557 176.965 134.889C170.173 137.348 162.51 135.61 157.875 129.761ZM176.911 90.4679C176.91 90.4921 176.913 90.5147 176.909 90.5394C176.866 90.8586 176.702 91.0919 176.476 91.237C176.467 91.2596 176.452 91.2794 176.444 91.3021C176.416 91.2983 176.389 91.2908 176.361 91.287C176.145 91.3901 175.895 91.4353 175.634 91.3893C175.284 91.3275 174.936 91.2534 174.59 91.1736C174.469 91.1458 174.357 91.0996 174.243 91.0579C174.062 91.0527 173.878 91.0313 173.699 91.0124C173.35 90.9757 172.97 90.917 172.598 90.823C172.59 90.8397 172.577 90.8537 172.569 90.8708C169.372 90.5299 166.172 90.237 162.97 89.9659C163.841 88.1854 164.215 86.143 164.719 84.2411C165.243 82.2572 165.754 80.2696 166.25 78.2782C166.745 76.2873 167.203 74.2836 167.636 72.2783C167.89 71.1082 168.199 69.8964 168.353 68.682C172.072 68.8937 175.797 69.1729 179.363 69.7964C179.913 69.8927 180.464 69.9986 181.011 70.1144C184.122 71.2216 187.103 72.6644 189.883 74.5512C190.178 74.7518 190.46 74.9716 190.748 75.183C188.678 77.3242 186.631 79.4862 184.65 81.7129C183.219 83.3209 181.788 84.929 180.357 86.537C179.599 87.3883 178.842 88.2397 178.084 89.091C177.687 89.5365 177.257 89.9823 176.911 90.4679ZM196.633 133.35C196.633 133.535 196.618 133.719 196.608 133.904C196.604 134.77 196.506 135.649 196.502 136.482C196.496 138.08 196.452 139.689 196.213 141.269C196.116 142.974 196.021 144.679 195.91 146.384C195.306 146.32 194.769 146.573 194.392 146.987C192.579 147.048 190.76 147.03 188.952 146.946C187.001 146.856 185.013 146.782 183.06 146.56C183.168 144.579 183.248 142.597 183.323 140.615C183.33 139.776 183.334 138.937 183.374 138.099C183.407 137.435 183.438 136.729 183.525 136.037C183.51 136.035 183.495 136.034 183.48 136.032C183.484 135.851 183.493 135.67 183.497 135.489C183.586 133.095 183.612 130.7 183.586 128.305C184.076 128.316 184.562 128.307 185.01 128.316C186.469 128.343 187.936 128.339 189.395 128.295C191.863 128.22 194.415 128.181 196.886 127.865C196.815 129.694 196.723 131.522 196.633 133.35ZM197.189 118.384C197.15 120.034 197.087 121.683 197.035 123.333C195.831 123.387 194.623 123.548 193.424 123.638C192.019 123.744 190.613 123.823 189.206 123.899C187.799 123.974 186.392 124.043 184.984 124.105C184.513 124.125 183.999 124.122 183.482 124.141C183.349 120.767 183.104 117.396 182.739 114.034C182.657 113.225 182.558 112.417 182.463 111.608C185.379 111.03 188.272 110.361 191.169 109.693C192.632 109.356 194.095 109.019 195.558 108.682C196.154 108.545 196.753 108.411 197.348 108.262C197.319 111.637 197.27 115.011 197.189 118.384ZM197.363 103.69C197.169 103.711 196.972 103.737 196.751 103.781C195.959 103.942 195.176 104.15 194.392 104.343C192.934 104.701 191.477 105.059 190.02 105.417C187.309 106.083 184.604 106.751 181.913 107.49C181.315 103.52 180.545 99.5811 179.539 95.6908C179.41 95.1943 179.174 94.8203 178.884 94.5354C178.944 94.3188 178.987 94.1008 178.985 93.8873C179.776 93.5802 180.319 92.9549 180.939 92.2529C181.693 91.3983 182.448 90.5439 183.202 89.6894C184.669 88.0279 186.136 86.3663 187.603 84.7048C189.66 82.3757 191.641 79.9872 193.596 77.5761C195.181 79.9852 196.086 82.7711 196.632 85.7974C197.469 90.4363 197.358 95.4877 197.375 100.296C197.379 101.428 197.365 102.559 197.363 103.69Z" fill="black"/>
<path d="M128.509 107.326C126.72 107.467 125.061 108.28 123.332 108.731C121.641 109.172 119.933 109.467 118.187 109.555C116.984 109.615 115.784 109.568 114.589 109.459C115.704 109.038 116.739 108.325 117.488 107.39C117.517 107.359 117.551 107.334 117.58 107.303C120.089 104.553 119.554 99.9846 116.643 97.7422C114.071 95.7605 110.649 96.5799 108.586 98.7409C108.027 99.1826 107.559 99.7307 107.211 100.372C106.715 101.184 106.4 102.112 106.309 103.09C106.237 103.868 106.342 104.67 106.576 105.438C106.209 104.9 105.848 104.353 105.508 103.777C104.511 101.499 103.502 99.2258 102.517 96.9424C102.165 96.1283 101.016 95.8623 100.27 96.1832C99.459 96.5318 98.9627 97.4226 99.2095 98.3047C99.4321 99.1008 99.7014 99.8848 99.9907 100.662C100.358 102.123 100.925 103.542 101.529 104.916C102.391 106.878 103.462 108.738 104.694 110.488C103.486 111.339 102.221 112.086 100.734 112.567C98.3904 113.326 96.1836 113.253 93.8197 113.129C93.6658 113.091 93.5132 113.046 93.3517 113.038C93.0475 113.022 92.7731 113.03 92.4706 113.066C92.4421 113.069 92.4137 113.073 92.3853 113.077C91.7842 113.073 91.1737 113.123 90.5737 113.236C90.239 113.255 89.9053 113.291 89.5696 113.288C88.9368 113.282 88.3028 113.248 87.6727 113.193C87.627 113.189 87.5971 113.186 87.5782 113.185C87.5717 113.184 87.5705 113.184 87.5632 113.183C87.4145 113.163 87.2663 113.14 87.1182 113.115C86.7857 113.059 86.455 112.994 86.1265 112.918C83.7105 112.358 81.5452 111.484 79.4933 109.986C78.9986 109.625 78.2255 109.862 77.8895 110.312C77.4904 110.846 77.5863 111.441 77.9803 111.946C79.835 114.322 82.3212 116.047 85.1867 116.986C85.6066 117.124 86.0349 117.24 86.4666 117.345C86.463 117.558 86.4701 117.771 86.4927 117.983C86.35 118.841 86.5611 119.764 87.1045 120.447C87.1038 120.473 87.0977 120.499 87.0975 120.526C87.0951 120.779 87.1318 121.018 87.161 121.261C85.2054 120.974 83.3064 120.334 81.6121 119.301C80.2521 118.472 78.7653 120.398 79.9012 121.517C79.9663 121.581 80.038 121.635 80.104 121.698C80.1448 121.832 80.2066 121.965 80.312 122.088C81.8276 123.868 83.4931 125.082 85.7008 125.886C87.7452 126.631 89.9816 126.882 92.144 126.679C92.2763 126.667 92.4066 126.64 92.5385 126.625C95.6887 127.299 98.8249 126.107 101.532 124.532C104.229 122.963 106.918 121.179 109.17 119.007C110.898 117.341 112.342 115.318 113.142 113.062C114.806 113.343 116.511 113.437 118.21 113.387C120.15 113.329 122.122 113.085 124.005 112.61C125.938 112.122 128.215 111.487 129.608 109.981C130.458 109.061 129.939 107.213 128.509 107.326Z" fill="black"/>
<path d="M113.308 102.498C113.307 102.505 113.308 102.507 113.307 102.513C113.309 102.509 113.311 102.505 113.313 102.502C113.313 102.496 113.313 102.496 113.313 102.491C113.312 102.494 113.31 102.494 113.308 102.498Z" fill="black"/>
<path d="M113.138 102.714C113.138 102.714 113.137 102.714 113.136 102.714C113.143 102.721 113.147 102.724 113.151 102.729C113.151 102.729 113.152 102.728 113.152 102.728C113.148 102.724 113.143 102.719 113.138 102.714Z" fill="black"/>
</svg>
