<svg width="228" height="228" viewBox="0 0 228 228" fill="none" xmlns="http://www.w3.org/2000/svg">
<path d="M108.306 144.389C106.145 145.004 104.168 145.685 102.218 146.219C98.1628 146.455 94.8171 145.076 92.025 141.283C89.1315 137.353 88.1839 132.581 86.1901 128.3C86.1119 127.917 86.0209 127.536 85.9151 127.159C84.2516 121.236 81.091 115.369 78.2095 109.824C79.4494 109.569 80.7235 109.423 82.0609 109.485C87.7884 109.751 93.1439 112.739 96.4011 117.452C98.2692 120.155 102.295 117.899 100.844 114.914C97.5374 108.109 91.6018 103.511 84.4714 101.159C81.8746 100.302 78.8537 99.7712 75.8602 99.7937C75.99 99.6965 76.1208 99.611 76.2502 99.5092C81.8631 95.0886 84.4322 87.5242 83.2266 80.9319C83.8759 75.4675 82.2104 70.1968 76.3802 66.4385C63.5653 58.1779 51.5898 73.9898 51.234 85.7448C51.0561 91.6214 53.3915 96.6285 57.0275 99.7688C57.1098 99.9214 57.1873 100.076 57.2771 100.225C57.0948 100.634 56.9467 101.06 56.7824 101.479C54.7847 101.868 53.0297 102.725 50.9409 103.127C47.6999 103.75 44.0836 103.296 41.0943 101.949C34.8116 99.118 32.0978 93.164 32.3005 86.5221C32.3876 83.6676 27.8244 83.0177 27.2653 85.895C25.6341 94.2876 28.774 103.874 35.7789 109.085C40.5172 112.61 48.1565 114.534 54.4183 113.042C54.3151 115.641 54.4659 118.231 54.8499 120.715C55.4392 124.528 56.7569 128.713 58.763 132.533C55.0178 133.328 51.5301 134.965 48.7125 137.752C41.988 144.401 42.1717 159.17 53.1798 161.283C56.6021 161.939 60.7097 158.071 58.2502 154.652C55.5834 150.945 55.9405 147.22 60.3486 145.109C65.6765 142.557 72.0063 145.24 77.525 145.751C78.0907 145.804 78.5955 145.763 79.0679 145.678C81.0286 149.381 83.9269 152.608 87.5189 154.962C95.4347 160.151 107.77 158.739 113.404 151.024C115.784 147.766 111.826 143.387 108.306 144.389Z" fill="black"/>
<path d="M84.1354 171.63C86.3216 171.67 88.5266 171.734 90.7473 171.818" stroke="black" stroke-width="4" stroke-miterlimit="10" stroke-linecap="round"/>
<path d="M99.5186 172.221C129.293 173.793 161.084 176.974 187.678 165.779C191.414 164.207 195.2 162.481 198.072 159.621C200.945 156.761 202.76 152.508 201.69 148.599C200.562 144.48 197.872 140.07 192.34 138.244C188.69 137.039 186.679 136.271 182.415 136.038C166.488 135.17 141.831 133.477 125.153 136.174C114.261 138.046 108.248 134.317 106.603 132.219C102.843 126.704 106.769 121.179 111.609 119.061C115.166 117.504 119.158 117.384 123.036 117.188C138.734 116.395 164.664 124.172 179.107 118.395C184.621 116.189 189.032 111.779 183.518 108.47C179.063 105.797 169.831 105.025 165.984 105.501C154.51 106.921 140.83 103.93 129.355 105.35C120.502 105.603 117.681 101.747 117.377 99.7872C117.508 95.9769 125.718 93.7609 129.355 93.0326C133.981 92.1063 146.772 91.2747 152.552 90.8271" stroke="black" stroke-width="4" stroke-miterlimit="10" stroke-linecap="round" stroke-dasharray="10 10"/>
<path d="M152.642 54.4376C147.466 54.4376 143.269 58.634 143.269 63.8107C143.269 68.9873 147.466 82.0055 152.642 82.0055C157.819 82.0055 162.015 68.9873 162.015 63.8107C162.015 58.6341 157.819 54.4376 152.642 54.4376ZM152.642 67.6702C150.511 67.6702 148.783 65.9422 148.783 63.8107C148.783 61.6792 150.511 59.9512 152.642 59.9512C154.774 59.9512 156.502 61.6792 156.502 63.8107C156.502 65.9422 154.774 67.6702 152.642 67.6702Z" fill="black"/>
</svg>
