<svg width="228" height="228" viewBox="0 0 228 228" fill="none" xmlns="http://www.w3.org/2000/svg">
<path d="M163.154 140.535C162.584 134.127 160.947 127.849 158.4 121.842C157.494 119.305 156.442 116.827 155.236 114.44C155.042 114.057 154.753 113.892 154.451 113.859C150.954 107.514 146.894 101.495 143.065 95.3389C141.376 92.2232 139.599 89.1572 137.718 86.1643C131.467 74.3887 127.519 61.2835 126.311 48.0057C126.156 46.3017 126.059 44.5907 125.984 42.8786C127.011 42.7667 128.033 42.3742 128.864 41.788C131.105 40.2067 131.961 37.3905 131.186 34.7898C129.218 28.1821 121.795 27.3282 115.98 28.1451C109.641 29.0356 103.625 31.602 98.1518 34.8559C93.1968 37.8017 87.8421 41.997 88.0081 48.3787C88.0903 51.5392 89.7315 54.4834 92.6888 55.7612C94.531 56.5572 96.6436 56.6745 98.3729 55.8836C99.257 59.513 99.5037 63.2351 99.277 66.9541C98.7405 69.7123 98.0447 72.434 97.1916 75.1117C96.3101 77.8775 95.0727 80.4316 93.836 83.048C93.2991 84.1839 92.7405 85.3098 92.1667 86.4275C91.8444 87.0552 91.5514 87.7295 91.1149 88.2818C90.6117 88.9187 90.0999 89.4731 89.6789 90.1804C88.99 91.3377 88.3287 92.5107 87.6445 93.6703C86.91 94.9154 85.931 95.972 85.2267 97.2286C79.5806 107.303 73.5867 117.207 69.306 127.967C65.0145 138.754 62.5544 150.455 64.5439 162.036C66.2994 172.255 71.8507 181.851 79.8569 188.446C84.6138 192.364 90.1837 195.209 96.1459 196.788C96.5826 196.904 97.0232 196.996 97.4625 197.096C102.511 199.092 107.927 200.015 113.357 199.961C129.072 200.581 144.384 193.76 154.319 181.048C163.625 169.14 166.309 154.51 163.154 140.535ZM155.235 167.478C155.174 167.623 155.11 167.767 155.047 167.911C154.73 168.654 154.391 169.386 154.038 170.109C153.827 170.538 153.605 170.962 153.382 171.385C153.086 171.946 152.788 172.507 152.471 173.053C152.328 173.302 152.177 173.546 152.031 173.792C151.593 174.513 151.14 175.224 150.663 175.915C142.035 187.722 127.492 194.793 112.966 194.937C111.996 194.902 111.048 194.778 110.066 194.763C108.761 194.744 107.475 194.638 106.184 194.46C105.275 194.335 104.371 194.183 103.469 194.017C99.4444 193.168 95.5272 191.731 91.8548 189.648C82.5683 184.38 75.3824 175.304 72.1584 165.15C68.4807 153.568 70.5312 141.504 75.4273 130.597C80.9041 118.397 89.1152 107.712 95.2123 95.8456C101.104 84.3787 105.173 71.1476 102.36 58.2068C101.984 56.4729 101.458 54.7819 100.824 53.1315C100.811 52.7568 100.659 52.402 100.417 52.1096C100.063 51.2653 99.6866 50.4297 99.2682 49.6123C98.4134 47.942 96.1071 49.3841 96.7969 51.0238C96.9342 51.3503 97.0447 51.6818 97.1674 52.0111C96.0325 52.3922 94.9379 52.2715 94.0618 51.7619C92.7619 49.9086 93.4795 47.2548 94.7335 45.5762C96.1276 43.71 98.2234 42.4738 100.224 41.3609C102.551 40.066 104.963 38.9275 107.41 37.8798C109.909 36.81 112.452 35.8453 114.998 34.8946C117.305 34.0332 119.695 32.9412 122.169 32.7046C122.797 32.6445 123.469 32.6671 124.131 32.7712C124.374 32.8794 124.611 32.9999 124.843 33.1336C126.409 34.0392 127.713 35.7803 127.469 37.6746C127.093 38.2065 126.534 38.6001 125.847 38.6858C125.843 38.42 125.835 38.154 125.832 37.8884C125.796 35.1278 121.748 35.2016 121.579 37.9143C120.737 51.4458 123.447 65.2177 128.607 77.7076C128.649 77.8106 128.696 77.9115 128.739 78.0143C128.745 78.2265 128.793 78.4421 128.908 78.6518C129.066 78.9378 129.225 79.2216 129.383 79.5072C131.976 85.3538 135.258 90.8534 138.712 96.2526C141.763 101.828 144.706 107.463 147.35 113.287C151.894 123.3 155.372 133.607 159.069 143.891C159.611 151.865 158.291 160.121 155.235 167.478Z" fill="black"/>
<path d="M154.553 137.574C154.434 137.106 154.238 136.723 153.99 136.415C153.995 135.897 153.744 135.388 153.127 135.074C135.345 126.022 114.42 123.972 95.1682 129.167C92.5489 129.873 89.9651 130.715 87.434 131.692C85.0487 132.613 82.5258 133.592 80.3402 134.962C80.3374 134.952 80.3303 134.945 80.3272 134.936C79.0222 135.832 77.7747 136.809 76.5854 137.853C74.2013 145.994 75.0375 155.177 78.0945 162.979C81.6357 172.016 88.2393 179.502 96.9454 183.857C105.966 188.37 116.741 189.24 126.434 186.519C135.955 183.845 143.983 177.627 149.166 169.23C155.027 159.735 157.32 148.493 154.553 137.574ZM87.2653 134.53C89.4464 133.698 91.6662 132.967 93.9137 132.337C98.5129 131.046 103.229 130.169 107.987 129.74C117.46 128.887 127.09 129.679 136.278 132.15C140.246 133.218 144.096 134.635 147.829 136.33C146.928 136.581 146.216 137.109 145.408 137.583C144.4 138.174 143.357 138.708 142.29 139.186C140.244 140.103 138.097 140.787 135.92 141.314C131.498 142.386 126.946 142.78 122.407 142.919C117.897 143.058 113.374 142.978 108.864 142.852C104.288 142.724 99.6938 142.46 95.1887 141.605C90.4441 140.704 86.1473 139.045 81.9483 136.754C83.7302 136.044 85.4737 135.214 87.2653 134.53ZM149.65 151.883C149.206 155.794 148.125 160.042 146.439 163.608C142.789 171.329 136.265 177.756 128.27 180.869C119.749 184.186 110.383 184.063 101.795 181.085C93.4858 178.203 86.8493 171.944 82.8876 164.16C78.6061 155.749 77.7208 146.359 79.9389 137.281C79.9788 137.354 80.0284 137.426 80.1045 137.49C87.2453 143.531 97.6315 144.579 106.61 144.981C116.068 145.404 125.901 145.771 135.218 143.81C137.704 143.287 140.147 142.564 142.499 141.601C144.517 140.774 147.31 139.755 148.746 137.977C148.701 138.328 148.715 138.706 148.819 139.115C149.872 143.271 150.134 147.622 149.65 151.883Z" fill="black"/>
<path d="M126.6 174.2C126.559 174.07 126.488 173.957 126.387 173.861C126.252 173.726 126.092 173.634 125.907 173.585C125.729 173.54 125.552 173.541 125.375 173.587C125.332 173.603 125.289 173.621 125.247 173.64C125.117 173.681 125.004 173.752 124.909 173.853C124.852 173.927 124.796 174.001 124.739 174.074C124.737 174.077 124.737 174.08 124.736 174.083C124.684 174.137 124.646 174.199 124.627 174.272C124.574 174.373 124.551 174.482 124.556 174.598C124.565 174.671 124.575 174.743 124.585 174.815C124.613 174.883 124.641 174.95 124.668 175.018C124.698 175.075 124.75 175.11 124.792 175.154C124.828 175.21 124.849 175.275 124.899 175.323C124.973 175.38 125.047 175.437 125.12 175.493C125.207 175.533 125.295 175.569 125.384 175.601C125.561 175.646 125.739 175.646 125.916 175.599C126.092 175.551 126.246 175.462 126.377 175.334C126.434 175.261 126.491 175.187 126.548 175.113C126.641 174.95 126.687 174.775 126.687 174.587C126.691 174.449 126.662 174.32 126.6 174.2Z" fill="black"/>
<path d="M140.217 160.536C139.116 160.536 139.123 162.248 140.228 162.248C141.329 162.248 141.322 160.536 140.217 160.536Z" fill="black"/>
<path d="M128.621 162.456C128.617 162.446 128.614 162.436 128.61 162.426C128.605 162.412 128.595 162.403 128.59 162.39C128.584 162.379 128.582 162.37 128.576 162.36C128.568 162.346 128.559 162.332 128.551 162.318C128.172 161.549 127.198 161.549 126.799 162.287L126.758 162.356C126.747 162.375 126.743 162.39 126.733 162.408C126.729 162.418 126.723 162.425 126.719 162.435C126.716 162.442 126.714 162.449 126.711 162.456C126.548 162.771 126.526 163.036 126.606 163.246C126.73 163.668 127.206 163.861 127.685 163.844C128.131 163.85 128.563 163.671 128.706 163.293C128.807 163.076 128.798 162.796 128.621 162.456Z" fill="black"/>
<path d="M107.689 160.063C107.671 159.997 107.653 159.93 107.635 159.863C107.605 159.79 107.575 159.717 107.544 159.644C107.486 159.532 107.405 159.442 107.3 159.376C107.24 159.315 107.169 159.274 107.086 159.252C106.976 159.195 106.858 159.17 106.732 159.175C106.653 159.186 106.575 159.197 106.497 159.207C106.423 159.237 106.35 159.267 106.277 159.298C106.165 159.356 106.075 159.437 106.009 159.542C105.923 159.635 105.866 159.745 105.838 159.871C105.82 159.938 105.802 160.005 105.783 160.072C105.746 160.198 105.741 160.324 105.769 160.45C105.775 160.578 105.813 160.697 105.882 160.808C105.933 160.876 105.985 160.944 106.036 161.012C106.054 161.029 106.08 161.032 106.098 161.048C106.129 161.077 106.148 161.119 106.185 161.143C106.244 161.202 106.314 161.242 106.395 161.264C106.503 161.32 106.619 161.345 106.743 161.339C106.82 161.329 106.897 161.319 106.975 161.308C107.046 161.278 107.118 161.249 107.19 161.219C107.243 161.192 107.275 161.142 107.317 161.104C107.32 161.101 107.325 161.101 107.328 161.098C107.339 161.091 107.343 161.078 107.353 161.071C107.384 161.039 107.429 161.019 107.454 160.979C107.464 160.968 107.465 160.95 107.475 160.938C107.513 160.895 107.564 160.864 107.592 160.811C107.625 160.73 107.658 160.648 107.692 160.567C107.735 160.399 107.734 160.231 107.689 160.063Z" fill="black"/>
<path d="M101.903 173.109C100.822 173.109 100.829 174.789 101.913 174.789C102.994 174.789 102.987 173.109 101.903 173.109Z" fill="black"/>
<path d="M93.7741 160.832L93.7733 160.828C93.7728 160.825 93.7721 160.822 93.7714 160.819C93.7267 160.655 93.6448 160.512 93.5255 160.39C93.3999 160.264 93.2512 160.178 93.0795 160.133C93.0364 160.124 92.9927 160.118 92.9487 160.116C92.9053 160.107 92.8615 160.101 92.8176 160.1C92.8123 160.1 92.8069 160.1 92.8017 160.1C92.7901 160.099 92.7786 160.099 92.767 160.099C92.7449 160.098 92.7228 160.097 92.7007 160.097C92.6555 160.095 92.6103 160.094 92.5651 160.092C92.4356 160.089 92.3144 160.116 92.2014 160.174C92.0796 160.212 91.9736 160.279 91.8838 160.374C91.7836 160.467 91.7137 160.576 91.674 160.703C91.6142 160.819 91.5873 160.943 91.5931 161.076C91.6043 161.159 91.6155 161.241 91.6267 161.324C91.6719 161.49 91.7546 161.634 91.8749 161.757L92.0826 161.917C92.2358 162.005 92.4005 162.049 92.5768 162.048L92.7126 162.044C92.7346 162.043 92.7567 162.043 92.7788 162.042C92.8836 162.039 92.9786 162.028 93.0874 162.006C93.2518 161.961 93.3948 161.879 93.5167 161.76C93.6423 161.634 93.728 161.485 93.7738 161.314C93.7907 161.232 93.81 161.146 93.8058 161.065C93.8052 161.053 93.7765 160.843 93.7741 160.832Z" fill="black"/>
<path d="M89.3446 149.668C87.9298 149.668 87.9389 151.867 89.3579 151.867C90.7727 151.867 90.7636 149.668 89.3446 149.668Z" fill="black"/>
<path d="M135.631 150.404C135.593 150.284 135.527 150.18 135.434 150.092C135.309 149.967 135.161 149.882 134.991 149.836C134.827 149.794 134.663 149.795 134.499 149.839C134.397 149.857 134.295 149.875 134.192 149.893L133.978 149.981C133.869 150.038 133.782 150.118 133.717 150.219C133.659 150.278 133.618 150.347 133.597 150.428C133.542 150.535 133.517 150.65 133.522 150.773C133.533 150.849 133.543 150.926 133.553 151.002C133.583 151.073 133.612 151.145 133.641 151.216C133.698 151.325 133.777 151.412 133.879 151.477C133.97 151.56 134.077 151.616 134.2 151.643C134.302 151.662 134.405 151.68 134.507 151.698C134.671 151.74 134.835 151.739 134.999 151.696C135.162 151.651 135.304 151.57 135.425 151.452C135.477 151.384 135.53 151.315 135.582 151.247C135.668 151.097 135.711 150.935 135.711 150.761C135.714 150.634 135.688 150.515 135.631 150.404Z" fill="black"/>
<path d="M117.035 153.106C115.902 153.106 115.91 154.867 117.046 154.867C118.179 154.867 118.172 153.106 117.035 153.106Z" fill="black"/>
<path d="M114.138 169.278C113.099 169.278 113.106 170.893 114.148 170.893C115.187 170.893 115.18 169.278 114.138 169.278Z" fill="black"/>
<path d="M99.005 151.167C97.8617 151.167 97.869 152.944 99.0158 152.944C100.159 152.944 100.152 151.167 99.005 151.167Z" fill="black"/>
<path d="M145.048 145.598C144.197 145.598 144.203 146.921 145.056 146.921C145.907 146.921 145.902 145.598 145.048 145.598Z" fill="black"/>
<path d="M95.3445 136.802C94.3474 136.802 94.3538 138.352 95.3539 138.352C96.351 138.352 96.3446 136.802 95.3445 136.802Z" fill="black"/>
<path d="M105.97 131.136C105.14 131.136 105.146 132.426 105.978 132.426C106.808 132.426 106.803 131.136 105.97 131.136Z" fill="black"/>
<path d="M115.639 139.143C115.636 139.102 115.632 139.061 115.629 139.02C115.633 138.892 115.606 138.773 115.549 138.662C115.511 138.542 115.446 138.438 115.352 138.35C115.261 138.251 115.153 138.183 115.028 138.144C114.915 138.085 114.792 138.058 114.661 138.064C114.58 138.075 114.499 138.086 114.418 138.097C114.255 138.141 114.113 138.223 113.992 138.341C113.939 138.409 113.887 138.477 113.834 138.545C113.748 138.696 113.705 138.858 113.706 139.031C113.703 139.072 113.699 139.114 113.696 139.155C113.693 139.195 113.689 139.233 113.694 139.273C113.703 139.353 113.712 139.434 113.722 139.514C113.718 139.639 113.745 139.757 113.801 139.866C113.838 139.984 113.902 140.086 113.995 140.173C114.084 140.27 114.19 140.337 114.313 140.376C114.424 140.433 114.545 140.46 114.673 140.454C114.753 140.443 114.833 140.432 114.913 140.421C115.073 140.378 115.213 140.298 115.332 140.181L115.487 139.981C115.571 139.833 115.613 139.673 115.613 139.503C115.622 139.422 115.632 139.342 115.641 139.261C115.646 139.221 115.642 139.183 115.639 139.143Z" fill="black"/>
<path d="M128.669 133.052C127.818 133.052 127.824 134.374 128.677 134.374C129.528 134.374 129.523 133.052 128.669 133.052Z" fill="black"/>
<path d="M106.728 136.026C106.723 135.927 106.694 135.834 106.64 135.748C106.6 135.695 106.56 135.642 106.52 135.589C106.421 135.49 106.303 135.422 106.167 135.386L105.7 135.323C105.558 135.287 105.417 135.287 105.275 135.325C105.21 135.352 105.144 135.379 105.079 135.406C104.949 135.48 104.846 135.583 104.771 135.713C104.71 135.81 104.677 135.914 104.673 136.026C104.65 136.132 104.655 136.238 104.688 136.344C104.713 136.452 104.762 136.546 104.834 136.626C104.894 136.721 104.975 136.795 105.076 136.849C105.206 136.923 105.346 136.96 105.496 136.96C105.657 136.938 105.818 136.916 105.979 136.895C106.08 136.898 106.175 136.876 106.264 136.831C106.36 136.801 106.443 136.748 106.513 136.674C106.555 136.619 106.597 136.565 106.639 136.511C106.695 136.421 106.725 136.325 106.729 136.222C106.745 136.157 106.745 136.091 106.728 136.026Z" fill="black"/>
<path d="M128.668 137.678C127.556 137.678 127.563 139.407 128.678 139.407C129.79 139.407 129.783 137.678 128.668 137.678Z" fill="black"/>
<path d="M139.112 136.401C139.086 136.338 139.06 136.274 139.033 136.21C138.982 136.113 138.912 136.035 138.821 135.977C138.74 135.903 138.645 135.854 138.535 135.829C138.497 135.82 138.458 135.81 138.419 135.801C138.313 135.774 138.2 135.741 138.09 135.747C138.008 135.751 137.926 135.757 137.844 135.763C137.732 135.76 137.627 135.783 137.529 135.833C137.423 135.867 137.331 135.925 137.253 136.007C137.167 136.087 137.106 136.182 137.071 136.293C137.019 136.393 136.996 136.501 137.001 136.616C137.011 136.688 137.021 136.759 137.03 136.831C137.069 136.975 137.141 137.1 137.246 137.207C137.306 137.253 137.366 137.299 137.426 137.345C137.559 137.422 137.702 137.459 137.854 137.459C137.936 137.464 138.019 137.471 138.101 137.475C138.206 137.48 138.322 137.445 138.426 137.419C138.465 137.41 138.503 137.4 138.542 137.391C138.605 137.364 138.669 137.338 138.733 137.312C138.83 137.261 138.908 137.19 138.966 137.1C139.018 137.047 139.054 136.985 139.073 136.914C139.122 136.818 139.145 136.716 139.14 136.606L139.112 136.401Z" fill="black"/>
<path d="M87.9789 136.123C87.9692 136.052 87.9596 135.981 87.95 135.91C87.9351 135.855 87.8928 135.817 87.8686 135.768C87.8526 135.729 87.8368 135.69 87.821 135.652C87.8087 135.629 87.7844 135.618 87.7704 135.596C87.7558 135.579 87.7531 135.554 87.7369 135.538C87.7209 135.522 87.7049 135.507 87.689 135.491C87.6969 135.505 87.7049 135.519 87.7129 135.533C87.6669 135.479 87.6303 135.414 87.5687 135.375C87.5064 135.313 87.4327 135.27 87.3477 135.248C87.2341 135.189 87.112 135.162 86.9816 135.168C86.9005 135.179 86.8195 135.19 86.7383 135.201C86.6627 135.232 86.5872 135.263 86.5113 135.294C86.4733 135.314 86.4533 135.352 86.4202 135.377C86.3693 135.401 86.3184 135.424 86.2675 135.448C86.1453 135.518 86.0485 135.615 85.9777 135.737C85.9075 135.859 85.8726 135.991 85.8729 136.133C85.8745 136.269 85.9088 136.397 85.976 136.516C86.0464 136.639 86.1427 136.735 86.265 136.806C86.3072 136.826 86.3493 136.845 86.3913 136.864C86.3976 136.869 86.3998 136.877 86.4062 136.881C86.4685 136.943 86.5422 136.985 86.6274 137.008C86.7409 137.067 86.8628 137.093 86.9932 137.088C87.0744 137.077 87.1553 137.066 87.2365 137.055C87.3121 137.024 87.3878 136.992 87.4635 136.961C87.5589 136.911 87.6282 136.835 87.6917 136.753C87.688 136.76 87.6844 136.766 87.6807 136.773C87.6968 136.757 87.7129 136.741 87.7291 136.726C87.7336 136.721 87.7341 136.715 87.7387 136.71C87.7392 136.71 87.7399 136.71 87.7403 136.709C87.7416 136.707 87.7416 136.705 87.7431 136.704C87.8188 136.628 87.8779 136.544 87.9093 136.443C87.9606 136.344 87.9839 136.237 87.9789 136.123Z" fill="black"/>
<path d="M143.943 113.751C142.991 109.775 141.362 105.929 139.168 102.479C138.313 101.133 137.022 99.4234 135.197 100.083C133.686 100.629 133.491 102.453 133.672 103.826C134.308 108.635 136.204 113.226 138.352 117.533C138.361 117.551 138.375 117.559 138.384 117.575C139.031 119.017 139.824 120.882 141.41 121.325C142.969 121.761 144.202 120.573 144.518 119.132C144.9 117.39 144.348 115.441 143.943 113.751ZM142.105 119.276C141.6 119.387 141.07 118.089 140.912 117.775C140.516 116.985 140.141 116.185 139.783 115.377C139.046 113.712 138.402 112.009 137.695 110.332C137.536 109.956 137.225 109.816 136.903 109.828C136.697 109.076 136.503 108.321 136.322 107.563C135.981 106.14 135.512 104.557 135.527 103.084C135.53 102.785 135.518 102.015 135.919 101.913C136.522 101.759 137.201 103.069 137.449 103.461C139.1 106.067 140.392 108.879 141.293 111.83C141.738 113.29 142.09 114.778 142.345 116.283C142.424 116.749 142.919 119.097 142.105 119.276Z" fill="black"/>
</svg>
