<?xml version="1.0" encoding="utf-8"?>
<!-- Generator: Adobe Illustrator 24.3.0, SVG Export Plug-In . SVG Version: 6.00 Build 0)  -->
<svg version="1.1" id="Layer_1" xmlns="http://www.w3.org/2000/svg" xmlns:xlink="http://www.w3.org/1999/xlink" x="0px" y="0px"
	 viewBox="0 0 80 80" style="enable-background:new 0 0 80 80;" xml:space="preserve">
<path d="M37.9,19.5l-0.3-3.1c-5.8,0.7-5.2-0.7-5.7-5.7c-0.2-0.6,0.3-0.9,0.6-1.3c0.2-0.3,0.5-0.6,0.9-0.7c3.3-1.2,6.9-1.8,10.4-2
	c1.2-0.2,2.6,0.4,2.6,1.8c0.1,1.6,0.4,3.2,0.6,4.8c0.1,2.1-2.5,1.6-3.8,2.1c-0.1,1.5,0,3,0.2,4.5c1.1,0.5,2.5,1,3,2.1
	c0.5,1.4-0.7,2-1.9,1.7c-2.3-0.5-4.7-0.4-7,0.2c-5.8,1.2-11.6,3.9-15.1,8.9c-2.1,2.9-4.5,5.8-5.2,9.5c-0.8,3.9-0.7,7.9,0.4,11.7
	c1.7,9,9.9,15.5,18.5,17.7c8.8,2,18.8-0.9,25-7.4c5.8-5.5,7.8-14.2,5.9-21.8c-1.6-6.7-6.5-12-12.1-15.8c-2-1.4-4.3-2.2-6.6-2.9
	c-0.5-0.2-0.8-2-0.7-2.4c0.1-0.4,2.1-0.5,2.6-0.5c6.7,1.4,12,6.3,16.1,11.6c6.6,9.2,6.4,23-1.6,31.3c-6.5,7.1-16.3,11.3-26,10.4
	c-10.9-1.1-20.4-9.3-23.6-19.6C9.5,38.3,21.3,21.6,37.9,19.5z"/>
<path d="M32.2,61.7c-0.6,0-2.2,1.5-3.3,0.2c-1-0.7,0-2.5,0.4-2.8c0,0,2.2-1.7,2.2-1.7c2.9-2.5,6.3-4.4,9.3-6.7
	c0.2-1.3-0.2-2.6-0.3-3.9c-0.5-5.2-0.6-10.4-0.4-15.6c0.9-2.2,3-1.9,3.1-0.5c0.5,1.1,0.7,1,0.8,1.4c0.1,6.5,0.3,13.2,1.1,19.6
	c0.1,0.9-0.8,1.2-1.3,1.7C40,56.3,35.9,58.8,32.2,61.7z"/>
<path d="M24.3,45c-0.4,1.2-1.3,2.2-2.6,2.5c-1.1,0.3-2.3-0.7-2.1-1.9c0.1-1.2,2.2-3.4,3.5-2.9C24,43.1,23.9,44,24.3,45z"/>
<path d="M40.3,66.7c0.5-2.2,3.5-1.7,3.7,0.4C43.9,69.7,40,69.2,40.3,66.7z"/>
<path d="M65.1,47.5c-0.2,2-3.2,2.1-3.3,0.1C62,45.7,65,45.5,65.1,47.5z"/>
</svg>
