<?xml version="1.0" encoding="utf-8"?>
<!-- Generator: Adobe Illustrator 24.3.0, SVG Export Plug-In . SVG Version: 6.00 Build 0)  -->
<svg version="1.1" id="Layer_1" xmlns="http://www.w3.org/2000/svg" xmlns:xlink="http://www.w3.org/1999/xlink" x="0px" y="0px"
	 viewBox="0 0 80 80" style="enable-background:new 0 0 80 80;" xml:space="preserve">
<path d="M24.3,66c-1.1,1.1-2.1,2.2-3.1,3.2c-0.5,0.6-1.4,1.1-2.1,0.7c-0.5-0.2-0.8-0.7-0.8-1.2c-0.1-1.8-0.1-3.5-0.1-5.3
	c-0.1-1.1,0.4-2.3,0.1-3.4c-2-3.4-2.1-7.5-1.3-11.2c0.1-0.3,0-0.4-0.3-0.5c-0.8-0.3-1.5-0.6-2.2-1c-1-0.5-1.1-1.9-0.2-2.5
	c1.5-1.3,3.1-2.5,4.6-3.8c0.5-0.4,0.9-0.8,1.5-0.9c0.1,0,0.2-0.2,0.3-0.3c1.7-2.8,3.7-5.3,6.2-7.5c0,0,0,0,0-0.1
	c-3.8-0.5-7.6-1.2-11.4-1.4c-1.8-0.4-4.2-0.2-5.8-1.3c-1.5-1.5,1.2-3.4,2.4-4.1c4.2-3.1,8.6-5.8,13.1-8.3C31.7,13.2,38.3,9.3,45,5.4
	c0.7-0.6,1.3-0.2,2-0.2C47.3,5,47.7,5,48,5.2c0.9,0.6,0.6,2,0.6,2.9c-0.6,2.9-1.1,5.8-1.8,8.7c-1.9,10.5-5.7,20.5-8.7,30.6
	c-0.2,0.7-0.1,1.5-0.7,2c-0.5,0.5-1.5,0.7-2.2,0.6c-0.8-0.6-1.7-0.9-2-2c-1.3-4.8-2.6-9.3-4.1-14.2c-2.3,1.9-3.9,4.5-5.7,6.8
	c-0.1,0.2-0.1,0.5-0.1,0.7c0,2.4,1,4.9,0.8,7.3c-0.8,2.1-2.9,1.2-4.4,0.6c-0.5,3-0.9,6,0.5,8.8c0.2,0.3,0.3,0.5,0.6,0.3
	c2.3,0.2,4.9-0.4,7,0.8c0.6,0.5,0.6,1.6,0.1,2.1c-0.6,0.9-1.3,1.7-1.9,2.5c2.9,1.1,6.2,2.2,9.3,2c0.2-0.5,0.7-0.6,1.1-0.9
	c1.8-1.4,3.4-3,4.7-4.8c0.6-0.8,2-0.8,2.5,0.1c0.3,0.6,0.2,1.2,0.1,1.9c3.7-4,5.1-9.5,5.6-14.9c0.8-5.4,1.4-12.1,6.3-15.4
	c7.6-4.3,14.5,1.3,12.3,9.7c-1,3.2-3.1,5.9-4.3,8.9c-0.6,1.2-0.3,2.5-0.1,3.7c0,0.8-0.7,1.4-1.5,1.3c-2-0.4-1.7-4.4-1.1-5.8
	c1.2-3.5,4.1-6.3,4.6-10.1c0.6-4-2.1-7.6-6.3-6.2c-2.7,0.4-4,2.3-5.1,4.5c-1.9,4.4-1.8,9.3-2.8,13.9c-1,5.3-3.2,10.1-7.3,13.9
	c-0.1,0.1-0.2,0.3-0.2,0.6c0.1,1.2,0.2,2.3,0.3,3.5c0.1,1.2-0.1,3-1.7,2.8c-1.9-0.8-3.5-2.5-5.3-3.7c-0.2-0.2-0.4-0.3-0.7-0.3
	C32.2,68.7,28,67.8,24.3,66z M45,8.7L45,8.7c-6.3,3.6-12.7,7.4-19,11c-4.4,2.6-8.9,5.1-13,8.2c3.4,0.4,6.8,0.5,10.2,1.1
	c1.8,0.3,3.7,0.5,5.6,0.6c0.2,0,0.4-0.1,0.5-0.2C34.3,22.3,39.8,15.6,45,8.7z"/>
</svg>
