<?xml version="1.0" encoding="utf-8"?>
<!-- Generator: Adobe Illustrator 24.3.0, SVG Export Plug-In . SVG Version: 6.00 Build 0)  -->
<svg version="1.1" id="Layer_1" xmlns="http://www.w3.org/2000/svg" xmlns:xlink="http://www.w3.org/1999/xlink" x="0px" y="0px"
	 viewBox="0 0 80 80" style="enable-background:new 0 0 80 80;" xml:space="preserve">
<style type="text/css">
	.st0{fill:#FFFFFF;}
</style>
<path d="M3.4,33.6c0.4-5.1,3.9-8.9,9.3-8.1c4.7,0.5,8.6,3.2,12.3,5.9c0.2,0.1,0.4,0.2,0.7,0.2c0.6,0,1.2,0.4,1.3,1.1
	c0.1,0.6,0.5,1.3,1.2,0.9c7.2-2.8,14.4-5.7,21.2-9.5c0,0,13.6-6.8,13.6-6.8c0.2,0,0.3-0.1,0.4-0.3c0.1-3.8,1.6-6.4,5.5-7.3
	c4.9-0.3,9.7,4.6,8.7,9.6c-0.5,2-1.9,3.9-3.9,4.4c-1.8,0.3-3.7,0.6-5.3-0.3l-3.8,2.1c2.9,3.1,4,6.1,1.4,10.3
	c-1.4,2.4-3.4,4.4-5.9,5.7c-4.9,2.7-9.5-0.7-13.5-3.4c-2.5,2.7-5.3,5.3-7.1,8.6c-0.6,1.2-0.4,2.7,0.2,3.8c3.5,7.1,4.7,20.2-6.4,19.6
	C19.2,68.2,3.1,47.5,3.4,33.6z M39.4,60.8c-0.4-5.4-2.8-10.3-5.4-15c-1.7-2.6-3.7-5-5.8-7.2c-0.5-0.6-1-1.1-1.7-1.5
	c-0.3-0.3-0.5-0.4-0.6-0.6c-0.1-0.7-0.6-0.9-1-1.3c-4.5-4.5-18.2-12.4-18.7-0.9c0.3,8.9,5.6,16.8,11.3,23.1
	C22.1,62.8,38.6,74.6,39.4,60.8z M37.1,45.3c7.4-12.6,21.2-19.8,33.7-26.4c-0.4-0.7-1-1.6-1.8-1.9c-1.9,0.9-3.7,2.1-5.6,3
	c-3.5,1.8-7,3.6-10.6,5.4c-7.5,4.1-15.2,7.7-23.2,10.6C32.5,38.7,35,41.9,37.1,45.3z M48.4,36.3c3.5,2,7.7,5,11.4,1.9
	c2-1.3,3.5-3.2,4.4-5.4c1-2.2-0.7-4.4-2.2-5.9l-0.6,0.4c1.7,3.3,0.6,7.6-2.5,9.6c-2.9,1.6-6.8,0.6-9.2-1.5L48.4,36.3z M51.5,33.8
	c1.7,0.9,3.6,1.6,5.5,0.9c1.8-1,2.7-3.3,2.1-5.2c-0.2-0.5-0.3-0.6-0.8-0.3C56,30.7,53.7,32.1,51.5,33.8L51.5,33.8z M66.1,15.7
	c1.3-0.5,2.6-2.2,4-1.2c1.6,1.1,3.3,2.6,3.7,4.5c0.1,0.6-0.3,1.1-0.4,1.7C78.8,15.9,67.7,8,66.1,15.7z"/>
<path class="st0" d="M9.7,37.6c1.1,9,8.6,18.1,15.9,23.2c2.5,1.8,7.1,3.8,9.2,0.4c1.7-3.6-0.3-7.9-1.9-11.1C30,44.7,26,40,21.2,36.2
	C17.4,33,10.2,30.2,9.7,37.6z"/>
<path d="M9.7,37.6c0.6-7.4,7.7-4.7,11.5-1.5C26,39.9,30,44.7,32.8,50c1.2,2.1,2.1,4.5,2.5,6.9c1,7.2-5.1,7.3-9.8,3.9
	C18.3,55.8,10.8,46.7,9.7,37.6z"/>
</svg>
