<?xml version="1.0" encoding="utf-8"?>
<!-- Generator: Adobe Illustrator 24.3.0, SVG Export Plug-In . SVG Version: 6.00 Build 0)  -->
<svg version="1.1" id="Layer_1" xmlns="http://www.w3.org/2000/svg" xmlns:xlink="http://www.w3.org/1999/xlink" x="0px" y="0px"
	 viewBox="0 0 80 80" style="enable-background:new 0 0 80 80;" xml:space="preserve">
<style type="text/css">
	.st0{fill:#FFFFFF;}
</style>
<path d="M25.6,75.8c-2.1-0.6-4.4-0.2-6.6-0.5c-1.1-0.1-1.9-1.3-1.6-2.3c0.2-0.7,1-1.2,1.6-1.5c2-0.8,4.2-1.3,6.4-1.3
	c-0.3-2.1,0-4.1-0.2-6.3c-3.9,0.3-8,0.2-11.9-0.4c-1.1,0-2.2-0.7-3.2-0.4C8.6,63.9,7,61.4,7.8,60c-0.6-0.3-1.1-0.9-1.1-1.6
	C5.5,53,4.6,47.5,4.1,42c0-1-0.8-1.8-0.6-2.8c0.1-0.6,0.2-1.3,0.6-1.8c0.6-0.3,0.5-0.8,0.6-1.4c2-6.3,11.4-6.7,16.9-7.6
	c-0.4-4.4-0.7-9.1-0.9-13.6c-0.1-0.7,0.3-1.5,1-1.8c1.9-2.3,4.8-3.4,7.7-3.8c5-0.8,10.1-1.1,15.1-0.7c1.4,0.1,2.8,0.2,4.2,0.3
	c0.2,0,0.4-0.1,0.5-0.3c1.1-1.5,2.4,0.2,3.6,0.7c0.7,0.3,1.6,0.4,2,1.2c0.6,1.1,1,2.3,1,3.5c0.1,4.8,0.2,9.6,0.2,14.4
	c-0.1,2,0,4.1-0.2,6.2c-1.7,4.8-7.4,6.8-12.1,6.7c0.2,2.9,0.6,5.7,1.1,8.6c0,0.7,0.3,1.4,0.8,2c1.6,2.2-1.3,4-2.8,5.3
	c-4,3.3-9,5-14.1,5.9c-0.8,0.2-0.9,0.2-0.8,1c0.2,1.8,0.3,3.6,0.5,5.5c3.5,0.2,7.5-0.7,10.6,1.3c1,0.6,1,2.2,0.2,3
	c-0.3,0.2-0.6,0.4-0.9,0.4c-1.6,0.3-3.2,0.6-4.8,0.8c-1.8,0.3-3.4,0-5,0.6C28.4,75.7,25.6,75.8,25.6,75.8z M39,32.3
	c-1.8-0.3-3.7-0.3-5.5-0.4c-5-0.1-9.9-0.5-14.9,0.2c-3.7,0.7-8.3,1-10.9,4.1c-0.3,0.3-0.2,0.6,0.2,0.8c1.3,0.7,2.8,1.1,4.3,1.2
	c0.4,0,0.5,0.2,0.6,0.6c0.5,3,1,6,1.6,9c0.6,3.3,1.4,6.4,2,9.7c0,0.9,1.2,1.3,1.7,0.6c0.8-1.3,0.1-3.1,0-4.5
	c-0.7-4.5-1.4-9-2.1-13.5c-0.1-0.6-0.2-1.3-1-1.5c5.3,0.5,10.6,0,15.7-1.6c0.5,5.3,1.2,10.5,2,15.8c0.2,0.8,0.3,2.1,1.3,2.2
	c1.9-0.3,0.7-3.2,0.7-4.5c-0.5-3.8-0.9-7.6-1.4-11.4c0-0.4-0.1-0.7-0.3-1c-0.3-0.4-0.5-0.9-0.4-1.4c0-0.2,0.1-0.3,0.3-0.4
	c0.7-0.4,1.5-0.7,2.2-1C36.7,34.7,37.9,33.5,39,32.3z M49.6,15.1c0.9-0.4,1.9-1.1,2.8-1.7c0.8-0.6-0.6-1-1.1-1.1
	c-6.5-0.7-13.1-1-19.5-0.2c-2.5,0.3-5.2,0.8-7.3,2.3c-1.2,0.7,1.9,1.6,2.3,1.9c0.2,0.1,0.3,0.4,0.3,0.6c-0.2,2.8,0.4,5.7,0.5,8.6
	c0.2,0.8,0.1,2.3,1.2,2.2c1.2,0.1,1.1-1.6,1.2-2.4c-0.2-2.8-0.6-5.7-0.8-8.5c5.9,0.6,11.8,1,17.7-0.9c0.2,5.3,0.2,10.5,0.5,15.8
	c0.1,1-0.3,2,0.1,2.9c0.4,0.8,1.7,0.9,2.1,0.1c0.8-1.1,0.3-2.2,0.1-3.3C49.5,26.1,50.3,20.3,49.6,15.1z"/>
<path d="M60.9,62.9c0.2,1.6,0.2,2.9,0.4,4.4c0,0.2,0.1,0.3,0.3,0.5c1.1,0.8,0.5,2.3,0,3.3c-0.6,1-2.5,1-2.7-0.3
	c-0.4-2.7-0.4-5.4-0.6-8.1c-2.7,1.9-5.5,3.7-8.4,5.3c-1.3,0.6-2.6,2-4,2c-1.3-0.1-1.7-1.8-0.8-2.7c3-2.1,6.4-3.6,9.5-5.6
	c1-0.6,2-1.2,3-1.9c0.3-0.2,0.4-0.6,0.4-0.9c0.2-10.9,2.2-21.8,5.8-32c0.1-0.2,0-0.4-0.1-0.6c-2-2.5-3.3-5.5-3.7-8.7
	c-0.6-2.6,1-5.7,4-5.4c2,0.9,3.4,2.7,4.9,4.1c1.6,1.7,3.2,3.3,4.6,5.1c2,2.5,5.3,8.4,2.2,11c-0.5,0.3-1,0.4-1.6,0.4
	c-3.1-0.5-5.6-2.3-8.1-4c-3.1,10-5.1,20.5-5.1,30.9c0,0.2,0.2,0.3,0.3,0.4c1.3,0.5,2.6,1,3.9,1.5c2.3,1,5.2,1.5,7,3.2
	c1.1,1.4-1,4.2-2.3,2.4c-0.3-0.5-0.8-0.8-1.4-1C65.8,65,63.5,63.9,60.9,62.9z M74.1,29.5c-0.5-5.4-5.4-9-8.8-12.8
	c-0.7-0.6-1.7-0.6-2.5-0.8c-0.1,5.1,3.5,9.9,8,12.1C70.9,28.2,73.8,29.3,74.1,29.5z"/>
<path class="st0" d="M68.6,21.7c-2.1,0-2.6,3.1-0.3,3.3c0.7,0,1.7-1.3,1.7-1.9C70,22.3,69.4,21.7,68.6,21.7z"/>
<path d="M68.6,21.7c0.7-0.1,1.4,0.6,1.4,1.3c0,0.6-1,2-1.7,1.9C66.1,24.8,66.6,21.8,68.6,21.7z"/>
</svg>
