<?xml version="1.0" encoding="utf-8"?>
<!-- Generator: Adobe Illustrator 24.3.0, SVG Export Plug-In . SVG Version: 6.00 Build 0)  -->
<svg version="1.1" id="Layer_1" xmlns="http://www.w3.org/2000/svg" xmlns:xlink="http://www.w3.org/1999/xlink" x="0px" y="0px"
	 viewBox="0 0 80 80" style="enable-background:new 0 0 80 80;" xml:space="preserve">
<path d="M48.7,52l-1.6-4.2c-5,1.3-10.1,2.7-15.1,4c-0.6,0-1.5,0.2-2-0.3c-0.6-0.6-0.9-1.5-0.9-2.3c0.1-2.1,0.3-4.3,0.4-6.4l-7.4,2.4
	c1.5,4.4,2.9,8.8,4.3,13.2c0.4,1.7,1,3.6-0.2,5.2c-1.1,1.7-2.7,3.1-4.6,3.9c-4.9,2-10.5,3.2-15.8,2c-4-0.9-4.6-4-1.6-6.7
	c5-5.1,11.8-6.3,18.8-6.3c-1.1-3.5-2.4-6.9-3.6-10.4c-0.1-0.4-0.6-0.6-0.9-0.9c-0.2-0.3-0.3-0.7-0.3-1c0.1-0.4,0.4-0.8,0.2-1.2
	c-0.8-3-1.7-6.1-2.6-9.1c-0.4-1.3,0.1-2,1.5-2.2c4.4-1.5,8.9-3,13.3-4.5c0.4-0.1,0.7-0.4,0.6-0.8c0.5-3.8,1-7.6,1.5-11.4
	c0-0.3,0-0.5-0.1-0.8c-0.6-1.2-0.2-2.8,0.9-3.5c4.2-2.9,9.5-3.9,14.5-2.9c2.8,0.5,5.6,1.7,8.4,1.6c1.5,0.5,2.7,1.7,3.9,2.7
	c0.5,0.4,0.8,1,0.8,1.6c-0.7,6.4-10.1,7.5-15.2,7c-3.9-0.1-7.4-1.8-10.7-3.9l-1.1,9.1c1.9-0.6,3.5-1.2,5.3-1.8
	c0.9-0.2,2.3-0.1,2.5,1c0.2,0.4,0.2,1,0.5,1.5c0.4,0.4,1,0.7,1.2,1.3c0.9,2.2,0.8,4.9,2.2,6.9c0.8,3.6,1.7,5.9,2.9,9.5
	c1.4-0.3,6-1.5,7.4-1.8c0.1,0,0.3-0.1,0.3-0.2c0.8-2.5,0.9-5.1,1.4-7.6c0.3-2.8,1-5.6,0.9-8.4c0-0.2,0-0.5,0.1-0.7
	c0.3-0.6,1.1-0.9,1.8-0.6c5-0.9,11.2-2.2,15.5,1.6c1.8,1.3,1.9,4.2,0.2,5.6c-4,3.7-10.5,3.6-15.7,3.3c-0.2,2.7-1.1,5.4-0.6,8.1
	c-0.1,0.7-0.6,1.3-1.3,1.3c-3,0.7-6,1.4-9,2.2c0.7,2.2,1.4,4.3,2.1,6.5c0.2,0.6-0.1,1.3-0.6,1.6c-0.2,0.1-0.3,0.2-0.3,0.4
	c-0.5,5.3-6.3,7.4-11,7.6c-3.3,0.3-11,0.2-7.9-5C34.9,54.1,44,50.9,48.7,52z M48.2,17.9c3.4-0.1,7.5-0.4,9.7-3.3
	c0.3-0.5,0.2-0.7-0.4-0.9c-3.1-1.9-6.7-2.2-10.2-3c-3.7-0.7-7.5-0.1-10.9,1.7c-0.5,0.2-0.6,1.2-0.2,1.5C39.9,16.2,43.9,18,48.2,17.9
	L48.2,17.9z M43.6,37.9c-3.6,1.4-7.4,2.5-10.8,4.1c-0.4,2.3-0.4,4.6-0.6,6.9l13.9-4L43.6,37.9z M66.6,26.9c-0.8,0.1-2.5,0.3-4.1,0.5
	c-0.5,0.1-0.6,0.3-0.7,0.8c0.2,1.2-0.7,2.8,0.1,3.9c0.2,0.2,0.4,0.4,0.7,0.5c3.2,0.2,6.5-0.1,9.6-1c0.8-0.2,3.7-1.7,2.5-2.7
	C72.2,26.9,70,26.7,66.6,26.9L66.6,26.9z"/>
</svg>
