<?xml version="1.0" encoding="utf-8"?>
<!-- Generator: Adobe Illustrator 24.3.0, SVG Export Plug-In . SVG Version: 6.00 Build 0)  -->
<svg version="1.1" id="Layer_1" xmlns="http://www.w3.org/2000/svg" xmlns:xlink="http://www.w3.org/1999/xlink" x="0px" y="0px"
	 viewBox="0 0 80 80" style="enable-background:new 0 0 80 80;" xml:space="preserve">
<path d="M76.3,57.5c0,1.9,0.1,6.2-0.2,8c-0.4,2.2-3.4,1.6-3.2-0.7c0-1-0.1-2-0.2-3.2c-2.7,4.1-6.9,6.6-11.2,8.9
	c-0.3,0.1-0.5,0.5-0.5,0.8c0,1,0,2-0.1,3c-0.1,0.5-0.2,0.9-0.5,1.3c-0.2,0.2-0.3,0.6-0.2,0.9c0.4,1.1-0.5,2.3-1.6,2.5
	c-1.3,0-2-1.4-2.7-2.3c-0.4-1.6-0.1-3.4-0.2-5.1l-43-6c0.1,1.5,0.1,3.1,0.3,4.6c0.1,0.5,0,1-0.2,1.4c-0.5,0.9-1.7,1.2-2.5,0.6
	C9.9,72,9.7,71.5,9.6,71C9.4,69,9.1,66.8,9,64.7c-1.1,0.1-2.1-0.7-2.4-1.7c-0.9-2.5-1.8-4.9-2.7-7.4c-0.4-1.1-0.9-2.8,0.4-3.5
	c0.1-0.1,0.2-0.2,0.3-0.4c0.2-0.7,0.6-1.3,1.3-1.7c1.7-1.1,3.5-2.2,5.3-3.2c1.4-0.8,1.4-0.8,1.1-2.4L10,32.2
	c-0.2-0.7,0.2-1.5,0.8-1.8c0.6-0.2,1-0.6,1.3-1.2c1.2-1.3,2.7-2.5,3.9-3.8c4.1-4.4,8.5-8.5,13.2-12.1C36.8,7.1,45.4,0.3,55.8,2.4
	c4.2,0.6,7.9,3.3,9.9,7c0.3,0.5,1,0.5,1.3,1c0.2,0.3,0.3,0.6,0.3,0.9c0,5.1,0.9,10.1,1.2,15.1c0,0.4,0.2,0.7,0.5,0.9
	c1.2,0.8,2.1,2,2.7,3.3c0.3,0.8,1.2,1.1,1.4,1.9c0.7,4-0.1,8.3,1.3,12.3c0.5,2.3,1.8,4.4,1.7,6.8c-0.3,1.1,0.3,2.2,0.3,3.3
	C76.3,55,76.3,57.5,76.3,57.5z M15,30.7c0,0,0.1,0.2,0.1,0.2s0.5,0.2,0.5,0.2c10.8,2.8,21.6,5.8,32.2,9.1c4.1,1.5,8.5,2.2,12.8,3.1
	c2.8-2.1,6-4.1,7.7-7.3c1.2-1.9,0.7-5.1-1.6-5.9c-1.1-0.2-1.5-1-2.6-0.9c-4.9,0.2-9.2-1.4-6.2-7c1.4-3.2,4.5-5.6,5.5-9.1
	C61.7,3.5,48,3.9,41.5,8.3C33.3,13.6,25.7,19.9,19,27C17.7,28.3,16.4,29.5,15,30.7z M32.6,52.6L28.8,52c-0.4-0.2-0.9-0.1-1.2,0.2
	c-0.1,0.2-0.4,0.2-0.7,0.2c-1.7,0.4-3.2,1.6-4.5,2.7c2,0.4,3.9,1.1,5.9,1.2C29.9,55.2,31,53.8,32.6,52.6z M49.9,61.4
	c0.9-2,2.6-3.1,4-4.8l-4.4-1c0,2.3-2.4,3.3-3.4,5.2L49.9,61.4z M31.8,57.4c1.4,0.3,2.5,0.6,3.7,0.9c0.2,0,0.4-0.1,0.5-0.2
	c0.3-0.3,3.9-3.9,4.2-4.1c-1.3-0.2-2.6-0.5-3.8-0.7C34.8,54.6,33.4,56,31.8,57.4L31.8,57.4z M39.2,59.2l3.7,0.9c1-2,2.6-3.3,4.2-5
	c-1.1-0.1-2.4-0.7-3.2-0.4C42.1,56.2,40.7,57.6,39.2,59.2L39.2,59.2z M15.3,53.5c1.1,0.2,2.5,0.9,3.3,0.6c0,0,4.3-3.3,4.3-3.3
	c-0.9-0.1-1.9-0.7-2.8-0.5C18.5,50.8,16.9,52.7,15.3,53.5z M9.5,51.5l0.1,0.2l2.2,0.7c0,0,0.1,0,0.1,0c0.7-0.4,3.5-2.7,4.1-3.1
	c-0.8-0.1-1.8-0.4-2.6-0.2C12.1,49.8,10.8,50.7,9.5,51.5L9.5,51.5z M57.9,57.5l-1.2-0.2c-0.5,1.9-2.4,2.8-3.2,4.4
	C55.4,60.8,56.5,59.2,57.9,57.5z"/>
</svg>
