<?xml version="1.0" encoding="utf-8"?>
<!-- Generator: Adobe Illustrator 24.3.0, SVG Export Plug-In . SVG Version: 6.00 Build 0)  -->
<svg version="1.1" id="Layer_1" xmlns="http://www.w3.org/2000/svg" xmlns:xlink="http://www.w3.org/1999/xlink" x="0px" y="0px"
	 viewBox="0 0 80 80" style="enable-background:new 0 0 80 80;" xml:space="preserve">
<path d="M56.5,54.7c1.7,0.4,3.1,1.2,4.8,1.4c1.3,0,2.5,0.4,3.7,0c0.9-0.5,1.7-1.2,2.6-1.7c0.2-0.1,0.4-0.1,0.6-0.1
	c0.9,0.3,0.9,1.4,0.2,1.9c-5.2,4.8-11.5,7.7-17.4,11.3c-9.4,7.6-23.1,7.3-30.5-2.9c-4.8-6-7.7-13.2-11.1-20
	c-0.5-1.2-1.6-2.2-1.3-3.6c0-0.6,0.7-0.7,1.2-0.8c4.8-0.8,9.6-1.8,14.3-3c4.3-1.1,8.6-2.5,13-3.3c0.5-0.1,1,0.3,1.1,0.8
	c0.5,1.1,1.2,2.2,1.9,3.2c0.7-0.9,1.5-1.7,2.1-2.6c-0.4-0.9-0.7-1.9-1.1-2.8c-0.8-1.8-0.8-1.8,0.1-3.5c5.1-8.1,12.6-14.4,21-18.9
	c3-1.5,6.2-2.4,9.4-3.6c0.8-0.3,2,0.2,2,1.2c-0.1,0.7-0.6,1.4-0.9,2.1c-2.6,6.4-6,12.4-10.1,18c-1.3,2-2.6,3.9-3.8,5.9
	c-0.4,0.7-1,1.3-1.7,1.6c-3.5,1.8-7.8,2.2-11.7,2.7c-1.2,0.8-2.2,2.1-3.4,3.1c1.1,1.9,2.3,3.8,3.7,5.5l1.6-1.5
	c-0.7-2.5,1-4.6,3.6-4.8c2.7-0.2,6.4-0.2,7.9,2.4c0.5,0.7,0,1.7,0.7,2.3c1.3,1.2,1.9,2.8,2.6,4.3c0.2,0.4,0.4,0.8,0.3,1.2
	c-0.6,2-2.8,3.3-4.8,3.9C56.8,54.5,56.7,54.4,56.5,54.7z M62.4,58.2c0.1-0.2-4.1-0.8-4.2-0.8c-0.7-0.1-1.3-0.7-2-0.8
	c-2.4-0.9-4.9-1.4-6.9-3c-3.8-3.1-6.7-7.2-9.1-11.5c-0.9,0.6-1.8,1.2-2.7,1.9c-0.5,0.5-1.4,0.9-1.9,0.1c-0.3-0.4-0.3-1,0-1.3
	c0.2-0.3,2.4-3.2,2.6-3.5L36,35.8c-8.7,2.3-17.2,4.8-26.1,6.1c6.8,11.8,12.4,32,29.9,28.6c3.7-0.8,7.4-2.4,10.3-4.7
	C54.2,63.3,58.6,61.1,62.4,58.2z M46.9,35.7c3.1-0.7,6.2-1,9-2.5c1.7-2,2.9-4.5,4.4-6.6c1.6-2.5,3.5-5,5-7.6
	c1.9-3.4,3.5-6.8,5.1-10.3C59.3,11.7,49.8,19.2,43,28.5c-0.4,0.6-0.7,1.2-1,1.9c-0.2,1.1,0.6,2.1,0.9,3.2c2.3-2.6,5.2-6.5,7.5-9
	c2.7-2.9,5.7-5.5,8.9-7.8c0.9-0.5,1.8-1.3,2.8-1.6c0.2,0,0.4,0.1,0.6,0.2c0.4,0.4,1.1,0.7,1,1.4c-0.1,0.3-0.2,0.6-0.4,0.8
	c-2.2,2.8-4.4,5.7-7.2,8C52.8,28.6,49.9,32.2,46.9,35.7z M52.5,41.9L52.5,41.9c-1.5-0.1-4.8,0.1-3.8,2.4c0.4,2.2,3.1,2.2,4.8,1.7
	C58.1,44.5,56.9,41.7,52.5,41.9z"/>
<path d="M28.2,46.6l0.9-0.8c1-1.1,2.7-0.2,3.9-0.8c0.3-0.3,0.6-0.7,1-0.7c0.7-0.1,1.1,0.7,0.9,1.4c-0.8,1.8-2.6,1.5-4.2,1.6
	c-1,0.5-1.6,1.4-2.9,1.8c-0.6,0.5-0.9,1.8-1.5,2.5c-2.1,2.9-4.6,1.1-5.3-1.8c-0.7,0.8-1.7,2.5-2.9,1.8c-1-1,0.5-1.6,1-2.3
	c0.7-1.2,1.6-2.3,1.9-3.6c0.4-0.9,0.4-2.1,1.3-2.6c1.8-0.5,1.6,2,0.9,3c-0.7,1.6-0.7,3.9,0.8,5.1c0.9-0.6,1.2-1.7,1.7-2.6
	c0.1-0.2,0.1-0.4,0-0.6c-0.3-1.1,0.1-2.3,0.8-3.1c0.4-0.6,1.3-0.3,1.7,0.2C28.5,45.4,28.3,46.1,28.2,46.6z"/>
<path d="M52.7,44.8c-0.6-0.1-1.4,0-1.9-0.4c-0.6-0.6-0.1-1.7,0.7-1.7c0.3,0,0.6,0.3,0.9,0.3c0.7,0,1.4-0.5,2-0.1
	c0.6,0.3,0.6,1.3,0,1.6C53.8,44.7,53.2,44.7,52.7,44.8z"/>
</svg>
