<?xml version="1.0" encoding="utf-8"?>
<!-- Generator: Adobe Illustrator 24.3.0, SVG Export Plug-In . SVG Version: 6.00 Build 0)  -->
<svg version="1.1" id="Layer_1" xmlns="http://www.w3.org/2000/svg" xmlns:xlink="http://www.w3.org/1999/xlink" x="0px" y="0px"
	 viewBox="0 0 80 80" style="enable-background:new 0 0 80 80;" xml:space="preserve">
<path d="M74.2,32.5c-0.6,3.8-1.6,7.6-3.6,10.9c-3.4,0.5-6.9,0.6-10.3,0.9c-0.1,0-0.3,0-0.4-0.1c-1-1.8-1.6-4.1-2-6.3
	c0-0.4-0.3-0.8-0.7-0.9c-0.9-0.6-2.3-0.1-2.7,0.9c-1.7,3.4-4,6.4-6,9.6c-1.6-3.8-2.3-7.9-3.5-11.8c-0.2-0.9-0.6-1.8-1.2-2.5
	c-0.9-1-2.7-0.7-3.2,0.6c-2.8,5.7-5.1,11.6-7.1,17.6h-0.2c-0.1-3-1.7-5.7-2.4-8.6c-0.9-3.5-1.7-7.1-2.6-10.7
	c-0.6-2.5-1.2-4.9-1.9-7.3c-0.3-1.2-0.9-1.3-2-0.8c-0.6,0.4-1.1,0.9-1.3,1.6c-1.7,4-2.8,8.2-4.1,12.3c-0.4,1.3-1,2.6-1.4,3.9
	c-0.1,0.3-0.3,0.5-0.6,0.4c0,0-6.7-0.4-6.7-0.4c-0.2,0-0.4-0.1-0.6-0.3c-1.7-2.3-2.9-4.9-3.8-7.7C5,30.3,5.2,26.6,6.4,23.2
	C9.6,13.4,21.3,7.4,31,10.9c3.9,1.8,8.1,4.7,11.6,7.3C48.8,14,57,8.4,64.4,13.2c2.9,2,5.1,4.9,7.2,7.7
	C73.9,24.2,74.3,28.6,74.2,32.5z"/>
<path d="M40.3,70.7c-1.6-0.6-3.8-0.8-4.8-2.4c-0.3-0.5,0.1-1.1-0.4-1.5c-7.4-7-15.6-13.4-22.4-21.1c2.1,0,4.3,0,6.4,0
	c1.1,0,1.4-0.4,1.4-1.5c0.8-3.3,2.3-6.3,3.3-9.6c2.3,7.3,5.1,14.2,8.3,21.1c0.1,0.3,0.3,0.5,0.5,0.7c0.8,0.4,1.7-0.1,1.7-1.2
	c0.1-0.3,0.2-0.6,0.3-0.8c2.5-5.4,4.3-11.1,6.7-16.6c1.4,4.9,3.2,9.6,4.9,14.3c0.2,1.2,1.7,1.8,2.7,1.1c2.4-3.3,4-7.1,6.2-10.7
	c0.4,1.6,0.9,2.9,1.6,4.3C57.4,48,57.7,48,59,48c0.2,0,0.3,0,0.4,0c2.4,1.2,5.3,0.6,7.9,0.7c-5.1,7.6-12.8,12.9-19.9,18.5
	c-2,1.6-4.2,2.7-6.6,3.4C40.8,70.7,40.3,70.7,40.3,70.7z"/>
</svg>
