<?xml version="1.0" encoding="utf-8"?>
<!-- Generator: Adobe Illustrator 24.3.0, SVG Export Plug-In . SVG Version: 6.00 Build 0)  -->
<svg version="1.1" id="Layer_1" xmlns="http://www.w3.org/2000/svg" xmlns:xlink="http://www.w3.org/1999/xlink" x="0px" y="0px"
	 viewBox="0 0 80 80" style="enable-background:new 0 0 80 80;" xml:space="preserve">
<path d="M39.7,25.1c7.4-7.7,16.4-15.5,27.2-17.6c5.1-1.2,10.9,1.8,11.6,7.3c1.2,7.2-1.7,14.4-4.9,20.7C66,49.6,55,62.4,40.8,70.2
	c-0.9,0.4-1.9,1.2-2.9,0.5c-12.6-6-24-15.1-31.6-27c-3.5-5.6-6.5-12.6-4.4-19.3c2-6.3,9.4-8.3,15.4-7.6
	C25.4,17.7,32.6,21.1,39.7,25.1z M34.4,49.8c0,2.5-0.1,4.8-0.2,7.2c0,1.3,0.4,1.7,1.6,1.6c2.2,0,4.5,0.2,6.7,0.2
	c0.9,0,1.8-0.6,2.1-1.5c0.3-2.3-0.1-4.8,0.2-7.1c2,0.1,4.2,0.3,6.2,0.4c0.4,0,0.9-0.1,1.2-0.3c1-0.8,1-2.3,1.4-3.5
	c0.2-1.8,0.6-3.5,0.6-5.3c-0.4-1.5-2.3-0.8-3.5-1c0,0-5.2-0.3-5.2-0.3c-0.7,0-0.6,0-0.6-0.7c0-2.1,0-4.2,0-6.3
	c0-0.3-0.1-0.7-0.3-0.9C44.4,32.1,44,32,43.7,32c-1.3,0-2.7,0.1-4,0.1c-1.3,0-2.5,0.4-3.8,0.6c-0.3,0-0.6,0.1-0.8,0.4
	c-0.2,0.2-0.3,0.5-0.3,0.8c-0.1,1.9-0.1,3.6-0.1,5.6c-1.8-0.3-3.5-0.5-5.2-0.7c-1.8-0.4-1.7,1.2-1.9,2.5c-0.4,2.1-0.7,4.2-0.7,6.4
	c-0.1,0.5,0.1,1.1,0.4,1.5c0.4,0.4,0.9,0.6,1.4,0.6C30.6,49.9,32.3,49.8,34.4,49.8z"/>
</svg>
