<?xml version="1.0" encoding="utf-8"?>
<!-- Generator: Adobe Illustrator 24.3.0, SVG Export Plug-In . SVG Version: 6.00 Build 0)  -->
<svg version="1.1" id="Layer_1" xmlns="http://www.w3.org/2000/svg" xmlns:xlink="http://www.w3.org/1999/xlink" x="0px" y="0px"
	 viewBox="0 0 80 80" style="enable-background:new 0 0 80 80;" xml:space="preserve">
<path d="M60.2,40.5c3.3-1.2,10.1-1.3,8.9,3.9c1.3-0.2,2.6-0.3,3.9-0.1c2.5,0.6,4.3,3.6,2.7,5.9c-0.7,1.4-1.9,2.3-2.8,3.5
	c-0.1,0.3-0.3,0.6-0.6,0.9c-2,1.7-4.1,3.2-6.1,4.9c-5.2,3.9-11,7.6-17.5,8.8c-9.5,0.9-15.7-9.1-25-9.1c3.6,7.2,1.8,14.1-6,6.3
	c-4.5-4.5-16.8-24-8.7-28.5c3.5-1,6.3,2.3,8.2,4.8c0.1,0.2,0.3,0.3,0.5,0.1l7.6-4c0,0,0.1-0.1,0.1-0.1c-2-2-4.6-4-6.3-6.3
	c-2.1-3.1-4.4-6.6-4.2-10.5c0.3-4.3,3.5-8.2,7.6-9.2c1.2-0.3,2.5-0.3,3.7-0.1c2.1,0.4,4.4,0.4,6.2,1.4c2.4,1.4,4.6,3,6.6,4.9
	c1.1,1.1,1.8,2.3,3.1,3.3C47,15.6,54.1,9.6,61.8,12c4.9,1.9,7.5,7.2,6.8,12.2C68.2,30.6,64,35.6,60.2,40.5z M19.2,58
	c0.5-0.2,1.1-0.2,1.5-0.5c0.2-0.2,0.2-0.6,0.4-0.8c0.4-0.4,1.1-0.5,1.6-0.1c0.2,0.3,0.6,0.4,1,0.3c3.3,0,6.5,1,9.3,2.6
	c8.9,5.4,13.6,9.5,23.7,3.4c4.4-2.4,8.6-5.1,12.2-8.5c1.9-1.5,3.5-3.3,4.9-5.3c0.4-0.4,0.5-1.2,0.1-1.7c-0.4-0.7-1.1-1.1-1.8-1.1
	c-4.3-0.3-7.2,3.2-10.7,5.1c-2,1.2-4.2,2.1-6.3,3.3c-3.8,2.2-8.8,2.5-12.6,0.3c-2.2-1.4-3.8-3.4-5.9-4.9c-1-0.9,0.4-2.5,1.4-1.6
	c3,2.1,5.2,5.5,9.2,5.7c3.4,0.3,9.2-1.3,9.6-5.3c0.1-0.8-0.2-1-0.9-1.2c-2.8-0.6-5.6,0.8-8.3-0.2c-5-1.7-7.3-7.5-12.2-9.3
	c-2.5-0.9-5.3-0.3-7.6,0.9c-4.8,2.2-9.6,4.6-14,7.5L19.2,58z M59.2,49.8c2.6-1.6,5.3-3.2,7.6-5.1c0.1-0.6,0.5-1.3,0.2-1.9
	c-0.1-0.2-0.3-0.4-0.6-0.5c-1.6-0.6-3.3-0.4-4.9,0.1c-1.9,0.3-3,1.9-4.1,3.3C59.1,46.6,59.5,48,59.2,49.8L59.2,49.8z"/>
</svg>
