<?xml version="1.0" encoding="utf-8"?>
<!-- Generator: Adobe Illustrator 24.3.0, SVG Export Plug-In . SVG Version: 6.00 Build 0)  -->
<svg version="1.1" id="Layer_1" xmlns="http://www.w3.org/2000/svg" xmlns:xlink="http://www.w3.org/1999/xlink" x="0px" y="0px"
	 viewBox="0 0 80 80" style="enable-background:new 0 0 80 80;" xml:space="preserve">
<path d="M67.4,20.7c-0.9,1.7-2.9,2-4.6,2.6c0,0-3.1,1-3.1,1c1.6,2.5,4.6,4.6,6.8,6.7c3.8,3.8-6.9,2.4-8.6,2.3v0.5l0.2,7.4
	c-0.3,3.1-6.2-0.6-7.7-1.2c0,0.7-0.4,1.4-0.2,2.1c0.8,2.5,1.7,4.9,2.7,7.3c2.9,7,5.8,14,9.2,20.8c0.5,1,1.3,2.1,0.9,3.2
	c-0.4,0.5-1.1,0.7-1.7,0.4c-0.4-0.1-8.1-5.8-8.6-6.1c-0.5,3-1.3,6-1.7,9c0,0.3-0.2,0.5-0.4,0.7c-0.6,0.5-1.6,0.2-1.9-0.5
	c-1.1-2.2-2-4.4-2.7-6.7c-1.4-5-2.6-9.8-4.2-14.8c-0.8,3.6-1,7.1-1.4,10.8c-0.2,2.4-0.3,4.8-0.5,7.2c0.1,1.2-0.7,2.3-2,1.4
	c-0.5-0.4-0.9-0.8-1.1-1.4c-1.5-3.4-3-6.6-4.4-10c0-0.1,0-0.1-0.2-0.2c-1,1.1-2.2,2.1-3.3,3.1c-0.5,0.4-1,1-1.7,1.1
	c-0.7,0.1-1.5-0.5-1.2-1.3c2-7.2,4.8-14.2,7.2-21.3c-0.5,0.1-1.7,0.6-2.2,0.6c-0.4,0-0.7-0.2-1.1-0.2c-1.2,0-1.8-0.5-1.4-1.4
	c0.8-2,1.8-4.1,2.6-6c-3-0.9-6.1-1.6-8.9-2.9c-0.7-0.2-0.9-1.1-0.5-1.6c1.5-1,3.4-1.2,5-2.2c-3.3-1.3-6.5-3.1-9.1-5.5
	c-0.7-0.6-0.4-1.6,0.7-1.8c3-0.4,5.9-1.3,8.8-2.1c0.4-0.1,0.5-0.3,0.4-0.7C27,19.9,27,19,26.8,18.1c-0.5-2.3-0.9-4.6-0.8-7
	c0-0.6,0.5-0.9,1.2-1c0.9-0.1,1.8,0.1,2.5,0.7c1.5,0.9,3,1.8,4.6,2.6c2.4-3,4.4-6,6.6-9.2c0.5-0.9,2-0.9,2.5,0
	c1.3,2.3,2.5,4.6,4.1,6.6c0.1,0.2,0.3,0.2,0.5,0.1c3.6-1,7.1-2,10.7-3c1.2-0.3,2,0.3,1.8,1.3c-0.8,2.8-2.3,5.3-3.3,8.1
	c2.1,0.4,4.1,0.9,6.2,1.3C64.8,19.4,66.8,19.2,67.4,20.7z M51.2,24.6c-0.2-2.4-1.9-4.5-3.9-5.7c-3.2-1.5-7.2-0.4-10.1,1.3
	c-2.1,1.1-3.2,3.2-3.8,5.4c-1.2,3.5,1.8,6.4,5.2,7.8C44.1,36,51.3,30.1,51.2,24.6z M48.3,44.2c-0.4,0.4-1.9,2.6-2.5,2.7
	c-0.8,0.3-1.9-0.3-1.8-1.2c-0.4,1.9-1.4,3.9-1.1,5.9c1.2,4.3,2.5,8.6,3.7,13c1-1.6,1.5-3.8,2.8-5.3c0.8-0.4,1.9-0.1,2.6,0.5
	c1.3,1.3,2.8,2.7,4.1,3.9C53.4,57.2,50.8,50.7,48.3,44.2z M38.2,61.8L38.2,61.8c0.7-6.3,2.6-12.5,3.8-18.7c0-0.1,0.1-0.2,0-0.3
	c-0.4-0.6-0.8-1.1-1.2-1.6c-1.7,0.8-3.3,1.6-5,2.4c-0.1,0.1-0.2,0.2-0.3,0.3c-1.5,4.3-3,8.6-4.5,13l0.1-0.1l2.4-2.3
	c0.6-0.5,1.6-0.6,2.1,0c0.3,0.3,0.1,0.7,0.3,1.1C36.6,57.5,37.5,60,38.2,61.8z"/>
<path d="M45.6,23.1c-0.3,2.1-0.5,4.1-0.9,6.2c-0.2,1-0.8,1.4-1.9,1.5c-1.4,0.4-2.7-0.8-2.6-2.3c0.3-1.9,0.5-3.8,0.8-5.7
	c0.1-0.7,0.5-1.3,1.2-1.5c0.3-0.1,0.6-0.5,0.9-0.5c1-0.3,2.5,0.2,2.5,1.3C45.7,22.5,45.7,22.7,45.6,23.1L45.6,23.1z"/>
</svg>
