<svg xmlns="http://www.w3.org/2000/svg" viewBox="0 0 1010 720" style="--bling-width:1010;--bling-offset:0"><circle cx="360" cy="360" r="360" fill="var(--bling-color-a, #f3f4f5)"/><path d="M701.6 496c-12 0-23.3-4.7-31.9-13.2-8.8-8.7-13.7-20.3-13.7-32.6 0-12.1 4.7-23.6 13.4-32.3 8.7-8.7 20.1-13.6 32.2-13.6 2.9 0 5.6-2.8 5.6-5.8 0-2-1.1-3.5-1.8-4.1-.6-.6-2-1.7-3.8-1.7-12.1 0-23.6-4.8-32.2-13.6-8.7-8.8-13.5-20.4-13.4-32.6.1-25.1 20.6-45.5 45.8-45.5 25.3 0 45.8 20.5 45.8 45.6 0 1.9 1.1 3.2 1.7 3.8.7.7 2.1 1.8 4.1 1.8 3.1 0 5.8-2.7 5.8-5.6 0-25.1 20.6-45.6 45.8-45.6 25.2 0 45.8 20.4 45.8 45.5.1 12.2-4.6 23.8-13.4 32.6-8.7 8.7-20.1 13.6-32.2 13.6-2.9 0-5.6 2.8-5.6 5.8s2.7 5.8 5.6 5.8c12.1 0 23.5 4.8 32.2 13.6 8.7 8.8 13.5 20.4 13.4 32.6-.1 25.1-20.6 45.5-45.8 45.5-12.1 0-23.6-4.7-32.3-13.4s-13.6-20.1-13.6-32.2c0-2.9-2.8-5.6-5.8-5.6-3.1 0-5.8 2.7-5.8 5.6 0 25.1-20.5 45.5-45.7 45.6h-.2zm0-51.7c-1.9 0-3.2 1.1-3.8 1.7-.7.7-1.8 2.1-1.8 4.1 0 2.1 1.1 3.5 1.8 4.2.6.6 2 1.7 3.8 1.7h.2c3.1 0 5.8-2.7 5.8-5.6 0-2.2.2-4.4.5-6.6-2 .4-4.3.5-6.5.5zm97.4-.4c.3 2.1.5 4.3.5 6.6 0 1.9 1.1 3.2 1.7 3.8.7.7 2.1 1.8 4.1 1.8 3.1 0 5.8-2.7 5.8-5.6v-.2c0-2.1-1.1-3.5-1.8-4.2-.6-.6-2-1.7-3.8-1.7-2.1-.1-4.4-.2-6.5-.5zm-52.2-52.2c.3 2.2.5 4.5.5 6.8s-.2 4.6-.5 6.8c4.5-.7 9.2-.7 13.7 0-.3-2.2-.5-4.5-.5-6.8s.2-4.6.5-6.8c-2.2.3-4.5.5-6.8.5-2.4 0-4.7-.2-6.9-.5zm-45.2-39c2.2 0 4.4.2 6.6.5-.3-2.2-.5-4.4-.5-6.6 0-2.9-2.8-5.6-5.8-5.6-3.1 0-5.8 2.7-5.8 5.6v.2c0 2.1 1.1 3.5 1.8 4.2.5.6 1.8 1.7 3.7 1.7zM805.4 341c-3.1 0-5.8 2.7-5.8 5.6 0 2.2-.2 4.4-.5 6.6 2.1-.3 4.3-.5 6.6-.5 1.8 0 3.2-1.1 3.8-1.7.7-.7 1.8-2.1 1.8-4.2v-.2c-.1-2.9-2.9-5.6-5.9-5.6z" fill="var(--bling-color-b, #ebeced)"/></svg>