<svg xmlns="http://www.w3.org/2000/svg" viewBox="0 0 196 196" style="--bling-width:196;--bling-offset:104;--bling-offset-ish:312;--bling-offset-center:520"><path d="M45.9 196c-12.1 0-23.4-4.7-32.1-13.3C4.9 174 0 162.3 0 150c0-12.2 4.7-23.7 13.5-32.5 8.8-8.7 20.2-13.7 32.4-13.7 2.9 0 5.6-2.8 5.6-5.8 0-2-1.1-3.5-1.8-4.1-.6-.6-2-1.7-3.8-1.7-12.2 0-23.7-4.8-32.4-13.7C4.7 69.7-.1 58 0 45.7.1 20.5 20.7 0 46.1 0c25.5 0 46.1 20.6 46.1 45.8 0 1.9 1.1 3.2 1.7 3.8.7.7 2.1 1.8 4.1 1.8 3.1 0 5.8-2.7 5.8-5.6 0-25.2 20.7-45.8 46.1-45.8S196 20.5 196 45.7c.1 12.3-4.6 23.9-13.5 32.8-8.8 8.7-20.2 13.7-32.4 13.7-2.9 0-5.6 2.8-5.6 5.8s2.7 5.8 5.6 5.8c12.2 0 23.6 4.8 32.4 13.7 8.8 8.8 13.6 20.5 13.5 32.8-.1 25.2-20.7 45.7-46.1 45.7-12.2 0-23.7-4.7-32.5-13.5-8.8-8.7-13.7-20.2-13.7-32.4 0-2.9-2.8-5.6-5.8-5.6-3.1 0-5.8 2.7-5.8 5.6 0 25.2-20.6 45.7-46 45.8 0 .1-.1.1-.2.1zm0-52c-1.9 0-3.2 1.1-3.8 1.7-.7.7-1.8 2.1-1.8 4.1 0 2.1 1.1 3.5 1.8 4.2.6.6 2 1.7 3.8 1.7h.2c3.1 0 5.8-2.7 5.8-5.6 0-2.2.2-4.4.5-6.6-2 .4-4.3.5-6.5.5zm98-.4c.3 2.1.5 4.3.5 6.6 0 1.9 1.1 3.2 1.7 3.8.7.7 2.1 1.8 4.1 1.8 3.1 0 5.8-2.7 5.8-5.6v-.2c0-2.1-1.1-3.5-1.8-4.2-.6-.6-2-1.7-3.8-1.7-2.1-.1-4.4-.2-6.5-.5zM91.4 91.2c.3 2.2.5 4.5.5 6.8s-.2 4.6-.5 6.8c4.5-.7 9.3-.7 13.8 0-.3-2.2-.5-4.5-.5-6.8s.2-4.6.5-6.8c-2.2.3-4.5.5-6.8.5-2.5 0-4.8-.2-7-.5zM45.9 52c2.2 0 4.4.2 6.6.5-.3-2.2-.5-4.5-.5-6.7 0-2.9-2.8-5.6-5.8-5.6-3.1 0-5.8 2.7-5.8 5.6v.2c0 2.1 1.1 3.5 1.8 4.2.5.7 1.8 1.8 3.7 1.8zm104.4-11.8c-3.1 0-5.8 2.7-5.8 5.6 0 2.2-.2 4.4-.5 6.6 2.1-.3 4.3-.5 6.6-.5 1.8 0 3.2-1.1 3.8-1.7.7-.7 1.8-2.1 1.8-4.2v-.2c0-2.9-2.9-5.6-5.9-5.6z" fill="var(--bling-color-a, #f3f4f5)"/></svg>