<svg width="13" height="11" viewBox="0 0 13 11" fill="none" xmlns="http://www.w3.org/2000/svg">
<path d="M12.0602 9.21387L7.37274 1.06934C7.02118 0.463867 6.10321 0.444336 5.75165 1.06934L1.06415 9.21387C0.712585 9.81934 1.1618 10.6006 1.88446 10.6006H11.2399C11.9626 10.6006 12.4118 9.83887 12.0602 9.21387ZM6.57196 7.51465C7.06024 7.51465 7.4704 7.9248 7.4704 8.41309C7.4704 8.9209 7.06024 9.31152 6.57196 9.31152C6.06415 9.31152 5.67352 8.9209 5.67352 8.41309C5.67352 7.9248 6.06415 7.51465 6.57196 7.51465ZM5.71259 4.29199C5.69305 4.15527 5.81024 4.03809 5.94696 4.03809H7.17743C7.31415 4.03809 7.43134 4.15527 7.4118 4.29199L7.27509 6.94824C7.25555 7.08496 7.1579 7.16309 7.04071 7.16309H6.08368C5.96649 7.16309 5.86884 7.08496 5.8493 6.94824L5.71259 4.29199Z" fill="#727477"/>
</svg>
