<?xml version="1.0" encoding="utf-8"?>
<!-- Generator: Adobe Illustrator 24.3.0, SVG Export Plug-In . SVG Version: 6.00 Build 0)  -->
<svg version="1.1" id="Layer_1" xmlns="http://www.w3.org/2000/svg" xmlns:xlink="http://www.w3.org/1999/xlink" x="0px" y="0px"
	 viewBox="0 0 244.4 100" style="enable-background:new 0 0 244.4 100;" xml:space="preserve">
<style type="text/css">
	.st0{fill:#231F20;}
</style>
<path class="st0" d="M2.5,55.3l42.7,42.5c2.9,2.9,7.7,2.9,10.5,0c2.9-2.9,2.9-7.7,0-10.4l-30.1-30H237c4.1,0,7.4-3.3,7.4-7.4
	s-3.4-7.4-7.4-7.4H25.8l30-30c2.9-2.9,2.9-7.7,0-10.4C54.3,0.8,52.4,0,50.4,0c-2,0-3.8,0.7-5.3,2.2L2.2,44.9C0.8,46.3,0,48.2,0,50.2
	C0.3,52,1.1,53.9,2.5,55.3z"/>
</svg>
