<svg width="16" height="21" viewBox="0 0 16 21" fill="none" xmlns="http://www.w3.org/2000/svg">
<path d="M0.187207 7.53517C-0.0624025 7.78345 -0.0624025 8.18069 0.187207 8.37931L1.18565 9.37241C1.38534 9.62069 1.78471 9.62069 2.03432 9.37241L6.72699 4.55586V20.4041C6.72699 20.7517 6.9766 21 7.32605 21H8.72387C9.0234 21 9.32293 20.7517 9.32293 20.4041V4.55586L13.9657 9.37241C14.2153 9.62069 14.6147 9.62069 14.8144 9.37241L15.8128 8.37931C16.0624 8.18069 16.0624 7.78345 15.8128 7.53517L8.42434 0.186207C8.17473 -0.062069 7.82527 -0.062069 7.57566 0.186207L0.187207 7.53517Z" fill="white"/>
</svg>
