<svg width="22" height="9" viewBox="0 0 22 9" fill="none" xmlns="http://www.w3.org/2000/svg">
<path d="M0.22689 4.97806L4.07143 8.80251C4.33613 9.06583 4.76471 9.06583 5.01681 8.80251C5.28151 8.53919 5.28151 8.11285 5.01681 7.86207L2.30672 5.16615L21.3319 5.16615C21.6975 5.16615 22 4.86521 22 4.50157C22 4.13793 21.6975 3.83699 21.3319 3.83699L2.31933 3.83699L5.01681 1.14107C5.28151 0.877745 5.28151 0.451412 5.01681 0.200629C4.89076 0.0752369 4.71429 1.40845e-06 4.53781 1.43256e-06C4.36134 1.45668e-06 4.19748 0.0626978 4.05882 0.200629L0.201681 4.03762C0.0756305 4.16301 -2.60708e-07 4.33856 -2.5089e-07 4.51411C0.0252098 4.67712 0.10084 4.85267 0.22689 4.97806Z" fill="#0376E1"/>
</svg>
