<?xml version="1.0" encoding="utf-8"?>
<!-- Generator: Adobe Illustrator 16.0.0, SVG Export Plug-In . SVG Version: 6.00 Build 0)  -->
<!DOCTYPE svg PUBLIC "-//W3C//DTD SVG 1.1//EN" "http://www.w3.org/Graphics/SVG/1.1/DTD/svg11.dtd">
<svg version="1.1" id="Layer_1" xmlns="http://www.w3.org/2000/svg" xmlns:xlink="http://www.w3.org/1999/xlink" x="0px" y="0px"
	 width="100px" height="100px" viewBox="0 0 100 100" enable-background="new 0 0 100 100" xml:space="preserve">
<path fill="#2A2B2C" d="M64.844,49.844l33.75-33.438c1.875-1.875,1.875-5.312,0-7.188l-7.812-7.812
	c-1.875-1.875-5.312-1.875-7.188,0l-33.438,33.75l-33.75-33.75c-1.875-1.875-5.312-1.875-7.188,0L1.406,9.219
	c-1.875,1.875-1.875,5.312,0,7.188l33.75,33.438l-33.75,33.75c-1.875,1.875-1.875,5.312,0,7.188l7.812,7.812
	c1.875,1.875,5.312,1.875,7.188,0l33.75-33.75l33.438,33.75c1.875,1.875,5.312,1.875,7.188,0l7.812-7.812
	c1.875-1.875,1.875-5.312,0-7.188L64.844,49.844z"/>
</svg>
