<svg width="13" height="13" viewBox="0 0 13 13" fill="none" xmlns="http://www.w3.org/2000/svg">
<path d="M8.58594 6.5L12.8047 2.32031C13.0391 2.08594 13.0391 1.65625 12.8047 1.42188L11.8281 0.445312C11.5938 0.210938 11.1641 0.210938 10.9297 0.445312L6.75 4.66406L2.53125 0.445312C2.29688 0.210938 1.86719 0.210938 1.63281 0.445312L0.65625 1.42188C0.421875 1.65625 0.421875 2.08594 0.65625 2.32031L4.875 6.5L0.65625 10.7188C0.421875 10.9531 0.421875 11.3828 0.65625 11.6172L1.63281 12.5938C1.86719 12.8281 2.29688 12.8281 2.53125 12.5938L6.75 8.375L10.9297 12.5938C11.1641 12.8281 11.5938 12.8281 11.8281 12.5938L12.8047 11.6172C13.0391 11.3828 13.0391 10.9531 12.8047 10.7188L8.58594 6.5Z" fill="#2A2B2C"/>
</svg>
