<svg width="10" height="9" viewBox="0 0 10 9" fill="none" xmlns="http://www.w3.org/2000/svg">
<path d="M8.33594 0.236328H1.46094C0.933594 0.236328 0.523438 0.666016 0.523438 1.17383V8.04883C0.523438 8.57617 0.933594 8.98633 1.46094 8.98633H8.33594C8.84375 8.98633 9.27344 8.57617 9.27344 8.04883V1.17383C9.27344 0.666016 8.84375 0.236328 8.33594 0.236328ZM4.27344 2.11133H5.50391C5.64062 2.11133 5.75781 2.22852 5.73828 2.36523L5.60156 5.02148C5.58203 5.1582 5.48438 5.23633 5.36719 5.23633H4.41016C4.29297 5.23633 4.19531 5.1582 4.17578 5.02148L4.03906 2.36523C4.01953 2.22852 4.13672 2.11133 4.27344 2.11133ZM4.89844 7.38477C4.39062 7.38477 4 6.99414 4 6.48633C4 5.99805 4.39062 5.58789 4.89844 5.58789C5.38672 5.58789 5.79688 5.99805 5.79688 6.48633C5.79688 6.99414 5.38672 7.38477 4.89844 7.38477Z" fill="#D8222F"/>
</svg>
