<?xml version="1.0" encoding="utf-8"?>
<!-- Generator: Adobe Illustrator 24.3.0, SVG Export Plug-In . SVG Version: 6.00 Build 0)  -->
<svg version="1.1" id="Layer_1" xmlns="http://www.w3.org/2000/svg" xmlns:xlink="http://www.w3.org/1999/xlink" x="0px" y="0px"
	 viewBox="0 0 100 100" style="enable-background:new 0 0 100 100;" xml:space="preserve">
<style type="text/css">
	.st0{fill:#010101;}
</style>
<path class="st0" d="M32.8,0c-1.2-0.1-2.4,0.1-3.6,0.4c-4.8,1.2-8.3,5.5-8.7,9.9c-0.4,4.4,1,8.8,3.4,13.5c2.1,4.2,6.8,8.8,10.2,13.3
	c-0.8,5.4-0.6,9.8-2.1,15.5c-1.5,5.7-3.9,9.4-5.9,14.4c-5.2,2.2-11.6,3.8-15.5,6.4c-4.3,2.9-7.8,5.9-9.7,10C-0.9,87.6,0,93,3.5,96.5
	c3.5,3.5,8.9,4.4,13,2.6c4.1-1.8,7.1-5.3,10-9.6c2.6-3.9,4.2-10.3,6.4-15.5c5.1-2,8.8-4.4,14.5-5.9c5.7-1.5,10.1-1.3,15.5-2.1
	c4.5,3.4,9.1,8.2,13.3,10.2c4.7,2.3,9,3.8,13.5,3.4c4.4-0.4,8.7-4,9.9-8.7c1.3-4.7-0.6-9.9-4.3-12.5c-3.6-2.6-8.2-3.5-13.4-3.8
	c-4.7-0.3-11,1.6-16.6,2.2c-4.3-3.4-8.2-5.4-12.4-9.6c-4.2-4.2-6.1-8.1-9.6-12.4c0.7-5.6,2.5-12,2.2-16.6c-0.4-5.2-1.2-9.7-3.8-13.4
	C39.8,1.9,36.4,0.2,32.8,0z M32.8,8.8c0.9-0.2,1,0.2,1.7,1.1c0.9,1.2,1.9,4.4,2.2,8.7c0.1,1.6-0.8,4.4-0.8,6.2
	c-0.9-1.6-3.1-3.5-3.8-4.9c-1.9-3.9-2.6-7.1-2.4-8.6c0.2-1.5,0-1.6,2.1-2.1C32.1,8.9,32.5,8.8,32.8,8.8z M41.8,47.1
	c1.9,2.1,2.8,4.3,4.8,6.3c2.1,2.1,4.2,2.9,6.3,4.8c-2.8,0.6-5.1,0.3-7.9,1c-2.8,0.7-4.6,2.2-7.3,3.1c0.9-2.8,2.3-4.6,3.1-7.4
	C41.5,52.1,41.2,49.9,41.8,47.1z M81.4,63.3c4.3,0.3,7.5,1.3,8.7,2.2s1.3,0.8,0.8,2.9c-0.6,2.1-0.6,1.9-2.1,2.1
	c-1.5,0.2-4.7-0.5-8.6-2.4c-1.4-0.7-3.4-2.9-5-3.8C77,64.1,79.8,63.2,81.4,63.3z M21.4,78.6c-0.9,1.6-1.5,4.5-2.4,5.8
	c-2.4,3.6-4.9,5.8-6.3,6.4c-1.4,0.6-1.4,0.8-2.9-0.8c-1.6-1.6-1.3-1.5-0.7-2.9c0.6-1.4,2.9-3.8,6.4-6.2
	C16.9,80.1,19.7,79.5,21.4,78.6z"/>
</svg>
