<?xml version="1.0" encoding="utf-8"?>
<!-- Generator: Adobe Illustrator 16.0.0, SVG Export Plug-In . SVG Version: 6.00 Build 0)  -->
<!DOCTYPE svg PUBLIC "-//W3C//DTD SVG 1.1//EN" "http://www.w3.org/Graphics/SVG/1.1/DTD/svg11.dtd">
<svg version="1.1" id="Layer_1" xmlns="http://www.w3.org/2000/svg" xmlns:xlink="http://www.w3.org/1999/xlink" x="0px" y="0px"
	 width="100px" height="100px" viewBox="0 0 100 100" enable-background="new 0 0 100 100" xml:space="preserve">
<path fill="#010101" d="M32.837,0.011c-1.195-0.055-2.392,0.104-3.587,0.415c-4.784,1.245-8.268,5.46-8.731,9.927
	c-0.415,4.424,1.037,8.841,3.38,13.521c2.075,4.155,6.81,8.78,10.238,13.308c-0.829,5.406-0.573,9.823-2.08,15.491
	c-1.508,5.662-3.948,9.354-5.925,14.448c-5.198,2.239-11.593,3.796-15.547,6.449c-4.313,2.904-7.846,5.919-9.664,9.982
	c-1.825,4.052-0.885,9.457,2.599,12.941c3.484,3.483,8.939,4.417,12.996,2.599c4.052-1.824,7.065-5.302,9.982-9.622
	c2.6-3.893,4.21-10.342,6.443-15.54c5.095-2.025,8.786-4.417,14.454-5.925c5.662-1.513,10.079-1.299,15.485-2.08
	c4.527,3.38,9.104,8.157,13.313,10.244c4.674,2.282,9.042,3.795,13.46,3.374c4.417-0.415,8.682-4.003,9.933-8.731
	c1.294-4.734-0.628-9.878-4.271-12.478c-3.637-2.599-8.158-3.532-13.356-3.85c-4.68-0.305-11.02,1.562-16.639,2.239
	c-4.259-3.436-8.212-5.406-12.367-9.561c-4.155-4.161-6.132-8.115-9.562-12.374c0.672-5.613,2.496-11.959,2.179-16.639
	c-0.36-5.198-1.245-9.72-3.844-13.356C39.805,1.933,36.425,0.163,32.837,0.011z M32.782,8.797c0.885-0.159,0.988,0.152,1.666,1.092
	c0.885,1.245,1.873,4.363,2.185,8.731c0.104,1.562-0.781,4.368-0.83,6.235c-0.939-1.556-3.124-3.532-3.795-4.936
	c-1.929-3.899-2.6-7.12-2.447-8.628c0.159-1.507,0-1.562,2.081-2.135C32.111,8.949,32.472,8.846,32.782,8.797z M41.776,47.053
	c1.928,2.136,2.812,4.265,4.838,6.346c2.081,2.074,4.21,2.91,6.34,4.832c-2.807,0.623-5.095,0.312-7.901,1.037
	c-2.807,0.732-4.625,2.185-7.328,3.069c0.885-2.752,2.288-4.57,3.069-7.377C41.465,52.147,41.153,49.865,41.776,47.053z
	 M81.393,63.325c4.308,0.312,7.48,1.3,8.731,2.185s1.349,0.774,0.774,2.861c-0.567,2.13-0.622,1.916-2.123,2.074
	c-1.514,0.159-4.734-0.519-8.634-2.44c-1.403-0.731-3.435-2.916-4.991-3.844C76.976,64.106,79.782,63.222,81.393,63.325z
	 M21.403,78.609c-0.885,1.611-1.507,4.467-2.392,5.821c-2.392,3.587-4.888,5.82-6.291,6.442c-1.403,0.629-1.354,0.781-2.861-0.774
	c-1.556-1.562-1.349-1.458-0.727-2.861c0.623-1.403,2.855-3.845,6.443-6.236C16.876,80.116,19.737,79.488,21.403,78.609z"/>
</svg>
