<?xml version="1.0" encoding="utf-8"?>
<!-- Generator: Adobe Illustrator 24.3.0, SVG Export Plug-In . SVG Version: 6.00 Build 0)  -->
<svg version="1.1" id="Layer_1" xmlns="http://www.w3.org/2000/svg" xmlns:xlink="http://www.w3.org/1999/xlink" x="0px" y="0px"
	 viewBox="0 0 100 100" style="enable-background:new 0 0 100 100;" xml:space="preserve">
<path d="M48.7,31.4L16.8,57.7V86c0,1.6,1.2,2.8,2.8,2.8H39c1.4,0,2.6-1.2,2.6-2.8V69.3c0-1.4,1.4-2.8,2.8-2.8h11.1
	c1.6,0,2.8,1.4,2.8,2.8V86c0,1.6,1.4,2.8,2.8,2.8h19.6c1.4,0,2.8-1.2,2.8-2.8V57.5L51.3,31.4c-0.3-0.3-0.9-0.5-1.2-0.5
	C49.6,30.9,49,31,48.7,31.4z"/>
<path d="M99.1,49.2l-14.4-12V13.3c0-1.2-1-2.1-2.1-2.1H73c-1.2,0-2.1,0.9-2.1,2.1v12.5L55.3,13c-1.2-1-3.6-1.7-5.4-1.7
	c-1.6,0-4,0.7-5.2,1.7L0.9,49.2c-0.5,0.3-0.9,1-0.9,1.6s0.3,1,0.5,1.4L5,57.5c0.3,0.3,1,0.7,1.6,0.7c0.3,0,1-0.2,1.4-0.5l40.7-33.4
	c0.3-0.3,0.9-0.5,1.4-0.5c0.3,0,0.9,0.2,1.2,0.5L92,57.7c0.3,0.3,1,0.5,1.4,0.5c0.5,0,1.2-0.3,1.6-0.7l4.5-5.4
	c0.2-0.3,0.5-0.9,0.5-1.4S99.7,49.6,99.1,49.2z"/>
</svg>
