<?xml version="1.0" encoding="utf-8"?>
<!-- Generator: Adobe Illustrator 16.0.0, SVG Export Plug-In . SVG Version: 6.00 Build 0)  -->
<!DOCTYPE svg PUBLIC "-//W3C//DTD SVG 1.1//EN" "http://www.w3.org/Graphics/SVG/1.1/DTD/svg11.dtd">
<svg version="1.1" id="Layer_1" xmlns="http://www.w3.org/2000/svg" xmlns:xlink="http://www.w3.org/1999/xlink" x="0px" y="0px"
	 width="100px" height="100px" viewBox="0 0 100 100" enable-background="new 0 0 100 100" xml:space="preserve">
<path d="M48.7,31.369L16.812,57.712v28.25c0,1.56,1.213,2.772,2.772,2.772h19.411c1.386,0,2.6-1.213,2.6-2.772V69.324
	c0-1.387,1.386-2.773,2.772-2.773h11.092c1.561,0,2.773,1.387,2.773,2.773v16.638c0,1.56,1.387,2.772,2.772,2.772h19.584
	c1.387,0,2.773-1.213,2.773-2.772V57.539L51.3,31.369c-0.347-0.347-0.866-0.52-1.213-0.52C49.566,30.85,49.047,31.022,48.7,31.369z"
	/>
<path d="M99.134,49.22L84.749,37.262V13.345c0-1.213-1.04-2.079-2.08-2.079h-9.705c-1.214,0-2.08,0.866-2.08,2.079v12.479
	L55.286,12.998c-1.213-1.04-3.64-1.732-5.373-1.732c-1.56,0-3.986,0.692-5.199,1.732L0.867,49.22C0.347,49.566,0,50.26,0,50.78
	c0,0.52,0.347,1.039,0.52,1.386l4.506,5.373c0.347,0.347,1.04,0.693,1.56,0.693c0.347,0,1.04-0.174,1.386-0.521L48.7,24.264
	c0.347-0.347,0.866-0.521,1.387-0.521c0.347,0,0.866,0.174,1.213,0.521l40.728,33.448c0.347,0.347,1.04,0.521,1.387,0.521
	c0.521,0,1.213-0.347,1.56-0.693l4.507-5.373C99.653,51.819,100,51.3,100,50.78C100,50.26,99.653,49.566,99.134,49.22z"/>
</svg>
