<?xml version="1.0" encoding="utf-8"?>
<!-- Generator: Adobe Illustrator 16.0.0, SVG Export Plug-In . SVG Version: 6.00 Build 0)  -->
<!DOCTYPE svg PUBLIC "-//W3C//DTD SVG 1.1//EN" "http://www.w3.org/Graphics/SVG/1.1/DTD/svg11.dtd">
<svg version="1.1" id="Layer_1" xmlns="http://www.w3.org/2000/svg" xmlns:xlink="http://www.w3.org/1999/xlink" x="0px" y="0px"
	 width="100px" height="100px" viewBox="0 0 100 100" enable-background="new 0 0 100 100" xml:space="preserve">
<path d="M33.801,25.354L50.684,8.466C56.152,3.003,63.403,0,71.118,0s14.966,3.003,20.416,8.466
	C96.997,13.916,100,21.167,100,28.882s-3.003,14.966-8.466,20.435L74.646,66.199l-7.062-7.068l16.883-16.883
	c3.57-3.564,5.535-8.312,5.535-13.366c0-5.048-1.965-9.778-5.535-13.349s-8.319-5.535-13.349-5.535
	c-5.054,0-9.784,1.965-13.354,5.535L40.881,32.416L33.801,25.354z"/>
<path d="M0,71.118c0-7.721,3.003-14.966,8.466-20.435l16.882-16.883l7.068,7.068L15.533,57.752
	c-3.57,3.564-5.535,8.312-5.535,13.342c0,5.054,1.965,9.79,5.535,13.354c3.564,3.564,8.319,5.554,13.349,5.554
	c5.054,0,9.784-1.971,13.354-5.535l16.895-16.889l7.068,7.068L49.316,91.528C43.848,96.997,36.597,100,28.882,100
	s-14.966-3.003-20.416-8.472C3.003,86.084,0,78.833,0,71.118z"/>
<polygon points="67.584,25.342 74.658,32.416 32.434,74.64 25.354,67.572 "/>
</svg>
