<?xml version="1.0" encoding="utf-8"?>
<!-- Generator: Adobe Illustrator 24.3.0, SVG Export Plug-In . SVG Version: 6.00 Build 0)  -->
<svg version="1.1" id="Layer_1" xmlns="http://www.w3.org/2000/svg" xmlns:xlink="http://www.w3.org/1999/xlink" x="0px" y="0px"
	 viewBox="0 0 100 100" style="enable-background:new 0 0 100 100;" xml:space="preserve">
<path d="M33.8,25.4L50.7,8.5C56.2,3,63.4,0,71.1,0s15,3,20.4,8.5c5.5,5.5,8.5,12.7,8.5,20.4s-3,15-8.5,20.4L74.6,66.2l-7.1-7.1
	l16.9-16.9C88,38.7,90,33.9,90,28.9c0-5-2-9.8-5.5-13.3S76.1,10,71.1,10c-5.1,0-9.8,2-13.4,5.5L40.9,32.4L33.8,25.4z"/>
<path d="M0,71.1c0-7.7,3-15,8.5-20.4l16.9-16.9l7.1,7.1L15.5,57.8C12,61.3,10,66.1,10,71.1c0,5.1,2,9.8,5.5,13.4
	C19.1,88,23.9,90,28.9,90c5.1,0,9.8-2,13.4-5.5l16.9-16.9l7.1,7.1L49.3,91.5C43.8,97,36.6,100,28.9,100s-15-3-20.4-8.5
	C3,86.1,0,78.8,0,71.1z"/>
<polygon points="67.6,25.3 74.7,32.4 32.4,74.6 25.4,67.6 "/>
</svg>
