<svg width="34" height="29" viewBox="0 0 34 29" fill="none" xmlns="http://www.w3.org/2000/svg">
<path fill-rule="evenodd" clip-rule="evenodd" d="M4.81198 0L8.46488 2.29334L12.188 0L17 2.81316L21.812 0L25.4649 2.29334L29.188 0L34 2.81316V7.06348L29.188 4.21974L25.4298 6.57424L21.812 4.21974L17 7.06348L12.188 4.21974L8.42975 6.57424L4.81198 4.21974L0 7.06348V2.81316L4.81198 0Z" fill="#0376E1"/>
<path fill-rule="evenodd" clip-rule="evenodd" d="M4.81198 11L8.46488 13.2933L12.188 11L17 13.8132L21.812 11L25.4649 13.2933L29.188 11L34 13.8132V18.0635L29.188 15.2197L25.4298 17.5742L21.812 15.2197L17 18.0635L12.188 15.2197L8.42975 17.5742L4.81198 15.2197L0 18.0635V13.8132L4.81198 11Z" fill="#0376E1"/>
<path fill-rule="evenodd" clip-rule="evenodd" d="M8.46488 24.2933L4.81198 22L0 24.8132V29.0635L4.81198 26.2197L8.42975 28.5742L12.188 26.2197L17 29.0635V24.8132L12.188 22L8.46488 24.2933Z" fill="#0376E1"/>
</svg>
