<?xml version="1.0" encoding="utf-8"?>
<!-- Generator: Adobe Illustrator 24.3.0, SVG Export Plug-In . SVG Version: 6.00 Build 0)  -->
<svg version="1.1" id="Layer_1" xmlns="http://www.w3.org/2000/svg" xmlns:xlink="http://www.w3.org/1999/xlink" x="0px" y="0px"
	 viewBox="0 0 100 100" style="enable-background:new 0 0 100 100;" xml:space="preserve">
<path d="M97.2,14.5L85.5,2.8c-3.5-3.7-9.6-3.7-13.3,0L61.2,13.7l25,25l10.9-10.9C100.9,24.1,100.9,18,97.2,14.5z M49.1,10.4
	c-3.1-2.9-8-2.9-11.2,0L14.7,33.7c-1.2,1.2-1.2,3.1,0,4.5l4.5,4.3c1.2,1.2,3.1,1.2,4.5,0l19.7-19.9L48,27L18.2,56.7
	C9.6,65.4,1.4,82.6,0,94.9c-0.4,2.9,2.2,5.5,5.1,5.1c12.3-1.4,29.5-9.6,38.1-18.2l38.5-38.5L65.5,27L49.1,10.4z"/>
</svg>
