<?xml version="1.0" encoding="utf-8"?>
<!-- Generator: Adobe Illustrator 16.0.0, SVG Export Plug-In . SVG Version: 6.00 Build 0)  -->
<!DOCTYPE svg PUBLIC "-//W3C//DTD SVG 1.1//EN" "http://www.w3.org/Graphics/SVG/1.1/DTD/svg11.dtd">
<svg version="1.1" id="Layer_1" xmlns="http://www.w3.org/2000/svg" xmlns:xlink="http://www.w3.org/1999/xlink" x="0px" y="0px"
	 width="100px" height="100px" viewBox="0 0 100 100" enable-background="new 0 0 100 100" xml:space="preserve">
<path d="M97.212,14.509L85.492,2.78c-3.525-3.711-9.59-3.711-13.301,0L61.243,13.728l25.03,25.03l10.938-10.947
	C100.933,24.089,100.933,18.034,97.212,14.509z M49.123,10.407c-3.135-2.93-8.018-2.93-11.152,0L14.708,33.67
	c-1.172,1.182-1.172,3.135,0,4.502l4.492,4.297c1.182,1.182,3.135,1.182,4.502,0l19.747-19.942l4.502,4.503L18.224,56.747
	C9.62,65.351,1.407,82.559,0.04,94.883c-0.391,2.931,2.158,5.47,5.088,5.079c12.315-1.367,29.523-9.581,38.126-18.185L81.771,43.25
	L65.54,27.029L49.123,10.407z"/>
</svg>
