<svg width="10" height="10" viewBox="0 0 10 10" fill="none" xmlns="http://www.w3.org/2000/svg">
<path d="M9.72138 1.45174L8.54826 0.278617C8.19632 -0.0928725 7.5902 -0.0928725 7.21871 0.278617L6.1238 1.37354L8.62646 3.8762L9.72138 2.78129C10.0929 2.4098 10.0929 1.80368 9.72138 1.45174ZM4.91157 1.04115C4.59873 0.747868 4.10993 0.747868 3.7971 1.04115L1.4704 3.36785C1.35308 3.48516 1.35308 3.68068 1.4704 3.81755L1.92009 4.24769C2.03741 4.36501 2.23293 4.36501 2.36979 4.24769L4.34455 2.25338L4.79425 2.70308L1.82233 5.675C0.962042 6.53529 0.140854 8.25587 0.0039892 9.48766C-0.035115 9.78094 0.219062 10.0351 0.512344 9.99601C1.74413 9.85915 3.46471 9.03796 4.325 8.17767L8.17677 4.3259L6.55394 2.70308L4.91157 1.04115Z" fill="white"/>
</svg>
