<?xml version="1.0" encoding="utf-8"?>
<!-- Generator: Adobe Illustrator 24.3.0, SVG Export Plug-In . SVG Version: 6.00 Build 0)  -->
<svg version="1.1" id="Layer_1" xmlns="http://www.w3.org/2000/svg" xmlns:xlink="http://www.w3.org/1999/xlink" x="0px" y="0px"
	 viewBox="0 0 100 100" style="enable-background:new 0 0 100 100;" xml:space="preserve">
<style type="text/css">
	.st0{fill:#2A2B2C;}
</style>
<path class="st0" d="M100,89.8L72.5,62.3c4.4-6.4,7-14.2,7-22.5C79.5,17.8,61.7,0,39.8,0C17.8,0,0,17.8,0,39.8
	c0,21.9,17.8,39.8,39.8,39.8c8.3,0,16.1-2.6,22.5-7L89.8,100L100,89.8z M14.5,39.8c0-14,11.4-25.3,25.3-25.3
	c13.9,0,25.3,11.4,25.3,25.3c0,13.9-11.4,25.3-25.3,25.3C25.8,65.1,14.5,53.7,14.5,39.8z"/>
</svg>
