<?xml version="1.0" encoding="utf-8"?>
<!-- Generator: Adobe Illustrator 16.0.0, SVG Export Plug-In . SVG Version: 6.00 Build 0)  -->
<!DOCTYPE svg PUBLIC "-//W3C//DTD SVG 1.1//EN" "http://www.w3.org/Graphics/SVG/1.1/DTD/svg11.dtd">
<svg version="1.1" id="Layer_1" xmlns="http://www.w3.org/2000/svg" xmlns:xlink="http://www.w3.org/1999/xlink" x="0px" y="0px"
	 width="100px" height="100px" viewBox="0 0 100 100" enable-background="new 0 0 100 100" xml:space="preserve">
<path fill="#2A2B2C" d="M100,89.771L72.51,62.28c4.406-6.396,7.013-14.169,7.013-22.519C79.522,17.838,61.682,0,39.762,0
	C17.838,0,0,17.838,0,39.762c0,21.92,17.838,39.761,39.762,39.761c8.35,0,16.122-2.606,22.519-7.013L89.771,100L100,89.771z
	 M14.459,39.762c0-13.953,11.35-25.303,25.303-25.303c13.949,0,25.302,11.35,25.302,25.303c0,13.949-11.353,25.302-25.302,25.302
	C25.809,65.063,14.459,53.711,14.459,39.762z"/>
</svg>
