<?xml version="1.0" encoding="utf-8"?>
<!-- Generator: Adobe Illustrator 16.0.0, SVG Export Plug-In . SVG Version: 6.00 Build 0)  -->
<!DOCTYPE svg PUBLIC "-//W3C//DTD SVG 1.1//EN" "http://www.w3.org/Graphics/SVG/1.1/DTD/svg11.dtd">
<svg version="1.1" id="Layer_1" xmlns="http://www.w3.org/2000/svg" xmlns:xlink="http://www.w3.org/1999/xlink" x="0px" y="0px"
	 width="100px" height="100px" viewBox="0 0 100 100" enable-background="new 0 0 100 100" xml:space="preserve">
<path fill="#2A2B2C" d="M50,50.809c-14.01,0-25.402-11.393-25.402-25.406C24.598,11.393,35.99,0,50,0
	c14.012,0,25.4,11.393,25.4,25.402C75.4,39.401,64.012,50.809,50,50.809z M50,13.189c-6.727,0-12.217,5.472-12.217,12.213
	c0,6.727,5.477,12.217,12.217,12.217c6.748,0,12.217-5.472,12.217-12.217C62.217,18.661,56.723,13.189,50,13.189z"/>
<path fill="#2A2B2C" d="M92.861,100H79.672c0-16.357-13.305-29.676-29.672-29.676c-16.369,0-29.672,13.318-29.672,29.676H7.138
	c0-23.639,19.223-42.859,42.862-42.859C73.643,57.141,92.861,76.361,92.861,100z"/>
</svg>
