<?xml version="1.0" encoding="utf-8"?>
<svg version="1.1" xmlns="http://www.w3.org/2000/svg" viewBox="-435 0 1141 720">
<style>
	:root {
		--theme-color-secondary: #c0c6cb;
		--theme-color-tertiary: #e3e5e7;
	}
</style>
<circle class="st0" cx="0" cy="360" r="360" fill="var(--theme-color-tertiary)" />
<path d="M341.6,495c-12,0-23.3-4.7-31.9-13.2c-8.8-8.7-13.7-20.3-13.7-32.6c0-12.1,4.7-23.6,13.4-32.3c8.7-8.7,20.1-13.6,32.2-13.6
	l0,0c2.9,0,5.6-2.8,5.6-5.8c0-2-1.1-3.5-1.8-4.1c-0.6-0.6-2-1.7-3.8-1.7l0,0c-12.1,0-23.6-4.8-32.2-13.6
	c-8.7-8.8-13.5-20.4-13.4-32.6c0.1-25.1,20.6-45.5,45.8-45.5c25.3,0,45.8,20.5,45.8,45.6c0,1.9,1.1,3.2,1.7,3.8
	c0.7,0.7,2.1,1.8,4.1,1.8c3.1,0,5.8-2.7,5.8-5.6c0-25.1,20.6-45.6,45.8-45.6c25.2,0,45.8,20.4,45.8,45.5
	c0.1,12.2-4.6,23.8-13.4,32.6c-8.7,8.7-20.1,13.6-32.2,13.6l0,0c-2.9,0-5.6,2.8-5.6,5.8s2.7,5.8,5.6,5.8l0,0
	c12.1,0,23.5,4.8,32.2,13.6c8.7,8.8,13.5,20.4,13.4,32.6c-0.1,25.1-20.6,45.5-45.8,45.5l0,0c-12.1,0-23.6-4.7-32.3-13.4
	c-8.7-8.7-13.6-20.1-13.6-32.2c0-2.9-2.8-5.6-5.8-5.6c-3.1,0-5.8,2.7-5.8,5.6c0,25.1-20.5,45.5-45.7,45.6
	C341.8,495,341.7,495,341.6,495z M341.6,443.3c-1.9,0-3.2,1.1-3.8,1.7c-0.7,0.7-1.8,2.1-1.8,4.1c0,2.1,1.1,3.5,1.8,4.2
	c0.6,0.6,2,1.7,3.8,1.7h0.2c3.1,0,5.8-2.7,5.8-5.6c0-2.2,0.2-4.4,0.5-6.6C346,443.2,343.8,443.3,341.6,443.3z M438.9,442.9
	c0.3,2.1,0.5,4.3,0.5,6.6c0,1.9,1.1,3.2,1.7,3.8c0.7,0.7,2.1,1.8,4.1,1.8c3.1,0,5.8-2.7,5.8-5.6v-0.2c0-2.1-1.1-3.5-1.8-4.2
	c-0.6-0.6-2-1.7-3.8-1.7l0,0C443.2,443.3,441,443.2,438.9,442.9z M386.7,390.7c0.3,2.2,0.5,4.5,0.5,6.8s-0.2,4.6-0.5,6.8
	c4.5-0.7,9.2-0.7,13.7,0c-0.3-2.2-0.5-4.5-0.5-6.8s0.2-4.6,0.5-6.8c-2.2,0.3-4.5,0.5-6.8,0.5l0,0C391.2,391.2,388.9,391,386.7,390.7
	z M341.6,351.7c2.2,0,4.4,0.2,6.6,0.5c-0.3-2.2-0.5-4.4-0.5-6.6c0-2.9-2.8-5.6-5.8-5.6c-3.1,0-5.8,2.7-5.8,5.6v0.2
	c0,2.1,1.1,3.5,1.8,4.2C338.4,350.6,339.7,351.7,341.6,351.7L341.6,351.7z M445.2,340c-3.1,0-5.8,2.7-5.8,5.6c0,2.2-0.2,4.4-0.5,6.6
	c2.1-0.3,4.3-0.5,6.6-0.5l0,0c1.8,0,3.2-1.1,3.8-1.7c0.7-0.7,1.8-2.1,1.8-4.2v-0.2C451,342.7,448.2,340,445.2,340z" fill="var(--theme-color-secondary)"/>
</svg>
