<svg xmlns="http://www.w3.org/2000/svg" viewBox="0 0 1010 720"
	style="
		--bling-width: 1010;
		--bling-offset: 0;
	/*
		--bling-offset-ish: xxx;
		--bling-offset-center: xxx;
	*/
	"
>
	<circle cx="360" cy="360" r="360"
		fill="var(--bling-color-a, #f3f4f5)"/>
	<path d="M701.6,496c-12,0-23.3-4.7-31.9-13.2c-8.8-8.7-13.7-20.3-13.7-32.6c0-12.1,4.7-23.6,13.4-32.3
		c8.7-8.7,20.1-13.6,32.2-13.6l0,0c2.9,0,5.6-2.8,5.6-5.8c0-2-1.1-3.5-1.8-4.1c-0.6-0.6-2-1.7-3.8-1.7l0,0
		c-12.1,0-23.6-4.8-32.2-13.6c-8.7-8.8-13.5-20.4-13.4-32.6c0.1-25.1,20.6-45.5,45.8-45.5c25.3,0,45.8,20.5,45.8,45.6
		c0,1.9,1.1,3.2,1.7,3.8c0.7,0.7,2.1,1.8,4.1,1.8c3.1,0,5.8-2.7,5.8-5.6c0-25.1,20.6-45.6,45.8-45.6c25.2,0,45.8,20.4,45.8,45.5
		c0.1,12.2-4.6,23.8-13.4,32.6c-8.7,8.7-20.1,13.6-32.2,13.6l0,0c-2.9,0-5.6,2.8-5.6,5.8s2.7,5.8,5.6,5.8l0,0
		c12.1,0,23.5,4.8,32.2,13.6c8.7,8.8,13.5,20.4,13.4,32.6c-0.1,25.1-20.6,45.5-45.8,45.5l0,0c-12.1,0-23.6-4.7-32.3-13.4
		s-13.6-20.1-13.6-32.2c0-2.9-2.8-5.6-5.8-5.6c-3.1,0-5.8,2.7-5.8,5.6c0,25.1-20.5,45.5-45.7,45.6C701.8,496,701.7,496,701.6,496z
		M701.6,444.3c-1.9,0-3.2,1.1-3.8,1.7c-0.7,0.7-1.8,2.1-1.8,4.1c0,2.1,1.1,3.5,1.8,4.2c0.6,0.6,2,1.7,3.8,1.7h0.2
		c3.1,0,5.8-2.7,5.8-5.6c0-2.2,0.2-4.4,0.5-6.6C706.1,444.2,703.8,444.3,701.6,444.3z M799,443.9c0.3,2.1,0.5,4.3,0.5,6.6
		c0,1.9,1.1,3.2,1.7,3.8c0.7,0.7,2.1,1.8,4.1,1.8c3.1,0,5.8-2.7,5.8-5.6v-0.2c0-2.1-1.1-3.5-1.8-4.2c-0.6-0.6-2-1.7-3.8-1.7l0,0
		C803.4,444.3,801.1,444.2,799,443.9z M746.8,391.7c0.3,2.2,0.5,4.5,0.5,6.8s-0.2,4.6-0.5,6.8c4.5-0.7,9.2-0.7,13.7,0
		c-0.3-2.2-0.5-4.5-0.5-6.8s0.2-4.6,0.5-6.8c-2.2,0.3-4.5,0.5-6.8,0.5l0,0C751.3,392.2,749,392,746.8,391.7z M701.6,352.7
		c2.2,0,4.4,0.2,6.6,0.5c-0.3-2.2-0.5-4.4-0.5-6.6c0-2.9-2.8-5.6-5.8-5.6c-3.1,0-5.8,2.7-5.8,5.6v0.2c0,2.1,1.1,3.5,1.8,4.2
		C698.4,351.6,699.7,352.7,701.6,352.7L701.6,352.7z M805.4,341c-3.1,0-5.8,2.7-5.8,5.6c0,2.2-0.2,4.4-0.5,6.6
		c2.1-0.3,4.3-0.5,6.6-0.5l0,0c1.8,0,3.2-1.1,3.8-1.7c0.7-0.7,1.8-2.1,1.8-4.2v-0.2C811.2,343.7,808.4,341,805.4,341z"
		fill="var(--bling-color-b, #ebeced)"/>
</svg>
