<svg xmlns="http://www.w3.org/2000/svg" viewBox="0 0 196 196"
	style="
		--bling-width: 196;
		--bling-offset: 104;
		--bling-offset-ish: 312;
		--bling-offset-center: 520;
	"
>
	<path d="M45.9,196c-12.1,0-23.4-4.7-32.1-13.3C4.9,174,0,162.3,0,150c0-12.2,4.7-23.7,13.5-32.5
		c8.8-8.7,20.2-13.7,32.4-13.7l0,0c2.9,0,5.6-2.8,5.6-5.8c0-2-1.1-3.5-1.8-4.1c-0.6-0.6-2-1.7-3.8-1.7l0,0
		c-12.2,0-23.7-4.8-32.4-13.7C4.7,69.7-0.1,58,0,45.7C0.1,20.5,20.7,0,46.1,0c25.5,0,46.1,20.6,46.1,45.8c0,1.9,1.1,3.2,1.7,3.8
		c0.7,0.7,2.1,1.8,4.1,1.8c3.1,0,5.8-2.7,5.8-5.6c0-25.2,20.7-45.8,46.1-45.8S196,20.5,196,45.7c0.1,12.3-4.6,23.9-13.5,32.8
		c-8.8,8.7-20.2,13.7-32.4,13.7l0,0c-2.9,0-5.6,2.8-5.6,5.8s2.7,5.8,5.6,5.8l0,0c12.2,0,23.6,4.8,32.4,13.7
		c8.8,8.8,13.6,20.5,13.5,32.8c-0.1,25.2-20.7,45.7-46.1,45.7l0,0c-12.2,0-23.7-4.7-32.5-13.5c-8.8-8.7-13.7-20.2-13.7-32.4
		c0-2.9-2.8-5.6-5.8-5.6c-3.1,0-5.8,2.7-5.8,5.6c0,25.2-20.6,45.7-46,45.8C46.1,196,46,196,45.9,196z M45.9,144
		c-1.9,0-3.2,1.1-3.8,1.7c-0.7,0.7-1.8,2.1-1.8,4.1c0,2.1,1.1,3.5,1.8,4.2c0.6,0.6,2,1.7,3.8,1.7h0.2c3.1,0,5.8-2.7,5.8-5.6
		c0-2.2,0.2-4.4,0.5-6.6C50.4,143.9,48.1,144,45.9,144z M143.9,143.6c0.3,2.1,0.5,4.3,0.5,6.6c0,1.9,1.1,3.2,1.7,3.8
		c0.7,0.7,2.1,1.8,4.1,1.8c3.1,0,5.8-2.7,5.8-5.6v-0.2c0-2.1-1.1-3.5-1.8-4.2c-0.6-0.6-2-1.7-3.8-1.7l0,0
		C148.3,144,146,143.9,143.9,143.6z M91.4,91.2c0.3,2.2,0.5,4.5,0.5,6.8s-0.2,4.6-0.5,6.8c4.5-0.7,9.3-0.7,13.8,0
		c-0.3-2.2-0.5-4.5-0.5-6.8s0.2-4.6,0.5-6.8c-2.2,0.3-4.5,0.5-6.8,0.5l0,0C95.9,91.7,93.6,91.5,91.4,91.2z M45.9,52
		c2.2,0,4.4,0.2,6.6,0.5C52.2,50.3,52,48,52,45.8c0-2.9-2.8-5.6-5.8-5.6c-3.1,0-5.8,2.7-5.8,5.6V46c0,2.1,1.1,3.5,1.8,4.2
		C42.7,50.9,44,52,45.9,52L45.9,52z M150.3,40.2c-3.1,0-5.8,2.7-5.8,5.6c0,2.2-0.2,4.4-0.5,6.6c2.1-0.3,4.3-0.5,6.6-0.5l0,0
		c1.8,0,3.2-1.1,3.8-1.7c0.7-0.7,1.8-2.1,1.8-4.2v-0.2C156.2,42.9,153.3,40.2,150.3,40.2z"
		fill="var(--bling-color-a, #f3f4f5)"/>
</svg>
