<svg width="235" height="235" viewBox="0 0 235 235" fill="none" xmlns="http://www.w3.org/2000/svg">
<path d="M152 107.178V116.861L161.6 110.372L171.1 116.761V107.078L161.5 100.889L152 107.178Z" fill="black"/>
<path d="M117.9 87.0128L110.6 81.722L101 88.2107V97.9936L110.6 91.4051L117.8 96.7957L125.3 91.4051L134.9 97.9936V88.2107L125.3 81.722L117.9 87.0128Z" fill="black"/>
<path d="M161.5 81.6222L152 87.8114V97.4945L161.6 91.0058L171.1 97.4945V87.8114L161.5 81.6222Z" fill="black"/>
<path d="M74.4 71.8392L84 78.2281V64.2524H101.1V78.4277L110.7 71.8392L117.9 77.2298L125.4 71.8392L135 78.4277V64.2524H152V78.3279L161.6 71.939L171.1 78.3279V39.9948H152V55.6674H135V39.9948H118.2H100.9V55.6674H84V39.9948H65V78.3279L74.4 71.8392Z" fill="black"/>
<path d="M74.4 110.372L84 116.761V107.078L74.4 100.789L65 107.178V116.861L74.4 110.372Z" fill="black"/>
<path d="M84 97.5943V87.9112L74.4 81.6222L65 87.8114V97.4945L74.4 91.1057L84 97.5943Z" fill="black"/>
<path d="M161.5 120.055L152 126.344V180.05C162.2 168.471 169.6 154.595 171 139.821V126.244L161.5 120.055Z" fill="black"/>
<path d="M84 126.344L74.4 120.055L65 126.344V139.92C66.3 154.695 73.8 168.67 84 180.25V126.344Z" fill="black"/>
<path d="M134.9 127.342L125.3 120.954L118 126.244L110.6 120.954L101 127.342L100.9 195.723C106.4 199.616 112.1 203.11 117.8 205.706C123.6 203.01 129.4 199.616 135 195.523" fill="black"/>
<path d="M134.9 107.777L125.3 101.388L117.9 106.678L110.6 101.388L101 107.777V117.659L110.7 111.071L117.9 116.461L125.4 111.071L135 117.659" fill="black"/>
</svg>
