<svg width="245" height="245" viewBox="0 0 245 245" fill="none" xmlns="http://www.w3.org/2000/svg">
<path d="M70 44C70 76.2 70 144.1 70 144.1C75.1 184.9 114.7 206.5 122.8 210C147.9 197.5 170.9 176.9 176 144V44H70Z" fill="white" stroke="white" stroke-width="5.8642"/>
<path d="M157 111.3V121L166.6 114.5L176.1 120.9V111.2L166.5 105L157 111.3Z" fill="#0376E1"/>
<path d="M122.9 91.1L115.6 85.8L106 92.3V102.1L115.6 95.5L122.8 100.9L130.3 95.5L139.9 102.1V92.3L130.3 85.8L122.9 91.1Z" fill="#0376E1"/>
<path d="M166.5 85.7L157 91.9V101.6L166.6 95.1L176.1 101.6V91.9L166.5 85.7Z" fill="#0376E1"/>
<path d="M79.4 75.9L89 82.3V68.3H106.1V82.5L115.7 75.9L122.9 81.3L130.4 75.9L140 82.5V68.3H157V82.4L166.6 76L176.1 82.4V44H157V59.7H140V44H123.2H105.9V59.7H89V44H70V82.4L79.4 75.9Z" fill="#0376E1"/>
<path d="M79.4 114.5L89 120.9V111.2L79.4 104.9L70 111.3V121L79.4 114.5Z" fill="#0376E1"/>
<path d="M89 101.7V92L79.4 85.7L70 91.9V101.6L79.4 95.2L89 101.7Z" fill="#0376E1"/>
<path d="M166.5 124.2L157 130.5V184.3C167.2 172.7 174.6 158.8 176 144V130.4L166.5 124.2Z" fill="#0376E1"/>
<path d="M89 130.5L79.4 124.2L70 130.5V144.1C71.3 158.9 78.8 172.9 89 184.5V130.5Z" fill="#0376E1"/>
<path d="M139.9 131.5L130.3 125.1L123 130.4L115.6 125.1L106 131.5L105.9 200C111.4 203.9 117.1 207.4 122.8 210C128.6 207.3 134.4 203.9 140 199.8" fill="#0376E1"/>
<path d="M139.9 111.9L130.3 105.5L122.9 110.8L115.6 105.5L106 111.9V121.8L115.7 115.2L122.9 120.6L130.4 115.2L140 121.8" fill="#0376E1"/>
</svg>
