<svg width="173" height="173" viewBox="0 0 173 173" fill="none" xmlns="http://www.w3.org/2000/svg">
<path d="M33 3C33 35.2 33 103.1 33 103.1C38.1 143.9 77.7 165.5 85.8 169C110.9 156.5 133.9 135.9 139 103V3H33Z" fill="white" stroke="white" stroke-width="5.8642"/>
<path d="M120 70.3V80L129.6 73.5L139.1 79.9V70.2L129.5 64L120 70.3Z" fill="#0376E1"/>
<path d="M85.9 50.1L78.6 44.8L69 51.3V61.1L78.6 54.5L85.8 59.9L93.3 54.5L102.9 61.1V51.3L93.3 44.8L85.9 50.1Z" fill="#0376E1"/>
<path d="M129.5 44.7L120 50.9V60.6L129.6 54.1L139.1 60.6V50.9L129.5 44.7Z" fill="#0376E1"/>
<path d="M42.4 34.9L52 41.3V27.3H69.1V41.5L78.7 34.9L85.9 40.3L93.4 34.9L103 41.5V27.3H120V41.4L129.6 35L139.1 41.4V3H120V18.7H103V3H86.2H68.9V18.7H52V3H33V41.4L42.4 34.9Z" fill="#0376E1"/>
<path d="M42.4 73.5L52 79.9V70.2L42.4 63.9L33 70.3V80L42.4 73.5Z" fill="#0376E1"/>
<path d="M52 60.7V51L42.4 44.7L33 50.9V60.6L42.4 54.2L52 60.7Z" fill="#0376E1"/>
<path d="M129.5 83.2L120 89.5V143.3C130.2 131.7 137.6 117.8 139 103V89.4L129.5 83.2Z" fill="#0376E1"/>
<path d="M52 89.5L42.4 83.2L33 89.5V103.1C34.3 117.9 41.8 131.9 52 143.5V89.5Z" fill="#0376E1"/>
<path d="M102.9 90.5L93.3 84.1L86 89.4L78.6 84.1L69 90.5L68.9 159C74.4 162.9 80.1 166.4 85.8 169C91.6 166.3 97.4 162.9 103 158.8" fill="#0376E1"/>
<path d="M102.9 70.9L93.3 64.5L85.9 69.8L78.6 64.5L69 70.9V80.8L78.7 74.2L85.9 79.6L93.4 74.2L103 80.8" fill="#0376E1"/>
</svg>
