<svg viewBox="0 0 375 272" fill="none" xmlns="http://www.w3.org/2000/svg" class="formheimur-bru"><style>.formheimur-bru{--litur1: var(--theme-color-primary, #dcddde);--litur2: var(--theme-color-secondary, #ebeced);--litur3: var(--theme-color-tertiary, #f3f4f5)}[data-color-theme=trustworthy] .formheimur-bru{--litur2: white;--litur3: var(--theme-color-secondary)}[data-color-theme=dependable] .formheimur-bru{--litur1: var(--theme-color-secondary);--litur2: var(--theme-color-primary)}[data-color-theme=lively] .formheimur-bru{--litur1: var(--theme-color-tertiary);--litur3: var(--theme-color-primary)}</style><path d="M375 0H0v272h375V0z" fill="var(--litur3)"/><path d="M39.64 206.45l6.51-7.1 16.65-18c11.16-11.95 22.35-23.88 33.67-35.68a2366.9 2366.9 0 0117.03-17.66l17.17-17.53c6.45-6.46 12.9-12.93 19.4-19.35l-26.35 115.33h10.06L166.4 87.98l156.35 118.48h20.93L164.42 61.39l-7.75-6.27-5.81 7.41c-10.12 12.9-20.62 25.45-31.08 38.04l-15.87 18.72c-5.31 6.22-10.64 12.43-16.01 18.59-10.7 12.37-21.54 24.61-32.4 36.83l-16.38 18.25-8.24 9.09-4 4.41h12.76v-.01z" fill="var(--litur2)"/><path d="M375 206H0v66h375v-66z" fill="var(--litur1)"/></svg>