<svg width="375" height="272" viewBox="0 0 375 272" fill="none" xmlns="http://www.w3.org/2000/svg"><style>:root{--theme-color-primary: #727477;--theme-color-secondary: #c7cbd0;--theme-color-tertiary: #e3e5e7}</style><path d="M375 0H0v272h375V0z" fill="var(--theme-color-tertiary)"/><path d="M39.64 206.45l6.51-7.1 16.65-18c11.16-11.95 22.35-23.88 33.67-35.68a2366.9 2366.9 0 0117.03-17.66l17.17-17.53c6.45-6.46 12.9-12.93 19.4-19.35l-26.35 115.33h10.06L166.4 87.98l156.35 118.48h20.93L164.42 61.39l-7.75-6.27-5.81 7.41c-10.12 12.9-20.62 25.45-31.08 38.04l-15.87 18.72c-5.31 6.22-10.64 12.43-16.01 18.59-10.7 12.37-21.54 24.61-32.4 36.83l-16.38 18.25-8.24 9.09-4 4.41h12.76v-.01z" fill="var(--theme-color-primary)"/><path d="M375 206H0v66h375v-66z" fill="var(--theme-color-secondary)"/></svg>