<svg width="373" height="270" fill="none" xmlns="http://www.w3.org/2000/svg"><style>:root{--theme-color-primary: #727477;--theme-color-secondary: #c7cbd0;--theme-color-tertiary: #e3e5e7}</style><path d="M372.19 0H0v269.33h372.19V0z" fill="var(--theme-color-tertiary)"/><path d="M233.83 106.67c14.238 0 25.78-11.542 25.78-25.78 0-14.238-11.542-25.78-25.78-25.78-14.238 0-25.78 11.542-25.78 25.78 0 14.238 11.542 25.78 25.78 25.78z" fill="#fff"/><path d="M233.83 214.23l45.91-91.81h-91.81l45.9 91.81z" fill="var(--theme-color-primary)"/><path d="M138.36 106.67c14.238 0 25.78-11.542 25.78-25.78 0-14.238-11.542-25.78-25.78-25.78-14.238 0-25.78 11.542-25.78 25.78 0 14.238 11.542 25.78 25.78 25.78z" fill="#fff"/><path d="M138.36 122.42l-45.91 91.81h91.81l-45.9-91.81z" fill="var(--theme-color-secondary)"/></svg>