<svg width="373" height="270" viewBox="0 0 373 270" fill="none" xmlns="http://www.w3.org/2000/svg" class="formheimur-folk"><style>:root{--litur1: #727477;--litur2: #c0c6cb;--litur3: #e3e5e7}:root .formheimur-folk{--litur1: var(--theme-color-primary);--litur2: var(--theme-color-secondary);--litur3: var(--theme-color-tertiary)}[data-color-theme=trustworthy] .formheimur-folk{--litur1: var(--theme-color-tertiary);--litur3: var(--theme-color-primary)}[data-color-theme=dependable] .formheimur-folk{--litur1: var(--theme-color-secondary);--litur2: var(--theme-color-primary)}[data-color-theme=friendly] .formheimur-folk{--litur1: var(--theme-color-secondary);--litur2: var(--theme-color-tertiary);--litur3: var(--theme-color-primary)}[data-color-theme=lively] .formheimur-folk{--litur1: var(--theme-color-tertiary);--litur2: var(--theme-color-primary);--litur3: var(--theme-color-secondary)}</style><path d="M372.19 0H0v269.33h372.19V0z" fill="var(--litur3)"/><path d="M233.83 106.67c14.238 0 25.78-11.542 25.78-25.78 0-14.238-11.542-25.78-25.78-25.78-14.238 0-25.78 11.542-25.78 25.78 0 14.238 11.542 25.78 25.78 25.78z" fill="#fff"/><path d="M233.83 214.23l45.91-91.81h-91.81l45.9 91.81z" fill="var(--litur2)"/><path d="M138.36 106.67c14.238 0 25.78-11.542 25.78-25.78 0-14.238-11.542-25.78-25.78-25.78-14.238 0-25.78 11.542-25.78 25.78 0 14.238 11.542 25.78 25.78 25.78z" fill="#fff"/><path d="M138.36 122.42l-45.91 91.81h91.81l-45.9-91.81z" fill="var(--litur1)"/></svg>