<svg viewBox="0 0 375 272" fill="none" xmlns="http://www.w3.org/2000/svg" class="formheimur-hofnin"><style>.formheimur-hofnin{--litur1: var(--theme-color-primary, #dcddde);--litur2: var(--theme-color-secondary, #ebeced);--litur3: var(--theme-color-tertiary, #f3f4f5)}[data-color-theme=trustworthy] .formheimur-hofnin{--litur2: white;--litur3: var(--theme-color-secondary)}[data-color-theme=dependable] .formheimur-hofnin{--litur1: var(--theme-color-tertiary);--litur2: var(--theme-color-primary);--litur3: var(--theme-color-secondary)}[data-color-theme=colorful] .formheimur-hofnin{--litur2: var(--theme-color-tertiary);--litur3: var(--theme-color-secondary)}</style><path d="M375 0H0v272h375V0z" fill="var(--litur3)"/><path d="M189.41 51h-67.75v67.75h67.75V51z" fill="var(--litur2)"/><path d="M125.04 197.17h30.49V79.06l-67.75 55.93 37.26 62.18z" fill="var(--litur1)"/><path d="M187.56 197.17h-32.03V79.06l67.74 55.93-35.71 62.18zM53.6 134.83H0v62.35h53.6v-62.35zm261.449-27.07h-41.44v41.44h41.44v-41.44z" fill="var(--litur2)"/><path d="M275.68 197.17h18.65v-72.25l-41.44 34.22 22.79 38.03z" fill="var(--litur1)"/><path d="M313.92 197.17h-19.59v-72.25l41.44 34.22-21.85 38.03z" fill="var(--litur2)"/><path d="M375 197H0v75h375v-75z" fill="var(--litur1)"/></svg>