<svg width="375" height="272" fill="none" xmlns="http://www.w3.org/2000/svg"><style>:root{--theme-color-primary: #727477;--theme-color-secondary: #c7cbd0;--theme-color-tertiary: #e3e5e7}</style><path d="M375 0H0v272h375V0z" fill="var(--theme-color-primary)"/><path d="M375 193H0v17h375v-17zm-187-90c-27.45 0-53.47-10.79-73.26-30.37C94.92 53.02 84 27.23 84 0h20c0 21.84 8.81 42.59 24.81 58.41C144.83 74.27 165.85 83 188 83s43.17-8.73 59.19-24.59C263.19 42.59 272 21.84 272 0h20c0 27.22-10.92 53.02-30.74 72.63C241.47 92.22 215.45 103 188 103z" fill="#fff"/><path d="M315.5 199c10.77 0 19.5-8.73 19.5-19.5s-8.73-19.5-19.5-19.5-19.5 8.73-19.5 19.5 8.73 19.5 19.5 19.5z" fill="var(--theme-color-secondary)"/></svg>