<svg width="375" height="272" fill="none" xmlns="http://www.w3.org/2000/svg"><style>:root{--theme-color-primary: #727477;--theme-color-secondary: #c7cbd0;--theme-color-tertiary: #e3e5e7}</style><path d="M375 0H0v272h375V0z" fill="var(--theme-color-tertiary)"/><path d="M127.34 107.07h-15.85v99.02h15.85v-99.02zM327.63 69.8l-22.03 45.43H375v-57L327.63 69.8z" fill="var(--theme-color-secondary)"/><path d="M305.6 171h-48.3v-61.35l-38.04-37.87-48.03-17.62v151.93H375v-90.86h-69.4V171z" fill="var(--theme-color-secondary)"/><path d="M375 206.09H0V272h375v-65.91zm-117.7-91.55h-40c0-24.8-20.18-44.98-44.98-44.98-24.8 0-44.98 20.18-44.98 44.98h-40c0-46.86 38.12-84.98 84.98-84.98 46.86 0 84.98 38.12 84.98 84.98zM375 31.02c-39.44 7.34-69.4 41.99-69.4 83.52h40c0-19.33 12.25-35.84 29.4-42.19V31.02z" fill="var(--theme-color-primary)"/></svg>