<svg width="375" height="271" viewBox="0 0 375 271" fill="none" xmlns="http://www.w3.org/2000/svg"><style>:root{--theme-color-primary: #727477;--theme-color-secondary: #c7cbd0;--theme-color-tertiary: #e3e5e7}</style><path d="M375 0H0v271h375V0z" fill="var(--theme-color-tertiary)"/><path d="M64.776 193.703h-.337l40.101-98.75 40.101 98.75h-.346l5.06 12.457h13.802L104.54 61.816 45.923 206.16h13.793l5.06-12.457z" fill="var(--theme-color-primary)"/><path d="M59.468 172.805h90.272l-11.248-27.695H70.578l-11.11 27.695zm59.38-75.744H90.223l14.317-35.245 14.308 35.245zm188.455 18.751h-90.41l45.2-61.248 45.21 61.248z" fill="var(--theme-color-secondary)"/><path d="M307.313 115.802h-90.42v90.358h90.42v-90.358z" fill="var(--theme-color-primary)"/><path d="M288.778 134.325h-53.35v53.312h53.35v-53.312z" fill="var(--theme-color-tertiary)"/><path d="M375 206.16H0V271h375v-64.84z" fill="var(--theme-color-secondary)"/></svg>