<svg viewBox="0 0 375 271" fill="none" xmlns="http://www.w3.org/2000/svg" class="formheimur-rolo"><style>.formheimur-rolo{--litur1: var(--theme-color-primary, #dcddde);--litur2: var(--theme-color-secondary, #ebeced);--litur3: var(--theme-color-tertiary, #f3f4f5)}[data-color-theme=dependable] .formheimur-rolo{--litur1: var(--theme-color-tertiary);--litur2: var(--theme-color-primary);--litur3: var(--theme-color-secondary)}[data-color-theme=friendly] .formheimur-rolo{--litur1: var(--theme-color-secondary);--litur2: var(--theme-color-tertiary);--litur3: var(--theme-color-primary)}[data-color-theme=colorful] .formheimur-rolo{--litur2: var(--theme-color-tertiary);--litur3: var(--theme-color-secondary)}</style><path d="M375 0H0v271h375V0z" fill="var(--litur1)"/><path d="M64.776 193.703h-.337l40.101-98.75 40.101 98.75h-.346l5.06 12.457h13.802L104.54 61.816 45.923 206.16h13.793l5.06-12.457z" fill="var(--litur2)"/><path d="M59.468 172.805h90.272l-11.248-27.695H70.578l-11.11 27.695zm59.38-75.744H90.223l14.317-35.245 14.308 35.245zm188.455 18.751h-90.41l45.2-61.248 45.21 61.248z" fill="var(--litur3)"/><path d="M307.313 115.802h-90.42v90.358h90.42v-90.358z" fill="var(--litur2)"/><path d="M288.778 134.325h-53.35v53.312h53.35v-53.312z" fill="var(--litur1)"/><path d="M375 206.16H0V271h375v-64.84z" fill="var(--litur3)"/></svg>