<svg viewBox="0 0 375 281" fill="none" xmlns="http://www.w3.org/2000/svg" class="formheimur-sjorinn"><style>.formheimur-sjorinn{--litur1: var(--theme-color-primary, #dcddde);--litur2: var(--theme-color-secondary, #ebeced)}[data-color-theme=trustworthy] .formheimur-sjorinn{--litur2: var(--theme-color-tertiary)}[data-color-theme=friendly] .formheimur-sjorinn{--litur1: var(--theme-color-secondary);--litur2: var(--theme-color-tertiary)}[data-color-theme=lively] .formheimur-sjorinn{--litur1: var(--theme-color-secondary);--litur2: var(--theme-color-primary)}[data-color-theme=colorful] .formheimur-sjorinn{--litur1: var(--theme-color-tertiary);--litur2: var(--theme-color-primary)}</style><path d="M375 142.29H0v138.6h375v-138.6z" fill="#fff"/><path d="M375 0H0v146.48h375V0z" fill="var(--litur2)"/><path d="M375 212.09l-37.23-25.06-37.79 25.18-37.23-25.06-37.79 25.06-37.23-25.06-37.88 25.06-37.14-25.06-37.7 24.94-37.22-25.06L0 212.21v38.48l37.79-25.64 37.03 25.76 37.89-25.64 37.14 25.64 37.88-25.64 37.23 25.64 37.79-25.64 37.23 25.52 37.79-25.64L375 250.6v-38.51zm0-72.44l-37.23-25.07-37.79 25.19-37.23-25.07-37.79 25.07-37.23-25.07-37.88 25.07-37.14-25.07-37.7 24.94-37.22-25.06L0 139.77v38.48l37.79-25.64 37.03 25.76 37.89-25.64 37.14 25.64 37.88-25.64 37.23 25.64 37.79-25.64 37.23 25.52 37.79-25.64L375 178.15v.01-38.51z" fill="var(--litur1)"/></svg>