<svg viewBox="0 0 360 271" fill="none" xmlns="http://www.w3.org/2000/svg" class="formheimur-sund"><style>.formheimur-sund{--litur1: var(--theme-color-primary, #dcddde);--litur2: var(--theme-color-secondary, #ebeced);--litur3: var(--theme-color-tertiary, #f3f4f5)}[data-color-theme=trustworthy] .formheimur-sund{--litur2: var(--theme-color-tertiary);--litur3: var(--theme-color-secondary)}[data-color-theme=friendly] .formheimur-sund,[data-color-theme=lively] .formheimur-sund{--litur1: var(--theme-color-tertiary);--litur3: var(--theme-color-primary)}</style><path d="M359.309 270.47V0H0v270.47h359.31z" fill="var(--litur3)"/><path d="M157.338 30.302h-6.243v10.409h6.243V30.302zm0 19.658h-6.243v10.408h6.243V49.96zm0 19.668h-6.243v10.408h6.243V69.628zm0 19.657h-6.243v10.409h6.243V89.285zm0 19.668h-6.243v10.408h6.243v-10.408zm0 81.485h-6.243v10.408h6.243v-10.408zm0 19.667h-6.243v10.408h6.243v-10.408zm0 19.658h-6.243v10.408h6.243v-10.408z" fill="#fff"/><path d="M157.338 129.559h-6.243v10.408h6.243v-10.408zm0 19.964h-6.243v10.408h6.243v-10.408zm0 19.964h-6.243v10.408h6.243v-10.408z" fill="var(--litur2)"/><path d="M208.316 168.539h-6.243v10.408h6.243v-10.408zm0-19.658h-6.243v10.409h6.243v-10.409zm0-19.667h-6.243v10.408h6.243v-10.408zm0-19.658h-6.243v10.408h6.243v-10.408zm0-19.667h-6.243v10.408h6.243V89.889zm102.053 78.65h-6.244v10.408h6.244v-10.408zm0-19.658h-6.244v10.409h6.244v-10.409zm0-19.667h-6.244v10.408h6.244v-10.408zm0-19.658h-6.244v10.408h6.244v-10.408zm0-19.667h-6.244v10.408h6.244V89.889z" fill="#fff"/><path d="M310.369 70.23h-6.244v10.41h6.244V70.23zm0-19.963h-6.244v10.408h6.244V50.267zm0-19.965h-6.244v10.409h6.244V30.302z" fill="var(--litur2)"/><path d="M259.286 30.302h-6.244v10.409h6.244V30.302zm-.001 19.658h-6.243v10.408h6.243V49.96zm0 19.668h-6.243v10.408h6.243V69.628zm0 19.657h-6.243v10.409h6.243V89.285zm0 19.668h-6.243v10.408h6.243v-10.408zm.001 81.485h-6.244v10.408h6.244v-10.408zm-.001 19.667h-6.243v10.408h6.243v-10.408zm0 19.658h-6.243v10.408h6.243v-10.408zm-153.031-61.224h-6.243v10.408h6.243v-10.408zm0-19.658h-6.243v10.409h6.243v-10.409zm0-19.667h-6.243v10.408h6.243v-10.408zm0-19.658h-6.243v10.408h6.243v-10.408zm.001-19.667h-6.243v10.408h6.243V89.889zM55.171 30.302h-6.243v10.409h6.243V30.302zM55.17 49.96h-6.242v10.408h6.243V49.96zm0 19.668h-6.242v10.408h6.243V69.628zm0 19.657h-6.242v10.409h6.243V89.285zm0 19.668h-6.242v10.408h6.243v-10.408zm.002 81.485h-6.243v10.408h6.243v-10.408zm-.001 19.667h-6.243v10.408h6.243v-10.408zm0 19.658h-6.243v10.408h6.243v-10.408z" fill="#fff"/><path d="M208.316 228.001h-6.243v10.408h6.243v-10.408zm0-19.964h-6.243v10.408h6.243v-10.408zm0-19.964h-6.243v10.408h6.243v-10.408zm0-117.843h-6.243v10.41h6.243V70.23zm0-19.963h-6.243v10.408h6.243V50.267zm0-19.965h-6.243v10.409h6.243V30.302zm102.053 197.699h-6.244v10.408h6.244v-10.408zm0-19.964h-6.244v10.408h6.244v-10.408zm0-19.964h-6.244v10.408h6.244v-10.408zm-51.084-58.514h-6.243v10.408h6.243v-10.408zm0 19.964h-6.243v10.408h6.243v-10.408zm0 19.964h-6.243v10.408h6.243v-10.408zm-153.031 58.514h-6.243v10.408h6.243v-10.408zm0-19.964h-6.243v10.408h6.243v-10.408zm.001-19.964h-6.243v10.408h6.243v-10.408zm-.001-117.843h-6.243v10.41h6.243V70.23zm0-19.963h-6.243v10.408h6.243V50.267zm.001-19.965h-6.243v10.409h6.243V30.302zm-51.083 99.257h-6.243v10.408h6.243v-10.408zm-.002 19.964h-6.242v10.408h6.243v-10.408zm0 19.964h-6.242v10.408h6.243v-10.408z" fill="var(--litur1)"/></svg>