<svg width="80" height="80" viewBox="0 0 80 80" fill="none" xmlns="http://www.w3.org/2000/svg">
<path d="M32 65.61C30.71 65.67 10.93 64.71 10.87 64.46C8.96761 64.3655 7.0805 64.0705 5.24 63.58C5.12635 63.5373 5.03168 63.4554 4.97302 63.349C4.91436 63.2427 4.89556 63.1189 4.92 63C4.92 62.84 4.76 62.69 4.72 62.51C4.53973 61.7024 4.44918 60.8774 4.45 60.05C4.45 58.54 4.45 57.05 4.56 55.51C4.56 54.7 4.75 53.9 4.81 53.09C4.95567 51.4936 5.26052 49.9158 5.72 48.38C6.02239 47.3377 6.43821 46.3317 6.96 45.38C6.79 45.04 6.61 44.71 6.45 44.38C6.11932 43.7255 5.98723 42.9886 6.07 42.26C6.11749 41.7019 6.20099 41.1474 6.32 40.6C6.50562 39.6997 6.92658 38.8647 7.54 38.18L8.34 37.28C8.41 37.2 8.54 37.12 8.54 37.04C8.54 36.67 8.8 36.55 9.01 36.37L9.59 35.91C10.5416 35.1095 11.7574 34.6924 13 34.74C13.6199 34.7575 14.235 34.8549 14.83 35.03C15.6235 35.2335 16.3419 35.6604 16.9 36.26C18.0576 37.9993 18.5965 40.0774 18.43 42.16C18.4437 43.4973 18.0226 44.8028 17.23 45.88L17.04 46.14L16.98 46.27C17.07 46.49 17.16 46.76 17.27 47C17.64 47.78 18.01 48.55 18.39 49.31C18.9327 50.3834 19.3746 51.5049 19.71 52.66L19.81 52.87C20.06 52.65 20.3 52.72 20.55 52.72C21.12 52.72 21.47 52.57 22.09 52.52C22.09 52.32 22.09 52.14 22.09 51.96C22.0578 50.7555 22.1618 49.5512 22.4 48.37C22.7669 46.5872 23.6462 44.9503 24.93 43.66C25.4475 43.221 26.0783 42.9368 26.75 42.84C26.81 42.84 26.65 42.72 26.75 42.68C26.52 42.45 26.16 42.29 25.97 42.07C25.0798 41.0238 24.535 39.728 24.41 38.36C24.1445 36.3907 24.5799 34.3907 25.64 32.71C26.5372 31.6004 27.6451 30.6793 28.9 30C29.4037 29.6998 29.9843 29.5538 30.57 29.58C31.0971 29.6511 31.6282 29.6879 32.16 29.69C32.7836 29.7188 33.4014 29.8229 34 30C34.7598 30.1632 35.4266 30.6149 35.86 31.26C36.8771 32.6143 37.6054 34.1629 38 35.81C38.0272 35.9012 38.044 35.9951 38.05 36.09C38.2151 37.7852 37.9893 39.4957 37.39 41.09C37.1899 41.6128 36.8756 42.0842 36.47 42.47C36.47 42.47 36.2 42.66 36.17 42.7C36.14 42.74 36.36 42.64 36.36 42.7C36.4923 42.7322 36.6225 42.7723 36.75 42.82C37.1044 42.962 37.4403 43.1467 37.75 43.37C38.7822 44.1639 39.7037 45.0921 40.49 46.13C40.74 46.47 40.95 46.84 41.17 47.2C41.25 47.33 41.37 46.83 41.46 47.01C41.59 46.45 41.51 46.6 41.64 46.1C41.8351 45.1226 42.1196 44.1653 42.49 43.24C42.9147 42.3772 43.5642 41.6449 44.37 41.12C43.5439 39.5081 43.3069 37.6581 43.7 35.89C43.9786 34.7243 44.4411 33.6103 45.07 32.59C45.5378 31.8308 46.2056 31.215 47 30.81C48.59 29.99 49.6 29.35 51.32 29.68C51.53 29.6 52.22 29.56 52.44 29.51C52.66 29.46 53.06 29.75 53.28 29.75C53.6349 29.7426 53.9859 29.8249 54.3005 29.9892C54.6152 30.1535 54.8833 30.3946 55.08 30.69C55.34 31.04 55.57 31.42 55.83 31.77C56.4452 32.6597 56.8207 33.6929 56.92 34.77C57.2157 36.67 56.8333 38.6135 55.84 40.26L55.72 40.45L55.56 40.71C55.6761 41.0688 55.8233 41.4168 56 41.75C56.8493 43.0791 57.3861 44.5835 57.57 46.15C57.8277 47.6894 57.9415 49.2495 57.91 50.81C57.91 51.01 57.91 51.21 57.91 51.46H58.44C58.82 51.46 59.19 51.53 59.57 51.54C59.95 51.55 59.98 51.71 60.08 52C60.48 53.21 60.91 54.42 61.33 55.62C61.33 55.77 61.46 55.9 61.57 56.15V55.7C61.6279 53.6939 62.0269 51.7122 62.75 49.84C63.02 49.19 63.26 48.52 63.5 47.84C63.97 46.54 63.56 46.49 64.5 45.69C63.7465 44.6785 63.2428 43.5032 63.03 42.26C62.8896 41.6007 62.8896 40.9193 63.03 40.26C63.2644 38.8323 63.837 37.4813 64.7 36.32C65.2218 35.6115 65.8692 35.0048 66.61 34.53C67.7264 34.0399 68.9796 33.9585 70.15 34.3C70.7641 34.4722 71.3602 34.7033 71.93 34.99C72.2917 35.1769 72.6115 35.4355 72.87 35.75C73.28 36.25 73.69 36.75 74.11 37.22C74.5747 37.7277 74.9138 38.3374 75.1 39C75.4794 40.1858 75.6652 41.4251 75.65 42.67C75.5972 43.9196 75.0843 45.1056 74.21 46C73.931 46.3127 73.7841 46.7213 73.8 47.14C74.1867 49.62 74.5633 52.1 74.93 54.58C75.1 55.75 75.19 56.94 75.36 58.11C75.56 59.53 75.79 60.94 76.02 62.35C76.08 62.74 76.17 63.12 76.24 63.5C76.31 63.88 76.24 64.14 75.84 64.28C75.4812 64.3993 75.1133 64.4896 74.74 64.55C73.7272 64.7329 72.699 64.8166 71.67 64.8C71.04 64.8 70.41 64.68 69.78 64.68C68.63 64.68 67.47 64.68 66.32 64.68C66.17 64.68 65.51 64.68 65.32 64.68C65.39 64.84 46.69 64.44 46.32 64.95L32 65.61ZM68.14 63.54H68.4C69.24 63.54 69.7 63.19 70.4 63.24C71.7354 63.3112 73.0745 63.2576 74.4 63.08C74.94 63 74.52 63.15 74.82 63.08C74.8149 63.0034 74.8149 62.9266 74.82 62.85C74.5114 61.3045 74.2977 59.7416 74.18 58.17C74.0708 56.6145 73.8805 55.0657 73.61 53.53C73.38 52.23 73.23 50.91 73.09 49.6C73.01 48.8 72.96 48 72.88 47.16L72.61 47.32C72.116 47.6379 71.5371 47.7983 70.95 47.78C69.8231 47.8115 68.6962 47.7176 67.59 47.5C66.9956 47.3641 66.4473 47.0745 66 46.66C65.87 46.54 65.75 46.47 65.63 46.36C64.98 46.44 65.03 47.13 64.8 47.71C64.8 47.79 64.8 47.86 64.72 47.93C64.34 48.93 63.96 50.01 63.59 51.06C63.4592 51.4056 63.3522 51.7598 63.27 52.12C62.79 54 62 55.56 62.6 57.4C62.69 57.64 62.74 58.12 62.79 58.23C63.7 60.23 64.24 61.6 65.14 63.53C65.7742 63.6096 66.4158 63.6096 67.05 63.53C67.05 63.38 67.05 63.27 67.05 63.16C66.8817 61.0153 66.9084 58.8598 67.13 56.72C67.2781 55.4461 67.5872 54.1961 68.05 53C68.1748 52.7251 68.3219 52.4608 68.49 52.21C68.59 52.04 68.74 51.99 68.89 52.12C69.04 52.25 69.38 52.4 69.28 52.54C68.8735 53.2329 68.5894 53.9907 68.44 54.78C68.1743 55.8744 68.0268 56.9941 68 58.12C68 59.75 68 61.38 68.08 63.01C68.0856 63.1979 68.1056 63.3852 68.14 63.57V63.54ZM7.43 46.35C6.82172 47.8427 6.39857 49.4044 6.17 51C6.05667 51.6667 5.97667 52.3333 5.93 53C5.81 54.38 5.7 55.78 5.65 57.17C5.65 57.95 5.65 58.73 5.65 59.51C5.62792 60.4273 5.69153 61.3446 5.84 62.25C5.9 62.54 5.77 62.52 5.84 62.85C6.56018 63.1744 7.34018 63.3447 8.13 63.35C9.13 63.41 9.89 63.47 10.94 63.47C11.0356 63.4696 11.1297 63.4468 11.2148 63.4034C11.2999 63.36 11.3736 63.2971 11.43 63.22C11.95 62.52 11.93 62.52 12.43 61.82C12.4965 61.7155 12.5312 61.5939 12.53 61.47C12.42 60.32 12.32 59.17 12.18 58.02C12.04 56.87 11.83 55.42 11.68 54.12C11.5633 53.4596 11.5465 52.7854 11.63 52.12C11.63 52.04 12.21 51.52 12.28 51.38C12.3061 51.4787 12.3261 51.5789 12.34 51.68C12.4813 52.8527 12.6816 54.0175 12.94 55.17C13.2248 56.22 13.432 57.2896 13.56 58.37C13.67 59.26 13.46 59.87 13.56 60.44L13.67 60.5C13.691 60.4248 13.7249 60.3537 13.77 60.29C15.36 58.35 16.97 56.43 18.56 54.49C18.7287 54.3213 18.8316 54.0979 18.85 53.86C18.844 53.4875 18.7623 53.12 18.61 52.78C18.1588 51.4005 17.59 50.0623 16.91 48.78L16.1 47.11C16.05 47.11 16.33 46.89 16.31 46.91C15.564 47.5846 14.5852 47.9431 13.58 47.91C12.5732 47.9452 11.5658 47.8579 10.58 47.65L7.43 46.35ZM37.58 51.85C38.8 51.85 39.99 51.85 41.16 51.85C41.16 50.99 41.1 50.18 41.06 49.37C41.0703 49.3104 41.0703 49.2496 41.06 49.19C40.7378 48.2503 40.2832 47.3614 39.71 46.55C39.0364 45.7217 38.2901 44.9553 37.48 44.26C37.0158 43.8962 36.4863 43.6247 35.92 43.46C35.75 43.4 35.59 43.29 35.41 43.21C35.0272 43.4151 34.6332 43.5987 34.23 43.76C33.8095 43.9176 33.3738 44.0315 32.93 44.1C31.18 44.35 30.18 44.59 28.58 43.7C28.2511 43.6126 27.9172 43.5458 27.58 43.5C26.96 43.5 26.71 43.34 26.22 43.78C25.5762 44.3503 25.035 45.0267 24.62 45.78C23.7195 47.418 23.2579 49.261 23.28 51.13C23.28 51.57 23.28 52.02 23.28 52.52L27.13 52.14C27.13 51.92 27.13 51.75 27.13 51.58C27.13 50.97 27.21 50.37 27.26 49.76C27.2783 49.5586 27.322 49.3604 27.39 49.17C27.45 48.99 27.95 48.91 28.13 48.95C28.2094 48.9733 28.2776 49.0247 28.3217 49.0947C28.3659 49.1646 28.3831 49.2483 28.37 49.33C28.3606 49.4384 28.3405 49.5456 28.31 49.65C28.1938 50.4512 28.1436 51.2606 28.16 52.07C31.16 51.81 33.6 51.99 36.63 51.95C36.54 51.55 36.45 51.22 36.39 50.88C36.33 50.54 36.23 49.99 36.16 49.55C36.1382 49.4534 36.1539 49.3521 36.2041 49.2666C36.2542 49.1812 36.335 49.1181 36.43 49.09C36.62 49.09 36.99 49.09 37.05 49.36C37.11 49.63 37.05 49.67 37.13 49.82C37.32 50.5 37.46 51.18 37.61 51.9L37.58 51.85ZM57 51.37C57.0072 51.2968 57.0072 51.2232 57 51.15C57.0708 49.0264 56.8692 46.9024 56.4 44.83C56.2184 44.0332 55.9112 43.2703 55.49 42.57C55.25 42.15 55.12 42.24 54.87 41.81L54.68 41.96C54.28 42.35 53.98 42.18 53.51 42.42C52.6004 42.8222 51.6522 43.1305 50.68 43.34C50.03 43.5258 49.3465 43.5634 48.68 43.45C47.4333 43.2759 46.276 42.7042 45.38 41.82C45.15 41.6 45.02 41.59 44.79 41.82C44.4512 42.1797 44.1528 42.5754 43.9 43C43.0258 44.5424 42.4619 46.241 42.24 48C42.115 48.5409 42.1462 49.1062 42.33 49.63C42.47 50 42.05 50.51 42.2 51C42.1199 51.3048 42.1199 51.6252 42.2 51.93H44.52C44.52 51.36 44.52 50.83 44.52 50.3C44.52 49.77 44.65 47.08 44.71 46.62C44.7207 46.5502 44.7456 46.4834 44.783 46.4235C44.8204 46.3636 44.8696 46.312 44.9276 46.2718C44.9856 46.2316 45.0512 46.2036 45.1204 46.1895C45.1896 46.1754 45.2609 46.1756 45.33 46.19C45.54 46.19 45.58 46.42 45.56 46.81C45.56 47.71 45.42 50.89 45.39 51.81C45.384 51.8498 45.384 51.8902 45.39 51.93C46.215 51.9587 47.0405 51.8916 47.85 51.73C49.2496 51.5049 50.6746 51.4847 52.08 51.67C52.3286 51.6756 52.5769 51.6521 52.82 51.6C52.82 50.72 52.68 47.47 52.68 46.6C52.665 46.4613 52.6821 46.321 52.73 46.19C52.9187 46.057 53.1398 45.9776 53.37 45.96C53.48 45.96 53.59 46.12 53.66 46.24C53.6805 46.3457 53.6805 46.4543 53.66 46.56C53.66 47.2 53.8 50.45 53.8 51.09C53.7938 51.2133 53.7938 51.3367 53.8 51.46C55.13 51.43 55.75 51.37 57 51.37ZM31.25 43.24C31.61 43.24 31.96 43.24 32.32 43.24C33.4235 43.1017 34.4645 42.6506 35.32 41.94C35.6463 41.6666 35.909 41.3253 36.09 40.94C36.81 39.47 37.01 38.7 36.76 37.69C36.76 37.56 36.69 36.5 36.68 36.46C36.4554 34.9282 35.9285 33.4564 35.13 32.13C34.9145 31.8238 34.638 31.5653 34.3179 31.3709C33.9979 31.1764 33.6411 31.0502 33.27 31C32.8811 30.8841 32.4751 30.8368 32.07 30.86C31.587 30.6578 31.0604 30.5821 30.54 30.64C29.6922 30.5992 28.8623 30.8938 28.23 31.46C27.93 31.7 27.64 31.95 27.37 32.21C26.6727 32.8856 26.142 33.7141 25.82 34.63C25.3952 35.7933 25.2546 37.0413 25.41 38.27C25.4935 39.1556 25.817 40.0017 26.3456 40.7171C26.8742 41.4325 27.588 41.9901 28.41 42.33C29.2618 42.8744 30.2404 43.188 31.25 43.24ZM52.17 30.72C49.98 30.63 49.98 30.56 47.9 31.66C47.0376 31.9984 46.327 32.6379 45.9 33.46C45.78 33.73 45.66 34 45.55 34.27C45.3152 34.76 45.1309 35.2727 45 35.8C44.36 39.15 45.36 40.09 47 41.72C47.583 41.9504 48.1811 42.1409 48.79 42.29C49.25 42.4 49.98 42.18 50.44 42.29C50.63 42.34 51.9 41.74 52.64 41.53C53.4473 41.3378 54.1869 40.9289 54.779 40.3473C55.3711 39.7658 55.7933 39.0337 56 38.23C56.1352 37.9287 56.2229 37.6082 56.26 37.28C56.3347 36.673 56.3548 36.0606 56.32 35.45C56.205 34.1868 55.7177 32.9862 54.92 32C54.77 31.82 54.66 31.59 54.5 31.41C54.3251 31.2399 54.1379 31.0828 53.94 30.94L52.17 30.72ZM12 36C11.3841 36.1506 10.81 36.4376 10.32 36.84C9.6678 37.4431 9.0812 38.1135 8.57 38.84C7.96031 39.6047 7.56975 40.5206 7.44 41.49C7.24487 42.2578 7.24487 43.0622 7.44 43.83C7.92 45.37 8.74 45.63 10.14 46.18C11.211 46.6987 12.4091 46.8967 13.59 46.75C14.2763 46.5895 14.9249 46.2975 15.5 45.89C16.118 45.4547 16.6148 44.8691 16.9438 44.1885C17.2727 43.5079 17.4228 42.7547 17.38 42C17.51 39.9 17.85 39.35 16.71 37.7C16.32 37.14 15.71 36.33 15.08 36.17C14.61 36.05 14.28 35.63 13.8 35.56C13.574 35.5831 13.35 35.6233 13.13 35.68L12 36ZM69.13 34.98C68.7581 34.9176 68.377 34.9382 68.014 35.0401C67.651 35.1421 67.315 35.3231 67.03 35.57C66.0114 36.2439 65.2339 37.2246 64.81 38.37C64.62 38.88 64.44 39.37 64.28 39.9C64.2075 40.1717 64.1606 40.4496 64.14 40.73C64.0623 41.8799 64.2936 43.0296 64.81 44.06C65.25 45.12 66.23 45.59 67.07 46.23C67.1609 46.2988 67.2622 46.3528 67.37 46.39C68.4095 46.6248 69.4807 46.6856 70.54 46.57C71.0972 46.6439 71.6641 46.5763 72.1883 46.3736C72.7126 46.1709 73.1774 45.8395 73.54 45.41C74.2677 44.6508 74.6911 43.6509 74.73 42.6C74.7805 41.5227 74.6348 40.4452 74.3 39.42C74.1801 38.9857 73.961 38.5852 73.66 38.25C73.3 37.9156 72.9658 37.5546 72.66 37.17C72.2946 36.5605 71.7345 36.0919 71.07 35.84H71C70.7 35.76 70.64 35.47 70.34 35.43C69.9281 35.3329 69.5288 35.1886 69.15 35L69.13 34.98ZM45.13 55.16C45.0172 55.4838 45.0172 55.8362 45.13 56.16C45.39 57.16 45.66 58.1 45.96 59.06C46.2633 59.8883 46.4779 60.7464 46.6 61.62C46.6 61.62 46.6 61.62 46.67 61.73L47.19 61.65C48.423 61.3052 49.727 61.3052 50.96 61.65C51.5944 61.8967 52.2839 61.9665 52.9549 61.852C53.6259 61.7376 54.2533 61.4431 54.77 61C55.17 60.71 55.68 60.95 56.08 60.61C56.14 60.55 56.26 60.61 56.36 60.61H56.76L54.31 54.74C53.5919 54.9423 52.8421 55.0067 52.1 54.93C51.7709 54.8914 51.4393 54.977 51.17 55.17C50.6267 55.6415 49.9516 55.9346 49.2361 56.0097C48.5207 56.0849 47.7994 55.9383 47.17 55.59C46.8868 55.3908 46.5667 55.2501 46.2284 55.1763C45.8901 55.1024 45.5405 55.0969 45.2 55.16H45.13ZM34.71 54.46L32.51 54.65L29.26 55C28.83 55 28.4 55.13 27.98 55.22C27.8781 55.2487 27.7896 55.3125 27.73 55.4C27.2 56.31 26.73 57.23 26.16 58.14C25.74 58.85 25.28 59.55 24.84 60.25L24.51 60.78C24.5966 60.7854 24.6834 60.7854 24.77 60.78C25.55 60.85 26.34 60.94 27.12 60.96C28.59 60.96 30.07 60.96 31.54 60.96C31.6757 60.9718 31.8115 60.9379 31.9257 60.8636C32.0398 60.7893 32.1258 60.6789 32.17 60.55C32.39 60.11 32.6 59.67 32.79 59.22C33.44 57.71 34.07 56.22 34.71 54.69C34.73 54.67 34.74 54.61 34.78 54.46H34.71ZM23.12 56H23.01C21.7364 56.6704 20.5132 57.4324 19.35 58.28C19.2621 58.3402 19.1968 58.4278 19.1642 58.5292C19.1316 58.6306 19.1336 58.7399 19.17 58.84C19.189 58.9671 19.2404 59.0873 19.3192 59.1888C19.398 59.2904 19.5016 59.37 19.62 59.42L23.53 56.98L23.12 56ZM41.87 56L38.41 58.59L38.53 58.8L38.68 58.97C38.8299 59.1476 39.0427 59.2603 39.2738 59.2845C39.505 59.3087 39.7365 59.2426 39.92 59.1L41.92 57.69L42.16 57.49C41.78 57.05 41.87 56.53 41.87 56ZM42.87 57.1L43.31 55.62C43.11 55.62 42.94 55.62 42.77 55.62C42.43 55.62 42.32 55.73 42.3 56.1C42.3 56.22 42.3 56.35 42.3 56.47C42.33 56.86 42.36 56.9 42.88 57.06L42.87 57.1ZM17.67 59.17C17.4577 59.2457 17.271 59.3796 17.1313 59.5565C16.9916 59.7333 16.9045 59.946 16.88 60.17C16.88 60.45 16.88 60.54 17.17 60.56C17.5218 60.5893 17.8734 60.5014 18.17 60.31C18.0024 60.1648 17.8709 59.9826 17.7859 59.7778C17.7008 59.573 17.6646 59.3512 17.68 59.13L17.67 59.17ZM37.9 60.53C37.7 60.34 37.57 60.24 37.47 60.12C37.37 60 37.29 59.82 37.18 59.65C36.943 59.8411 36.7631 60.0936 36.66 60.38C36.57 60.67 36.66 60.85 36.97 60.8C37.28 60.75 37.54 60.6 37.91 60.49L37.9 60.53ZM38 58.93C37.63 59.22 37.63 59.57 38 59.79C38.0474 59.816 38.0978 59.8361 38.15 59.85L38.55 60.03L38.83 59.83L38 58.93ZM18.15 59C18.15 59.5 18.38 60 18.71 60.06L18.96 59.89L18.57 58.89L18.37 58.96L18.15 59ZM23.45 55.88C23.419 56.0865 23.4583 56.2974 23.5617 56.4788C23.6651 56.6602 23.8265 56.8015 24.02 56.88C24.16 56.67 24.51 56.12 24.68 55.88C24.36 55.83 23.74 55.86 23.45 55.84V55.88Z" fill="#2A2B2C"/>
<path d="M33.27 36C33.27 36.47 33.27 37 33.27 37.42C33.2957 37.7349 33.3527 38.0464 33.44 38.35C33.4898 38.4632 33.504 38.5888 33.4808 38.7102C33.4576 38.8317 33.398 38.9432 33.31 39.03C33.2654 39.0678 33.2126 39.0947 33.1559 39.1087C33.0991 39.1228 33.0399 39.1235 32.9828 39.111C32.9258 39.0984 32.8723 39.0728 32.8268 39.0362C32.7812 38.9996 32.7446 38.953 32.72 38.9C32.6369 38.7578 32.5794 38.6021 32.55 38.44C32.4919 38.0592 32.4585 37.6751 32.45 37.29C32.45 36.4 32.45 35.51 32.45 34.63C32.435 34.457 32.435 34.283 32.45 34.11C32.5 33.8 32.66 33.62 32.86 33.66C33.06 33.7 33.23 33.89 33.23 34.18C33.23 34.47 33.23 34.96 33.23 35.35C33.23 35.56 33.23 35.78 33.23 36H33.27Z" fill="#2A2B2C"/>
<path d="M30.19 36.31C30.19 37.09 30.27 37.86 30.32 38.63C30.32 39.06 30.21 39.34 29.92 39.38C29.63 39.42 29.39 39.23 29.36 38.78C29.31 38.16 29.29 37.53 29.29 36.91C29.29 36.29 29.29 35.44 29.35 34.71C29.3351 34.5804 29.3351 34.4496 29.35 34.32C29.35 34.198 29.3985 34.081 29.4847 33.9947C29.571 33.9084 29.688 33.86 29.81 33.86C29.932 33.86 30.049 33.9084 30.1353 33.9947C30.2215 34.081 30.27 34.198 30.27 34.32C30.27 34.66 30.27 35.01 30.22 35.32C30.17 35.63 30.22 35.93 30.22 36.23L30.19 36.31Z" fill="#2A2B2C"/>
<path d="M53.34 36.79L53.01 34.79C53.0044 34.7268 53.0044 34.6632 53.01 34.6C53.01 34.4 53.14 34.27 53.41 34.24C53.5065 34.2204 53.6069 34.2345 53.6943 34.28C53.7816 34.3255 53.8507 34.3996 53.89 34.49C54.0095 34.8345 54.0966 35.1893 54.15 35.55C54.22 36.27 54.25 36.98 54.29 37.7C54.3053 37.8061 54.3053 37.9139 54.29 38.02C54.2528 38.1413 54.1717 38.2443 54.0626 38.309C53.9536 38.3737 53.8243 38.3955 53.7 38.37C53.39 38.37 53.31 38.16 53.32 37.95C53.32 37.58 53.32 37.2 53.32 36.83L53.34 36.79Z" fill="#2A2B2C"/>
<path d="M51.12 36.39C51.12 36.82 51.21 37.26 51.25 37.69C51.25 37.8 51.31 37.93 51.25 38.01C51.1645 38.1408 51.0321 38.2339 50.88 38.27C50.7166 38.264 50.5607 38.2002 50.44 38.09C50.3687 38.0024 50.3299 37.8929 50.33 37.78C50.33 36.97 50.26 36.16 50.23 35.35C50.2165 35.2739 50.2165 35.1961 50.23 35.12C50.2576 35.031 50.3162 34.9549 50.395 34.9054C50.4739 34.8559 50.5679 34.8362 50.66 34.85C50.94 34.85 51.08 34.98 51.11 35.17C51.12 35.3265 51.12 35.4835 51.11 35.64V36.39H51.12Z" fill="#2A2B2C"/>
<path d="M16.42 42.52C16.3358 42.6466 16.231 42.7581 16.11 42.85C16.0262 42.8978 15.927 42.911 15.8336 42.8867C15.7401 42.8624 15.6599 42.8026 15.61 42.72C15.5259 42.577 15.4556 42.4263 15.4 42.27L14.4 39.21C14.3604 39.1432 14.3269 39.0729 14.3 39C14.2834 38.8998 14.3036 38.7971 14.3569 38.7106C14.4102 38.6242 14.493 38.5601 14.59 38.53C14.6764 38.4901 14.7742 38.4822 14.8658 38.5079C14.9574 38.5335 15.0369 38.591 15.09 38.67C15.1468 38.742 15.1907 38.8232 15.22 38.91C15.61 40.03 15.99 41.16 16.37 42.28C16.39 42.33 16.39 42.39 16.42 42.52Z" fill="#2A2B2C"/>
<path d="M13.81 43.06C13.8169 43.1207 13.8114 43.1822 13.7937 43.2407C13.7761 43.2992 13.7467 43.3535 13.7074 43.4003C13.6681 43.447 13.6197 43.4853 13.5652 43.5128C13.5106 43.5403 13.451 43.5563 13.39 43.56C13.3335 43.567 13.2761 43.5626 13.2213 43.5472C13.1664 43.5318 13.1152 43.5057 13.0705 43.4704C13.0259 43.435 12.9887 43.3911 12.9611 43.3413C12.9336 43.2914 12.9162 43.2366 12.91 43.18C12.75 42.36 12.61 41.53 12.45 40.71C12.45 40.46 12.34 40.21 12.31 39.96C12.28 39.71 12.39 39.46 12.65 39.41C12.71 39.3954 12.7724 39.3937 12.8331 39.4048C12.8938 39.4159 12.9516 39.4397 13.0025 39.4746C13.0534 39.5095 13.0964 39.5547 13.1287 39.6074C13.161 39.66 13.1819 39.7188 13.19 39.78C13.2948 40.182 13.3782 40.5892 13.44 41C13.57 41.65 13.69 42.36 13.81 43.06Z" fill="#2A2B2C"/>
<path d="M69.14 39C69.03 39.64 68.93 40.28 68.82 40.91C68.82 41.14 68.75 41.38 68.71 41.61C68.6895 41.7354 68.6594 41.8591 68.62 41.98C68.5746 42.067 68.5026 42.1373 68.4144 42.1805C68.3263 42.2237 68.2266 42.2375 68.13 42.22C67.86 42.22 67.69 42.09 67.68 41.89C67.6851 41.6257 67.7051 41.362 67.74 41.1C67.85 40.31 67.96 39.52 68.08 38.72C68.0712 38.6436 68.0712 38.5664 68.08 38.49C68.1197 38.3917 68.1922 38.3101 68.2851 38.2591C68.378 38.2081 68.4857 38.1907 68.59 38.21C68.86 38.21 69.03 38.34 69.06 38.53C69.075 38.6863 69.075 38.8437 69.06 39H69.14Z" fill="#2A2B2C"/>
<path d="M67.23 38.93C67.1 39.64 66.98 40.35 66.86 41.06C66.8405 41.1403 66.8102 41.2177 66.77 41.29C66.7186 41.3758 66.6422 41.4438 66.551 41.4849C66.4599 41.526 66.3583 41.5383 66.26 41.52C66.02 41.52 65.87 41.37 65.86 41.2C65.8352 41.0008 65.8352 40.7992 65.86 40.6L66.16 38.42C66.1496 38.3437 66.1496 38.2663 66.16 38.19C66.16 38.01 66.38 37.92 66.63 37.92C66.88 37.92 67.07 38.01 67.09 38.18C67.105 38.4298 67.105 38.6802 67.09 38.93H67.23Z" fill="#2A2B2C"/>
</svg>
