<svg width="80" height="80" viewBox="0 0 80 80" fill="none" xmlns="http://www.w3.org/2000/svg">
<path d="M23.52 44.42C23.3635 44.4101 23.2065 44.4101 23.05 44.42L19.33 44.75C19.1637 44.7653 18.9963 44.7653 18.83 44.75C18.36 44.75 18.17 44.42 18.31 43.97C18.45 43.52 18.6 42.92 18.75 42.4C19.17 40.99 19.58 39.57 20 38.16C20.15 37.68 20.32 37.16 20.49 36.73C20.5732 36.4691 20.6838 36.2177 20.82 35.98C20.8982 35.7984 21.0329 35.6469 21.204 35.5478C21.3751 35.4487 21.5736 35.4074 21.77 35.43C23.41 35.48 25.06 35.43 26.7 35.43C27.48 35.43 28.25 35.33 29.03 35.28C30.63 35.18 32.23 35.05 33.83 35.01C37.74 34.91 41.66 34.74 45.58 34.71C48.22 34.71 50.88 34.57 53.52 34.29C54.3383 34.2604 55.1577 34.2972 55.97 34.4C56.32 35.4 56.63 36.3 56.97 37.2C57.31 38.1 57.61 38.8 57.97 39.6C58.33 40.4 58.68 41.31 58.97 42.19C59.0838 42.6338 59.1176 43.0943 59.07 43.55C59.064 43.6745 59.0325 43.7964 58.9775 43.9082C58.9224 44.02 58.845 44.1194 58.75 44.2C58.2581 44.6331 57.6493 44.9114 57 45C56.57 45 56.13 45.06 55.71 45.09C55.71 46.03 55.71 46.91 55.71 47.79C55.82 51.16 55.97 54.53 55.86 57.9C55.7867 60.26 55.7267 62.62 55.68 64.98C55.68 65.78 55.68 66.58 55.73 67.38C55.7386 67.7583 55.7118 68.1367 55.65 68.51C55.55 69.03 55.34 69.18 54.81 69.14C54.28 69.1 54 69 53.54 69C52.2752 68.9482 51.0083 68.9917 49.75 69.13C47.04 69.25 44.32 69.32 41.6 69.41C38.88 69.5 36.42 69.52 33.84 69.69C31.26 69.86 28.84 69.96 26.38 69.9C25.8972 69.8886 25.4159 69.8418 24.94 69.76C24.4729 69.6482 24.0149 69.5011 23.57 69.32C23.29 69.2 23.24 68.91 23.23 68.63C23.18 66.92 23.11 65.21 23.09 63.51C23.09 61.25 23.09 59 23.09 56.74C23.09 55.5 23.18 54.26 23.22 53.02C23.28 51.27 23.32 49.52 23.38 47.78C23.42 46.66 23.47 45.57 23.52 44.42ZM54.76 45.05C54.46 45.05 54.17 45.05 53.87 45.05C51.87 45.05 49.87 44.98 47.93 44.9C44.63 44.76 41.33 44.57 38.02 44.43C36.84 44.43 35.66 44.43 34.48 44.37C31.4133 44.37 28.3367 44.35 25.25 44.31C25.05 44.31 24.85 44.31 24.67 44.31C24.24 46.1 23.8 66.31 24.34 68.58C24.9656 68.6892 25.5965 68.766 26.23 68.81C28.73 68.89 31.23 68.81 33.74 68.63C36.56 68.45 39.38 68.43 42.21 68.33C44.71 68.24 47.21 68.18 49.72 68.05C51.0484 67.9091 52.3856 67.869 53.72 67.93H54.43C54.6564 67.5552 54.7448 67.1131 54.68 66.68C54.6499 66.3841 54.6499 66.0859 54.68 65.79C54.74 63.08 54.85 60.36 54.87 57.64C54.87 53.49 54.87 49.34 54.87 45.19C54.84 45.21 54.81 45.18 54.76 45.05Z" fill="#2A2B2C"/>
<path d="M32.76 20.87C32.53 20.69 32.35 20.55 32.18 20.39C31.2987 19.6586 30.6476 18.688 30.3052 17.5951C29.9628 16.5022 29.9436 15.3336 30.25 14.23C30.4701 13.4061 30.9129 12.6587 31.53 12.07C32.5732 10.9652 33.8148 10.0663 35.19 9.42002C35.9856 9.09539 36.8046 8.83131 37.64 8.63002C38.2639 8.49922 38.9128 8.56202 39.5 8.81002C40.783 9.20995 41.9611 9.89031 42.9486 10.8018C43.9362 11.7133 44.7087 12.8331 45.21 14.08C45.8634 15.5051 46.0892 17.0891 45.86 18.64C45.8098 19.0651 45.6741 19.4757 45.461 19.8469C45.2479 20.2181 44.9618 20.5424 44.62 20.8C45.16 21.35 45.72 21.89 46.24 22.46C47.1118 23.508 47.7892 24.7035 48.24 25.99C48.3668 26.4338 48.4473 26.8896 48.48 27.35C48.59 28.14 48.71 28.93 48.8 29.72C48.92 30.88 49.02 32.03 49.12 33.18C49.12 33.31 49.12 33.43 49.12 33.62C48.87 33.62 48.65 33.68 48.43 33.69L42.3 33.83C41 33.83 39.69 33.83 38.39 33.95C37.09 34.07 35.59 34.29 34.19 34.45C33.19 34.56 32.26 34.6 31.31 34.75C30.6051 34.8202 29.8949 34.8202 29.19 34.75C28.6648 34.6933 28.1437 34.6031 27.63 34.48C27.6013 34.4304 27.581 34.3763 27.57 34.32C27.3985 31.3231 27.8902 28.3252 29.01 25.54C29.7225 23.9962 30.7434 22.6145 32.01 21.48C32.249 21.2635 32.4993 21.0599 32.76 20.87ZM38.92 22.15C39.8988 22.2224 40.8811 22.0658 41.7889 21.6926C42.6967 21.3194 43.5051 20.7399 44.15 20C44.4635 19.6385 44.6962 19.2141 44.8324 18.7554C44.9687 18.2966 45.0053 17.8141 44.94 17.34C44.8811 16.0831 44.5448 14.8547 43.9552 13.7431C43.3657 12.6314 42.5375 11.6639 41.53 10.91C41.3 10.73 41.07 10.47 40.7 10.6C40.62 10.6 40.48 10.5 40.38 10.43C39.9375 10.0266 39.3816 9.76891 38.7877 9.69199C38.1939 9.61508 37.5907 9.72261 37.06 10C36.95 10 36.81 10 36.7 10.1L35.48 10.63C35.22 10.73 35.03 11.12 34.66 10.81C34.66 10.81 34.51 10.87 34.45 10.93C33.7 11.54 32.93 12.13 32.22 12.78C31.7261 13.2192 31.3774 13.7981 31.22 14.44C30.9579 15.3215 30.9513 16.2592 31.2009 17.1442C31.4504 18.0293 31.946 18.8254 32.63 19.44C33.37 20.0989 34.1818 20.6725 35.05 21.15C36.2553 21.7518 37.574 22.0925 38.92 22.15ZM45.39 23.15L45.12 23.33L39.31 27.5C36.8236 29.28 34.4646 31.2315 32.25 33.34C32.1346 33.4661 32.0277 33.5998 31.93 33.74L33.55 33.55C33.944 33.5002 34.3172 33.3447 34.63 33.1C35.63 32.3 36.71 31.51 37.76 30.74L45.88 24.8C46.02 24.69 46.15 24.57 46.31 24.43L45.39 23.15ZM43.58 21.4C42.73 22 41.9 22.55 41.12 23.14C38.61 25.03 36.12 26.94 33.62 28.84C31.9635 30.1319 30.4181 31.5602 29 33.11C28.8954 33.2374 28.7985 33.371 28.71 33.51C29.0463 33.712 29.4421 33.7916 29.8303 33.7351C30.2185 33.6786 30.5752 33.4895 30.84 33.2C31.01 33.02 31.19 32.84 31.38 32.67C32.44 31.67 33.52 30.77 34.56 29.78C35.477 28.9099 36.4563 28.1077 37.49 27.38C38.3 26.81 39.09 26.21 39.88 25.63L42.88 23.42L44.56 22.19L43.58 21.4Z" fill="#2A2B2C"/>
<path d="M39 49.4C40.63 49.4 42.25 49.4 43.87 49.4C44.2435 49.4136 44.6135 49.4775 44.97 49.59C45.3 49.67 45.33 49.98 45.34 50.25C45.34 51.52 45.47 52.78 45.44 54.04C45.4064 54.9235 45.3028 55.8029 45.13 56.67C44.9034 58.0712 44.2944 59.3828 43.37 60.46C43.19 60.66 43.06 60.91 42.88 61.12C42.43 61.67 41.97 62.22 41.5 62.76C41.3018 62.9969 41.0457 63.1785 40.7566 63.2872C40.4675 63.3958 40.1552 63.4278 39.85 63.38C38.7154 63.312 37.6144 62.9687 36.6422 62.3798C35.67 61.7909 34.8558 60.9741 34.27 60C33.8313 59.2521 33.568 58.4144 33.5 57.55C33.35 56.21 33.12 54.88 33.03 53.55C32.965 52.501 32.965 51.449 33.03 50.4C33.029 50.2579 33.0582 50.1173 33.1158 49.9874C33.1734 49.8575 33.258 49.7414 33.364 49.6468C33.4699 49.5522 33.5948 49.4813 33.7304 49.4387C33.8659 49.3961 34.009 49.3829 34.15 49.4H39Z" fill="#2A2B2C"/>
<path d="M40.84 15.5C40.84 15.99 40.84 16.5 40.84 16.95C40.84 17.4 40.67 17.57 40.38 17.58C40.3055 17.579 40.2321 17.5625 40.1643 17.5317C40.0964 17.5009 40.0357 17.4564 39.986 17.4009C39.9362 17.3455 39.8984 17.2804 39.875 17.2097C39.8516 17.139 39.8431 17.0642 39.85 16.99C39.85 15.9834 39.85 14.9834 39.85 13.99C39.85 13.61 40.1 13.41 40.4 13.44C40.7 13.47 40.84 13.65 40.85 14.02C40.86 14.39 40.85 15.02 40.85 15.53L40.84 15.5Z" fill="#2A2B2C"/>
<path d="M34.44 15.54C34.44 15.21 34.38 14.87 34.37 14.54C34.36 14.21 34.51 13.92 34.8 13.88C35.09 13.84 35.33 14.06 35.36 14.43C35.44 15.29 35.49 16.15 35.54 17.01C35.5479 17.1158 35.5181 17.2211 35.4558 17.3071C35.3936 17.3931 35.303 17.4543 35.2 17.48C35.0984 17.5169 34.9869 17.516 34.8859 17.4774C34.7849 17.4388 34.7012 17.3652 34.65 17.27C34.5543 17.0867 34.4965 16.8861 34.48 16.68C34.48 16.3 34.48 15.92 34.48 15.54H34.44Z" fill="#2A2B2C"/>
</svg>
