<svg width="80" height="80" viewBox="0 0 80 80" fill="none" xmlns="http://www.w3.org/2000/svg">
<path d="M16.14 68.57C16.07 67.63 16.02 66.78 15.94 65.92C15.79 64.19 15.63 62.45 15.46 60.72C15.31 59.19 15.11 57.72 15 56.15C14.77 52.95 14.49 49.75 14.46 46.53C14.46 45.45 14.3 44.36 14.22 43.27C14.22 42.75 14.22 42.22 14.16 41.7C14.11 40.7 14.03 39.7 13.98 38.7C13.93 37.7 13.86 36.64 13.85 35.62C13.8812 35.2437 13.9516 34.8717 14.06 34.51C14.06 34.29 14.18 34.07 14.25 33.8H13.7L11.06 33.9H10.75C10.6441 33.8962 10.5409 33.8652 10.4503 33.8102C10.3597 33.7551 10.2848 33.6777 10.2326 33.5855C10.1804 33.4932 10.1528 33.3891 10.1524 33.2831C10.1519 33.1771 10.1786 33.0727 10.23 32.98C10.51 32.46 10.72 31.91 10.97 31.38C12.43 28.2867 13.8967 25.2 15.37 22.12C15.77 21.28 16.19 20.46 16.56 19.61C16.5933 19.509 16.6553 19.4199 16.7382 19.3533C16.8212 19.2868 16.9217 19.2458 17.0275 19.2352C17.1333 19.2246 17.24 19.245 17.3345 19.2937C17.429 19.3425 17.5073 19.4176 17.56 19.51C18.0587 20.1304 18.5929 20.7214 19.16 21.28C19.76 21.91 20.35 22.53 20.96 23.13C21.36 23.53 21.8 23.89 22.21 24.29C22.83 24.91 23.48 25.51 24.06 26.17C25.15 27.39 26.19 28.65 27.25 29.9C27.33 29.99 27.42 30.12 27.53 30.14C27.689 30.1853 27.8331 30.2722 27.9473 30.3917C28.0616 30.5113 28.1419 30.6591 28.18 30.82C28.36 30.82 28.51 30.82 28.65 30.82C28.7559 30.837 28.852 30.8921 28.9201 30.975C28.9883 31.0579 29.0238 31.1628 29.02 31.27C29.0288 31.3758 29.0008 31.4814 28.9406 31.5689C28.8805 31.6564 28.7919 31.7204 28.69 31.75C28.6125 31.7772 28.5318 31.794 28.45 31.8L26.31 32.23C26.4 35.54 26.49 38.81 26.58 42.16L30.58 41.96C30.39 41.25 30.25 40.65 30.06 40.06C29.87 39.47 29.61 38.75 29.4 38.06C29.19 37.37 29.33 37.16 30.01 37.06C30.88 36.92 31.76 36.83 32.63 36.74C32.9 36.74 33.17 36.74 33.51 36.74C33.51 31.39 33.51 26.09 33.56 20.74H33.06L29.58 21C29.2238 21.0249 28.8662 21.0249 28.51 21C27.1672 20.9462 25.823 21.0638 24.51 21.35C24.3851 21.3797 24.258 21.3998 24.13 21.41C23.65 21.41 23.38 21.09 23.52 20.62C23.6118 20.3 23.7463 19.9939 23.92 19.71C25.7978 16.6506 27.5103 13.4927 29.05 10.25C29.1642 9.95938 29.3663 9.71165 29.628 9.54135C29.8897 9.37106 30.198 9.28668 30.51 9.29999C32.92 9.19999 35.33 8.97999 37.74 8.88999C40.15 8.79999 42.61 8.73999 45.04 8.74999C48.42 8.74999 51.8 8.85999 55.18 8.89999C57.18 8.89999 59.18 8.89999 61.1 8.89999C61.77 8.89999 62.45 8.89999 63.1 8.94999C63.75 8.99999 64.18 9.30999 64.28 10.13C64.38 10.95 64.49 11.88 64.54 12.76C64.65 14.69 64.68 16.62 64.83 18.54C65.01 20.95 65.09 23.36 65.48 25.75C65.6349 26.7236 65.735 27.7052 65.78 28.69C65.89 31.38 65.93 34.07 66.06 36.75C66.31 41.87 66.15 47 66.18 52.12C66.18 54.07 65.96 56.01 65.85 57.96C65.7273 60.1805 65.7774 62.4072 66 64.62C66.09 65.53 66.07 66.46 66.12 67.38C66.12 67.79 66.18 68.21 66.22 68.65H66.76C68.65 68.65 70.54 68.65 72.43 68.65C72.9011 68.7071 73.3602 68.8388 73.79 69.04C73.9013 69.0809 73.9931 69.1623 74.0469 69.2681C74.1007 69.3738 74.1125 69.4959 74.08 69.61C73.99 70.08 73.91 70.56 73.79 71.02C73.67 71.48 73.51 71.63 72.99 71.63C72.19 71.63 71.39 71.63 70.59 71.63C69.79 71.63 68.75 71.63 67.82 71.63C66.0388 71.6983 64.2551 71.6515 62.48 71.49C60.58 71.31 58.67 71.19 56.77 71.06C56.4975 71.0597 56.2258 71.0899 55.96 71.15C54.2337 71.3965 52.4831 71.4234 50.75 71.23C49.45 71.16 48.15 70.93 46.85 70.99C45.3445 70.905 43.8355 70.905 42.33 70.99C41.8905 71.0201 41.4495 71.0201 41.01 70.99C37.01 70.99 32.95 70.99 28.92 70.79C27.3463 70.7084 25.7688 70.7418 24.2 70.89C21.96 71.08 19.72 71.21 17.48 71.34C14.63 71.51 11.78 71.66 8.92999 71.81C8.67999 71.81 8.44999 71.88 8.22999 71.65C8.00999 71.42 7.85999 71.56 7.67999 71.71C7.29999 72.01 7.30999 71.99 6.96999 71.71C6.8171 71.6164 6.70278 71.4712 6.64775 71.3005C6.59271 71.1299 6.6006 70.9453 6.66999 70.78C6.74818 70.5223 6.80175 70.2578 6.82999 69.99C6.92999 69.26 7.45999 69.05 8.06999 68.99C10.1924 68.713 12.3297 68.5661 14.47 68.55C15 68.67 15.5 68.6 16.14 68.57ZM17.14 68.48H17.77C19.77 68.48 21.77 68.48 23.77 68.48C25.59 68.48 27.41 68.31 29.24 68.27C32.24 68.21 35.32 68.15 38.37 68.17C41.92 68.17 45.46 68.29 49.01 68.36H49.7C49.7658 68.1541 49.816 67.9435 49.85 67.73C49.9641 67.117 49.9977 66.4917 49.95 65.87C49.75 64.87 49.61 63.76 49.49 62.7C49.41 61.99 49.41 61.28 49.37 60.53L48.9 60.43L47.67 60.2C47.5216 60.1821 47.384 60.1137 47.2802 60.0063C47.1763 59.8988 47.1127 59.7589 47.1 59.61C47.0015 59.1409 46.9281 58.6669 46.88 58.19C46.81 56.66 46.78 55.13 46.73 53.59V52.88C45.95 52.88 45.24 52.81 44.53 52.74C43.8188 52.69 43.111 52.5999 42.41 52.47C41.66 52.32 41.53 52.1 41.56 51.34C41.6282 50.4618 41.6515 49.5806 41.63 48.7C41.5598 47.5878 41.6101 46.4713 41.78 45.37C41.92 44.45 42.05 43.52 42.19 42.56C41.6771 42.5184 41.161 42.5761 40.67 42.73C40.368 42.8167 40.0607 42.8835 39.75 42.93C39.32 42.93 39.11 42.64 39.25 42.23C39.3158 42.0797 39.3628 41.9218 39.39 41.76C39.39 41.03 39.39 40.29 39.39 39.56C39.39 39.08 39.32 38.56 39.28 38.14C36.3467 37.7735 33.378 37.7937 30.45 38.2C30.45 38.34 30.52 38.48 30.57 38.62C30.9 39.76 31.25 40.91 31.57 42.05C31.74 42.65 31.57 42.93 30.94 43.05H30.63L27.24 43.26C26.8914 43.2515 26.5467 43.3342 26.24 43.5C26.1497 43.5442 26.0505 43.5671 25.95 43.5671C25.8495 43.5671 25.7503 43.5442 25.66 43.5C25.46 43.41 25.45 43.18 25.49 42.95C25.5352 42.706 25.5553 42.4581 25.55 42.21C25.55 41.6 25.47 41 25.46 40.39C25.3867 38.0567 25.32 35.7233 25.26 33.39C25.26 33.13 25.26 32.86 25.26 32.56C21.76 32.76 18.41 33.56 14.98 33.85C14.98 34.02 14.87 34.16 14.91 34.26C15.0209 34.6619 15.0034 35.0885 14.86 35.48C14.8501 35.5831 14.8501 35.6869 14.86 35.79C14.91 36.79 14.95 37.79 15.01 38.79C15.07 39.79 15.13 40.67 15.18 41.61C15.18 42.16 15.18 42.7 15.24 43.25C15.32 44.65 15.43 46.05 15.5 47.46C15.62 49.76 15.64 52.07 15.92 54.37C16.1339 55.1732 16.1613 56.0146 16 56.83C16 56.83 16 56.91 16 56.95C16.16 58.28 16.36 59.61 16.49 60.95C16.71 63.2 16.89 65.46 17.09 67.72C17.11 68 17.12 68.17 17.15 68.48H17.14ZM34.44 20.76C34.44 21.24 34.44 21.63 34.44 22.03C34.44 25.22 34.54 28.41 34.58 31.6C34.58 33.05 34.58 34.5 34.58 35.95C34.58 36.23 34.58 36.52 34.58 36.84L36.79 36.93L39.37 37C39.5724 36.9772 39.7758 37.0346 39.9365 37.1598C40.0972 37.285 40.2025 37.4681 40.23 37.67C40.2948 37.8711 40.3351 38.0792 40.35 38.29C40.35 39.13 40.35 39.97 40.35 40.8C40.35 41.09 40.35 41.37 40.35 41.69C41.11 41.56 41.79 41.44 42.47 41.34C43.15 41.24 43.42 41.58 43.31 42.15C43.15 42.97 42.98 43.79 42.84 44.62C42.5618 46.0016 42.4777 47.4152 42.59 48.82C42.6249 49.2793 42.6249 49.7407 42.59 50.2V51.49C43.19 51.56 43.77 51.65 44.35 51.69C45.19 51.75 46.03 51.77 46.87 51.83C47.36 51.83 47.55 52.02 47.64 52.5C47.6652 52.7694 47.6652 53.0406 47.64 53.31C47.69 54.9 47.73 56.5 47.79 58.09C47.79 58.46 47.89 58.83 47.94 59.22L49.48 59.48C50.25 59.61 50.39 59.77 50.34 60.57C50.2891 61.574 50.3528 62.5805 50.53 63.57C50.8681 64.8519 51.0263 66.1745 51 67.5C50.9976 67.7742 51.0143 68.0481 51.05 68.32H54.65C54.65 67.9 54.6 67.45 55.06 67.2C55.13 67.2 55.12 66.93 55.12 66.79C55.12 65.11 55.07 63.43 55.04 61.79C55 60.52 55 59.28 55 58C55 56.45 55.09 54.9 55.1 53.35C55.1 50.79 54.89 48.24 54.71 45.68C54.49 42.68 54.07 39.68 53.71 36.68C53.54 35.3 53.29 33.94 53.17 32.56C52.95 30.05 52.79 27.56 52.63 25.03C52.55 23.81 52.52 22.59 52.45 21.38C52.4503 21.2426 52.4223 21.1065 52.3678 20.9804C52.3132 20.8543 52.2332 20.7408 52.1328 20.6469C52.0324 20.5531 51.9137 20.481 51.7842 20.435C51.6547 20.3891 51.5171 20.3704 51.38 20.38C50.92 20.38 50.45 20.38 49.99 20.33H43.45C42.9 20.33 42.35 20.33 41.81 20.33C41.2642 20.3004 40.7169 20.3374 40.18 20.44C39.6937 20.609 39.1682 20.6299 38.67 20.5H38.61L37 20.59L34.44 20.76ZM64.59 31.76C64.94 32.35 64.96 32.4 64.67 32.92C64.343 33.507 63.9824 34.0746 63.59 34.62C63.08 35.34 62.51 36.01 61.99 36.72C61.3877 37.5827 60.8496 38.4885 60.38 39.43L64.66 44.83C64.6926 44.8856 64.7369 44.9334 64.79 44.97L65.2 45.12C65.29 40.65 65.03 36.28 64.86 31.91C64.86 31.85 64.77 31.82 64.59 31.73V31.76ZM59.68 38.54C59.82 38.32 59.92 38.12 60.05 37.94C60.64 37.05 61.2 36.13 61.83 35.28C62.7233 34.2228 63.4793 33.0569 64.08 31.81L63.2 31.88C62.68 31.94 62.2 32.04 61.65 32.08C59.95 32.22 58.26 32.33 56.57 32.48C55.9234 32.4751 55.2819 32.5939 54.68 32.83C56.2199 34.8312 57.8902 36.7287 59.68 38.51V38.54ZM45.68 14.38L52.17 9.90999C48 9.70999 44 9.71999 39.93 9.84999V9.96999L45.68 14.38ZM52.76 10.86C50.5848 12.0864 48.5263 13.509 46.61 15.11L46.85 15.3C48.6356 16.5162 50.3516 17.8316 51.99 19.24C52.0838 19.3467 52.2108 19.4186 52.3506 19.4441C52.4904 19.4695 52.6347 19.4469 52.76 19.38V10.86ZM60.76 52.08C62.46 53.77 63.47 55.84 64.88 57.75C65.2413 54.142 65.3449 50.5128 65.19 46.89H65.06L60.76 52.08ZM53.57 21.73C53.4877 23.4309 53.5311 25.1355 53.7 26.83C53.89 28.5 53.83 30.19 54.06 31.89C54.7376 30.8855 55.4721 29.9205 56.26 29C56.98 28.05 57.74 27.12 58.48 26.18C57.61 25.48 56.7 24.84 55.88 24.09C55.06 23.34 54.34 22.52 53.57 21.73ZM55.71 45.26C55.8706 45.1781 56.0188 45.0737 56.15 44.95C56.3762 44.674 56.5739 44.3758 56.74 44.06C57.53 42.54 58.3 41.01 59.08 39.48L54.36 34.05L55.71 45.26ZM63 20.6L53.86 20.48C55.56 22.3 57.08 24.11 59.23 25.3C60.38 23.72 61.94 22.44 63 20.6ZM59.92 26.05C60.35 26.46 60.77 26.83 61.17 27.22C61.57 27.61 62.23 28.29 62.74 28.84C63.3889 29.5237 64.1022 30.1432 64.87 30.69C64.87 29.43 64.81 28.2 64.68 26.97C64.48 25.08 64.12 23.2 64.1 21.29C64.1 21.22 64.1 21.14 64.1 21.07H63.98C62.87 22.94 61.19 24.31 59.87 26.05H59.92ZM64.42 68.52C64.42 68.41 64.42 68.33 64.33 68.27C63.77 67.51 63.23 66.74 62.64 66C62.05 65.26 61.54 64.74 60.99 64.1L60.61 63.64C59.04 64.81 56.52 67.64 56.35 68.4C59.0179 68.6131 61.6969 68.6531 64.37 68.52H64.42ZM63.83 19.16C63.9065 16.3128 63.7258 13.4646 63.29 10.65C61.6923 11.8784 60.2456 13.2916 58.98 14.86L63.83 19.16ZM60.13 51.28L64.33 46.18C61.7371 45.938 59.1258 45.9716 56.54 46.28C56.5565 46.3754 56.5904 46.4669 56.64 46.55C57.74 48.12 58.9 49.68 60.08 51.28H60.13ZM40 18.86L44.9 15.1C43.2273 13.6413 41.4782 12.2727 39.66 11C39.88 13.59 39.58 16.18 40 18.86ZM54 9.81999C54.94 11.75 56.65 12.82 58.11 14.23L62.61 9.63999L54 9.81999ZM24.88 20.24C25.64 20.17 26.4 20.08 27.17 20.03C27.94 19.98 28.74 20.1 29.55 19.98C29.55 18.91 29.65 17.9 29.65 16.9C29.65 15.66 29.58 14.43 29.57 13.19C29.57 12.68 29.63 12.19 29.66 11.52L24.88 20.24ZM50.37 19.34L50.43 19.18L45.7 15.69L40.76 19.34H50.37ZM59.52 52.22C58.25 50.62 57.19 48.93 55.91 47.37C55.98 50.66 56.04 53.89 56.11 57.26C57.32 55.54 58.48 53.93 59.52 52.22ZM56.92 57.88C59.23 57.94 61.43 58 63.79 57.98C62.7466 56.2231 61.5663 54.5513 60.26 52.98L56.92 57.88ZM59.27 27C57.9502 28.4086 56.7619 29.935 55.72 31.56C58.2 31.33 60.72 31.28 63.24 30.86C62.0101 29.4806 60.6834 28.1907 59.27 27ZM35 14.59L38.64 9.84999L31 10.38C31.3073 10.8283 31.6856 11.2234 32.12 11.55C32.5916 11.9284 33.036 12.3394 33.45 12.78C34 13.34 34.41 13.94 35 14.59ZM62.61 19.45L58.4 15.67L54.67 19.44C57.2981 19.5768 59.9315 19.5801 62.56 19.45H62.61ZM59.79 40.3L57.34 45.14L63.43 44.93C63.4109 44.851 63.377 44.7763 63.33 44.71L59.79 40.3ZM30.62 18.82L30.76 18.9L34.2 15.33C33.2621 13.8773 32.037 12.6318 30.6 11.67C30.5669 11.8382 30.5469 12.0087 30.54 12.18C30.56 14.4 30.6 16.61 30.62 18.82ZM35.49 15.41C36.2145 17.0304 37.4465 18.3712 39 19.23C39.004 19.1534 39.004 19.0766 39 19C38.8117 17.2099 38.7382 15.4095 38.78 13.61C38.78 13.04 38.78 12.48 38.78 11.91C38.7484 11.7536 38.7049 11.5998 38.65 11.45L35.49 15.41ZM56.08 59.31C55.9571 61.7064 55.9939 64.1084 56.19 66.5L59.8 62.81C59.54 62.51 59.29 62.18 59 61.89C58.7453 61.6433 58.4783 61.4097 58.2 61.19L56.54 59.75C56.39 59.62 56.25 59.47 56.08 59.31ZM53.75 18.63C55.0561 17.5167 56.2732 16.303 57.39 15C56.1 13.68 54.57 12.69 53.68 11.07L53.52 11.14C53.6 13.58 53.67 16 53.75 18.63ZM64.73 60C63.47 60.92 62.39 61.89 61.29 62.87C61.8672 63.6908 62.5021 64.4694 63.19 65.2C63.86 65.88 64.43 66.67 65.12 67.51C65 65 64.86 62.55 64.73 60ZM34.73 16.1L31 19.82L31.05 19.94L37.38 19.56V19.44C36.2518 18.5374 35.3367 17.3969 34.7 16.1H34.73ZM60.57 62.1L64.34 59C61.91 59.09 59.6 58.92 57.27 59C57.607 59.4058 57.9895 59.7716 58.41 60.09C59.107 60.5625 59.7304 61.1353 60.26 61.79C60.3472 61.9115 60.4406 62.0283 60.54 62.14L60.57 62.1Z" fill="#2A2B2C"/>
<path d="M24.62 51.63C24.62 52.47 24.62 53.31 24.5 54.14C24.4117 54.6553 24.2641 55.1587 24.06 55.64C23.9944 55.8177 23.8797 55.9732 23.7292 56.0883C23.5788 56.2033 23.3987 56.2733 23.21 56.29C21.95 56.35 20.7 56.43 19.44 56.4C18.71 56.4 18.59 56.15 18.56 55.4C18.5 53.85 18.44 52.3 18.35 50.75C18.2762 50.1589 18.1593 49.574 18 49C17.86 48.33 18 48 18.57 47.71C18.8838 47.5607 19.2232 47.4725 19.57 47.45C20.38 47.45 21.2 47.45 22.02 47.45C22.41 47.45 22.81 47.56 23.2 47.62C23.3 47.62 23.4 47.69 23.5 47.69C24.12 47.69 24.14 47.75 24.31 48.31C24.5969 49.3918 24.7017 50.5138 24.62 51.63ZM19.62 55.46H20.41L22.29 55.37C23.21 55.37 23.29 55.26 23.49 54.37C23.49 54.25 23.49 54.12 23.54 54C23.54 52.55 23.62 51.11 23.63 49.67C23.5989 49.2773 23.5285 48.8887 23.42 48.51C22.63 48.51 21.92 48.4 21.22 48.43C20.4831 48.306 19.7269 48.3679 19.02 48.61C19.66 50.82 19.3 53.11 19.6 55.46H19.62Z" fill="#2A2B2C"/>
<path d="M33.56 52.66C33.56 53.41 33.51 54.17 33.44 54.92C33.37 55.67 33.13 55.75 32.53 55.86C32.2628 55.913 31.9921 55.9464 31.72 55.96L29.08 56.09C27.97 56.09 27.55 55.77 27.45 54.65C27.45 54.15 27.4 53.65 27.45 53.14C27.4818 51.6922 27.3679 50.2449 27.11 48.82C26.96 47.98 27.16 47.7 27.99 47.56C29.3409 47.3723 30.7139 47.4162 32.05 47.69C32.3415 47.7259 32.6179 47.8399 32.85 48.02C33.039 48.2055 33.162 48.4479 33.2 48.71C33.32 49.71 33.4 50.71 33.48 51.65C33.48 51.99 33.48 52.32 33.48 52.65L33.56 52.66ZM32.49 54.9C32.5482 52.8344 32.4378 50.7676 32.16 48.72C30.8132 48.4175 29.42 48.3835 28.06 48.62C28.3509 50.2699 28.4682 51.9457 28.41 53.62C28.41 53.8933 28.41 54.1633 28.41 54.43C28.41 54.64 28.47 54.84 28.52 55.11L32.49 54.9Z" fill="#2A2B2C"/>
<path d="M20.46 36.5C21.13 36.62 21.81 36.7 22.46 36.87C22.62 36.87 22.79 37.19 22.84 37.39C23.19 39.07 23.51 40.76 23.84 42.45C23.8602 42.6361 23.8602 42.8239 23.84 43.01C23.8499 43.2118 23.785 43.4102 23.6576 43.567C23.5303 43.7239 23.3495 43.8282 23.15 43.86C22.87 43.93 22.57 43.96 22.28 44.01C22.0491 44.0269 21.8209 44.0706 21.6 44.14C20.688 44.4514 19.7335 44.62 18.77 44.64C17.88 44.73 17.6 44.47 17.54 43.56C17.45 42.16 17.37 40.76 17.28 39.35C17.28 38.77 17.17 38.19 17.14 37.6C17.11 37.01 17.28 36.73 17.95 36.7L20.4 36.58L20.46 36.5ZM22.88 42.92C22.6526 41.1647 22.3187 39.4248 21.88 37.71C20.6744 37.565 19.4557 37.565 18.25 37.71L18.66 43.57C20.11 43.75 21.39 43 22.88 42.92Z" fill="#2A2B2C"/>
<path d="M19.18 64.61C19.1 63.61 19.03 62.61 18.95 61.61C18.85 60.31 19.24 59.89 20.55 59.91C20.97 59.91 21.4 59.91 21.81 59.91C22.5891 59.8974 23.3591 60.0796 24.05 60.44C24.1346 60.4935 24.2075 60.5637 24.2642 60.6462C24.3209 60.7287 24.3603 60.8218 24.38 60.92C24.5591 61.5751 24.6829 62.2442 24.75 62.92C24.8 64.02 24.75 65.14 24.75 66.25C24.75 67.13 24.52 67.35 23.65 67.5C22.3589 67.67 21.0511 67.67 19.76 67.5C19.31 67.5 19.12 67.22 19.1 66.74C19.1 66.05 19.1 65.35 19.1 64.66L19.18 64.61ZM23.73 66.43C23.9333 64.6891 23.8318 62.9261 23.43 61.22C22.322 60.8665 21.1441 60.7909 20 61C20.05 62.81 20.11 64.62 20.16 66.48C21.3474 66.6129 22.5468 66.5961 23.73 66.43Z" fill="#2A2B2C"/>
<path d="M35.18 51.32C35.18 50.48 35.09 49.65 35.05 48.81C35.05 48.3 35.2 48.05 35.72 48.04C36.98 48.04 38.23 48.04 39.49 48.04C39.639 48.0359 39.7844 48.0866 39.8986 48.1824C40.0129 48.2782 40.0881 48.4125 40.11 48.56C40.2351 49.0038 40.3122 49.4597 40.34 49.92C40.34 51.22 40.34 52.51 40.25 53.81C40.2302 54.1228 40.1592 54.4302 40.04 54.72C39.9807 54.9582 39.8358 55.1663 39.633 55.3047C39.4301 55.443 39.1835 55.5018 38.94 55.47C38.4 55.47 37.86 55.36 37.32 55.3L36.45 55.2C35.68 55.13 35.35 54.84 35.29 54.06C35.23 53.28 35.29 52.51 35.21 51.74C35.21 51.59 35.21 51.44 35.21 51.3L35.18 51.32ZM36.09 49.02C36.16 50.8 36.23 52.48 36.31 54.18L39.11 54.51C39.429 52.7237 39.4694 50.8987 39.23 49.1C38.1897 48.9568 37.1373 48.9233 36.09 49V49.02Z" fill="#2A2B2C"/>
</svg>
