<?xml version="1.0" encoding="utf-8"?>
<!-- Generator: Adobe Illustrator 24.3.0, SVG Export Plug-In . SVG Version: 6.00 Build 0)  -->
<svg version="1.1" id="Layer_1" xmlns="http://www.w3.org/2000/svg" xmlns:xlink="http://www.w3.org/1999/xlink" x="0px" y="0px"
	 viewBox="0 0 80 80" style="enable-background:new 0 0 80 80;" xml:space="preserve">
<style type="text/css">
	.st0{fill:#2A2B2C;}
</style>
<path class="st0" d="M53.7,62.2c-0.1,0.7,0.4,1.4-0.3,1.7c-0.9,0.1-0.8-1.1-0.8-1.7c-0.4,0-0.9-0.1-1.1,0c-0.3,0.3-0.6,0.8-0.7,1.2
	c0.1,0.9,1.2,1.5,1.9,1.7c0.6,0.2,2,0.3,1.7,1.2c-0.1,0.2-0.3,0.3-0.5,0.3c-1.4-0.2-2.6-0.9-3.8-1.7c-0.1,0.9,0,1.9,0.1,2.8
	c0,0.4-0.2,0.7-0.5,0.8s-0.6-0.2-0.7-0.6c-0.4-2-0.3-4.1,0.7-5.9c-1.4-0.2-2.7-0.2-4.1,0c0.4,1.8,0.9,3.7,0.7,5.6
	c0,0.4,0.1,0.7,0.3,1c0.6,0.7,1,1.6,1.8,2.2c0.2,0.2,0.6,0.3,0.5,0.6c0,0.3-0.3,0.6-0.6,0.6c-1.1-0.4-1.5-1.2-2.1-2.2
	c-0.4,0.8-0.6,1.3-1,2c-0.2,0.3-0.5,0.4-0.7,0.3s-0.4-0.3-0.3-0.7c0.4-2,1-4.3,0.1-6.2c-0.5,0.6-1.9,3-2.7,2.1
	c-0.2-0.3-0.2-0.5,0.1-0.8c0.7-0.7,1.5-1.5,1.7-2.5c-0.1-0.7-0.4-1.4-0.5-2.2c-2.2-0.2-4.7-0.5-6.8,0c-0.7,1-0.7,1.2,0,2.2
	c0.4,0.6,1.1,0.9,1.7,1.2c0.4,0.3,0.1,1-0.4,0.9c-0.5-0.1-1.1-0.4-1.6-0.7c-0.1,1.6-0.2,3.1-1,4.4c-0.4,0.7-1.3,0.2-1-0.5
	c0.1-0.4,0.3-0.9,0.5-1.3c0.5-1.2,0-2.5-0.7-3.5c-0.5-0.9-1-1.8-0.5-2.8c-2.8-0.1-5.4,0.2-8.2,0.5c-0.7,0.1-1.5,0.2-2,0.6
	c-0.4,0.3-0.7,0.3-1-0.1c-0.5-0.7-1.9-4-0.2-3.8c1.4,0,2.9-0.3,4.3-0.4c0,0,6.4-0.3,6.4-0.3c0.7-3.1,3-5.4,5.5-7.2
	c1.3-1,2.9-1.3,4.4-1.5c0.1-2.4,0.1-4.9-0.1-7.3c-1.5-0.5-3-1.2-4.7-0.8c-0.3,2.4-2.5,3.9-4.5,5c-2.7,1.5-6,0.6-8.8-0.2
	c-0.6-0.3-1.8-0.5-1.6-1.4c1-1.7,2.1-3.7,3.7-5.1c2.3-1.7,5.5-2.9,8.3-1.7c1.1,0.4,1.9,1.3,2.7,2.2c1.4,0.2,2.9,0,4.2,0.7
	c0.2,0.1,0.3,0.1,0.5,0.1c-0.2-0.9-0.3-1.9-0.6-2.8c-0.1-0.6-0.2-1.2-0.8-1.6c-0.4-0.7-0.5-1.5-0.8-2.2c-2.1,0-4.5,0.2-6.4-0.9
	c-1.6-0.9-2.4-2.6-3.5-4c-1.7-2.3-2.1-5.3-2.1-8.1c0.2-1.5,0.1-3.2,1.1-4.4c1.9-2.6,4.2-5,7.5-5.5c2.9-0.5,6-0.2,8.5,1.4
	c1.7,0.7,3.1,2.2,3.7,4c1.1,2.4,1.1,5.1,0.6,7.7c-0.5,4.8-2.8,9.2-8,9.9c1.7,3.3,1.9,7,2.8,10.6c0.3-0.1,0.3-0.3,0.3-0.6
	c-0.5-4.6,4-8.2,8.2-8.9c1-0.1,2.1-0.4,3-0.8c0.5-0.3,0.9-0.1,0.9,0.5c0.1,2.1,0,4.3-1.4,6.1c-1.9,2.8-5.6,2.4-8.6,2.9
	c-0.3,0-0.6,0.2-0.7,0.4c-0.6,0.8-1.3,1.5-1.6,2.5c-0.2,0.8-0.1,1.8,0,2.6c4.1,1.4,8.2,4,9,8.6c2.3,0,6.3-0.6,8.5-0.7
	c0.6,0.1,1.6-0.5,2,0.2c0.2,0.4,0.6,0.8,0.3,1.4c-0.4,1,0.3,2,0.1,3c-0.2,0.4-0.7,0.3-1,0.3C60.1,62.1,56.9,61.8,53.7,62.2z
	 M23,61.7c7.8-1.8,16-1.1,24-0.9c5.7,0.4,10.4-0.1,16.1,0.1l-0.2-2.6c-6.3,0.4-12.4,1.1-18.7,0.9c-7.2,0-14.6-0.1-21.8,0.8
	C22.4,60.7,22.6,61.2,23,61.7z M39.3,32.9L39.3,32.9c5.6,0.7,8.4-3.5,9-8.5c0.6-3.1,0.5-6.8-1.5-9.4c-0.8-1.1-2.2-1.6-3.3-2.3
	c-0.3-0.1-0.5-0.2-0.6-0.6c0-0.1-0.2-0.2-0.4-0.2c-3.4-0.5-7.5-0.2-10.1,2.4c-1,1.3-2.5,2.4-2.9,4.1c-0.7,3.4-0.2,7.2,1.7,10.1
	c1,1.1,1.6,2.5,2.8,3.3C35.6,32.9,37.6,32.8,39.3,32.9z M36.6,41.2c-2,0.3-3.9,0.7-5.5,2.1c-0.1,0.1-0.2,0.2-0.4,0.2
	c-0.4,0-0.8-0.6-0.4-0.9c1.4-1.7,3.9-1.9,5.9-2.5c-2.2-2.7-6.1-1.7-8.6,0c-1.6,1.1-2.4,3-3.4,4.5c2.3,0.7,4.8,1.5,7.1,1.1
	c1.8-0.5,3.5-1.6,4.7-3C36.4,42.3,36.6,41.7,36.6,41.2z M45.7,43c1.9-1.9,4.2-3.5,6.9-4.2c0.8-0.3,1.1,0.8,0.4,1
	c-1.8,0.6-3.7,1.3-5.2,2.6l0.1,0.2c1.9-0.5,4.3-0.2,5.9-1.5c1.5-1.3,2.2-3.4,1.9-5.3c-2.2,0.5-4.5,0.6-6.4,1.9
	C47.5,39,45.7,40.7,45.7,43z"/>
<path class="st0" d="M47.7,22.4c0.3,7.3-3.5,11.1-10.8,9.6c-7-1-8.6-13-3.6-17c2.7-2,6.7-3.2,9.7-1.1C45.7,15.8,48,18.8,47.7,22.4z
	 M39.2,27.1c-0.7,0.3-1.6,0.3-2.2,0.8c-0.4,0.7,0.1,1.7,0.9,1.9c0.2,0,0.4,0.1,0.6,0c1.4-0.5,3-0.8,4.3-1.5c0.5-0.6-0.1-1.3-0.6-1.5
	c-0.4-0.2-0.9-0.1-1.3-0.1c-0.6-2.4-1.3-4.8-2-7.3c-0.3-1.5-1.4-2.1-1.9-0.3c-0.3,1-0.5,2-0.7,3c-0.1,0.2-0.1,0.5,0.1,0.7
	c0.5,0.6,1.3,0.4,2.1,0.6L39.2,27.1z"/>
</svg>
