<svg width="80" height="80" viewBox="0 0 80 80" fill="none" xmlns="http://www.w3.org/2000/svg">
<path d="M53.7 62.17C53.7 62.58 53.7 62.88 53.78 63.17C53.86 63.46 53.71 63.81 53.41 63.88C53.2482 63.9092 53.0815 63.8728 52.9465 63.7791C52.8115 63.6853 52.7192 63.5418 52.69 63.38C52.6464 63.0819 52.623 62.7813 52.62 62.48C52.62 62.39 52.62 62.31 52.62 62.22C52.24 62.22 51.75 62.09 51.56 62.22C51.2204 62.566 50.9818 62.9983 50.87 63.47C50.81 63.68 51.05 64.03 51.24 64.24C51.664 64.6749 52.2007 64.9831 52.79 65.13C53.12 65.22 53.46 65.3 53.79 65.41C53.9686 65.4576 54.1377 65.5354 54.29 65.64C54.4007 65.7068 54.4819 65.8132 54.5172 65.9375C54.5524 66.0619 54.5392 66.1951 54.48 66.31C54.4568 66.3708 54.4217 66.4263 54.3769 66.4733C54.332 66.5204 54.2782 66.558 54.2187 66.5841C54.1591 66.6102 54.0949 66.6241 54.0299 66.6251C53.9649 66.6261 53.9004 66.6142 53.84 66.59C52.6294 66.374 51.4898 65.866 50.52 65.11C50.4386 65.0515 50.3515 65.0012 50.26 64.96C50.1996 65.4883 50.1996 66.0217 50.26 66.55C50.26 66.96 50.35 67.38 50.36 67.79C50.37 68.2 50.18 68.53 49.84 68.56C49.5 68.59 49.27 68.39 49.15 67.92C49.0946 67.6727 49.0546 67.4222 49.03 67.17C48.8394 66.0021 48.8904 64.8074 49.18 63.66C49.3772 63.1003 49.6145 62.5556 49.89 62.03C48.5289 61.8179 47.144 61.8078 45.78 62C46.01 63 46.29 64.07 46.44 65.12C46.5284 65.9268 46.5518 66.7395 46.51 67.55C46.4876 67.9069 46.5902 68.2605 46.8 68.55C47.18 69.07 47.52 69.62 47.92 70.13C48.1194 70.3494 48.3444 70.5441 48.59 70.71C48.7331 70.7972 48.8701 70.8941 49 71C49.0886 71.093 49.1381 71.2166 49.1381 71.345C49.1381 71.4735 49.0886 71.597 49 71.69C48.9654 71.7448 48.9203 71.7921 48.8673 71.8293C48.8144 71.8665 48.7545 71.8929 48.6913 71.9068C48.6281 71.9208 48.5627 71.9221 48.499 71.9106C48.4352 71.8991 48.3744 71.8751 48.32 71.84C47.7952 71.571 47.3426 71.18 47 70.7C46.81 70.41 46.61 70.13 46.35 69.7C46.17 70.11 46.03 70.43 45.88 70.7C45.73 70.97 45.55 71.41 45.35 71.7C45.15 71.99 44.9 72.15 44.61 72.04C44.32 71.93 44.22 71.69 44.3 71.3C44.42 70.69 44.57 70.08 44.68 69.47C44.88 68.2582 44.88 67.0218 44.68 65.81C44.6486 65.6525 44.6017 65.4984 44.54 65.35C44.4992 65.2769 44.4488 65.2096 44.39 65.15C44.11 65.54 43.86 65.92 43.57 66.27C43.2632 66.6289 42.9289 66.9632 42.57 67.27C42.23 67.56 41.92 67.54 41.71 67.27C41.5 67 41.52 66.75 41.86 66.43C42.4929 65.8572 43.0238 65.1809 43.43 64.43C43.5006 64.2728 43.5372 64.1024 43.5372 63.93C43.5372 63.7577 43.5006 63.5872 43.43 63.43C43.2666 62.8762 43.143 62.3114 43.06 61.74C40.8498 61.4766 38.6188 61.433 36.4 61.61C36.32 61.67 36.27 61.68 36.25 61.72C35.51 62.72 35.52 62.91 36.25 63.89C36.5915 64.3535 37.0658 64.7022 37.61 64.89C37.6772 64.9062 37.7414 64.9333 37.8 64.97C37.8705 64.996 37.9348 65.0365 37.9888 65.0888C38.0428 65.1411 38.0852 65.2041 38.1135 65.2737C38.1417 65.3434 38.1551 65.4182 38.1528 65.4933C38.1505 65.5684 38.1325 65.6422 38.1 65.71C38.0731 65.7747 38.0332 65.8332 37.9827 65.8818C37.9322 65.9304 37.8723 65.968 37.8066 65.9924C37.7409 66.0168 37.6709 66.0274 37.601 66.0236C37.531 66.0197 37.4626 66.0015 37.4 65.97C37.08 65.84 36.77 65.69 36.45 65.55L36.03 65.32C36.03 65.8 35.97 66.21 35.94 66.62C35.8901 67.591 35.6488 68.5426 35.23 69.42C35.17 69.52 35.13 69.63 35.06 69.73C34.85 70.05 34.58 70.16 34.31 70.03C34.04 69.9 33.92 69.6 34.07 69.21C34.22 68.82 34.4 68.35 34.54 67.91C34.6906 67.4584 34.7444 66.9801 34.6979 66.5063C34.6514 66.0324 34.5056 65.5737 34.27 65.16L33.84 64.36C33.38 63.48 32.84 62.61 33.38 61.53C32.2 61.53 31.11 61.46 30.03 61.53C28.42 61.64 26.81 61.85 25.21 62.03C24.7268 62.091 24.2488 62.1879 23.78 62.32C23.5628 62.3784 23.3613 62.4843 23.19 62.63C22.77 62.93 22.47 62.91 22.19 62.51C21.5594 61.56 21.2125 60.45 21.19 59.31C21.19 58.94 21.33 58.77 21.7 58.7C21.7931 58.6901 21.8869 58.6901 21.98 58.7C23.0916 58.7002 24.2004 58.5896 25.29 58.37C25.63 58.37 25.98 58.29 26.29 58.28L32.72 57.99C32.8 57.74 32.88 57.45 32.96 57.17C33.3247 55.9994 33.9273 54.9168 34.73 53.99C35.7318 52.7746 36.8883 51.6954 38.17 50.78C39.216 50.0469 40.4235 49.5769 41.69 49.41C42.01 49.41 42.32 49.31 42.58 49.27C42.7243 46.8471 42.6842 44.4168 42.46 42C40.97 41.51 39.46 40.84 37.8 41.15C37.7424 41.3092 37.6989 41.4732 37.67 41.64C37.5148 42.586 37.0251 43.4448 36.29 44.06C35.3992 44.8733 34.4078 45.569 33.34 46.13C32.262 46.7235 31.0385 47.0008 29.81 46.93C28.0061 46.8389 26.2231 46.5025 24.51 45.93C24.0968 45.7885 23.701 45.6006 23.33 45.37C23.2264 45.3252 23.1349 45.2566 23.0627 45.1699C22.9905 45.0832 22.9397 44.9807 22.9144 44.8707C22.8891 44.7608 22.89 44.6464 22.917 44.5368C22.9441 44.4273 22.9965 44.3256 23.07 44.24C23.71 43.24 24.32 42.13 25.07 41.13C25.4983 40.5003 26.0211 39.9404 26.62 39.47C28.1344 38.2713 29.9519 37.5166 31.87 37.29C32.8999 37.1739 33.9423 37.3266 34.8957 37.7332C35.8491 38.1398 36.6808 38.7864 37.31 39.61C37.3772 39.7285 37.4746 39.827 37.5923 39.8955C37.71 39.964 37.8438 40.0001 37.98 40C39.2757 39.8738 40.582 40.0875 41.77 40.62C41.856 40.6552 41.9473 40.6755 42.04 40.68H42.27C42.09 39.74 41.94 38.79 41.71 37.86C41.57 37.27 41.54 36.61 40.92 36.24C40.8679 36.1909 40.8299 36.1288 40.81 36.06C40.59 35.39 40.38 34.72 40.15 34.01H39C38.09 34.01 37.19 34.01 36.29 33.89C35.3986 33.8294 34.5328 33.5664 33.7583 33.1211C32.9837 32.6758 32.3209 32.0598 31.82 31.32C31.32 30.57 30.77 29.85 30.22 29.13C29.592 28.2995 29.1302 27.3556 28.86 26.35C28.3128 24.6209 28.056 22.8131 28.1 21C28.1665 19.9635 28.3136 18.9337 28.54 17.92C28.6582 17.4251 28.8873 16.9635 29.21 16.57C29.97 15.57 30.77 14.57 31.62 13.71C33.0048 12.322 34.7937 11.4084 36.73 11.1C38.4589 10.7514 40.2426 10.7787 41.96 11.18C42.27 11.26 42.59 11.32 42.91 11.38C43.4595 11.4508 43.9787 11.6723 44.41 12.02C44.6512 12.2033 44.9172 12.3515 45.2 12.46C46.0565 12.8328 46.8249 13.3816 47.4555 14.0707C48.086 14.7599 48.5646 15.5739 48.86 16.46C49.4265 17.8571 49.7413 19.3433 49.79 20.85C49.7395 21.9552 49.6293 23.0568 49.46 24.15C49.2513 25.6161 48.9167 27.0614 48.46 28.47C47.9291 29.8893 47.0375 31.1456 45.8732 32.1154C44.7088 33.0851 43.3119 33.7346 41.82 34L41.48 34.07C42.5302 36.2552 43.2063 38.6011 43.48 41.01C43.64 42.23 43.98 43.43 44.25 44.68C44.59 44.56 44.59 44.34 44.59 44.11C44.59 43.88 44.59 43.37 44.59 43C44.6011 41.7168 45.0411 40.4742 45.84 39.47C46.6694 38.3383 47.7153 37.3826 48.9169 36.6582C50.1185 35.9338 51.452 35.4551 52.84 35.25C53.8864 35.1752 54.9069 34.8894 55.84 34.41C56.32 34.12 56.7 34.34 56.76 34.92C56.8 35.5194 56.8 36.1207 56.76 36.72C56.7761 38.2539 56.3032 39.753 55.41 41C54.9191 41.6587 54.2949 42.2066 53.5782 42.6081C52.8614 43.0095 52.0681 43.2555 51.25 43.33C49.78 43.51 48.31 43.71 46.84 43.88C46.6908 43.891 46.5459 43.9354 46.4161 44.0098C46.2863 44.0842 46.1749 44.1868 46.09 44.31C45.89 44.593 45.6729 44.8635 45.44 45.12C45.0139 45.5924 44.7021 46.1564 44.5287 46.7685C44.3553 47.3806 44.325 48.0243 44.44 48.65C44.44 48.9 44.44 49.15 44.5 49.33C45.44 49.73 46.31 50.16 47.22 50.48C48.9769 51.221 50.5032 52.4192 51.64 53.95C52.6118 55.0909 53.2578 56.4728 53.51 57.95C53.78 57.95 54.03 57.95 54.27 57.95L59.17 57.47C60.17 57.38 61.06 57.32 62.01 57.24C62.32 57.24 62.64 57.17 63.01 57.12C63.38 57.07 63.83 57.05 64.01 57.4C64.19 57.75 64.62 58.2 64.32 58.75C64.2243 58.9239 64.1825 59.1223 64.2 59.32C64.27 59.99 64.37 60.65 64.47 61.32C64.4927 61.3916 64.5006 61.467 64.4931 61.5417C64.4856 61.6164 64.4628 61.6887 64.4263 61.7543C64.3898 61.8199 64.3402 61.8773 64.2806 61.923C64.2211 61.9687 64.1528 62.0017 64.08 62.02C63.8541 62.0735 63.6221 62.097 63.39 62.09C61.13 62.09 58.86 61.98 56.6 61.99C55.62 61.91 54.71 62.07 53.7 62.17ZM23 61.71C23.84 61.53 24.6 61.33 25.37 61.2C26.14 61.07 27.2 60.98 28.11 60.85C30.1471 60.5318 32.2139 60.4479 34.27 60.6C35.16 60.67 36.07 60.6 36.97 60.6C37.87 60.6 38.64 60.51 39.47 60.53C41.98 60.61 44.47 60.72 47.02 60.82C48.61 60.88 50.2 60.98 51.8 61.02C52.6861 61.0753 53.5749 61.0686 54.46 61C56.3927 60.7867 58.3411 60.7533 60.28 60.9C61.21 60.97 62.16 60.9 63.16 60.9L62.92 58.31C62.62 58.31 62.37 58.31 62.12 58.31C61.12 58.37 60.18 58.43 59.21 58.53C57.72 58.67 56.21 58.93 54.73 58.97C51.22 59.08 47.73 59.32 44.19 59.22C42.27 59.16 40.35 59.15 38.43 59.16C37.12 59.16 35.8 59.26 34.43 59.3C32.26 59.37 30.09 59.4 27.92 59.48C26.92 59.48 25.84 59.61 24.81 59.72C24.01 59.79 23.23 59.93 22.43 60.05C22.4343 60.6506 22.6344 61.2335 23 61.71ZM39.32 32.94V32.85C40.1481 32.9301 40.9819 32.9301 41.81 32.85C43.025 32.6448 44.1659 32.1278 45.1212 31.3495C46.0764 30.5713 46.8134 29.5584 47.26 28.41C47.7407 27.113 48.0989 25.7738 48.33 24.41C48.8774 22.0013 48.7634 19.4893 48 17.14C47.7596 16.3755 47.371 15.6658 46.8562 15.0515C46.3415 14.4372 45.7107 13.9304 45 13.56C44.51 13.31 44 13.04 43.53 12.78C43.27 12.65 42.99 12.55 42.88 12.21C42.88 12.1 42.64 12.01 42.5 11.98C42.36 11.95 41.94 11.93 41.67 11.88C39.556 11.57 37.398 11.7899 35.39 12.52C34.2454 12.8793 33.2124 13.5266 32.39 14.4C31.63 15.25 30.91 16.12 30.18 16.98C29.8202 17.4081 29.5758 17.921 29.47 18.47C29.2471 19.4544 29.1364 20.4608 29.14 21.47C29.2155 23.0656 29.4945 24.6451 29.97 26.17C30.2335 27.0339 30.6502 27.8435 31.2 28.56C31.71 29.21 32.2 29.87 32.68 30.56C33.0205 31.0942 33.4717 31.5492 34.003 31.8942C34.5343 32.2392 35.1335 32.4663 35.76 32.56C37 32.82 38.14 32.84 39.32 32.94ZM36.56 41.16C35.94 41.28 35.39 41.34 34.86 41.5C33.4676 41.7393 32.1634 42.3431 31.08 43.25C31.034 43.303 30.9772 43.3455 30.9133 43.3746C30.8495 43.4037 30.7802 43.4188 30.71 43.4188C30.6398 43.4188 30.5705 43.4037 30.5067 43.3746C30.4428 43.3455 30.386 43.303 30.34 43.25C30.2857 43.2066 30.2409 43.1525 30.2082 43.0911C30.1756 43.0297 30.1559 42.9623 30.1502 42.893C30.1446 42.8237 30.1532 42.7539 30.1755 42.6881C30.1979 42.6222 30.2334 42.5616 30.28 42.51C30.5902 42.0738 31.0114 41.7286 31.5 41.51C32.7876 40.878 34.1577 40.4303 35.57 40.18C35.7662 40.1417 35.9598 40.0916 36.15 40.03C35.5529 39.3195 34.7641 38.7955 33.8776 38.5207C32.9911 38.2459 32.0443 38.2318 31.15 38.48C29.863 38.7662 28.6438 39.2994 27.56 40.05C26.7645 40.5775 26.1062 41.2871 25.64 42.12C25.27 42.76 24.88 43.38 24.49 44.01L24.16 44.59C24.4187 44.7157 24.686 44.8227 24.96 44.91C26.25 45.2 27.52 45.53 28.82 45.72C29.6384 45.8851 30.4816 45.8851 31.3 45.72C33.132 45.2138 34.7695 44.1686 36 42.72C36.1953 42.5123 36.3458 42.2666 36.4421 41.9982C36.5384 41.7298 36.5786 41.4445 36.56 41.16ZM45.7 43C45.8091 42.9278 45.9128 42.8476 46.01 42.76C47.7871 40.8557 50.0692 39.4961 52.59 38.84C52.96 38.72 53.23 38.84 53.34 39.1C53.3697 39.1759 53.3833 39.2572 53.38 39.3387C53.3768 39.4201 53.3566 39.5 53.3209 39.5733C53.2852 39.6466 53.2347 39.7117 53.1726 39.7645C53.1105 39.8173 53.0381 39.8566 52.96 39.88C52.82 39.95 52.65 39.97 52.5 40.03C51.0151 40.4695 49.6105 41.1448 48.34 42.03C48.15 42.17 47.98 42.34 47.8 42.5L47.88 42.65C49.4 42.4 50.88 42.19 52.44 41.87C52.9313 41.7358 53.3815 41.4815 53.75 41.13C54.4832 40.4687 55.04 39.635 55.37 38.7044C55.7 37.7737 55.7928 36.7755 55.64 35.8C54.78 35.97 53.95 36.18 53.12 36.29C51.7439 36.4956 50.4258 36.986 49.25 37.73C48.4643 38.2614 47.7515 38.8935 47.13 39.61C46.4447 40.3326 45.9768 41.2337 45.78 42.21C45.7368 42.4714 45.7101 42.7353 45.7 43Z" fill="#2A2B2C"/>
<path d="M47.65 22.35C47.7891 24.4006 47.4466 26.4553 46.65 28.35C46.2644 29.2718 45.6575 30.0843 44.8831 30.7157C44.1086 31.3471 43.1905 31.7779 42.21 31.97C41.78 32.07 41.35 32.13 40.92 32.22C40.3524 32.335 39.7676 32.335 39.2 32.22C38.43 32.09 37.63 32.11 36.87 31.95C35.6657 31.7588 34.5349 31.2478 33.5955 30.4703C32.6562 29.6928 31.9429 28.6773 31.53 27.53C31.103 26.5637 30.7682 25.5592 30.53 24.53C30.302 23.4209 30.2682 22.2807 30.43 21.16C30.5762 19.85 30.8853 18.5634 31.35 17.33C31.7518 16.3655 32.4172 15.5337 33.27 14.93C34.7087 13.8317 36.4007 13.113 38.19 12.84C39.007 12.6868 39.8463 12.6962 40.6596 12.8678C41.473 13.0394 42.2445 13.3698 42.93 13.84C44.3522 14.8365 45.5708 16.0958 46.52 17.55C47.207 18.5466 47.5924 19.7201 47.63 20.93C47.66 21.38 47.65 21.87 47.65 22.35ZM39.17 27.11C38.57 27.29 38.01 27.43 37.46 27.61C37.2761 27.6442 37.1121 27.7468 37.0008 27.897C36.8894 28.0473 36.8392 28.2342 36.86 28.42C36.8554 28.6297 36.8983 28.8378 36.9855 29.0285C37.0727 29.2193 37.202 29.3879 37.3636 29.5216C37.5252 29.6553 37.715 29.7507 37.9187 29.8007C38.1225 29.8506 38.3349 29.8538 38.54 29.81C39.9 29.43 41.24 28.98 42.54 28.51C42.6601 28.465 42.767 28.3908 42.8511 28.2941C42.9352 28.1973 42.9938 28.0811 43.0217 27.9559C43.0495 27.8308 43.0456 27.7006 43.0104 27.5774C42.9752 27.4541 42.9097 27.3416 42.82 27.25C42.6618 27.0523 42.4584 26.8955 42.227 26.7928C41.9955 26.6901 41.7427 26.6446 41.49 26.66C41.2869 26.675 41.0831 26.675 40.88 26.66L40.72 26C40.11 23.8 39.51 21.59 38.89 19.39C38.7903 19.0124 38.6494 18.6469 38.47 18.3C38.4155 18.2045 38.3382 18.1239 38.2452 18.0653C38.1521 18.0067 38.046 17.9719 37.9363 17.964C37.8266 17.9561 37.7167 17.9753 37.6162 18.0199C37.5156 18.0646 37.4277 18.1333 37.36 18.22C37.177 18.4808 37.0415 18.772 36.96 19.08C36.72 19.97 36.52 20.87 36.3 21.76C36.3 21.88 36.23 21.99 36.21 22.1C36.1639 22.2092 36.1455 22.3281 36.1564 22.4461C36.1672 22.5642 36.2071 22.6777 36.2724 22.7766C36.3377 22.8755 36.4264 22.9568 36.5307 23.0132C36.6349 23.0696 36.7515 23.0994 36.87 23.1C37.33 23.2 37.8 23.26 38.34 23.34L39.17 27.11Z" fill="#2A2B2C"/>
</svg>
