<svg width="80" height="80" viewBox="0 0 80 80" fill="none" xmlns="http://www.w3.org/2000/svg">
<path d="M22.14 47.79L21 46.55C19.74 45.27 18.49 43.98 17.2 42.74C16.43 42.01 15.58 41.35 14.76 40.67C13.94 39.99 13.25 39.48 12.5 38.89C12.3833 38.8012 12.273 38.7043 12.17 38.6C11.8 38.2 11.86 37.86 12.33 37.6L15.19 36L17.63 34.61C18.12 34.33 18.63 34.07 19.08 33.75C21.13 32.28 23.36 31.12 25.54 29.86C26.14 29.52 26.73 29.17 27.33 28.86C27.4826 28.7324 27.6601 28.638 27.8512 28.5829C28.0424 28.5278 28.2429 28.5132 28.44 28.54C28.52 28.54 28.63 28.46 28.73 28.43C28.99 28.35 29.25 28.43 29.29 28.69C29.44 29.62 30.19 30.08 30.72 30.69C32.79 30.24 34.8 29.81 36.81 29.36C37.36 29.24 37.9 29.06 38.43 28.9C38.79 28.79 39.14 28.71 39.43 29.07L40.37 28C40.66 27.68 40.96 27.37 41.25 27C41.3379 26.9138 41.4091 26.8121 41.46 26.7C41.67 26.25 41.71 26.21 42.19 26.29L51.73 27.82C52.2102 27.8985 52.6942 27.9519 53.18 27.98C54.6776 28.0661 56.1676 28.2532 57.64 28.54C58.2126 28.6709 58.8132 28.5892 59.33 28.31C62.47 26.78 65.63 25.31 68.78 23.78C69.3779 23.4517 69.9958 23.1612 70.63 22.91C71.5931 22.5415 72.6552 22.5238 73.63 22.86C73.8625 22.9314 74.0766 23.0527 74.2574 23.2155C74.4381 23.3783 74.5811 23.5787 74.6764 23.8025C74.7716 24.0263 74.8168 24.2682 74.8088 24.5114C74.8008 24.7545 74.7398 24.9929 74.63 25.21C74.4598 25.5963 74.2032 25.9384 73.88 26.21C73.3335 26.6242 72.7512 26.989 72.14 27.3C71.44 27.68 70.71 27.99 70 28.3C69.75 28.43 69.53 28.63 69.28 28.77C69.03 28.91 68.87 28.98 68.66 29.08C66.84 30.02 65.03 30.96 63.2 31.88C61.37 32.8 59.41 33.76 57.48 34.71C57.57 35.07 57.38 35.3 57.07 35.52C56.6598 35.861 56.2692 36.2249 55.9 36.61L56.5 36.86C57.5 37.3 58.5 37.72 59.5 38.19C60.72 38.78 61.93 39.4 63.13 40.04C64.05 40.53 64.97 41.04 65.84 41.62C66.7651 42.2676 67.7745 42.7858 68.84 43.16C68.9165 43.1721 68.9881 43.2056 69.0463 43.2567C69.1046 43.3078 69.1472 43.3744 69.1692 43.4487C69.1912 43.523 69.1916 43.602 69.1705 43.6766C69.1494 43.7511 69.1076 43.8182 69.05 43.87C68.8429 44.0971 68.6152 44.3047 68.37 44.49C65.3633 46.83 62.32 49.0866 59.24 51.26C57.75 52.31 56.24 53.42 54.86 54.56C53.86 55.38 52.86 56.31 51.86 57.2C51.45 57.58 51.05 57.97 50.65 58.37C50.5801 58.4543 50.4835 58.5122 50.3761 58.534C50.2688 58.5558 50.1573 58.5403 50.06 58.49C49.72 58.32 49.39 58.14 49.06 57.96L48.14 57.38L46.67 56.46C45.95 56 45.24 55.54 44.51 55.11C44.01 54.81 43.51 54.56 42.98 54.28C42.9509 54.2693 42.919 54.2693 42.89 54.28L40.28 56.49C40.16 56.6 40.05 56.72 39.94 56.84C39.28 57.56 38.63 58.29 37.94 59.02C37.818 59.1788 37.6461 59.2918 37.4519 59.3408C37.2577 59.3898 37.0527 59.3719 36.87 59.29C35.77 58.84 34.66 58.4 33.57 57.9C31.41 56.9 29.25 55.9 27.1 54.83C25.8014 54.2909 24.4644 53.8497 23.1 53.51C22.1 53.21 21.17 52.9 20.24 52.51C19.31 52.12 19.17 51.85 19.73 50.91C20.1745 50.2185 20.6552 49.5509 21.17 48.91C21.51 48.53 21.81 48.19 22.14 47.79ZM38.49 54.14C38.2288 53.9438 38.0476 53.6596 37.98 53.34C37.78 52.62 37.55 51.91 37.33 51.18C35.0443 52.4816 32.8703 53.97 30.83 55.63C32.936 56.6881 35.0956 57.6361 37.3 58.47C37.84 57.95 38.39 57.47 38.84 56.97C39.3492 56.3573 39.9225 55.8008 40.55 55.31L42.1 54.11C42.2176 54.0186 42.3279 53.9183 42.43 53.81C42.27 53.69 42.13 53.61 42.01 53.51C41.8941 53.3968 41.7443 53.3247 41.5836 53.3048C41.4228 53.2849 41.2599 53.3184 41.12 53.4C40.57 53.62 40 53.82 39.43 53.99C39.1211 54.0648 38.8068 54.115 38.49 54.14ZM42.74 47.35C42.74 47.35 42.66 47.27 42.61 47.26C42.22 47.26 41.82 47.14 41.43 47.12C39.2951 47.0373 37.1818 46.6604 35.15 46C34.1367 45.6725 33.1049 45.4053 32.06 45.2C30.552 44.908 29.0729 44.483 27.64 43.93C27.4164 43.8497 27.1991 43.7527 26.99 43.64C26.59 43.39 26.58 43.11 26.9 42.76C27.69 41.9 28.49 41.04 29.26 40.14C30.61 38.56 31.94 36.96 33.26 35.37L33.43 35.14C33.14 34.79 32.89 34.45 32.62 34.14C31.74 33.14 30.86 32.14 29.97 31.2C29.2367 30.6082 28.6912 29.8161 28.4 28.92C28.06 29.09 27.77 29.23 27.49 29.39L25.73 30.46C23.67 31.74 21.53 32.9 19.58 34.35C19.06 34.73 18.5 35.07 17.94 35.41C17.38 35.75 17.06 35.9 16.62 36.15L13.41 38C13.29 38.07 13.19 38.15 13.04 38.25C13.78 38.84 14.49 39.37 15.17 39.94C16.17 40.8 17.24 41.64 18.17 42.57C19.63 43.97 21.02 45.45 22.45 46.89C23.08 47.51 23.75 48.1 24.4 48.7C25.05 49.3 25.4 49.6 25.93 50.08C27.4304 51.5221 28.8335 53.0621 30.13 54.69C30.1782 54.7482 30.2318 54.8018 30.29 54.85C31.38 54.27 32.29 53.39 33.29 52.72C34.29 52.05 35.36 51.45 36.35 50.72C37.3796 50.0862 38.4447 49.5119 39.54 49C40.6 48.47 41.67 47.91 42.74 47.35ZM27.84 43.09C28.89 43.4 29.84 43.75 30.84 43.97C32.73 44.39 34.61 44.84 36.45 45.43C37.406 45.7111 38.3822 45.9184 39.37 46.05C40.37 46.2 41.37 46.23 42.44 46.37C43.3511 46.4141 44.2255 46.7428 44.94 47.31C45.1346 47.2136 45.3161 47.0926 45.48 46.95C48.98 43.15 52.7 39.55 55.94 35.43C55.85 35.43 55.78 35.43 55.73 35.51C55.17 35.81 54.6 36.1 54.06 36.43C53.845 36.5876 53.6007 36.7006 53.3413 36.7625C53.082 36.8243 52.813 36.8336 52.55 36.79C51.81 36.63 51.04 36.59 50.29 36.46C49.7 36.35 49.53 36.03 49.74 35.46C50.14 34.46 50.57 33.38 51 32.34C51.0572 32.2115 51.1558 32.1059 51.28 32.04C51.73 31.81 52.19 31.61 52.65 31.4L56.54 29.61L57.16 29.31C56.939 29.2554 56.7154 29.212 56.49 29.18L52.72 28.82H52.39C51.07 28.59 49.76 28.34 48.39 28.13C46.3 27.8 44.2 27.5 42.11 27.13C41.9881 27.1028 41.8608 27.1131 41.7448 27.1595C41.6288 27.2059 41.5295 27.2862 41.46 27.39C40.66 28.39 39.89 29.39 39.03 30.39C37.68 31.88 36.26 33.31 34.88 34.77C34.18 35.52 33.48 36.28 32.81 37.07C31.23 39 29.63 40.9 28 42.81C28 42.87 28 42.93 27.84 43.09ZM51.11 42.31C51.2607 42.3638 51.3899 42.465 51.4782 42.5984C51.5666 42.7318 51.6093 42.8902 51.6 43.05C51.6 43.19 51.71 43.34 51.78 43.49C52.37 44.77 52.97 46.05 53.55 47.33C53.6852 47.6555 53.7988 47.9895 53.89 48.33C54.06 48.86 53.95 49.11 53.43 49.33C52.7115 49.63 51.977 49.8904 51.23 50.11C48.53 50.85 45.88 51.76 43.23 52.71C43.05 52.77 42.88 52.85 42.66 52.94C43.3304 53.4761 44.0542 53.9419 44.82 54.33C45.44 54.66 46.06 55 46.65 55.33C47.75 56.03 48.83 56.75 49.92 57.46C50.0039 57.5057 50.0908 57.5457 50.18 57.58C50.55 57.24 50.91 56.91 51.28 56.58C52.61 55.45 53.82 54.16 55.28 53.13C57.57 51.49 59.86 49.83 62.12 48.13C64 46.79 65.76 45.38 67.59 44C67.6774 43.9454 67.7675 43.8953 67.86 43.85C67.7769 43.7803 67.6863 43.7199 67.59 43.67C66.7697 43.3308 65.9966 42.8872 65.29 42.35C64.4286 41.7518 63.5188 41.2267 62.57 40.78C61.4 40.21 60.25 39.59 59.08 39.02C58.08 38.55 57.14 38.14 56.17 37.7L55.42 37.33L51.11 42.31ZM50.55 42.88C50.38 43.05 50.24 43.16 50.12 43.29C48.81 44.67 47.52 46.06 46.2 47.43C45.9518 47.6607 45.6803 47.8651 45.39 48.04C45.3427 48.0754 45.2889 48.1012 45.2317 48.1159C45.1744 48.1306 45.1149 48.1338 45.0564 48.1255C44.9979 48.1171 44.9416 48.0973 44.8907 48.0672C44.8399 48.0371 44.7954 47.9973 44.76 47.95C44.707 47.8797 44.6337 47.8273 44.55 47.8C44.31 47.8 44.07 47.72 43.9 47.7C43.7094 47.853 43.509 47.9933 43.3 48.12L38.3 50.61C38.3 50.61 38.3 50.61 38.24 50.69C38.3276 51.5904 38.5855 52.4659 39 53.27L41.18 52.5C44.05 51.5 46.92 50.4 49.86 49.56C50.64 49.34 51.42 49.11 52.2 48.87C52.49 48.78 52.76 48.64 53.12 48.5C52.32 46.57 51.41 44.77 50.55 42.88ZM22.75 48.39C21.8637 49.37 21.0859 50.4429 20.43 51.59C20.5186 51.6648 20.616 51.7286 20.72 51.78C21.43 52.04 22.13 52.34 22.86 52.54C24.9341 53.0163 26.9471 53.7276 28.86 54.66C28.9561 54.6741 29.0538 54.6741 29.15 54.66C27.78 53.17 26.56 51.66 25.09 50.39L24.71 50.83C24.5 51.05 24.29 51.28 24.06 51.49C23.83 51.7 23.6 51.73 23.44 51.57C23.28 51.41 23.29 51.2 23.5 50.95C23.5888 50.8365 23.6858 50.7295 23.79 50.63L24.53 49.84L22.75 48.39ZM38.81 29.77L38.74 29.66L38.34 29.78C37.4 30.02 36.45 30.28 35.5 30.49C34.3 30.76 33.1 31 31.89 31.25C31.7607 31.293 31.6338 31.3431 31.51 31.4L34.12 34.5L38.81 29.77ZM67.75 25.22C68.0585 26.1378 68.4783 27.0143 69 27.83C69.6 27.56 70.15 27.3 70.71 27.06C70.7635 27.0475 70.8129 27.0214 70.8535 26.9842C70.894 26.947 70.9242 26.9001 70.9413 26.8478C70.9584 26.7956 70.9617 26.7398 70.951 26.6859C70.9402 26.6319 70.9158 26.5817 70.88 26.54C70.8181 26.409 70.748 26.2821 70.67 26.16L69.3 24.52L67.75 25.22ZM51.63 33.14L51 34.56C51.2595 34.6768 51.4863 34.8556 51.6606 35.0805C51.835 35.3054 51.9515 35.5696 52 35.85C52.35 35.85 52.67 35.92 53 35.93C53.0762 35.9471 53.1554 35.9454 53.2307 35.925C53.3061 35.9047 53.3753 35.8662 53.4325 35.813C53.4896 35.7598 53.5329 35.6935 53.5586 35.6198C53.5843 35.546 53.5917 35.4672 53.58 35.39C53.5834 35.0529 53.543 34.7167 53.46 34.39C53.3122 34.0244 53.0596 33.7107 52.734 33.4883C52.4084 33.2659 52.0243 33.1447 51.63 33.14Z" fill="#2A2B2C"/>
<path d="M27.1 33.16C26.91 33.217 26.7231 33.2838 26.54 33.36C25.54 33.83 24.54 34.27 23.62 34.79C21.32 36.08 19.04 37.41 16.75 38.72C16.6863 38.7541 16.626 38.7943 16.57 38.84C16.5019 38.8961 16.4548 38.9737 16.4365 39.0601C16.4181 39.1464 16.4297 39.2364 16.4692 39.3154C16.5086 39.3944 16.5737 39.4576 16.6538 39.4948C16.7339 39.5319 16.8242 39.5408 16.91 39.52C17.047 39.4764 17.178 39.4159 17.3 39.34C18.67 38.57 20.05 37.81 21.41 37.01C23.2221 35.8865 25.1176 34.9036 27.08 34.07C27.1622 34.033 27.2394 33.986 27.31 33.93C27.3502 33.9072 27.3855 33.8766 27.4138 33.84C27.4422 33.8035 27.463 33.7617 27.4751 33.7171C27.4872 33.6724 27.4903 33.6259 27.4843 33.58C27.4782 33.5342 27.4632 33.49 27.44 33.45C27.37 33.33 27.22 33.26 27.1 33.16ZM28.79 35.43C28.79 35.06 28.59 34.88 28.32 34.94C28.1686 34.9891 28.0266 35.0635 27.9 35.16C25.54 36.86 23 38.25 20.51 39.73C20.3808 39.7911 20.2598 39.8684 20.15 39.96C20.1082 39.9879 20.0725 40.0242 20.0451 40.0664C20.0178 40.1086 19.9993 40.156 19.9909 40.2056C19.9825 40.2552 19.9843 40.306 19.9961 40.3549C20.008 40.4038 20.0298 40.4498 20.06 40.49C20.1072 40.5808 20.1874 40.6501 20.2841 40.6836C20.3809 40.7171 20.4868 40.7122 20.58 40.67C20.6962 40.6221 20.8068 40.5617 20.91 40.49C22.72 39.42 24.53 38.36 26.32 37.27C27.06 36.82 27.76 36.27 28.47 35.79C28.5937 35.6863 28.7015 35.565 28.79 35.43ZM30.47 38.28C30.27 38.11 30.2 38 30.12 37.99C30.0162 38.0042 29.9171 38.0418 29.83 38.1C27.91 39.23 26.02 40.4 24.21 41.7C23.7981 42.0825 23.3159 42.3814 22.79 42.58C22.7092 42.6053 22.6417 42.6616 22.6024 42.7366C22.563 42.8116 22.555 42.8991 22.58 42.98C22.5869 43.0258 22.6034 43.0696 22.6283 43.1086C22.6533 43.1476 22.6861 43.1809 22.7248 43.2064C22.7635 43.2318 22.8071 43.2489 22.8528 43.2564C22.8985 43.2639 22.9452 43.2617 22.99 43.25C23.1795 43.2004 23.3566 43.1118 23.51 42.99C25.2944 41.499 27.2011 40.1609 29.21 38.99C29.51 38.82 29.79 38.62 30.08 38.44L30.47 38.28ZM31 49.62C31.0696 49.5928 31.1365 49.5594 31.2 49.52C31.74 49.1 32.28 48.69 32.81 48.26C33.07 48.06 33.32 47.85 33.57 47.64C33.82 47.43 33.8 47.39 33.67 47.22C33.54 47.05 33.36 47.1 33.2 47.22L31 48.73C30.8671 48.8213 30.749 48.9326 30.65 49.06C30.6103 49.1178 30.5883 49.1859 30.5867 49.2561C30.5852 49.3262 30.6042 49.3953 30.6414 49.4548C30.6785 49.5142 30.7323 49.5616 30.796 49.5909C30.8597 49.6203 30.9306 49.6304 31 49.62ZM31.69 46.22C31.53 46.16 31.43 46.08 31.34 46.1C31.2186 46.1394 31.1087 46.2081 31.02 46.3L29.02 47.76C28.76 47.95 28.49 48.13 28.23 48.33C27.97 48.53 27.96 48.59 28.11 48.78C28.1826 48.8496 28.2794 48.8885 28.38 48.8885C28.4806 48.8885 28.5774 48.8496 28.65 48.78C29.24 48.29 29.83 47.78 30.43 47.31C30.76 47.05 31.1 46.82 31.43 46.56C31.5266 46.4546 31.6136 46.3408 31.69 46.22ZM25.04 45.22C25.5301 45.0188 25.9856 44.7422 26.39 44.4C26.4224 44.3401 26.4393 44.2731 26.4393 44.205C26.4393 44.1369 26.4224 44.0699 26.39 44.01C26.31 43.9 26.09 43.76 26 43.8C25.5673 44.0072 25.1496 44.2445 24.75 44.51C24.7113 44.5663 24.6865 44.6311 24.6778 44.6989C24.6691 44.7668 24.6767 44.8357 24.7 44.9C24.75 45 24.91 45.13 25 45.24L25.04 45.22Z" fill="#2A2B2C"/>
<path d="M45.33 49.65L45.71 49.54L50.25 48.27L51.65 47.85C51.83 47.79 51.98 47.68 51.92 47.45C51.86 47.22 51.65 47.21 51.44 47.27L50.5 47.56L46 48.75C45.7546 48.8062 45.5164 48.89 45.29 49C45.2283 49.0423 45.1778 49.099 45.1429 49.1652C45.1081 49.2315 45.0899 49.3052 45.09 49.38C45.06 49.49 45.24 49.57 45.33 49.65Z" fill="#2A2B2C"/>
<path d="M34 55.49C34.1016 55.4271 34.1986 55.3569 34.29 55.28L35.93 53.71C36.17 53.48 36.42 53.28 36.65 53.05C36.88 52.82 36.89 52.58 36.71 52.43C36.53 52.28 36.31 52.33 36.14 52.49C35.41 53.15 34.68 53.8 33.97 54.49C33.8095 54.6398 33.6804 54.8199 33.59 55.02C33.49 55.22 33.68 55.48 34 55.49Z" fill="#2A2B2C"/>
<path d="M27.1 33.16C27.22 33.26 27.37 33.33 27.44 33.45C27.4632 33.49 27.4782 33.5342 27.4843 33.58C27.4903 33.6259 27.4872 33.6724 27.4751 33.7171C27.463 33.7617 27.4422 33.8035 27.4138 33.84C27.3855 33.8766 27.3502 33.9072 27.31 33.93C27.2394 33.986 27.1622 34.033 27.08 34.07C25.1179 34.9004 23.2224 35.8799 21.41 37C20.05 37.8 18.67 38.56 17.3 39.33C17.178 39.4059 17.047 39.4664 16.91 39.51C16.8242 39.5308 16.7339 39.5219 16.6538 39.4848C16.5737 39.4476 16.5086 39.3844 16.4692 39.3054C16.4297 39.2264 16.4181 39.1364 16.4365 39.0501C16.4548 38.9637 16.5019 38.8861 16.57 38.83C16.626 38.7843 16.6863 38.7441 16.75 38.71C19.04 37.4 21.32 36.07 23.62 34.78C24.57 34.26 25.57 33.78 26.54 33.35C26.7233 33.2772 26.9102 33.2138 27.1 33.16Z" fill="#2A2B2C"/>
<path d="M28.79 35.43C28.7015 35.565 28.5937 35.6863 28.47 35.79C27.76 36.3 27.06 36.79 26.32 37.27C24.53 38.36 22.72 39.42 20.91 40.49C20.8068 40.5617 20.6962 40.6221 20.58 40.67C20.4868 40.7122 20.3809 40.7171 20.2841 40.6836C20.1874 40.6501 20.1072 40.5808 20.06 40.49C20.0298 40.4498 20.008 40.4038 19.9962 40.3549C19.9843 40.306 19.9825 40.2552 19.9909 40.2056C19.9993 40.156 20.0178 40.1086 20.0451 40.0664C20.0725 40.0242 20.1082 39.988 20.15 39.96C20.2598 39.8684 20.3808 39.7911 20.51 39.73C23 38.25 25.51 36.86 27.9 35.16C28.0266 35.0635 28.1686 34.9891 28.32 34.94C28.59 34.88 28.8 35.06 28.79 35.43Z" fill="#2A2B2C"/>
<path d="M30.47 38.28L30.08 38.48C29.79 38.66 29.51 38.86 29.21 39.03C27.2011 40.201 25.2943 41.539 23.51 43.03C23.3566 43.1519 23.1795 43.2404 22.99 43.29C22.9452 43.3018 22.8984 43.3039 22.8528 43.2964C22.8071 43.2889 22.7635 43.2719 22.7248 43.2464C22.6861 43.2209 22.6533 43.1876 22.6283 43.1486C22.6034 43.1096 22.5869 43.0658 22.58 43.02C22.5549 42.9391 22.563 42.8516 22.6023 42.7766C22.6417 42.7016 22.7092 42.6453 22.79 42.62C23.3158 42.4214 23.7981 42.1225 24.21 41.74C26.02 40.44 27.91 39.27 29.83 38.14C29.9171 38.0818 30.0162 38.0442 30.12 38.03C30.2 38 30.27 38.11 30.47 38.28Z" fill="#2A2B2C"/>
<path d="M31 49.62C30.9331 49.6239 30.8664 49.6091 30.8074 49.5771C30.7485 49.5452 30.6996 49.4974 30.6664 49.4392C30.6331 49.381 30.6167 49.3147 30.6192 49.2477C30.6216 49.1807 30.6426 49.1157 30.68 49.06C30.779 48.9327 30.8971 48.8214 31.03 48.73L33.2 47.22C33.36 47.1 33.53 47.03 33.67 47.22C33.81 47.41 33.67 47.53 33.57 47.64C33.47 47.75 33.07 48.06 32.81 48.26C32.28 48.69 31.74 49.1 31.2 49.52C31.1365 49.5594 31.0696 49.5928 31 49.62Z" fill="#2A2B2C"/>
<path d="M31.69 46.22C31.6073 46.3417 31.5136 46.4555 31.41 46.56C31.08 46.82 30.74 47.05 30.41 47.31C29.81 47.79 29.22 48.31 28.63 48.78C28.5574 48.8497 28.4606 48.8886 28.36 48.8886C28.2594 48.8886 28.1626 48.8497 28.09 48.78C27.94 48.59 28.09 48.44 28.21 48.33C28.33 48.22 28.74 47.95 29 47.76L31 46.3C31.0887 46.2081 31.1986 46.1395 31.32 46.1C31.43 46.08 31.53 46.16 31.69 46.22Z" fill="#2A2B2C"/>
<path d="M25 45.24C24.87 45.13 24.71 45.04 24.66 44.92C24.6367 44.8557 24.6291 44.7868 24.6378 44.719C24.6465 44.6511 24.6713 44.5864 24.71 44.53C25.1225 44.2629 25.5536 44.0256 26 43.82C26.09 43.82 26.31 43.92 26.39 44.03C26.4224 44.0899 26.4394 44.1569 26.4394 44.225C26.4394 44.2931 26.4224 44.3601 26.39 44.42C25.9734 44.7658 25.5042 45.0426 25 45.24Z" fill="#2A2B2C"/>
<path d="M48 40.65C47.4879 40.5628 46.9805 40.4493 46.48 40.31C44.5064 39.7803 42.5028 39.3695 40.48 39.08L36 38.32C35.6787 38.2755 35.3633 38.195 35.06 38.08C34.9642 38.0587 34.8766 38.0103 34.8076 37.9405C34.7386 37.8706 34.6913 37.7824 34.6712 37.6863C34.6512 37.5903 34.6593 37.4904 34.6945 37.3989C34.7298 37.3073 34.7907 37.2278 34.87 37.17L34.99 37.06C35.87 36.23 36.77 35.41 37.64 34.56C37.7782 34.3927 37.9671 34.2749 38.1782 34.2244C38.3893 34.1739 38.611 34.1934 38.81 34.28C39.81 34.63 40.87 34.83 41.9 35.11C43.47 35.53 45.04 35.97 46.61 36.38C47.51 36.61 48.41 36.8 49.31 37.01C49.5755 37.0668 49.8362 37.1437 50.09 37.24C50.1736 37.2633 50.251 37.3048 50.3167 37.3615C50.3824 37.4182 50.4348 37.4887 50.4701 37.568C50.5055 37.6473 50.5229 37.7334 50.5211 37.8201C50.5194 37.9069 50.4985 37.9922 50.46 38.07C50.0456 38.9765 49.4176 39.7691 48.63 40.38C48.4339 40.4995 48.2218 40.5905 48 40.65Z" fill="#2A2B2C"/>
<path d="M33.34 38.94C33.94 39.06 34.56 39.13 35.15 39.29C37.9 40.07 40.71 40.61 43.49 41.29C43.95 41.39 44.4 41.54 44.85 41.67C44.9395 41.691 45.0266 41.7212 45.11 41.76C45.48 41.91 45.63 42.14 45.51 42.4C45.39 42.66 45.15 42.68 44.77 42.57C43.64 42.26 42.51 41.92 41.36 41.69C39.19 41.26 37.06 40.69 34.92 40.15C34.3391 40.0277 33.7514 39.9409 33.16 39.89C32.78 39.84 32.58 39.72 32.59 39.46C32.6 39.2 32.79 39.05 33.17 39.02H33.33L33.34 38.94Z" fill="#2A2B2C"/>
<path d="M41.45 43.78C41.3903 43.7881 41.3297 43.7881 41.27 43.78C40.354 43.4295 39.4063 43.1682 38.44 43C36.57 42.52 34.69 42.06 32.81 41.6C32.46 41.52 32.1 41.46 31.75 41.39C31.4 41.32 31.29 41.15 31.32 40.92C31.35 40.69 31.58 40.53 31.91 40.61C33.28 40.92 34.65 41.26 36.03 41.61L41.32 42.79L41.8 42.89C41.9086 42.907 42.0072 42.9632 42.0772 43.0479C42.1472 43.1327 42.1838 43.2401 42.18 43.35C42.18 43.58 42.02 43.72 41.7 43.76L41.45 43.78Z" fill="#2A2B2C"/>
<path d="M40.38 31.77C42.6149 31.9683 44.8356 32.3022 47.03 32.77C47.43 32.86 47.85 32.89 48.26 32.95C48.3497 32.9402 48.4403 32.9402 48.53 32.95C48.6377 32.9718 48.7334 33.0332 48.7982 33.122C48.863 33.2109 48.8922 33.3208 48.88 33.43C48.8775 33.4844 48.864 33.5377 48.8403 33.5867C48.8165 33.6356 48.783 33.6792 48.7418 33.7148C48.7006 33.7504 48.6526 33.7772 48.6007 33.7935C48.5488 33.8099 48.4941 33.8155 48.44 33.81C47.9869 33.7869 47.5359 33.7335 47.09 33.65C44.8151 33.1289 42.5059 32.7713 40.18 32.58C40.0546 32.5755 39.9303 32.5553 39.81 32.52C39.711 32.4941 39.6261 32.4303 39.5738 32.3424C39.5214 32.2544 39.5056 32.1494 39.53 32.05C39.5394 31.9597 39.581 31.8757 39.647 31.8133C39.713 31.751 39.7992 31.7143 39.89 31.71L40.38 31.77Z" fill="#2A2B2C"/>
<path d="M49.14 32L45.14 31.3L41.78 30.72C41.7068 30.7255 41.6332 30.7255 41.56 30.72C41.26 30.65 41.12 30.48 41.15 30.24C41.18 30 41.39 29.84 41.72 29.9C42.86 30.08 44 30.28 45.14 30.48C46.14 30.65 47.14 30.83 48.07 30.99C48.3554 31.0252 48.6425 31.0453 48.93 31.05H49.2C49.57 31.05 49.76 31.23 49.75 31.51C49.74 31.79 49.52 31.94 49.14 32Z" fill="#2A2B2C"/>
<path d="M53.39 42.12C53.6148 42.1861 53.8352 42.2663 54.05 42.36C55.05 42.82 55.96 43.36 56.92 43.78L60.3 45.38C60.39 45.38 60.5 45.46 60.59 45.52C60.6422 45.5479 60.6881 45.5863 60.7248 45.6328C60.7614 45.6793 60.7881 45.7328 60.8032 45.7901C60.8182 45.8473 60.8212 45.9071 60.8121 45.9656C60.8029 46.0241 60.7818 46.08 60.75 46.13C60.6876 46.2317 60.5894 46.3065 60.4748 46.3398C60.3602 46.3731 60.2372 46.3625 60.13 46.31C59.07 45.8 58.01 45.31 56.96 44.79C55.91 44.27 55.09 43.79 54.15 43.36C53.83 43.2 53.48 43.1 53.15 42.97C53.0418 42.9504 52.9455 42.8892 52.882 42.7995C52.8184 42.7097 52.7926 42.5986 52.81 42.49C52.84 42.27 53 42.13 53.39 42.12Z" fill="#2A2B2C"/>
<path d="M62.4 44.63C62.4 45.02 62.13 45.22 61.83 45.13C61.6273 45.0578 61.4301 44.9709 61.24 44.87C60.85 44.67 60.48 44.44 60.09 44.24L56.2 42.24C56.07 42.17 55.93 42.12 55.81 42.04C55.7335 41.9871 55.6791 41.9081 55.657 41.8178C55.6349 41.7275 55.6466 41.6322 55.69 41.55C55.7241 41.4553 55.7919 41.3764 55.8804 41.3285C55.969 41.2805 56.072 41.2668 56.17 41.29C56.29 41.3279 56.407 41.3747 56.52 41.43L60 43.21C60.68 43.56 61.35 43.92 62 44.3C62.1479 44.3911 62.2825 44.5021 62.4 44.63Z" fill="#2A2B2C"/>
<path d="M50.21 54.79C49.79 54.62 49.41 54.5 49.06 54.33C48.55 54.09 48.06 53.81 47.57 53.56C47.35 53.45 47.22 53.3 47.3 53.04C47.38 52.78 47.6 52.74 47.88 52.85C48.081 52.9264 48.278 53.0132 48.47 53.11L50.23 53.93H50.38C50.59 54.04 50.69 54.22 50.59 54.42C50.49 54.62 50.34 54.68 50.21 54.79Z" fill="#2A2B2C"/>
<path d="M45.33 49.65C45.24 49.57 45.06 49.49 45.04 49.38C45.0399 49.3052 45.0581 49.2314 45.0929 49.1652C45.1278 49.099 45.1783 49.0423 45.24 49C45.4664 48.89 45.7046 48.8061 45.95 48.75L50.5 47.56L51.44 47.27C51.65 47.21 51.84 47.19 51.92 47.45C52 47.71 51.83 47.79 51.65 47.85L50.25 48.27L45.71 49.54L45.33 49.65Z" fill="#2A2B2C"/>
<path d="M34 55.49C33.67 55.49 33.48 55.22 33.59 54.99C33.6804 54.79 33.8095 54.6098 33.97 54.46C34.68 53.8 35.41 53.15 36.14 52.46C36.31 52.3 36.51 52.22 36.71 52.4C36.91 52.58 36.87 52.8 36.65 53.02C36.43 53.24 36.17 53.45 35.93 53.68L34.3 55.28C34.2053 55.3573 34.1051 55.4275 34 55.49Z" fill="#2A2B2C"/>
<path d="M38.49 54.14C38.98 54.59 38.98 54.77 38.44 55.14C37.9 55.51 37.44 55.83 36.92 56.14C36.66 56.32 36.44 56.3 36.29 56.14C36.14 55.98 36.15 55.75 36.37 55.52C36.4292 55.4522 36.4963 55.3918 36.57 55.34L38.5 54.16L38.49 54.14Z" fill="#2A2B2C"/>
</svg>
