<svg width="80" height="80" viewBox="0 0 80 80" fill="none" xmlns="http://www.w3.org/2000/svg">
<path d="M61.07 41.48C60.95 41.77 60.86 42.04 60.74 42.3C60.5321 42.7662 60.1821 43.1547 59.74 43.41C59.5706 43.5373 59.3742 43.6238 59.166 43.663C58.9578 43.7021 58.7434 43.6928 58.5394 43.6358C58.3353 43.5787 58.1472 43.4755 57.9895 43.334C57.8318 43.1925 57.7088 43.0167 57.63 42.82C57.0022 41.6508 56.7409 40.3198 56.88 39C56.88 38.85 56.88 38.7 56.88 38.54V38.32L56.64 38.12C56.4606 37.9969 56.3138 37.832 56.2124 37.6395C56.111 37.4469 56.058 37.2326 56.058 37.015C56.058 36.7974 56.111 36.5831 56.2124 36.3906C56.3138 36.198 56.4606 36.0331 56.64 35.91C56.7252 35.8423 56.7932 35.7553 56.8384 35.6562C56.8836 35.5572 56.9047 35.4488 56.9 35.34C56.9 34.81 56.9 34.34 56.9 33.76C56.9867 31.16 57.0833 28.5633 57.19 25.97V25.23C55.851 25.3671 54.4984 25.2758 53.19 24.96C51.89 24.68 50.77 23.96 49.52 23.57C49.52 23.64 49.43 23.68 49.44 23.71C50.0372 25.3259 50.2728 27.0532 50.13 28.77C50.0031 31.3005 49.5665 33.8058 48.83 36.23C48.3087 38.0779 47.4211 39.8021 46.22 41.3C45.2761 42.4104 44.1458 43.3478 42.88 44.07C42.2277 44.4484 41.4646 44.5897 40.72 44.47C38.9983 44.2659 37.392 43.4996 36.15 42.29L35.77 41.92C35.7304 41.8904 35.6865 41.8668 35.64 41.85C35.3 42.06 35.33 42.4 35.37 42.72C35.41 43.04 35.52 43.64 35.61 44.09C35.7873 45.1825 35.7328 46.3 35.45 47.37C35.1 49.02 34.73 50.68 34.27 52.3C33.8787 53.7342 33.1559 55.0564 32.16 56.16C31.89 56.46 31.56 56.72 31.22 57.03C31.317 57.1522 31.4205 57.269 31.53 57.38C32.0624 58.0355 32.3677 58.8461 32.4 59.69C32.4428 60.6418 32.1727 61.5815 31.6309 62.3653C31.0892 63.1491 30.3056 63.7338 29.4 64.03C28.7318 64.1468 28.0438 64.0503 27.4335 63.7542C26.8232 63.458 26.3217 62.9772 26 62.38C25.81 62.01 25.68 61.61 25.5 61.17C25.24 61.06 24.91 60.92 24.6 60.76C24.29 60.6 24.05 60.45 23.73 60.26C23.73 60.36 23.73 60.5 23.73 60.52C23.9728 60.6933 24.1716 60.9211 24.3105 61.185C24.4494 61.449 24.5246 61.7418 24.53 62.04C24.5654 62.3139 24.5436 62.5921 24.4662 62.8571C24.3887 63.1222 24.2572 63.3683 24.08 63.58C23.7661 64.0049 23.3545 64.3479 22.88 64.58C22.7053 64.6631 22.5617 64.7997 22.47 64.97C21.5684 66.9887 20.4945 68.9259 19.26 70.76C19.3748 71.167 19.4616 71.5812 19.52 72C19.5733 72.4514 19.4996 72.9086 19.307 73.3203C19.1144 73.732 18.8106 74.0817 18.43 74.33C17.5615 74.9734 16.5108 75.3237 15.43 75.33C14.757 75.3352 14.0858 75.2614 13.43 75.11C12.4968 74.8652 11.6435 74.3814 10.9544 73.7062C10.2652 73.0311 9.76393 72.188 9.49999 71.26C9.35157 70.7712 9.33538 70.2517 9.45308 69.7546C9.57077 69.2575 9.81814 68.8004 10.17 68.43C10.315 68.243 10.5116 68.1026 10.7355 68.0261C10.9595 67.9497 11.2009 67.9406 11.43 68C11.6 68 11.77 68.06 11.99 68.09L14.31 64.49L15.12 63.2C15.4961 62.7116 15.756 62.1439 15.88 61.54C15.9273 61.3231 15.9977 61.1119 16.09 60.91C16.1692 60.6019 16.3135 60.3144 16.5131 60.0666C16.7127 59.8189 16.9629 59.6167 17.2471 59.4737C17.5312 59.3307 17.8427 59.2501 18.1606 59.2374C18.4784 59.2247 18.7953 59.2801 19.09 59.4C19.09 59.32 19.22 59.25 19.27 59.16C21.1265 55.8052 23.3069 52.6401 25.78 49.71C28.23 46.71 30.41 43.6 32.59 40.45C34.11 38.26 35.69 36.12 37.23 33.94C38.65 31.94 40.04 29.94 41.47 27.88C42.4433 26.5133 43.4433 25.16 44.47 23.82C45.99 21.82 47.47 19.74 49.08 17.82C50.0425 16.5659 50.8893 15.2271 51.61 13.82C51.9841 13.1189 52.4155 12.4499 52.9 11.82C54.62 9.65001 56.37 7.49001 58.12 5.34001C58.3389 5.06445 58.5797 4.80695 58.84 4.57001C59.18 4.25001 59.35 4.28001 59.67 4.57001C59.77 4.67978 59.8884 4.77117 60.02 4.84001C61.2324 5.43272 62.296 6.2905 63.1321 7.34987C63.9681 8.40923 64.5553 9.64305 64.85 10.96C64.9921 11.6732 65.0889 12.3946 65.14 13.12C65.3553 15.006 65.1955 16.916 64.67 18.74C64.3274 20.12 63.6446 21.3921 62.6838 22.4402C61.7231 23.4883 60.515 24.279 59.17 24.74L58.49 24.98L58.36 25.08C58.0605 28.5749 57.9404 32.0828 58 35.59C58.68 35.67 59 36.26 59.3 36.7C59.3661 36.8049 59.4108 36.9219 59.4315 37.0442C59.4522 37.1665 59.4485 37.2916 59.4206 37.4125C59.3927 37.5333 59.3412 37.6474 59.269 37.7483C59.1968 37.8491 59.1054 37.9347 59 38C58.6809 38.2051 58.3465 38.3857 58 38.54C57.734 39.7951 57.9144 41.1037 58.51 42.24C58.7 42.63 58.9 42.66 59.25 42.42C59.4491 42.2783 59.618 42.0982 59.7467 41.8905C59.8755 41.6827 59.9616 41.4514 60 41.21C59.9201 41.2048 59.8399 41.2048 59.76 41.21C59.6499 41.2675 59.5223 41.2819 59.4022 41.2505C59.282 41.219 59.1779 41.144 59.11 41.04C59.0393 40.9426 59.0012 40.8254 59.0012 40.705C59.0012 40.5847 59.0393 40.4674 59.11 40.37C59.75 39.37 60.16 39.26 61.11 40.08C61.23 40.18 61.36 40.26 61.47 40.37C61.9 40.79 61.8 41.19 61.22 41.37L61.07 41.48ZM48.16 23.27L47.87 23.6C46.2366 25.6734 44.7113 27.8296 43.3 30.06C41.92 32.16 40.5233 34.2467 39.11 36.32C38.11 37.79 37.05 39.23 36.03 40.66V40.82C36.0608 40.8803 36.0977 40.9372 36.14 40.99C37.1694 42.2242 38.5741 43.0881 40.14 43.45C40.618 43.5681 41.1159 43.581 41.5993 43.4877C42.0828 43.3945 42.5402 43.1974 42.94 42.91C45.1736 41.3728 46.831 39.1348 47.65 36.55C48.3711 34.3783 48.8572 32.1354 49.1 29.86C49.305 28.3503 49.305 26.8198 49.1 25.31C49.0626 24.5339 48.7257 23.8026 48.16 23.27ZM57.34 24.08C57.78 18.58 58.2233 13.0933 58.67 7.62001C58.3019 8.15164 57.9679 8.70609 57.67 9.28001C57.13 10.22 56.67 11.19 56.06 12.09C55.12 13.53 54.13 14.92 53.14 16.33L50 20.73L49 22.19C49.79 22.5 50.53 22.72 51.22 23.07C52.1706 23.5364 53.1797 23.8728 54.22 24.07C55.2466 24.303 56.3119 24.3064 57.34 24.08ZM59.66 5.73001C59.25 11.79 58.85 17.73 58.44 23.78C58.69 23.71 58.88 23.67 59.06 23.6C60.061 23.219 60.9669 22.6244 61.7147 21.8576C62.4625 21.0908 63.0342 20.1703 63.39 19.16C64.076 17.0867 64.2845 14.8852 64 12.72C63.8553 11.095 63.3014 9.53311 62.39 8.18001C61.682 7.16293 60.7475 6.32421 59.66 5.73001ZM30.38 56.56C30.4761 56.3947 30.5901 56.2404 30.72 56.1C32.0857 54.8964 33.0316 53.2884 33.42 51.51C33.85 49.9 34.19 48.26 34.55 46.63C34.7635 45.5026 34.7052 44.3405 34.38 43.24C33.63 43.84 26.12 55.78 25.49 57.38L26.12 57.76C26.2535 57.5724 26.397 57.3921 26.55 57.22C26.8062 56.8726 27.1483 56.5978 27.5427 56.4224C27.9372 56.2471 28.3704 56.1774 28.8 56.22L30.38 56.56ZM18.91 69.34C19.819 67.9633 20.6085 66.5113 21.27 65C21.34 64.85 21.39 64.69 21.47 64.49C20.5841 64.5934 19.6862 64.4871 18.849 64.1796C18.0117 63.8722 17.2585 63.3722 16.65 62.72C16.45 63.03 16.3 63.29 16.13 63.55C14.9 65.42 13.66 67.29 12.43 69.17C12.1489 69.4733 11.9926 69.8715 11.9926 70.285C11.9926 70.6985 12.1489 71.0968 12.43 71.4C12.7818 71.8601 13.2363 72.2317 13.7571 72.4852C14.278 72.7387 14.8508 72.867 15.43 72.86C15.6162 72.8667 15.8018 72.8336 15.9742 72.7629C16.1467 72.6922 16.3021 72.5856 16.43 72.45C16.602 72.2484 16.8086 72.0791 17.04 71.95L18.91 69.34ZM33.74 40.57C33.51 40.89 33.33 41.13 33.16 41.39C30.87 44.81 28.44 48.13 25.82 51.31C23.737 53.8446 21.8925 56.5662 20.31 59.44L19.83 60.36C20.09 60.52 20.3 60.68 20.53 60.79C20.747 60.9004 20.9852 60.9629 21.2285 60.9732C21.4717 60.9836 21.7144 60.9416 21.94 60.85C22.19 60.75 22.37 60.43 22.52 60.18C23.9 57.9 25.26 55.61 26.62 53.33C29 49.41 31.32 45.52 34 41.82C34.16 41.59 34.31 41.35 34.48 41.1L33.74 40.57ZM46.73 22C46.6725 22.0972 46.609 22.1907 46.54 22.28C45.16 24.19 43.75 26.07 42.4 28C40.81 30.28 39.29 32.59 37.72 34.88C36.72 36.33 35.72 37.76 34.72 39.2C34.6 39.37 34.48 39.56 34.34 39.79L35.04 40.3L35.32 39.94C37.98 36.27 40.64 32.6 43.17 28.83C44.4 26.99 45.83 25.27 47.17 23.5L47.7 22.83L46.73 22ZM48.27 22.17C48.3094 22.0651 48.3597 21.9645 48.42 21.87C49.461 20.5419 50.4067 19.1417 51.25 17.68C51.95 16.55 52.56 15.38 53.25 14.29C54.7216 12.1595 56.0576 9.93846 57.25 7.64001C57.34 7.48001 57.41 7.30001 57.49 7.14001C57.4406 7.14375 57.3927 7.15821 57.3495 7.18239C57.3063 7.20657 57.269 7.23989 57.24 7.28001C56.04 8.77001 54.86 10.28 53.65 11.77C52.9221 12.699 52.2984 13.705 51.79 14.77C51.37 15.62 50.88 16.43 50.41 17.25C49.94 18.07 49.56 18.68 49.14 19.41C48.86 19.91 48.85 19.92 48.23 19.79L47.23 21.23L48.27 22.17ZM58.37 37.17C58.1754 36.9922 57.9606 36.8378 57.73 36.71C57.6813 36.682 57.6268 36.6658 57.5707 36.6627C57.5147 36.6595 57.4587 36.6695 57.4072 36.6918C57.3557 36.7142 57.3101 36.7483 57.2742 36.7914C57.2382 36.8344 57.2128 36.8854 57.2 36.94C57.14 37.17 57.32 37.29 57.5 37.38C57.6506 37.4393 57.8162 37.449 57.9727 37.4076C58.1292 37.3662 58.2684 37.276 58.37 37.15V37.17Z" fill="#2A2B2C"/>
<path d="M57 70C57 70 55.51 70.06 55.16 70C54.1514 69.8898 53.1498 69.7229 52.16 69.5C50.8387 69.1529 49.5369 68.7357 48.26 68.25C46.751 67.6515 45.3821 66.7473 44.2394 65.5943C43.0967 64.4413 42.2049 63.0643 41.62 61.55C41.1238 60.2435 40.9224 58.8435 41.03 57.45C41.0114 55.9453 41.2135 54.446 41.63 53C42.0395 51.3915 42.832 49.9059 43.94 48.67C45.696 46.6156 47.9877 45.089 50.56 44.26C53.3272 43.4145 56.3034 43.5667 58.97 44.69C61.425 45.5812 63.5849 47.1354 65.21 49.18C66.514 50.9688 67.3493 53.0556 67.64 55.25C67.74 55.91 67.87 56.58 67.97 57.25C68.01 57.421 68.01 57.599 67.97 57.77C67.79 58.49 67.58 59.21 67.37 59.92C67.1459 60.6621 66.7599 61.3451 66.24 61.92C66.0706 62.1183 65.9262 62.3366 65.81 62.57C65.65 62.88 65.52 63.21 65.38 63.57C64.4362 65.7121 62.798 67.4735 60.73 68.57C60.0996 68.8738 59.4479 69.1312 58.78 69.34L57 70ZM45.78 55.61C46.0822 55.6257 46.3829 55.6625 46.68 55.72L49.9 56.67C50.0621 56.7249 50.2378 56.7249 50.4 56.67C50.74 56.49 51.33 56.67 51.62 56.45C52.21 55.93 52.75 55.33 53.35 54.83C53.4481 54.7705 53.5335 54.6922 53.6013 54.5996C53.669 54.507 53.7178 54.4019 53.7447 54.2904C53.7717 54.1788 53.7763 54.0631 53.7583 53.9497C53.7403 53.8364 53.7001 53.7277 53.64 53.63C53.45 53.24 53.32 52.81 53.12 52.42C52.64 51.48 52.12 50.56 51.65 49.62C51.5236 49.3945 51.442 49.1466 51.41 48.89C51.4127 48.7803 51.3724 48.6739 51.2976 48.5935C51.2229 48.5131 51.1196 48.4652 51.01 48.46C49.76 48.2 48.51 47.95 47.26 47.68C46.96 47.62 46.99 47.97 46.75 48.17C46.2145 48.5956 45.7721 49.1266 45.45 49.73L44.53 51.48C44.4575 51.6024 44.412 51.7389 44.3965 51.8803C44.381 52.0217 44.3958 52.1648 44.44 52.3C44.6314 53.4824 45.0859 54.6067 45.77 55.59L45.78 55.61ZM50.24 66.18C50.76 65.06 51.3 64 51.75 62.91C52.0128 62.3506 52.066 61.7154 51.9 61.12C51.53 59.99 51.06 58.9 50.65 57.78C50.6083 57.6582 50.5323 57.5509 50.4312 57.4711C50.3302 57.3913 50.2082 57.3423 50.08 57.33C49.08 57.1 47.98 56.85 46.93 56.6C46.79 56.6 46.73 56.98 46.6 56.68C46.5356 56.8668 46.4173 57.0304 46.26 57.15C45.9445 57.3893 45.6964 57.7063 45.54 58.07C44.97 58.96 44.42 59.86 43.82 60.72C43.6 61.04 43.98 61.21 44.16 61.54C44.79 62.67 45.41 63.81 46.06 64.99C47.55 65.33 48.65 65.78 50.23 66.16L50.24 66.18ZM58 54.89L59.19 52.5C59.2736 52.2742 59.3953 52.0645 59.55 51.88C59.6406 51.7854 59.7085 51.6714 59.7483 51.5466C59.7882 51.4219 59.799 51.2896 59.78 51.16C59.7192 49.4574 59.4092 47.7728 58.86 46.16C58.8285 46.0219 58.7581 45.8957 58.6571 45.7965C58.556 45.6972 58.4286 45.629 58.29 45.6C57.53 45.4 56.76 45.21 56 45C55.8948 44.9705 55.7836 44.9698 55.6781 44.998C55.5726 45.0261 55.4765 45.0821 55.4 45.16C54.3827 45.9374 53.4686 46.8414 52.68 47.85C52.5207 48.0924 52.3739 48.3427 52.24 48.6C53.2722 50.2424 54.1366 51.9845 54.82 53.8C54.857 53.8842 54.9201 53.9543 55 54C56 54.3 56.92 54.58 58 54.89ZM60.18 52.71C59.75 53.56 59.27 54.5 58.8 55.44C58.7504 55.5791 58.7504 55.731 58.8 55.87C59.05 56.57 59.33 57.27 59.58 57.97C59.6376 58.1571 59.7489 58.3231 59.9 58.4475C60.0511 58.572 60.2353 58.6493 60.43 58.67C60.9967 58.7572 61.5553 58.891 62.1 59.07C62.89 59.33 63.67 59.64 64.45 59.94C64.99 60.14 65.05 60.13 65.45 59.71C65.6806 59.4162 65.9276 59.1358 66.19 58.87C66.4985 58.6031 66.7338 58.2619 66.8738 57.8787C67.0138 57.4955 67.0538 57.083 66.99 56.68C66.99 56.42 66.93 56.15 66.9 55.89C66.717 54.6241 66.3812 53.3851 65.9 52.2C65.18 52.2 64.46 52.11 63.74 52.14C63.02 52.17 62.12 52.3 61.32 52.42C60.9183 52.4948 60.5211 52.5917 60.13 52.71H60.18ZM57.39 62.47L58.39 66.47C58.45 66.68 58.47 66.92 58.74 66.98C59.27 67.1 59.8 67.23 60.34 67.33C60.5125 67.3357 60.6829 67.2905 60.83 67.2C61.9584 66.508 62.9238 65.5801 63.66 64.48C63.91 64.07 64.19 63.68 64.45 63.27C64.5183 63.1877 64.5602 63.0866 64.57 62.98C64.57 62.37 64.57 61.75 64.51 61.14C64.5103 61.0404 64.4769 60.9437 64.4151 60.8656C64.3534 60.7875 64.267 60.7326 64.17 60.71L60.51 59.43C60.3322 59.3501 60.131 59.3397 59.9459 59.4008C59.7608 59.4619 59.6053 59.59 59.51 59.76C58.85 60.69 58.1 61.55 57.34 62.47H57.39ZM56.39 62.66L53.59 62.08C53.16 61.99 53.08 62.08 52.94 62.5C52.76 63.09 52.57 63.67 52.34 64.24C52.121 64.7664 51.8671 65.2775 51.58 65.77C51.4503 65.9326 51.3839 66.1366 51.3931 66.3444C51.4023 66.5522 51.4864 66.7495 51.63 66.9C51.75 67.06 51.82 67.25 51.94 67.41C52.0686 67.5405 52.1666 67.6978 52.2272 67.8708C52.2877 68.0437 52.3091 68.2278 52.29 68.41C53.487 68.7795 54.7383 68.9419 55.99 68.89C56.152 68.8976 56.3122 68.8532 56.4471 68.7632C56.5821 68.6732 56.6847 68.5425 56.74 68.39C57.0238 67.9206 57.2456 67.4164 57.4 66.89C57.3702 66.3465 57.2589 65.8105 57.07 65.3L56.8 64.21C56.66 63.72 56.52 63.19 56.39 62.66ZM42 60.92C42.16 61.8 44.39 64.74 45 65.25C44.76 64.78 43.37 61.8 43.13 61.45C42.89 61.1 42.47 61.22 42 60.92ZM46 47.42C45.3 48 43 50 43.93 51C44.4886 49.7354 45.1827 48.535 46 47.42Z" fill="#2A2B2C"/>
<path d="M19.67 65.9C18.7195 65.7694 17.8306 65.3546 17.12 64.71C16.9525 64.571 16.8016 64.4133 16.67 64.24C16.6194 64.1968 16.5787 64.1432 16.5508 64.0827C16.5229 64.0223 16.5085 63.9566 16.5085 63.89C16.5085 63.8235 16.5229 63.7577 16.5508 63.6973C16.5787 63.6368 16.6194 63.5832 16.67 63.54C16.88 63.35 17.11 63.37 17.38 63.54C17.7533 63.877 18.1547 64.1815 18.58 64.45C18.9775 64.6211 19.3937 64.7453 19.82 64.82C19.94 64.82 20.1 64.82 20.2 64.89C20.3 64.96 20.49 65.13 20.5 65.27C20.4954 65.3539 20.4713 65.4355 20.4296 65.5084C20.388 65.5813 20.3299 65.6435 20.26 65.69C20.0727 65.7839 19.8745 65.8544 19.67 65.9Z" fill="#2A2B2C"/>
<path d="M17.86 68.43C17.0583 68.3973 16.2922 68.0901 15.69 67.56C15.58 67.46 15.43 67.33 15.42 67.2C15.3962 67.0133 15.4425 66.8245 15.55 66.67C15.5904 66.6234 15.6403 66.586 15.6964 66.5604C15.7524 66.5348 15.8134 66.5215 15.875 66.5215C15.9366 66.5215 15.9976 66.5348 16.0537 66.5604C16.1097 66.586 16.1596 66.6234 16.2 66.67C16.7874 67.1397 17.5007 67.425 18.25 67.49C18.69 67.56 18.9 67.77 18.84 68.05C18.78 68.33 18.47 68.44 18.18 68.45L17.86 68.43Z" fill="#2A2B2C"/>
<path d="M15.65 71.42C15.2217 71.413 14.8046 71.2817 14.4495 71.042C14.0944 70.8024 13.8167 70.4647 13.65 70.07C13.6041 69.9621 13.5967 69.8417 13.6292 69.7291C13.6616 69.6164 13.7319 69.5184 13.8282 69.4515C13.9244 69.3845 14.0408 69.3528 14.1577 69.3617C14.2746 69.3705 14.3849 69.4194 14.47 69.5C14.5049 69.5247 14.5353 69.5551 14.56 69.59C14.6951 69.8679 14.9154 70.0954 15.1888 70.2393C15.4622 70.3832 15.7745 70.436 16.08 70.39C16.1412 70.3853 16.2026 70.3941 16.26 70.4157C16.3174 70.4373 16.3694 70.4712 16.4123 70.5151C16.4552 70.5589 16.4879 70.6116 16.5083 70.6695C16.5286 70.7273 16.536 70.789 16.53 70.85C16.5392 70.9617 16.5064 71.0728 16.4379 71.1616C16.3695 71.2504 16.2704 71.3104 16.16 71.33C15.93 71.38 15.74 71.4 15.65 71.42Z" fill="#2A2B2C"/>
</svg>
