<svg width="80" height="80" viewBox="0 0 80 80" fill="none" xmlns="http://www.w3.org/2000/svg">
<path d="M45.17 60.66C45.2674 61.3253 45.1832 62.0047 44.9262 62.6261C44.6692 63.2475 44.2489 63.7878 43.71 64.19C41.65 66.02 39.35 67.42 36.45 67.43C35.9089 67.4333 35.3681 67.4066 34.83 67.35C34.556 67.341 34.2883 67.2655 34.05 67.13C33.66 66.85 33.38 66.41 32.96 66.2C32.5215 66.0236 32.1309 65.746 31.82 65.39C28.73 61.26 25.66 57.12 22.98 52.71L22.68 52.26C21.92 52.42 21.53 51.93 21.16 51.35C20.49 50.3 19.82 49.25 19.1 48.23C18.8432 47.9604 18.7 47.6023 18.7 47.23C18.7 46.8577 18.8432 46.4996 19.1 46.23C18.67 45.5 18.24 44.78 17.83 44.05C16.4 41.54 15 39 13.54 36.43C12.9 35.3 12.24 34.17 11.6 33.04C11.4342 32.7584 11.284 32.468 11.15 32.17C10.74 31.3 10.87 31.05 11.87 30.85C11.9271 30.7069 11.9739 30.5598 12.01 30.41C12.268 28.9758 12.9672 27.6578 14.01 26.64C14.4467 26.1582 14.8541 25.6506 15.23 25.12C15.5772 24.6792 16.0317 24.3349 16.55 24.12C17.5846 23.6452 18.695 23.3574 19.83 23.27C19.9923 23.2458 20.1578 23.2839 20.2932 23.3766C20.4286 23.4694 20.5239 23.6099 20.56 23.77C20.76 24.3 20.97 24.82 21.2 25.4L22.01 25.1C22.8403 24.8196 23.7397 24.8196 24.57 25.1C24.894 25.1963 25.2333 25.2303 25.57 25.2C26.09 25.2 26.39 25.34 26.4 25.84C26.567 27.5158 27.0596 29.1429 27.85 30.63C28.66 32.52 29.64 34.34 30.54 36.19C30.6206 36.392 30.7579 36.5665 30.9353 36.6925C31.1127 36.8184 31.3226 36.8905 31.54 36.9C32.0167 36.943 32.4745 37.107 32.87 37.3765C33.2655 37.646 33.5856 38.0121 33.8 38.44C34.25 39.39 34.8 40.29 35.3 41.23C35.4928 41.4519 35.5989 41.736 35.5989 42.03C35.5989 42.324 35.4928 42.608 35.3 42.83C36.2 43.16 36.11 44.09 36.54 44.83L37.88 44.76C37.69 44.05 37.49 43.43 37.35 42.76C36.8833 40.6733 36.4233 38.58 35.97 36.48C35.9269 36.2693 35.9035 36.055 35.9 35.84C35.6417 32.0409 35.9791 28.2248 36.9 24.53C37.1465 23.3612 37.7723 22.3065 38.68 21.53C38.8451 21.4021 39.0424 21.3225 39.25 21.3L46.25 20.79C47.55 20.7 48.85 20.66 50.15 20.52C52.76 20.25 55.37 19.93 57.99 19.61C59.99 19.36 62.07 19.05 64.12 18.82C65.0383 18.6745 65.9791 18.8224 66.8086 19.2425C67.638 19.6626 68.3139 20.3336 68.74 21.16C69.3118 22.0486 69.6331 23.0751 69.6701 24.1311C69.7071 25.1871 69.4583 26.2336 68.95 27.16C68.33 28.34 68.51 28.11 67.24 28.16C66.164 28.224 65.0923 28.3475 64.03 28.53C63.9573 29.5317 64.0009 30.5384 64.16 31.53C64.38 33.6 64.61 35.68 64.8 37.76C64.89 38.67 64.8 39.61 64.98 40.52C65.2008 41.3284 65.235 42.1764 65.08 43C65.79 45.36 65.28 47.68 64.78 50C64.3562 51.4976 63.5048 52.839 62.33 53.86C61.73 54.45 61.04 54.95 60.42 55.51C60.13 55.78 59.91 56.13 59.63 56.41C59.4553 56.5653 59.2559 56.6903 59.04 56.78C58.72 56.93 58.37 57.01 58.04 57.18C55.3761 58.6535 52.4646 59.6263 49.45 60.05C48.06 60.27 46.64 60.46 45.17 60.66ZM53.17 52.27C53.17 54.05 53.71 54.69 55.27 55.06H55.42C56.0607 55.2343 56.7364 55.2334 57.3767 55.0575C58.0169 54.8816 58.5983 54.5371 59.06 54.06C61.06 51.92 62.72 49.64 63.06 46.6C63.2889 44.7418 63.3191 42.8645 63.15 41C62.73 37.53 62.25 34.06 61.75 30.6C61.5076 29.2813 61.437 27.9368 61.54 26.6C61.62 25.85 61.68 25.09 61.71 24.33C61.8014 22.9953 62.2734 21.7148 63.07 20.64C63.17 20.5 63.26 20.36 63.4 20.13L62.66 20.21C61.72 20.35 60.79 20.51 59.85 20.63C57.69 20.9 55.54 21.16 53.38 21.4C51.58 21.6 49.77 21.79 47.96 21.95C45.34 22.16 42.71 22.35 40.09 22.53C39.6626 22.5145 39.2441 22.6551 38.9129 22.9257C38.5816 23.1962 38.3602 23.5781 38.29 24C37.8592 25.4834 37.5252 26.9933 37.29 28.52C37.08 30.7 37.1 32.91 37.04 35.1C37.0298 35.563 37.07 36.0257 37.16 36.48C37.52 38.23 37.88 39.98 38.29 41.73C38.52 42.73 38.84 43.63 39.14 44.64C40.57 44.64 41.92 44.56 43.27 44.49C44.62 44.42 45.82 44.27 47.09 44.25C50.1827 44.2967 53.2746 44.1128 56.34 43.7C56.5961 43.6983 56.843 43.795 57.03 43.97C57.0799 44.0275 57.1176 44.0946 57.1408 44.1672C57.1639 44.2398 57.172 44.3164 57.1645 44.3922C57.157 44.468 57.1341 44.5415 57.0972 44.6082C57.0603 44.6749 57.0102 44.7333 56.95 44.78C56.6643 45.0628 56.3492 45.3143 56.01 45.53C55.3133 45.9459 54.751 46.5534 54.39 47.28C54.5498 47.2902 54.7102 47.2902 54.87 47.28L59.87 46.58C60.08 46.58 60.29 46.5 60.51 46.48C60.73 46.46 61.11 46.54 61.2 46.9C61.29 47.26 61.1 47.47 60.69 47.61C60.534 47.6568 60.3727 47.6837 60.21 47.69L54.15 48.36C53.98 48.36 53.71 48.42 53.65 48.53C53.1864 49.2444 52.9687 50.0906 53.03 50.94C53.29 50.94 53.51 50.94 53.72 50.94L58.19 50.75C58.82 50.75 59.08 50.86 59.12 51.26C59.16 51.66 58.94 51.92 58.34 52C57.8294 52.0698 57.3152 52.1098 56.8 52.12C55.61 52.18 54.39 52.22 53.13 52.27H53.17ZM53.51 45.38C52.44 45.38 51.51 45.48 50.6 45.51L39.6 45.91C38.53 45.91 37.46 46.05 36.39 46.09C35.32 46.13 34.06 46.18 32.9 46.09C32.687 46.0693 32.4721 46.1003 32.2737 46.1804C32.0752 46.2605 31.899 46.3873 31.76 46.55C31.1861 47.1415 30.8089 47.8959 30.68 48.71C30.32 51.35 30.68 53.8 32.79 55.71C33.09 55.98 33.37 56.28 33.69 56.53C35.2096 57.8097 37.0423 58.6622 39 59C41.7709 59.3983 44.5828 59.4218 47.36 59.07C49.7513 58.8274 52.103 58.2866 54.36 57.46C54.63 57.36 54.89 57.24 55.1 57.15C54.37 56.67 53.7 56.15 52.99 55.74C52.3146 55.3244 51.7657 54.732 51.4027 54.027C51.0396 53.322 50.8761 52.5312 50.93 51.74C50.9891 50.0544 51.504 48.4163 52.42 47C52.72 46.47 53.07 46 53.47 45.38H53.51ZM19.83 44.74C20.7564 43.4424 21.7582 42.2003 22.83 41.02C24.0637 39.9494 25.3557 38.9479 26.7 38.02L26.35 37.39C25.27 35.51 24.14 33.65 23.1 31.75C21.93 29.58 20.83 27.37 19.72 25.16C19.57 24.86 19.36 24.62 19.05 24.69C17.9542 24.7515 16.9205 25.2184 16.15 26C15.67 26.61 15.2 27.25 14.66 27.82C13.9811 28.564 13.5209 29.4811 13.33 30.47C13.18 31.15 12.98 31.82 12.8 32.47C15.16 36.55 17.16 40.83 19.79 44.74H19.83ZM37 59.83C36.54 59.61 36.18 59.41 35.8 59.27C34.1592 58.6063 32.6893 57.5808 31.5 56.27C30.7002 55.4556 30.101 54.4661 29.75 53.38C29.288 51.8957 29.1784 50.3241 29.43 48.79C29.5082 47.944 29.8353 47.1402 30.37 46.48C31.28 45.48 31.11 45.48 30.44 44.22C30.31 43.99 30.15 43.77 29.98 43.49C29.6182 43.6116 29.2642 43.7552 28.92 43.92C27.3052 44.7649 25.8145 45.8282 24.49 47.08C24.0105 47.593 23.5972 48.1641 23.26 48.78C23.0778 49.0857 22.9893 49.438 23.0053 49.7935C23.0213 50.1489 23.1411 50.4919 23.35 50.78C25.68 54.61 28.25 58.26 30.88 61.89C31.51 62.76 32.18 63.61 32.88 64.52C33.6052 62.4886 35.079 60.8109 37 59.83ZM29.54 37.07C27.6405 33.7518 26.14 30.2206 25.07 26.55C23.5 26.02 23.07 25.91 21.82 26.62C23.72 30.34 25.82 33.97 28 37.62L29.54 37.07ZM43.86 61.49H43.41C42.5389 61.5413 41.6925 61.7983 40.94 62.24C39.6498 62.7375 38.4952 63.5323 37.57 64.56C37 65.27 36.63 65.26 35.97 64.56L34.77 63.41C34.5568 63.8622 34.3698 64.3263 34.21 64.8C33.99 65.62 34.21 65.95 35.1 66.06C38.27 66.47 40.78 65.06 43 63.06C43.2762 62.7589 43.5116 62.4226 43.7 62.06C43.7763 61.8772 43.83 61.6858 43.86 61.49ZM38.36 60.25C38.15 61.14 38.15 61.13 37.28 61.25C37.0898 61.2583 36.9059 61.3208 36.75 61.43C36.31 61.78 35.9 62.17 35.43 62.59L36.63 63.7C37.9728 62.3709 39.5581 61.3117 41.3 60.58L38.36 60.25ZM34.73 44.85C34.26 44.18 33.88 43.61 33.47 43.08C33.4038 43.0031 33.3227 42.9403 33.2316 42.8956C33.1405 42.851 33.0413 42.8252 32.94 42.82C32.41 42.82 31.94 42.99 31.27 43.09L32.27 44.85H34.73Z" fill="#2A2B2C"/>
<path d="M42.58 32.36L40.68 34C40.54 34.13 40.41 34.27 40.26 34.39C40.1467 34.4898 40.001 34.5449 39.85 34.5449C39.699 34.5449 39.5532 34.4898 39.44 34.39C39.3758 34.35 39.3208 34.2969 39.2785 34.2342C39.2361 34.1715 39.2074 34.1006 39.1942 34.0262C39.181 33.9517 39.1836 33.8753 39.2018 33.8018C39.2201 33.7284 39.2535 33.6597 39.3 33.6C39.66 33.21 39.59 32.75 39.68 32.31C39.82 31.62 39.93 30.93 40.05 30.24C39.6496 29.8459 39.2691 29.432 38.91 29C38.42 28.37 38.49 28.07 39.13 27.6L39.43 27.34C39.87 26.94 40 26.93 40.49 27.23C40.65 27.33 40.81 27.42 40.97 27.5C40.97 27.5 41.08 27.5 41.22 27.5C41.44 27.03 41.68 26.5 41.93 26.03C42.0894 25.7852 42.3052 25.582 42.5592 25.4376C42.8132 25.2932 43.098 25.2118 43.39 25.2C43.5544 25.215 43.7073 25.2911 43.8184 25.4133C43.9294 25.5355 43.9907 25.6949 43.99 25.86C44.06 26.47 44.12 27.09 44.19 27.74C44.3806 27.7802 44.5753 27.7969 44.77 27.79C45.0885 27.739 45.4148 27.7722 45.7165 27.8862C46.0182 28.0002 46.2848 28.1911 46.49 28.44C46.89 28.85 46.92 29.23 46.49 29.6C46.06 29.97 45.63 30.24 45.14 30.6C45.37 31.46 45.61 32.32 45.84 33.17C45.84 33.36 45.94 33.54 45.98 33.72C46.0269 33.864 46.0204 34.0201 45.9616 34.1596C45.9028 34.2992 45.7958 34.4129 45.66 34.48C45.525 34.5447 45.3729 34.565 45.2257 34.538C45.0784 34.5111 44.9434 34.4383 44.84 34.33C44.11 33.66 43.38 33.05 42.58 32.36Z" fill="#2A2B2C"/>
<path d="M40.91 43.07C40.7612 43.0733 40.6155 43.0269 40.496 42.9381C40.3765 42.8494 40.2899 42.7234 40.25 42.58C40.2042 42.4481 40.2084 42.3039 40.2618 42.1749C40.3153 42.0458 40.4143 41.9409 40.54 41.88C40.8558 41.7183 41.1923 41.6005 41.54 41.53C43.54 41.18 45.54 40.74 47.63 40.53C50.63 40.22 53.63 40.1 56.63 39.84C57.71 39.75 58.77 39.49 59.84 39.3C60.0246 39.2561 60.2116 39.2227 60.4 39.2C60.494 39.1859 60.59 39.1917 60.6816 39.217C60.7733 39.2423 60.8586 39.2865 60.9321 39.3468C61.0056 39.4071 61.0656 39.4822 61.1083 39.5671C61.151 39.6521 61.1754 39.745 61.18 39.84C61.1883 40.033 61.1207 40.2216 60.9918 40.3655C60.8628 40.5094 60.6828 40.5971 60.49 40.61C59.96 40.68 59.43 40.77 58.9 40.83C57.33 41 55.77 41.2 54.21 41.31C50.8601 41.4496 47.5212 41.7835 44.21 42.31C43.28 42.48 42.36 42.72 41.44 42.93L40.91 43.07Z" fill="#2A2B2C"/>
<path d="M42.23 38.93C42.15 38.93 42.06 38.93 41.99 38.93C41.92 38.93 41.64 38.75 41.65 38.67C41.6585 38.5846 41.6852 38.5021 41.7284 38.4279C41.7715 38.3537 41.83 38.2897 41.9 38.24C42.0923 38.1385 42.3033 38.0773 42.52 38.06C45.73 37.57 48.94 37.06 52.17 36.6C54.4673 36.3706 56.7483 35.9999 59 35.49C59.2068 35.4324 59.4173 35.3889 59.63 35.36C59.7031 35.341 59.7794 35.3374 59.8539 35.3497C59.9285 35.3619 59.9996 35.3897 60.0628 35.4312C60.1259 35.4726 60.1797 35.5269 60.2205 35.5904C60.2614 35.654 60.2885 35.7254 60.3 35.8C60.3242 35.8723 60.3325 35.9489 60.3244 36.0246C60.3163 36.1003 60.2919 36.1734 60.253 36.2389C60.2141 36.3044 60.1615 36.3607 60.0989 36.4041C60.0363 36.4474 59.965 36.4767 59.89 36.49C59.47 36.59 59.04 36.69 58.62 36.75L51.2 37.75L42.9 38.87L42.23 38.93Z" fill="#2A2B2C"/>
<path d="M50.25 33C50.0635 33.01 49.8765 33.01 49.69 33C49.5527 32.9881 49.4243 32.9268 49.3287 32.8275C49.2331 32.7282 49.1767 32.5977 49.17 32.46C49.1407 32.3251 49.1623 32.1841 49.2306 32.0642C49.2989 31.9442 49.4091 31.8537 49.54 31.81C49.7187 31.7532 49.9032 31.7163 50.09 31.7L58.87 30.59C59.0029 30.5751 59.1371 30.5751 59.27 30.59C59.358 30.5887 59.4454 30.6047 59.5272 30.6372C59.609 30.6696 59.6836 30.7179 59.7467 30.7791C59.8099 30.8404 59.8603 30.9136 59.8952 30.9944C59.9301 31.0751 59.9487 31.162 59.95 31.25C59.9555 31.3321 59.944 31.4144 59.9163 31.4919C59.8887 31.5694 59.8453 31.6403 59.7891 31.7004C59.7328 31.7604 59.6648 31.8082 59.5892 31.8408C59.5137 31.8734 59.4323 31.8902 59.35 31.89C57.99 32.08 56.62 32.3 55.26 32.47C53.59 32.69 51.92 32.87 50.26 33.06L50.25 33Z" fill="#2A2B2C"/>
<path d="M58.07 26.92C58.71 26.92 59.13 27.4 58.87 27.92C58.7418 28.1185 58.5406 28.2585 58.31 28.31C56.71 28.54 55.1 28.73 53.49 28.93C52.98 28.99 52.49 29.08 51.95 29.12C51.8581 29.1419 51.7627 29.1438 51.67 29.1256C51.5773 29.1074 51.4896 29.0695 51.4128 29.0146C51.3361 28.9596 51.272 28.8888 51.2249 28.8069C51.1778 28.725 51.1489 28.634 51.14 28.54C51.14 28.18 51.34 27.92 51.79 27.85L57.9 26.98L58.07 26.92Z" fill="#2A2B2C"/>
</svg>
