<svg width="80" height="80" viewBox="0 0 80 80" fill="none" xmlns="http://www.w3.org/2000/svg">
<path d="M26 36.34L27.72 34.22C27.6951 34.1795 27.6648 34.1425 27.63 34.11C27.087 33.6502 26.6404 33.0873 26.316 32.454C25.9916 31.8207 25.7958 31.1294 25.74 30.42C25.5761 29.2563 25.6961 28.0701 26.0896 26.9627C26.4831 25.8553 27.1385 24.8594 28 24.06C28.4074 23.6333 28.9231 23.3251 29.4919 23.1683C30.0607 23.0116 30.6614 23.0122 31.23 23.17C31.4606 23.2201 31.6993 23.2201 31.93 23.17C32.241 23.1428 32.5542 23.1802 32.85 23.28C34.2263 23.707 35.4972 24.4191 36.58 25.37C37.1306 25.7972 37.5718 26.3491 37.8673 26.9802C38.1629 27.6113 38.3043 28.3036 38.28 29C38.2816 29.5416 38.2482 30.0827 38.18 30.62C38.1494 30.7661 38.1669 30.9181 38.23 31.0533C38.2932 31.1885 38.3984 31.2997 38.53 31.37C38.7516 31.5025 38.9822 31.6195 39.22 31.72L40.32 32.15C40.9279 32.383 41.4898 32.7216 41.98 33.15C42.21 33.34 42.46 33.49 42.66 33.63L44.55 32.14C44.49 31.79 44.39 31.41 44.35 31.03C44.2721 30.0485 44.4369 29.0628 44.83 28.16C44.9887 27.7837 45.1864 27.4251 45.42 27.09C46.74 25.15 47.85 23.75 49.52 23.44C50.3581 23.2622 51.2205 23.2284 52.07 23.34C52.4824 23.3753 52.877 23.5241 53.21 23.77C53.2767 23.8344 53.3597 23.8793 53.45 23.9C54.0862 24.0567 54.6703 24.3773 55.144 24.83C55.6177 25.2827 55.9646 25.8516 56.15 26.48C56.8773 28.6017 56.7918 30.9178 55.91 32.98V33.09C56.22 33.47 56.54 33.8 56.8 34.18C57.06 34.56 57.24 34.99 57.44 35.35L58.44 35.27C58.7093 35.2666 58.9747 35.3352 59.2085 35.4689C59.4424 35.6025 59.6362 35.7962 59.77 36.03C60.0438 36.3833 60.2944 36.7541 60.52 37.14C60.8476 37.839 60.9321 38.6275 60.76 39.38C60.7021 39.9294 60.5232 40.4592 60.2362 40.9312C59.9492 41.4032 59.5611 41.8058 59.1 42.11L58.92 42.24C58.8564 42.6739 58.9373 43.1166 59.15 43.5C59.4502 43.9321 59.6454 44.4283 59.7201 44.9491C59.7947 45.4699 59.7467 46.001 59.58 46.5C59.0069 48.4739 58.7471 50.5256 58.81 52.58C58.81 52.98 58.72 53.39 58.67 53.8C58.6479 53.9364 58.5926 54.0653 58.5089 54.1751C58.4252 54.285 58.3156 54.3726 58.19 54.43C57.93 54.54 57.68 54.66 57.44 54.78C57.44 56.06 57.6 57.33 56.31 58.14C56.5606 58.3499 56.7609 58.6134 56.8959 58.9112C57.0309 59.2089 57.0973 59.5332 57.09 59.86C57.0216 60.5124 56.9148 61.1602 56.77 61.8C57.28 62.08 57.77 62.41 58.37 62.7C58.97 62.99 58.87 63.06 58.65 63.52C58.6084 63.6568 58.5816 63.7976 58.57 63.94C58.546 64.2796 58.4822 64.6153 58.38 64.94C58.0731 65.6989 57.6982 66.4286 57.26 67.12C55.7626 69.1989 54.1255 71.1734 52.36 73.03C52.2262 73.1815 52.1242 73.3584 52.06 73.55C52.0445 73.6623 51.9965 73.7676 51.9219 73.8529C51.8472 73.9382 51.7492 73.9998 51.64 74.03C51.3161 74.142 50.9639 74.142 50.64 74.03L48.29 73.33C48.2092 73.3071 48.1318 73.2735 48.06 73.23C47.06 72.74 46.06 72.29 45.16 71.74C44.26 71.19 43.6 70.65 42.81 70.13C41.9651 69.531 41.2108 68.8137 40.57 68C40.48 67.9 40.41 67.79 40.3 67.66C40 67.79 39.68 67.9 39.39 68.06C37.39 69.14 35.27 69.96 33.18 70.86C32.18 71.3 31.08 71.72 30.03 72.14C29.8585 72.2116 29.6812 72.2685 29.5 72.31C29.176 72.4029 28.8324 72.4025 28.5086 72.3087C28.1849 72.215 27.8942 72.0317 27.67 71.78C27.62 71.72 27.56 71.67 27.52 71.61C26.7 70.22 25.52 69.14 24.57 67.82C23.631 66.5536 22.9141 65.1367 22.45 63.63C22.3501 63.2295 22.3501 62.8105 22.45 62.41C22.472 62.1718 22.553 61.9429 22.6857 61.7438C22.8184 61.5448 22.9986 61.382 23.21 61.27C23.53 61.15 23.58 60.72 23.99 60.69C24.33 60.6269 24.6644 60.5366 24.99 60.42C24.943 60.3135 24.8896 60.21 24.83 60.11C24.6513 59.8344 24.54 59.5206 24.5053 59.1939C24.4705 58.8673 24.5132 58.5371 24.63 58.23C24.766 57.9409 24.9409 57.6717 25.15 57.43C24.7817 57.1273 24.5085 56.7248 24.363 56.2708C24.2176 55.8167 24.2061 55.3304 24.33 54.87L24.03 54.77C23.52 54.61 23.53 54.6 23.53 54.02C23.5158 53.7414 23.4824 53.4641 23.43 53.19C23.0451 50.6455 22.9545 48.0652 23.16 45.5C23.21 44.82 23.33 44.14 23.43 43.42L22.77 42.85C22.0715 42.245 21.6372 41.3909 21.56 40.47C21.5143 40.0653 21.5729 39.6557 21.73 39.28C22.183 38.4688 22.677 37.6811 23.21 36.92C23.4147 36.7029 23.6506 36.5175 23.91 36.37C23.96 36.37 24.07 36.37 24.11 36.28C24.48 35.8 24.91 35.95 25.36 36.13C25.55 36.19 25.8 36.26 26 36.34ZM43 50.27L33.72 35.48C31.996 35.5495 30.2732 35.3159 28.63 34.79C27.8862 35.3648 27.2727 36.0908 26.83 36.92C27.5331 37.7059 28.0523 38.6384 28.35 39.65C28.5655 40.195 28.6281 40.7885 28.5312 41.3665C28.4343 41.9445 28.1815 42.4851 27.8 42.93C27.4688 43.3336 27.0329 43.6381 26.54 43.81C25.9121 43.9447 25.2651 43.965 24.63 43.87C24.51 43.87 24.38 43.87 24.22 43.87C23.7234 47.1912 23.7944 50.5726 24.43 53.87C25.931 54.7003 27.6773 54.973 29.36 54.64C29.31 54.16 29.24 53.72 29.23 53.28C29.1931 50.6708 29.3267 48.0619 29.63 45.47C29.7888 44.0031 30.1419 42.5639 30.68 41.19C30.7115 41.0663 30.7621 40.9482 30.83 40.84C30.8707 40.797 30.9207 40.7639 30.9761 40.7431C31.0316 40.7223 31.091 40.7144 31.15 40.72C31.24 40.72 31.31 40.91 31.33 41.02C31.3198 41.1294 31.2856 41.2353 31.23 41.33C30.7355 42.7586 30.4459 44.2501 30.37 45.76C30.23 47.76 30.16 49.67 30.1 51.63C30.1 52.41 30.17 53.19 30.2 53.97C30.195 54.0964 30.2217 54.2221 30.2775 54.3356C30.3334 54.4491 30.4168 54.5469 30.52 54.62C30.79 54.81 30.73 55.12 30.45 55.32C30.3471 55.3777 30.2401 55.4278 30.13 55.47L30.38 55.79L30.91 55.56C31.2741 55.4311 31.6688 55.4156 32.0419 55.5155C32.4151 55.6155 32.7491 55.8263 33 56.12C33.19 56.34 33.37 56.58 33.57 56.83L36.51 55.63C36.45 55.17 36.41 54.79 36.35 54.41C36.0183 52.6517 35.7912 50.8752 35.67 49.09C35.5194 46.2166 35.6904 43.3354 36.18 40.5C36.26 40.05 36.68 39.89 36.87 39.5C36.87 39.44 37.17 39.44 37.28 39.5C37.9757 39.7678 38.7067 39.9329 39.45 39.99C39.66 39.99 39.88 39.99 40.1 40.06C40.41 39.06 40.69 38.06 41.01 37.14C41.2619 36.2039 41.6784 35.3202 42.24 34.53C41 33.18 39.36 32.77 37.79 32C37.73 32.29 37.79 32.35 37.05 33.24C36.31 34.13 36.93 33.78 35.33 34.9L43 50.27ZM32.84 34.63C33.15 34.63 33.47 34.63 33.79 34.63C34.3934 34.6333 34.9757 34.4082 35.42 34C36.337 33.1907 36.9683 32.107 37.22 30.91C37.3222 30.2784 37.3757 29.6398 37.38 29C37.3998 28.4413 37.2847 27.8861 37.0445 27.3813C36.8043 26.8765 36.446 26.437 36 26.1C35.022 25.2332 33.8743 24.5793 32.63 24.18C32.4151 24.0785 32.1758 24.0404 31.94 24.07C31.6416 24.1706 31.3184 24.1706 31.02 24.07C30.5892 23.9389 30.13 23.9332 29.6961 24.0537C29.2622 24.1741 28.8716 24.4156 28.57 24.75C27.8288 25.4643 27.2681 26.3446 26.9343 27.3183C26.6004 28.2921 26.503 29.3312 26.65 30.35C26.7258 31.383 27.1549 32.3584 27.8651 33.1123C28.5753 33.8662 29.5234 34.3527 30.55 34.49C31.31 34.6 32.08 34.6 32.84 34.66V34.63ZM52.16 24.3C51.4835 24.106 50.7707 24.0751 50.08 24.21C49.4485 24.293 48.8492 24.5375 48.34 24.92C46.9596 25.9754 45.9453 27.4375 45.44 29.1C45.26 29.639 45.1893 30.2086 45.2323 30.7752C45.2752 31.3419 45.4308 31.8943 45.69 32.4C46.2888 33.5257 47.246 34.4196 48.41 34.94C49.0486 35.2919 49.7658 35.4765 50.495 35.4765C51.2241 35.4765 51.9414 35.2919 52.58 34.94C53.7205 34.4406 54.6383 33.5405 55.16 32.41C55.7411 30.9885 55.9008 29.4298 55.62 27.92C55.5334 26.9994 55.1306 26.1371 54.48 25.48L52.16 24.3ZM55.66 67.8C56.4579 66.8769 57.0874 65.8209 57.52 64.68C57.5922 64.3753 57.6291 64.0632 57.63 63.75C57.6421 63.6298 57.6157 63.5088 57.5546 63.4046C57.4935 63.3003 57.4008 63.2182 57.29 63.17C56.29 62.61 55.37 61.98 54.38 61.47C52.8241 60.6741 51.321 59.7789 49.88 58.79C49.1873 58.4202 48.5192 58.006 47.88 57.55C47.5395 57.2344 47.1824 56.9373 46.81 56.66C46.69 56.57 46.54 56.42 46.44 56.44C45.9198 56.4387 45.4087 56.5768 44.96 56.84C44.31 57.39 43.6 57.84 42.96 58.4C42.64 58.65 42.35 58.94 42.01 59.23C42.5864 59.7597 43.2283 60.2134 43.92 60.58L44.42 60.18C44.556 60.0626 44.7158 59.976 44.8883 59.9259C45.0609 59.8759 45.2422 59.8636 45.42 59.89C45.5481 59.9184 45.6681 59.9758 45.7706 60.0578C45.8732 60.1397 45.9556 60.2441 46.0116 60.3628C46.0675 60.4815 46.0956 60.6115 46.0936 60.7428C46.0916 60.874 46.0596 61.0031 46 61.12C45.88 61.39 45.73 61.66 45.58 61.94C47.1439 63.2254 48.7871 64.411 50.5 65.49C51.08 64.84 51.63 64.39 52.56 64.78C52.7558 64.8598 52.9212 64.9995 53.0326 65.1792C53.144 65.3589 53.1956 65.5692 53.18 65.78C53.18 66.15 53.18 66.51 53.18 66.88L55.66 67.8ZM41.37 60.87C41.63 61.48 41.86 62.08 42.14 62.67C42.4974 63.4716 42.701 64.3332 42.74 65.21C42.8112 65.5523 42.7562 65.9089 42.5853 66.2139C42.4145 66.5189 42.1391 66.752 41.81 66.87C41.5121 67.0044 41.2217 67.1546 40.94 67.32C41.5935 68.0666 42.3131 68.7527 43.09 69.37C43.74 69.8 44.36 70.29 45.03 70.68C46.14 71.32 47.28 71.9 48.41 72.51H48.47L50.66 73.16L51.01 73.22C51.15 73.03 51.27 72.86 51.4 72.7L54.48 69.24C54.563 69.1262 54.6366 69.0058 54.7 68.88L52.63 67.78C52.4761 67.9245 52.3123 68.0581 52.14 68.18C51.5282 68.6482 50.7692 68.8823 50 68.84C49.32 68.76 49.08 68.41 49.27 67.76C49.3791 67.4175 49.5128 67.0833 49.67 66.76C49.76 66.58 49.87 66.41 49.96 66.23L45 62.7L44.63 63.01C44.4368 63.1582 44.2329 63.2919 44.02 63.41C43.8735 63.5129 43.6989 63.5681 43.52 63.5681C43.341 63.5681 43.1664 63.5129 43.02 63.41C42.8675 63.2988 42.7543 63.142 42.6968 62.9622C42.6393 62.7825 42.6404 62.5891 42.7 62.41C42.7671 62.1569 42.8541 61.9095 42.96 61.67C43.0306 61.5216 43.1107 61.378 43.2 61.24L41.74 60.24L41.37 60.87ZM40.78 59.19C41.19 59.04 41.13 58.8 41.05 58.54C40.64 57.04 40.23 55.54 39.94 54C39.6119 52.1851 39.4479 50.3443 39.45 48.5C39.45 47.68 39.45 46.86 39.45 46.04C39.4704 45.8928 39.4371 45.7431 39.3564 45.6182C39.2756 45.4934 39.1527 45.4018 39.01 45.36C38.7232 45.2333 38.4458 45.0862 38.18 44.92C37.68 44.61 37.18 44.29 36.65 43.92C36.65 44.66 36.55 45.36 36.52 46.06C36.4661 48.5025 36.6537 50.9444 37.08 53.35C37.0829 53.4594 37.1215 53.5647 37.19 53.65C37.2788 53.7471 37.3433 53.864 37.378 53.9909C37.4128 54.1178 37.4169 54.2512 37.39 54.38C37.39 54.65 37.39 54.92 37.3 55.28C37.68 55.15 38.03 55.06 38.36 54.91C38.4748 54.8452 38.6095 54.8247 38.7384 54.8524C38.8674 54.88 38.9817 54.9539 39.06 55.06C39.4305 55.4747 39.7464 55.9351 40 56.43C40.4155 57.2988 40.6793 58.2323 40.78 59.19ZM25.4 43C25.8232 43.0736 26.2589 42.9917 26.6264 42.7693C26.994 42.5469 27.2688 42.1991 27.4 41.79C27.6656 41.0766 27.6441 40.2879 27.34 39.59C27.13 39.1 26.89 38.59 26.67 38.14C26.61 38.01 26.5 37.82 26.39 37.8C26 37.73 25.83 37.4 25.56 37.19C25.4489 37.0823 25.3142 37.0019 25.1667 36.955C25.0193 36.9082 24.8629 36.8962 24.71 36.92C24.2843 37.0065 23.9083 37.2536 23.66 37.61C23.29 38.19 22.92 38.77 22.57 39.36C22.4503 39.5708 22.3768 39.8047 22.3544 40.046C22.332 40.2874 22.3612 40.5308 22.44 40.76C22.6481 41.3894 23.0427 41.9407 23.5713 42.3407C24.1 42.7408 24.7377 42.9707 25.4 43ZM37.1 62L38.18 61.51C38.37 61.42 38.56 61.34 38.74 61.24C38.8405 61.1867 38.9165 61.0965 38.9519 60.9883C38.9873 60.8802 38.9795 60.7625 38.93 60.66C38.9064 60.6088 38.8728 60.5628 38.8312 60.5249C38.7895 60.4869 38.7406 60.4578 38.6874 60.4391C38.6342 60.4204 38.5778 60.4127 38.5216 60.4163C38.4653 60.4199 38.4104 60.4347 38.36 60.46C38.22 60.46 38.09 60.6 37.96 60.66L36.72 61.21L36.61 61.07C36.22 60.45 36.22 60.45 35.53 60.69C35.46 60.69 35.38 60.69 35.31 60.69C35.2317 60.7059 35.1576 60.7381 35.0926 60.7845C35.0276 60.8309 34.973 60.8905 34.9325 60.9593C34.8919 61.0281 34.8663 61.1047 34.8573 61.1841C34.8482 61.2634 34.856 61.3438 34.88 61.42C34.88 61.61 34.98 61.8 35.05 62.02C33.2198 62.9753 31.3049 63.7587 29.33 64.36L28.77 63.75C28.6947 63.6648 28.5899 63.6112 28.4768 63.6001C28.3636 63.589 28.2504 63.6211 28.16 63.69C27.59 64.04 27.52 64.23 27.78 64.89C27.78 64.95 27.78 65.02 27.84 65.15L26.19 65.71C25.9 65.8 25.75 66 25.8 66.23C25.8151 66.2895 25.8419 66.3454 25.8789 66.3944C25.9159 66.4433 25.9623 66.4844 26.0154 66.5152C26.0685 66.5459 26.1273 66.5657 26.1882 66.5734C26.2491 66.5811 26.3109 66.5766 26.37 66.56C26.642 66.5033 26.9094 66.4264 27.17 66.33L28.3 65.87C28.4637 66.1225 28.6407 66.3661 28.83 66.6C28.9376 66.7456 29.0879 66.8539 29.26 66.91C29.79 67.03 30.12 66.64 29.95 66.11C29.87 65.82 29.76 65.53 29.64 65.19C31.6449 64.5487 33.5946 63.746 35.47 62.79L35.6 63.01C35.7698 63.2747 35.9604 63.5255 36.17 63.76C36.2623 63.8561 36.3827 63.9204 36.5138 63.9438C36.645 63.9671 36.7802 63.9483 36.9 63.89C37.01 63.8353 37.0989 63.746 37.1531 63.6357C37.2073 63.5255 37.2238 63.4005 37.2 63.28C37.17 62.91 37.14 62.5 37.1 62ZM59.93 38.65C59.9315 38.3543 59.8842 38.0604 59.79 37.78C59.5585 37.3172 59.2768 36.8812 58.95 36.48C58.7603 36.3061 58.524 36.1914 58.27 36.15C58.14 36.15 57.87 36.21 57.84 36.3C57.72 36.65 57.4 36.77 57.15 36.9C56.7779 37.0746 56.4801 37.3759 56.31 37.75C55.9364 38.6096 55.8832 39.5746 56.16 40.47C56.2744 40.766 56.4441 41.0375 56.66 41.27C56.8216 41.423 57.0141 41.5396 57.2245 41.6121C57.4349 41.6845 57.6584 41.7111 57.88 41.69C58.2243 41.6325 58.5404 41.4639 58.78 41.21C59.1553 40.9002 59.4543 40.5082 59.6537 40.0642C59.8531 39.6203 59.9477 39.1364 59.93 38.65ZM36.69 43.08C36.9439 43.1402 37.1916 43.2239 37.43 43.33C37.98 43.67 38.51 44.05 39.06 44.39C39.1839 44.4546 39.3147 44.5049 39.45 44.54L39.83 41L37.08 40.52L36.69 43.08ZM56.53 55.18C56.14 55.24 55.81 55.32 55.48 55.34C54.72 55.3867 53.96 55.4167 53.2 55.43C53.0821 55.4245 52.9654 55.455 52.8653 55.5175C52.7652 55.5801 52.6866 55.6716 52.64 55.78C52.5348 55.9687 52.4779 56.1805 52.4743 56.3966C52.4708 56.6126 52.5207 56.8261 52.6197 57.0182C52.7187 57.2102 52.8637 57.3748 53.0417 57.4973C53.2197 57.6197 53.4252 57.6962 53.64 57.72C54.0792 57.805 54.5307 57.805 54.97 57.72C55.1988 57.7012 55.4216 57.6372 55.6256 57.5318C55.8296 57.4264 56.0107 57.2817 56.1585 57.1061C56.3063 56.9304 56.4178 56.7272 56.4868 56.5082C56.5557 56.2892 56.5806 56.0587 56.56 55.83C56.52 55.64 56.53 55.44 56.53 55.18ZM25.1 55.18C25.0551 55.3942 25.0626 55.616 25.1218 55.8267C25.181 56.0373 25.2902 56.2306 25.44 56.39C25.6791 56.6524 25.9437 56.8902 26.23 57.1C26.5519 57.3358 26.9175 57.505 27.3056 57.5977C27.6936 57.6904 28.0963 57.7048 28.49 57.64C29.18 57.51 29.43 57.26 29.49 56.64C29.49 56.29 29.49 55.94 29.49 55.64C28.7572 55.6803 28.0228 55.6803 27.29 55.64C26.55 55.54 25.85 55.34 25.1 55.19V55.18ZM50.2 57.87C51.4726 58.9989 52.949 59.8746 54.55 60.45C54.95 59.88 54.95 59.62 54.55 58.69H53.84C53.2473 58.6581 52.6862 58.4131 52.26 58C51.8551 57.6945 51.3568 57.539 50.85 57.56C50.7217 57.5369 50.5893 57.5555 50.4723 57.6131C50.3553 57.6707 50.2599 57.7642 50.2 57.88V57.87ZM27 59.53C28.3635 59.0108 29.6987 58.42 31 57.76C30.499 57.7582 30.0099 57.912 29.6 58.2C29.436 58.3315 29.2386 58.4146 29.03 58.44C28.5228 58.5098 28.0119 58.5499 27.5 58.56C27.22 58.56 26.97 58.56 26.81 58.81C26.65 59.06 26.79 59.27 27 59.53Z" fill="#2A2B2C"/>
<path d="M43.15 25.5C43.1965 25.5052 43.2435 25.5052 43.29 25.5C43.69 25.59 43.83 25.7 43.81 25.95C43.79 26.2 43.59 26.4 43.3 26.45L42.84 26.58C42.73 26.84 42.71 27.23 42.28 27.19C41.85 27.15 41.89 26.8 41.84 26.47C41.69 26.47 41.54 26.47 41.4 26.47C40.94 26.47 40.78 26.12 41.03 25.75C41.28 25.38 41.29 25.32 40.86 25.08C40.43 24.84 40.45 24.52 40.86 24.29C40.9542 24.2462 41.0332 24.1752 41.0867 24.086C41.1401 23.9969 41.1657 23.8938 41.16 23.79C40.9286 23.6525 40.7422 23.4508 40.6232 23.2094C40.5043 22.968 40.458 22.6972 40.49 22.43C40.49 22.04 40.49 21.65 40.49 21.26V20.64C40.3786 20.6032 40.265 20.5731 40.15 20.55C37.84 20.26 36.86 18.55 37.15 16.41C37.2192 15.7932 37.4659 15.2096 37.86 14.73C38.3867 14.0296 39.0722 13.4641 39.86 13.08C40.546 12.7306 41.3153 12.5774 42.0829 12.6374C42.8504 12.6974 43.5865 12.9682 44.21 13.42C44.8123 13.8293 45.3129 14.371 45.6734 15.0037C46.034 15.6364 46.2449 16.3432 46.29 17.07C46.32 17.4227 46.32 17.7773 46.29 18.13C46.285 18.729 46.088 19.3106 45.7281 19.7894C45.3681 20.2682 44.864 20.6189 44.29 20.79L43.93 20.93C43.93 20.93 43.93 20.93 43.87 20.99C43.8 21.99 44.06 23.05 43.06 23.75C43.06 23.96 43.06 24.09 43.32 24.11C43.4486 24.1146 43.5762 24.1347 43.7 24.17C43.7934 24.1913 43.876 24.2454 43.9329 24.3225C43.9898 24.3996 44.0172 24.4945 44.01 24.59C44.0104 24.6844 43.9791 24.7761 43.9211 24.8505C43.863 24.9249 43.7816 24.9776 43.69 25C43.5802 25.0104 43.4697 25.0104 43.36 25C43.12 25.11 43.07 25.26 43.15 25.5ZM41.38 21.5C41.38 21.87 41.38 22.24 41.38 22.61C41.3881 22.6827 41.4109 22.753 41.447 22.8166C41.4831 22.8802 41.5317 22.9358 41.59 22.98C41.7184 23.0464 41.8606 23.0819 42.0051 23.0837C42.1497 23.0855 42.2926 23.0536 42.4227 22.9905C42.5528 22.9274 42.6664 22.8349 42.7544 22.7202C42.8425 22.6056 42.9026 22.472 42.93 22.33C42.9651 21.9408 42.9651 21.5492 42.93 21.16C42.87 20.38 42.93 20.31 43.68 20.06L44 20C44.327 19.9095 44.6208 19.7263 44.8462 19.4726C45.0715 19.2189 45.2187 18.9054 45.27 18.57C45.4298 17.8854 45.4156 17.1716 45.2287 16.4939C45.0418 15.8161 44.6881 15.196 44.2 14.69C43.8064 14.2057 43.2716 13.8561 42.67 13.69C42.0349 13.5275 41.3682 13.5343 40.7366 13.7097C40.1049 13.8852 39.5303 14.2232 39.07 14.69C38.6618 15.0219 38.348 15.4554 38.1602 15.9468C37.9724 16.4383 37.9171 16.9705 38 17.49C38.0165 17.9113 38.156 18.3185 38.4013 18.6615C38.6465 19.0044 38.9867 19.2681 39.38 19.42C39.8066 19.5525 40.2407 19.6594 40.68 19.74C41.18 19.84 41.36 19.99 41.4 20.5C41.4 20.83 41.38 21.17 41.38 21.5Z" fill="#2A2B2C"/>
<path d="M35 16.3C34.127 16.191 33.3005 15.8452 32.61 15.3C32.5578 15.2678 32.5129 15.2251 32.4782 15.1746C32.4435 15.124 32.4197 15.0668 32.4084 15.0065C32.3971 14.9463 32.3985 14.8843 32.4126 14.8246C32.4266 14.765 32.453 14.7089 32.49 14.66C32.64 14.46 32.85 14.43 33.13 14.6C33.7279 15.0176 34.411 15.2977 35.13 15.42C35.47 15.47 35.61 15.69 35.56 15.95C35.51 16.21 35.29 16.3 35 16.3Z" fill="#2A2B2C"/>
<path d="M34.27 10.34C34.53 10.34 34.59 10.56 34.63 10.8C34.6912 11.1998 34.8326 11.583 35.0457 11.9267C35.2588 12.2704 35.5392 12.5674 35.87 12.8C35.9177 12.8312 35.9614 12.8681 36 12.91C36.0332 12.9426 36.0597 12.9815 36.0777 13.0244C36.0957 13.0674 36.105 13.1135 36.105 13.16C36.105 13.2066 36.0957 13.2527 36.0777 13.2956C36.0597 13.3385 36.0332 13.3774 36 13.41C35.9725 13.4472 35.9378 13.4783 35.8979 13.5016C35.858 13.5249 35.8137 13.5398 35.7679 13.5454C35.722 13.551 35.6755 13.5472 35.6312 13.5343C35.5868 13.5213 35.5456 13.4995 35.51 13.47C35.0392 13.1831 34.6416 12.7908 34.3483 12.324C34.055 11.8572 33.8742 11.3286 33.82 10.78C33.8089 10.7189 33.813 10.656 33.8319 10.5969C33.8507 10.5377 33.8838 10.4841 33.9282 10.4406C33.9726 10.3972 34.027 10.3653 34.0866 10.3478C34.1462 10.3303 34.2091 10.3276 34.27 10.34Z" fill="#2A2B2C"/>
<path d="M43.78 10C43.8163 9.3642 44.0706 8.76031 44.5 8.29002C44.74 8.03002 44.96 7.99002 45.17 8.17002C45.2164 8.20945 45.2536 8.25849 45.2792 8.31375C45.3047 8.369 45.318 8.42915 45.318 8.49002C45.318 8.5509 45.3047 8.61105 45.2792 8.6663C45.2536 8.72156 45.2164 8.7706 45.17 8.81003C44.8438 9.21711 44.6579 9.71869 44.64 10.24C44.64 10.64 44.46 10.83 44.19 10.82C43.92 10.81 43.77 10.56 43.78 10Z" fill="#2A2B2C"/>
<path d="M51.51 13.23C51.51 13.29 51.38 13.46 51.25 13.52C50.64 13.81 50.03 14.08 49.41 14.33C49.3052 14.3778 49.1858 14.3819 49.078 14.3416C48.9701 14.3013 48.8827 14.2198 48.835 14.115C48.7872 14.0103 48.7831 13.8908 48.8234 13.783C48.8637 13.6752 48.9452 13.5878 49.05 13.54C49.68 13.25 50.31 12.97 50.95 12.72C51.26 12.6 51.53 12.82 51.51 13.23Z" fill="#2A2B2C"/>
<path d="M39.66 7.90997C39.767 7.92269 39.8666 7.97103 39.9428 8.04721C40.019 8.12339 40.0673 8.22299 40.08 8.32997C40.18 8.77997 40.31 9.21997 40.45 9.65997C40.59 10.1 40.51 10.21 40.28 10.33C40.05 10.45 39.8 10.33 39.64 10.04C39.3569 9.55754 39.2052 9.00932 39.2 8.44997C39.21 8.10997 39.38 7.90997 39.66 7.90997Z" fill="#2A2B2C"/>
<path d="M46.92 12C46.8384 12.0059 46.7569 11.9884 46.6849 11.9496C46.613 11.9108 46.5536 11.8522 46.5137 11.7809C46.4738 11.7095 46.4551 11.6282 46.4597 11.5466C46.4644 11.465 46.4922 11.3864 46.54 11.32C46.9029 10.9256 47.2939 10.5579 47.71 10.22C47.87 10.08 48.06 10.15 48.21 10.29C48.36 10.43 48.42 10.64 48.28 10.79C47.9 11.19 47.49 11.57 47.09 11.94C47 12 47 12 46.92 12Z" fill="#2A2B2C"/>
<path d="M51.28 16.71C51.39 16.71 51.53 16.71 51.6 16.71C51.7276 16.8032 51.8194 16.9373 51.86 17.09C51.8743 17.1841 51.8509 17.2801 51.7946 17.3569C51.7384 17.4338 51.654 17.4852 51.56 17.5L50.39 17.83C50.2838 17.869 50.1666 17.8647 50.0637 17.8179C49.9607 17.7711 49.8804 17.6856 49.84 17.58C49.8146 17.5254 49.8015 17.4659 49.8018 17.4057C49.802 17.3455 49.8155 17.2861 49.8412 17.2316C49.867 17.1772 49.9044 17.1292 49.9509 17.0909C49.9973 17.0525 50.0516 17.0249 50.11 17.01C50.48 16.85 50.88 16.75 51.26 16.62L51.28 16.71Z" fill="#2A2B2C"/>
<path d="M35.13 19.09C35.47 19.09 35.63 19.19 35.7 19.41C35.7374 19.4964 35.7394 19.5939 35.7058 19.6817C35.6721 19.7695 35.6055 19.8407 35.52 19.88C35.2015 20.0427 34.8662 20.1701 34.52 20.26C34.39 20.26 34.17 20.14 34.09 20.01C34.0624 19.9669 34.0443 19.9184 34.0369 19.8677C34.0295 19.817 34.033 19.7653 34.0472 19.7161C34.0614 19.6668 34.086 19.6212 34.1192 19.5822C34.1525 19.5433 34.1936 19.5118 34.24 19.49C34.5294 19.3411 34.8265 19.2075 35.13 19.09Z" fill="#2A2B2C"/>
<path d="M33.62 32C33.5398 32.1352 33.4385 32.2567 33.32 32.36C33.2776 32.3818 33.2312 32.3946 33.1836 32.3978C33.136 32.401 33.0883 32.3945 33.0433 32.3785C32.9984 32.3626 32.9572 32.3377 32.9222 32.3053C32.8872 32.2728 32.8593 32.2336 32.84 32.19C32.72 32.01 31.57 30.69 31.44 30.51C31.14 30.09 30.8 29.69 30.44 29.29C30.3477 29.195 30.2609 29.0949 30.18 28.99C30.1401 28.9509 30.1084 28.9042 30.0868 28.8527C30.0651 28.8012 30.054 28.7459 30.054 28.69C30.054 28.6341 30.0651 28.5788 30.0868 28.5273C30.1084 28.4758 30.1401 28.4291 30.18 28.39C30.2184 28.3488 30.2648 28.316 30.3164 28.2935C30.368 28.2711 30.4237 28.2595 30.48 28.2595C30.5363 28.2595 30.592 28.2711 30.6436 28.2935C30.6952 28.316 30.7417 28.3488 30.78 28.39C31.7744 29.3275 32.66 30.3741 33.42 31.51C33.4991 31.668 33.566 31.8318 33.62 32Z" fill="#2A2B2C"/>
<path d="M35.16 30.42C35.081 30.5531 34.9795 30.6715 34.86 30.77C34.7766 30.8124 34.6806 30.8226 34.5901 30.7986C34.4997 30.7747 34.4213 30.7182 34.37 30.64L34.31 30.55C33.6532 29.4877 32.856 28.519 31.94 27.67C31.8974 27.6325 31.8633 27.5863 31.84 27.5346C31.8166 27.4828 31.8046 27.4267 31.8046 27.37C31.8046 27.3132 31.8166 27.2571 31.84 27.2054C31.8633 27.1537 31.8974 27.1075 31.94 27.07C31.9784 27.0288 32.0248 26.996 32.0764 26.9735C32.128 26.951 32.1837 26.9395 32.24 26.9395C32.2963 26.9395 32.352 26.951 32.4036 26.9735C32.4552 26.996 32.5016 27.0288 32.54 27.07C33.5647 27.967 34.4332 29.0282 35.11 30.21C35.1301 30.2791 35.1468 30.3492 35.16 30.42Z" fill="#2A2B2C"/>
<path d="M47.47 30.17C47.5033 30.0129 47.5501 29.859 47.61 29.71C48.0084 28.7439 48.6045 27.8719 49.36 27.15C49.4471 27.0561 49.5526 26.9812 49.67 26.93C49.712 26.9073 49.758 26.8932 49.8054 26.8885C49.8529 26.8838 49.9008 26.8886 49.9464 26.9025C49.992 26.9165 50.0343 26.9394 50.071 26.9698C50.1077 27.0003 50.1379 27.0377 50.16 27.08C50.2056 27.2299 50.2056 27.39 50.16 27.54C50.16 27.65 50 27.74 49.91 27.83C49.1842 28.533 48.6329 29.3959 48.3 30.35C48.2526 30.4885 48.1657 30.6102 48.05 30.7C47.78 30.88 47.46 30.64 47.47 30.17Z" fill="#2A2B2C"/>
<path d="M49.36 31.86C49.43 31.65 49.51 31.31 49.64 31C50.1204 29.8781 50.8446 28.8772 51.76 28.07C51.8387 27.9893 51.9298 27.9217 52.03 27.87C52.0784 27.8442 52.1315 27.8285 52.1861 27.8236C52.2408 27.8187 52.2958 27.8248 52.348 27.8416C52.4002 27.8584 52.4486 27.8855 52.4901 27.9213C52.5317 27.9571 52.5656 28.0009 52.59 28.05C52.6624 28.1505 52.7014 28.2712 52.7014 28.395C52.7014 28.5188 52.6624 28.6395 52.59 28.74C52.4791 28.8875 52.3516 29.0217 52.21 29.14C51.2866 29.9632 50.6288 31.0422 50.32 32.24C50.25 32.57 50.06 32.75 49.76 32.7C49.46 32.65 49.34 32.37 49.36 31.86Z" fill="#2A2B2C"/>
<path d="M40.93 16.23C41.0431 16.1292 41.1754 16.0521 41.3189 16.0034C41.4624 15.9547 41.6143 15.9354 41.7654 15.9466C41.9166 15.9578 42.0639 15.9993 42.1987 16.0686C42.3335 16.1379 42.453 16.2336 42.55 16.35C42.8067 16.2769 43.0785 16.2756 43.3359 16.3462C43.5933 16.4168 43.8264 16.5566 44.0099 16.7504C44.1934 16.9442 44.3202 17.1846 44.3767 17.4455C44.4331 17.7063 44.417 17.9777 44.33 18.23C44.3176 18.314 44.2732 18.39 44.2062 18.4422C44.1391 18.4944 44.0545 18.5186 43.97 18.51C43.885 18.505 43.805 18.4684 43.7458 18.4073C43.6865 18.3462 43.6524 18.2651 43.65 18.18C43.6213 17.9046 43.5779 17.6308 43.52 17.36C43.5103 17.2935 43.4861 17.23 43.4492 17.1738C43.4123 17.1177 43.3635 17.0703 43.3063 17.0351C43.2491 16.9998 43.1849 16.9775 43.1181 16.9697C43.0514 16.9619 42.9838 16.9688 42.92 16.99C42.92 17.16 42.92 17.3 42.92 17.44C42.9094 17.6439 42.8725 17.8456 42.81 18.04C42.7676 18.104 42.7115 18.1579 42.6458 18.1976C42.5801 18.2374 42.5064 18.2621 42.43 18.27C42.3552 18.2488 42.2868 18.2094 42.2309 18.1553C42.1751 18.1012 42.1335 18.0341 42.11 17.96C42.075 17.6477 42.075 17.3324 42.11 17.02C42.16 16.58 41.85 16.31 41.44 16.46C41.23 16.54 41.15 16.66 41.24 16.89C41.3331 17.1542 41.4067 17.425 41.46 17.7C41.4948 17.8446 41.4948 17.9954 41.46 18.14C41.4551 18.2032 41.4288 18.2629 41.3856 18.3093C41.3423 18.3556 41.2846 18.3859 41.2219 18.3952C41.1592 18.4045 41.0951 18.3922 41.0403 18.3604C40.9855 18.3286 40.943 18.2791 40.92 18.22C40.7935 17.9574 40.7059 17.6778 40.66 17.39C40.645 17.2237 40.645 17.0563 40.66 16.89C40.66 16.66 40.57 16.49 40.32 16.46C40.2548 16.4517 40.1886 16.4565 40.1254 16.4743C40.0621 16.4921 40.003 16.5224 39.9517 16.5634C39.9004 16.6045 39.8579 16.6554 39.8267 16.7132C39.7954 16.7711 39.7762 16.8346 39.77 16.9C39.7465 17.0479 39.765 17.1994 39.8233 17.3373C39.8816 17.4751 39.9775 17.5939 40.1 17.68C40.2041 17.7512 40.2787 17.8579 40.31 17.98C40.31 18.21 40.06 18.29 39.81 18.15C39.5393 17.9666 39.3431 17.6924 39.2569 17.3769C39.1707 17.0615 39.2002 16.7256 39.34 16.43C39.5254 16.1942 39.7963 16.0409 40.0939 16.0035C40.3916 15.9661 40.692 16.0474 40.93 16.23Z" fill="#2A2B2C"/>
</svg>
