<svg width="80" height="80" viewBox="0 0 80 80" fill="none" xmlns="http://www.w3.org/2000/svg">
<path d="M38.6 41.52C38.6 41.59 41.44 37.52 41.49 37.67L42.1 37C43.1 35.78 44.2 34.57 45.23 33.34C47.8592 30.3625 50.643 27.5253 53.57 24.84C54.16 24.27 54.43 24.27 55.43 24.9L57.43 22.17C57.0773 21.1704 57.015 20.0912 57.2504 19.0577C57.4858 18.0241 58.0092 17.0783 58.76 16.33C59.4701 15.4813 60.3576 14.7986 61.36 14.33C62.96 13.58 64.53 12.79 66.09 11.96C67.6352 11.1504 68.9418 9.95072 69.88 8.48C69.9342 8.38947 69.9944 8.30262 70.06 8.22C70.1342 8.10766 70.2406 8.02029 70.3652 7.96929C70.4898 7.91829 70.6269 7.90602 70.7586 7.93409C70.8903 7.96215 71.0105 8.02925 71.1035 8.12663C71.1965 8.22401 71.258 8.34715 71.28 8.48C71.46 9.11 71.55 9.76 71.68 10.41C71.81 11.06 71.88 11.49 72.01 12.03C72.3024 13.153 72.3569 14.3247 72.17 15.47C72.0314 16.6713 72.0583 17.886 72.25 19.08C72.32 20.02 72.5 20.95 72.61 21.89C72.8014 23.382 72.6995 24.8971 72.31 26.35C72.1603 26.9783 71.8341 27.5508 71.37 28C71.2612 28.1326 71.1267 28.2418 70.9746 28.321C70.8225 28.4003 70.6559 28.4478 70.4849 28.4609C70.3139 28.474 70.142 28.4523 69.9796 28.3972C69.8172 28.342 69.6677 28.2545 69.54 28.14C69.4395 28.0843 69.336 28.0342 69.23 27.99C69.23 28.49 69.1 28.99 69.1 29.4C69.1 31.32 69.1 33.24 69.1 35.16C69.2938 37.522 69.2066 39.8986 68.84 42.24C68.6526 42.9721 68.3737 43.6776 68.01 44.34C67.7598 44.8126 67.3373 45.1707 66.83 45.34C66.663 45.4199 66.4813 45.4644 66.2963 45.4705C66.1113 45.4767 65.927 45.4445 65.7551 45.3759C65.5831 45.3073 65.4273 45.2039 65.2973 45.072C65.1674 44.9402 65.0661 44.7829 65 44.61C64.8554 44.2445 64.7612 43.861 64.72 43.47C64.4958 41.3487 64.6345 39.2047 65.13 37.13C65.448 35.3618 65.5887 33.5662 65.55 31.77C65.32 32.14 65.2 32.36 65.05 32.56C64.9081 32.8011 64.7028 32.9987 64.4564 33.1312C64.21 33.2638 63.932 33.3263 63.6525 33.3118C63.3731 33.2974 63.103 33.2066 62.8716 33.0494C62.6402 32.8921 62.4563 32.6745 62.34 32.42C61.64 31.1 61.57 29.66 63.02 28.64C63.9551 28.0479 64.7365 27.2426 65.3 26.29C65.7354 25.5753 65.9445 24.7457 65.9 23.91C64.47 24.56 62.9 24.85 61.75 25.91C61.5563 26.078 61.3968 26.2817 61.28 26.51C60.9185 27.3362 60.2777 28.0089 59.47 28.41C58.79 28.75 58.13 29.14 57.41 29.54C57.0946 30.7507 56.3923 31.8252 55.41 32.6C53.97 33.95 52.59 35.36 51.17 36.72C50.17 37.65 49.17 38.54 48.17 39.46C47.83 39.78 47.53 40.14 47.17 40.46C47.195 40.5151 47.2288 40.5657 47.27 40.61C50.6609 42.7359 54.3766 44.2931 58.27 45.22C59.27 45.44 60.36 45.72 61.42 45.91C61.6302 45.925 61.8331 45.993 62.01 46.1075C62.1869 46.222 62.3319 46.3793 62.4317 46.5649C62.5315 46.7505 62.5827 46.9583 62.5807 47.169C62.5786 47.3796 62.5234 47.5864 62.42 47.77C61.78 49.12 61.23 50.52 60.6 51.88C59.47 54.3 58.29 56.71 57.14 59.14C56.021 61.4907 54.6207 63.6968 52.97 65.71C52.4917 66.2716 51.9554 66.7811 51.37 67.23C49.3249 68.8876 47.007 70.1768 44.52 71.04C42.7269 71.7195 40.8934 72.2873 39.03 72.74C38.7652 72.7491 38.5114 72.8478 38.31 73.02C37.92 73.49 37.5 73.37 37.03 73.23C36.1797 72.9454 35.404 72.4738 34.76 71.85C33.4302 70.5332 32.4268 68.9237 31.83 67.15C31.7485 66.8225 31.7016 66.4873 31.69 66.15C31 66.03 30.18 65.91 29.37 65.75C28.26 65.54 27.14 65.37 26.05 65.06C24.96 64.75 24.19 64.36 23.15 63.96L22.46 64.51C19.61 66.88 16.77 69.27 13.91 71.62C13.1425 72.2173 12.3448 72.7747 11.52 73.29C11.31 73.4295 11.0693 73.516 10.8185 73.5422C10.5677 73.5683 10.3143 73.5332 10.08 73.44C9.84199 73.3914 9.61909 73.2864 9.42999 73.1339C9.24089 72.9814 9.09109 72.7858 8.99316 72.5635C8.89522 72.3412 8.852 72.0987 8.86711 71.8562C8.88222 71.6137 8.95522 71.3784 9.08 71.17C9.50769 70.125 10.091 69.1506 10.81 68.28C12.58 66.12 14.52 64.12 16.44 62.1C17 61.51 17.52 60.9 18.1 60.24C17.994 60.0943 17.8805 59.9541 17.76 59.82C15.6139 57.5981 13.9821 54.932 12.98 52.01C12.47 50.49 11.86 49.01 11.42 47.47C10.63 44.71 9.92 41.94 9.21 39.17C9.15199 38.8104 9.16901 38.4427 9.26 38.09C9.32 37.76 9.62 37.68 9.92 37.61C11.18 37.34 12.44 37.07 13.69 36.77C16.35 36.14 18.99 35.43 21.69 34.87C25.47 34.06 29.27 33.37 33.06 32.61C33.78 32.46 34.48 32.25 35.19 32.06C36.08 31.82 36.29 31.97 36.48 32.87C36.67 33.77 36.97 34.87 37.24 35.87C37.46 36.71 37.72 37.53 37.9 38.17L38.6 41.52ZM10.55 39C10.69 39.59 10.81 40.15 10.95 40.71C11.4868 43.1179 12.1544 45.4948 12.95 47.83C13.36 48.91 13.7 50.01 14.09 51.1C14.681 53.0135 15.5503 54.8296 16.67 56.49C17.9968 58.4046 19.6977 60.0306 21.67 61.27C22.0909 61.5395 22.4981 61.8299 22.89 62.14C24.2714 63.2033 25.8858 63.9231 27.6 64.24C29.26 64.54 30.92 64.81 32.6 65.09C32.846 65.1573 33.1056 65.1575 33.3518 65.0907C33.5979 65.0239 33.8217 64.8924 34 64.71C34.0482 64.6653 34.1049 64.6307 34.1668 64.6084C34.2286 64.5861 34.2943 64.5764 34.36 64.58C34.76 64.67 34.92 64.39 35.1 64.14C35.8315 63.0856 36.3449 61.8956 36.61 60.64C37.07 58.64 37.34 56.55 37.61 54.5C37.6885 53.8997 37.7319 53.2953 37.74 52.69C37.74 50.96 37.74 49.22 37.65 47.49C37.56 45.76 37.41 43.97 37.28 42.22C37.28 41.77 37.18 41.33 37.11 40.89C36.7433 38.7127 36.2355 36.5615 35.59 34.45C35.49 34.13 35.42 33.81 35.34 33.52C27 35.13 18.78 36.72 10.55 39ZM38.13 60.16C39.1221 59.8052 40.1966 59.7496 41.22 60C41.708 60.0302 42.1848 60.1593 42.6214 60.3793C43.058 60.5993 43.4454 60.9058 43.76 61.28C44.3326 62.0541 44.6613 62.9814 44.7041 63.9434C44.7468 64.9053 44.5017 65.8581 44 66.68C43.8775 66.9448 43.6985 67.1796 43.4757 67.3678C43.2529 67.5561 42.9915 67.6934 42.71 67.77C42.5849 67.816 42.4514 67.8348 42.3185 67.8253C42.1855 67.8158 42.0561 67.7781 41.9389 67.7147C41.8216 67.6513 41.7192 67.5638 41.6383 67.4578C41.5575 67.3518 41.5001 67.2299 41.47 67.1C41.4052 66.9024 41.3649 66.6975 41.35 66.49C41.28 65.97 41.27 65.49 41.17 64.92C41.1207 64.5897 40.9984 64.2745 40.8121 63.9973C40.6257 63.7201 40.3801 63.4878 40.0928 63.3174C39.8056 63.147 39.484 63.0426 39.1514 63.0119C38.8188 62.9813 38.4836 63.025 38.17 63.14C37.8081 63.2304 37.4406 63.2972 37.07 63.34L35.31 66C35.08 66.32 34.77 66.58 34.38 66.42C33.71 66.15 33.07 66.49 32.38 66.32C32.92 67.24 33.38 68.06 33.9 68.91C34.5382 69.8745 35.3324 70.7261 36.25 71.43C36.4756 71.6128 36.7333 71.7519 37.01 71.84C37.179 71.895 37.361 71.895 37.53 71.84C39.59 71.22 41.69 70.75 43.71 69.98C45.4986 69.3581 47.2098 68.5326 48.81 67.52C49.9862 66.8336 51.06 65.9853 52 65C53.6324 63.0382 55.0101 60.8777 56.1 58.57C57.1 56.43 58.1 54.29 59.1 52.15C59.59 51.15 60.1 50.15 60.59 49.15C60.86 48.55 61.07 47.93 61.35 47.22C58.072 46.6417 54.8688 45.6992 51.8 44.41C48.7723 43.0248 45.8856 41.3504 43.18 39.41C43.04 39.66 42.91 39.89 42.79 40.12C41.98 41.77 41.16 43.41 40.38 45.12C39.97 45.97 39.72 46.9 39.28 47.73C38.84 48.56 39.14 49.63 39.04 50.57C39.015 51.0163 39.015 51.4637 39.04 51.91C39.04 52.08 39.04 52.25 39.04 52.42C39.2571 52.2528 39.4403 52.0457 39.58 51.81C40.1 51.12 40.58 50.41 41.17 49.81C41.4271 49.5474 41.7413 49.3476 42.0882 49.2262C42.4351 49.1048 42.8053 49.0651 43.17 49.11C44.02 49.16 44.33 49.5 44.33 50.36V50.82C45.08 51.26 45.13 51.4 44.86 52.22C44.5826 52.9882 44.1187 53.6755 43.51 54.22C42.96 54.75 42.35 55.22 41.8 55.74C40.9033 56.6119 39.7565 57.1818 38.52 57.37L38.13 60.16ZM61.41 15.91L61.29 15.78C60.5187 16.2421 59.8565 16.8657 59.349 17.608C58.8415 18.3502 58.5007 19.1936 58.35 20.08C58.2321 20.6663 58.3354 21.2754 58.64 21.79C59.18 21.92 59.64 22.02 60.19 22.16C60.4307 22.2427 60.6517 22.3743 60.8393 22.5463C61.0269 22.7184 61.1769 22.9273 61.28 23.16C61.5 23.61 61.65 24.09 61.86 24.62C62.14 23.96 62.72 23.82 63.25 23.62L64.94 22.95C63.48 21.86 64.09 20.48 64.22 19.24C63.6627 19.3068 63.101 19.3302 62.54 19.31C62.2802 19.3197 62.022 19.2652 61.7883 19.1513C61.5547 19.0374 61.3527 18.8675 61.2004 18.6568C61.048 18.4462 60.9501 18.2012 60.9151 17.9435C60.8802 17.6859 60.9093 17.4237 61 17.18C61.12 16.75 61.28 16.33 61.41 15.91ZM43.84 51.39L42.93 50.32C42.7131 50.3044 42.4958 50.3439 42.2982 50.4348C42.1006 50.5257 41.9293 50.6651 41.8 50.84C41.32 51.36 40.88 51.92 40.42 52.45C39.96 52.98 39.65 53.3 39.27 53.73C39.1424 53.8498 39.0433 53.9968 38.98 54.16C38.89 54.72 38.84 55.29 38.78 55.86C40.43 55.73 43.49 52.92 43.84 51.39ZM37.61 61.79L37.69 61.91L38.44 61.8C39.3357 61.642 40.2575 61.843 41.0061 62.3595C41.7547 62.8761 42.2698 63.6666 42.44 64.56C42.51 64.92 42.52 65.29 42.58 65.65C42.6104 65.8419 42.6505 66.0321 42.7 66.22H42.88C43.1866 65.711 43.3778 65.1409 43.44 64.55C43.5022 63.9591 43.4339 63.3617 43.24 62.8C43.1165 62.4226 42.895 62.0849 42.598 61.8213C42.301 61.5577 41.9394 61.3778 41.55 61.3C40.7673 61.1488 39.9757 61.0486 39.18 61C38.8132 61.009 38.4522 61.0942 38.12 61.25C37.92 61.38 37.78 61.62 37.61 61.79ZM59.37 27L59.94 26.27L57.41 24.18L56.95 24.84C57.9346 25.3317 58.7701 26.0774 59.37 27ZM60.37 25.12C60.4792 24.8304 60.4955 24.514 60.4166 24.2148C60.3378 23.9155 60.1677 23.6482 59.93 23.45C59.6976 23.2611 59.4127 23.1483 59.1139 23.1268C58.8152 23.1054 58.5171 23.1763 58.26 23.33C58.8713 24.032 59.5782 24.6447 60.36 25.15L60.37 25.12ZM56.62 26L56.48 26.12L57.48 28.05L58.41 27.51L56.62 26Z" fill="#2A2B2C"/>
<path d="M34.81 53.3C34.7574 55.0507 34.0675 56.7219 32.87 58C32.48 58.42 32.01 58.77 31.58 59.16C31.2992 59.4195 30.9642 59.6133 30.5993 59.7275C30.2344 59.8416 29.8486 59.8732 29.47 59.82C28.0644 59.7277 26.6975 59.3211 25.47 58.63C24.5002 57.9614 23.6198 57.1716 22.85 56.28C22.5952 56.0222 22.4208 55.696 22.348 55.3409C22.2752 54.9858 22.3072 54.6172 22.44 54.28C22.5459 53.9229 22.7745 53.6146 23.0856 53.4097C23.3966 53.2048 23.7701 53.1164 24.14 53.16C24.713 53.3148 25.2545 53.5686 25.74 53.91C26.1334 54.2164 26.5043 54.5506 26.85 54.91C27.1188 55.1622 27.446 55.3439 27.8022 55.4387C28.1584 55.5335 28.5326 55.5385 28.8912 55.4533C29.2499 55.3681 29.5818 55.1953 29.8573 54.9505C30.1328 54.7056 30.3433 54.3962 30.47 54.05C30.6246 53.6601 30.8015 53.2795 31 52.91C31.2251 52.4396 31.5182 52.005 31.87 51.62C32.0878 51.3876 32.3665 51.2211 32.6743 51.1394C32.9822 51.0577 33.3067 51.0641 33.6111 51.1579C33.9155 51.2517 34.1874 51.4292 34.3958 51.67C34.6042 51.9108 34.7408 52.2053 34.79 52.52C34.813 52.7793 34.8197 53.0398 34.81 53.3ZM33.54 53.45C33.54 52.79 33.45 52.45 33.19 52.4C32.93 52.35 32.5 52.58 32.19 53.15C32.0979 53.3381 32.0178 53.5318 31.95 53.73C31.86 53.98 31.77 54.22 31.69 54.47C31.4877 55.0115 31.1552 55.4948 30.7218 55.8773C30.2885 56.2598 29.7676 56.5296 29.2052 56.6631C28.6428 56.7965 28.0562 56.7894 27.4971 56.6424C26.9381 56.4953 26.424 56.2129 26 55.82C25.8449 55.6449 25.6742 55.4842 25.49 55.34C25.11 55.06 24.71 54.82 24.34 54.54C24.14 54.4 23.93 54.31 23.78 54.54C23.7201 54.6207 23.6791 54.7138 23.6601 54.8125C23.641 54.9111 23.6444 55.0128 23.67 55.11C23.8321 55.4781 24.0552 55.8162 24.33 56.11C24.7535 56.542 25.2044 56.9462 25.68 57.32C25.8966 57.5122 26.1432 57.6676 26.41 57.78C27.0123 58.0391 27.6342 58.2498 28.27 58.41C30.39 58.89 30.27 58.82 31.71 57.49C32.2691 56.9727 32.719 56.3488 33.0333 55.6549C33.3475 54.9611 33.5198 54.2114 33.54 53.45Z" fill="#2A2B2C"/>
<path d="M22.64 44.89C23.1606 44.9325 23.6782 45.0059 24.19 45.11C24.7948 45.2544 25.3512 45.5548 25.8039 45.9811C26.2565 46.4075 26.5896 46.9449 26.77 47.54C26.8868 47.8597 26.9345 48.2005 26.91 48.54C26.9175 48.7987 26.8651 49.0556 26.7569 49.2908C26.6487 49.5259 26.4876 49.7328 26.2863 49.8954C26.085 50.058 25.8488 50.172 25.5962 50.2283C25.3435 50.2846 25.0813 50.2817 24.83 50.22C24.2591 50.1211 23.6947 49.9875 23.14 49.82C22.7255 49.6758 22.2744 49.6764 21.8602 49.8217C21.4461 49.967 21.0935 50.2484 20.86 50.62C20.6 50.98 20.37 51.36 20.12 51.73C19.43 52.73 18.55 52.78 17.9 51.73C17.6034 51.3002 17.4242 50.8004 17.38 50.28C17.289 49.3564 17.457 48.4257 17.8649 47.5921C18.2729 46.7584 18.9048 46.0548 19.69 45.56C20.5845 45.0475 21.6119 44.8142 22.64 44.89ZM19 51.17C19.42 50.57 19.69 50.12 20 49.72C20.366 49.1974 20.8892 48.805 21.4934 48.6C22.0976 48.395 22.7515 48.388 23.36 48.58C23.82 48.7 24.27 48.83 24.73 48.92C25.55 49.09 25.89 48.71 25.61 47.92C25.5027 47.5805 25.3215 47.269 25.0794 47.0079C24.8373 46.7469 24.5404 46.5426 24.21 46.41C23.3973 46.1025 22.5191 46.0096 21.66 46.14C19.49 46.48 18.66 48.23 18.66 50.21C18.7328 50.5429 18.847 50.8655 19 51.17Z" fill="#2A2B2C"/>
<path d="M36.9 45.79C36.8756 46.1733 36.7746 46.5479 36.6028 46.8914C36.431 47.2349 36.192 47.5405 35.9 47.79C35.7286 47.9563 35.5121 48.0686 35.2775 48.1131C35.0429 48.1575 34.8003 48.1321 34.58 48.04C34.2127 47.901 33.8552 47.7372 33.51 47.55C33.3354 47.4285 33.1238 47.3719 32.9119 47.3902C32.7 47.4085 32.5012 47.5004 32.35 47.65C32.03 47.93 31.73 48.22 31.42 48.5C30.75 49.12 30.32 49.21 29.65 48.87C29.2785 48.7269 28.9665 48.4622 28.7649 48.1189C28.5633 47.7756 28.484 47.3741 28.54 46.98C28.605 46.3003 28.8177 45.643 29.1632 45.054C29.5086 44.465 29.9785 43.9585 30.54 43.57C31.4017 42.8659 32.4387 42.4096 33.54 42.25C33.8726 42.2381 34.2008 42.3288 34.48 42.51C35.2963 42.9524 35.959 43.6324 36.38 44.46C36.5784 44.8931 36.752 45.3372 36.9 45.79ZM34.98 46.79C35.5 46.26 35.65 46.02 35.52 45.59C35.4287 45.181 35.2465 44.7978 34.9868 44.4688C34.7271 44.1399 34.3967 43.8737 34.02 43.69C33.44 43.42 32.94 43.96 32.38 43.81C31.7389 44.0617 31.1694 44.4668 30.7213 44.9899C30.2732 45.5129 29.9603 46.1379 29.81 46.81C29.71 47.37 29.7 47.37 30.34 47.7C30.71 47.36 31.08 46.99 31.48 46.7C31.8203 46.3651 32.2654 46.1575 32.7406 46.112C33.2159 46.0665 33.6923 46.1858 34.09 46.45C34.3856 46.5887 34.6895 46.7089 35 46.81L34.98 46.79Z" fill="#2A2B2C"/>
<path d="M47.66 56.34C47.6868 55.6041 47.8587 54.8807 48.1659 54.2114C48.4731 53.5421 48.9095 52.9401 49.45 52.44C49.5953 52.2968 49.7686 52.1853 49.9591 52.1123C50.1496 52.0393 50.3531 52.0064 50.5569 52.0158C50.7606 52.0252 50.9602 52.0766 51.1432 52.1668C51.3262 52.257 51.4885 52.3841 51.62 52.54C51.8671 52.8299 52.0508 53.1682 52.1593 53.5333C52.2678 53.8985 52.2987 54.2822 52.25 54.66C52.2357 55.1578 52.1754 55.6533 52.07 56.14C51.9365 56.5952 51.9343 57.0787 52.0634 57.5351C52.1925 57.9915 52.4479 58.4022 52.8 58.72C53.0226 58.9546 53.1802 59.2432 53.2572 59.5573C53.3342 59.8714 53.328 60.2002 53.2391 60.5112C53.1503 60.8221 52.9819 61.1046 52.7505 61.3306C52.5192 61.5566 52.233 61.7184 51.92 61.8C51.4685 61.9556 50.9826 61.9829 50.5165 61.8787C50.0504 61.7746 49.6223 61.5431 49.28 61.21C48.9478 60.8798 48.6709 60.4983 48.46 60.08C47.9208 58.9076 47.6476 57.6304 47.66 56.34ZM50.44 53.21C49.9968 53.4684 49.6468 53.8605 49.44 54.33C49.0355 55.1856 48.8442 56.1264 48.8825 57.072C48.9208 58.0177 49.1876 58.9399 49.66 59.76C49.776 60.0132 49.9597 60.2294 50.1909 60.3847C50.4221 60.5401 50.6917 60.6284 50.97 60.64C51.1576 60.6853 51.3546 60.6712 51.5338 60.5995C51.713 60.5278 51.8654 60.4022 51.97 60.24C52.21 59.84 51.97 59.6 51.69 59.35C51.2845 58.9387 50.9901 58.4311 50.8344 57.8749C50.6787 57.3187 50.6669 56.732 50.8 56.17C50.8962 55.6811 50.9629 55.1869 51 54.69C51.0668 54.4156 51.0491 54.1274 50.9492 53.8633C50.8492 53.5992 50.6717 53.3714 50.44 53.21Z" fill="#2A2B2C"/>
</svg>
