<svg width="80" height="80" viewBox="0 0 80 80" fill="none" xmlns="http://www.w3.org/2000/svg">
<path d="M65 72.56C63.0452 72.4567 61.085 72.5538 59.15 72.85C58.1932 72.96 57.2269 72.96 56.27 72.85C54.2243 72.6868 52.1714 72.6334 50.12 72.69C47.7 72.69 45.29 72.69 42.88 72.69C41.21 72.69 39.54 72.69 37.88 72.69C33.1 72.8 28.32 72.91 23.54 73.09C21.81 73.16 20.08 73.39 18.35 73.57C16.62 73.75 14.8 73.99 13.03 74.17C12.6212 74.2151 12.2088 74.2151 11.8 74.17C11.35 74.11 11.18 73.89 11.14 73.44C11.135 73.3434 11.135 73.2466 11.14 73.15C11.14 72.38 11.14 71.61 11.08 70.84C11.03 69.09 11.08 68.98 12.69 68.73C13.86 68.55 15.04 68.42 16.22 68.35C24.42 67.91 32.62 67.58 40.83 67.46C45.22 67.39 49.62 67.36 54.01 67.28C55.68 67.28 57.34 67.12 59.01 67.09C61.18 67.09 63.35 67.09 65.53 67.09C66.71 67.09 67.89 67.09 69.07 67.01H69.72C69.8549 67.0052 69.9876 67.046 70.0964 67.1258C70.2053 67.2056 70.2841 67.3199 70.32 67.45C70.3963 67.6799 70.4434 67.9184 70.46 68.16C70.46 69.1 70.52 70.04 70.56 70.98C70.5896 71.2708 70.5156 71.5628 70.3509 71.8043C70.1863 72.0458 69.9416 72.2214 69.66 72.3C68.9569 72.5624 68.2102 72.688 67.46 72.67C66.65 72.55 65.83 72.56 65 72.56Z" fill="#2A2B2C"/>
<path d="M18 50.28C17.2806 49.1043 16.868 47.7667 16.8 46.39C16.6228 45.0571 16.9192 43.7043 17.6374 42.5675C18.3556 41.4308 19.4501 40.5823 20.73 40.17C21.4395 39.907 22.2153 39.8824 22.94 40.1C23.4305 40.2184 23.9117 40.3722 24.38 40.56C25.0322 40.8915 25.5407 41.4498 25.81 42.13C26.3231 43.2318 26.5369 44.4493 26.43 45.66C26.3969 46.2628 26.3335 46.8635 26.24 47.46C26.1 48.24 25.89 49 25.71 49.77C27.2614 50.3623 28.6349 51.3425 29.6994 52.6171C30.7639 53.8916 31.4837 55.4179 31.79 57.05C31.89 56.56 32 56.05 32.09 55.57C32.4258 54.0014 33.2193 52.5676 34.37 51.45C34.7372 51.1275 35.1283 50.8333 35.54 50.57C35.5269 50.5156 35.5102 50.4621 35.49 50.41C34.6574 48.5154 34.5436 46.3824 35.17 44.41C35.4043 43.3008 35.9613 42.2857 36.7708 41.4922C37.5804 40.6986 38.6064 40.1621 39.72 39.95C40.4147 39.8298 41.1288 39.8953 41.79 40.14C42.2262 40.3338 42.6778 40.491 43.14 40.61C43.42 40.61 43.71 41.04 43.88 41.34C44.6795 42.7608 45.0835 44.37 45.05 46C45.0408 47.357 44.7228 48.6941 44.12 49.91C44.2951 49.9291 44.4687 49.9592 44.64 50C45.4982 50.185 46.2674 50.6578 46.82 51.34C47.7052 52.3974 48.3836 53.6118 48.82 54.92C48.89 55.15 49 55.36 49.14 55.7C49.23 55.3 49.28 55.02 49.34 54.75C49.5787 53.6361 49.9903 52.5665 50.56 51.58C51.0969 50.627 51.9653 49.9045 53 49.55C53 49.39 52.95 49.23 52.91 49.07C52.4937 47.169 52.6255 45.189 53.29 43.36C53.773 42.1726 54.7021 41.2218 55.878 40.7115C57.0538 40.2011 58.3828 40.1719 59.58 40.63C59.7978 40.7314 60.031 40.7956 60.27 40.82C60.4406 40.8176 60.6094 40.8542 60.7636 40.927C60.9179 40.9998 61.0534 41.1068 61.16 41.24C61.8048 42.0192 62.3867 42.8485 62.9 43.72C63.6199 45.2909 63.7269 47.0742 63.2 48.72C63.06 49.28 62.83 49.82 62.63 50.4C64.0969 52.0463 65.0038 54.1156 65.22 56.31C65.33 57.71 65.5 59.1 65.54 60.5C65.5533 61.6816 65.5066 62.8631 65.4 64.04C65.3397 64.3962 65.1606 64.7215 64.8919 64.963C64.6232 65.2045 64.2806 65.348 63.92 65.37C63.27 65.37 62.62 65.37 61.97 65.37C58.8557 65.2315 55.7356 65.2983 52.63 65.57C50.1 65.76 47.57 65.82 45.03 65.96C43.64 66.03 42.24 66.14 40.85 66.23H40.34C37.42 66.29 34.5 66.33 31.57 66.42C28.64 66.51 25.49 66.66 22.45 66.76C20.0179 66.9432 17.5778 66.9966 15.14 66.92C14.46 66.86 13.83 66.86 13.83 66.19C13.83 64.52 13.83 62.86 13.9 61.19C13.96 59.77 14.08 58.35 14.24 56.93C14.3876 55.0998 15.0847 53.357 16.24 51.93C16.7984 51.3506 17.3859 50.7999 18 50.28ZM15.3 65.53C16.2957 65.6609 17.3043 65.6609 18.3 65.53C18.35 64.14 18.55 58.86 18.61 57.53C18.61 56.95 18.83 56.7 19.21 56.71C19.59 56.72 19.77 57.01 19.75 57.57C19.75 57.57 19.59 61.65 19.59 61.69C19.59 62.76 19.51 63.82 19.48 64.88C19.48 65.06 19.48 65.25 19.53 65.45L26.19 65.06C26.2012 64.9202 26.2012 64.7798 26.19 64.64C26.11 63.82 26.01 63.01 25.93 62.19C25.93 61.9 25.5 58.19 25.51 57.94C25.507 57.8176 25.5509 57.6987 25.6327 57.6076C25.7145 57.5165 25.828 57.4601 25.95 57.45C26.0706 57.4196 26.1982 57.4343 26.3087 57.4914C26.4192 57.5485 26.505 57.644 26.55 57.76C26.61 57.91 27 61.46 27.02 61.63C27.09 62.13 27.13 62.63 27.19 63.14C27.25 63.65 27.34 64.37 27.43 65.02L31.7 64.9C31.64 64.63 31.6 64.44 31.55 64.26C31.4416 63.9327 31.3548 63.5986 31.29 63.26C31.19 62.52 31.16 61.77 31.09 61.03C30.9541 59.3693 30.6764 57.7233 30.26 56.11C29.6038 54.0934 28.2207 52.3931 26.38 51.34C26.1948 51.227 25.992 51.1459 25.78 51.1C25.5332 51.0029 25.2628 50.9825 25.0041 51.0414C24.7455 51.1002 24.5106 51.2357 24.33 51.43C24.0068 51.7767 23.6099 52.0465 23.1686 52.2196C22.7273 52.3927 22.2528 52.4646 21.78 52.43C20.9816 52.3908 20.2082 52.1388 19.54 51.7C19.2991 51.5197 19.002 51.4307 18.7017 51.449C18.4013 51.4674 18.1172 51.5917 17.9 51.8C17.7214 51.9619 17.5575 52.1393 17.41 52.33C16.4632 53.5661 15.8781 55.0409 15.72 56.59C15.55 58.14 15.41 59.71 15.34 61.28C15.25 62.65 15.3 64.05 15.3 65.53ZM43.3 51.21L42.3 51.97C41.5198 52.546 40.5855 52.8765 39.6166 52.9193C38.6477 52.962 37.688 52.7151 36.86 52.21C36.7243 52.0921 36.565 52.0046 36.3926 51.9533C36.2203 51.9021 36.039 51.8883 35.861 51.913C35.6829 51.9376 35.5121 52 35.3602 52.0961C35.2082 52.1922 35.0786 52.3197 34.98 52.47C34.1682 53.3065 33.5891 54.3407 33.3 55.47C32.7723 57.6318 32.5469 59.8563 32.63 62.08C32.63 63.01 32.71 63.95 32.75 64.94C34.1684 64.9926 35.5888 64.9424 37 64.79V62.9C37 62.28 37 61.65 37 61.02C37 60.85 37.24 58.43 37.28 58.27C37.2975 58.1365 37.3651 58.0147 37.4691 57.9293C37.5731 57.8439 37.7057 57.8012 37.84 57.81C37.9761 57.8092 38.1076 57.8588 38.2092 57.9493C38.3107 58.0398 38.3752 58.1647 38.39 58.3C38.39 58.46 38.16 60.88 38.16 61.05C38.16 61.75 38.16 62.45 38.16 63.15C38.16 63.67 38.23 64.2 38.27 64.69C39.6431 64.8649 41.0367 64.7835 42.38 64.45C42.32 63.82 42.25 63.17 42.21 62.53C42.21 62.07 42.05 58.98 42.08 58.53C42.0825 58.3919 42.1378 58.26 42.2345 58.1614C42.3312 58.0628 42.462 58.0051 42.6 58C42.91 58 43.14 58.25 43.17 58.63C43.17 58.79 43.3 61.63 43.31 61.77C43.2961 62.684 43.3867 63.5966 43.58 64.49C45.44 64.49 47.24 64.49 49.09 64.31C49.1161 64.0313 49.0924 63.7503 49.02 63.48C48.8159 63.0144 48.7234 62.5076 48.75 62C48.66 60.72 48.62 59.44 48.45 58.17C48.2062 55.9742 47.3426 53.8932 45.96 52.17C45.7419 51.8179 45.4198 51.5422 45.0383 51.381C44.6567 51.2197 44.2345 51.181 43.83 51.27C43.6414 51.279 43.4525 51.2588 43.27 51.21H43.3ZM55.19 63.79H59.25C59.25 63.61 59.25 63.52 59.25 63.43C59.25 62.63 59.25 58.82 59.32 58.02C59.32 57.57 59.57 57.32 59.89 57.32C60.21 57.32 60.46 57.58 60.47 58.01C60.48 58.44 60.47 61.7 60.47 62.01V63.78L63.86 63.89C63.86 62.89 64.03 61.89 63.98 61C63.88 59.1 63.71 57.19 63.5 55.3C63.3763 53.9426 62.8545 52.6519 62 51.59C61.4794 52.2884 60.7853 52.8387 59.9865 53.1864C59.1878 53.534 58.312 53.6669 57.4461 53.5719C56.5801 53.4769 55.754 53.1574 55.0496 52.6448C54.3452 52.1323 53.7869 51.4447 53.43 50.65C53.1498 50.7381 52.8837 50.8661 52.64 51.03C52.233 51.4045 51.8736 51.8277 51.57 52.29C50.7977 53.6604 50.3496 55.1895 50.26 56.76C50.12 59.0512 50.12 61.3488 50.26 63.64C50.2723 63.8477 50.2957 64.0547 50.33 64.26L54 64C54 63.18 53.91 62.44 53.86 61.7C53.86 61.34 53.49 57.6 53.5 57.24C53.5052 57.1162 53.558 56.9992 53.6475 56.9134C53.7369 56.8277 53.8561 56.7799 53.98 56.78C54.0411 56.77 54.1035 56.7722 54.1638 56.7864C54.224 56.8006 54.2809 56.8266 54.331 56.8628C54.3812 56.899 54.4237 56.9448 54.4562 56.9975C54.4886 57.0503 54.5103 57.1089 54.52 57.17C54.52 57.4 54.9 61.02 54.93 61.26C55 62.08 55.12 62.94 55.19 63.79ZM58.81 41.22C58.3 41.22 57.81 41.22 57.39 41.32C56.6855 41.3909 56.0165 41.6635 55.4631 42.1052C54.9097 42.5468 54.4954 43.1388 54.27 43.81C53.5203 45.8126 53.5596 48.0253 54.38 50C55.32 52.14 56.58 52.73 58.92 52.39C59.4821 52.2784 60.0054 52.0224 60.4385 51.6472C60.8716 51.272 61.1995 50.7904 61.39 50.25C61.6757 49.6393 61.9034 49.0032 62.07 48.35C62.4625 47.0682 62.3989 45.6901 61.89 44.45C61.4657 43.6685 60.9738 42.9257 60.42 42.23C60.27 42.01 60.06 42.06 59.83 42.11C59 42.27 58.86 42.16 58.81 41.22ZM36 47.19C35.919 48.2061 36.1343 49.2238 36.62 50.12C36.8086 50.5815 37.1255 50.9793 37.5331 51.2664C37.9407 51.5535 38.422 51.7178 38.92 51.74C39.7911 51.8219 40.6662 51.6323 41.4253 51.1973C42.1844 50.7622 42.7904 50.103 43.16 49.31C43.8293 47.9575 44.0667 46.4319 43.84 44.94C43.65 43.63 43.46 42.27 42.28 41.34C42.07 41.19 41.91 40.97 41.65 40.93C40.7673 40.7417 39.8473 40.8471 39.03 41.23C38.0334 41.7349 37.2164 42.5345 36.69 43.52C36.1643 44.6688 35.9274 45.9287 36 47.19ZM25.33 45.19H25.27C25.285 44.9702 25.285 44.7497 25.27 44.53C25.08 43.36 24.91 42.17 23.69 41.53C23.6041 41.4797 23.5373 41.4023 23.5 41.31C23.37 40.89 22.58 41.19 22.25 41.15C21.6909 41.1244 21.1324 41.2121 20.6081 41.4079C20.0838 41.6037 19.6046 41.9035 19.1991 42.2893C18.7937 42.6751 18.4705 43.139 18.249 43.6529C18.0274 44.1669 17.9121 44.7203 17.91 45.28C17.8752 46.3661 18.0344 47.4497 18.38 48.48C18.5496 49.0397 18.8398 49.5554 19.2303 49.9908C19.6208 50.4262 20.102 50.7707 20.64 51C21.1351 51.2659 21.7054 51.3572 22.2587 51.2592C22.8121 51.1613 23.3163 50.8797 23.69 50.46C24.3749 49.7984 24.8334 48.9375 25 48C25.14 47.1 25.21 46.13 25.32 45.17L25.33 45.19Z" fill="#2A2B2C"/>
<path d="M41.67 34.33C41.35 35.22 41.07 36.04 40.78 36.85C40.63 37.27 40.56 37.85 39.96 37.85C39.36 37.85 39.18 37.41 38.96 37C38.69 36.41 38.5 35.78 38.28 35.17C38.2394 35.0608 38.1927 34.954 38.14 34.85C38.0635 34.8426 37.9865 34.8426 37.91 34.85C36.46 34.85 35.01 34.77 33.57 34.79C32.7726 34.8161 31.9777 34.8929 31.19 35.02C30.4616 35.1042 29.7805 35.4237 29.25 35.93C28.87 36.3 28.5 36.68 28.09 37.01C27.4 37.58 26.68 38.11 25.97 38.65C25.8622 38.7504 25.7239 38.8119 25.5771 38.8245C25.4303 38.8372 25.2835 38.8004 25.16 38.72C24.86 38.54 24.89 38.24 24.93 37.94C25.15 36.61 25.37 35.28 25.59 33.86C24.7387 33.0937 24.1216 32.1022 23.81 31C23.52 30.39 23.26 29.76 22.92 29.18C21.7666 27.0714 21.0843 24.7378 20.92 22.34C20.8219 21.5272 20.7785 20.7087 20.79 19.89C20.8139 19.265 20.9354 18.6475 21.15 18.06C22.2101 15.4503 23.7692 13.0725 25.74 11.06C26.4173 10.3674 27.2004 9.78677 28.06 9.34001C30.3316 8.05523 32.7768 7.10541 35.32 6.52001C37.6882 6.00614 40.1273 5.90465 42.53 6.22001C44.53 6.47001 46.44 6.82001 48.38 7.22001C48.9934 7.3478 49.5882 7.55276 50.15 7.83001C51.75 8.57773 53.2737 9.4786 54.7 10.52C55.3154 10.9428 55.8763 11.4399 56.37 12C57.2391 12.9684 58.0378 13.9977 58.76 15.08C59.7963 16.6908 60.4212 18.5313 60.58 20.44C60.66 21.6 60.76 22.76 60.78 23.91C60.7957 25.3924 60.5165 26.863 59.9586 28.2364C59.4006 29.6099 58.5751 30.8586 57.53 31.91C57.2905 32.1471 57.0293 32.3613 56.75 32.55C56.56 32.7 56.35 32.82 56.15 32.96C55.15 33.69 55.15 33.73 55.35 34.96C55.48 35.82 55.52 36.69 55.58 37.55C55.6157 37.7059 55.5977 37.8692 55.529 38.0136C55.4603 38.158 55.3448 38.275 55.2013 38.3455C55.0578 38.4161 54.8947 38.4362 54.7384 38.4025C54.5821 38.3689 54.4417 38.2834 54.34 38.16C54.04 37.9152 53.7561 37.6514 53.49 37.37C53.214 37.0991 52.966 36.8009 52.75 36.48C52.4935 36.0657 52.1314 35.7269 51.7009 35.4985C51.2704 35.2701 50.787 35.1602 50.3 35.18C48.02 34.99 45.75 34.65 43.47 34.39C42.9 34.37 42.32 34.37 41.67 34.33ZM54.26 36.6L54.4 36.55C54.4099 36.3601 54.4099 36.1699 54.4 35.98C54.29 35.32 54.19 34.65 54.06 33.98C54.0091 33.7893 54.0239 33.5869 54.1019 33.4056C54.1799 33.2242 54.3166 33.0743 54.49 32.98C55.2629 32.484 55.9862 31.9147 56.65 31.28C57.5868 30.3853 58.3349 29.312 58.8502 28.1235C59.3654 26.935 59.6374 25.6553 59.65 24.36C59.65 23.11 59.53 21.85 59.47 20.6C59.3197 18.9782 58.8181 17.4085 58 16C57.1547 14.6003 56.1478 13.3047 55 12.14C54.7801 11.9161 54.5351 11.7181 54.27 11.55C52.8088 10.5157 51.2634 9.60585 49.65 8.83001C49.2411 8.6254 48.8075 8.47416 48.36 8.38001C46.42 8.03001 44.47 7.66001 42.51 7.38001C40.231 7.07774 37.9168 7.17247 35.67 7.66001C33.2411 8.20809 30.9083 9.11826 28.75 10.36C28.02 10.7654 27.3474 11.2665 26.75 11.85C24.8583 13.727 23.3681 15.9691 22.37 18.44C22.1586 18.9141 22.0333 19.422 22 19.94C21.9984 20.7618 22.0418 21.583 22.13 22.4C22.2454 24.0173 22.6132 25.6065 23.22 27.11C23.95 28.74 24.76 30.33 25.57 31.92C25.7581 32.2553 26.0134 32.5481 26.32 32.78C26.5689 32.9035 26.7624 33.1157 26.8624 33.3749C26.9624 33.6341 26.9615 33.9214 26.86 34.18C26.86 34.37 26.74 34.55 26.7 34.74C26.56 35.43 26.43 36.13 26.29 36.83L26.45 36.91L27.56 35.91C28.13 35.42 28.69 34.91 29.27 34.45C29.4111 34.3199 29.5781 34.221 29.76 34.16C31.0862 33.7931 32.4541 33.5982 33.83 33.58C35.23 33.58 36.64 33.58 38.04 33.58C38.3473 33.54 38.6579 33.6225 38.9049 33.8096C39.1519 33.9967 39.3154 34.2734 39.36 34.58C39.46 34.88 39.53 35.18 39.63 35.48C39.7011 35.6543 39.7881 35.8217 39.89 35.98C40.14 35.24 40.37 34.63 40.55 33.98C40.6032 33.7532 40.7304 33.5505 40.9114 33.4039C41.0924 33.2572 41.3171 33.1749 41.55 33.17C41.7896 33.15 42.0304 33.15 42.27 33.17C43.52 33.28 44.77 33.38 46.02 33.52L51.55 34.18C51.7901 34.1983 52.0238 34.2654 52.237 34.3772C52.4502 34.489 52.6384 34.643 52.79 34.83C53.24 35.45 53.75 36 54.26 36.6Z" fill="#2A2B2C"/>
<path d="M55.82 45.05C55.82 44.63 56.01 44.39 56.31 44.36C56.4428 44.3437 56.5769 44.3763 56.6874 44.4518C56.7978 44.5273 56.877 44.6404 56.91 44.77C56.98 45 57.02 45.24 57.07 45.47C57.16 45.95 57.81 48.78 57.9 49.25C57.99 49.72 57.9 49.91 57.55 50.01C57.4745 50.0331 57.3952 50.0411 57.3166 50.0335C57.238 50.0259 57.1616 50.0029 57.092 49.9657C57.0223 49.9286 56.9606 49.878 56.9105 49.817C56.8604 49.7559 56.8229 49.6856 56.8 49.61C56.8 49.61 56.21 47.16 56.2 47.11C56.07 46.4 55.94 45.69 55.82 45.05Z" fill="#2A2B2C"/>
<path d="M60.26 48.88C60.2847 49.0187 60.2562 49.1616 60.1802 49.2802C60.1042 49.3988 59.9863 49.4844 59.85 49.52C59.7804 49.5429 59.7069 49.5515 59.634 49.5452C59.561 49.5388 59.4901 49.5177 59.4256 49.4831C59.361 49.4485 59.3042 49.4011 59.2585 49.3438C59.2129 49.2866 59.1793 49.2206 59.16 49.15C58.98 48.43 58.32 45.43 58.16 44.7C58.1364 44.5662 58.1662 44.4286 58.2428 44.3165C58.3194 44.2044 58.4368 44.1267 58.57 44.1C58.6323 44.0761 58.6987 44.065 58.7654 44.0672C58.8321 44.0695 58.8976 44.085 58.9582 44.113C59.0188 44.1409 59.0731 44.1807 59.1181 44.23C59.1631 44.2793 59.1977 44.3371 59.22 44.4C59.3234 44.6436 59.3973 44.8988 59.44 45.16C59.58 45.65 60.17 48.42 60.26 48.88Z" fill="#2A2B2C"/>
<path d="M38.89 44.43C38.83 44.81 38.95 48.08 38.89 48.58C38.83 49.08 38.53 49.32 38.21 49.27C37.89 49.22 37.72 48.94 37.78 48.41C37.84 47.88 37.72 44.69 37.78 44.21C37.84 43.73 38.05 43.52 38.37 43.53C38.69 43.54 38.91 43.83 38.89 44.43Z" fill="#2A2B2C"/>
<path d="M40.13 44.6C40.1384 44.4255 40.1584 44.2518 40.19 44.08C40.1998 44.0137 40.2226 43.9499 40.257 43.8924C40.2915 43.8348 40.3369 43.7847 40.3908 43.7447C40.4447 43.7048 40.5059 43.6759 40.571 43.6596C40.636 43.6434 40.7037 43.6401 40.77 43.65C40.8935 43.6469 41.0135 43.6904 41.1063 43.772C41.199 43.8536 41.2574 43.9672 41.27 44.09C41.27 44.47 41.44 47.99 41.4 48.37C41.3826 48.4921 41.3188 48.6027 41.222 48.679C41.1252 48.7554 41.0027 48.7915 40.88 48.78C40.757 48.7837 40.6369 48.7418 40.5428 48.6625C40.4487 48.5832 40.3872 48.4719 40.37 48.35C40.33 48.14 40.16 44.8 40.13 44.6Z" fill="#2A2B2C"/>
<path d="M20.92 48.34C20.8983 48.4571 20.8385 48.5638 20.7498 48.6434C20.6612 48.723 20.5488 48.771 20.43 48.78C20.2963 48.8036 20.1586 48.7739 20.0465 48.6972C19.9344 48.6206 19.8567 48.5032 19.83 48.37C19.74 47.83 19.06 45.45 19.04 44.9C19.033 44.8277 19.0413 44.7546 19.0643 44.6857C19.0872 44.6167 19.1244 44.5533 19.1734 44.4996C19.2224 44.4459 19.2822 44.403 19.3487 44.3738C19.4153 44.3446 19.4873 44.3297 19.56 44.33C19.6331 44.3232 19.7068 44.331 19.7767 44.3531C19.8467 44.3752 19.9116 44.411 19.9675 44.4586C20.0234 44.5061 20.0693 44.5643 20.1023 44.6298C20.1354 44.6954 20.155 44.7668 20.16 44.84C20.23 45.34 20.87 47.67 20.92 48.34Z" fill="#2A2B2C"/>
<path d="M21.33 44.53C21.33 44.13 21.47 43.88 21.76 43.86C21.8717 43.8553 21.983 43.8763 22.0853 43.9214C22.1876 43.9664 22.2781 44.0344 22.35 44.12C22.55 44.57 23.06 47.48 23.15 47.97C23.1646 48.035 23.165 48.1023 23.151 48.1674C23.1371 48.2324 23.1091 48.2937 23.0692 48.3469C23.0293 48.4002 22.9783 48.4441 22.9197 48.4757C22.8612 48.5073 22.7964 48.5259 22.73 48.53C22.53 48.53 22.2 48.43 22.14 48.28C21.93 47.83 21.45 44.92 21.33 44.53Z" fill="#2A2B2C"/>
<path d="M39.05 19.33L39.51 18.7C40.1868 17.7583 41.0067 16.9282 41.94 16.24C42.8795 15.5851 44.0191 15.2807 45.16 15.38C45.4983 15.4064 45.8231 15.5239 46.1 15.72C46.8492 16.2009 47.393 16.943 47.6258 17.8022C47.8586 18.6615 47.7639 19.5766 47.36 20.37C47.1187 20.8137 46.834 21.2324 46.51 21.62C45.0863 23.2936 43.5458 24.8642 41.9 26.32C41.42 26.76 40.97 27.23 40.51 27.69C40.39 27.81 40.28 27.93 40.15 28.04C39.41 28.64 39.35 28.63 38.68 27.94C38.4987 27.7823 38.3084 27.6354 38.11 27.5C36.5025 26.4335 35.0546 25.1439 33.81 23.67C33.0598 22.6229 32.6543 21.3681 32.65 20.08C32.6392 19.7887 32.6896 19.4985 32.7982 19.228C32.9067 18.9576 33.0709 18.7129 33.28 18.51C33.5675 18.2173 33.8823 17.9528 34.22 17.72C34.6462 17.3731 35.1816 17.1887 35.731 17.1997C36.2804 17.2107 36.808 17.4163 37.22 17.78C37.84 18.24 38.4 18.78 39.05 19.33Z" fill="#2A2B2C"/>
</svg>
