<svg width="80" height="80" viewBox="0 0 80 80" fill="none" xmlns="http://www.w3.org/2000/svg">
<path d="M69.83 53.47C69.5719 53.5533 69.3078 53.6168 69.04 53.66C67.4 53.8 65.77 53.88 64.14 54.05C60.38 54.45 56.61 54.49 52.84 54.65C52.33 54.65 51.84 54.65 51.31 54.65C48.7692 54.5433 46.2241 54.5968 43.69 54.81C40.8526 55.035 38.0056 55.1151 35.16 55.05C33.31 55.05 31.46 55.1 29.61 55.18C27.4243 55.3 25.2331 55.28 23.05 55.12C21.76 55 20.46 55 19.16 55C18.63 55 18.48 54.75 18.59 54.22C18.6298 53.9314 18.6298 53.6386 18.59 53.35C18.59 52.67 18.5 51.99 18.46 51.27H15.2C15.2 51.49 15.2 51.67 15.2 51.86C15.2 53.3 15.26 54.73 15.32 56.17C15.32 57.34 15.44 58.52 15.54 59.7C15.615 60.0998 15.615 60.5101 15.54 60.91C15.5346 60.9588 15.5398 61.0082 15.5554 61.0549C15.5709 61.1015 15.5964 61.1442 15.63 61.18C15.7345 61.2649 15.8132 61.3774 15.857 61.5047C15.9007 61.6321 15.908 61.7691 15.8777 61.9004C15.8475 62.0316 15.7811 62.1517 15.6861 62.2471C15.591 62.3425 15.4711 62.4093 15.34 62.44C14.6627 62.6346 13.9473 62.6552 13.26 62.5C12.9 62.42 12.54 62.31 12.19 62.2C11.704 62.0521 11.2837 61.7414 11 61.32C10.7962 61.0553 10.703 60.722 10.74 60.39C10.8739 59.3296 10.7363 58.2526 10.34 57.26C9.8424 55.9693 8.99803 54.8412 7.89999 54C7.76084 53.922 7.60814 53.871 7.44999 53.85C6.76481 53.7538 6.11114 53.5005 5.53999 53.11C4.97069 52.6734 4.54016 52.0812 4.30056 51.405C4.06095 50.7288 4.02255 49.9976 4.18999 49.3C4.30999 48.54 4.49999 47.8 4.68999 47.06C4.72016 46.8183 4.82502 46.592 4.98994 46.4127C5.15487 46.2335 5.37163 46.1102 5.60999 46.06C5.79657 46.0159 5.97086 45.9305 6.11999 45.81C7.06075 45.1655 7.90865 44.395 8.63999 43.52C9.36256 42.5805 9.79681 41.4515 9.88999 40.27C9.97999 39.36 10.03 38.44 10.08 37.53C10.0726 37.3231 10.1253 37.1186 10.2318 36.9411C10.3383 36.7636 10.494 36.6208 10.68 36.53C11.1467 36.2625 11.6585 36.0829 12.19 36C12.4183 35.96 12.6517 35.96 12.88 36C12.9947 36.0403 13.1168 36.0549 13.2378 36.0428C13.3587 36.0307 13.4756 35.9922 13.58 35.93C13.6565 35.8901 13.7424 35.8715 13.8285 35.8763C13.9147 35.881 13.998 35.9089 14.0696 35.957C14.1413 36.0051 14.1986 36.0717 14.2356 36.1496C14.2727 36.2276 14.288 36.3141 14.28 36.4C14.07 38.27 14.52 40.1 14.54 41.96C14.54 42.58 14.6 43.19 14.63 43.81C14.63 43.97 14.63 44.12 14.63 44.26H17.88C17.88 43.78 17.88 43.36 17.88 42.94C17.73 40.24 17.55 37.55 17.42 34.85C17.37 33.75 17.42 32.64 17.42 31.54C17.42 30.63 17.37 29.73 17.34 28.83C17.34 28.57 17.28 28.3 17.29 28.04C17.2938 27.9765 17.312 27.9147 17.3432 27.8593C17.3744 27.8038 17.4177 27.7562 17.47 27.72C17.55 27.72 17.7 27.79 17.82 27.83C17.94 27.87 17.98 27.93 18.05 27.92L23.68 27.21C24.0576 27.1552 24.4384 27.1251 24.82 27.12C29.04 27.01 33.26 27 37.48 27.28C41.08 27.52 44.68 27.53 48.29 27.46C51.63 27.39 54.98 27.22 58.29 27.08C58.84 27.08 59.39 26.96 59.93 26.89C60.47 26.82 60.52 26.89 60.67 27.36L60.85 27.14C61.65 25.9 62.49 24.68 63.25 23.42C63.8911 22.3766 64.6457 21.4074 65.5 20.53C66.12 19.88 66.56 19.12 67.11 18.43C67.66 17.74 67.92 17.29 68.37 16.75C68.702 16.335 69.1691 16.0496 69.6899 15.9436C70.2107 15.8376 70.7522 15.9177 71.22 16.17C71.726 16.3845 72.1634 16.7339 72.4843 17.1801C72.8053 17.6263 72.9975 18.152 73.04 18.7C73.1096 19.1457 73.0324 19.602 72.82 20C72.67 20.24 72.53 20.47 72.37 20.7C72.2993 20.7771 72.2479 20.8699 72.2201 20.9707C72.1922 21.0715 72.1888 21.1776 72.21 21.28C72.2168 21.4511 72.1598 21.6186 72.05 21.75C71.86 22.01 71.63 22.25 71.43 22.51C70.7337 23.3001 70.0858 24.1316 69.49 25C68.95 25.9 68.38 26.78 67.78 27.72L69.45 27.79C69.4996 27.799 69.5504 27.799 69.6 27.79C70.04 27.6 70.3 27.74 70.32 28.23C70.32 29.41 70.32 30.59 70.38 31.77C70.45 34.08 70.52 36.4 70.6 38.71C70.6 39.81 70.72 40.9 70.74 41.99C70.74 44.22 70.82 46.44 70.83 48.66C70.83 49.66 70.74 50.74 70.72 51.78C70.72 52.19 70.72 52.61 70.72 53.02C70.72 53.28 70.64 53.52 70.39 53.58C70.1988 53.5723 70.0099 53.5352 69.83 53.47ZM19.61 54H20.12C21.12 54 22.12 54 23.12 54.11C25.2301 54.2749 27.3499 54.2749 29.46 54.11C31.5 54 33.55 54 35.6 54C37.16 54 38.73 54 40.29 54C42.82 53.9 45.34 53.7 47.87 53.61C49.37 53.61 50.87 53.69 52.39 53.61C56.2 53.47 60.02 53.42 63.82 53.02C65.33 52.86 66.82 52.79 68.37 52.68L69.73 52.57C69.73 52.33 69.73 52.02 69.73 51.72C69.73 50.72 69.84 49.64 69.84 48.6C69.84 46.71 69.84 44.83 69.76 42.95C69.76 41.51 69.69 40.06 69.61 38.62C69.4134 35.6708 69.3767 32.7131 69.5 29.76C69.5 29.43 69.5 29.1 69.5 28.76L67.5 28.59C67.3988 28.585 67.2982 28.6087 67.2098 28.6582C67.1214 28.7077 67.0487 28.7811 67 28.87C66.31 29.87 65.6 30.87 64.92 31.87C64.24 32.87 63.38 34.14 62.65 35.3C62.4469 35.7693 62.0957 36.1592 61.65 36.41C60.91 36.74 60.23 37.18 59.53 37.57C59.23 37.74 58.93 37.9 58.65 38.09C58.03 38.53 57.57 38.34 57.49 37.58C57.475 37.3803 57.475 37.1797 57.49 36.98C57.5089 36.1506 57.3803 35.3244 57.11 34.54C57.063 34.4162 56.9954 34.3012 56.91 34.2C56.8576 34.1477 56.817 34.0849 56.7909 34.0157C56.7647 33.9465 56.7537 33.8725 56.7584 33.7987C56.7631 33.7248 56.7836 33.6529 56.8183 33.5876C56.8531 33.5223 56.9014 33.4651 56.96 33.42C57.0607 33.3466 57.1429 33.2507 57.2 33.14C57.61 32.41 57.97 31.65 58.41 30.94C58.99 30.01 59.63 29.13 60.25 28.22C60.31 28.13 60.36 28.04 60.44 27.9C60.01 27.97 59.64 28.08 59.28 28.1C57.76 28.17 56.28 28.21 54.72 28.29C50.46 28.51 46.2 28.55 41.94 28.55C41.63 28.55 41.32 28.55 41.01 28.55C38.86 28.44 36.7 28.27 34.55 28.22C31.45 28.15 28.34 28.16 25.24 28.14C24.72 28.14 24.24 28.19 23.68 28.24C22.06 28.39 20.44 28.56 18.83 28.72L17.95 28.84L19 44.15H19.16C21.04 44.05 22.91 43.91 24.79 43.86C27 43.8 29.21 43.78 31.42 43.86C33 43.86 34.58 43.86 36.17 43.78C37.9776 43.6033 39.7949 43.5465 41.61 43.61C42.84 43.68 44.08 43.66 45.31 43.68C46.54 43.7 47.58 43.75 48.72 43.73C49.8176 43.8184 50.9196 43.8418 52.02 43.8C52.3516 43.7587 52.6859 43.7419 53.02 43.75C53.1552 43.7339 53.2923 43.7487 53.4209 43.7933C53.5496 43.8378 53.6664 43.911 53.7627 44.0073C53.859 44.1036 53.9321 44.2204 53.9767 44.3491C54.0213 44.4777 54.0361 44.6148 54.02 44.75C54.02 45.75 54.08 46.66 54.15 47.61C54.1832 48.1944 54.2567 48.7757 54.37 49.35C54.4034 49.4705 54.4077 49.5971 54.3826 49.7196C54.3575 49.8421 54.3037 49.9568 54.2256 50.0544C54.1475 50.1521 54.0473 50.2298 53.9334 50.2811C53.8194 50.3325 53.6949 50.3561 53.57 50.35C53.01 50.35 52.44 50.29 51.88 50.35C51.32 50.41 50.7 50.43 50.11 50.44C49.52 50.45 48.67 50.44 47.95 50.44C45.31 50.55 42.67 50.72 40.02 50.8C38.47 50.8 36.92 50.72 35.37 50.71C33.14 50.71 30.9 50.71 28.67 50.71C27.95 50.71 27.24 50.79 26.52 50.85C25 50.97 23.52 51.11 21.98 51.21C21.16 51.21 20.34 51.21 19.51 51.21L19.61 54ZM52.86 44.81L46.92 44.7C46.92 45.18 46.92 45.7 46.92 46.11C46.92 46.35 46.81 46.54 46.59 46.54C46.412 46.508 46.252 46.4119 46.14 46.27C46.07 46.21 46.07 46.06 46.07 45.94C46.07 45.53 46.07 45.12 46.07 44.72H42.42C42.42 45.31 42.48 45.85 42.55 46.4C42.62 46.95 42.74 47.4 42.83 47.93C42.92 48.46 42.76 48.58 42.51 48.63C42.3656 48.6411 42.2227 48.5948 42.1123 48.5012C42.0018 48.4076 41.9327 48.2742 41.92 48.13C41.8 47.53 41.67 46.94 41.61 46.34C41.55 45.74 41.61 45.22 41.61 44.63H38.35C38.43 45.04 38.5 45.41 38.56 45.77C38.5806 45.8857 38.5806 46.0042 38.56 46.12C38.56 46.34 38.4 46.53 38.17 46.5C38.0022 46.441 37.8559 46.333 37.75 46.19C37.6843 46.0669 37.65 45.9295 37.65 45.79C37.59 45.43 37.54 45.07 37.48 44.68L34.28 44.86C34.3083 44.9919 34.3283 45.1255 34.34 45.26C34.45 46.44 34.56 47.62 34.65 48.81C34.6651 48.8821 34.6636 48.9568 34.6459 49.0283C34.6281 49.0998 34.5944 49.1665 34.5473 49.2232C34.5002 49.2799 34.4409 49.3252 34.3738 49.3558C34.3068 49.3865 34.2337 49.4015 34.16 49.4C34.0883 49.4015 34.017 49.3881 33.9507 49.3608C33.8844 49.3334 33.8245 49.2926 33.7747 49.2409C33.7249 49.1893 33.6863 49.1279 33.6614 49.0606C33.6365 48.9933 33.6258 48.9216 33.63 48.85C33.63 48.12 33.55 47.38 33.48 46.66C33.41 45.94 33.33 45.46 33.25 44.87L30.78 44.77C30.61 44.77 30.56 44.83 30.54 44.99C30.54 45.38 30.45 45.77 30.4 46.16C30.4 46.36 30.26 46.53 30.06 46.48C29.86 46.43 29.81 46.29 29.73 46.15C29.7042 46.0483 29.7042 45.9417 29.73 45.84C29.73 45.48 29.8 45.11 29.84 44.72H27.27C27.27 44.8 27.27 44.84 27.27 44.88C27.1895 46.0586 27.2398 47.2425 27.42 48.41C27.4395 48.4711 27.4457 48.5357 27.4383 48.5994C27.4308 48.6631 27.4098 48.7245 27.3766 48.7794C27.3435 48.8343 27.299 48.8815 27.2461 48.9179C27.1932 48.9542 27.1332 48.9788 27.07 48.99C26.9428 49.0103 26.8128 48.9797 26.708 48.9048C26.6032 48.83 26.532 48.7169 26.51 48.59C26.4795 48.4551 26.4595 48.318 26.45 48.18C26.45 47.1 26.39 46.02 26.35 44.93C26.35 44.87 26.35 44.81 26.35 44.72C26.1535 44.7098 25.9565 44.7098 25.76 44.72C25.36 44.72 24.9 44.58 24.59 44.99C24.59 44.99 24.51 44.99 24.47 44.99L23.36 45.25C23.36 45.59 23.44 45.93 23.5 46.25C23.534 46.3573 23.5307 46.473 23.4908 46.5782C23.4509 46.6835 23.3766 46.7722 23.28 46.83C23.2339 46.8637 23.1814 46.8876 23.1258 46.9004C23.0701 46.9131 23.0125 46.9144 22.9563 46.9041C22.9002 46.8938 22.8467 46.8722 22.7992 46.8405C22.7517 46.8089 22.7111 46.7678 22.68 46.72C22.5396 46.4784 22.4415 46.2146 22.39 45.94C22.3651 45.7073 22.3651 45.4727 22.39 45.24H19.06C18.9877 45.9899 19.059 46.7467 19.27 47.47C19.3 47.5308 19.3172 47.597 19.3208 47.6647C19.3244 47.7323 19.3142 47.8 19.2908 47.8636C19.2674 47.9272 19.2314 47.9854 19.1848 48.0346C19.1383 48.0838 19.0822 48.1231 19.02 48.15C18.9603 48.181 18.8947 48.1989 18.8276 48.2024C18.7604 48.2059 18.6933 48.195 18.6308 48.1704C18.5682 48.1457 18.5117 48.1079 18.4649 48.0596C18.4182 48.0112 18.3824 47.9534 18.36 47.89C18.2137 47.5738 18.1191 47.2362 18.08 46.89C18.08 46.34 18.08 45.78 18.08 45.19H16.08C16.08 45.7 16.14 46.19 16.19 46.73C16.19 47.06 16.12 47.28 15.86 47.32C15.6 47.36 15.42 47.18 15.4 46.87C15.35 46.31 15.34 45.74 15.31 45.17H14.71L15.15 50.35L18.15 50.26C19.05 50.26 19.95 50.26 20.86 50.26C23.26 50.26 25.63 49.83 28.04 49.84C30.75 49.84 33.46 49.66 36.17 49.69C38.47 49.69 40.76 49.75 43.06 49.6C44.66 49.49 46.26 49.43 47.86 49.34C48.228 49.2921 48.5989 49.2687 48.97 49.27C49.8025 49.3749 50.6435 49.395 51.48 49.33C52.08 49.33 52.68 49.26 53.28 49.23L52.86 44.81ZM70.15 22.38L71.03 21.38C70.49 20.95 70.03 20.53 69.47 20.15C68.91 19.77 68.38 19.43 67.8 19.05L66.8 20.33L70.15 22.38ZM58.15 34.38L58.08 34.49C58.1657 34.7922 58.2325 35.0995 58.28 35.41C58.28 35.81 58.45 36.08 58.88 36.14C59.032 36.1941 59.1792 36.261 59.32 36.34C59.3946 36.3651 59.4754 36.3651 59.55 36.34L60.65 35.73L58.15 34.38ZM7.91999 48.67C7.74209 49.0911 7.71386 49.5605 7.83999 50C7.91999 50.27 8.03999 50.43 8.33999 50.42C8.40123 50.4269 8.46323 50.4214 8.52231 50.4039C8.58139 50.3864 8.63635 50.3571 8.68392 50.318C8.73149 50.2788 8.7707 50.2305 8.79923 50.1758C8.82776 50.1212 8.84502 50.0614 8.84999 50C8.84999 49.84 8.90999 49.67 8.92999 49.5C8.93147 49.3559 8.89301 49.2142 8.81888 49.0907C8.74474 48.9671 8.63783 48.8665 8.50999 48.8L7.91999 48.67Z" fill="#2A2B2C"/>
<path d="M24.68 38.68L25.68 38.62C27.36 38.62 29.03 38.48 30.68 38.49C33.14 38.49 35.59 38.63 38.04 38.62C40.14 38.62 42.2333 38.54 44.32 38.38C46.68 38.21 49.05 38.07 51.42 38.09C52.99 38.09 54.56 38.02 56.13 37.98C56.38 37.98 56.62 37.98 56.87 37.98C56.9412 37.9771 57.0123 37.9891 57.0786 38.0154C57.1449 38.0416 57.2049 38.0814 57.2549 38.1323C57.3048 38.1832 57.3435 38.244 57.3685 38.3108C57.3935 38.3776 57.4042 38.4488 57.4 38.52C57.4 38.81 57.17 38.99 56.83 38.99C53.94 38.99 51.05 39.05 48.16 39.13C46.62 39.13 45.09 39.33 43.55 39.45C40.8141 39.6383 38.0697 39.6717 35.33 39.55C33.25 39.48 31.17 39.55 29.09 39.55H25.74H25.33C24.88 39.6 24.82 39.68 24.89 40.11C24.89 40.11 24.89 40.19 24.89 40.23C24.89 40.61 24.77 40.86 24.48 40.88C24.19 40.9 24.03 40.71 23.99 40.34C23.9 39.52 23.82 38.71 23.72 37.9C23.72 37.64 23.77 37.45 24.04 37.4C24.31 37.35 24.46 37.5 24.51 37.76C24.56 38.02 24.63 38.41 24.68 38.68Z" fill="#2A2B2C"/>
<path d="M50.37 46.17C50.8 46.23 51.13 46.26 51.45 46.32C51.5865 46.3516 51.7148 46.4115 51.8267 46.4959C51.9386 46.5802 52.0314 46.6872 52.0993 46.8097C52.1672 46.9323 52.2086 47.0678 52.2207 47.2074C52.2329 47.3469 52.2156 47.4875 52.17 47.62C52.0928 47.8612 51.9817 48.0901 51.84 48.3C51.7333 48.4822 51.5596 48.6156 51.356 48.6716C51.1524 48.7276 50.9349 48.7019 50.75 48.6C50.5142 48.4988 50.2839 48.3853 50.06 48.26C49.9069 48.1585 49.7789 48.0236 49.6857 47.8653C49.5925 47.707 49.5365 47.5296 49.5221 47.3465C49.5076 47.1634 49.535 46.9794 49.6022 46.8085C49.6694 46.6376 49.7747 46.4842 49.91 46.36C50.0517 46.2715 50.2071 46.2073 50.37 46.17ZM51.13 47.64C51.13 47.49 51.13 47.29 51.13 47.26C50.9164 47.1369 50.6921 47.0331 50.46 46.95C50.34 47.42 50.34 47.42 51.13 47.64Z" fill="#2A2B2C"/>
</svg>
