<svg width="80" height="80" viewBox="0 0 80 80" fill="none" xmlns="http://www.w3.org/2000/svg">
<path d="M55.82 59H57C58.7814 58.9836 60.561 59.1174 62.32 59.4C63.47 59.55 64.63 59.67 65.78 59.85C67.2428 60.113 68.6811 60.4977 70.08 61C70.22 61 70.37 61.07 70.51 61.12C70.65 61.17 70.75 61.2 70.78 61.28C70.91 61.6 71.4 61.68 71.34 62.12C71.34 62.32 71.34 62.53 71.34 62.72C71.22 63.47 71.09 64.22 70.96 65.06L73.23 66.06C73.33 66.06 73.44 66.13 73.54 66.18C73.7001 66.2328 73.8334 66.3458 73.9117 66.4951C73.9901 66.6443 74.0074 66.8182 73.96 66.98C73.89 67.4 73.81 67.83 73.72 68.28H74.11C75.1363 68.2701 76.1612 68.3606 77.17 68.55C77.3298 68.5894 77.4868 68.6395 77.64 68.7C77.7572 68.745 77.8567 68.8269 77.9234 68.9333C77.9901 69.0397 78.0205 69.1649 78.01 69.29C78.01 70.29 78.01 71.29 78.01 72.23C78.01 72.81 77.78 73.06 77.2 73.01C74.03 72.75 70.85 72.84 67.68 72.73C65.68 72.66 63.58 72.73 61.54 72.73C59.69 72.73 57.85 72.6 56.01 72.49C54.01 72.36 51.94 72.29 49.9 72.25C49.113 72.2703 48.3281 72.3405 47.55 72.46C47.29 72.46 47.05 72.54 47.08 72.89C47.0777 72.9319 47.0656 72.9727 47.0448 73.0092C47.024 73.0456 46.9949 73.0767 46.96 73.1C46.74 73.21 46.73 73.41 46.67 73.6C46.5913 73.9511 46.4357 74.2803 46.2144 74.5639C45.993 74.8475 45.7114 75.0784 45.39 75.24C44.5459 75.6925 43.6147 75.9587 42.659 76.0208C41.7034 76.0829 40.7455 75.9394 39.85 75.6C38.6739 75.1786 37.6549 74.4074 36.93 73.39C36.743 73.1679 36.5427 72.9576 36.33 72.76C36.33 72.76 36.27 72.76 36.26 72.71C36.09 72.31 35.72 72.36 35.4 72.35C32.7 72.25 29.99 72.18 27.28 72.06C25.54 71.98 23.8 71.83 22.06 71.71C21.72 71.71 21.3867 71.71 21.06 71.71C17.48 71.71 13.9 71.66 10.32 71.66C8.83999 71.66 7.36999 71.72 5.88999 71.77C5.27999 71.77 4.66999 71.89 4.05999 71.96C3.62999 71.96 3.37999 71.88 3.31999 71.45C3.21999 70.64 3.12999 69.81 3.10999 68.99C3.10999 68.45 3.28999 68.28 3.81999 68.19C4.34999 68.1 5.11999 67.99 5.73999 67.9C5.73999 67.5 5.73999 67.09 5.73999 66.68C5.72916 66.5153 5.76236 66.3507 5.83617 66.2031C5.90997 66.0555 6.02174 65.9301 6.15999 65.84C6.52999 65.59 6.87999 65.32 7.24999 65.09C7.34886 65.0233 7.4322 64.9361 7.49432 64.8343C7.55644 64.7324 7.59589 64.6184 7.60999 64.5C7.71999 63.81 7.81999 63.12 7.95999 62.44C7.99339 62.2653 8.0894 62.1089 8.22999 62C8.36999 61.91 8.54999 61.88 8.69999 61.8C9.80869 61.1839 11.0171 60.7676 12.27 60.57C13.97 60.27 15.67 59.96 17.37 59.72C18.59 59.54 19.82 59.47 21.04 59.36H21.37C21.25 53.84 21.37 48.36 21.5 42.82H21.28L19 43C18.8995 43.0182 18.7959 42.9972 18.7104 42.9414C18.6248 42.8856 18.5639 42.7993 18.54 42.7C18.46 42.47 18.54 42.3 18.87 42.13C18.66 41.86 18.82 41.63 18.96 41.39C20.22 39.16 21.49 36.94 22.74 34.71C23.06 34.14 23.31 33.54 23.58 32.95C23.67 32.75 23.78 32.65 24 32.69C24.022 32.6999 24.0458 32.7051 24.07 32.7051C24.0941 32.7051 24.118 32.6999 24.14 32.69C24.27 32.45 24.49 32.46 24.71 32.46C26.04 32.46 27.38 32.46 28.71 32.46C30.25 32.52 31.77 32.65 33.3 32.75C33.73 32.75 34.16 32.75 34.62 32.75L34.72 28.62L33.55 28.48C33.36 28.48 33.18 28.39 32.98 28.48C32.8934 28.5185 32.7954 28.5223 32.7061 28.4907C32.6168 28.4591 32.543 28.3944 32.5 28.31C32.4365 28.2344 32.4017 28.1388 32.4017 28.04C32.4017 27.9412 32.4365 27.8456 32.5 27.77C32.795 27.4199 33.1088 27.0861 33.44 26.77C34.7463 25.657 35.9634 24.4433 37.08 23.14C37.36 22.8 37.68 22.49 37.98 22.14C38.0578 22.0546 38.159 21.9939 38.271 21.9654C38.383 21.937 38.5008 21.942 38.61 21.98C38.9175 22.0618 39.2039 22.2084 39.45 22.41C40.8 23.67 42.13 24.94 43.45 26.22C43.81 26.57 44.12 26.95 44.45 27.31C44.5773 27.4372 44.7144 27.5542 44.86 27.66C44.9432 27.7091 45.0096 27.7821 45.0506 27.8695C45.0917 27.9569 45.1054 28.0547 45.09 28.15C45.0721 28.2421 45.0259 28.3264 44.9577 28.3909C44.8896 28.4555 44.803 28.4971 44.71 28.51C44.71 28.51 44.61 28.51 44.59 28.51C44.4177 28.6539 44.2106 28.7501 43.9894 28.7887C43.7683 28.8273 43.5409 28.807 43.33 28.73C43.2968 28.7251 43.2631 28.7251 43.23 28.73C43.1738 30.0494 43.234 31.3712 43.41 32.68H43.62C46.49 32.68 49.36 32.78 52.24 32.81C52.75 32.81 53.24 32.71 53.76 32.67C53.8667 32.6636 53.9725 32.6938 54.0597 32.7556C54.147 32.8174 54.2106 32.9072 54.24 33.01C54.3967 33.4281 54.5805 33.8357 54.79 34.23C55.7458 35.9117 56.5877 37.6556 57.31 39.45C57.64 40.25 58.06 41 58.45 41.77C58.5044 41.8811 58.5249 42.0058 58.5089 42.1286C58.4929 42.2513 58.4411 42.3665 58.36 42.46C57.99 43.09 57.42 43.02 56.85 43.03C56.6 43.03 56.36 43.03 56.05 43.03C55.9484 43.448 55.8749 43.8722 55.83 44.3C55.74 47.2 55.64 50.1 55.59 53C55.59 54.3 55.65 55.6 55.69 56.91C55.69 57.46 55.69 58.01 55.69 58.56C55.8 58.79 55.81 58.91 55.82 59ZM32.26 59.7C32.26 59.6 32.26 59.52 32.26 59.44C32.1776 58.9641 32.1308 58.4828 32.12 58C32.12 57 32.23 56 32.33 55C32.3816 54.0617 32.6215 53.1434 33.0356 52.2999C33.4496 51.4563 34.0293 50.7048 34.74 50.09C35.3908 49.4682 36.1839 49.0151 37.05 48.77C38.1867 48.3946 39.3859 48.2451 40.58 48.33C41.1301 48.3974 41.6464 48.6311 42.06 49C42.7194 49.5762 43.2486 50.2862 43.6124 51.0828C43.9762 51.8794 44.1663 52.7443 44.17 53.62C44.17 55.76 44.17 57.9 44.12 60.05C44.12 60.16 44.12 60.27 44.12 60.38V61.48C47.567 60.2215 51.1645 59.4214 54.82 59.1C54.81 58.9001 54.81 58.6999 54.82 58.5C54.82 58.37 54.9 58.24 54.9 58.11C54.9 56.87 54.79 55.63 54.8 54.4C54.8 51.97 54.8 49.55 54.93 47.13C54.8675 45.7733 54.9649 44.414 55.22 43.08C54.99 43.08 54.77 43.08 54.55 43.08C53.77 43.15 52.99 43.28 52.2 43.3C50.2 43.36 48.2 43.41 46.2 43.41C42.58 43.41 38.96 43.41 35.35 43.13C33.54 43.02 31.74 42.93 29.93 42.85C27.49 42.75 25.05 42.63 22.61 42.75C22.45 42.75 22.36 42.82 22.34 42.96C22.34 43.33 22.23 43.7 22.22 44.08C22.22 46.02 22.17 47.97 22.22 49.92C22.22 53 22.22 56.09 22.22 59.17C22.22 59.17 22.22 59.24 22.22 59.26C25.5734 59.1712 28.9288 59.325 32.26 59.72V59.7ZM72.84 68.03C72.91 67.65 72.98 67.31 73.03 66.97C73.03 66.97 72.96 66.83 72.9 66.81C72.14 66.46 71.36 66.13 70.6 65.81C70.2132 65.6063 69.8392 65.3792 69.48 65.13C69.3151 64.9916 69.1337 64.874 68.94 64.78C68.2392 64.5085 67.5209 64.2847 66.79 64.11C64.5557 63.6529 62.2806 63.4251 60 63.43C57.71 63.43 55.43 63.61 53.16 63.8C51.268 63.9715 49.3944 64.3061 47.56 64.8C46.2249 65.2054 44.9269 65.7239 43.68 66.35C42.8603 66.6521 42.1091 67.1145 41.47 67.71C41.4032 67.7589 41.3255 67.7909 41.2436 67.8031C41.1618 67.8153 41.0781 67.8074 41 67.78C40.79 67.71 40.51 67.63 40.52 67.33C40.53 67.03 40.43 67.06 40.28 66.99C39.18 66.48 38.11 65.92 36.99 65.45C35.821 64.8859 34.6068 64.4209 33.36 64.06C29.8568 63.2176 26.2629 62.8112 22.66 62.85C19.5663 62.8325 16.4783 63.1172 13.44 63.7C11.9351 63.9799 10.4515 64.3642 8.99999 64.85C8.91068 64.8973 8.82684 64.9543 8.74999 65.02C8.64833 65.1158 8.54151 65.2059 8.42999 65.29C8.11999 65.49 7.79999 65.67 7.49999 65.87C7.19999 66.07 7.01999 66.24 6.78999 66.43C6.71999 66.49 6.61999 66.57 6.60999 66.65C6.60999 66.91 6.60999 67.18 6.60999 67.48L7.60999 67.3C9.78999 66.84 11.96 66.36 14.15 65.93C16.6029 65.4208 19.1053 65.1893 21.61 65.24C23.38 65.29 25.15 65.42 26.92 65.51C28.7613 65.6247 30.5851 65.9365 32.36 66.44C34.4161 67.018 36.399 67.8299 38.27 68.86C39.2152 69.4738 40.2203 69.9898 41.27 70.4C41.3926 70.4451 41.5273 70.4451 41.65 70.4C42.35 70.07 43.03 69.67 43.75 69.4C45.01 68.9 46.31 68.49 47.58 68.03C50.9965 66.8569 54.578 66.2358 58.19 66.19C59.68 66.19 61.19 66.19 62.67 66.3C64.8538 66.4058 67.0231 66.7138 69.15 67.22C70.35 67.49 71.57 67.76 72.84 68.05V68.03ZM8.49999 64.03C9.10999 63.84 9.66999 63.64 10.25 63.49C13.5749 62.6041 16.9907 62.1042 20.43 62C24.0614 61.8327 27.7002 62.0674 31.28 62.7C32.3585 62.859 33.4221 63.1065 34.46 63.44C36.14 64.06 37.76 64.82 39.39 65.55C40.07 65.85 40.73 66.22 41.39 66.55C41.67 66.38 41.96 66.2 42.27 66.03C44.7585 64.6537 47.4642 63.7134 50.27 63.25C52 62.98 53.75 62.84 55.49 62.69C57.8177 62.4745 60.1595 62.4578 62.49 62.64C63.952 62.7515 65.4073 62.9384 66.85 63.2C67.9973 63.4087 69.1065 63.7897 70.14 64.33C70.24 63.66 70.36 63.02 70.43 62.38C70.443 62.3213 70.4435 62.2605 70.4315 62.2015C70.4196 62.1426 70.3954 62.0868 70.3605 62.0378C70.3256 61.9888 70.2809 61.9477 70.2291 61.917C70.1773 61.8864 70.1197 61.867 70.06 61.86C69.9398 61.8406 69.8223 61.8071 69.71 61.76C68.1763 61.2479 66.6001 60.8731 65 60.64C63.67 60.45 62.34 60.34 61 60.14C58.4583 59.7949 55.8817 59.7949 53.34 60.14C51.84 60.33 50.34 60.7 48.86 61C46.1362 61.6309 43.5047 62.6088 41.03 63.91C40.9762 63.9454 40.9149 63.9677 40.8509 63.975C40.7869 63.9824 40.7221 63.9745 40.6617 63.9521C40.6013 63.9297 40.5471 63.8934 40.5033 63.8461C40.4596 63.7988 40.4276 63.7419 40.41 63.68C40.41 63.45 40.24 63.39 40.07 63.31L39.28 62.91C38.112 62.279 36.8946 61.7439 35.64 61.31C33.8913 60.7817 32.0845 60.4694 30.26 60.38C28.67 60.23 27.07 60.17 25.47 60.12C24.47 60.12 23.4 60.12 22.36 60.12C22.2509 60.1412 22.1503 60.1933 22.07 60.27C21.91 60.42 21.71 60.5 21.55 60.36C21.4686 60.2976 21.3742 60.2543 21.2737 60.2335C21.1733 60.2128 21.0695 60.215 20.97 60.24L20.37 60.3C19.24 60.41 18.11 60.47 17 60.62C15.42 60.83 13.84 61.1 12.27 61.36C11.1757 61.501 10.1078 61.8008 9.09999 62.25C8.9764 62.2905 8.86809 62.3677 8.78948 62.4713C8.71088 62.575 8.66571 62.7001 8.65999 62.83C8.66999 63.26 8.56999 63.65 8.49999 64.07V64.03ZM38.29 49.5V50.17C38.29 53.3 38.23 56.43 38.29 59.56C38.29 60.05 38.03 60.47 38.08 60.95C38.08 61.03 37.98 61.13 37.93 61.23L39.23 61.88L40.98 62.74C41.0805 62.7743 41.1895 62.7743 41.29 62.74L43.09 62C43.1261 61.9928 43.1605 61.9786 43.1911 61.9581C43.2218 61.9376 43.248 61.9113 43.2685 61.8807C43.2889 61.85 43.3031 61.8156 43.3102 61.7795C43.3174 61.7433 43.3173 61.7061 43.31 61.67C43.31 61.2 43.24 60.73 43.24 60.26C43.24 58.83 43.24 57.41 43.24 55.99C43.24 55.32 43.24 54.65 43.24 53.99C43.2571 53.2515 43.1261 52.5171 42.8548 51.8301C42.5834 51.1431 42.1771 50.5174 41.66 49.99C41.406 49.6726 41.0546 49.4477 40.66 49.35C39.8708 49.1864 39.0522 49.2382 38.29 49.5ZM42.29 28.73C40.01 28.53 37.71 28.6 35.4 28.62C35.396 28.6933 35.396 28.7667 35.4 28.84C35.4 30.31 35.55 31.78 35.46 33.25C35.45 33.3598 35.45 33.4702 35.46 33.58L35.73 37.15C35.73 37.41 35.73 37.67 35.73 37.96H36.19C37.68 38.07 39.19 38.19 40.64 38.28C40.9592 38.3637 41.2921 38.382 41.6186 38.3339C41.9451 38.2858 42.2585 38.1722 42.54 38C42.7004 34.9087 42.6235 31.8096 42.31 28.73H42.29ZM37.37 61V49.67C37.1956 49.708 37.0249 49.7616 36.86 49.83C35.4379 50.4659 34.3091 51.6162 33.7 53.05C33.3794 53.9598 33.181 54.908 33.11 55.87C32.9101 57.112 32.9101 58.378 33.11 59.62C33.1151 59.696 33.1489 59.7673 33.2046 59.8193C33.2603 59.8713 33.3338 59.9002 33.41 59.9C34.18 60.06 34.95 60.22 35.71 60.43C36.29 60.58 36.81 60.81 37.37 61ZM70 68.46V68.37L68.47 68.14V67.96L68.13 67.88C65.5554 67.3787 62.9424 67.101 60.32 67.05C58.5497 66.9847 56.7771 67.065 55.02 67.29C53.9661 67.3696 52.9177 67.5099 51.88 67.71C50.42 68.05 48.99 68.52 47.55 68.93L47.4 69.01L50.49 68.85C53.18 68.71 55.86 68.56 58.55 68.44C59.92 68.37 61.3 68.35 62.68 68.34C64.26 68.34 65.85 68.34 67.44 68.34C68.3 68.38 69.13 68.43 70 68.46ZM32.65 67.51C31.3616 67.0174 30.0186 66.6816 28.65 66.51C27.38 66.4 26.11 66.31 24.84 66.21C22.0482 65.9632 19.2377 66.0269 16.46 66.4C14.2086 66.706 11.9753 67.1333 9.76999 67.68L9.61999 67.74C10.04 67.74 10.46 67.74 10.87 67.74C11.87 67.74 12.87 67.64 13.81 67.62C15.25 67.62 16.69 67.62 18.13 67.62C20.77 67.56 23.42 67.43 26.06 67.39C27.88 67.39 29.71 67.39 31.54 67.45C31.86 67.45 32.2 67.48 32.62 67.51H32.65ZM38.46 70C38.5912 70.515 38.8374 70.9937 39.18 71.4C39.4551 71.8868 39.8549 72.2915 40.3381 72.5727C40.8214 72.8539 41.3708 73.0014 41.93 73C42.3258 73.0557 42.7283 72.9631 43.06 72.74C43.7149 72.2431 44.1805 71.5375 44.38 70.74C44.44 70.49 44.5 70.24 44.56 69.95L44.36 70.02C43.36 70.49 42.46 70.95 41.53 71.43C41.18 71.6 40.97 71.56 40.79 71.24C40.7433 71.1695 40.6774 71.114 40.6 71.08C40.32 70.94 40.02 70.82 39.74 70.67L38.46 70Z" fill="#2A2B2C"/>
<path d="M27.28 56.54C26.5 56.54 25.71 56.54 24.92 56.54C24.6917 56.5129 24.471 56.4416 24.27 56.33C24.0711 56.2242 23.9091 56.0605 23.8055 55.8604C23.7019 55.6603 23.6616 55.4335 23.69 55.21C23.69 52.72 23.69 50.21 23.8 47.75C23.8322 47.2175 23.94 46.6922 24.12 46.19C24.1524 46.0312 24.2389 45.8886 24.3647 45.7865C24.4906 45.6844 24.6479 45.6291 24.81 45.63C25.81 45.63 26.75 45.7 27.72 45.77C28.69 45.84 29.46 45.94 30.32 46.01C30.4634 46.0137 30.6037 46.0521 30.7291 46.1217C30.8544 46.1914 30.9611 46.2903 31.04 46.41C31.1077 46.5426 31.1355 46.692 31.12 46.84C30.99 48.43 30.81 50.02 30.73 51.61C30.67 52.83 30.73 54.07 30.73 55.3C30.725 55.3432 30.725 55.3868 30.73 55.43C30.78 55.97 30.73 55.9 30.3 56.24C29.9471 56.4675 29.528 56.5697 29.11 56.53C28.49 56.53 27.88 56.53 27.26 56.53L27.28 56.54ZM27.01 46.54C26.55 46.54 26.13 46.45 25.7 46.44C24.75 46.44 24.96 46.31 24.76 47.17C24.7384 47.2489 24.7217 47.3291 24.71 47.41C24.66 48.64 24.62 49.86 24.57 51.09C24.57 51.09 24.57 51.09 24.57 51.16H26.8L27.01 46.54ZM27.69 51.14H29.82L30.17 46.86L27.89 46.63L27.69 51.14ZM27.69 51.97L27.54 55.68L29.86 55.59V54.87C29.86 54.03 29.86 53.18 29.86 52.34C29.86 52.25 29.77 52.09 29.71 52.08C29.06 52.05 28.39 52 27.71 52L27.69 51.97ZM26.69 55.72L26.85 52.07C26.0719 51.9264 25.2712 51.9641 24.51 52.18C24.51 53.18 24.59 54.18 24.61 55.18C24.6042 55.2327 24.6099 55.286 24.6265 55.3364C24.6431 55.3867 24.6704 55.4329 24.7064 55.4717C24.7425 55.5106 24.7864 55.5413 24.8354 55.5617C24.8843 55.5821 24.937 55.5918 24.99 55.59C25.52 55.69 26.07 55.71 26.67 55.74L26.69 55.72Z" fill="#2A2B2C"/>
<path d="M49.29 47.22C50 47.22 50.69 47.14 51.38 47.13C51.7625 47.0951 52.1475 47.0951 52.53 47.13C52.91 47.19 53.05 47.41 53.1 47.8C53.19 48.44 53.32 49.08 53.36 49.73C53.3965 50.2942 53.373 50.8607 53.29 51.42C53.0773 53.0219 52.9538 54.6344 52.92 56.25C52.92 57.14 52.72 57.48 51.6 57.48C50.09 57.48 48.6 57.33 47.09 57.25C47.0061 57.253 46.9224 57.2383 46.8445 57.2069C46.7666 57.1756 46.6961 57.1282 46.6377 57.0678C46.5793 57.0075 46.5341 56.9356 46.5052 56.8567C46.4764 56.7779 46.4644 56.6938 46.47 56.61C46.38 55.42 46.3 54.23 46.21 53.05C46.1916 52.9312 46.1395 52.8202 46.06 52.73C46.0159 52.6871 45.9808 52.6358 45.9568 52.5791C45.9328 52.5224 45.9205 52.4615 45.9205 52.4C45.9205 52.3384 45.9328 52.2775 45.9568 52.2208C45.9808 52.1642 46.0159 52.1129 46.06 52.07C46.1371 51.9772 46.1795 51.8606 46.18 51.74C46.18 51.09 46.08 50.45 46.08 49.8C46.0623 49.2767 46.106 48.7531 46.21 48.24C46.3065 47.8901 46.505 47.5768 46.78 47.34C47.008 47.2024 47.2759 47.146 47.54 47.18C48.1 47.2 48.71 47.22 49.29 47.22ZM50.1 48.07C49.9166 49.3249 49.883 50.5972 50 51.86L52.26 51.7C52.26 51.7 52.36 51.62 52.36 51.57C52.4462 51.0947 52.493 50.613 52.5 50.13C52.4432 49.4587 52.3497 48.7911 52.22 48.13C52.2065 48.0889 52.183 48.0519 52.1515 48.0222C52.1201 47.9925 52.0818 47.9711 52.04 47.96C51.4 48 50.74 48.05 50.1 48.07ZM50.1 56.51C50.52 56.56 50.92 56.61 51.32 56.64C51.4663 56.655 51.6137 56.655 51.76 56.64C51.92 56.64 51.98 56.55 51.98 56.39C51.98 56.23 51.98 55.81 51.98 55.51C51.98 54.56 52.08 53.6 52.14 52.61L50 52.73L50.1 56.51ZM49.1 48.04C48.4084 48.0099 47.7159 48.0704 47.04 48.22C46.8449 49.3953 46.8449 50.5947 47.04 51.77H49.1V48.04ZM49.1 52.69H47.07L47.32 56.42L49.26 56.56L49.1 52.69Z" fill="#2A2B2C"/>
<path d="M40.15 57.37L39.25 57.27C39.19 57.2675 39.1311 57.2529 39.0768 57.2273C39.0225 57.2016 38.9739 57.1654 38.9338 57.1207C38.8937 57.0759 38.863 57.0236 38.8435 56.9668C38.8239 56.91 38.8159 56.8499 38.82 56.79C38.8284 56.7283 38.8493 56.6689 38.8813 56.6155C38.9134 56.5621 38.956 56.5158 39.0064 56.4793C39.0569 56.4428 39.1143 56.417 39.1751 56.4034C39.2359 56.3897 39.2988 56.3886 39.36 56.4L40.36 56.48C40.66 56.48 40.86 56.66 40.86 56.92C40.8575 56.9822 40.8425 57.0433 40.8157 57.0995C40.7889 57.1557 40.751 57.2059 40.7042 57.2471C40.6575 57.2882 40.6029 57.3194 40.5437 57.3389C40.4845 57.3583 40.422 57.3655 40.36 57.36H40.17L40.15 57.37Z" fill="#2A2B2C"/>
<path d="M38.81 36.71C38.1233 36.6406 37.4725 36.3692 36.94 35.93C36.645 35.6711 36.4326 35.331 36.3295 34.9523C36.2264 34.5735 36.237 34.1728 36.36 33.8C36.461 33.318 36.6677 32.8644 36.9651 32.4718C37.2625 32.0793 37.6433 31.7576 38.08 31.53C38.4764 31.2964 38.9486 31.2273 39.3953 31.3376C39.842 31.4479 40.2278 31.7287 40.47 32.12C40.883 32.7386 41.1497 33.443 41.25 34.18C41.2842 34.5129 41.2453 34.8493 41.1361 35.1657C41.0269 35.482 40.8499 35.7707 40.6176 36.0117C40.3852 36.2526 40.1031 36.4399 39.7909 36.5605C39.4787 36.6811 39.144 36.7321 38.81 36.71ZM39.37 32C39.247 31.9871 39.123 31.9871 39 32C38.4908 32.1417 38.0375 32.4364 37.7012 32.8442C37.365 33.2519 37.1621 33.7531 37.12 34.28C37.0873 34.5215 37.1366 34.7671 37.2598 34.9773C37.3831 35.1876 37.5733 35.3505 37.8 35.44C38.0658 35.5624 38.3398 35.6659 38.62 35.75C38.8516 35.808 39.0942 35.8054 39.3245 35.7424C39.5548 35.6794 39.7649 35.5582 39.9347 35.3904C40.1046 35.2226 40.2283 35.0138 40.294 34.7843C40.3597 34.5548 40.3653 34.3122 40.31 34.08C40.1622 33.6228 39.9782 33.1781 39.76 32.75C39.69 32.54 39.53 32.32 39.37 32Z" fill="#2A2B2C"/>
<path d="M35.45 56.43C35.5613 56.442 35.6716 56.4621 35.78 56.49C35.8202 56.4983 35.8583 56.5145 35.8922 56.5377C35.926 56.5608 35.955 56.5905 35.9773 56.6249C35.9996 56.6593 36.0149 56.6978 36.0222 56.7381C36.0295 56.7785 36.0288 56.8199 36.02 56.86C35.9656 56.9985 35.8625 57.1123 35.73 57.18C35.5275 57.2324 35.3192 57.2593 35.11 57.26C35.0597 57.2701 35.0078 57.2693 34.9578 57.2577C34.9078 57.246 34.8608 57.2239 34.8201 57.1926C34.7794 57.1613 34.7458 57.1217 34.7216 57.0765C34.6975 57.0312 34.6833 56.9812 34.68 56.93C34.67 56.8785 34.6708 56.8256 34.6822 56.7744C34.6937 56.7233 34.7156 56.6751 34.7466 56.6328C34.7776 56.5906 34.817 56.5552 34.8623 56.5289C34.9077 56.5026 34.9579 56.4859 35.01 56.48L35.45 56.43Z" fill="#2A2B2C"/>
<path d="M38.15 33.84C38.15 33.59 38.22 33.27 38.28 32.94C38.2866 32.8835 38.3042 32.8289 38.3319 32.7792C38.3595 32.7296 38.3967 32.6859 38.4413 32.6506C38.4859 32.6153 38.537 32.5891 38.5916 32.5736C38.6463 32.558 38.7035 32.5534 38.76 32.56C38.8165 32.5666 38.8711 32.5842 38.9208 32.6119C38.9704 32.6395 39.0141 32.6767 39.0494 32.7213C39.0847 32.7659 39.1109 32.817 39.1264 32.8716C39.142 32.9263 39.1466 32.9835 39.14 33.04C39.1499 33.1498 39.1499 33.2602 39.14 33.37C39.07 33.66 39.02 33.94 39.34 34.16C39.3777 34.2308 39.3973 34.3098 39.3973 34.39C39.3973 34.4702 39.3777 34.5492 39.34 34.62C39.2939 34.6834 39.2339 34.7353 39.1645 34.7717C39.0952 34.8081 39.0183 34.8281 38.94 34.83C38.7143 34.7815 38.5123 34.6565 38.3683 34.476C38.2243 34.2956 38.1472 34.0708 38.15 33.84Z" fill="#2A2B2C"/>
</svg>
