<?xml version="1.0" encoding="utf-8"?>
<!-- Generator: Adobe Illustrator 24.3.0, SVG Export Plug-In . SVG Version: 6.00 Build 0)  -->
<svg version="1.1" id="Layer_1" xmlns="http://www.w3.org/2000/svg" xmlns:xlink="http://www.w3.org/1999/xlink" x="0px" y="0px"
	 viewBox="0 0 80 80" style="enable-background:new 0 0 80 80;" xml:space="preserve">
<style type="text/css">
	.st0{fill:#2A2B2C;}
</style>
<path class="st0" d="M55.8,59c2.2,0,4.4,0,6.5,0.4c2.8,0.3,5.9,0.7,8.5,1.9c0.1,0.3,0.6,0.4,0.6,0.8c0,1-0.2,1.9-0.4,2.9
	c0.2,0.1,2.5,1.1,2.6,1.1c0.8,0.4,0.2,1.4,0.2,2.1c1.2,0,2.3,0.1,3.4,0.3c0.3,0.1,0.6,0.1,0.8,0.4c0.2,1.1,0,2.3,0.1,3.3
	c0,0.6-0.2,0.8-0.8,0.8c-5.2-0.3-10.4-0.3-15.7-0.3c-4.7,0-9.3-0.8-14-0.3c-0.3,0-0.5,0.1-0.5,0.4c0,0.1,0,0.2-0.1,0.2
	c-0.4,0.3-0.3,1-0.7,1.5c-2.5,2.5-7.3,1.7-9.3-1.2c-0.2-0.2-0.4-0.5-0.7-0.7c-0.2-0.4-0.5-0.4-0.9-0.4C25,72.1,14.5,71.1,4.1,72
	c-0.4,0-0.7-0.1-0.7-0.5c-0.1-0.8-0.2-1.6-0.2-2.5c0-0.5,0.2-0.7,0.7-0.8c0.5-0.1,1.3-0.2,1.9-0.3c0.1-0.7-0.3-1.6,0.4-2.1
	c0.5-0.4,1.3-0.6,1.5-1.3c0.3-1,0-2.5,1.1-2.7c1.1-0.6,2.3-1,3.6-1.2c3-0.5,6-1.1,9.1-1.2c-0.1-5.5,0-11,0.1-16.5
	c-0.3-0.1-2.5,0.3-2.8,0.1c-0.3-0.2-0.3-0.6,0.2-0.8c-0.2-0.3-0.1-0.5,0.1-0.7c1.5-2.8,3.3-5.5,4.6-8.4c0.1-0.3,0.3-0.2,0.6-0.3
	c0.1-0.2,0.3-0.2,0.6-0.2c3.3-0.1,6.6,0.2,9.9,0.3l0.1-4.1c-0.4,0-1.4-0.2-1.7-0.1c-0.2,0.1-0.4,0-0.5-0.2c-0.4-0.6,0.6-1.1,0.9-1.5
	c1.7-1.4,3.1-3,4.5-4.6c0.4-0.4,1.1,0,1.5,0.3c1.9,1.8,3.8,3.6,5.6,5.5c0.2,0.3-0.1,0.7-0.5,0.6c-0.4,0.3-0.9,0.3-1.4,0.2
	c-0.1,1.3,0,2.6,0.2,4c3.4-0.1,6.9,0.3,10.4,0c0.2,0,0.4,0.1,0.5,0.3c1.4,3,3.1,6,4.3,9.1C58.2,43.3,57,43,56,43
	C55.5,48.3,55.5,53.8,55.8,59z M32.3,59.7c-0.3-3.3-0.3-7.3,2.5-9.6c1.6-1.5,5.5-2.6,7.3-1.1c1.3,1.1,2.1,2.9,2.1,4.6
	c0,2.6,0,5.2,0,7.9c3.4-1.3,7-2.1,10.7-2.4c0.2-5.3-0.3-10.7,0.4-16c-10.9,1-21.7-0.4-32.6-0.3c-0.2,0-0.2,0.1-0.3,0.2
	c0,0.4-0.1,0.7-0.1,1.1c0,5.1,0,10.1,0,15.2C25.6,59.2,28.9,59.3,32.3,59.7L32.3,59.7z M72.8,68c0.1-0.4,0.1-0.7,0.2-1.1
	c0,0-0.1-0.1-0.1-0.2c-1.4-0.6-2.7-1.1-4-2c-2.8-1.1-5.9-1.3-8.9-1.3c-6.3,0.2-13.3,0.4-18.5,4.3c-0.3,0.2-1,0-0.9-0.4
	c0-0.3-0.1-0.3-0.2-0.3c-8.1-4.6-17.8-4.9-26.8-3.3c-2.4,0.4-4.8,1-6.6,2.7c-0.3,0.2-0.1,0.7-0.2,1c2.5-0.5,5-1.1,7.5-1.5
	c4.2-1,8.5-0.7,12.8-0.4c4,0.2,7.9,1.4,11.3,3.3c1.1,0.6,2.2,1.5,3.4,1.5c0.7-0.3,1.4-0.7,2.1-1C53,65.4,63.2,65.4,72.8,68L72.8,68z
	 M8.5,64c7.3-2.4,15.2-2.6,22.8-1.3c3.6,0.5,6.9,2.3,10.1,3.9c4.2-2.7,9.2-3.6,14.1-3.9c4.9-0.3,10.1-0.4,14.6,1.6
	c0.1-0.7,0.3-1.4,0.3-2.1c0-0.1-0.1-0.2-0.2-0.3c-1.7-0.6-3.4-1-5.2-1.3c-8.2-1.5-16.7-0.5-24.1,3.3c-0.2,0-0.4-0.1-0.4-0.3
	c0-0.2-0.2-0.3-0.3-0.4l-0.8-0.4c-2.8-1.5-5.9-2.4-9-2.5c-2.7-0.1-5.5-0.5-8.2-0.1c-0.3,0.3-0.5,0.1-0.8,0c-0.4,0-0.6,0.1-0.9,0.1
	c-3.8,0.4-7.7,0.6-11.3,1.9C8.4,62.5,8.7,63.5,8.5,64L8.5,64z M38.3,49.5c0,3.4-0.1,6.7,0,10.1c0,0.5-0.3,0.9-0.2,1.4
	c0,0.1-0.1,0.2-0.2,0.3c0.7,0.4,2.3,1.1,3.1,1.5c0.2,0.2,1.9-0.7,2.1-0.7c0.1,0,0.3-0.2,0.2-0.3c-0.1-1.9-0.1-3.8-0.1-5.7
	C43.5,52.8,42.5,48.1,38.3,49.5z M42.3,28.7c-2.3-0.2-4.6-0.1-6.9-0.1c0,1.7,0.1,3.3,0.1,5c0,0.6,0.3,3.8,0.3,4.4
	c1.6,0,3.3,0.2,4.9,0.3c0.6,0.2,1.3,0.1,1.9-0.3C42.7,34.9,42.6,31.8,42.3,28.7L42.3,28.7z M37.4,61V49.7c-4.1,1.2-4.9,6.5-4.2,10.1
	C34.6,60.2,36,60.4,37.4,61z M70,68.5L70,68.5l-1.5-0.3V68c-6.9-1.4-14.4-1.4-21.1,1.1C54.9,68.6,62.5,68.1,70,68.5z M32.7,67.5
	c-7.4-2.3-15.6-1.7-23,0.2C17.3,67.7,24.9,67.2,32.7,67.5z M38.5,70c1.1,3.7,5.5,4.4,6.1-0.1c-1.1,0.4-2,1-3,1.5
	c-0.3,0.2-0.6,0.1-0.7-0.2c-0.3-0.3-0.7-0.4-1-0.6C39.7,70.7,38.5,70,38.5,70z"/>
<path class="st0" d="M27.3,56.5c-1.1-0.1-2.8,0.5-3.5-0.7c-0.1-0.2-0.1-0.4-0.1-0.7c0.1-3-0.3-6.1,0.4-9c0.1-0.3,0.4-0.6,0.7-0.6
	c1,0,1.9,0.1,2.9,0.1c1,0.1,1.7,0.2,2.6,0.2c0.3,0,0.6,0.2,0.7,0.4c0,3-0.5,6-0.3,9c0,0.5,0,0.5-0.4,0.8
	C29.4,56.8,28.3,56.4,27.3,56.5L27.3,56.5z M27,46.5c-0.5,0-0.9-0.1-1.3-0.1c-1,0-0.7-0.1-0.9,0.7c-0.2,1.3-0.1,2.6-0.2,3.9
	c0,0,0,0,0,0.1h2.2L27,46.5z M27.7,51.1h2.1l0.4-4.3l-2.3-0.2L27.7,51.1z M27.7,52l-0.1,3.7l2.3-0.1c0-1.1,0-2.2,0-3.2
	c0-0.1-0.1-0.2-0.2-0.3C29.1,52,28.4,52,27.7,52L27.7,52z M26.7,55.7l0.2-3.7c-0.8-0.1-1.6-0.1-2.3,0.1c0.1,1.1-0.1,2.3,0.2,3.3
	C25.3,55.8,26,55.7,26.7,55.7L26.7,55.7z"/>
<path class="st0" d="M49.3,47.2c1.1,0,2.2-0.2,3.2-0.1c0.4,0.1,0.5,0.3,0.6,0.7c0.7,2.8-0.2,5.6-0.2,8.5c0,0.9-0.2,1.2-1.3,1.2
	c-1.6,0-3.2-0.1-4.8-0.3c-0.2-0.1-0.4-0.3-0.4-0.6c-0.2-1.3,0-2.7-0.4-3.9c-0.4-0.4,0.1-0.6,0.1-1c0-1.4-0.6-3.3,0.6-4.4
	C47.5,47,48.5,47.3,49.3,47.2z M50.1,48.1c-0.2,1.3-0.2,2.5-0.1,3.8l2.3-0.2c0.4-1.1,0.2-2.6-0.1-3.7C51.5,47.9,50.8,48.1,50.1,48.1
	z M50.1,56.5c0.6,0.1,1.1,0.2,1.7,0.1c0.2,0,0.2-0.1,0.2-0.3c0-1.2,0.1-2.5,0.2-3.8L50,52.7L50.1,56.5z M49.1,48
	c-0.7,0-1.4,0-2.1,0.2c-0.2,1.2-0.2,2.4,0,3.5h2.1V48z M49.1,52.7h-2l0.2,3.7l1.9,0.1L49.1,52.7z"/>
<path class="st0" d="M40.2,57.4l-0.9-0.1c-0.6,0-0.5-1,0.1-0.9c0,0,1,0.1,1,0.1c0.7,0,0.6,0.9,0,0.9C40.3,57.4,40.2,57.4,40.2,57.4z
	"/>
<path class="st0" d="M38.8,36.7c-1.4-0.1-3-1.4-2.4-2.9c0.3-1.3,1.6-2.8,3-2.5c1.2,0.3,1.7,1.7,1.9,2.8
	C41.4,35.5,40.2,36.8,38.8,36.7z M39.4,32c-1.4-0.1-2.7,1.7-2.1,3c0.7,1,2.7,1.2,3-0.2C40.5,33.7,39.8,32.9,39.4,32z"/>
<path class="st0" d="M35.5,56.4c0.6,0,0.8,0.4,0.3,0.8c-0.4,0.1-1.2,0.2-1-0.4C34.7,56.4,35.2,56.5,35.5,56.4z"/>
<path class="st0" d="M38.2,33.8c0-0.3,0-0.9,0.3-1.2c0.3-0.2,0.8,0,0.7,0.4c0.1,0.4-0.3,0.8,0.2,1.1c0.2,0.3-0.1,0.7-0.4,0.7
	C38.5,34.7,38.1,34.3,38.2,33.8z"/>
</svg>
