<svg width="80" height="80" viewBox="0 0 80 80" fill="none" xmlns="http://www.w3.org/2000/svg">
<path d="M46.21 50.19C46.1856 52.6781 46.3427 55.1647 46.68 57.63L55.48 57.16L55 53.43C54.8231 53.3481 54.6555 53.2475 54.5 53.13C54.26 52.86 54.38 52.5 54.74 52.31C56.4236 51.4546 58.2448 50.9028 60.12 50.68C62.1712 50.41 64.2488 50.41 66.3 50.68C67.0727 50.8108 67.8149 51.0819 68.49 51.48C68.5574 51.5163 68.6156 51.5676 68.66 51.63C68.8304 51.9291 69.0937 52.1643 69.41 52.3C69.72 52.44 69.68 52.79 69.61 53.09C69.44 53.81 69.28 54.52 69.12 55.23C69.1141 55.3266 69.1141 55.4234 69.12 55.52L70 55.37C70.6932 55.254 71.4048 55.3963 72 55.77C73.0942 56.3318 73.9573 57.2587 74.44 58.39C74.7249 59.1577 74.7249 60.0023 74.44 60.77C74.0073 62.0465 73.1766 63.1505 72.07 63.92C71.4154 64.3611 70.649 64.6073 69.86 64.63C69.19 64.63 68.51 64.63 67.86 64.63C68.0043 65.0379 67.9933 65.4846 67.8291 65.8849C67.665 66.2851 67.3591 66.6109 66.97 66.8C66.0622 67.2593 65.0665 67.5185 64.05 67.56C62.3322 67.7092 60.6016 67.5911 58.92 67.21C58.2514 67.0406 57.6064 66.7887 57 66.46C56.8499 66.3494 56.7493 66.1842 56.72 66C56.52 64.76 56.35 63.52 56.16 62.28C56.16 61.98 56.16 61.57 55.94 61.42C55.72 61.27 55.36 61.37 55.05 61.37C50.58 61.43 46.11 61.52 41.64 61.54C37.17 61.56 32.93 61.54 28.58 61.46H28.07C28.07 61.65 28.07 61.82 28.07 61.98C27.97 63.58 27.86 65.18 27.76 66.78C27.7463 67.0089 27.662 67.2279 27.5188 67.407C27.3755 67.5861 27.1803 67.7164 26.96 67.78C25.5646 68.2128 24.1195 68.4648 22.66 68.53C20.37 68.82 18.08 69.14 15.79 69.42C15.1026 69.4932 14.4108 69.5166 13.72 69.49C13.22 69.49 13.02 69.18 12.97 68.68C12.6833 66.08 12.3967 63.4767 12.11 60.87C11.99 59.79 11.9 58.71 11.8 57.62C11.7912 57.4806 11.8116 57.341 11.86 57.21C11.8831 57.1056 11.9345 57.0096 12.0087 56.9327C12.0829 56.8557 12.1769 56.8007 12.2804 56.7738C12.3839 56.7469 12.4927 56.7491 12.595 56.7802C12.6973 56.8113 12.789 56.8701 12.86 56.95C12.9337 57.0264 13.0255 57.083 13.1269 57.1145C13.2283 57.146 13.336 57.1513 13.44 57.13L15 56.92C13.5678 55.125 12.3119 53.1961 11.25 51.16C10.0444 48.9267 9.05652 46.5826 8.3 44.16C8 43 7.6 41.93 7.26 40.81C7.20641 40.5733 7.17295 40.3324 7.16 40.09C7.12974 39.9501 7.14438 39.8043 7.20183 39.6732C7.25929 39.5421 7.35663 39.4325 7.48 39.36C7.59988 39.2815 7.74233 39.2449 7.8852 39.2557C8.02807 39.2666 8.16335 39.3243 8.27 39.42C9.06193 39.9875 9.81371 40.6089 10.52 41.28C11.52 42.36 12.45 43.54 13.41 44.68C13.4422 44.7179 13.4792 44.7515 13.52 44.78C13.44 43.84 13.32 42.94 13.28 42.04C13.18 40.22 13.08 38.4 13.06 36.58C13.1211 35.1171 13.4113 33.6729 13.92 32.3C14.28 31.16 14.6 30.01 14.92 28.87C14.9784 28.6486 15.0519 28.4314 15.14 28.22C15.1837 28.0825 15.2755 27.9654 15.3986 27.8901C15.5216 27.8148 15.6677 27.7864 15.81 27.81C15.9604 27.8246 16.1004 27.8936 16.2035 28.0041C16.3066 28.1146 16.3658 28.2589 16.37 28.41C16.4199 29.1378 16.5101 29.8622 16.64 30.58C17.15 32.86 17.7 35.13 18.23 37.4C18.58 38.9 18.94 40.4 19.29 41.89C19.29 42.05 19.38 42.2 19.42 42.34L20.59 38.67C20.6578 38.4623 20.7449 38.2615 20.85 38.07C21.4046 37.0554 21.6578 35.9036 21.58 34.75C21.52 32.53 21.58 30.31 21.51 28.09C21.51 26.66 21.38 25.24 21.3 23.82C21.3 23.4 21.2 22.98 21.15 22.56C21.1033 22.2851 21.1392 22.0025 21.2531 21.7479C21.367 21.4934 21.5539 21.2783 21.79 21.13C23.0327 20.2062 24.4869 19.608 26.02 19.39C28.2 19.1 30.4 18.83 32.6 18.7C37.33 18.41 42.07 18.22 46.8 17.97C50.8 17.76 54.7 17.52 58.64 17.28C59.43 17.28 60.21 17.17 60.99 17.09C61.2205 17.0725 61.4522 17.1006 61.6718 17.1727C61.8914 17.2447 62.0947 17.3594 62.27 17.51C62.9339 18.0644 63.4264 18.7962 63.69 19.62C64.2667 21.2022 64.5513 22.8761 64.53 24.56C64.53 27.41 64.29 30.27 64.32 33.11C64.32 35.7 64.54 38.3 64.8 40.87C65.0454 42.5265 65.1923 44.1961 65.24 45.87C65.2742 46.3537 65.1771 46.8377 64.9588 47.2708C64.7405 47.7038 64.4092 48.0698 64 48.33C62.3448 49.3185 60.4748 49.8915 58.55 50C54.5562 50.274 50.5512 50.3474 46.55 50.22L46.21 50.19ZM24.86 46.3H24.95C25.32 45.81 25.68 45.3 26.04 44.83C26.4 44.36 26.71 44.13 26.44 43.59C26.44 43.59 26.44 43.59 26.44 43.51C26.44 42.17 26.44 40.82 26.37 39.51C26.37 38.6 26.26 37.69 26.18 36.78C26.1 35.87 25.9 34.78 25.87 33.78C25.8 31.08 25.78 28.39 25.77 25.69C25.8131 25.0663 25.8899 24.4454 26 23.83C26.0084 23.6919 26.0651 23.5612 26.1602 23.4606C26.2552 23.3601 26.3826 23.2962 26.52 23.28C26.91 23.2 27.31 23.12 27.71 23.07C29.71 22.84 31.66 22.51 33.64 22.41C38.54 22.17 43.44 21.97 48.35 21.88C51.46 21.82 54.59 21.98 57.71 22.03C58.47 22.03 59.22 22.03 59.98 22.03C60.74 22.03 61.06 22.47 60.98 23.2C60.9049 23.6428 60.8648 24.0909 60.86 24.54C60.86 29.45 60.86 34.35 60.79 39.26C60.79 40.82 60.61 42.39 60.52 43.95C60.5136 44.1037 60.4655 44.2528 60.381 44.3814C60.2964 44.51 60.1786 44.6132 60.04 44.68C59.6876 44.8445 59.2931 44.8968 58.91 44.83C57.9341 44.7751 56.9559 44.7751 55.98 44.83C54.29 44.93 52.61 45.12 50.91 45.16C48.14 45.24 45.37 45.16 42.59 45.25C39.02 45.35 35.46 45.49 31.89 45.65C30.9838 45.7275 30.0824 45.8543 29.19 46.03C28.95 46.03 28.83 46.17 28.8 46.45C28.71 47.08 28.57 47.71 28.46 48.34C28.4509 48.4231 28.4509 48.5069 28.46 48.59C29.73 48.59 30.96 48.59 32.19 48.59C33.91 48.65 35.63 48.82 37.34 48.86C40.14 48.91 42.95 48.86 45.75 48.86C50.05 48.96 54.35 48.96 58.65 48.65C60.3492 48.5593 62.0004 48.0547 63.46 47.18C63.644 47.0465 63.7904 46.8677 63.885 46.6609C63.9796 46.4542 64.0192 46.2265 64 46C64.0021 44.8198 63.9286 43.6408 63.78 42.47C63.2906 39.2973 63.0599 36.0901 63.09 32.88C63.09 30.27 63.27 27.67 63.29 25.06C63.3009 23.92 63.2038 22.7816 63 21.66C62.8114 20.7993 62.5228 19.9636 62.14 19.17C62.031 18.8704 61.8165 18.6208 61.5367 18.468C61.2569 18.3152 60.931 18.2697 60.62 18.34C59.894 18.4434 59.1629 18.5069 58.43 18.53L50.69 19C48.38 19.13 46.08 19.3 43.77 19.39C38.34 19.61 32.91 19.8 27.51 20.39C25.8631 20.5135 24.2708 21.0352 22.87 21.91C22.32 22.28 22.33 22.26 22.54 22.91C22.5848 23.016 22.6079 23.1299 22.6079 23.245C22.6079 23.3601 22.5848 23.474 22.54 23.58C22.4448 23.6993 22.3782 23.8389 22.3452 23.988C22.3123 24.137 22.3139 24.2917 22.35 24.44C22.53 27.32 22.83 30.2 22.78 33.09C22.78 33.18 22.78 33.27 22.78 33.44C22.99 33.02 23.15 32.67 23.32 32.33C23.3785 32.1994 23.4796 32.0926 23.6069 32.0272C23.7341 31.9618 23.8798 31.9416 24.02 31.97C24.164 31.9897 24.2956 32.0617 24.3897 32.1725C24.4839 32.2832 24.5338 32.4247 24.53 32.57C24.53 32.89 24.53 33.21 24.53 33.57C24.4 36.96 24.53 40.35 24.71 43.74L24.86 46.3ZM56.3 53.74C56.3 54.13 56.38 54.49 56.43 54.84C56.6 56.11 56.78 57.38 56.95 58.65C57.05 59.38 57.1 60.12 57.22 60.85C57.41 62.09 57.65 63.33 57.83 64.57C58.01 65.81 57.83 65.71 59.13 65.99C61.0953 66.4754 63.1429 66.5266 65.13 66.14C65.5691 66.0459 65.9908 65.884 66.38 65.66C66.5609 65.5066 66.6814 65.294 66.72 65.06C66.72 64.8 66.66 64.52 66.72 64.26C66.72 63.84 66.89 63.43 66.94 63.01C67.25 60.72 67.54 58.43 67.84 56.14C67.94 55.43 68.06 54.73 68.15 54.14C67.15 54.21 66.15 54.33 65.15 54.34C63.27 54.34 61.4 54.29 59.52 54.26C58.4238 54.2872 57.332 54.1109 56.3 53.74ZM28 50C27.64 52 27.55 54.06 26.56 55.91L27.12 56C27.85 56.13 28.12 56.41 28.12 57.15V58.3L40.63 57.83L40.43 50.16H39.92C37.52 50.08 35.12 50.04 32.72 49.9C31.1466 49.8013 29.5678 49.8347 28 50ZM33.4 44.2V44.28H33.63C34.39 44.11 35.16 43.95 35.92 43.76C36.1094 43.6902 36.2733 43.5647 36.39 43.4C37.06 42.58 37.71 41.76 38.39 40.92C41.8353 36.6074 45.6063 32.5656 49.67 28.83L54 24.69C54.1411 24.5857 54.2379 24.4323 54.2712 24.2601C54.3045 24.0878 54.272 23.9094 54.18 23.76C54.1508 23.6895 54.1306 23.6156 54.12 23.54C54.1174 23.3747 54.0498 23.217 53.932 23.101C53.8141 22.985 53.6554 22.92 53.49 22.92C52.99 22.92 52.49 22.92 51.96 22.87C51.43 22.82 51.04 22.87 50.59 22.87C50.3879 22.8862 50.1974 22.9708 50.05 23.11C49.3416 23.7937 48.6738 24.5183 48.05 25.28C46.8166 26.9364 45.4048 28.4522 43.84 29.8C42.84 30.62 42.05 31.56 41.14 32.44C39.024 34.5364 37.0654 36.7858 35.28 39.17C34.2211 40.6223 33.0545 41.9928 31.79 43.27C31.45 43.59 31.37 43.9 31.54 44.18C31.71 44.46 32.02 44.55 32.54 44.41L33.4 44.2ZM15.56 31.47H15.5C15.37 31.86 15.24 32.24 15.12 32.62C14.67 33.8247 14.3939 35.0874 14.3 36.37C14.2274 39.8374 14.4919 43.3037 15.09 46.72C15.105 46.8963 15.105 47.0736 15.09 47.25C15.0547 47.4215 15.0547 47.5985 15.09 47.77C15.58 48.77 16.14 49.77 16.59 50.85C17.19 52.26 17.71 53.71 18.27 55.14C18.27 55.26 18.38 55.43 18.47 55.44C19.08 55.57 19.13 56 19.01 56.54L19.91 56.45V56.25C19.78 54.33 19.69 52.4 19.51 50.49C19.3976 48.7342 19.1739 46.9874 18.84 45.26C17.95 41.26 16.92 37.31 15.95 33.34C15.82 32.72 15.7 32.09 15.56 31.47ZM58.88 24.73C58.94 24.44 58.64 24.26 58.36 24.02C57.88 23.61 57.64 23.59 57.25 24.07C56.66 24.79 56.12 25.53 55.51 26.23C54.44 27.46 53.28 28.61 52.24 29.87C49.7 32.93 46.98 35.87 44.24 38.72C43.09 39.93 41.98 41.17 40.85 42.4C40.7161 42.5024 40.6206 42.6468 40.5789 42.8101C40.5372 42.9734 40.5516 43.146 40.62 43.3C40.79 43.64 41.11 43.66 41.45 43.66C41.79 43.66 42.17 43.73 42.53 43.74C42.6927 43.733 42.8539 43.7061 43.01 43.66C43.13 43.66 43.24 43.53 43.36 43.52C43.5453 43.4952 43.7239 43.4338 43.8852 43.3394C44.0466 43.245 44.1876 43.1194 44.3 42.97C46.3 40.69 48.3 38.43 50.2 36.11C51.502 34.5212 52.8908 33.0056 54.36 31.57C55.7348 30.3706 56.9572 29.0071 58 27.51C58.5156 26.6689 58.8177 25.7146 58.88 24.73ZM23.34 35.53H23.21C23.03 35.95 22.87 36.38 22.67 36.79C21.6099 38.8414 20.8136 41.0187 20.3 43.27C20.1428 43.8323 20.0852 44.4178 20.13 45C20.56 47.62 20.77 50.27 20.94 52.92C21.01 54.03 21.08 55.14 21.15 56.28L22.74 56.08C22.8507 55.7262 22.9375 55.3654 23 55C23.3057 53.012 23.506 51.0092 23.6 49C23.6 46 23.41 43.1 23.33 40.15C23.31 38.61 23.34 37.07 23.34 35.53ZM17.5 56.53C17 55.3 16.64 54 16.11 52.8C15.42 51.2 14.6 49.66 13.89 48.07C12.7497 45.6597 11.1576 43.4905 9.2 41.68C9.03 41.52 8.85 41.37 8.61 41.16C8.63325 41.2882 8.6633 41.415 8.7 41.54C9.34 43.33 9.92 45.14 10.63 46.9C11.9418 50.1596 13.6985 53.222 15.85 56C15.9978 56.2649 16.2342 56.4692 16.5176 56.5771C16.8011 56.685 17.1135 56.6896 17.4 56.59L17.5 56.53ZM41.68 50.12L41.86 57.78L45.36 57.66L44.87 50.12H41.68ZM28.14 60.12H28.43C33.03 60.12 37.62 60.22 42.22 60.2C46.82 60.18 51.15 60.09 55.62 60.03C55.7032 60.0366 55.7868 60.0366 55.87 60.03L55.68 59C55.52 59 55.39 59 55.26 59C53.16 59.1 51.06 59.26 48.95 59.3C45.36 59.37 41.76 59.35 38.17 59.39C35.73 59.39 33.2933 59.4433 30.86 59.55C29.95 59.55 29.05 59.71 28.14 59.79V60.12ZM27.81 44.24H27.74C27.62 44.38 27.5 44.5 27.39 44.64C26.62 45.64 25.84 46.55 25.08 47.52C24.9633 47.6644 24.8998 47.8444 24.9 48.03C24.9052 49.8173 24.7748 51.6024 24.51 53.37C24.4 54.21 24.26 55.06 24.13 55.97C24.52 55.81 24.91 56.05 25.22 55.66C25.7265 55.0336 26.0701 54.2915 26.22 53.5C26.68 51.12 27.11 48.74 27.54 46.35C27.61 45.71 27.7 45 27.81 44.33V44.24ZM68.81 57.96C69.54 57.7594 70.3167 57.8159 71.01 58.12C71.2195 58.2018 71.4101 58.3257 71.5701 58.4839C71.73 58.6421 71.8559 58.8313 71.94 59.04C72.1787 59.5977 72.209 60.2226 72.0254 60.8008C71.8419 61.379 71.4566 61.872 70.94 62.19C70.173 62.6867 69.3056 63.0077 68.4 63.13C68.3017 63.1523 68.2073 63.1894 68.12 63.24C68.658 63.2976 69.1991 63.321 69.74 63.31C70.57 63.3013 71.3635 62.9674 71.95 62.38C72.5324 61.8191 72.9832 61.136 73.27 60.38C73.4805 59.8363 73.4805 59.2337 73.27 58.69C72.9518 57.9722 72.4259 57.3661 71.76 56.95C71.3946 56.6617 70.953 56.4863 70.4893 56.4455C70.0257 56.4046 69.5602 56.5 69.15 56.72C69.0996 56.7385 69.0537 56.7678 69.0158 56.8057C68.9778 56.8437 68.9485 56.8895 68.93 56.94C68.84 57.36 68.82 57.67 68.78 58.05L68.81 57.96ZM56.73 52.78V52.98C57.2429 53.1914 57.8084 53.2402 58.35 53.12C58.8523 52.8976 59.3747 52.7235 59.91 52.6C61.7785 52.3436 63.6681 52.2766 65.55 52.4C66.1209 52.3963 66.6768 52.5827 67.13 52.93C67.1916 52.9738 67.2619 53.0036 67.3362 53.0174C67.4104 53.0312 67.4868 53.0287 67.56 53.01C67.6192 52.9675 67.668 52.9122 67.7027 52.8481C67.7373 52.784 67.7569 52.7128 67.76 52.64C67.76 52.54 67.59 52.4 67.46 52.37C66.97 52.22 66.46 52.12 65.98 51.98C64.8828 51.7039 63.7466 51.616 62.62 51.72C61.4785 51.7887 60.3427 51.9324 59.22 52.15C58.39 52.3 57.57 52.57 56.73 52.78ZM68.25 61.94L68.36 62.06C68.97 61.81 69.59 61.57 70.18 61.29C70.3698 61.1887 70.5347 61.0463 70.6627 60.8734C70.7907 60.7004 70.8786 60.5011 70.92 60.29C70.9756 60.0983 70.977 59.895 70.924 59.7026C70.8711 59.5102 70.7658 59.3362 70.62 59.2C70.3356 59.0361 70.0175 58.9393 69.69 58.9167C69.3625 58.8942 69.0342 58.9466 68.73 59.07C68.73 59.07 68.62 59.17 68.61 59.23L68.25 61.94Z" fill="#2A2B2C"/>
</svg>
