<svg width="80" height="80" viewBox="0 0 80 80" fill="none" xmlns="http://www.w3.org/2000/svg">
<path d="M37.05 70.87C36.36 70.87 35.66 70.98 34.96 71.01C33.11 71.09 31.26 71.21 29.41 71.21C27.28 71.21 25.15 71.07 23.02 71.03C21.67 71.03 20.32 71.03 18.97 71.03C17.62 71.03 16.52 71.03 15.3 71.03C14.3 71.03 13.3 71.14 12.3 71.15C10.8683 71.1981 9.43947 70.9915 8.08 70.54C7.80413 70.4337 7.5367 70.3067 7.28 70.16C7.05683 70.055 6.85664 69.9068 6.69098 69.7241C6.52531 69.5413 6.39743 69.3276 6.3147 69.0952C6.23198 68.8629 6.19604 68.6164 6.20897 68.3701C6.22189 68.1238 6.28342 67.8825 6.39 67.66C6.62019 67.0292 7.03049 66.4798 7.57 66.08C7.94905 65.7928 8.34292 65.5258 8.75 65.28C9.16 65.05 9.61 64.88 10.05 64.67L9.92 64.55C9.42837 64.1949 9.03589 63.7198 8.78 63.17C8.55847 62.6721 8.49339 62.1186 8.59339 61.5829C8.69339 61.0472 8.95376 60.5545 9.34 60.17C9.93905 59.4916 10.7198 58.9988 11.59 58.75C12.6909 58.3894 13.8416 58.2038 15 58.2C15.9991 58.1416 17.0009 58.1416 18 58.2C18.8401 58.2961 19.6746 58.4363 20.5 58.62L20.77 58.68C20.67 58.5 20.59 58.37 20.52 58.22C20.2093 57.6327 20.1411 56.947 20.33 56.31C20.4652 55.8024 20.7123 55.3314 21.0532 54.9317C21.394 54.532 21.8201 54.2136 22.3 54C23.2057 53.5527 24.1917 53.2909 25.2 53.23C25.6052 53.2335 26.0097 53.2669 26.41 53.33L29.28 53.66C30.2557 53.7528 31.2054 54.0276 32.08 54.47L32.32 54.58C32.32 54.23 32.32 53.89 32.4 53.58C32.5104 53.0543 32.74 52.5609 33.0712 52.1378C33.4023 51.7148 33.8261 51.3734 34.31 51.14C34.982 50.7951 35.7234 50.6069 36.4785 50.5896C37.2337 50.5723 37.9829 50.7263 38.67 51.04C39.3708 51.2755 40.0005 51.6849 40.5 52.23C40.8071 52.4864 41.0449 52.8157 41.1917 53.1879C41.3384 53.56 41.3894 53.963 41.34 54.36C41.61 54.23 41.85 54.12 42.08 53.98C42.119 53.9485 42.1508 53.909 42.1733 53.8641C42.1957 53.8193 42.2082 53.7701 42.21 53.72C42.21 52.95 42.28 52.18 42.21 51.4C42.21 49.46 42.34 47.52 42.44 45.58L42.74 40.06C42.74 39.69 42.79 39.33 42.81 39.06C42.2779 39.6609 41.5833 40.095 40.81 40.31C40.0587 40.5081 39.2638 40.4626 38.54 40.18C37.7391 39.8925 36.9819 39.4954 36.29 39C35.7562 38.6509 35.3086 38.185 34.9812 37.6376C34.6538 37.0902 34.4551 36.4755 34.4 35.84C34.295 34.9816 34.3152 34.1126 34.46 33.26C34.46 33.1 34.46 32.94 34.52 32.76C33.9307 32.8924 33.3171 32.8683 32.74 32.69C32.2154 32.5242 31.7431 32.2243 31.37 31.82C30.7573 31.1923 30.2896 30.438 30 29.61C29.8086 28.9417 29.7586 28.2408 29.8533 27.552C29.948 26.8633 30.1853 26.2019 30.55 25.61C31.1268 24.5381 31.9285 23.6034 32.9 22.87C32.8685 22.8314 32.8314 22.7977 32.79 22.77C32.2457 22.477 31.7887 22.045 31.4655 21.5181C31.1423 20.9911 30.9645 20.388 30.95 19.77C30.9091 19.2758 30.9825 18.7788 31.1646 18.3175C31.3467 17.8562 31.6325 17.443 32 17.11C32.3489 16.7276 32.7455 16.3915 33.18 16.11C34.2318 15.3374 35.4091 14.7521 36.66 14.38C37.5147 14.1489 38.4153 14.1489 39.27 14.38C39.5 14.44 39.73 14.46 40 14.51C40 14.39 40 14.3 40 14.21C39.9368 13.4261 40.0708 12.6388 40.39 11.92C40.5153 11.5682 40.7247 11.2523 41 11C42.0317 10.0471 43.3962 9.53722 44.8 9.58001C45.5967 9.63699 46.3603 9.92161 47 10.4C47.3963 10.6708 47.7028 11.0539 47.88 11.5L48.21 11.32C49.1884 10.7956 50.2799 10.5176 51.39 10.51C52.0324 10.4873 52.6695 10.6332 53.2379 10.9332C53.8064 11.2332 54.2863 11.6768 54.63 12.22C55.1276 12.858 55.4453 13.6177 55.55 14.42C56.0799 14.2895 56.6361 14.3144 57.1522 14.4918C57.6682 14.6691 58.1223 14.9914 58.46 15.42C59.0369 15.9887 59.4613 16.6936 59.6937 17.4696C59.9262 18.2457 59.9593 19.0678 59.79 19.86C59.65 20.64 59.38 21.4 59.17 22.17C59.17 22.22 59.17 22.26 59.17 22.29C59.4762 22.3248 59.7779 22.3918 60.07 22.49C60.3766 22.6103 60.658 22.7866 60.9 23.01C61.6273 23.6692 62.0954 24.5664 62.22 25.54C62.296 26.4743 62.1166 27.4118 61.7009 28.252C61.2852 29.0922 60.6489 29.8036 59.86 30.31L59.67 30.44C59.87 30.68 60.07 30.91 60.24 31.16C60.4226 31.5015 60.5296 31.8783 60.5538 32.2648C60.5779 32.6513 60.5187 33.0384 60.38 33.4C60.1138 34.4512 59.5214 35.3911 58.6877 36.0846C57.8541 36.7781 56.8221 37.1896 55.74 37.26C54.86 37.34 53.97 37.36 53.1 37.41C53.02 37.73 52.94 38.11 52.82 38.47C52.7071 38.8665 52.5013 39.2303 52.2195 39.5312C51.9377 39.8321 51.5882 40.0614 51.2 40.2C51.1284 40.219 51.0646 40.2601 51.0179 40.3177C50.9712 40.3752 50.9439 40.446 50.94 40.52C50.84 41.7 50.73 42.87 50.65 44.04C50.49 46.36 50.57 48.68 50.65 51.04C50.6549 51.5448 50.6248 52.0494 50.56 52.55C50.4401 54.0101 50.41 55.4762 50.47 56.94C50.47 57.94 50.47 58.94 50.53 60.02C50.53 60.17 50.53 60.32 50.53 60.46C50.97 60.78 51.44 61.11 51.89 61.46C52.3947 61.8966 52.8238 62.4136 53.16 62.99C53.4001 63.3682 53.5277 63.807 53.5277 64.255C53.5277 64.703 53.4001 65.1418 53.16 65.52L53.05 65.72L54.76 66.19C55.2319 66.294 55.6669 66.5236 56.019 66.8545C56.371 67.1855 56.6271 67.6054 56.76 68.07C56.76 68.23 56.83 68.39 56.87 68.57H57.81L63.07 68.79C63.36 68.79 63.65 68.86 63.93 68.87C64.0262 68.8708 64.1191 68.835 64.19 68.77C64.5853 68.2302 65.1027 67.7915 65.7 67.49C65.77 67.49 65.81 67.32 65.8 67.23C65.74 66.37 65.66 65.51 65.6 64.65C65.51 63.29 65.49 61.92 65.35 60.56C65.18 58.91 65.35 57.25 65.25 55.56C65.15 53.87 65.12 52.06 65.08 50.31C65.08 49.62 65.08 48.94 65.08 48.23C64.74 48.23 64.37 48.23 64.01 48.23C63.26 48.14 62.52 48.03 61.78 47.88C61.5742 47.8621 61.3803 47.7754 61.2298 47.6339C61.0792 47.4924 60.9807 47.3043 60.95 47.1C60.9087 46.8584 60.9365 46.61 61.0303 46.3835C61.1241 46.157 61.28 45.9617 61.48 45.82C61.9661 45.5234 62.5208 45.358 63.09 45.34C64.2339 45.2664 65.3825 45.3336 66.51 45.54C66.96 45.63 67.42 45.73 67.87 45.86C68.1048 45.9005 68.3174 46.0235 68.4696 46.2068C68.6218 46.3901 68.7035 46.6218 68.7 46.86C68.8549 47.7385 68.8751 48.6354 68.76 49.52C68.68 49.95 68.56 50.39 68.44 50.82C68.4156 50.9551 68.3415 51.0762 68.2323 51.1595C68.1231 51.2428 67.9868 51.2822 67.85 51.27C67.7768 51.2648 67.7032 51.2648 67.63 51.27C67.63 51.6 67.63 51.94 67.63 52.27C67.72 54.57 67.77 56.87 67.93 59.16C68.09 61.45 68.34 63.76 68.56 66.06C68.56 66.48 68.68 66.9 68.74 67.32C68.7713 67.4199 68.7697 67.5273 68.7355 67.6263C68.7013 67.7252 68.6363 67.8107 68.55 67.87C68.62 68.03 68.79 67.93 68.87 68.07C69.0493 68.2543 69.2508 68.4156 69.47 68.55C70.0242 69.0358 70.3801 69.7086 70.47 70.44C70.4799 70.5631 70.4799 70.6869 70.47 70.81C70.13 73.05 69.09 74.65 66.6 75.05C66.1972 75.115 65.7849 75.0885 65.3936 74.9725C65.0024 74.8566 64.6423 74.6541 64.34 74.38C63.765 73.9078 63.3581 73.2624 63.18 72.54C63.168 72.4975 63.1465 72.4582 63.117 72.4253C63.0875 72.3924 63.0509 72.3666 63.01 72.35C62.7267 72.2614 62.4352 72.2011 62.14 72.17C59.87 72.07 57.59 71.98 55.32 71.91C53.37 71.85 51.41 71.91 49.46 71.8C48.3 71.8 47.15 71.67 45.99 71.59H45.62C45.7643 71.7918 45.8562 72.0263 45.8876 72.2723C45.919 72.5184 45.8889 72.7684 45.8 73C45.7533 73.1616 45.6789 73.3139 45.58 73.45C45.0362 74.2246 44.2412 74.7872 43.3299 75.0424C42.4185 75.2975 41.4469 75.2296 40.58 74.85C40.0753 74.6929 39.6178 74.4121 39.2493 74.0331C38.8808 73.6541 38.6129 73.189 38.47 72.68C38.3106 72.1561 38.3425 71.5926 38.56 71.09L37.05 70.87ZM35.27 34.09H35.17C35.17 34.57 35.17 35.09 35.22 35.54C35.2427 36.0867 35.3962 36.6199 35.6677 37.0949C35.9391 37.5699 36.3206 37.9729 36.78 38.27C37.6122 38.7921 38.5294 39.1644 39.49 39.37C40.1204 39.5183 40.7837 39.4183 41.3423 39.0906C41.9009 38.7628 42.3119 38.2327 42.49 37.61C42.487 37.5667 42.487 37.5233 42.49 37.48C42.5168 37.3924 42.5662 37.3135 42.6333 37.2511C42.7004 37.1888 42.7827 37.1453 42.872 37.125C42.9613 37.1047 43.0544 37.1083 43.1419 37.1355C43.2293 37.1628 43.308 37.2126 43.37 37.28C43.5944 37.507 43.8048 37.7475 44 38C44.26 38.31 44.5 38.65 44.78 38.93C45.0042 39.1769 45.272 39.3803 45.57 39.53C46.2307 39.8435 46.96 39.9846 47.69 39.94C48.466 39.8996 49.2381 39.8026 50 39.65C50.4975 39.5316 50.9756 39.3431 51.42 39.09C51.8021 38.8104 52.0632 38.3955 52.15 37.93C52.1914 37.7731 52.1995 37.6093 52.1737 37.4491C52.1478 37.2889 52.0887 37.1359 52 37C51.9579 36.9265 51.9378 36.8425 51.9423 36.7579C51.9467 36.6733 51.9755 36.5919 52.0251 36.5232C52.0747 36.4546 52.1431 36.4018 52.222 36.371C52.3009 36.3403 52.387 36.333 52.47 36.35C52.543 36.3401 52.617 36.3401 52.69 36.35C53.6836 36.5099 54.6964 36.5099 55.69 36.35C56.6259 36.2731 57.5114 35.894 58.2131 35.2699C58.9147 34.6458 59.3945 33.8105 59.58 32.89C59.6458 32.693 59.6722 32.485 59.6575 32.2778C59.6429 32.0707 59.5875 31.8684 59.4946 31.6827C59.4018 31.4969 59.2732 31.3313 59.1162 31.1953C58.9593 31.0593 58.7771 30.9555 58.58 30.89C58.4953 30.8621 58.4209 30.8096 58.3661 30.7393C58.3112 30.669 58.2785 30.584 58.2721 30.4951C58.2657 30.4062 58.2858 30.3173 58.33 30.2399C58.3741 30.1624 58.4402 30.0998 58.52 30.06C58.75 29.9 59.01 29.79 59.24 29.63C59.9297 29.2122 60.4884 28.6094 60.8526 27.8899C61.2167 27.1704 61.3717 26.3632 61.3 25.56C61.2258 24.9842 60.9861 24.4423 60.61 24C60.509 23.8186 60.3731 23.6591 60.2101 23.5306C60.047 23.4021 59.8602 23.3072 59.6602 23.2514C59.4603 23.1956 59.2512 23.18 59.0452 23.2055C58.8392 23.231 58.6403 23.2971 58.46 23.4C58.3755 23.4475 58.2769 23.4635 58.1817 23.4452C58.0865 23.4269 58.0009 23.3755 57.94 23.3C57.8814 23.2299 57.8493 23.1414 57.8493 23.05C57.8493 22.9586 57.8814 22.8701 57.94 22.8C58.3722 22.1353 58.6774 21.3961 58.84 20.62C59.1248 19.6573 59.1248 18.6327 58.84 17.67C58.7027 17.1281 58.435 16.628 58.0603 16.2132C57.6856 15.7984 57.2152 15.4815 56.69 15.29C56.5526 15.2309 56.4046 15.2003 56.255 15.2003C56.1054 15.2003 55.9574 15.2309 55.82 15.29C55.432 15.4834 55.1088 15.7858 54.89 16.16C54.8628 16.2128 54.8251 16.2596 54.7793 16.2975C54.7335 16.3353 54.6805 16.3635 54.6235 16.3804C54.5665 16.3972 54.5066 16.4023 54.4476 16.3953C54.3886 16.3884 54.3316 16.3696 54.28 16.34C54.1753 16.2829 54.0975 16.1866 54.0638 16.0723C54.03 15.9579 54.0431 15.8348 54.1 15.73C54.1778 15.5709 54.2716 15.4201 54.38 15.28C54.5527 15.0577 54.657 14.7899 54.68 14.5093C54.7031 14.2288 54.644 13.9476 54.51 13.7C54.2806 13.2427 54.0094 12.8075 53.7 12.4C53.4467 12.0721 53.1182 11.8101 52.7422 11.636C52.3662 11.462 51.9539 11.381 51.54 11.4C51.09 11.4065 50.6416 11.4533 50.2 11.54C49.3263 11.7272 48.5039 12.1026 47.79 12.64C47.54 12.82 47.31 12.82 47.15 12.64C47.0748 12.5602 47.0328 12.4547 47.0328 12.345C47.0328 12.2353 47.0748 12.1298 47.15 12.05C47.36 11.78 47.36 11.64 47.15 11.41C46.4397 10.7555 45.5058 10.3976 44.54 10.41C43.6445 10.4587 42.7796 10.7528 42.04 11.26C41.76 11.4315 41.5203 11.6615 41.3373 11.9342C41.1544 12.2068 41.0325 12.5158 40.98 12.84C40.8448 13.429 40.8448 14.041 40.98 14.63C41.09 15.15 40.84 15.42 40.32 15.37C39.9627 15.336 39.6084 15.2759 39.26 15.19C38.3381 14.9385 37.3596 14.9911 36.47 15.34C35.2306 15.7945 34.085 16.4724 33.09 17.34C32.7407 17.6642 32.4288 18.0265 32.16 18.42C31.9122 18.7611 31.7951 19.1798 31.83 19.6C31.826 20.1513 31.9802 20.6921 32.2745 21.1583C32.5687 21.6245 32.9906 21.9965 33.49 22.23C34.3 22.61 34.33 23.01 33.61 23.51C32.6692 24.1543 31.8892 25.0063 31.33 26C31.0113 26.4974 30.8019 27.0568 30.7157 27.6413C30.6295 28.2257 30.6685 28.8218 30.83 29.39C31.1107 30.2029 31.5964 30.9296 32.24 31.5C32.3736 31.6174 32.5256 31.712 32.69 31.78C33.2866 32.054 33.9637 32.0967 34.59 31.9C35.2 31.73 35.45 31.95 35.41 32.59L35.27 34.09ZM55.93 68.51C55.9053 68.2287 55.8061 67.9591 55.6426 67.7289C55.4792 67.4987 55.2574 67.3161 55 67.2C54.41 66.96 53.79 66.8 53.18 66.62C52.88 66.53 52.56 66.49 52.27 66.39C52.176 66.3674 52.09 66.3196 52.0212 66.2516C51.9525 66.1837 51.9036 66.0982 51.8799 66.0045C51.8562 65.9108 51.8586 65.8124 51.8868 65.72C51.9151 65.6275 51.968 65.5445 52.04 65.48C52.1351 65.377 52.2221 65.2666 52.3 65.15C52.48 64.9105 52.5846 64.6229 52.6007 64.3237C52.6167 64.0245 52.5434 63.7274 52.39 63.47C52.0032 62.7775 51.471 62.1771 50.83 61.71C49.7845 60.9845 48.6102 60.4652 47.37 60.18C46.75 60.02 46.1 59.93 45.47 59.78C44.84 59.63 44.65 59.26 45.01 58.65C45.1789 58.3857 45.3325 58.1119 45.47 57.83C45.6709 57.4455 45.7525 57.0099 45.7044 56.5788C45.6563 56.1477 45.4807 55.7407 45.2 55.41C44.7369 54.9435 44.1143 54.6697 43.4575 54.6438C42.8007 54.6178 42.1585 54.8415 41.66 55.27C41.5943 55.3455 41.5038 55.395 41.4048 55.4097C41.3058 55.4244 41.2048 55.4032 41.12 55.35C41.0349 55.307 40.968 55.2349 40.9314 55.1469C40.8947 55.0589 40.8907 54.9607 40.92 54.87C40.92 54.8 40.92 54.7 40.92 54.68C40.73 54.54 40.79 54.36 40.81 54.19C40.8296 54.0295 40.8158 53.8666 40.7693 53.7117C40.7228 53.5568 40.6448 53.4132 40.54 53.29C39.8378 52.3492 38.8051 51.7096 37.65 51.5C37.1514 51.3557 36.6288 51.3133 36.1134 51.3751C35.598 51.437 35.1004 51.6019 34.65 51.86C34.1971 52.0895 33.8196 52.4443 33.5626 52.8822C33.3055 53.3201 33.1797 53.8226 33.2 54.33C33.2 54.58 33.25 54.83 33.25 55.09C33.2654 55.1841 33.2536 55.2806 33.216 55.3681C33.1784 55.4557 33.1166 55.5307 33.0377 55.5843C32.9589 55.6379 32.8664 55.6679 32.7712 55.6706C32.6759 55.6734 32.5818 55.6489 32.5 55.6C32.34 55.53 32.19 55.44 32.04 55.37C31.4089 54.9989 30.7189 54.7385 30 54.6C28.57 54.4 27.15 54.2 25.72 54.07C24.5608 54.0003 23.4083 54.2902 22.42 54.9C22.1231 55.0562 21.8641 55.2755 21.6609 55.5425C21.4578 55.8094 21.3155 56.1176 21.244 56.4454C21.1726 56.7731 21.1737 57.1126 21.2472 57.4398C21.3208 57.7671 21.4651 58.0744 21.67 58.34C21.8588 58.5922 22.0261 58.8598 22.17 59.14C22.2047 59.2188 22.2226 59.3039 22.2226 59.39C22.2226 59.4761 22.2047 59.5612 22.17 59.64C22.0345 59.7436 21.8704 59.803 21.7 59.81C21.62 59.81 21.53 59.81 21.44 59.76C20.44 59.53 19.44 59.25 18.36 59.09C16.9859 58.91 15.5941 58.91 14.22 59.09C13.0619 59.1727 11.9325 59.4891 10.9 60.02C10.2612 60.3683 9.77075 60.937 9.52 61.62C9.45344 61.7783 9.41916 61.9483 9.41916 62.12C9.41916 62.2917 9.45344 62.4617 9.52 62.62C9.64167 62.9005 9.79607 63.1657 9.98 63.41C10.3414 63.8403 10.7963 64.1823 11.31 64.41C11.53 64.53 11.74 64.67 11.68 64.96C11.62 65.25 11.43 65.32 11.18 65.37C9.94518 65.5908 8.79781 66.1558 7.87 67C7.48867 67.3323 7.22257 67.7769 7.11 68.27C7.03272 68.4766 7.03494 68.7046 7.11624 68.9097C7.19754 69.1148 7.35212 69.2824 7.55 69.38C7.8209 69.5529 8.10913 69.697 8.41 69.81C9.68192 70.2178 11.0153 70.4006 12.35 70.35C13.17 70.35 13.98 70.26 14.8 70.24C16.03 70.24 17.27 70.24 18.5 70.24C19.73 70.24 20.96 70.17 22.19 70.24C24.1 70.24 26 70.41 27.91 70.43C29.63 70.43 31.35 70.43 33.06 70.35C34.3 70.35 35.54 70.17 36.78 70.14C36.9897 70.1564 37.1991 70.1063 37.3787 69.9967C37.5582 69.8872 37.6986 69.7239 37.78 69.53C37.8503 69.3929 37.9377 69.2652 38.04 69.15C38.3054 68.7617 38.667 68.4489 39.0894 68.2421C39.5118 68.0353 39.9806 67.9416 40.45 67.97C42.18 68.02 43.92 68.08 45.65 68.22C48.72 68.45 51.79 68.57 54.87 68.61L55.93 68.51ZM55.7 69.38C53.3 69.31 50.9 69.28 48.5 69.18C46.43 69.09 44.36 68.9 42.28 68.79C41.47 68.79 40.66 68.79 39.85 68.79C39.7597 68.7884 39.6704 68.809 39.59 68.85C39.0392 69.1902 38.5955 69.6789 38.31 70.26L42.2 70.55C44.78 70.71 47.35 70.9 49.93 71C52.28 71.1 54.63 71.08 56.93 71.15C59 71.21 61.06 71.27 63.14 71.46C63.14 71.19 63.23 70.88 63.3 70.58C63.37 70.28 63.45 69.97 63.53 69.65L62.3 69.56L57 69.39L55.7 69.38ZM67.89 67.51C67.2433 62.1998 66.8794 56.8589 66.8 51.51C66.54 51.56 66.33 51.58 66.12 51.64C66.0828 51.659 66.0501 51.6858 66.0242 51.7186C65.9983 51.7514 65.9798 51.7894 65.97 51.83C65.97 52.52 65.97 53.2 65.97 53.88C65.97 54.76 66.07 55.64 66.08 56.52C66.08 57.17 66.02 57.82 66.08 58.46C66.1933 60.5267 66.32 62.59 66.46 64.65C66.52 65.53 66.62 66.42 66.7 67.32L67.89 67.51Z" fill="#2A2B2C"/>
<path d="M37.51 21.65C37.5147 21.3862 37.6008 21.1302 37.7565 20.9172C37.9122 20.7042 38.13 20.5445 38.38 20.46C38.4501 20.4434 38.5132 20.4048 38.56 20.35C38.6211 20.2491 38.7049 20.1638 38.8047 20.1009C38.9045 20.038 39.0176 19.9992 39.135 19.9875C39.2524 19.9759 39.3709 19.9917 39.4811 20.0338C39.5913 20.0759 39.6902 20.1431 39.77 20.23C39.9808 20.4209 40.1289 20.6711 40.195 20.9477C40.261 21.2243 40.2418 21.5145 40.14 21.78C40.0154 22.0894 39.8578 22.3844 39.67 22.66C39.5543 22.8637 39.3709 23.0203 39.1516 23.1025C38.9323 23.1848 38.6911 23.1874 38.47 23.11C38.2329 23.0551 38.0177 22.9305 37.852 22.7523C37.6862 22.5741 37.5776 22.3504 37.54 22.11C37.52 22 37.52 21.8 37.51 21.65Z" fill="#2A2B2C"/>
<path d="M39.66 26.31C39.634 26.6365 39.5159 26.9488 39.3194 27.2108C39.1229 27.4728 38.8561 27.6737 38.55 27.79C38.374 27.87 38.1801 27.9023 37.9877 27.8835C37.7953 27.8647 37.6113 27.7955 37.4542 27.683C37.297 27.5705 37.1723 27.4185 37.0926 27.2424C37.0128 27.0663 36.9809 26.8723 37 26.68C37.0106 26.0894 37.2509 25.5262 37.67 25.11C37.7339 25.0268 37.8151 24.9586 37.9081 24.9101C38.0011 24.8616 38.1036 24.834 38.2084 24.8292C38.3131 24.8245 38.4177 24.8427 38.5147 24.8825C38.6117 24.9224 38.6988 24.9829 38.77 25.06C38.8359 25.1148 38.9102 25.1587 38.99 25.19C39.2173 25.2655 39.4099 25.4201 39.5329 25.6256C39.6559 25.8312 39.701 26.074 39.66 26.31Z" fill="#2A2B2C"/>
<path d="M40.4 24.4C40.4061 24.3018 40.4228 24.2045 40.45 24.11C40.4784 23.94 40.5561 23.7821 40.6734 23.6559C40.7908 23.5297 40.9426 23.4407 41.11 23.4C41.2901 23.3658 41.476 23.3771 41.6506 23.433C41.8253 23.4889 41.9832 23.5875 42.11 23.72C42.1632 23.772 42.2239 23.8158 42.29 23.85C42.549 23.9546 42.7624 24.1477 42.8924 24.3949C43.0225 24.642 43.0606 24.9273 43 25.2C42.9591 25.4791 42.8336 25.7389 42.6405 25.9445C42.4474 26.1502 42.196 26.2917 41.92 26.35C41.6403 26.3875 41.3562 26.3261 41.117 26.1764C40.8778 26.0266 40.6985 25.798 40.61 25.53C40.49 25.17 40.44 24.78 40.35 24.41L40.4 24.4Z" fill="#2A2B2C"/>
<path d="M52.42 25.38C52.5035 25.3439 52.5937 25.3263 52.6847 25.3284C52.7756 25.3305 52.8649 25.3522 52.9467 25.3921C53.0284 25.432 53.1005 25.4891 53.158 25.5595C53.2155 25.63 53.2572 25.712 53.28 25.8C53.3444 26.0148 53.3638 26.2406 53.337 26.4632C53.3102 26.6858 53.2378 26.9005 53.1242 27.0939C53.0106 27.2872 52.8584 27.455 52.677 27.5869C52.4956 27.7187 52.289 27.8117 52.07 27.86C51.8794 27.8711 51.6886 27.8407 51.5108 27.7709C51.3331 27.7011 51.1726 27.5935 51.0405 27.4557C50.9083 27.3178 50.8077 27.153 50.7454 26.9724C50.6832 26.7919 50.6609 26.6 50.68 26.41C50.7369 25.9031 50.9922 25.4393 51.39 25.12C51.76 24.8 52.12 24.9 52.42 25.38Z" fill="#2A2B2C"/>
<path d="M54.16 27.48C54.2051 27.1143 54.3451 26.7669 54.5662 26.4721C54.7872 26.1774 55.0816 25.9456 55.42 25.8C55.6161 25.7319 55.8224 25.6981 56.03 25.7C56.1415 25.7255 56.2405 25.7892 56.31 25.88C56.43 26.02 56.53 26.19 56.64 26.34C56.7594 26.4751 56.8333 26.6444 56.8513 26.8239C56.8692 27.0033 56.8303 27.1839 56.74 27.34C56.5825 27.6237 56.3694 27.8727 56.1133 28.072C55.8573 28.2713 55.5637 28.4169 55.25 28.5C54.6 28.72 54.11 28.26 54.16 27.48Z" fill="#2A2B2C"/>
<path d="M53.66 24.43C52.9 24.36 52.28 23.74 52.41 23.14C52.4657 22.8153 52.6007 22.5094 52.8031 22.2495C53.0055 21.9896 53.2689 21.7836 53.57 21.65C53.7152 21.5839 53.8763 21.5609 54.0341 21.584C54.192 21.6071 54.3398 21.6751 54.46 21.78C54.52 21.78 54.61 21.93 54.59 21.99C54.53 22.22 54.69 22.36 54.77 22.53C54.8892 22.7424 54.9416 22.9859 54.9201 23.2285C54.8987 23.4712 54.8046 23.7017 54.65 23.89C54.5534 24.0649 54.409 24.2085 54.2337 24.3042C54.0583 24.3998 53.8593 24.4435 53.66 24.43Z" fill="#2A2B2C"/>
<path d="M38.4 61.57C37.9782 61.5137 37.5892 61.3121 37.3 61C37.1864 60.8834 37.1082 60.7369 37.0746 60.5775C37.0409 60.4182 37.0532 60.2526 37.11 60.1C37.22 59.6526 37.4904 59.2612 37.87 59C37.9907 58.9148 38.1289 58.8574 38.2744 58.832C38.42 58.8065 38.5694 58.8137 38.7119 58.8529C38.8544 58.8921 38.9864 58.9624 39.0985 59.0587C39.2105 59.1551 39.2998 59.275 39.36 59.41C39.5343 59.7613 39.646 60.1403 39.69 60.53C39.76 61.23 39.25 61.65 38.4 61.57Z" fill="#2A2B2C"/>
<path d="M34.23 60.24C33.54 60.18 32.92 59.61 32.97 59.07C32.9993 58.7807 33.1334 58.5122 33.3471 58.3151C33.5608 58.1179 33.8393 58.0059 34.13 58C35.05 58.09 35.47 58.49 35.41 59.24C35.382 59.5274 35.2432 59.7927 35.0229 59.9794C34.8025 60.1661 34.5181 60.2596 34.23 60.24Z" fill="#2A2B2C"/>
<path d="M38.15 56.88C38.1519 57.0357 38.1129 57.1891 38.037 57.325C37.961 57.4609 37.8507 57.5745 37.7171 57.6545C37.5835 57.7344 37.4313 57.7779 37.2756 57.7807C37.12 57.7834 36.9663 57.7452 36.83 57.67C36.557 57.534 36.3099 57.3513 36.1 57.13C36 56.9984 35.9293 56.8469 35.8926 56.6858C35.8559 56.5247 35.8541 56.3575 35.8872 56.1956C35.9203 56.0337 35.9877 55.8807 36.0848 55.747C36.1818 55.6132 36.3064 55.5017 36.45 55.42C36.5842 55.3637 36.7302 55.3415 36.8751 55.3554C37.0199 55.3694 37.1591 55.4191 37.28 55.5C38 55.9 38.18 56.2 38.15 56.88Z" fill="#2A2B2C"/>
<path d="M19.77 68.21C19.7016 68.5492 19.5264 68.8576 19.27 69.09C19.08 69.29 18.83 69.22 18.61 69.09C18.39 68.96 18.22 68.82 18.03 68.67C17.8889 68.5711 17.7868 68.4261 17.7411 68.26C17.6955 68.0939 17.7092 67.9171 17.78 67.76C17.8669 67.5658 17.9741 67.3815 18.1 67.21C18.159 67.1236 18.2489 67.063 18.3511 67.0407C18.4534 67.0184 18.5603 67.036 18.65 67.09C18.686 67.0998 18.724 67.0998 18.76 67.09C18.9029 67.0875 19.0447 67.1157 19.1757 67.1727C19.3068 67.2296 19.4242 67.314 19.5199 67.4201C19.6156 67.5263 19.6874 67.6517 19.7306 67.7879C19.7737 67.9242 19.7872 68.0681 19.77 68.21Z" fill="#2A2B2C"/>
<path d="M21.94 70C21.7226 69.941 21.5116 69.8606 21.31 69.76C21.248 69.7301 21.1925 69.6882 21.1468 69.6368C21.1011 69.5853 21.0661 69.5253 21.0437 69.4602C21.0214 69.395 21.0122 69.3261 21.0167 69.2574C21.0213 69.1887 21.0394 69.1216 21.07 69.06C21.25 68.65 21.42 68.24 21.95 68.15C22.0781 68.1154 22.2117 68.1067 22.3432 68.1243C22.4746 68.1419 22.6013 68.1854 22.7158 68.2524C22.8302 68.3194 22.9302 68.4085 23.0099 68.5146C23.0896 68.6206 23.1474 68.7414 23.18 68.87C23.2229 68.9955 23.2257 69.1313 23.1881 69.2585C23.1505 69.3856 23.0743 69.498 22.97 69.58C22.6775 69.8218 22.3181 69.9683 21.94 70Z" fill="#2A2B2C"/>
<path d="M18.83 70.37C18.842 70.5159 18.8178 70.6626 18.7595 70.797C18.7013 70.9313 18.6108 71.0492 18.496 71.1402C18.3813 71.2312 18.2459 71.2925 18.1018 71.3186C17.9577 71.3447 17.8094 71.3349 17.67 71.29C17.11 71.15 16.8 70.83 16.82 70.39C16.8128 70.2641 16.8354 70.1383 16.8861 70.0229C16.9367 69.9074 17.0139 69.8056 17.1114 69.7256C17.2089 69.6457 17.3239 69.5899 17.4471 69.5629C17.5702 69.5358 17.698 69.5383 17.82 69.57H18.08C18.61 69.62 18.83 69.85 18.83 70.37Z" fill="#2A2B2C"/>
</svg>
