<svg width="80" height="80" viewBox="0 0 80 80" fill="none" xmlns="http://www.w3.org/2000/svg">
<path d="M14.74 37.06C14.57 36.59 14.38 36.12 14.21 35.65C13.7172 34.4016 13.4334 33.0806 13.37 31.74C13.214 29.3797 13.7828 27.0282 15 25C15.8825 23.7479 16.9515 22.6384 18.17 21.71C18.85 21.15 19.59 20.65 20.32 20.16C21.2089 19.5675 22.2517 19.2477 23.32 19.24C25.2431 19.1826 27.1669 19.3267 29.06 19.67C29.8793 19.8517 30.6699 20.1444 31.41 20.54L33.55 21.54C34.2503 21.8757 34.8946 22.3176 35.46 22.85C35.96 23.31 36.46 23.75 37 24.21C37.25 24.44 37.48 24.69 37.72 24.95C37.9637 24.3033 38.3579 23.724 38.87 23.26C40.19 21.81 41.53 20.38 42.87 18.94C43.0485 18.7462 43.25 18.575 43.47 18.43C44.7961 17.5248 46.2992 16.9113 47.88 16.63C48.7897 16.5297 49.705 16.4896 50.62 16.51C52.7533 16.5135 54.868 16.9067 56.86 17.67C57.9117 18.0673 58.8838 18.6498 59.73 19.39C60.1275 19.7395 60.4653 20.1516 60.73 20.61C61.752 22.4251 62.4842 24.3888 62.9 26.43C63.1611 27.8475 63.2384 29.2927 63.13 30.73C63.13 31.82 62.94 32.9 62.84 33.98L63.07 33.71C63.6653 33.0043 64.3957 32.4249 65.2184 32.0059C66.041 31.5868 66.9392 31.3366 67.86 31.27C69.162 31.2199 70.4461 31.5866 71.5253 32.3168C72.6044 33.0471 73.4224 34.1027 73.86 35.33C74.4556 36.9252 74.678 38.6356 74.51 40.33C74.1991 43.5505 73.0926 46.6432 71.29 49.33C69.9225 51.3885 68.3766 53.3226 66.67 55.11C64.1712 57.8972 61.524 60.5477 58.74 63.05C57.4742 64.1066 56.1378 65.0755 54.74 65.95C52.5312 67.3946 50.1868 68.6204 47.74 69.61C45.3232 70.6634 42.8164 71.4967 40.25 72.1C39.0224 72.3148 37.775 72.3953 36.53 72.34C35.2194 72.3364 33.916 72.1444 32.66 71.77C31.73 71.47 30.84 71.01 29.93 70.63C27.9935 69.784 26.1668 68.7061 24.49 67.42L19.87 64.07C19.643 63.9511 19.4053 63.854 19.16 63.78C18.9597 63.6862 18.7412 63.6377 18.52 63.6377C18.2988 63.6377 18.0803 63.6862 17.88 63.78C16.55 64.3 15.23 64.78 13.88 65.31C13.3469 65.5282 12.8029 65.7184 12.25 65.88C11.98 65.95 11.7 66.23 11.41 66.23C11.3568 66.225 11.3032 66.225 11.25 66.23C10.85 66.31 10.57 65.75 10.4 65.38C9.85572 64.089 9.43387 62.7498 9.14 61.38C8.43 58.49 7.65 55.62 7.02 52.71C6.6741 51.0041 6.41377 49.2819 6.24 47.55C6.09 46.33 6.04 45.11 5.97 43.89C5.97 43.48 5.97 43.08 5.97 42.67C5.97847 42.5866 6.00959 42.507 6.06 42.44C6.51278 41.9805 6.99371 41.5497 7.5 41.15C8.5 40.32 9.57 39.51 10.66 38.77C11.9062 37.9595 13.2883 37.3802 14.74 37.06ZM8.68 42C8.38355 42.234 8.1543 42.5423 8.01555 42.8936C7.8768 43.2448 7.83348 43.6266 7.89 44C8.02 45.19 8.03 46.39 8.18 47.58C8.37 49.21 8.55 50.86 8.9 52.47C9.54 55.37 10.29 58.25 11.02 61.13C11.29 62.19 11.39 62.64 11.73 63.68C11.95 64.36 12.35 64.51 13.01 64.26C14.76 63.61 15.56 62.95 17.3 62.26C18.2438 62.0552 19.2267 62.1281 20.13 62.47C20.5695 62.678 20.9909 62.9222 21.39 63.2C22.08 63.67 22.72 64.2 23.39 64.67C24.77 65.67 26.16 66.67 27.55 67.6C29.4457 68.7962 31.4556 69.8011 33.55 70.6C33.6726 70.6472 33.8 70.6808 33.93 70.7C34.69 70.83 35.43 70.99 36.19 71.06C37.7561 71.2368 39.3396 71.1829 40.89 70.9C43.52 70.37 44.32 69.73 46.79 68.74C49.0303 67.8191 51.1797 66.6909 53.21 65.37C54.9327 64.2981 56.5529 63.0695 58.05 61.7C60.64 59.3 63.05 56.7 65.46 54.13C66.9296 52.5771 68.2676 50.9047 69.46 49.13C71.2387 46.5279 72.3293 43.5176 72.63 40.38C72.8068 38.7813 72.6011 37.1636 72.03 35.66C71.6422 34.6374 70.9425 33.7628 70.03 33.16C68.87 32.39 68.77 32.46 67.33 32.79C66.0885 33.0843 64.9425 33.69 64 34.55C63.1191 35.5617 62.4402 36.7328 62 38C61.0583 40.4717 59.9109 42.8601 58.57 45.14C57.1835 47.6665 55.2075 49.8209 52.81 51.42C52.74 51.48 52.81 51.48 52.81 51.48L52.96 51.57C54.49 53.14 55.02 54.43 54.74 56.31C54.4923 58.0389 53.7647 59.6638 52.64 61C51.8389 62.0832 50.8162 62.9832 49.64 63.64C48.0754 64.4813 46.4174 65.1358 44.7 65.59C43.64 65.7609 42.5719 65.8778 41.5 65.94C40.8378 66.0346 40.1677 66.0614 39.5 66.02C37.0946 65.8405 34.7324 65.2837 32.5 64.37C30.7462 63.4963 29.1015 62.4188 27.6 61.16C27.1609 60.8227 26.8704 60.3278 26.79 59.78C26.74 59.46 26.87 58.66 27.14 58.6C27.2036 58.5901 27.2685 58.5937 27.3306 58.6104C27.3926 58.6272 27.4505 58.6568 27.5005 58.6973C27.5504 58.7378 27.5913 58.7884 27.6205 58.8457C27.6497 58.903 27.6666 58.9658 27.67 59.03C27.729 59.3954 27.9304 59.7226 28.23 59.94C28.92 60.47 29.6 61.01 30.31 61.5C31.9553 62.6741 33.8028 63.5351 35.76 64.04C36.7941 64.3288 37.8575 64.4999 38.93 64.55C40.2181 64.5413 41.5042 64.4478 42.78 64.27C44.0946 64.0872 45.3833 63.7516 46.62 63.27C47.575 62.9831 48.4817 62.5551 49.31 62C51.0476 60.7792 52.2727 58.9593 52.75 56.89C52.9165 56.3226 52.9709 55.7282 52.91 55.14C52.7911 54.465 52.5649 53.8134 52.24 53.21C51.97 52.68 52.11 52.84 51.5 52.35C51.159 52.675 50.7795 52.9571 50.37 53.19L47.67 55C46.49 55.78 45.29 56.55 44.12 57.36C42.69 58.36 41.29 59.36 39.88 60.36C39.7596 60.4519 39.6287 60.5291 39.49 60.59C39.29 60.69 39.2 60.59 39.05 60.4C38.9 60.21 38.67 60.22 38.5 60.13C38.3518 60.0313 38.2144 59.9173 38.09 59.79C38.0299 59.7289 37.9628 59.6752 37.89 59.63C37.66 59.5 37.4 59.4 37.17 59.25C36.74 58.97 36.31 58.67 35.91 58.35C34.5833 57.2768 33.1833 56.2978 31.72 55.42C30.83 54.9 29.92 54.42 29.06 53.87C25.566 51.521 22.3665 48.7612 19.53 45.65C17.936 43.9803 16.5891 42.0911 15.53 40.04C15.1 39.2 15.25 38.28 14.35 38.57L8.68 42ZM52.8 49C54.2033 47.9195 55.4546 46.6548 56.52 45.24C56.4509 45.001 56.4008 44.7569 56.37 44.51C56.37 44.04 56.44 43.57 56.49 43.1C56.54 42.63 56.73 42.58 57.02 42.63C57.31 42.68 57.42 42.91 57.38 43.23L57.29 44H57.36L58.85 41.51C58.38 41.51 58.34 41.1 58.2 40.82C58.0546 40.3408 57.7647 39.9182 57.37 39.61C56.8379 39.2743 56.2357 39.0656 55.61 39C54.818 38.9598 54.0239 39 53.24 39.12C52.4372 39.2461 51.6877 39.6009 51.0812 40.1418C50.4747 40.6827 50.0368 41.3868 49.82 42.17C49.66 42.95 49.52 43.74 49.43 44.54C49.325 45.228 49.2848 45.9244 49.31 46.62C49.39 47.62 49.58 48.53 49.74 49.49C49.82 49.98 49.92 50.49 50.02 50.98L52.16 49.43C52.16 49.18 52.04 48.97 52.02 48.76C51.94 48.01 51.86 47.26 51.81 46.51C51.76 45.76 51.73 44.87 51.71 44.05C51.71 43.96 51.82 43.86 51.88 43.77C51.94 43.86 52.05 43.94 52.06 44.04C52.25 45.26 52.42 46.48 52.6 47.7C52.65 48.06 52.72 48.47 52.8 49ZM28.24 50.87H28.31L28.07 48.87C28.01 48.33 27.94 47.78 27.9 47.24C27.9 47.15 28.02 47.04 28.09 46.95C28.15 47.03 28.26 47.11 28.28 47.21C28.51 48.29 28.72 49.37 28.94 50.45C29 50.76 29.05 51.08 29.13 51.45L31 52.63C31.0036 52.56 31.0036 52.4899 31 52.42C31.037 50.3082 30.8932 48.1972 30.57 46.11C30.4439 45.0209 30.1041 43.9675 29.57 43.01C29.3932 42.6022 29.1314 42.2369 28.802 41.9386C28.4726 41.6402 28.0832 41.4157 27.66 41.28C27.2862 41.1908 26.9042 41.1405 26.52 41.13C25.446 41.1877 24.3934 41.4525 23.42 41.91C23.0639 42.0734 22.7283 42.2782 22.42 42.52C21.9281 42.8972 21.599 43.4481 21.5 44.06C21.4701 44.3124 21.4701 44.5675 21.5 44.82C21.4978 44.9239 21.5294 45.0256 21.59 45.11C21.83 45.36 22.09 45.59 22.35 45.83C23.98 47.29 25.54 48.83 27.35 50.16L28.24 50.87ZM53.24 27.44C53.0416 27.4572 52.8445 27.4873 52.65 27.53C51.4985 27.8781 50.4845 28.5773 49.75 29.53C49.4481 29.8956 49.2256 30.32 49.0965 30.7762C48.9673 31.2324 48.9345 31.7104 49 32.18C49.1226 33.0402 49.4673 33.8536 50 34.54C50.1723 34.7754 50.4033 34.9616 50.67 35.08C51.2681 35.3266 51.883 35.5305 52.51 35.69C52.8358 35.777 53.1753 35.8007 53.51 35.76C54.4269 35.655 55.2928 35.2829 56 34.69C56.4899 34.3121 56.8243 33.7678 56.94 33.16C57.1321 32.222 57.0593 31.249 56.73 30.35C56.4788 29.6303 56.0527 28.9842 55.49 28.47C55.2085 28.2717 54.9381 28.058 54.68 27.83C54.4416 27.6612 54.1681 27.5484 53.88 27.5C53.6525 27.4579 53.4214 27.4378 53.19 27.44H53.24ZM41.14 36.56L39.86 36.43C39.2281 36.4066 38.6057 36.5889 38.0864 36.9496C37.567 37.3103 37.1788 37.8298 36.98 38.43C36.802 38.9432 36.6584 39.4677 36.55 40C36.4829 40.5663 36.5637 41.1403 36.7845 41.6661C37.0054 42.1919 37.3587 42.6514 37.81 43C38.4246 43.4952 39.1476 43.8379 39.92 44C40.525 44.2147 41.1872 44.2034 41.7845 43.9682C42.3818 43.7329 42.8739 43.2896 43.17 42.72C43.8011 41.6328 44.0111 40.3517 43.76 39.12C43.686 38.7936 43.5313 38.4911 43.31 38.24C42.84 37.71 42.68 37.24 42.04 37.01C41.7129 36.8831 41.3954 36.7327 41.09 36.56H41.14ZM29.8 34.65C29.7825 34.3323 29.7322 34.0173 29.65 33.71C29.33 32.94 28.99 32.19 28.65 31.46C28.31 30.73 27.59 30.61 27 30.27C26.846 30.2288 26.684 30.2288 26.53 30.27C26.01 30.2852 25.5017 30.4282 25.05 30.6863C24.5983 30.9444 24.2171 31.3097 23.94 31.75C23.3279 32.5625 22.9978 33.5527 23 34.57C23.0833 35.3087 23.386 36.0054 23.869 36.5705C24.352 37.1355 24.9933 37.5429 25.71 37.74C26.0941 37.8567 26.4997 37.8849 26.8963 37.8226C27.2929 37.7602 27.6702 37.6089 28 37.38C28.2 37.24 28.39 37.09 28.6 36.96C28.9709 36.6997 29.2736 36.3538 29.4825 35.9517C29.6914 35.5496 29.8003 35.1031 29.8 34.65ZM45.26 52.26C45.002 51.6305 44.6661 51.0358 44.26 50.49C44.2429 50.4698 44.2214 50.4538 44.1971 50.4434C44.1728 50.433 44.1464 50.4284 44.12 50.43C43.72 50.43 43.32 50.51 42.91 50.53L35.91 50.79C35.7412 50.7737 35.5739 50.7436 35.41 50.7C35.0559 51.2602 34.8304 51.8921 34.75 52.55C34.8498 52.5402 34.9502 52.5402 35.05 52.55L37.2 52.45C38.7679 52.335 40.3421 52.335 41.91 52.45C43.0292 52.5836 44.1631 52.5193 45.26 52.26ZM35.52 50.26L35.59 50.34H36.07L37.93 50.25C39.5 50.18 41.07 50.11 42.64 50.02C42.96 50.02 43.27 49.92 43.58 49.87V49.77C43.28 49.53 42.99 49.29 42.68 49.07C42.37 48.85 42.06 48.64 41.68 48.45C41.4794 48.2884 41.248 48.1694 41 48.1C40.3775 48.0117 39.7484 47.9783 39.12 48C38.1114 48.0356 37.1494 48.4332 36.41 49.12C36.085 49.4699 35.7874 49.8443 35.52 50.24V50.26ZM42 53.06C40.4861 52.9298 38.9639 52.9298 37.45 53.06C37.39 53.06 37.29 53.19 37.29 53.26C37.29 53.99 37.29 54.72 37.29 55.44C38.9628 55.5841 40.6478 55.4797 42.29 55.13L42 53.06ZM42.4 55.94H37.28C37.28 56.23 37.28 56.48 37.28 56.72C37.2836 56.7708 37.298 56.8202 37.3221 56.865C37.3462 56.9098 37.3796 56.949 37.42 56.98C37.78 57.17 38.16 57.33 38.53 57.5C38.67 57.57 38.88 57.62 38.92 57.73C38.9642 57.8395 39.0333 57.9371 39.1219 58.0152C39.2104 58.0933 39.3159 58.1497 39.43 58.18C40.37 57.54 41.31 56.89 42.23 56.24C42.32 56.18 42.34 56 42.39 55.94H42.4ZM36.5 53.08C36.16 53.08 35.84 53.13 35.5 53.13L34.5 53.07C34.5 53.55 34.42 54.07 34.39 54.64C34.3758 54.689 34.3758 54.741 34.39 54.79C34.6463 55.0488 34.965 55.2372 35.3153 55.3371C35.6656 55.4369 36.0357 55.4448 36.39 55.36L36.5 53.08ZM42.8 53.19L43.11 55C43.4917 54.9599 43.8675 54.876 44.23 54.75C44.6709 54.5177 45.0923 54.2502 45.49 53.95C45.5242 53.9237 45.5526 53.8905 45.5732 53.8527C45.5939 53.8148 45.6064 53.773 45.61 53.73C45.61 53.47 45.51 53.21 45.48 53.03L42.8 53.19ZM36.46 56.28V55.91H36L36.46 56.28Z" fill="#2A2B2C"/>
<path d="M53.74 31.73C53.64 30.99 53.34 30.78 53.74 30.22C54.14 29.66 54.48 29.64 54.74 30.11C54.9621 30.717 55.0903 31.3543 55.12 32C55.0745 32.3966 55.0077 32.7905 54.92 33.18C54.8805 33.2479 54.8265 33.3061 54.7618 33.3506C54.6971 33.395 54.6233 33.4245 54.5458 33.4369C54.4683 33.4494 54.389 33.4444 54.3136 33.4225C54.2383 33.4005 54.1687 33.3621 54.11 33.31" fill="#2A2B2C"/>
<path d="M52.59 32.33C52.59 32.89 52.84 33.2 52.45 33.33C52.3951 33.341 52.3437 33.365 52.3 33.4C52.2436 33.4552 52.1746 33.496 52.099 33.5189C52.0234 33.5417 51.9434 33.546 51.8658 33.5312C51.7883 33.5165 51.7154 33.4832 51.6534 33.4343C51.5915 33.3853 51.5423 33.3221 51.51 33.25C51.2192 32.316 51.1305 31.3309 51.25 30.36C51.41 29.87 51.7 29.64 52.05 30.03C52.3449 30.7651 52.5269 31.5405 52.59 32.33Z" fill="#2A2B2C"/>
<path d="M42.24 41.48C42.2473 41.5681 42.2356 41.6567 42.2057 41.74C42.1759 41.8232 42.1286 41.8991 42.0671 41.9625C42.0055 42.026 41.9311 42.0755 41.8488 42.1079C41.7665 42.1402 41.6783 42.1546 41.59 42.15C41.17 42.15 40.46 38.68 40.46 38.15C40.4503 38.0593 40.4595 37.9675 40.487 37.8806C40.5146 37.7936 40.5598 37.7133 40.62 37.6447C40.6801 37.5761 40.7538 37.5207 40.8364 37.482C40.9191 37.4434 41.0088 37.4222 41.1 37.42C41.54 37.42 42.24 40.91 42.24 41.48Z" fill="#2A2B2C"/>
<path d="M39.74 41.74C39.74 42.12 39.55 42.38 39.28 42.42C39.1345 42.4473 38.9841 42.418 38.8596 42.3381C38.735 42.2582 38.6457 42.1336 38.61 41.99C38.55 41.79 38.47 38.62 38.46 38.41C38.476 38.3228 38.5125 38.2406 38.5664 38.1703C38.6204 38.0999 38.6902 38.0434 38.7703 38.0053C38.8503 37.9673 38.9383 37.9487 39.0269 37.9513C39.1155 37.9538 39.2023 37.9774 39.28 38.02C39.57 38.21 39.7 41.47 39.74 41.74Z" fill="#2A2B2C"/>
<path d="M26.88 32.43C27.11 31.62 27.55 31.89 27.65 32.26C27.75 32.63 27.99 35.19 27.98 35.53C27.9579 35.6741 27.9007 35.8105 27.8136 35.9273C27.7264 36.0442 27.6118 36.1378 27.48 36.2C27.3725 36.2358 27.2553 36.2288 27.1528 36.1804C27.0504 36.1319 26.9705 36.0458 26.93 35.94" fill="#2A2B2C"/>
<path d="M26 32.3C25.93 32.61 25.55 35.69 25.29 35.76C25.1081 35.7907 24.9213 35.7551 24.7635 35.6597C24.6056 35.5642 24.4873 35.4153 24.43 35.24C24.33 34.88 24.81 31.58 25.18 31.51C25.28 31.51 25.71 31.29 25.76 31.36C26 31.59 26 31.56 26 32.3Z" fill="#2A2B2C"/>
</svg>
