<?xml version="1.0" encoding="utf-8"?><!--Generator: Adobe Illustrator 25.4.1, SVG Export Plug-In . SVG Version: 6.00 Build 0)--><svg version="1.1" id="Layer_1" xmlns="http://www.w3.org/2000/svg" xmlns:xlink="http://www.w3.org/1999/xlink" x="0px" y="0px" viewBox="0 0 30 30" style="enable-background:new 0 0 30 30" xml:space="preserve"><style type="text/css">.st0{fill:#231F20;}</style><path class="st0" d="M26.1,30c-0.1,0-0.2,0-0.3,0c-6.5-0.9-12.6-4-17.2-8.6C4,16.8,0.9,10.7,0,4.2C-0.1,3.6,0.1,3,0.4,2.5
	c0.3-0.5,0.9-0.9,1.5-1L7,0.1C7.6-0.1,8.2,0,8.7,0.2C9.3,0.5,9.7,1,10,1.5l2.7,6.1c0.2,0.5,0.3,1.1,0.1,1.6c-0.1,0.5-0.4,1-0.9,1.4
	l-2.6,2.1c2,3.3,4.8,6,8.1,8.1l2.1-2.6c0.3-0.4,0.8-0.7,1.4-0.9c0.5-0.1,1.1-0.1,1.6,0.1l6.1,2.7c0.5,0.2,1,0.7,1.2,1.2
	c0.3,0.5,0.3,1.2,0.2,1.7l-1.3,5.1c-0.2,0.6-0.5,1.1-1,1.5C27.1,29.9,26.6,30,26.1,30z M7.6,1c-0.1,0-0.3,0-0.4,0L2.2,2.4
	C1.8,2.5,1.5,2.7,1.3,3C1.1,3.3,1,3.7,1,4.1c0.9,6.2,3.8,12.1,8.3,16.6c4.5,4.5,10.4,7.4,16.6,8.3c0.4,0,0.7,0,1-0.2
	c0.3-0.2,0.5-0.5,0.6-0.9l1.3-5.1c0.1-0.3,0.1-0.7-0.1-1c-0.2-0.3-0.4-0.6-0.7-0.7L22,18.3c-0.3-0.1-0.6-0.2-1-0.1
	c-0.3,0.1-0.6,0.3-0.8,0.5l0,0L17.6,22l-0.4-0.2c-3.7-2.2-6.8-5.3-9-9L8,12.4l3.3-2.6c0.3-0.2,0.4-0.5,0.5-0.8c0.1-0.3,0-0.7-0.1-1
	L9,1.9C8.9,1.6,8.6,1.3,8.3,1.2C8.1,1.1,7.9,1,7.6,1z M19.9,18.4L19.9,18.4L19.9,18.4z"/><path class="st0" d="M29.5,14h-1v-0.5c0-3.2-1.2-6.2-3.5-8.4s-5.2-3.5-8.4-3.5H16v-1h0.5c3.5,0,6.7,1.3,9.1,3.8s3.8,5.7,3.8,9.1V14z
	"/><path class="st0" d="M23.3,14h-1v-0.5c0-1.5-0.6-2.9-1.7-4c-1.1-1.1-2.5-1.7-4-1.7H16v-1h0.5c1.8,0,3.5,0.7,4.8,2c1.3,1.3,2,3,2,4.8
	V14z"/></svg>