<?xml version="1.0" encoding="utf-8"?>
<svg viewBox="0 0 22 57" fill="none" xmlns="http://www.w3.org/2000/svg">
  <rect fill="var(--logo-fill-color, #0367E1)" width="22" height="57"/>
  <path fill="var(--logo-background-color, #FFFFFF)" d="M27.5392 11.0074L33 15.0559V21.2699L27.5392 17.1487L21.9963 21.2892L16.5356 17.1487L10.9795 21.2892L5.5319 17.1487L-0.0256691 21.2892L-5.4571 17.1294L-11 21.2699V15.0559L-5.4571 10.988L0.00220013 15.0349L5.5319 11.0074L10.9795 15.0559L16.5356 11.0074L21.9963 15.0559L27.5392 11.0074Z"/>
  <path fill="var(--logo-background-color, #FFFFFF)" d="M27.5392 24.0555L33 28.104V34.318L27.5392 30.1968L21.9963 34.3373L16.5356 30.1968L10.9795 34.3373L5.5319 30.1968L-0.0256691 34.3373L-5.4571 30.1775L-11 34.318V28.104L-5.4571 24.0361L0.00220013 28.083L5.5319 24.0555L10.9795 28.104L16.5356 24.0555L21.9963 28.104L27.5392 24.0555Z"/>
  <path fill="var(--logo-background-color, #FFFFFF)" d="M27.5392 37.1037L33 41.1522V47.3662L27.5392 43.245L21.9963 47.3856L16.5356 43.245L10.9795 47.3856L5.5319 43.245L-0.0256691 47.3856L-5.4571 43.2257L-11 47.3662V41.1522L-5.4571 37.0844L0.00220013 41.1312L5.5319 37.1037L10.9795 41.1522L16.5356 37.1037L21.9963 41.1522L27.5392 37.1037Z"/>
</svg>
