<svg width="73" height="73" viewBox="0 0 73 73" fill="none" xmlns="http://www.w3.org/2000/svg">
<path fill-rule="evenodd" clip-rule="evenodd" d="M41 0H33V8H41V0ZM36.5 14C24.09 14 14 24.09 14 36.5C14 48.91 24.09 59 36.5 59C48.91 59 59 48.91 59 36.5C59 24.09 48.91 14 36.5 14ZM36.5 51C28.5 51 22 44.5 22 36.5C22 28.5 28.5 22 36.5 22C44.5 22 51 28.5 51 36.5C51 44.5 44.5 51 36.5 51ZM8.21689 13.1705L13.8737 7.51373L19.5305 13.1705L13.8737 18.8273L8.21689 13.1705ZM8 32H0V40H8V32ZM7.51324 59.1258L13.17 53.469L18.8268 59.1258L13.17 64.7826L7.51324 59.1258ZM40 65H32V73H40V65ZM53.4685 59.8295L59.1253 54.1727L64.7821 59.8295L59.1253 65.4863L53.4685 59.8295ZM73 33H65V41H73V33ZM54.1722 13.8742L59.829 8.21738L65.4858 13.8742L59.829 19.531L54.1722 13.8742Z" fill="black"/>
</svg>
