<svg width="79" height="53" viewBox="0 0 79 53" fill="none" xmlns="http://www.w3.org/2000/svg">
<path d="M60.06 53H15C6.73 53 0 46.27 0 38C0 31.55 4.17 25.94 10.01 23.87C10.34 10.65 21.2 0 34.5 0C44.1 0 52.76 5.68 56.71 14.2C57.63 14.06 58.56 14 59.5 14C70.25 14 79 22.75 79 33.5C79 44.1 70.71 52.66 60.13 53H60.06ZM34.5 8C25.4 8 18 15.4 18 24.5C18 25.11 18.05 25.76 18.14 26.55L18.66 30.72L14.47 31.03C10.84 31.3 8 34.36 8 38C8 41.86 11.14 45 15 45H59.93C66.14 44.77 71 39.73 71 33.5C71 27.16 65.84 22 59.5 22C58.19 22 56.87 22.24 55.58 22.7L51.53 24.17L50.36 20.02C48.37 12.95 41.85 8 34.5 8Z" fill="black"/>
</svg>
