<svg width="79" height="67" viewBox="0 0 79 67" fill="none" xmlns="http://www.w3.org/2000/svg">
<path d="M59.5 14C58.57 14 57.64 14.07 56.71 14.2C52.76 5.68 44.1 0 34.5 0C21.2 0 10.34 10.65 10.01 23.87C4.17 25.94 0 31.55 0 38C0 46.25 6.7 52.97 14.95 53L8.52 67H17.32L23.75 53H34.95L28.52 67H37.32L43.75 53H54.95L48.52 67H57.32L63.98 52.5C72.66 50.48 79 42.77 79 33.5C79 22.75 70.25 14 59.5 14ZM59.93 45H15C11.14 45 8 41.86 8 38C8 34.36 10.84 31.3 14.47 31.03L18.66 30.72L18.14 26.55C18.05 25.76 18 25.11 18 24.5C18 15.4 25.4 8 34.5 8C41.85 8 48.37 12.95 50.37 20.03L51.54 24.18L55.59 22.71C56.87 22.24 58.19 22.01 59.51 22.01C65.84 22 71 27.16 71 33.5C71 39.73 66.14 44.77 59.93 45Z" fill="black"/>
</svg>
