<svg width="66" height="72" viewBox="0 0 66 72" fill="none" xmlns="http://www.w3.org/2000/svg">
<path d="M63.51 43.84L61.96 38.04L48.47 41.66L38.68 36L48.47 30.34L61.96 33.96L63.51 28.16L55.82 26.1L65.35 20.6L62.35 15.4L52.82 20.91L54.88 13.22L49.09 11.66L45.47 25.15L35.68 30.8V19.49L45.55 9.62L41.31 5.38L35.68 11.01V0H29.68V11.01L24.05 5.38L19.81 9.62L29.68 19.49V30.8L19.88 25.15L16.27 11.66L10.47 13.22L12.53 20.91L3 15.4L0 20.6L9.53 26.1L1.84 28.16L3.4 33.96L16.88 30.34L26.68 36L16.88 41.66L3.4 38.04L1.84 43.84L9.53 45.9L0 51.4L3 56.6L12.53 51.09L10.47 58.78L16.27 60.34L19.88 46.85L29.68 41.2V52.51L19.81 62.38L24.05 66.62L29.68 60.99V72H35.68V60.99L41.31 66.62L45.55 62.38L35.68 52.51V41.2L45.47 46.85L49.09 60.34L54.88 58.78L52.82 51.09L62.35 56.6L65.35 51.4L55.82 45.9L63.51 43.84Z" fill="#000"/>
</svg>
