<?xml version="1.0" encoding="utf-8"?>
<!-- Generator: Adobe Illustrator 24.3.0, SVG Export Plug-In . SVG Version: 6.00 Build 0)  -->
<svg version="1.1" id="Layer_1" xmlns="http://www.w3.org/2000/svg" xmlns:xlink="http://www.w3.org/1999/xlink" x="0px" y="0px"
	 viewBox="0 0 578 163" style="enable-background:new 0 0 578 163;" xml:space="preserve">
<style type="text/css">
	.st0{fill:#3D3F3E;}
	.st1{fill:#0376E1;}
</style>
<g>
	<path class="st0" d="M561,101.3l-17.5-22.4v22.4h-13v-74h13v41.3l15.5-17h16.2l-20.6,21.9l22.4,27.9H561z"/>
	<path class="st0" d="M511.7,45h-10.5l9.7-15.6h14.2L511.7,45z M502,51.5h13v49.8h-13V51.5z"/>
	<path class="st0" d="M494.7,51.6l-19,49.7h-13.3l-19-49.7h13.4l12.3,34.3l12.2-34.3C481.3,51.6,494.7,51.6,494.7,51.6z"/>
	<path class="st0" d="M396.4,89.6c0-10.1,7.8-15,19.5-18.2l10.5-3c0-5.4-3.7-7.7-8.1-7.7c-4.6,0-8.6,2.1-8.6,7.7h-11.9
		c0-13.4,10.4-18.2,20.5-18.2c9.7,0,20.6,4.8,20.6,18.5v32.6h-12.3v-5.7c-3.6,4.6-9.8,7.1-15.8,7.1
		C403.7,102.6,396.4,99.2,396.4,89.6z M425.9,82.4v-4.2l-8,2.3c-6.9,2-8.8,4.8-8.8,7.5c0,2.6,2,4.1,4.8,4.1
		C418.4,92.1,425.9,88.1,425.9,82.4z"/>
	<path class="st0" d="M365.1,112.1h1.6c3.9,0,6.7-1.9,6.7-7.5V51.6h13V104c0,13.7-7.8,19.3-16.5,19.3h-4.8L365.1,112.1L365.1,112.1z
		 M372.1,35.6c0-4.2,3.5-7.7,7.8-7.7c4.3,0,7.7,3.6,7.7,7.7c0,4.3-3.5,7.8-7.7,7.8C375.5,43.4,372.1,39.9,372.1,35.6z"/>
	<path class="st0" d="M349.6,101.3l-17.5-22.4v22.4h-13v-74h13v41.3l15.5-17h16.2l-20.6,21.9l22.4,27.9L349.6,101.3L349.6,101.3z"/>
	<path class="st0" d="M311.8,51.6l-28.9,71.7h-12.6l8.5-22.3l-20.9-49.4h14l13.2,32.8l12.6-32.8C297.7,51.6,311.8,51.6,311.8,51.6z"
		/>
	<path class="st0" d="M255.3,81h-34.6c0.5,5.3,4.2,11,12.3,11c5.7,0,8.9-2.7,9.9-6.1h11.8c-2,10.3-9.7,16.8-21.9,16.8
		c-15.7,0-25-11.3-25-26.2c0-14.7,9.8-26.2,24.3-26.2c12.7,0,23.2,8.4,23.2,24.4V81z M243.1,72c-0.2-6.2-4.5-11.1-11.3-11.1
		c-7.1,0-10.7,5.1-11.2,11.1H243.1z"/>
	<path class="st0" d="M172.6,75h-5.7v26.2h-13.6V32h22.6c17.1,0,24.2,10.8,24.2,21.5c0,8.3-4.3,16.6-14.2,20l15.7,27.8h-15.2
		L172.6,75z M166.8,63h7.8c7.9,0,11.8-3.7,11.8-9.5c0-5.9-3.9-9.4-11.8-9.4h-7.8V63z"/>
</g>
<g>
	<path class="st1" d="M84.9,65.7v9.5l9.4-6.3l9.2,6.3v-9.4l-9.2-6.1L84.9,65.7z"/>
	<path class="st1" d="M51.7,46l-7.1-5.2l-9.4,6.3v9.6l9.4-6.4l7,5.3l7.3-5.3l9.4,6.4v-9.6L59,40.8L51.7,46z"/>
	<path class="st1" d="M94.3,40.7l-9.4,6.1v9.5l9.4-6.3l9.2,6.3v-9.5L94.3,40.7z"/>
	<path class="st1" d="M9.2,31.2l9.4,6.3V23.7h16.7v13.9l9.4-6.4l7,5.3l7.3-5.3l9.4,6.4V23.7h16.6v13.8l9.4-6.3l9.2,6.3V0H85v15.4
		H68.4V0H52H35.1v15.4H18.5V0H0v37.5L9.2,31.2z"/>
	<path class="st1" d="M9.2,68.9l9.4,6.3v-9.5l-9.4-6.1L0,65.7v9.4L9.2,68.9z"/>
	<path class="st1" d="M18.5,56.3v-9.5l-9.4-6.1L0,46.8v9.4L9.2,50L18.5,56.3z"/>
	<path class="st1" d="M94.3,78.4l-9.4,6.1v52.6c10-11.3,17.2-24.9,18.5-39.3V84.4L94.3,78.4z"/>
	<path class="st1" d="M18.5,84.5l-9.4-6.1L0,84.5v13.3c1.3,14.5,8.5,28.1,18.5,39.5V84.5z"/>
	<path class="st1" d="M68.3,85.5L59,79.2l-7.2,5.2l-7.2-5.2l-9.4,6.3l-0.1,66.9c5.3,3.9,10.9,7.2,16.5,9.8c5.7-2.6,11.4-6,16.8-10"
		/>
	<path class="st1" d="M68.3,66.3L59,60.1l-7.2,5.2l-7.1-5.2l-9.4,6.3V76l9.4-6.5l7,5.3l7.3-5.3l9.4,6.5"/>
</g>
</svg>
