<?xml version="1.0" encoding="utf-8"?>
<!-- Generator: Adobe Illustrator 16.0.0, SVG Export Plug-In . SVG Version: 6.00 Build 0)  -->
<!DOCTYPE svg PUBLIC "-//W3C//DTD SVG 1.1//EN" "http://www.w3.org/Graphics/SVG/1.1/DTD/svg11.dtd">
<svg version="1.1" id="Layer_1" xmlns="http://www.w3.org/2000/svg" xmlns:xlink="http://www.w3.org/1999/xlink" x="0px" y="0px"
	 width="106px" height="166px" viewBox="0 0 106 166" enable-background="new 0 0 106 166" xml:space="preserve">
<path fill="#0376E1" d="M86.957,67.266v9.73l9.591-6.487L106,76.926v-9.66l-9.452-6.275L86.957,67.266z"/>
<path fill="#0376E1" d="M52.93,47.097l-7.281-5.288l-9.592,6.486v9.801l9.592-6.557l7.211,5.429l7.492-5.429l9.592,6.557v-9.801
	l-9.592-6.486L52.93,47.097z"/>
<path fill="#0376E1" d="M96.549,41.67l-9.591,6.275v9.73l9.591-6.487L106,57.676v-9.73L96.549,41.67z"/>
<path fill="#0376E1" d="M9.383,31.939l9.591,6.417V24.254h17.083v14.243l9.592-6.558l7.211,5.429l7.492-5.429l9.592,6.558V24.254
	h17.013v14.102l9.591-6.417L106,38.356V0H87.028v15.723H70.014V0H53.211H35.918v15.723H18.974V0H0v38.356L9.383,31.939z"/>
<path fill="#0376E1" d="M9.383,70.505l9.591,6.417v-9.73l-9.591-6.275L0,67.263v9.659L9.383,70.505z"/>
<path fill="#0376E1" d="M18.974,57.676v-9.73L9.383,41.67L0,47.946v9.66l9.382-6.417L18.974,57.676z"/>
<path fill="#0376E1" d="M96.549,80.236l-9.591,6.275v53.796c10.222-11.563,17.643-25.453,18.974-40.261V86.439L96.549,80.236z"/>
<path fill="#0376E1" d="M18.974,86.512l-9.591-6.275L0,86.512v13.605c1.33,14.808,8.752,28.769,18.974,40.403V86.512z"/>
<path fill="#0376E1" d="M69.944,87.498l-9.592-6.416l-7.351,5.287l-7.352-5.287l-9.662,6.416l-0.07,68.464
	c5.461,3.947,11.202,7.402,16.873,10.011c5.811-2.68,11.623-6.133,17.153-10.223"/>
<path fill="#0376E1" d="M69.944,67.897l-9.592-6.416l-7.422,5.288l-7.281-5.288l-9.662,6.416v9.872l9.662-6.628l7.211,5.43
	l7.492-5.43l9.592,6.628"/>
</svg>
