<?xml version="1.0" encoding="utf-8"?>
<!-- Generator: Adobe Illustrator 24.3.0, SVG Export Plug-In . SVG Version: 6.00 Build 0)  -->
<svg version="1.1" id="Layer_1" xmlns="http://www.w3.org/2000/svg" xmlns:xlink="http://www.w3.org/1999/xlink" x="0px" y="0px"
	 viewBox="0 0 106 166" style="enable-background:new 0 0 106 166;" xml:space="preserve">
<style type="text/css">
	.st0{fill:#0376E1;}
</style>
<path class="st0" d="M87,67.3V77l9.6-6.5l9.5,6.4v-9.7L96.5,61L87,67.3z"/>
<path class="st0" d="M52.9,47.1l-7.3-5.3l-9.6,6.5v9.8l9.6-6.6l7.2,5.4l7.5-5.4l9.6,6.6v-9.8l-9.6-6.5L52.9,47.1z"/>
<path class="st0" d="M96.5,41.7L87,47.9v9.7l9.6-6.5l9.5,6.5v-9.7L96.5,41.7z"/>
<path class="st0" d="M9.4,31.9l9.6,6.4V24.3h17.1v14.2l9.6-6.6l7.2,5.4l7.5-5.4l9.6,6.6V24.3h17v14.1l9.6-6.4l9.5,6.4V0H87v15.7H70
	V0H53.2H35.9v15.7H19V0H0v38.4L9.4,31.9z"/>
<path class="st0" d="M9.4,70.5l9.6,6.4v-9.7l-9.6-6.3L0,67.3v9.7L9.4,70.5z"/>
<path class="st0" d="M19,57.7v-9.7l-9.6-6.3L0,47.9v9.7l9.4-6.4L19,57.7z"/>
<path class="st0" d="M96.5,80.2L87,86.5v53.8c10.2-11.6,17.6-25.5,19-40.3V86.4L96.5,80.2z"/>
<path class="st0" d="M19,86.5l-9.6-6.3L0,86.5v13.6c1.3,14.8,8.8,28.8,19,40.4V86.5z"/>
<path class="st0" d="M69.9,87.5l-9.6-6.4L53,86.4l-7.4-5.3L36,87.5L35.9,156c5.5,3.9,11.2,7.4,16.9,10c5.8-2.7,11.6-6.1,17.2-10.2"
	/>
<path class="st0" d="M69.9,67.9l-9.6-6.4l-7.4,5.3l-7.3-5.3L36,67.9v9.9l9.7-6.6l7.2,5.4l7.5-5.4l9.6,6.6"/>
</svg>
