<?xml version="1.0" encoding="utf-8"?>
<!-- Generator: Adobe Illustrator 16.0.0, SVG Export Plug-In . SVG Version: 6.00 Build 0)  -->
<!DOCTYPE svg PUBLIC "-//W3C//DTD SVG 1.1//EN" "http://www.w3.org/Graphics/SVG/1.1/DTD/svg11.dtd">
<svg version="1.1" id="Layer_1" xmlns="http://www.w3.org/2000/svg" xmlns:xlink="http://www.w3.org/1999/xlink" x="0px" y="0px"
	 width="578px" height="163px" viewBox="0 0 578 163" enable-background="new 0 0 578 163" xml:space="preserve">
<g>
	<path fill="#3D3F3E" d="M560.976,101.273L543.468,78.9v22.373h-12.97V27.249h12.97V68.51l15.529-17.016h16.218l-20.584,21.878
		L577,101.273H560.976z"/>
	<path fill="#3D3F3E" d="M511.699,44.954h-10.497l9.701-15.64h14.153L511.699,44.954z M501.998,51.493h12.971v49.78h-12.971V51.493z
		"/>
	<path fill="#3D3F3E" d="M494.729,51.602l-18.992,49.671h-13.271l-18.992-49.671h13.357l12.26,34.334l12.174-34.334H494.729z"/>
	<path fill="#3D3F3E" d="M396.369,89.591c0-10.089,7.808-14.951,19.486-18.199l10.497-2.969c0-5.442-3.657-7.723-8.108-7.723
		c-4.646,0-8.604,2.086-8.604,7.723h-11.873c0-13.359,10.389-18.199,20.477-18.199c9.7,0,20.583,4.754,20.583,18.501v32.57h-12.28
		V95.55c-3.571,4.562-9.787,7.121-15.831,7.121C403.683,102.649,396.369,99.187,396.369,89.591z M425.858,82.364v-4.153
		l-8.021,2.281c-6.927,1.979-8.798,4.84-8.798,7.529c0,2.581,1.979,4.065,4.84,4.065C418.437,92.064,425.858,88.107,425.858,82.364z
		"/>
	<path fill="#3D3F3E" d="M365.053,112.052h1.592c3.85,0,6.731-1.873,6.731-7.53V51.6h12.97v52.362
		c0,13.747-7.807,19.297-16.519,19.297h-4.753v-11.207H365.053z M372.086,35.552c0-4.152,3.463-7.723,7.808-7.723
		c4.259,0,7.723,3.571,7.723,7.723c0,4.346-3.464,7.809-7.723,7.809C375.549,43.382,372.086,39.919,372.086,35.552z"/>
	<path fill="#3D3F3E" d="M349.611,101.273L332.102,78.9v22.373h-12.97V27.249h12.97V68.51l15.529-17.016h16.218l-20.584,21.878
		l22.37,27.902H349.611z"/>
	<path fill="#3D3F3E" d="M311.753,51.602l-28.886,71.659h-12.561l8.518-22.268l-20.886-49.391h13.96l13.25,32.85l12.561-32.85
		H311.753z"/>
	<path fill="#3D3F3E" d="M255.272,80.987h-34.629c0.495,5.334,4.151,10.992,12.282,10.992c5.742,0,8.904-2.667,9.894-6.13h11.765
		c-1.979,10.281-9.7,16.822-21.875,16.822c-15.745,0-25.036-11.272-25.036-26.223c0-14.736,9.786-26.224,24.349-26.224
		c12.668,0,23.25,8.411,23.25,24.438V80.987z M243.097,71.973c-0.192-6.238-4.452-11.079-11.271-11.079
		c-7.119,0-10.689,5.141-11.184,11.079H243.097z"/>
	<path fill="#3D3F3E" d="M172.571,75.049h-5.743v26.224h-13.55V32.002h22.563c17.121,0,24.24,10.778,24.24,21.47
		c0,8.304-4.259,16.629-14.153,19.984l15.745,27.816h-15.228L172.571,75.049z M166.827,62.981h7.808
		c7.915,0,11.765-3.657,11.765-9.508c0-5.852-3.851-9.401-11.765-9.401h-7.808V62.981z"/>
</g>
<g>
	<path fill="#0376E1" d="M84.945,65.709v9.505l9.369-6.337l9.233,6.268v-9.436l-9.233-6.13L84.945,65.709z"/>
	<path fill="#0376E1" d="M51.705,46.006l-7.113-5.166l-9.37,6.336v9.574l9.37-6.405l7.044,5.303l7.318-5.303l9.37,6.405v-9.574
		l-9.37-6.336L51.705,46.006z"/>
	<path fill="#0376E1" d="M94.314,40.706l-9.369,6.13v9.505l9.369-6.337l9.233,6.337v-9.505L94.314,40.706z"/>
	<path fill="#0376E1" d="M9.165,31.2l9.37,6.268V23.693h16.688v13.913l9.37-6.406l7.044,5.303l7.318-5.303l9.37,6.406V23.693h16.62
		v13.775l9.369-6.268l9.233,6.268V0H85.013v15.359h-16.62V0H51.979H35.086v15.359H18.535V0H0v37.468L9.165,31.2z"/>
	<path fill="#0376E1" d="M9.165,68.874l9.37,6.268v-9.505l-9.37-6.13L0,65.706v9.436L9.165,68.874z"/>
	<path fill="#0376E1" d="M18.535,56.341v-9.505l-9.37-6.13L0,46.836v9.437l9.165-6.268L18.535,56.341z"/>
	<path fill="#0376E1" d="M94.314,78.379l-9.369,6.13v52.551c9.985-11.296,17.234-24.863,18.535-39.328V84.438L94.314,78.379z"/>
	<path fill="#0376E1" d="M18.535,84.509l-9.37-6.13L0,84.509V97.8c1.299,14.465,8.549,28.103,18.535,39.468V84.509z"/>
	<path fill="#0376E1" d="M68.325,85.473l-9.37-6.267l-7.181,5.165l-7.182-5.165l-9.438,6.267l-0.068,66.879
		c5.334,3.856,10.942,7.231,16.482,9.779c5.677-2.618,11.354-5.991,16.756-9.986"/>
	<path fill="#0376E1" d="M68.325,66.326l-9.37-6.268l-7.25,5.166l-7.113-5.166l-9.438,6.268v9.643l9.438-6.475l7.044,5.304
		l7.318-5.304l9.37,6.475"/>
</g>
</svg>
