<svg xmlns="http://www.w3.org/2000/svg" viewBox="0 0 227 227"><path d="M162.3 17.8c8.7 1.6 11.2 8.2 9.4 16.3 2.8.4 5.3.8 8 1.5.4.2.9 0 1.1-.4 3.2-5.5 9.3-8.5 15.4-9.4 14.9-.7 9.6 31 10.4 40.9-.4 15.7-.8 31.5-2.2 47.3-.7 8.5-.8 17-.3 25.5 0 3.5.5 11.7-5 10.2-1.2-.4-2.6.5-3.7-.4-3.1-1.7-.8-14.6-1.2-18.5-9.5-5.1-21-8.4-31.4-12.5-2.5-.9-2.5-.9-4 1.4-3.4 5.6-7.1 10.9-11.3 16 12.4 2.5 24 8.4 32.7 17.7 5.7 6.1 10.1 15.9 4.7 23.5-4.3 7.1-10.5 12.8-18 16.4-9 4.3-18.7 7.2-28.6 8.6-24.2 4.3-48.6.2-72.8-1.4-9.1-.3-17.6-4.3-26.2-6.8-15.6-4.8-35.5-19.3-28.1-37.8 4.6-11.9 14.9-21.2 26.9-25.3 16-5.9 32.9-9.6 49.6-12.2 13.2-15.2 24.5-31.9 35.1-49 4.2-6 9-11.6 14.2-16.7 1.6-2 4.7-3 5.6-5.4 1.8-13.3 3.1-28.8 19.7-29.5zM79.6 128.2c-16.6 3.2-53.8 8.5-58.4 27.5-1.1 5.7-3 12.9 2 17.4 2.9 2.7 5.5 5.9 9 7.9 13.2 8.5 24.1 11.7 39.6 13.1 23.3 1.2 46.7-.2 69.7-3.6 11.5-2.3 23.7-3.7 31.9-13 10.3-10.6-2.7-24.3-13.2-28.3-4.4-2.6-9.6-3.6-14.7-3.8-1.3.3-2.8-.4-3.5-1.5-.4-.6-.8-.4-1.2 0-4.4 5.1-8.5 11.7-14.4 15-3 .8-6.6-1.1-7.1-4.3 0-.3-.4-.5-.7-.6-11.5-5.1-23.8-8.2-35.9-11.9-.4-.1-.8-.1-1.2 0-3.2 3-9.2 2.9-11-1.6-.1-.4-.1-.8.1-1.2 3-3.8 5.7-7.5 9-11.1zm6.7 7.4c9.3 3 18.5 4.9 27.1 9.4 7.9 4.9 10.1 3.5 15.9-3.2 6.1-7 13-13.4 18.2-21.1 8.5-11.8 14.2-25.1 20.4-38.2 2.7-5.6 5.2-11.3 7.8-17 .4-1.5.2-3.2.3-4.8.1-6.1.3-12.1 1.8-18 .1-.6 0-.8-.6-1-3.3-1.1-6.4-2.2-9.9-1.5-16.3 6-24.6 22-33 36-7.2 11.2-16.1 21.3-24 32-7.6 9.5-14.8 19.1-24 27.4zm78-26.1l31.2 6.6.8-11.5c-8.1-2.4-15.4-7-23.6-8.9-.7-.1-.9.2-1.2.7-2.1 4.7-5.1 8.4-7.2 13.1zm32.6-15.3c.2-4.1.4-8.1.6-12.1-5.6-1.3-11.8-3.2-17.5-2.2-1.8 2.4-2.8 5.4-4.3 8 0 .1 21.2 6.3 21.2 6.3zm-45.4-56c3.6-2.2 7.3-3.6 11.2-5 .2-.1.6-.5.6-.7-.6-15.5-11.7-2.1-11.8 5.7zm47.8 18c-4.4 3.3-8.3 7.1-11.7 11.4l10.8 2.1c.3-4.5.6-8.9.9-13.5zm-.1-14.9c-2-8.8-4.8-15.1-11-4l11 4zM183.5 54l9.1-7.5-7.4-2.3-1.7 9.8z"/><path d="M115.4 171.4c-8.8 7-20.5 2.4-27.7-4.6-.4-.4-1-.5-1.5-.2-13.2 6.6-22.7 4.6-30.7-8.1-1-1.8-3 1.8-4.3 2.4-5.8 4.4-14 9-21.4 6.7-1.8-1.1-2-4.2-.1-5.3 8 .1 15.5-4.2 21.1-9.9 4.7-5.5 7.2-2.3 10.1 2.6 1.7 2.1 3.4 4.2 5.2 6.2 5.3 5.5 13.5 1.4 19.2-1.5 1.9-1.2 3.7-.8 5.4 1 2.3 2.4 4.9 4.5 7.9 6 12 6.8 14.6-7.8 20.7-.4 4 4.7 9.6 8.3 15.9 5.8 4.8-1.1 8.6-6.2 13.5-6 1.8.6 3.1 2.8 2.4 4.7-.6 2-2.6 2-4.2 2.7-10.9 7-22.3 9.2-31.5-2.1z"/></svg>