<svg width="80" height="80" fill="none" xmlns="http://www.w3.org/2000/svg"><path d="M30.11 54l-1.38 1.73-9.09 11.38c-.31.39-.63.69-1.18.54-.09 0-.2.06-.3.11A1.55 1.55 0 0116 67.2a6.15 6.15 0 01-.86-2.38 16.13 16.13 0 01.06-6.95c.175-.642.406-1.268.69-1.87a1.79 1.79 0 011.23-1.13.69.69 0 00.27-.16c1.94-1.74 3.9-3.47 5.81-5.25.77-.7 1.45-1.49 2.17-2.25-.86-1.08-1.73-2.1-2.51-3.19-1.82-2.54-3.63-5.09-5.38-7.67-2.72-4-5.39-8.06-8.08-12.1 0-.05-.06-.11-.1-.14a2 2 0 01-.37-2.19c.34-1.3.74-2.58 1.06-3.88.15-.643.389-1.263.71-1.84.11-.2.28-.24.43-.35l4.93-3.34a.801.801 0 00.22-.23.67.67 0 011.14 0c1 1.11 2 2.21 3 3.31l.15.11c.06-.45.1-.86.16-1.27.12-.92.27-1.83.38-2.74a2.708 2.708 0 00-.06-.85.83.83 0 01.15-.84.66.66 0 00.17-1c.55-.37 1.08-.75 1.63-1.11l5.19-3.35c.55-.34.88-.22 1.33.21a18.495 18.495 0 012.37 3.4c2.28 3.46 4.51 7 6.76 10.43.05.09.11.17.19.29.13-1.58 1.28-2.08 2.49-2.5a8.08 8.08 0 013-.42 25.55 25.55 0 013.28.29A3.5 3.5 0 0150.15 18a1.62 1.62 0 010 1.7c-.108.323-.165.66-.17 1l5.33 1.48A5.63 5.63 0 0157.8 20a10.549 10.549 0 013.48-1.1 6.912 6.912 0 012.52.1 21.75 21.75 0 012.82 1.11c.709.207 1.43.367 2.16.48.499.12.99.27 1.47.45a1 1 0 01.65.88 34.872 34.872 0 01-.11 3.69 14.3 14.3 0 01-2.25 6 30.457 30.457 0 01-4.6 6 18.729 18.729 0 01-4.14 2.88 1.1 1.1 0 01-1.29 0 .29.29 0 00-.22-.05 1.151 1.151 0 01-.95-.2c-.73-.4-1.48-.78-2.23-1.16a2.19 2.19 0 01-1.11-.8.35.35 0 00-.17-.12 5.591 5.591 0 01-2.5-1.85 4.47 4.47 0 01-1.08-3.63 8.08 8.08 0 01.27-1.23l-1.77-.54a.289.289 0 00-.25.07c-.35.43-.69.88-1.05 1.33l20.2 25.44.27-.13a.72.72 0 01.78.11.7.7 0 01.24.74 1.94 1.94 0 01-.23.53l-3.13 5.69c-.43.79-.82 1.6-1.23 2.4a1 1 0 01-1 .61.43.43 0 00-.29.1 43.12 43.12 0 01-4.46 3.14c-1.8 1.28-3.6 2.63-5.4 3.94-1.13.81-2.27 1.6-3.4 2.4-.63.44-.77.33-1.41-.07a16.57 16.57 0 01-3.33-3.36C44 72.68 43 71.46 42 70.2c-2.17-2.88-4.27-5.8-6.42-8.69-1.46-1.95-3-3.87-4.4-5.82-.36-.52-.69-1.09-1.07-1.69zM50.8 70.45a28.52 28.52 0 013.78-3c1.55-1.08 3.11-2.16 4.61-3.3 1.5-1.14 3.19-2.53 4.77-3.8l2.16-1.74-19.73-24.95-11.92 14.91c5.45 7.31 10.89 14.58 16.33 21.88zM28.62 6.21L25 8.63l-.14.11a4.789 4.789 0 01-.83.74.5.5 0 00-.27.6 55.156 55.156 0 001.47 6.84c.4 1.41.83 2.82 1.21 4.24.122.507.179 1.028.17 1.55a.631.631 0 01-.64.62.77.77 0 01-.73-.42 7.989 7.989 0 00-.71-.94c-1.91-2-3.84-4.08-5.75-6.13-.6-.64-1.15-1.34-1.73-2l-.23.12-4.5 3a.82.82 0 00-.25.57c0 .15.17.31.27.46 5.4 8.253 10.807 16.5 16.22 24.74l.27.41a47.93 47.93 0 007.11-11.73c-.46.109-.912.252-1.35.43a11.71 11.71 0 00-3.34 1.92 7.74 7.74 0 01-1.06.74 1.38 1.38 0 01-1.14.16c-.7-.24-1.4-.48-2.08-.77a1 1 0 01-.54-1.12c0-.23.11-.45.17-.73l-1.6-.46a1.21 1.21 0 01-.86-1.83 10.821 10.821 0 012.18-3.27 18.16 18.16 0 018.66-4.78l3.2-.75-9.56-14.74zM54.78 32.5c2.88-1.14 5.3-5.78 4.51-8.6-.56.07-1.11.16-1.67.21a8.19 8.19 0 01-2.92-.23c-.81-.21-1.59-.53-2.39-.76-.8-.23-1.63-.42-2.46-.63-.18.83-.35 1.58-.5 2.34a1.15 1.15 0 01-.93 1c-1.38.32-2.796.45-4.21.39-.93-.06-1.86-.12-2.79-.25a4.63 4.63 0 01-2.22-.44.329.329 0 00-.1 0c-.82 0-1.13-.47-.91-1.26.15-.53.29-1.07.46-1.69l-1.19.25a20 20 0 00-7.68 2.94 12.002 12.002 0 00-3 2.78c-.36.5-.68 1-1 1.55l1.31.46c.23.09.36 0 .5-.18a12.412 12.412 0 012.37-2.64c.69-.55 1.4-1.08 2.13-1.58a.819.819 0 011.18.2.84.84 0 01-.2 1.15 6.127 6.127 0 01-.58.42 13.61 13.61 0 00-4 4.16l-.27.5.8.4c.29.16.56.2.74-.17 0-.09.15-.15.23-.23a11.55 11.55 0 013.17-2 25.59 25.59 0 0116-1.37 9.4 9.4 0 015.62 3.28zM33.37 49.94c-.72.9-1.42 1.76-2.1 2.65-.06.07 0 .29.05.39.81 1.15 1.6 2.3 2.45 3.41 1.54 2 3.19 4 4.66 6.11 2.7 3.898 5.618 7.64 8.74 11.21.48.55 1 1.08 1.53 1.65.37-1 .7-1.9 1.07-2.8a.76.76 0 00-.14-.86c-4.813-6.42-9.62-12.853-14.42-19.3-.61-.81-1.21-1.62-1.84-2.46zm31.86-28.59a.172.172 0 000 .07 13.38 13.38 0 01-.4 4c-.37 1.37-.8 2.73-1.21 4.09a10 10 0 01-1.35 2.88 18.37 18.37 0 01-5.84 5.29l-.25.16c.73.38 1.45.7 2.12 1.12a.71.71 0 00.83 0 17.229 17.229 0 004.05-3 29.379 29.379 0 003.67-4.86 14.39 14.39 0 002.52-8.29c0-.32-.11-.47-.42-.52-.57-.1-1.14-.18-1.69-.33-.55-.15-1.35-.37-2.03-.61zm-54-1.82c-.06.22-.1.35-.13.48-.22.88-.44 1.77-.64 2.65a.66.66 0 00.06.48c2.61 3.85 5.22 7.71 7.86 11.54 2 2.88 4 5.74 6 8.58.63.88 1.35 1.7 2.05 2.59.33-.38.6-.74.92-1.06.32-.32.19-.37 0-.61l-15.3-23.45-.82-1.2zm46 2.92v.13h.73l2.13-.33c.52-.07.61 0 .72.48a9.808 9.808 0 01.18 4 11 11 0 01-5.8 7.62.91.91 0 01-1.17-.18c-.6-.6-1.23-1.17-1.84-1.74a1.081 1.081 0 00-.24-.11 2.59 2.59 0 00.08 1.88 5.68 5.68 0 001.2 1.68 1.59 1.59 0 002.37.38 16.67 16.67 0 003.72-2.91 9.62 9.62 0 002.35-3.41 32.166 32.166 0 001.59-5.43c.128-.945.202-1.897.22-2.85 0-.71-.3-1-1-1s-1.3.14-2 .21a6.63 6.63 0 00-2.71 1.09 5.25 5.25 0 00-.55.49h.02zm-6.4 52l.22-.13c3.59-2.86 7.32-5.52 11.09-8.12a4.87 4.87 0 002-2.43 21.02 21.02 0 011-2.08v-.1a2.31 2.31 0 00-.67.24c-1.17.91-2.35 1.82-3.47 2.79-.9.78-1.7 1.68-2.6 2.46a54.887 54.887 0 01-6.53 4.81.71.71 0 00-.32.32c-.27.7-.49 1.44-.74 2.21l.02.03z" fill="#000"/></svg>