<svg xmlns="http://www.w3.org/2000/svg" viewBox="0 0 80 80"><path d="M30.1 54c-.6.7-9.6 12.1-10.5 13.1-.3.4-.6.7-1.2.5-.3 0-.6.3-.9.3-3.7 0-3.1-9.7-1.7-12 .2-.5.7-1 1.2-1.1 2.9-2.4 5.7-4.9 8.2-7.7-5.8-7.3-10.7-15.2-16-23-.6-.6-.9-1.5-.5-2.3.6-1.9.9-3.9 1.8-5.7.1-.2.3-.2.4-.3l4.9-3.3c.3-.3.6-.7 1.1-.5 1.2 1.2 2.2 2.5 3.4 3.7.1-1.6.7-3.2.5-4.9-.1-.3 0-.6.1-.8.4-.2.4-.7.2-1 1.1-.8 5.6-3.7 6.8-4.5 1.5-.9 3 2.6 3.7 3.6 2.3 3.6 4.6 7.2 6.9 10.7.6-3.6 6.1-3 8.8-2.6 1.3.2 2.7 1.2 2.8 2.6 0 .6-.5 1.2-.4 1.9l5.3 1.5c1.8-2.6 5.5-3.7 8.5-3.2 2.1.9 4.3 1.4 6.5 2 .4.1.6.5.6.9 0 1.2 0 2.5-.1 3.7-1.1 6.1-5.5 11.9-11 14.9-.4.3-1 .2-1.4 0-.2 0-.4.1-.6 0-1.3-.7-2.9-1.2-4-2.3-2.7-1-4.4-4-3.3-6.7l-1.8-.5c-.6.1-.8 1-1.3 1.4l20.2 25.4c.9-.6 1.7.4 1.1 1.3-1 1.7-3.5 6.4-4.4 8.1-.2.4-.6.6-1 .6-1.6.9-3.1 2.3-4.8 3.2-2.9 2.1-5.8 4.3-8.8 6.3-.6.4-.8.3-1.4-.1-5.1-4.4-8.7-10.4-12.8-15.7-1.5-2.5-3.5-4.8-5.1-7.5zm20.7 16.4c2.5-2.4 5.6-4.1 8.4-6.3 2.1-1.6 4.7-3.8 6.9-5.5l-19.7-25-11.9 15c5.4 7.3 10.9 14.6 16.3 21.8zM28.6 6.2c-1 .7-4.1 2.6-4.8 3.5.3 3.9 1.7 7.7 2.7 11.4.1.6.4 1.4 0 2-.3.3-1 .2-1.2-.2-2.5-3.2-5.6-5.9-8.2-9.1-1.6 1-3.1 2.1-4.7 3.1-.3.3-.3.7 0 1l16.5 25.2c2.9-3.5 5.3-7.5 7.1-11.7-1.7.4-3.3 1.2-4.7 2.3-.6.5-1.4 1.2-2.2.9-1.3-.5-3.3-.7-2.5-2.6l-1.6-.4c-2.5-.8.4-4 1.3-5.1 3.1-3.3 7.5-4.7 11.9-5.5L28.6 6.2zm26.2 26.3c2.9-1.1 5.3-5.8 4.5-8.6-3.3.9-6.3-.7-9.4-1.4-.3 1-.2 2.1-.8 3-2.3 1.2-5.1.7-7.6.5-.8.1-1.6-.2-2.3-.4-1.7 0-.6-1.9-.5-2.9-5 .8-10.4 2.8-12.9 7.5l1.3.5c.2.1.4 0 .5-.2.7-1 1.5-1.9 2.4-2.6.9-.6 3.2-3.1 3.4-.8-.1.5-.6.7-.9 1-1.8 1.2-3.3 2.8-4.3 4.7.4.1 1.2.9 1.5.2 5.7-5.2 19.8-6.6 25.1-.5zM33.4 49.9l-2.1 2.7c-.1.1 0 .3 0 .4.8 1.2 1.6 2.3 2.5 3.4 5 6.3 9.3 13.2 14.9 19 .4-1 .7-1.9 1.1-2.8.1-.3.1-.6-.1-.9-5.5-7.2-10.9-14.5-16.3-21.8zm31.8-28.5c0 6.6-3 13.4-9.1 16.5.9.4 1.7 1 2.5 1.3.1 0 .3 0 .4-.1 5.6-3.3 10.2-9.5 10.2-16.1 0-.3-.1-.5-.4-.5-1.2-.4-2.2-.7-3.6-1.1zm-54-1.9c-.2 1.2-.9 2.4-.7 3.6 5.3 7.6 10.2 15.4 15.9 22.7.3-.4.6-.7.9-1.1s.2-.4 0-.6L12.1 20.7l-.9-1.2zm46 3v.1c.5 0 2.3-.2 2.9-.3.5-.1.6 0 .7.5 1.3 4.6-1.5 9.6-5.6 11.6-1.4.6-2.1-1.6-3.2-2-.6 1.6.9 3.8 2.4 4.3.4.1.9-.1 1.3-.4 2.5-1.5 4.9-3.6 6.1-6.3.5-1.4 3.3-9.4.8-9.3-2 0-4 .4-5.4 1.8zm-6.4 51.9c3.7-2.8 7.5-5.6 11.3-8.2 1.7-1 2.2-3 3-4.6-2.6 1.2-4.6 3.6-6.7 5.5-2.1 1.8-4.2 3.4-6.5 4.8-.7.6-.8 1.7-1.1 2.5z"/></svg>