<svg width="80" height="80" viewBox="0 0 80 80" fill="none" xmlns="http://www.w3.org/2000/svg"><path d="M34.36 60.06a25.999 25.999 0 00-.49-5.82c-.12-.89-.14-.86-1-1-3-.33-5.93-.7-8.9-1-2-.22-4.07-.4-6.11-.57a17.25 17.25 0 01-5.77-1.21 10.77 10.77 0 01-5.24-4.95 6 6 0 01.32-6.13 12.53 12.53 0 015.83-5.1 19.238 19.238 0 017.19-1.94c.056.01.114.01.17 0 .08-1.2.07-2.36.26-3.49a8 8 0 014.52-5.93 10.47 10.47 0 016.6-.95l2.17.31c.15-1 .26-2 .44-3a10.12 10.12 0 018.62-7.68 19.4 19.4 0 0110 1.91 9.2 9.2 0 011.8 1.27 2.63 2.63 0 01.92 1.79c.069.307.163.608.28.9l.55 1.45a5.632 5.632 0 011.69 0A8.23 8.23 0 0160.37 20a22.438 22.438 0 012.94 2.28c2.55 2.41 3.92 5.27 3.21 8.88a13.12 13.12 0 01-1.24 3.88c.86.21 1.69.42 2.52.61a6.322 6.322 0 014.14 2.94 12.09 12.09 0 011.92 3.85 5.65 5.65 0 01-2.68 6.39 26.391 26.391 0 01-9.5 3.57 86.444 86.444 0 01-11.78 1.4l-.22.07v6.77c.49-.06 1.09-.16 1.69-.22 1.12-.11 2.24-.2 3.36-.28a2.61 2.61 0 01.84.06 1.46 1.46 0 01.68 2.55c-1.07 1-2.22 1.9-3.33 2.83l-4.79 4c-.75.62-1.52 1.22-2.26 1.85a2.28 2.28 0 01-2.7.3 49.893 49.893 0 01-6.83-3.86c-1.85-1.24-3.74-2.42-5.58-3.69a19.314 19.314 0 01-2.11-1.84 2.16 2.16 0 01-.47-.77 1.37 1.37 0 011.51-1.89c1.55.16 3.11.26 4.67.38zm17.29 3c-.58.17-1 .28-1.49.45a2 2 0 01-2.55-.95.5.5 0 00-.18-.22 1.87 1.87 0 01-1.2-2.14c.05-1.53.14-3 .15-4.58 0-2.31 0-4.63-.05-6.94 0-2.75-.11-5.5-.2-8.25a31.858 31.858 0 01.08-5.86 1.14 1.14 0 000-.55 4.23 4.23 0 00-2.67-2.82c-1.88-.61-3.68 0-5.46.52a1.16 1.16 0 00-.65 1.55c.02.11.02.22 0 .33-.193.79-.336 1.592-.43 2.4-.07 1.4 0 2.82 0 4.22 0 2 .11 4 .14 6 0 .69-.11 1.37-.13 2 0 1.26-.06 2.51 0 3.76 0 2.06.18 4.12.25 6.19v2.54a1.34 1.34 0 01-.9 1.28.8.8 0 00-.34.26 1.32 1.32 0 01-2 .39 3.896 3.896 0 00-.77-.27v.14c.88.58 1.76 1.14 2.63 1.73a51.7 51.7 0 007.92 4.77.83.83 0 001-.12c2.253-1.9 4.503-3.787 6.75-5.66.037-.075.07-.152.1-.23v.06z" fill="#000"/></svg>