<svg xmlns="http://www.w3.org/2000/svg" viewBox="0 0 80 80"><path d="M34.4 60.1c.1-2-.1-3.9-.5-5.8-.1-.9-.1-.9-1-1-5-.6-10-1.2-15-1.6-4.4-.1-9-2-11-6.2-3.2-7.7 7.1-13 13.5-13.2-.4-8.4 6-11.8 13.5-10.1.4-10.6 10.8-13 19.1-8.8 1.2.7 2.6 1.6 2.7 3.1.1.6.6 1.8.8 2.4 2.7-.5 4.9 1.8 6.8 3.4 3.8 3.2 4.2 8.4 2 12.8 1.7.5 3.5.6 4.9 1.6 2.5 2.2 4.8 6 3.4 9.4-4 6.8-16.9 7-23.9 7.8v6.8c1.6-.2 3.4-.4 5-.5.5 0 1.2 0 1.6.4.6.6.6 1.7 0 2.2-2 1.9-6 5-8.1 6.8-1.5 1-3 3.3-5 2.1-2.4-1.1-4.7-2.4-6.8-3.9-2.7-2-6.3-3.4-8.2-6.3-.9-3.2 4.4-1.2 6.2-1.4zm17.3 3c-1.4.5-3.2 1.2-4-.5-.3-.4-1-.5-1.2-1.1-.6-1.9.1-3.9-.1-5.9.2-7.2-.6-14.4-.2-21.6-1-3.7-5.8-3.5-8.5-2-.2.2-.4.5-.4.8 0 .3.2.5.1.8-.6 2.2-.4 4.4-.4 6.6.2 6-.2 12 .3 17.9-.2 1.2.6 3.2-.9 3.8-.3.1-.4.5-.7.7-.8.6-1.6-.1-2.4-.3 3.3 2.4 7.1 5.2 11.1 6.7 2.5-1.7 5-3.9 7.3-5.9z"/></svg>