<svg xmlns="http://www.w3.org/2000/svg" viewBox="0 0 80 80"><path d="M34.6 55.7C24.8 56.2 8.5 52 8.3 40c.2-3.6 2.6-6.5 5.4-8.6.9-1.3.4-3.2.7-4.7-3.2.4-6.5.4-9.5-1-2.2-1-5.1-3-3.7-5.7C4.5 12.2 16.1.7 24.2 8.9 27.4 6.6 31.1 6 34.9 6c3.6-.5 6.4 1.2 9.1 3.1 3-2.6 8-2.8 10.9.1 3.2 3.4 6.4 7.3 7.5 12 .4 4.7-4.9 6.8-8.6 7.9-.7.3-1.3-.3-2-.5 0 1.6 0 2.7-.2 4.3 0 .3.2.7.4.9 2.2 1.9 3.6 4.6 4 7.4 3.5.4 7.2.6 10.4 2.2 1.2-2 2.2-4.1 3.6-5.9.2-.3.5-.5.9-.6 1.2-.1 2.1 1.1 2.3 2.1.5 2.5 1.1 4.9 1.7 7.4.9.7 1 1.8 1.3 2.8.7 2.2 1.3 4.5 1.7 6.8.7 5.6 1.6 15.4-5.4 17.2-8.3 2.5-17.2 2.5-25.8 1.1-4.2-1.1-8.6-3.3-11.4-6.6-1.9-3.6-1.3-8.1-.7-12zm7.9-15.6c-.9 1.5-1.6 3.1-2 4.8-.1.3-.2.6-.4.8-.5.4-.9 1.1-1 1.7-1.5 5.3-2.9 10.9-2.4 16.5 0 3.3 3.5 4.6 5.8 6.1 1.5.9 3.1 1.5 4.8 1.8 4.6.6 9.3 1.2 13.9.7 3.5-.2 6.9-.8 10.2-1.7 1.9-.4 3.4-2 3.7-3.9 1.1-5.4.5-10.9-1.2-16.1-.4-1.5-.6-3.1-1.6-4.3-.6-1.9-1.2-3.9-1.6-5.9-.9 1.6-2.3 2.9-2.9 4.6.1.8-.7 1.5-1.5 1.4-4.6-2.8-10.3-3.2-15.6-2.3-1.4 0-2.3 1-3.4 1.7-2.6.9-3.4-4.1-4.8-5.9zm-5.8 7.1c1.2-2.2 3.3-10 5.9-10 2.2 1.1 2.9 4 4.3 5.9 1.9-1.3 4.1-1.5 6.2-1.7-.2-2.7-2.3-4.6-3.7-6.7-.6-.6-.8-1.6-.5-2.4.7-5.9-.1-12-3.1-17.2-1.5-2.7-3.9-4.8-6.8-6-.5-.3-1 .1-1.5 0-8.3-3.2-17.9 4.7-19.8 12.7.9-2.6 8-8.2 10.2-4.8 3.7 3.8 6.2 9.2 4.7 14.5 9.1-.3 6.3 4.6 1.4 8.7-.7 1-.1 2.5-.2 3.7.5 1.4 1.9 2.2 2.9 3.3zm-8.8-10.5c-5.6.8-10 .1-11.2-6.2-.2.6.2 1.2-.2 1.7-.7 1.2-2.2 1.6-3 2.6-6.7 6 .5 13.8 7 15.9.6.3 1.2.5 1.6.6.6-.5 1.1-.9 1.6-1.2 2.6-1.6 5-3.4 7.4-5.4.6-1.1.1-2.7.3-4-1.2-1.2-2.6-2.2-3.5-4zM14.8 24c.6-5.4 3.5-10.5 7.9-13.8-2.9-2.2-6.7-2.1-9.6-.1-3.9 2.8-7.7 6.1-9.5 10.7-.3.7-.3 1 .3 1.3 3.2 2.5 7.1 2.6 10.9 1.9zm10.3-5.5c-2.3 1.2-4.4 2.5-5.2 5.1-1 3.4-1.7 9.3 2.5 10.7 1.5.3 3.2.4 4.6-.2.3-.5.4-1.2 1-1.5.5-.5 1.1-.6 1.7-.8 2.3-4.1-.1-8.8-2.8-12.1-.8-.3-1.5-.2-1.8-1.2zm-.2 33.7c.1 0 6.3.9 6.4.9h.2c0-.2.1-.3.2-.3 1 .2 2.1.2 3.1.3.2 0 .3-.1.4-.3.2-.9.5-1.8.6-2.8-.1-1-1.4-1.4-1.9-2.1v.2c-.9.2-1.9-.2-2.6.5l-.1-.5-6.3 4.1z"/><path d="M55 66.3c.1-.6-.2-1.3-.7-1.7-.9-1.1-2.1-2.2-2.7-3.5 0-.9 1.1-1.9 1.9-2 .8 0 1.4.8 1.9 1.2.7.8 1.4-.4 2.1-.6 1-.7 2.7-.6 2.8.8-.1 1.9-1.7 3.2-2.9 4.4-.2.8.1 1.7.2 2.6 1 .2 1.9.8 3 .8.3 0 .6.2.8.4.6.6.4 1.6-.4 1.9-1.2.2-2.6-.3-3.7-.8-1.5-.4-2.8.8-4.3.6-1.2-.1-3.9-.4-3.3-2.2.2-.6 1-.9 1.5-.6 1 .4 2 .4 3 .2.8 0 .9-.5.8-1.5zm17-5.9c-.5 1.9-3.4 1.9-4.8 2.9-.9.6-2.2-.5-1.6-1.5 1.2-1.4 3.1-1.7 4.7-2.6.8-.3 1.8.3 1.7 1.2zm-23.7-5.1c-.2 3.1-4 2.4-4-.4.4-3.2 3.9-2.6 4 .4zm16.9 1.5c-2.3.1-2.7-3.4-.7-4.1 1.5-.5 2.4 1.2 2.7 2.4.3 1.2-1 1.7-2 1.7zm-21.5 5.5c-.8-.1-1.7-.2-2.5-.3-1.9-.2-2-2.8 0-2.5l2.2.4c.6 0 1.3 0 1.7.4 1 1.1-.1 2.1-1.4 2zm1.4.4c.8-.1 1.5.7 1.2 1.5-.8 1.1-2.4 1.4-3.5 2.1-1.2.7-2.4-1-1.3-1.9 1-.9 2.3-1.3 3.6-1.7zm23 1.3c1.3.6 5 .9 3.6 3.1-1.1 1-2.5-.8-3.8-.7-1.5-.2-1.2-2.3.2-2.2V64zM43.8 27.4c-.6 3.7-5.6 3.4-5.7-.5-.2-2.2 2.1-4.1 4.1-2.7.9.8 1.3 2.1 1.6 3.2zm-22-.2c0-1.2 1-2.6 2-3.2 2.2-.7 3.7 1.9 3.5 3.8-.6 4.1-5.2 3-5.5-.6z"/></svg>