<svg width="80" height="80" viewBox="0 0 80 80" fill="none" xmlns="http://www.w3.org/2000/svg"><path d="M34.62 55.7c-1.4 0-2.73.08-4 0-6-.43-11.64-1.93-16.6-5.48a15.24 15.24 0 01-4.29-4.54 9.52 9.52 0 01.67-11.14 16.3 16.3 0 013.27-3.1c.21-.17.35-.413.39-.68.13-1.33.21-2.67.31-4.06l-1.69.15a15.11 15.11 0 01-7.76-1.15A13.938 13.938 0 012.16 24a3.14 3.14 0 01-.93-4 23.58 23.58 0 016-8.4A27.308 27.308 0 0112 7.83a11.77 11.77 0 015.9-1.77 9.66 9.66 0 015.86 2.26c.093.08.177.17.25.27.08.1.14.21.23.35l.4-.24a14.79 14.79 0 017.54-2.55c.91-.07 1.84 0 2.74-.12 3.48-.46 6.26 1.13 8.94 3l.18.11c2.4-2.08 5.18-2.31 8.12-1.6a5.73 5.73 0 012.75 1.69 34.85 34.85 0 016.4 8.77 17.83 17.83 0 011.06 3.19 3.21 3.21 0 01-.3 2.25 7.91 7.91 0 01-4 4.06c-1.4.62-2.87 1.1-4.31 1.62a1.31 1.31 0 01-1.27-.21 6.337 6.337 0 00-.73-.33v2.1c0 .65-.21 1.45-.23 2.17.014.35.152.683.39.94a12.13 12.13 0 014 7.35v.05c1.78.21 3.54.37 5.29.64 1.773.263 3.494.803 5.1 1.6.69-1.16 1.35-2.32 2-3.46.51-.84 1-1.67 1.62-2.46a1.32 1.32 0 011.9-.35 2.84 2.84 0 011.29 1.9c.36 1.59.72 3.18 1.09 4.76.19.83.41 1.66.62 2.49v.1c.92.71 1 1.82 1.31 2.81A53.337 53.337 0 0177.85 56a29.892 29.892 0 01-.43 12.31 6.69 6.69 0 01-4.94 4.9A42.654 42.654 0 0162.14 75c-1.33.05-2.65.29-4 .27-2.09 0-4.18-.16-6.27-.33-1.72-.15-3.45-.36-5.16-.64A19.769 19.769 0 0140 71.42c-.78-.47-1.54-1-2.31-1.47a7 7 0 01-3.41-5.37 26 26 0 01.27-8.44c.02-.09.03-.14.07-.44zm7.88-15.62l-.34.57a16.578 16.578 0 00-1.62 4.25 1.54 1.54 0 01-.43.84 3 3 0 00-1 1.73 72.048 72.048 0 00-2.07 9.09c-.45 2.43-.55 4.912-.3 7.37a4.81 4.81 0 002.44 4c1.15.67 2.24 1.42 3.4 2.06a13.55 13.55 0 004.79 1.82c2.36.32 4.73.55 7.09.79 2.269.155 4.546.125 6.81-.09a49.64 49.64 0 0010.23-1.66A4.679 4.679 0 0075.16 67a30.27 30.27 0 00.22-10.31A41.449 41.449 0 0074 50.88c-.44-1.47-.62-3.06-1.62-4.33a1.001 1.001 0 01-.13-.35c-.33-1.19-.67-2.37-1-3.57-.17-.65-.29-1.32-.44-2-.93 1.4-1.84 2.74-2.73 4.1a.87.87 0 00-.13.5 1.25 1.25 0 01-.73 1.27 1.39 1.39 0 01-1.45-.24 8.282 8.282 0 00-1.75-1 25.67 25.67 0 00-13.12-1 4.38 4.38 0 00-2.57 1.1 2 2 0 01-3.33-.51c-.77-1.56-1.62-3.12-2.5-4.77zm-5.8 7.1c.69-1.63 1.37-3.16 2-4.71a17.6 17.6 0 012.58-4.62 1.24 1.24 0 011.83-.41 3.1 3.1 0 011 1c.91 1.42 1.74 2.88 2.61 4.32.076.135.16.265.25.39 1.92-1.27 4.08-1.47 6.25-1.74 0-.27 0-.48-.09-.69a9.92 9.92 0 00-2.64-4.6c-.39-.43-.62-1-1-1.42a2.519 2.519 0 01-.49-2.4c.3-2.384.3-4.796 0-7.18a24.171 24.171 0 00-3.13-10 14 14 0 00-6.77-6 1.23 1.23 0 00-.81-.1 1.31 1.31 0 01-1.39-.22 1.9 1.9 0 00-.87-.36 15.7 15.7 0 00-7.38 1 19 19 0 00-8.46 7 14.87 14.87 0 00-2.43 5.4c.43-.766.919-1.498 1.46-2.19a14 14 0 015.22-3.41A3.82 3.82 0 0125.7 16c.89-.05 1.79 0 2.22 1 0 .11.17.18.26.26.358.336.692.697 1 1.08A27.002 27.002 0 0132.39 24a9.27 9.27 0 01.61 4.69c-.11.93-.26 1.86-.4 2.84h1.1c1.24-.012 2.47.22 3.62.68a1.92 1.92 0 011 2.84A15.24 15.24 0 0134 40.24a.87.87 0 00-.32.58c0 1.06.05 2.11.1 3.17a.72.72 0 00.13.44c.88.91 1.81 1.8 2.79 2.75zm-8.84-10.44c-1.55.09-3 .27-4.43.24a6.41 6.41 0 01-6.21-4.65c-.19-.59-.35-1.19-.53-1.79a.83.83 0 00-.07.43 2 2 0 01-1 2.26 11.64 11.64 0 00-2.15 1.68 7.6 7.6 0 00-2.69 5.7 7.8 7.8 0 001.85 4.82 18.47 18.47 0 007.81 5.42c.6.25 1.22.45 1.62.6.63-.49 1.08-.91 1.59-1.23A65.79 65.79 0 0031 44.86a.76.76 0 00.27-.53v-3.44a.82.82 0 00-.3-.48A16.112 16.112 0 0129.48 39c-.62-.72-1.14-1.56-1.62-2.26zm-13.1-12.69a20.359 20.359 0 017.85-13.81c-.64-.37-1.19-.73-1.78-1a5.79 5.79 0 00-3.53-.66 9.53 9.53 0 00-4.19 1.56c-1.45 1-2.82 2.19-4.18 3.35a20.42 20.42 0 00-5.31 7.33c-.3.67-.27 1 .33 1.34a17.768 17.768 0 002.7 1.49 11.56 11.56 0 005.28.68c.91-.06 1.81-.18 2.83-.28zm10.33-5.51C22.8 19.72 20.72 21 19.9 23.6a14.36 14.36 0 00-.59 2.49 11 11 0 00.46 5.82 3.72 3.72 0 002.6 2.34 8.9 8.9 0 004.41-.07.59.59 0 00.38-.36 2.79 2.79 0 012.2-2 .77.77 0 00.49-.38 10.24 10.24 0 00.62-5A9.59 9.59 0 0029.1 23c-.6-1.11-1.31-2.17-2-3.24a.681.681 0 00-.5-.29 1.33 1.33 0 01-1.51-.93zm-.2 33.69h.07l6.3.92a.538.538 0 00.2 0c.05-.42.31-.2.51-.18.91.07 1.83.17 2.74.21a.52.52 0 00.42-.31c.25-.92.46-1.84.65-2.77a.69.69 0 00-.12-.51c-.6-.56-1.22-1.09-1.83-1.64v.17a2 2 0 01-.76.1 2.159 2.159 0 00-1.86.37l-.06-.48-6.26 4.12z" fill="#000"/><path d="M55.05 66.31a1.74 1.74 0 00-.7-1.72 23.203 23.203 0 01-1.68-2c-.21-.25-.42-.5-.64-.72a1.09 1.09 0 01-.14-1.54c.276-.326.573-.633.89-.92a1.18 1.18 0 011.53-.07c.412.3.797.634 1.15 1 .31.32.59.41 1 .11a6.906 6.906 0 011.07-.72c.308-.19.646-.325 1-.4a1.4 1.4 0 011.65 2 7.3 7.3 0 01-2.47 3.25.76.76 0 00-.37.81v.11c.08.66.15 1.31.23 2 .83.27 1.65.55 2.48.81.16.015.32.015.48 0a1.22 1.22 0 011.13 1.22 1.14 1.14 0 01-1.19 1.14 16.509 16.509 0 01-2.39-.46c-.31-.08-.58-.28-.88-.39a2.22 2.22 0 00-1.58.06 6.59 6.59 0 01-5.41-.12 1.14 1.14 0 01-.393-1.884 1.109 1.109 0 011.273-.186 5 5 0 003 .16c.58-.08 1.13-.29.95-1.17-.004-.123 0-.247.01-.37zM72 60.38a1.58 1.58 0 01-1 1.27c-.69.33-1.42.59-2.13.89-.55.25-1.11.5-1.64.78a1.11 1.11 0 01-1.35-.1 1 1 0 01-.23-1.36c.227-.334.528-.611.88-.81 1.25-.62 2.53-1.19 3.8-1.76A1.15 1.15 0 0172 60.38zm-23.67-5.06a2.1 2.1 0 01-1.37 2 1.91 1.91 0 01-2.13-.87 2.38 2.38 0 01.09-3.05 1.75 1.75 0 013 .47c.173.473.31.957.41 1.45zm16.86 1.49a1.83 1.83 0 01-1.77-1.11 2.1 2.1 0 01.26-2.37 1.62 1.62 0 011.86-.62c.372.12.698.355.93.67.334.544.597 1.129.78 1.74a1.33 1.33 0 01-1.06 1.52 8.7 8.7 0 01-1 .17zm-21.54 5.5c-.83-.09-1.67-.15-2.5-.3a2.35 2.35 0 01-1-.46 1.13 1.13 0 011-2l2.22.36c.28 0 .57 0 .86.07a1.17 1.17 0 011.22 1.16c0 .66-.5 1.08-1.26 1.11h-.54v.06zm1.43.38a1.15 1.15 0 011.2.78 1.1 1.1 0 01-.47 1.26c-.198.122-.406.23-.62.32-.82.4-1.63.8-2.46 1.19a1.14 1.14 0 01-1.32-1.85 3 3 0 01.83-.57c.78-.36 1.57-.68 2.37-1 .152-.057.31-.101.47-.13zm23 1.31c1 .34 2 .64 3 1 .284.148.52.373.68.65a1.12 1.12 0 01-.13 1.43 1.09 1.09 0 01-1.38.18 6.49 6.49 0 00-2.44-.9 1.11 1.11 0 01-1-1.21 1.18 1.18 0 011.23-1l.04-.15zM43.82 27.39c-.056.292-.133.58-.23.86A3 3 0 0140.85 30a2.24 2.24 0 01-2.24-1.43 3.49 3.49 0 01-.11-3.29 2.38 2.38 0 012.33-1.49 2.32 2.32 0 012.22 1.64c.15.38.36.73.51 1.11.105.277.192.561.26.85zm-22.01-.21a2.64 2.64 0 01.73-1.9 5.01 5.01 0 00.38-.52 1.67 1.67 0 012-.81c1.73.4 2.47 2.26 2.36 3.81a3.999 3.999 0 01-.62 1.68 2.13 2.13 0 01-2.48.92 3.72 3.72 0 01-2.37-3.18z" fill="#000"/></svg>