<svg xmlns="http://www.w3.org/2000/svg" viewBox="0 0 227 227"><path d="M115.6 21.2c13 .1 21.5 10.7 21 23.3-1 3.1 9.1-2.7 16.9 4.4 5.4 3.9 10.7 10 8.7 17 5.8-.4 12.2.2 15.7 5.5 3.2 3.9 8.1 15.3 3.1 19-3.5 4.3-5 12.9-12 12.6-10.2-4.5 7.6-13 4-20.9 0-9.2-8.7-9.5-15-5.5-4.2 3.3-8.8-1.5-6.3-5.6 1.6-3.4 3.9-8 1.4-11.4-5-6.7-12.1-7.5-19.4-4.1-3.6 1.1-6.4-1.1-6-4.8 1.9-8.2.1-20.2-10.2-20.8-5.5-.8-11.3.8-15.6 4.4-5.3 4.4-11.4 8.9-11.7 16.4-1 3.6-4.4 4.7-7.3 2.4-2.8-2.7-5.5-5.9-9.6-6.4-7.4-1-15.3 4.2-17.1 11.7-.6 3.2-.3 6.5.7 9.5 1.5 3.5 2.5 9.2-2.4 10.1-3.4.3-6.4-3-9.9-1.3-1.3.6-2.4 1.6-3.1 2.8-4.7 8.8-1.4 16.7 5 21.7 1.2 1.2 2.3-.7 3.7-.5 2.2 0 4.1 2.2 3.6 4.4-2 9-12.8 3.3-16.5-1.5-3.6-3.9-5.8-8.8-6.4-14.1-.2-.9-.3-2 0-2.9.8-9.6 6.5-19.3 17.2-18.8-2.1-10.7.9-19.2 10-25.3 8.4-5.6 16.9-5.7 25.4-.1 2-5 5.7-8.8 9.8-12 6.2-5.8 14-9.2 22.3-9.2zm72.8 164c1.3-19.4-.3-38.7-1-58.1.4-4.2-1.7-13 2.1-15.5 2.8-1.6 5.6 1.2 5.5 4.1.5 7.7.9 15.4 1.3 23.1.7 14.8 1.5 29.5.5 44.3-.9 4.6 1 17.3-4.9 18.1-.3 0-.5.1-.8.3-1.6 1.7-3.6 1.6-5.7 1.6-17.6-1.3-35.3-.2-53-.2-15.8.2-31.7.2-47.5.6-16.1.8-32.4 2.3-48.5 2.8-3.4-.3-3.4-3.9-3.9-6.4-1.9-5.2-.3-10.3.7-15.4-.2-9.5-.5-19.1-.7-28.6-.1-7.9-.1-15.7-.2-23.6 0-2.4 1.4-4.1 3.5-4.2 2.1-.1 3.8 1.5 3.9 4 .8 17.7 1.4 35.4 1.8 53.1 0 .3.1.5.1 1H46c23.4.2 46.8-.3 70.1-1.1 24.2-.7 48.3.4 72.3.1z"/><path d="M108.3 161.6c-.1-6.6 2.4-14.8-1.4-21.1-1-1.6-1.6-3.4-1.8-5.3-.4-3.6 1-7 2-10.4 1.1-3.1.9-6.5-.6-9.5-2.1-4.7-3.9-9.6-5.9-14.4-3.6-8.4-1.3-15.6 4.5-22 1.6-2.1 4-4.6 6.8-2.6 3.3 2.4.4 5.8-1.5 8.1-2.4 3.3-4.5 7.5-2.6 11.5 1.9 4.8 3.8 9.6 5.7 14.5 2.5 5.3 3.9 11.1 1.7 16.8-.7 3.1-2.8 6.5-.9 9.5 5.6 9.5 1.9 20.8 2.4 31.2 0 1.9.8 4-.3 5.8-1.3 2.2-4.7 2.4-6.2.3-2.8-3.8-1.7-7.8-1.9-12.4zm-25.5-24.8c-1.1 5.2-2.4 10.3-3.2 15.6-.4 2.2 1.7 3.9 1.2 6.1-.2.9-.1 1.8.4 2.5 1.8 3.3 3.5 6.9 2.6 10.8-.8 2.8-1.3 5.9-3.4 8.1-1.7 2-5.2 1.4-6.3-1-1.5-3.4 1.9-6.4 1.6-9.8-.5-3.7-3.6-6.5-3.4-10.4-2.7-6.5.6-13.3 1.8-19.9 1.5-9.5-12-14.7-7.9-26.7 5.1-17.9 16.8-9.9 11.6-4.8-2.6 1.7-3.4 4.3-3.9 7-1.1 4.8 3.3 8.4 5.4 12.4 2 3.1 3.5 6.3 3.4 10.1h.1zm66.2 35.1c-.2-4 .9-8.5-2.2-11.7-1.1-1.1-1.9-2.5-2.4-4-1.9-8.5 6.3-15.5 1-24.1-4.6-7.7-7.9-15.6-1.7-23.6 2.4-3.8 9.6-2.1 8 2.9-.4 1.3-1.8 1.6-2.5 2.7-1.1 2-1.4 4.6-.4 6.8 7 11.2 8.9 18.4 3.8 31-.4 1.1-.1 2.4.7 3.2 2.9 3.3 4.3 7.7 4 12-.6 4.8 1 10.1-.7 14.7-1.6 2.6-5.8 2.4-7.1-.4-1.1-3-.2-6.5-.5-9.5z"/></svg>