<svg xmlns="http://www.w3.org/2000/svg" viewBox="0 0 80 80"><path d="M19.4 69.5h-2.3c-3.6-.5-7.9-.3-9.8-4.1-.9-1.6-1.5-3.4-1.6-5.3-.6-6.1-1.3-12-1.8-18.1-.2-1.9-.2-4.6-.2-6.5.3-2.5-.3-5.2 1-7.6 4.2-6.6 13-7.3 20.1-7.1-2-8.6 3.7-11.5 11.3-11.6 3.6-.5 7.3-.6 11-.3 8.8-.3 7 5.2 7.2 11.7 3.3 0 6.6.1 9.9.1 1.1 0 2.3-.7 3.4-.1 1.6.8 3.5 1.4 4.4 3.1 3.3 7.4 3 15.7 3.2 23.7 0 3.5-.2 7.1-.6 10.6-.3 3.1-2.2 5-5.3 5.8C53 67.4 36 67.5 19.4 69.5zm29.4-25c.2-5.1.8-6.2 6-6.9.5-4.5.2-9 .2-13.6-10.4.3-20.7-.5-31 .1l.5 15c4.5.3 3.2 2.1 4 5.4h20.3zm-24.4 9l.4 12.3c9.9-.8 19.7-1.7 29.4-2.7-.2-3.9-.3-7.7-.5-11.5-3.3-.1-4.7-.2-5.1-3.9-6.5 0-13.1.4-19.5-.4-.1 3.7-.9 4.8-4.7 6.2zm-8.1-29c-3 .6-8.3 2.7-9.1 5.9-.4 4.4-.4 8.8-.1 13.2-.1 1.6.2 1.7 1.7 1.5h3.8c-.4-3.5-.7-6.9 3.9-6.9l-.2-13.7zm49.9 18.9l5.5-.5c.4 0 .4-.4.3-.6-.3-5.6-.3-11.3-2.6-16.6-.2-.4-.5-.7-.9-1-1.8-1.4-3.9-.7-5.9-.8v14.3c1.5.1 4.9.7 3.9 2.7-.5.8-.2 1.6-.3 2.5zM7.6 48c.2 3.2.6 6.2.9 9.4.3 2.6.4 5.8 2.5 7.6 1.9 1.2 4.4.9 6.5 1.2l-.3-12.5c-3.9 0-4.2-1.3-4.4-4.9 0-.2-.2-.4-.4-.4-1.4-.1-3.1-.2-4.8-.4zm55.2 14c2.3-.5 4.6-1 6.9-1.6.6-.2 1-.6 1.3-1.1.3-.6.6-1.2.6-1.9.1-3.7.5-7.5.4-11.2l-5.1.4c-.3 2.1-1.6 4.1-3.9 4.3-.5.1-.6.3-.5.7.1 3.5.3 6.9.3 10.4zM49.4 20.8c-.2-2 .4-4.1-.4-5.9-1.4-.7-3.2-.3-4.7-.5-4.4 0-8.9-.2-13.2.9-.2.1-.3.3-.4.6-.2 1.5-.3 3.2-.4 4.6l19.1.3z"/></svg>