<svg viewBox="0 0 80 80" fill="none" xmlns="http://www.w3.org/2000/svg"><path d="M19.4 69.53h-2.3c-1.27-.16-2.54-.35-3.82-.48-2.56-.27-4.73-1.25-6-3.58a13.48 13.48 0 01-1.64-5.26c-.32-3-.63-6-.93-9-.3-3-.63-6.08-.91-9.13-.11-1.14-.15-2.28-.22-3.42v-3.1c.09-1.2.27-2.4.24-3.6a7.92 7.92 0 013.67-7.06 19.85 19.85 0 017.39-3.44 45.13 45.13 0 015.93-.61c1.3-.09 2.61 0 4 0a11.53 11.53 0 01-.22-4.61 6.531 6.531 0 012.78-4.87A10.82 10.82 0 0131 9.85a40 40 0 015.15-.57 57.25 57.25 0 0111-.3c.94.1 1.89.13 2.83.22 2.48.24 3.87 1.47 4.21 3.94.14 1.462.2 2.931.18 4.4v3.15h.49c3.14 0 6.28.06 9.43.07a5.221 5.221 0 001.35-.22 2.92 2.92 0 012.06.13c1 .419 1.966.914 2.89 1.48a4.26 4.26 0 011.5 1.66 23.266 23.266 0 011.4 4 38.52 38.52 0 011.24 6.26c.33 4.45.55 8.92.57 13.39a93.85 93.85 0 01-.57 10.6c-.33 3.1-2.15 5-5.27 5.85a74.747 74.747 0 01-10.16 1.78c-5.5.61-11 1.22-16.51 1.73-6.72.61-13.44 1.12-20.16 1.69-1.09.16-2.16.3-3.23.42zm29.35-25.06c.09-1.07.14-2.06.27-3a3.46 3.46 0 013.08-3.36c.85-.2 1.72-.35 2.6-.52.54-4.53.22-9 .24-13.64-10.38.33-20.74-.51-31 .1l.47 15c.71.12 1.41.19 2.09.36a2 2 0 011.5 2.16c.091.975.245 1.944.46 2.9h20.29zm-24.36 9l.43 12.34c9.86-.75 19.72-1.66 29.43-2.68-.17-3.9-.32-7.68-.48-11.46l-2.11-.15A2.62 2.62 0 0149 49.29c-.13-.52-.2-1-.29-1.57-6.55 0-13.06.37-19.55-.38-.16 3.66-.99 4.76-4.77 6.13zm-8.07-29a.919.919 0 00-.27 0c-.43.11-.86.21-1.28.35a17.2 17.2 0 00-6.34 3.51 3.25 3.25 0 00-1.24 2.07 74.72 74.72 0 00-.09 13.21c0 .5-.06 1.2.22 1.43.28.23 1 .09 1.5.09h3.83c0-.31-.06-.62-.08-.94-.06-.84-.18-1.68-.17-2.52a3.26 3.26 0 013.07-3.35c.35 0 .7 0 1.07-.07l-.22-13.78zm49.85 18.94l5.46-.49c.42 0 .36-.36.34-.64-.16-2.75-.23-5.51-.49-8.25a31.661 31.661 0 00-2.07-8.34 2.8 2.8 0 00-.93-1c-1.83-1.42-3.92-.71-5.91-.79v14.3c.51.07 1 .11 1.43.2.454.08.901.19 1.34.33 1.06.36 1.68 1.43 1.15 2.19s-.22 1.53-.32 2.49zM7.63 48.05v.56c.29 2.94.57 5.88.88 8.82a20.52 20.52 0 001.2 5.83 4 4 0 003.41 2.51c1.17.18 2.36.26 3.54.38l.91.1-.31-12.51c-.58-.05-1.08-.08-1.58-.15a2.61 2.61 0 01-2.61-2.7c-.07-.68-.08-1.37-.17-2 0-.16-.21-.42-.35-.43-1.55-.19-3.24-.29-4.92-.41zM62.75 62h.08c2.29-.52 4.59-1 6.86-1.59A2.6 2.6 0 0071 59.29a4.6 4.6 0 00.61-1.93c.2-3.64.32-7.28.47-10.92a1.306 1.306 0 00-.06-.27l-5.1.42a15.95 15.95 0 01-.56 2 4 4 0 01-3.29 2.26c-.46.09-.57.3-.55.73.09 2.75.16 5.49.23 8.24.01.71 0 1.43 0 2.18zM49.36 20.78v-4c0-.4-.09-.8-.14-1.2a1 1 0 00-1-1c-1.34-.08-2.68-.17-4-.21-1.32-.04-2.57 0-3.86 0s-2.45 0-3.67.09c-1.22.09-2.49.19-3.73.33-.655.084-1.301.228-1.93.43a.78.78 0 00-.38.56c-.11.81-.16 1.64-.22 2.46-.06.82-.1 1.46-.14 2.16l19.07.38z" fill="#000"/></svg>