<svg width="80" height="80" viewBox="0 0 80 80" fill="none" xmlns="http://www.w3.org/2000/svg"><path d="M41.52 31.73V15.97c0-.94-.06-1.878-.18-2.81A6.57 6.57 0 0142.94 8a12.11 12.11 0 015.39-3.67 25.88 25.88 0 0119.49.37A10.6 10.6 0 0171 6.91a9.939 9.939 0 012.23 2.66.55.55 0 00.29.25A2 2 0 0174.86 12c.08 5.853.15 11.707.21 17.56v5c.062.691.158 1.379.29 2.06.088.299.105.614.05.92-.58 1.38-.36 2.84-.45 4.26-.12 2.16-.26 4.33-.21 6.5.09 3.26.34 6.51.52 9.76.02.21.02.42 0 .63a1.88 1.88 0 001 2.08c1.17.7 1.56 2.7 1 4.21a15 15 0 01-2.8 4.77A21.12 21.12 0 0160.67 77a24.871 24.871 0 01-9.42-.31 20 20 0 01-6.88-3.29 1.21 1.21 0 00-1-.14c-2.52.86-5 2-7.54 2.64a50.102 50.102 0 01-13.76 2A40 40 0 017.7 74.88a8.78 8.78 0 01-4-3.37 5.36 5.36 0 011.08-7.19 21.109 21.109 0 016.56-3.09c1.13-.4 2.3-.69 3.58-1.07-.14-1-.31-2-.44-3-.77-5.89-1.69-11.75-1.6-17.71 0-.86 0-1.73.11-2.58a4.82 4.82 0 012.21-3.46 17 17 0 016.55-2.69 36.66 36.66 0 0116.86.05c.95.23 1.89.61 2.91.96zm15.85-14a19.4 19.4 0 008.9-1.87A10.72 10.72 0 0069 13.75c.9-.93.79-1.9.13-3a5.8 5.8 0 00-3-2.22 21.49 21.49 0 00-16.53-.17 10.55 10.55 0 00-3.34 2.24 2.26 2.26 0 000 3.48 9.66 9.66 0 002.18 1.64 18.92 18.92 0 008.93 1.97v.04zM41 36.46a8.59 8.59 0 00-3.77-1.76 33.058 33.058 0 00-11.52-.45 20.42 20.42 0 00-6.93 1.85c-.541.299-1.062.633-1.56 1v.31c.8.41 1.621.777 2.46 1.1a24.202 24.202 0 007 1 29.84 29.84 0 0011.77-1.76c.874-.38 1.725-.812 2.55-1.29zm5.34 3.87c.08 1.13.13 2.2.26 3.25 0 .2.33.43.55.52 1.1.4 2.22.75 3.33 1.13a24.81 24.81 0 0011.5 1.23c3-.38 5.64-1.69 8.46-2.5a.51.51 0 00.29-.38v-3c-8.16 3.31-16.28 2.75-24.44-.25h.05zM46 35.82c.59.24 1.05.4 1.49.61.573.348 1.175.646 1.8.89 1.12.31 2.29.48 3.44.72a29.93 29.93 0 0017.63-1.74c.2-.09.47-.31.48-.49.06-.82 0-1.65 0-2.56a32.59 32.59 0 01-12.61 2.42c-4.38-.16-8.28-2-12.29-3.33l.06 3.48zm-.31-7.68l4.51 1.57a24.57 24.57 0 0012.61 1.5 24.519 24.519 0 007.36-2.34c.27-.15.67-.42.69-.65.08-.92 0-1.84 0-2.75h-.21l-.49.23a28.25 28.25 0 01-10.38 2.75 24.9 24.9 0 01-9.26-1.66c-1.63-.54-3.24-1.13-4.86-1.69l.03 3.04zM16.89 42c-.09 1.73-.09 1.73 1.32 2.29.75.31 1.47.7 2.24 1a16.75 16.75 0 003.16.84c2.23.26 4.48.31 6.71.55 4.06.45 7.8-.72 11.52-2.07a.81.81 0 00.46-.61c0-1.06-.12-2.12-.2-3.29a28.48 28.48 0 01-12.45 3A30.58 30.58 0 0116.89 42zm29.81 6c.097.631.258 1.251.48 1.85.43.697.904 1.365 1.42 2 2.736.79 5.555 1.26 8.4 1.4 3.94 0 7.84-.11 11.56-1.62 2.6-1.06 2-.31 2-3.07 0-.05 0-.1-.07-.28a31.362 31.362 0 01-11.78 2.62c-4.16.1-7.94-1.36-12.01-2.83V48zm-28.3 7l.22 1.62c1.69.46 3.28 1 4.91 1.32 2.71.54 5.45.93 8.18 1.39 3.91.65 7.66-.25 11.44-1.16l-.14-3-.66.22A29.16 29.16 0 0130 57c-3.85-.51-7.67-1.27-11.6-1.91V55zm26.92-36c.15.6.11 1.3.44 1.56a8.122 8.122 0 002.37 1.28c1.75.6 3.54 1.08 5.32 1.6 2.003.598 4.091.862 6.18.78a26.469 26.469 0 006-1.18 14.26 14.26 0 005.2-3.18.45.45 0 00.17-.26v-1.64C62.67 23.05 54.2 23 45.32 19zm2 37.46l2.35 1.07a15.25 15.25 0 002.65 1.12c1.86.42 3.74.72 5.63 1 1.62.26 3.26.38 4.9.36a15 15 0 007-2.36c1.26-.74 1.3-.83.9-2.29l-.58.19a31.78 31.78 0 01-15.81 1.61c-2-.27-4-.86-6-1.3-.94-.23-1.16-.03-1.03.6h-.01zm-29.78-8.07c.08.55.16 1.23.28 1.89a.55.55 0 00.3.38 22.18 22.18 0 003.14.94c2.55.42 5.12.74 7.68 1.07A27 27 0 0041.3 51.4c1.7-.58 1.7-.64 1.34-2.4 0 0-.06-.08-.12-.17-8.37 3.17-16.69 2.61-24.98-.44zm1.55 12.4c.36.89.44 2 1 2.3a8.141 8.141 0 003.72 1.48c3.24.2 6.51.1 9.77 0a18.62 18.62 0 003.14-.57c-4.56 0-8.91-.72-17.63-3.21zm29.17.55a12 12 0 006.6 3.4c5.45 1.23 10.69.94 15.4-2.46-.3.03-.591.114-.86.25a16.44 16.44 0 01-8 1.68c-4.4-.41-8.93-.97-13.14-2.87z" fill="#000"/><path d="M63.74 8.92l-.9.18c-1.77.33-3.53.68-5.31 1-2 .32-4 .53-6 .9A1.81 1.81 0 0050 13.38a2.101 2.101 0 002.7 1.36c.322-.132.657-.23 1-.29 3.44-.4 6.89-.78 10.34-1.16a2.33 2.33 0 002-2.39 2.16 2.16 0 00-2.3-1.98z" fill="#fff"/><path d="M63.74 8.92a2.16 2.16 0 012.32 2 2.33 2.33 0 01-2 2.39c-3.45.38-6.9.76-10.34 1.16-.343.06-.678.158-1 .29A2.1 2.1 0 0150 13.38 1.81 1.81 0 0151.49 11c2-.37 4-.58 6-.9 1.78-.29 3.54-.64 5.31-1l.94-.18z" fill="#000"/></svg>