<svg width="80" height="80" fill="none" xmlns="http://www.w3.org/2000/svg"><path d="M75.69 57.79a26.737 26.737 0 01-1.09 3.35 16.78 16.78 0 01-6.6 6.79 44.12 44.12 0 01-15.06 5.62 65.588 65.588 0 01-15.88 1.21 50.11 50.11 0 01-17.35-3.54 21 21 0 01-7.6-5 9.87 9.87 0 01-2.93-7.3 10.66 10.66 0 012.72-6.37 20.329 20.329 0 015-4.2c.23-.14.45-.29.7-.46-.42-1.11-.82-2.2-1.23-3.28a48.89 48.89 0 01-2.61-11.45 17.786 17.786 0 01-.14-1.78 6.39 6.39 0 012.82-5.56A21.53 21.53 0 0125 22.41c3.39-.63 6.79-1.15 10.19-1.75 1.18-.21 2.35-.51 3.52-.78.5-.11.63-.41.34-.85-.79-1.23-1.57-2.47-2.4-3.66-.12-.18-.51-.22-.78-.23a4.77 4.77 0 01-4.75-3.35 3 3 0 011.09-3.59A4.37 4.37 0 0136 7.46c.234.084.481.124.73.12 1.74-.22 3.5 1.65 3.81 3.08a3.54 3.54 0 01-.39 2.34 1.16 1.16 0 000 .91c.69 1.25 1.43 2.47 2.1 3.6L46 12.22l.12.08v-.13c-1.19-1.85-.82-3.06 1-4.28a5.65 5.65 0 015.41-.4 3.2 3.2 0 012.14 3 3.06 3.06 0 01-1.82 2.91 5.8 5.8 0 01-2.86 1 .39.39 0 00-.26.07 9.28 9.28 0 00-3.5 5.59l3.76.25a65 65 0 0111.25 2c3.67.93 5.92 3.44 7.34 6.82a16.36 16.36 0 011.17 6.56c0 1.85 0 3.71-.11 5.55a46.29 46.29 0 01-.6 4.82 1.17 1.17 0 00.6 1.42 13 13 0 015.13 5.65c.376 1.023.69 2.069.94 3.13l-.02 1.53zM40.76 71.26c2.66-.24 5.33-.39 8-.74a45.53 45.53 0 0015.53-4.65 17 17 0 006.45-5.28A5.851 5.851 0 0071.86 56a8 8 0 00-3.15-4.66 22.49 22.49 0 00-6.88-3.63c-1-.34-2-.57-2.39-1.72 0-.06-.09-.1-.15-.13a2.49 2.49 0 01-1.16-2.33C58 41.75 58 40 57.85 38.19c-.11-1.62-.27-3.23-.41-4.84 0-.38-.16-.66-.65-.73a1.31 1.31 0 01-.89-.55 1.29 1.29 0 00-1.21-.7c-.48-.06-.95-.14-1.43-.19-3.58-.38-7.17-.7-10.75-1.14A23.19 23.19 0 0029 32.45a4.41 4.41 0 00-2.74 3.67c-.18 2.41-.32 4.83-.49 7.24-.09 1.22.28 2.53-.58 3.63v.27a2.06 2.06 0 01-1.38 1.64c-1.17.51-2.35 1-3.47 1.62A16.75 16.75 0 0014 55.78a5.841 5.841 0 00-1 4.87A8.26 8.26 0 0016.24 65a21.788 21.788 0 006.2 3.31 54.28 54.28 0 0018.32 2.95z" fill="#000"/><path d="M41.37 61.49a10.78 10.78 0 01-10.49-8.83 11.2 11.2 0 014.61-12A9.998 9.998 0 0143.15 39c4.4.63 8.47 4.77 9 10a11.35 11.35 0 01-7.19 11.85 31.907 31.907 0 01-3.51.81l-.08-.17zm1.91-12h-.16v-3.7a1.44 1.44 0 00-1.32-1.55 1.45 1.45 0 00-1.51 1.3 10.001 10.001 0 00-.29 1.62c-.1 1.63-.16 3.27-.23 4.91a12.857 12.857 0 000 1.64 1.49 1.49 0 001.67 1.42 2 2 0 001.86-2.29c-.03-1.12-.02-2.24-.02-3.35z" fill="#000"/></svg>