<svg width="80" height="80" viewBox="0 0 80 80" fill="none" xmlns="http://www.w3.org/2000/svg"><path d="M59.39 65.18c-.503-.104-1-.234-1.49-.39a6.34 6.34 0 01-3.8-4.22 7.62 7.62 0 011-6.79 11.6 11.6 0 013.26-3.36A6.23 6.23 0 0162 49.34a.51.51 0 00.58-.38 8.38 8.38 0 017.55-5.28 7.74 7.74 0 017.7 6.78 8.47 8.47 0 01-7 9.56c-.807.095-1.623.095-2.43 0a.59.59 0 00-.7.35 10.051 10.051 0 01-3 3.57 6.361 6.361 0 01-3 1.18.902.902 0 00-.21.08l-2.1-.02zm1-2.53a4.13 4.13 0 003-.92 7.81 7.81 0 002.84-5.14 3.21 3.21 0 00-1-2.85A8.55 8.55 0 0062.55 52a2 2 0 00-.77-.28 3 3 0 00-2 .69c-.863.75-1.66 1.573-2.38 2.46a5.08 5.08 0 00-1.16 4c.41 2.23 1.76 3.94 4.17 3.78h-.02zm8.42-5.11a5.54 5.54 0 005.22-2.07 5.89 5.89 0 00.11-7.47 5.338 5.338 0 00-8.43.58c-.31.455-.59.93-.84 1.42 1 .89 1.84 1.64 2.66 2.46a4.61 4.61 0 011.3 3c.03.73 0 1.37 0 2.08h-.02zM60.23 40c.08.83.21 1.58.21 2.33.037.939-.007 1.879-.13 2.81a2.109 2.109 0 01-2.23 2c-1.33 0-2.67 0-4-.05H52.4v3.32c-.008.336-.044.67-.11 1a1.62 1.62 0 01-1.65 1.46c-1.41.07-2.82.12-4.24.18-2.9.11-5.81.27-8.71.32-2.34 0-4.69 0-7-.08-3.34-.11-6.69-.31-10-.41-2.61-.09-5.22-.14-7.83-.11-1.88 0-3.76.23-5.65.3a8.85 8.85 0 01-2.05-.19 1.85 1.85 0 01-1.65-2c0-1.42.13-2.85.2-4.28.09-1.58.22-3.17.27-4.75.02-3.29.02-6.55.12-9.8v-.89a2 2 0 012-2c1.26-.1 2.52-.12 3.77-.19.86 0 1.72-.12 2.58-.17h.65c.09-.82.18-1.67.27-2.53.078-1.093.211-2.18.4-3.26a1.82 1.82 0 012.13-1.57c.608.056 1.212.146 1.81.27.71.13 1.41.3 2.13.46.07-1.07.13-2.08.24-3.1a2.32 2.32 0 01.35-1.14 1.169 1.169 0 01.93-.47 8.23 8.23 0 002-.1c2.72-.12 5.43-.27 8.15-.31 2.72-.04 5.31.05 8 .08h.28c.107-.61.258-1.211.45-1.8a11 11 0 014.41-5.26 6.85 6.85 0 018.51 1A6.93 6.93 0 0155 14.93c.14.76.26 1.52.4 2.31l2.89.11c1.48.06 3 .13 4.43.17.423.03.847.03 1.27 0a1.27 1.27 0 011.47 1.27v10.93c0 2.28-.03 4.56-.09 6.84a16.754 16.754 0 01-.21 2.11A2 2 0 0163 40.08a2.93 2.93 0 00-.59-.11l-2.18.03zM16.08 23.84c0 .31-.07.57-.09.83-.05.74-.08 1.48-.15 2.21-.23 2.32-.52 4.62-.71 6.94-.19 2.32-.31 4.74-.45 7.11-.06 1-.09 2-.12 3 0 .6.26.92.72.91 2.56-.08 5.12-.17 7.68-.21 6.65-.12 13.3-.28 19.95-.3 4.55 0 9.11.18 13.67.28h1.26c.38-1.55-.15-3-.06-4.57h-.87c-1.56 0-3.11 0-4.67-.08-2.73-.07-5.46-.2-8.2-.21-2.74-.01-5.44.12-8.15.11-4.64 0-9.28-.08-13.92-.12a5.878 5.878 0 00-.93.1 1.25 1.25 0 01-1.51-.8 6.868 6.868 0 01-.22-1.62c.113-4.107.243-8.223.39-12.35 0-.51-.19-.65-.62-.71-.78-.12-1.54-.28-2.32-.41-.21-.08-.43-.08-.68-.11zM5.9 50.51h1.33c1.34-.09 2.69-.29 4-.28 4.493 0 8.987.07 13.48.21 3.35.08 6.7.41 10 .39 5 0 9.9-.3 14.85-.46l.26-.07v-3.4H38.96l-18.44.19h-4.71a5.644 5.644 0 00-1.54.17c-.82.25-1.21.16-1.64-.59a.85.85 0 00-.14-.19 1.74 1.74 0 01-.49-1.66c.06-1.17.09-2.35.16-3.53.14-2.45.28-4.89.44-7.34.06-1 .14-1.9.22-2.83l-6.2.46a174.002 174.002 0 01-.72 18.93zm19.29-17c-.73 1.11.09 1.82 1 1.74.097-.005.193-.005.29 0h28.89c.93 0 1.85-.09 2.77-.13a.41.41 0 01.24.08 1 1 0 001.67-.6c.105-.44.166-.888.18-1.34.1-2.78.19-5.56.29-8.34 0-.93.09-1.86.13-2.78a.87.87 0 00-.53-.92.72.72 0 00-.93.22.72.72 0 01-.73.29l-12.16-.45-17.43-.62c-.88 0-1.76-.08-2.64-.09a1 1 0 00-1.16 1c-.05.94-.09 1.89-.12 2.83-.08 2.6-.15 5.21-.23 7.82a1.34 1.34 0 00.47 1.28v.01zm22-16.35c0-.57-.09-1.12-.16-1.68a1.12 1.12 0 01.56-1.15 1 1 0 011.22.14c.26.305.442.669.53 1.06.09.563.144 1.13.16 1.7h3.21a10.53 10.53 0 00-.9-3.76 2.432 2.432 0 00-.44-.61 4.38 4.38 0 00-5.37-.67 9.86 9.86 0 00-3.44 3.67 6.5 6.5 0 00-.43 1.29l5.06.01z" fill="#000"/><path d="M58.71 23.66L26.9 22.55a.916.916 0 000 .2l-.18 9v1.63h31.49l.5-9.72z" fill="#fff"/><path d="M59.6 57.19v-1.5a1.138 1.138 0 011.08-1.25 1.13 1.13 0 011.16 1.12c.08.9.11 1.81.17 2.72 0 .25.08.5.12.74a1.16 1.16 0 01-.72 1.42 1.29 1.29 0 01-1.53-.78 3.56 3.56 0 01-.2-.87 6.997 6.997 0 01-.06-.8v-.8h-.02zm11.76-5.43v2.86a1.229 1.229 0 01-.74 1.2 1 1 0 01-1.3-.37 3 3 0 01-.44-1.39c0-1.43.05-2.86.09-4.28.004-.238.045-.474.12-.7a1.11 1.11 0 012.17.37v2.31h.1zm-12.65-28.1l-.5 9.67H26.63V31.7l.18-8.95a.916.916 0 010-.2l31.9 1.11z" fill="#000"/></svg>