<svg xmlns="http://www.w3.org/2000/svg" viewBox="0 0 80 80"><path d="M30 61.1h-7.3c-.1 0-.2-.1-.3-.1-5-1.1-12.7.4-15.2-5.2C6 45.5 5.5 34.9 6.8 24.6c1.5-6.3 21.4-6.4 27.1-6.7 5.5-.1 11-.1 16.5.1 6.5.2 13 0 19.5.8 1.3.1 2.4 1.3 2.4 2.6l.9 33.9c.1.6-.1 1.2-.5 1.6.6 1.2.2 2.2-1 2.3-2.4.2-4.7.5-7.1.7-11.5.9-23 .9-34.6 1.2zm40.2-18.8v-.8l-.3-10.3c-.1-3.1-.2-6.1-.3-9.2 0-.4-.3-.7-.6-.8-13.1-1.1-26.3-1-39.4-.6-6.8.6-14.1.7-20.3 3.8.6 1.1.6 1.3-.3 2.1-.2 6.1-.3 12.3 0 18.4 20.3-1.5 40.8-1.5 61.2-2.6zM9.4 52.7c.1 1.7 0 3.9 2.1 4.2 5.1 1 10.3 1.7 15.5 1.6 14.6-.1 29.1-.3 43.6-2l-.2-5.9C51 51.8 28.9 52 9.4 52.7z"/><path d="M64.5 32.5c-.3 2.1 1.2 6.4-2.1 6.4l-7.6.1c-1.4.1-3.2.1-3.6-1.5-.3-2.7-4.5-13.4.2-13.3 2.3 0 4.6-.2 6.9-.2 1.2.1 2.6-.2 3.8.2.4.2.4.7.8.8 2.2.7 1.1 5.6 1.4 7.6l.2-.1z"/></svg>