<svg width="80" height="80" fill="none" xmlns="http://www.w3.org/2000/svg"><path d="M28 9.81h2.2c.63.11 1.26.18 1.88.34A13.47 13.47 0 0142 21.42c.17 1.07.19 2.18.27 3.26 2.1-.757 4.14-1.673 6.1-2.74a22.46 22.46 0 007.82-7.53c.332-.596.623-1.214.87-1.85.35-.87.68-1.74 1-2.68l.24.21c.54.64 1 1.32 1.63 1.93 1.39 1.45 2.83 2.85 4.22 4.31 1.86 1.93 3.76 3.82 5.5 5.86a58.199 58.199 0 004.92 4.89.55.55 0 00.48.08c.28-.12.4 0 .55.19.38.56.8 1.11 1.18 1.68a.68.68 0 01.13.43c-.18 1.47-.3 2.95-.58 4.4a14.9 14.9 0 01-5.93 9.51.781.781 0 00-.32 1.06 9.26 9.26 0 01.69 3.73 25.58 25.58 0 01-2 8c-1.27 3.1-3.19 5.5-6.49 6.66-2.68.94-5.32 1.25-7.93-.09a14.38 14.38 0 01-5.66-5.09 8.51 8.51 0 01-1.57-3.86V52.4a32.057 32.057 0 00-8.51 3.86c-3.8 2.64-7.52 5.38-11.23 8.14a14.31 14.31 0 00-3.69 4.24 2.13 2.13 0 00-.27 1 1.35 1.35 0 01-1 1.39 1.3 1.3 0 01-1.47-.8c-.9-1.92-1.797-3.84-2.69-5.76-.58-1.27-1.08-2.6-1.73-3.83a35.25 35.25 0 00-6.82-8.41 73.894 73.894 0 00-5.89-4.81 2.42 2.42 0 01-1-1.36v-.29a2.66 2.66 0 011-1.42c1.51-1.35 3-2.76 4.52-4.06 2.93-2.48 5.79-5.08 9.6-6.24-.31-.47-.63-.9-.91-1.36a13.993 13.993 0 01-.79-1.48 15.06 15.06 0 01.37-13.47 14.2 14.2 0 018.9-7.47c.83-.18 1.65-.27 2.49-.46zM17.46 24.27a13.61 13.61 0 001.21 6.09 10.39 10.39 0 0014.08 5 12.83 12.83 0 005-18.09 10.3 10.3 0 00-13.56-3.65 12.39 12.39 0 00-6.73 10.65zm41.87-2.15c.57.61 1.14 1.17 1.67 1.76 2.13 2.32 3.82 5 6.36 7 .06.05.14.1.17.17.084.182.132.38.14.58a12.859 12.859 0 01-1.94 5.44 9 9 0 01-3.88 3.66 32.476 32.476 0 01-4.52 1.8c-2.52.73-5.1 1.27-7.65 1.91a97.29 97.29 0 00-11.38 3.78A45.23 45.23 0 0025.39 56c-.54.46-1 1-1.55 1.46-1.37-2.31-2.5-4.73-4.08-6.88a45.898 45.898 0 00-5.46-5.88 5.6 5.6 0 01.44-.34L21 40.62a.84.84 0 00.46-1 .77.77 0 00-.84-.63 2 2 0 00-.86.23c-1.5.82-3 1.63-4.46 2.51a25.2 25.2 0 00-2.63 1.83 1.291 1.291 0 00-.27 1.81c.13.235.288.453.47.65.6.63 1.19 1.25 1.82 1.84a27.22 27.22 0 015 6.26c.91 1.53 1.7 3.14 2.57 4.7.127.251.335.452.59.57.44.156.903.243 1.37.26a.94.94 0 001-.64 1.9 1.9 0 01.44-.71c1.18-.95 2.34-1.93 3.59-2.78A66.817 66.817 0 0135 51.89a74.305 74.305 0 0110.8-4.28 83.567 83.567 0 018.37-2.16 41.504 41.504 0 008.06-2.7c3.86-1.8 5.93-5 7.05-9 .234-.813.407-1.642.52-2.48a1.277 1.277 0 00-.26-.95c-.52-.6-1.15-1.1-1.71-1.66-.56-.56-1.1-1.07-1.6-1.64-1.43-1.67-2.82-3.38-4.27-5a8.34 8.34 0 01-1.6-2.11 1 1 0 00-1.92-.07 7.354 7.354 0 01-.71 1.07 20.52 20.52 0 01-5 4 50.84 50.84 0 01-9.68 4 4.159 4.159 0 00-1.2.58.87.87 0 00-.19 1.2.91.91 0 001.19.25c.35-.15.71-.28 1.07-.4 2.07-.7 4.18-1.3 6.2-2.12a24.409 24.409 0 007.16-4.25c.72-.69 1.33-1.36 2.05-2.05zm8.36 23c-.1 0-.2.07-.3.12a46.008 46.008 0 01-7 2.82.42.42 0 00-.35.48v4.79a.71.71 0 00.1.35 1.86 1.86 0 01-.26 2.42 1.45 1.45 0 01-1.55.36 1.3 1.3 0 01-.86-1.27v-.76c.07-1.69.14-3.38.22-5.07v-.49a.557.557 0 00-.17 0L50 51.31a.69.69 0 00-.33.36 3.91 3.91 0 00.3 3.22 13.48 13.48 0 005.25 5.44 5.51 5.51 0 002.34.75 9.33 9.33 0 004.76-1 6 6 0 002.78-2.34 22.13 22.13 0 003.1-8.64 6.69 6.69 0 00-.51-3.94v-.04z" fill="#000"/><path d="M26.94 23.65c.06-1.82.11-3.64.18-5.46.004-.143.027-.284.07-.42a1.13 1.13 0 011.13-.91 1.09 1.09 0 011.09 1c.06.765.08 1.533.06 2.3v7.37c0 .35.09.7.09 1a6.78 6.78 0 01-.13 1.47 1.229 1.229 0 01-2.29.2 3.83 3.83 0 01-.29-1.33v-5.22h.09z" fill="#000"/></svg>