<svg width="80" height="80" fill="none" xmlns="http://www.w3.org/2000/svg"><path d="M77.32 51.75c-.1 1-.21 2-.29 3-.21 2.5-.39 5-.6 7.5a3.84 3.84 0 01-1.05 2.31 7.41 7.41 0 01-5.33 2.67 23.096 23.096 0 01-3.53-.11 8.003 8.003 0 01-1.86-.66c-.41 1.34-.92 2.66-1.2 4a4.23 4.23 0 01-3 3.34 9.5 9.5 0 01-5.77.38 5.8 5.8 0 01-3-1.87 2.151 2.151 0 01-.61-1.81.85.85 0 00-.13-.48c-.3-.6-.6-1.2-.94-1.77a2.24 2.24 0 01-.32-1.78c-.39.08-.72.14-1.05.22a48.2 48.2 0 01-15.58 1.33c-.55 0-1.2-.3-1.62 0-.42.3-.46 1-.71 1.56-.54 1.11-1.07 2.23-1.66 3.31a2.54 2.54 0 01-2.44 1.47c-1.52 0-3 .12-4.57.07A7.65 7.65 0 0117.67 73c-.119-.1-.25-.183-.39-.25A2.2 2.2 0 0116 70.29c.12-1.89.21-3.78.33-5.67a1.51 1.51 0 00-.34-1 22.12 22.12 0 01-4.39-10.25 27.003 27.003 0 01.2-6.29c.006-.192.033-.383.08-.57a1.08 1.08 0 00-.28-1.27.79.79 0 01-.24-.49 1.13 1.13 0 00-.81-1c-.07.38-.13.76-.21 1.13a4.65 4.65 0 01-3.48 3.76C5 48.89 3.6 47.12 4 45a5.12 5.12 0 013.15-4.1l.44-.17a4 4 0 00-1.17-2.5 1.93 1.93 0 01-.55-2.43 1.23 1.23 0 012-.48A6.44 6.44 0 019.57 38c.27.72.44 1.49.67 2.24a.78.78 0 00.26.42c.82.45 1.65.87 2.54 1.34 0-.06.1-.24.17-.43a30.007 30.007 0 012.85-5.9 21.47 21.47 0 016.46-6.45c.49-.32.56-.61.42-1.22-2.34-9.79 3.2-19.51 11.83-20.84L36.05 7h1.6c.107.042.217.076.33.1a14 14 0 015.6 1.78c5.76 3.25 9.24 10.28 8.79 17.27a.83.83 0 00.26.58c.57.43 1.17.82 1.76 1.21l4.29 2.88c0-.13.1-.26.15-.37.62-1.45 1.17-2.89 1.87-4.26a1.37 1.37 0 012.58-.07c.147.242.264.5.35.77.53 1.82 1.1 3.64 1.57 5.48a3.31 3.31 0 001.33 2.05c3.61 2.54 5.41 6.46 6.1 11.16.15 1.06.17 2.14.25 3.23.69-.07 1.36-.15 2-.21 1.54-.14 2 .32 2.34 2.06l.06.27.04.82zM50.81 32.67l2.15.16a1.4 1.4 0 011.28 1 1.52 1.52 0 01-1.57 2.06 62.81 62.81 0 00-12.26.44c-3.57.42-7.13 1-10.69 1.6a9.92 9.92 0 00-3.89 1.15 1.182 1.182 0 01-1.64-.53 1.58 1.58 0 01.31-1.87 2.48 2.48 0 01.78-.5c.43-.2.87-.34 1.28-.49l-2.48-4a19.532 19.532 0 00-5.21 4.8 26.12 26.12 0 00-4.59 12.57 17 17 0 004.08 12.86c.432.5.67 1.14.67 1.8v2a1.76 1.76 0 001 1.81c1.057.482 2.15.88 3.27 1.19a3.55 3.55 0 004.45-2.09c.14-.3.27-.61.41-.92a1.6 1.6 0 011.58-1.09c1 .06 1.95.25 2.93.27 2.51.07 5 .21 7.54.08 3.23-.264 6.43-.823 9.56-1.67 1.15-.28 1.69.06 2.18 1.3.32.79.62 1.58.95 2.36a1.18 1.18 0 001 .75 15.99 15.99 0 005.12 0 1.91 1.91 0 001.44-1.27c.14-.323.254-.658.34-1a2 2 0 01.81-1.27.52.52 0 00.19-.34c.18-1.45 1.17-2 2.24-1.24a7.831 7.831 0 006.2 1.54 5.28 5.28 0 003.21-1.69c.12-.15.21-.34.34-.54-2.34-.42-3.13-1.88-3.2-4a3.9 3.9 0 01.75-2.52 3.591 3.591 0 013.1-1.6l.16-2.06a5.865 5.865 0 01-.64.06c-.76.075-1.526.095-2.29.06-1-.09-1.37-.68-1.44-1.79-.07-1.11-.09-2.51-.2-3.76a13.73 13.73 0 00-3.1-7.66 17.357 17.357 0 00-2.55-2.21 4 4 0 01-1.48-2.38c-.16-.75-.37-1.49-.56-2.23-.14-.55-.29-1.11-.44-1.67h-.17c-.29 1-.62 2.07-.85 3.13-.36 1.67-1.53 2.13-2.71 1.09-1-.85-2-1.63-3-2.38s-2.2-1.5-3.31-2.25l-1.05 2.94zm-2.87 0c.05-.284.117-.564.2-.84a6.6 6.6 0 01.33-.77 15.29 15.29 0 00.79-10c-1.68-6.95-7.5-11.59-13.71-10.85-4.41.53-7.67 3.13-9.47 7.86a15.741 15.741 0 003.47 16.53.82.82 0 00.62.19c1.24-.18 2.47-.45 3.71-.61 3.29-.44 6.58-.86 9.87-1.23 1.39-.16 2.79-.18 4.19-.27v-.01zM7.78 43.94a2.09 2.09 0 00-1.12 1.62 2 2 0 001.12-1.62z" fill="#000"/><path d="M47.94 32.68c-1.4.09-2.8.11-4.19.27-3.29.37-6.58.79-9.87 1.23-1.24.16-2.47.43-3.71.61a.82.82 0 01-.62-.19 15.74 15.74 0 01-3.47-16.55c1.8-4.73 5.06-7.33 9.47-7.86 6.21-.74 12 3.9 13.71 10.85a15.29 15.29 0 01-.79 10 6.6 6.6 0 00-.33.77 7.361 7.361 0 00-.2.87zm-12.45-15a1.18 1.18 0 00-1.12 1 3.551 3.551 0 00-.06 1.08c.27 2.53.55 5.06.86 7.58.17 1.39.36 2.79.59 4.17a1.34 1.34 0 002.59.45 1.88 1.88 0 000-1.81 3.66 3.66 0 01-.27-.85c-.29-2.1-.57-4.2-.86-6.29-.17-1.28-.34-2.56-.52-3.83-.09-.94-.56-1.49-1.21-1.49v-.01zm23.85 32.2c-.2-.22-.37-.39-.51-.57a1.54 1.54 0 01-.12-1.89 1 1 0 011.61-.2 4.13 4.13 0 004.54.58 3 3 0 001-.82 1.33 1.33 0 011.45-.53 1.28 1.28 0 01.9 1.18 2.44 2.44 0 01-.21 1.14 3.78 3.78 0 01-.73 1c-.28.28-.22.47 0 .71.233.253.45.52.65.8a1.75 1.75 0 01-.19 2.05 1 1 0 01-1.57-.05c-.51-.7-1-1.44-1.52-2.26l-.43.05c.16.35.29.65.42.95a1.6 1.6 0 01-.43 2.11c-.65.39-1.33.06-1.74-.8-.18-.38-.45-.71-.62-1.1a9.592 9.592 0 01-.36-1.14c-.26.52-.54 1.08-.81 1.64-.46 1-1.14 1.31-1.77.9a1.8 1.8 0 01-.36-2.31c.27-.47.53-.93.8-1.44z" fill="#000"/></svg>