<svg width="80" height="80" fill="none" xmlns="http://www.w3.org/2000/svg"><path d="M30 61.06h-7.3c-.1 0-.19-.05-.29-.06-2.45-.28-4.9-.53-7.35-.83a17.712 17.712 0 01-5.15-1.29A3.7 3.7 0 018 57.32c-.27-.52-.57-1-.83-1.52a4.48 4.48 0 01-.35-1.72c-.12-1.81-.17-3.62-.27-5.43-.17-3.17-.42-6.34-.5-9.51-.06-2.43 0-4.88.19-7.3s-.11-4.9.56-7.29c.096-.461.25-.908.46-1.33a4.26 4.26 0 011.87-1.56 21.88 21.88 0 015.74-1.9 99.075 99.075 0 0119-1.92c5.5-.09 11-.09 16.5.05 6.51.18 13-.05 19.52.75a2.74 2.74 0 012.44 2.6l.38 13.52c.173 6.78.35 13.56.53 20.34a1.881 1.881 0 01-.51 1.61c.6 1.21.2 2.15-1 2.27-2.35.24-4.71.49-7.07.7-2 .17-3.9.29-5.85.42-3.3.22-6.6.52-9.91.61-5.82.17-11.65.19-17.48.28-.42.01-.93.01-1.42.07zm40.2-18.73v-.76l-.27-10.32c-.09-3.06-.19-6.12-.26-9.18a.77.77 0 00-.63-.81 18.704 18.704 0 00-2.79-.38c-5-.14-9.9-.23-14.86-.34-7.26-.16-14.51-.29-21.77.09-4.834.219-9.644.8-14.39 1.74a20.999 20.999 0 00-5 1.52c-.31.16-.61.36-.91.54.61 1.06.57 1.29-.35 2.07a.62.62 0 00-.11.39v2.57c0 4.13-.07 8.26-.08 12.39 0 1 .12 2.06.18 3.09 1.72-.16 3.35-.37 5-.44 5.92-.273 11.84-.513 17.76-.72 5.1-.19 10.2-.34 15.3-.53 6.993-.26 13.993-.533 21-.82l2.18-.1zM9.36 52.66c.05.68.07 1.3.14 1.92a2.33 2.33 0 002 2.28c1.53.28 3.07.55 4.61.79 3.6.58 7.244.838 10.89.77 7.21-.14 14.42-.2 21.63-.34 2.56-.06 5.13-.22 7.69-.42 3.74-.28 7.47-.63 11.21-1l3.08-.27-.21-5.92h-.7c-2.27.13-4.53.27-6.8.39l-6.41.31c-3.43.18-6.87.42-10.3.53-4.71.16-9.41.23-14.12.34l-21.72.49c-.29.05-.6.09-.99.13z" fill="#000"/><path d="M64.5 32.5v4.48a1.83 1.83 0 01-2.07 1.89l-7.64.1h-1.53a2.15 2.15 0 01-2.08-1.54 16.37 16.37 0 01-.4-1.87 9.77 9.77 0 00-.33-1.56c-.612-1.62-.95-3.33-1-5.06-.06-.9-.17-1.8-.18-2.71 0-1.46.7-2.1 2.15-2.12 2.3 0 4.6-.16 6.91-.22h3.1a1.25 1.25 0 011.19.73.63.63 0 00.32.26 1.61 1.61 0 011.21 1.52c.11 1.53.15 3.06.2 4.59v1.48l.15.03z" fill="#000"/></svg>