<svg xmlns="http://www.w3.org/2000/svg" viewBox="0 0 80 80"><path d="M75.7 57.8c-4.7 18.6-41.5 20-56 13.4-12.6-4.8-14.3-16.5-2.1-23.3-9.9-25.6-.5-23.6 21.1-28 1.5-.3-1.8-3.6-2.1-4.5-.1-.2-.5-.2-.8-.2-2.7.2-5.5-2.6-4.8-5.3 1.3-3.9 8.8-3 9.5.9.3 1-.3 1.9-.5 2.8.4 1.5 1.6 2.8 2.2 4.1l3.8-5.3.1.1c-2.6-3.9 3.4-6.5 6.4-4.8 2.6.8 2.9 4.9.3 5.9-.9.7-2 .9-3.1 1.1-1.8 1.4-3.1 3.4-3.5 5.6 15.9 1 25.2 2.5 23.4 21.2-.1 1.6-.3 3.2-.6 4.8-.2.5.1 1.2.6 1.4 3.6 1.9 6.3 5.9 6.1 10.1zM40.8 71.3c8.1-.5 16.3-1.5 23.5-5.4 5.9-2.6 11.2-9.6 4.4-14.5-2.1-1.6-4.4-2.8-6.9-3.6-1-.3-2-.6-2.4-1.7-.4-.3-.8-.6-1.1-1.1-.7-3.7-.4-7.7-.9-11.5.1-.7-.7-.7-1.2-.9-.4-.2-.5-.7-.9-.9-.7-.3-1.4-.2-2.1-.4-8.6-.7-18.9-3.6-26.1 2.7-1.6 2.8-.8 6.4-1.3 9.5-.1 1.2.3 2.5-.6 3.6 0 .8-.6 1.7-1.4 1.9-26.8 12.1 1.4 23.2 17 22.3z"/><path d="M41.4 61.5C26 60.9 27.8 36.9 43.2 39c12.6 2.5 11.8 21.6-1.7 22.7l-.1-.2zm1.9-12h-.2c-.2-1.5.4-3.4-.3-4.7-.8-1-2.4-.4-2.5.8-.2 1.8-1.5 9.2.5 9.5 3.3.5 2.4-3.6 2.5-5.6z"/></svg>