<svg xmlns="http://www.w3.org/2000/svg" viewBox="0 0 80 80"><path d="M77.3 50.9c-.3-3-2.2-2.3-4.4-2.1-.1-5.5-1.9-11.3-6.4-14.4-.7-.5-1.2-1.2-1.3-2.1-1.8-7.2-3.1-11-6.5-1.5l-4.3-2.9c-.6-.6-1.9-.9-2-1.8C53 16.9 46.8 7.9 37.6 7c-10.2-.5-17.3 10.1-14.7 21 .1.6.1.9-.4 1.2-4.7 2.9-7.7 7.7-9.5 12.8-.9-.6-2.3-.8-2.8-1.8-.6-1.8-1.1-5.2-3.5-5.2-.9.2-1.2 1.3-1 2.1.5 1.3 1.9 2.1 1.9 3.6-3.7.7-5.5 8-.7 7.9 2.3-.5 3.5-2.7 3.7-4.9.8.2.7 1 1 1.5.6.5.2 1.2.2 1.8-1 5.8.5 11.9 4.2 16.5 1 2.5-.6 5.6.2 8.1C19 75 24.3 74.9 28.1 74c1.8-1.4 2.2-4.2 3.4-6 6 .3 12.3.1 18.3-1.6-.3 1.3.8 2.4 1.3 3.6 0 2.1 1.7 3.7 3.7 4.2 2.6.6 5.8.3 7.7-1.6 1.4-1.7 1.3-4.1 2.2-6.1 3.4 1.5 8.2 1.2 10.7-1.9 2-2.7 1-6.6 1.7-9.8 0-1.3.3-2.6.2-3.9zm-69.9-6c-.2.3-.5.5-.8.7.1-.7.5-1.3 1.1-1.6 0 .3-.1.6-.3.9zm29.3-25.7c.6 3.6.8 7.4 1.6 11 .3.6.3 1.3 0 1.8-.2.6-.9 1-1.5.8-1.9-.7-1.2-3.8-1.7-5.5.2-2-2.2-9.5.3-9.7.7.1 1.2.6 1.3 1.6zm37.7 34.6c-4.6-.2-5.4 7.6-.7 8.1-2 3.2-7 2.9-9.7.7-1.6-1-1.9.2-2.4 1.6-1.1.7-.7 2.3-1.7 3.1-1.9 1-4.6.8-6.6.2-1.3-1.2-1-4.9-3.5-4.2-5.6 1.6-11.4 2-17.1 1.6-1.5.1-3.8-1.1-4.5.8-.6 2.1-2.6 3.8-4.9 3-3.2-1-4.7-1.1-4.3-5 0-.7-.2-1.3-.7-1.8-1.5-1.8-2.7-3.8-3.4-6-2.5-8.7 1.4-19.3 9.1-24.2l2.5 4c-1.7.3-3.9 2.2-1.7 3.5 4.9-1.5 10.3-2.2 15.5-2.8 4.1-.5 8.2-.7 12.3-.4 1.1.1 2-1 1.6-2.1-.3-1.4-2.5-1-3.4-1.2l1-2.9c2.3 1.5 4.3 2.9 6.3 4.6 2.7 2.2 2.9-2.6 3.6-4.2h.2c.8 2.1.6 4.8 2.5 6.3 3.3 2.2 5.4 5.9 5.7 9.9.3 4.2-.7 6.3 4.6 5.4l-.3 2z"/><path d="M59.3 49.9c-1.2-.8-1.2-3.3.6-2.9 2.3 1.9 4.6 1.6 6.6-.5.8-.3 1.7.3 1.7 1.1.1.8-.4 1.6-.9 2.1-.6.6.4 1 .6 1.5.7.9-.1 2.9-1.4 2.3-.8-.7-1.2-1.6-1.9-2.6h-.4c.5 1 1.1 2.3 0 3.1-1.5.8-2.4-1.9-2.7-3-.5.9-1.3 3.4-2.6 2.5-1.3-1-.2-2.5.4-3.6z"/></svg>