<svg version="1.1" id="Layer_1" xmlns="http://www.w3.org/2000/svg" x="0" y="0" viewBox="0 0 80 80" xml:space="preserve"><style>.st0{fill:#fff}</style><path d="M41.5 31.7V15.9c-.1-2.7-.7-5.8 1.4-8C49.6 1 63.7.8 71 6.9c1.1.8 1.7 2 2.5 2.9.9.3 1.5 1.2 1.3 2.2.3 8.2-.2 16.5.5 24.6-.8 7.1-.7 14.3-.1 21.4-.1 1-.1 2.2 1 2.7 2.9 2.2.1 6.8-1.8 9C71 73.8 66 76.4 60.7 77c-5.9 1.1-11.9-.4-16.8-3.8-7.1 2.4-14.2 4.9-21.8 4.7-6.3-.5-14.3-1-18.4-6.4-4.1-7.2 6-10 11.2-11.4-.3-5.6-4.9-23.8.3-26.8 7.7-4.5 17.9-4.5 26.3-1.6zm15.9-14c4.1 0 8.7-.9 11.6-4 1.9-2-.9-4.6-2.9-5.2-5.2-2.3-11.3-2.3-16.5-.2-10.6 4.8 2 9.9 7.8 9.4zM41 36.5c-6-3.9-17.8-3.3-23.8.6 5.6 4.1 17.8 2.8 23.8-.6zm5.3 3.8c.1 4.5.2 3.5 4.1 4.9 6.6 2.6 13.6 1.3 20-1.3.7-.8.1-2.2.3-3.4-8.1 3.4-16.2 2.8-24.4-.2zm-.3-4.5c7.5 3.7 16.6 3.7 24.4.5 1-.6.3-2 .5-3.1-8.2 3.7-17 2.6-24.9-.9v3.5zm-.3-7.7c5.4 2 11.3 4.1 17.1 3.1 2.7-.6 6-1.1 8.1-3 .1-.9 0-1.8 0-2.8-9.1 4.4-16.1 3.4-25.2-.4v3.1zM16.9 42c-.1 1.7-.1 1.7 1.3 2.3 3.7 2.1 8 2 12.1 2.4 4.1.5 7.8-.7 11.5-2.1 1-.9.1-2.6.3-3.9-7.7 3.8-17.1 4.1-25.2 1.3zm29.8 6c.2 7.4 17.1 5.5 21.9 3.6 2.6-1.1 2-.3 2-3.1 0-.1 0-.1-.1-.3-7.7 3.6-16 3.3-23.8-.2zm-28.3 7l.2 1.6c1.7.5 3.3 1 4.9 1.3 6.5 1.4 13.1 2.4 19.6.2l-.1-3c-8 3.4-16.4 1.5-24.6-.1zm26.9-36c0 1.8 1.4 2.3 2.8 2.8 3.7 1.1 7.5 2.6 11.5 2.4C63 23.9 71.5 22.4 71 18c-8.3 5-16.8 5-25.7 1zm2 37.5c6.7 3.3 15.8 5.5 22.5 1.2 1.3-.7 1.3-.8.9-2.3-7.2 2.8-15 2.6-22.4.5-.9-.3-1.1-.1-1 .6zm-29.8-8.1c.2.6 0 1.8.6 2.3 3.4 1.3 7.2 1.5 10.8 2 4.2.5 8.4.1 12.4-1.3 1.7-.5 1.8-.9 1.2-2.6-8.3 3.2-16.7 2.6-25-.4zm1.6 12.4c.4 2.7 2.4 3.4 4.7 3.8 4.3.1 8.7.5 12.9-.6-4.5 0-8.9-.7-17.6-3.2zm29.2.5c5.9 5.2 15.6 5.5 22 .9-7 3.3-15 1.9-22-.9z"/><path class="st0" d="M63.7 8.9c-2.1.4-4.1.8-6.2 1.2-2.3.7-9.5-.1-7.1 4 .9 1.1 2.2.7 3.3.3 3.4-.4 6.9-.8 10.3-1.2 2.8-.3 2.6-4.4-.3-4.3z"/><path d="M63.7 8.9c2.8-.2 3.1 4.1.3 4.4-3.4.4-6.9.8-10.3 1.2-1.4.6-3.2.6-3.7-1.1-.7-3.6 5.3-2.5 7.5-3.3 2.1-.3 4.2-.8 6.2-1.2z"/></svg>