<svg xmlns="http://www.w3.org/2000/svg" viewBox="0 0 80 80"><path d="M28 9.8c8.3-.8 14.7 6.9 14.3 14.9 7.1-2.4 13.8-7.3 15.8-14.8 5.5 5.7 10.8 12 16.7 17.3.3 0 .6-.2.8.2 1.9 1.8 1.1 4.2.7 6.5-.6 4.2-3.2 7.4-6.3 10 1.4 4.1.4 8.4-1.2 12.3-1.9 5.6-8.9 9.2-14.4 6.6-3.8-2-7.5-5.8-7.2-10.3-7.6 2.1-13.5 7.6-19.7 12-2 1.6-3.8 3.6-4.2 6.1-2.4 2.5-3.8-4.7-4.9-6-1.8-4.7-4.8-8.9-8.5-12.2C8 50.7 6.1 49.1 4 47.6c-.5-.4-1-1-1-1.6 1.2-2.3 3.8-3.7 5.5-5.5 2.9-2.5 5.8-5.1 9.6-6.2-7.2-8.9-1.4-23.6 9.9-24.5zM17.5 24.3c-.1 17.9 24 14.6 22.1-2.1C37.3 7.7 18 10.5 17.5 24.3zm41.8-2.2c2.9 2.8 5 6.3 8.2 8.9.4 5.9-4.9 10.3-10.2 11.5-11.9 2.9-24.6 6-33.5 14.9-2.5-4.8-5.4-9.2-9.5-12.8-.3 0 6.7-4 6.7-4.1.6-.2.7-1.1.2-1.5-.4-.3-1-.1-1.4.1-2.5 1.5-5.3 2.7-7.4 4.7-.7 1.6 1.5 2.8 2.4 3.9 3.8 3.1 5.4 7.8 8.2 11.5.7.2 2 .6 2.4-.4 2.5-3.1 6.4-5 9.8-7.1 6.1-3 12.6-5.1 19.2-6.4C61 43.9 68 40.9 69.5 33.6c.8-2.5.7-3.4-1.4-5.1-2.2-2.1-3.9-4.5-5.9-6.6-1.9-1.7-2.1-4.9-4.2-1.1-3.8 4.2-9.4 6.3-14.7 8-.6.2-1.4.5-1.5 1.1-.1.7.7 1.3 1.3.9 2.4-.9 4.9-1.5 7.3-2.5 3.3-1.2 6.4-3.4 8.9-6.2zm8.4 23c-2.4 1.2-5.1 2.1-7.6 3.1-.2 1.7 0 3.4-.1 5.1.1.5.6 1 .4 1.6-.1 1.3-1.9 2.3-2.8 1-.6-2.2.1-4.8 0-7.1-.3-.1-7.4 2.4-7.7 2.4-.9.9-.6 2.6 0 3.6 2.9 6.1 10.6 8.8 15.1 2.8 2.2-3.6 4.3-8.3 2.7-12.5z"/><path d="M26.9 23.6c.4-1.6-.9-8.2 2.1-6.5 1.1 3.5 0 7.7.5 11.4.2 1.2-.5 2.9-1.9 2.2-1.6-1.8-.4-4.8-.7-7.1z"/></svg>