<svg viewBox="0 0 80 80" fill="none" xmlns="http://www.w3.org/2000/svg"><g clip-path="url(#clip0)" fill="#000"><path d="M32.117 65.064c-.56.41-.37.85-.14 1.29.47.92.5 9.91.1 10.9a1.93 1.93 0 01-3.17.83c-1.32-1.05-1.39-10.36-.45-12.21a1.37 1.37 0 01.17-.25 4.58 4.58 0 01-.27-4.72c.06-.14 0-.33 0-.56-6.05 3.19-11.73 2.6-17.15-1.33a6.735 6.735 0 00-.51.8.76.76 0 00.05.51 4.68 4.68 0 01.38 3.38 16.652 16.652 0 01-.77 1.68c.95 1.21 1.18 8.21.62 9.76a2.31 2.31 0 01-1.06 1.26 1.73 1.73 0 01-2.56-.78c-.86-1.63-.71-8.82-.08-10.46a.76.76 0 000-.55 4.75 4.75 0 01-.19-4.16.49.49 0 01.07-.19 1 1 0 00-.11-1.31 5.69 5.69 0 01-.6-4.86.79.79 0 00-.06-.5c-.76-1.62-1.55-3.22-2.31-4.84-.11-.26-.22-.37-.51-.37a4.11 4.11 0 01-3.42-1.56 11.915 11.915 0 01-1.69-2.16 3.79 3.79 0 013.65-5.58h.29v-.64a27.15 27.15 0 014.15-14.37c1.89-5.5 7.66-7.73 7.66-8.29 0-11.08 13.95-12.65 14.32.93 4.83 1.47 6.83 7.41 8.28 10.74.08.17.15.34.27.61.52-.578 1-1.189 1.44-1.83a8.997 8.997 0 012.42-2.61 19.118 19.118 0 016.23-3.47 29.992 29.992 0 017-1.24 6.218 6.218 0 012.3.39 30.562 30.562 0 017.91 4.74c2.39 1.86 3.42 4.48 4.09 7.31.648 2.774.897 5.626.74 8.47.003.335.033.67.09 1a.881.881 0 010 .35c-.22.58-.46 1.15-.69 1.72a1.86 1.86 0 01-1.43 1c-.82.22-1.62.52-2.44.75-.33.09-.41.26-.41.58 0 1.69.12 3.38 0 5.07-.14 2.34-.55 15.65-.8 18a20.399 20.399 0 01-.46 3 6.88 6.88 0 01-3.92 4.61 9.542 9.542 0 01-3.33.66 4.18 4.18 0 01-2.69-1.22c-.18-.14-.21-11.25-.42-11.42a13.192 13.192 0 01-10.12 5.93 12.001 12.001 0 01-10.47-4.79zm-7.49-43.82c-.49.58-.9 1.15-1.39 1.65a46.816 46.816 0 01-11.88 9.1 20.862 20.862 0 01-5.31 1.92.57.57 0 00-.53.55 27.47 27.47 0 00.12 9.57 4.75 4.75 0 00.8 2.34c.16.18.11.55.15.83a2.63 2.63 0 000 .49 19.84 19.84 0 005.55 8.53 12.36 12.36 0 0016.12.84 17.51 17.51 0 005.58-6.89 26.2 26.2 0 001.74-17.77 1 1 0 00-.37-.52c-.62-.45-1.26-.87-1.9-1.29a29.68 29.68 0 01-3.6-3 22.34 22.34 0 01-3.77-4.36c-.42-.68-.87-1.32-1.31-1.99zm37.08 29.2v-.56c0-1.69.07-3.38.11-5.07a2.75 2.75 0 012.12-2.78l2.1-.64a.42.42 0 00.36-.46 32.1 32.1 0 00-.6-9c-.57-2.35-1.38-4.55-3.44-6a30.278 30.278 0 00-6.55-3.95.75.75 0 00-.48-.07 9.522 9.522 0 00-1.66.65c-2.7 1.5-5.19 3.24-6.77 6a1.269 1.269 0 00-.14.66c.051.44.128.878.23 1.31a35.368 35.368 0 002.7 7.87 25.001 25.001 0 006.98 9.42 13.892 13.892 0 005.04 2.62zm-9.22 5.91a10.5 10.5 0 00-.42-3.82 9.55 9.55 0 00-10.4-7.12 26.2 26.2 0 00-3.09.85.69.69 0 00-.54.58 24.422 24.422 0 01-5.62 10.22.799.799 0 00-.21.58c.115.946.302 1.882.56 2.8a9.47 9.47 0 0011.33 6.47 10.76 10.76 0 007.59-6.8c.22-.52.36-1.07.55-1.67h-.25a8.601 8.601 0 01-4 .21 1.41 1.41 0 01-1.2-.83 1.22 1.22 0 011.29-1.61 6.692 6.692 0 002.48-.08 2.06 2.06 0 011.93.22zm-6-16.8h.11a25.386 25.386 0 00-.83-2.6 1.72 1.72 0 00-1-.81 2.38 2.38 0 00-2.59.75 3 3 0 00.18 3.93 3.88 3.88 0 002.51 1.16 1.331 1.331 0 001.49-1.16c.06-.39.1-.83.16-1.27h-.03zm-44.03 2.09a1.42 1.42 0 00-1.69.62 1.3 1.3 0 00.31 1.56c.45.52 1 1 1.46 1.5.168.107.35.191.54.25l-.62-3.93z"/><path d="M16.466 39.484c-.62.17-1.18.38-1.76.49a8.17 8.17 0 01-4.49-.68c-.42-.17-.84-.38-1.25-.58a1.58 1.58 0 01-.9-1.39 1.18 1.18 0 01.64-1.15 1.13 1.13 0 011.3.1 5.87 5.87 0 002.83 1.09 3.2 3.2 0 002.45-.46 5.318 5.318 0 012.42-.72c.74-.11 1.27.49 1.29 1.37 0 1.7 0 3.41.12 5.12.062.863.18 1.722.35 2.57.067.264.186.512.35.73a.83.83 0 001.24.17c.179-.16.373-.3.58-.42a1.21 1.21 0 011.39.14 1.24 1.24 0 01.42 1.34 2.91 2.91 0 01-2.74 1.92c-2.23-.1-3.68-1.36-4-3.86a50.061 50.061 0 01-.2-5.21c-.05-.18-.04-.37-.04-.57z"/><path d="M14.896 45.924a6.14 6.14 0 01-.8 3.5 1.9 1.9 0 01-2.57.75 3 3 0 01-1.81-3.52c.18-.9.46-1.78.69-2.67.107-.287.194-.581.26-.88a1.37 1.37 0 011-1.26.996.996 0 00.34-.22 1.3 1.3 0 012.18.65c.34 1.38.55 2.77.71 3.65zm14.281-5.73a7.32 7.32 0 01-4.47-1.77 1.28 1.28 0 01-.35-1.7 1.29 1.29 0 011.68-.38c.19.078.368.182.53.31a3.66 3.66 0 004.33.31c.333-.19.706-.3 1.09-.32a1.32 1.32 0 01.58 2.42c-.825.386-1.674.72-2.54 1a3.796 3.796 0 01-.85.13zm-9.5 12.2a4.56 4.56 0 013.88 1.91 3 3 0 01.4.87 1.25 1.25 0 01-2 1.27 3.14 3.14 0 01-.57-.58 2.321 2.321 0 00-3.42-.34 1.71 1.71 0 01-1.11.37 1.15 1.15 0 01-.71-1.92 4.29 4.29 0 013.21-1.58h.32zm38.08-23.99c2.22 0 3.33 1.22 2.95 2.83a2.18 2.18 0 01-2.2 1.65c-1.9.18-3.81.33-5.71.49a1.42 1.42 0 01-1.4-.76 1.45 1.45 0 01.26-1.57 5.398 5.398 0 013.57-2.16c.99-.16 1.97-.37 2.53-.48zm-1.051 10.87c-1-.2-2.07-.35-3.09-.59a1.2 1.2 0 01-.782-1.93 1.24 1.24 0 011.352-.43 8.312 8.312 0 003.29.17c.45-.073.892-.187 1.32-.34.27-.08.52-.25.8-.33a1.336 1.336 0 111 2.48 7.251 7.251 0 01-3.85.82l-.04.15zm-11.22 19.18c-.05.76-.08 1.53-.16 2.29-.21 2.07-1.83 2.93-3.69 2.62a1.35 1.35 0 01-1.18-1.44 1.38 1.38 0 011.49-1.24c.75 0 .75 0 .82-.76a15.292 15.292 0 00-.08-4.58 1.2 1.2 0 01.91-1.45 1.158 1.158 0 011.43.92c.25 1.19.39 2.41.57 3.62l-.11.02zm-8.649.5c-.45-.11-1.17-.25-1.86-.48a1.13 1.13 0 01-.75-1.25 1.15 1.15 0 011.1-1c.374-.003.747.044 1.11.14a1.62 1.62 0 001.27-.16 1.22 1.22 0 011.7.24 1.3 1.3 0 01-.2 1.72 3.16 3.16 0 01-2.37.79z"/></g><defs><clipPath id="clip0"><path fill="#fff" d="M0 0h80v80H0z"/></clipPath></defs></svg>