<svg xmlns="http://www.w3.org/2000/svg" viewBox="0 0 80 80"><path d="M34.1 65.1c-.6.4-.4.8-.1 1.3.5.9.5 9.9.1 10.9-.4 1.3-2.2 1.8-3.2.8-1.3-1-1.4-10.4-.4-12.2.2-.7-.8-1.6-.6-2.6-.2-1.1.6-1.9.5-3-6.1 3.2-11.7 2.6-17.2-1.3-.2.3-.4.5-.5.8.6 1.9.9 3.8-.3 5.6.9 1.7 1.9 9.8-.4 11-4.6 2.2-3.2-9.4-2.7-11.2.1-.9-.7-1.7-.6-2.6-.1-1.1.5-2 .6-3-.4-1-1.1-1.9-1.2-3-.3-1 .3-2 .2-3-.8-1.6-1.6-3.2-2.3-4.8-.1-.3-.2-.4-.5-.4-3.3 0-7-4.5-4.9-7.6.8-1.3 2.3-1.9 3.8-1.7-.1-5.3 1.3-10.5 4.1-15 1.9-5.5 7.7-7.7 7.7-8.3 0-11.1 13.9-12.7 14.3.9 5.1 1.7 6.9 7.7 8.5 11.4 4-6.2 12-10.2 19.4-8.8 9.7 3.6 13.4 10.3 12.7 20.5.4 3.5-1.6 4.1-4.5 4.8-.3.1-.4.3-.4.6 0 1.7.1 3.4 0 5.1-.1 2.3-.5 15.6-.8 18 .5 5.2-5.7 10.9-10.4 7.1-.2-.1-.2-11.3-.4-11.4-4.2 7-15.5 8.1-20.5 1.1zm-7.5-43.9C21.7 26.9 15.4 32.1 8 33.9c-.3 0-.5.3-.5.5-1.2 7.7.7 16.4 6.6 21.8 15.1 12.2 28-10 23.4-23.8-3.9-3.3-8.3-6.4-10.9-11.2zm37.1 29.2c.4-2.7-1.2-7.3 2.2-8.4l2.1-.6c.2 0 .4-.2.4-.5.1-5.1.3-11.5-4-15-2.1-1.6-4.5-3.3-7-4-3.4 1.2-6.5 3.5-8.4 6.7.7 8.6 5.9 19 14.7 21.8zm-9.2 6c.9-7.6-7.5-13.6-14.3-9.9-1.1 4.2-3.6 7.8-6 11.2.9 12.4 17.6 12.4 20 .8-1.7.2-4.3 1.1-5.5-.6-.2-.6.1-1.3.7-1.5 1-.2 2.1.2 3.1-.2.7-.3 1.4-.2 2 .2zm-6-16.8c0-2.3-1.8-5.1-4.3-2.7-3 3.3 4.5 8 4.3 2.7zm-44 2c-.9-.4-2 .5-1.8 1.5.5 1 1.5 2 2.4 2.5l-.6-4z"/><path d="M18.5 39.5c-2.3 1-7.6.7-8.4-2.2-.1-1 1.2-1.7 1.9-1.1 1.2.8 2.7 1.3 4.1 1.1 1.2-.3 2.3-1.2 3.6-1.2 2.9-.1-.1 9.1 2.7 10.2.5.1.8-.4 1.2-.6 2.1-.8 2.4 2 .7 2.9-5.9 2.6-5.9-5.1-5.8-9.1z"/><path d="M16.9 45.9c0 1.6-.3 3.8-1.9 4.4-2 .5-3.8-1.8-3.2-3.7.6-1.7.4-4.2 2.3-5 2.5-1.8 2.5 3.2 2.8 4.3zm14.3-5.7c-1.7.2-7.2-2.3-4.1-4 .5-.1 1 .1 1.4.4 1.6 1.6 3.6.5 5.4 0 .8.1 1.4 1 1.1 1.8-.7 1.2-2.5 1.5-3.8 1.8zm-9.5 12.2c1.9-.3 5.7 2.2 3.7 4.1-1.2.8-1.9-.8-2.7-1.3-1.4-1-2.5.5-3.8.7-3-1.2 1.1-3.9 2.8-3.5zm38.1-24c2.9-.1 4 2.5 2.1 4-2.2.9-4.8.5-7.1.9-.9.1-1.7-.7-1.5-1.6.8-2.5 4.4-2.9 6.5-3.3zm-1.1 10.9c-1.2-.4-3-.1-3.9-1.1-.5-.7 0-1.8.9-1.9 1.7.3 3.5.5 5.1-.1.6-.2 1.2-.6 1.8-.3 1.1.4 1.1 2.1 0 2.5-1.1.7-2.8.6-3.9.9zM47.5 58.5c.1 2.6-.7 5.6-3.9 4.9-.7-.1-1.2-.7-1.2-1.4 1.1-3.2 3.2 2 2.2-6.6-.3-1 1-1.9 1.8-1.3 1 .8 1.1 3.3 1.1 4.4zm-8.7.5c-.6-.2-2-.2-2.5-1-.7-1.4.9-2.1 2.1-1.6 1 .4 2.1-1.1 3 .1 1 1.5-1.2 2.6-2.6 2.5z"/></svg>