<svg width="80" height="80" fill="none" xmlns="http://www.w3.org/2000/svg"><path d="M12.17 51.7c-1.9-.8-3.65-1.52-5.39-2.26a11.768 11.768 0 01-1.38-.68c-1-.61-1-1.31-.32-2.29 1.14-1.8 3-2.65 4.63-3.77l.65-.46c-.6-.24-1.11-.4-1.58-.63a14.719 14.719 0 01-2.28-1.23 1.76 1.76 0 01-.07-3.11c.767-.63 1.583-1.2 2.44-1.7 7.12-4.34 14.26-8.64 21.38-13 5.34-3.25 10.66-6.54 16-9.81.84-.51 1.17-.47 2 .11.263.179.554.314.86.4 5.45 1.6 10.79 3.49 16.06 5.61 1.54.62 3.14 1.11 4.72 1.66.395.126.777.29 1.14.49a1.29 1.29 0 01.22 2.23 1.22 1.22 0 00-.45.86c-.14.502-.344.982-.61 1.43.14 0 .36.14.59.19 1.12.26 2.24.53 3.38.74a1.79 1.79 0 011.5 1.52 1.59 1.59 0 01-.74 1.81c-1 .75-2 1.5-3 2.26-.25.18-.48.37-.88.68.55.15.9.26 1.26.34a10.6 10.6 0 011.78.37c.59.24 1.147.553 1.66.93a1.31 1.31 0 01.48 1.61c-.06.21-.18.45-.12.63a1.63 1.63 0 01-.68 1.85 22.576 22.576 0 01-2.07 1.73C66.24 45 59.43 50.24 52.53 55.37c-4.23 3.13-8.48 6.23-12.69 9.38-1.57 1.17-3.06 2.44-4.56 3.7a1.9 1.9 0 01-2 .51 55.183 55.183 0 00-8.85-2.25 38.421 38.421 0 01-9.2-3.3c-1.44-.71-2.87-1.43-4.31-2.13a12.31 12.31 0 01-3.35-2.58 1.51 1.51 0 01-.42-1.83.74.74 0 00.1-.37 1.94 1.94 0 011-1.64c1.28-1.01 2.54-2.05 3.92-3.16zM9 38.74c1.49.57 2.78 1 4.06 1.55 3.53 1.35 7 2.89 10.65 3.89 3.09.84 6.2 1.61 9.29 2.46a1.3 1.3 0 001.3-.26c1.74-1.37 3.46-2.76 5.28-4 5-3.42 10-6.77 15-10.17 4.4-3 9.17-5.42 13.4-8.67.19-.14.37-.29.66-.53l-1.47-.51c-1.15-.41-2.3-.8-3.44-1.22a1765.363 1765.363 0 01-15.9-5.77 1.35 1.35 0 00-1.34.18C44.71 16.82 43 18 41.26 19a20276.78 20276.78 0 01-31.05 19c-.35.16-.69.39-1.21.74zm.73 18.48a8.29 8.29 0 002.86 1.92c1.06.46 2.1 1 3.14 1.45A38.512 38.512 0 0024 63.8c3.1.68 6.17 1.48 9.24 2.26a.84.84 0 00.86-.24c.69-.57 1.36-1.17 2.08-1.71a2814.65 2814.65 0 0112.35-9.19c7.75-5.75 15.39-11.66 23.38-17.09.64-.44 1.2-1 1.85-1.56-.86-.62-1.79-.47-2.58-.78-.79-.31-1.59-.69-2.42-1.06-.15.1-.34.21-.52.35-2 1.48-3.93 3-5.93 4.44C54.33 45 46 50.36 37.8 55.85c-1 .66-2 1.23-3.06 1.83a1.51 1.51 0 01-1.72.08 3 3 0 00-1.32-.5c-.7-.12-1.4-.24-2.08-.42L15.73 53c-.3-.08-.6-.18-.93-.28-1.71 1.49-3.38 2.98-5.11 4.5h.04zM7.94 47.15c.57.23.92.39 1.27.52 1.66.61 3.3 1.26 5 1.83a152.52 152.52 0 0019.45 5.34 1 1 0 00.63-.11c.92-.52 1.84-1 2.72-1.62 3.11-2 6.19-4.14 9.3-6.18 5.44-3.57 10.82-7.24 16-11.13 3-2.24 6-4.55 9.15-6.55.183-.138.354-.292.51-.46-1.52-.45-2.92-.89-4.34-1.27a1.08 1.08 0 00-.79.16c-2.81 1.73-5.64 3.44-8.4 5.25-3.32 2.18-6.57 4.49-9.87 6.69-4.86 3.24-9.76 6.41-14.37 10-.097.082-.2.156-.31.22a1.11 1.11 0 01-1.49-.19 2 2 0 00-1.14-.65c-2.85-.75-5.73-1.42-8.54-2.3-2.81-.88-5.74-2-8.6-3.08a1.39 1.39 0 00-1.5.17c-.79.59-1.66 1.09-2.47 1.66-.81.57-1.37 1.07-2.21 1.7z" fill="#000"/><path d="M9.69 57.22c1.73-1.52 3.4-3 5.11-4.52.33.1.63.2.93.28l13.89 3.86c.68.18 1.38.3 2.08.42a3 3 0 011.32.5 1.51 1.51 0 001.72-.08c1-.6 2.07-1.17 3.06-1.83C46 50.36 54.33 45 62.32 39.22c2-1.45 3.95-3 5.93-4.44.18-.14.37-.25.52-.35.83.37 1.61.74 2.42 1.06.81.32 1.72.16 2.58.78-.65.55-1.21 1.12-1.85 1.56-8 5.43-15.63 11.34-23.38 17.09-4.12 3.06-8.237 6.123-12.35 9.19-.72.54-1.39 1.14-2.08 1.71a.84.84 0 01-.86.24c-3.07-.78-6.14-1.58-9.24-2.26a38.51 38.51 0 01-8.32-3.21c-1-.5-2.08-1-3.14-1.45a8.29 8.29 0 01-2.86-1.92z" fill="#000"/></svg>