<svg viewBox="0 0 80 80" fill="none" xmlns="http://www.w3.org/2000/svg"><path d="M17.49 37.05c-1.23-.11-2.4-.21-3.57-.33-1.17-.12-2.48-.27-3.72-.42a1 1 0 01-.81-.54 2.46 2.46 0 00-.22-.34 1 1 0 01-.09-1.2c1.42-2.55 2.85-5.11 4.29-7.65.203-.311.427-.609.67-.89l-1.55-2-1.83-2.48a.87.87 0 01.25-1.39 2.59 2.59 0 00.56-.48c.59-.63 1.15-1.28 1.73-1.92.107-.117.224-.224.35-.32a.85.85 0 011.41.52c.067.307.216.59.43.82l2.2 2.57c.39-.51.75-1 1.13-1.48a1.391 1.391 0 011-.57 1.32 1.32 0 011.39.75c.39.69.87 1.33 1.27 2 .6 1 1.16 2 1.74 3l1.2 2A30.48 30.48 0 0134.9 25v-.52c-.1-.81-.23-1.62-.31-2.43-.08-.81.33-1.24 1.2-1.2.09.01.18.01.27 0a45.415 45.415 0 016.16-.61c.63-.05 1.26-.16 1.89-.18.403-.005.806.035 1.2.12a.92.92 0 01.82.93c.12 1.13.27 2.25.41 3.38 0 .11 0 .22.08.39l1.75.11 8.07.55a2.43 2.43 0 011.82.65c.72-.81 1.4-1.57 2.09-2.32.49-.53 1-1.07 1.5-1.58a1.49 1.49 0 012.38.23c1 1.36 1.88 2.72 2.82 4.09.15.22.32.43.5.67.68-.28 1.32-.56 2-.82.68-.26 1.15-.46 1.75-.66a1.58 1.58 0 011.91.63 4.3 4.3 0 01.63 1.48c.133.803.187 1.617.16 2.43a2.09 2.09 0 01-1.39 2.06c-.78.3-1.51.71-2.32 1.11l.71 1.18c.43.71.35.92-.16 1.55a2 2 0 01-1.58.76c-1.43.1-2.85.23-4.27.35h-.41c.06.9.17 1.78.17 2.65 0 3.41.34 6.79.48 10.19.09 2 .15 4 .22 6 0 .47-.12.92-.07 1.4.05.48-.49 1-1.16 1.14-.92.15-1.84.25-2.76.37-1.28.17-2.57.32-3.84.52-2.875.4-5.778.57-8.68.51-2.22 0-4.44.12-6.66.18h-2.59l-5.57.23h-1c-2.52.08-5 .17-7.55.22a18.538 18.538 0 01-4.13-.34 2.55 2.55 0 01-2.26-2.28c-.11-.74-.18-1.48-.27-2.21a1.762 1.762 0 00-.07-.33 28.49 28.49 0 01-.77-4.49 100.138 100.138 0 01-.55-13.85c-.01.03-.02-.06-.03-.21zm2 .89a1.577 1.577 0 000 .28 95.171 95.171 0 00.74 14.32c.12.87.34 1.73.49 2.6.01.336.047.67.11 1 .08.296.11.604.09.91-.01.447.09.89.29 1.29.1.19.5.26.78.32a16 16 0 003.85.27l5.31-.18 8.49-.29c1 0 2-.06 2.93-.08 2 0 4.07-.14 6.11-.15a58.147 58.147 0 006.67-.23c2.27-.27 4.54-.57 6.81-.86.48-.06 1-.16 1.42-.25 0-.37 0-.67-.06-1-.12-2.56-.2-5.12-.35-7.68a85.512 85.512 0 01-.3-8.62 8.944 8.944 0 000-1.16 9.5 9.5 0 00-.15-1.07c-.1-.44-.25-.54-.72-.56-.7 0-1.4-.05-2.1-.06-.4 0-.79.06-1.15.08v1.93a1.32 1.32 0 01-.5 1.2 1 1 0 00-.26.45.93.93 0 01-.79.66c-1.68.21-3.37.42-5.06.61a6.298 6.298 0 01-.76 0c-.02.175-.05.349-.09.52a1.66 1.66 0 01-1.18 1.29l-.59.16a1.13 1.13 0 01-1.52-.91c-.07-.31-.12-.62-.18-1-4.62.21-9.21.19-13.73.41-.051.414-.128.825-.23 1.23a1.57 1.57 0 01-2.34.84 1.7 1.7 0 01-.8-1.13c-.08-.32-.14-.65-.2-1-.2 0-.36-.05-.51-.05a21.46 21.46 0 01-4.59-.52 3.714 3.714 0 00-.67-.07 1.75 1.75 0 01-1.75-1.3 7.678 7.678 0 01-.28-1.66v-1.42a2.58 2.58 0 01-.83.2 4.12 4.12 0 00-2.42.68h.02zm37.21 1.23l-.18-11.65c-.15 0-.3-.06-.45-.07-2.61-.17-5.21-.37-7.81-.51-3.67-.21-7.34-.12-11-.07a42.292 42.292 0 00-11.7 1.63c-.6.18-.74.32-.77.94-.03.62 0 1 0 1.56v4.76c0 .89-.1 1.77-.13 2.65.004.296.037.59.1.88 0 .28.22.4.51.43.48 0 .94.17 1.42.2 1.21.1 2.43.16 3.68.24 0-.45.07-.81.12-1.16a1.26 1.26 0 01.93-1.07 1.641 1.641 0 011.52.28 1.45 1.45 0 01.78 1.25c0 .22 0 .44.08.72 4.67-.16 9.31-.19 13.92-.39.06-.43.07-.78.15-1.1a1.91 1.91 0 012.34-1.55 1 1 0 011 1.09c0 .49.08 1 .13 1.48 1.8-.011 3.594-.192 5.36-.54zm-45.6-4.59c3.48.27 6.83.62 10.31.6-1.89-2.94-4.27-5.3-6.35-8.07l-3.96 7.47zm58.75-3.09a3.79 3.79 0 01-1-2.63L58.5 33.18a7.02 7.02 0 00.12 1.76h3a5.44 5.44 0 002.66-.69c1.68-.88 3.41-1.67 5.12-2.51.13-.06.26-.15.45-.25zm-47 2.22c0-1 0-1.95.11-2.84a2.22 2.22 0 00-.81-2 56.123 56.123 0 01-7-7.85c-.38-.55-.84-1.05-1.33-1.66l-.63.71-.64.71 10.3 12.93zM63 24a.491.491 0 00-.16.07l-4.21 4.44a.73.73 0 00-.22.4v2.37l7.17-3.17L63 24zm-26.53-1.48l.27 2.34h7.94L44.42 22l-7.95.52zm-17.74 0l4.43 4.66A38.213 38.213 0 0019.78 21l-1.05 1.52zm53.19 5.11c-.43.18-.87.13-1 .56a1.71 1.71 0 001.18 2.35c.161-.964.1-1.953-.18-2.89v-.02zm-3.29 6.54l-2.22 1.05v.13l2.65-.32-.43-.86z" fill="#000"/><path d="M11.1 34.58l4-7.47c2.08 2.77 4.46 5.13 6.35 8.07-3.52.02-6.87-.33-10.35-.6zm58.75-3.09c-.19.1-.32.19-.46.25-1.71.84-3.44 1.63-5.12 2.51a5.44 5.44 0 01-2.66.69h-3a6.997 6.997 0 01-.12-1.76l10.38-4.32a3.79 3.79 0 00.98 2.63z" fill="#fff"/><path d="M22.86 33.71l-10.3-12.94.64-.71.63-.71c.49.61.95 1.11 1.33 1.66a56.123 56.123 0 007 7.85 2.22 2.22 0 01.81 2c-.11.9-.08 1.81-.11 2.85zM63 24l2.6 4.11-7.17 3.17v-2.37a.73.73 0 01.22-.4L62.88 24a.492.492 0 01.12 0z" fill="#000"/><path d="M18.73 22.54L19.78 21a38.21 38.21 0 013.38 6.16l-4.43-4.62zm53.19 5.11a6.41 6.41 0 01.13 2.91 1.709 1.709 0 01-1.18-2.35c.18-.43.62-.38 1.05-.56z" fill="#fff"/><path d="M68.63 34.19l.47.86-2.65.32v-.13l2.18-1.05zM39.67 47.75l8.81-.28c.497-.018.995-.002 1.49.05a1 1 0 011 .74.81.81 0 00.31.4 1.18 1.18 0 01.51.92c.12 1 .27 2 .39 3a3.29 3.29 0 010 .94 1.14 1.14 0 01-1 1 7.403 7.403 0 01-.81.08c-3.29.1-6.57.17-9.86.3-1.56.06-3.11.25-4.67.35-1.36.08-2.72.16-4.07.17A1.482 1.482 0 0130 54a6.621 6.621 0 01-.24-1.4v-3.06c0-1.06.41-1.39 1.41-1.44l8.5-.35zm-7.81 5.68c1.27-.07 2.47-.12 3.66-.2 1.19-.08 2.57-.28 3.86-.33 3.26-.12 6.52-.18 9.78-.27.33 0 .65-.07.94-.1l-.37-3.27-18 .8a16.003 16.003 0 00.13 3.37z" fill="#000"/><path d="M31.86 53.43a16.001 16.001 0 01-.12-3.37l18-.8.37 3.27c-.29 0-.61.09-.94.1-3.26.09-6.52.15-9.78.27-1.29.05-2.57.24-3.86.33-1.29.09-2.4.13-3.67.2z" fill="#000"/></svg>