<svg xmlns="http://www.w3.org/2000/svg" viewBox="0 0 80 80"><path d="M41.7 62.4c-1.2 1.6-4 4.9-5.1 6.5-2.7 3.9-6.4-5.4-7.3-7.4-1.8.5-3.5 1.5-5.1 2.6-1 .5-3.1.9-3.4-.6-.5-2.3-1-4.6-1.5-7.1l-3.7.4c-1.3 0-2.8.6-4 .1-.6-.3-.7-1-1.1-1.4-.2-.2-.3-.5-.3-.8s.1-.6.3-.8c1.5-1.7 3.2-2.9 4.9-4.5-2.2-1.1-4.6-2.1-6.8-3.1-3.2-1.5-2.3-3-.1-4.9l3-3.1c-1.5-.8-4.5-2.6-2.3-4.1 2.6-1.4 5.4-2.3 8.1-3.5.5-.2.8-.4.9-1 .2-.4.4-.7.8-1 3.5-3.1 6.9-6.2 10.3-9.4 2.1-2.2 4.8-4 6.7-6.4.2-.6 1-1 1.6-.7 4.3 1.3 8.5 2.8 12.8 3.8 2.1.2 9.8-4.9 9.6-.7-.2 1.8-.4 3.6-.6 5.5l9.5 3.6c1.4.3 2.1 2.2 1.2 3.3-1.2 2-2.6 3.8-3.9 5.7.9.6 1.8 1.1 2.3 2.1.1.2.3.3.5.4 1.4.6 2.7 1.5 4.2 1.7.7.1 1.3.8 1.2 1.5 0 .8-.4 1.4-1.2 1.4-.3 0-.5 0-.8.1-.9.4-1.6 1.2-2.2 1.9-1.1 1.5-2.8 2.2-4.4 2.9.2 2.7.4 5.1.6 7.8 0 1-.1 2.3-.9 3-.2.1-.5.2-.7.2-3 0-6 0-9-.4-1.1 3-2 6-2.9 9-.3 1.1-.4 1.2-1.5 1.3-1.1.6-2 .1-2.9-.4-2.3-1.1-4.5-2.4-6.8-3.5zm15.7-46c-8.3 3.1-16.1 7.1-24.3 10.5-6.8 3-13.7 5.8-20.6 8.9 4.1 2.3 8 3.8 12.3 5.2 8.9 3 17.9 6 26.6 9.5 1.5-11.5 3.7-22.8 6-34.1zm7.4 19c-3.3 4.3-6.2 8.4-9.4 12.7-1.2 1.2-1.3 2.7-1.6 4.2-.5 1.1-1.7 1.2-2.7 1-.6-.3-1.3-.1-1.7.4L46.2 57c-.3.4-.5 1.1-1.1 1.3-.4.2-.8.2-1.1 0-3-.9-6.1-1.6-9.1-2.3-6-1.5-11.7-3.8-17.6-5.8-.2 1.2-.2 1.2-1.2 1.9-1 .8-1.8 1.4-2.9 2.3.2.1 5-.3 5.3-.3 1.2-.1 1.5.1 1.9 1.3 1 .1 1.2.9 1.4 1.7.3 1.7.8 3 1 4.8 1.7-1.1 3.3-1.9 5.1-2.8.5-.3 1.1-.3 1.6 0 .6.3 1.3.3 1.6 1.1 1.2 2.2 2.3 4.5 3.8 6.5 1.5-2 3-4.1 4.5-6.1.4-.5.9-1 1.4-1.3 1.1-.5 1.5 1.1 2.5 1.3 1.5.7 5.4 2.6 7 3.4 1.3-3.3 1.3-7.6 3.9-10.1.4-.3 1.1-.2 1.7-.2 2.6 0 5.2.2 7.8.1v-.4l-.7-7.2c0-.4-.3-.7-.3-1.1 0-.6.3-1.1.8-1.3 2.5-1.1 4.3-2.5 5.9-4.7-1.6-1-3.3-2-4.6-3.7z"/></svg>