<svg width="80" height="80" fill="none" xmlns="http://www.w3.org/2000/svg"><path d="M64 65.83h3c2.18 0 4.35-.1 6.52-.11.398.061.785.18 1.15.35.162.07.329.127.5.17 1.35.16 2 1 1.92 2.63 0 .89-.07 1.77-.12 2.65-.1 1.62-.8 2.41-2.17 2.36-3-.12-5.92-.31-8.89-.39-2 0-4.06 0-6.09.08l-8.32.06c-3 0-6 0-9 .09-2.45.06-4.91.22-7.36.33-6 .26-12 .5-18.05.79-2.69.13-5.36.38-8 .54-.617.04-1.237.02-1.85-.06a2 2 0 01-1.62-2.13c0-1.28 0-2.57.16-3.85A2.58 2.58 0 018 67h6.5l.42-11.21-.14-.16a2.241 2.241 0 01-.14.39c-1.24 1.81-2.47 3.62-3.73 5.42a9.224 9.224 0 01-1.23 1.46 1.49 1.49 0 01-2.36-.07c-.43-.44-.89-.83-1.32-1.26a2.3 2.3 0 01-.39-2.9.8.8 0 00.11-.4 2.27 2.27 0 01.61-1.67c2.74-3.35 5.45-6.72 8.23-10a3.31 3.31 0 00.82-2.36c0-1 .06-2.06.11-3.09.06-1.31.67-2 1.77-1.83 2.34.26 4.67.54 7 .82.651.19 1.322.305 2 .34.67-.07 1.16.68 1.23 1.61.19 2.56.37 5.11.53 7.67.1 1.55.08 1.56 1.28 2.14.9.43 1.8.85 2.7 1.3a.57.57 0 00.71-.13 2.12 2.12 0 00.69-1.92c-.11-2.88 0-5.77-.19-8.64-.31-5.67-.73-11.32-1.11-17-.06-1-.14-2.06-.13-3.08 0-1.32.57-2.15 1.66-2.29 2.77-.37 5.51-1 8.32-.87a.58.58 0 00.43-.25A1.26 1.26 0 0144 18.5a1.64 1.64 0 011 1.57 67.17 67.17 0 01-.17 10.71 83.653 83.653 0 00-.26 9.92c.13-.107.253-.22.37-.34 2.34-2.94 4.673-5.893 7-8.86.136-.2.202-.439.19-.68-.1-4.19.21-8.36.44-12.54.13-2.31 0-4.66-.12-7a3.57 3.57 0 01.41-2.15A1.48 1.48 0 0154 8.39c1.41-.08 2.82-.21 4.23-.23 1.41-.02 2.61.09 3.91.13.21.01.42-.03.61-.12 1.2-.63 2.32 0 2.6 1.53a41 41 0 01.71 10.3c-.25 3.76-.46 7.51-.7 11.27a1.001 1.001 0 00.36.88c1.28 1.15 2.56 2.3 3.79 3.53.393.421.66.944.77 1.51a6.32 6.32 0 01-.19 3.34c-.4 1.08-1.1 1.42-2 1-.1 0-.22-.13-.3-.1-1 .44-1.82-.17-2.68-.59l-.38-.19C63.94 49 64.06 57.4 64 65.83zM57.86 35.2c-.83 1-1.66 2.07-2.46 3.14a1.65 1.65 0 00-.32.93c-.107 8.667-.2 17.333-.28 26v.71c.09 0 .13.07.16.06 1.9-.15 3.79-.31 5.69-.48.29 0 .42-.2.43-.57 0-1.91.07-3.82.1-5.73.06-3.33.06-6.65.17-10 .11-3.35.36-6.8.53-10.2a.9.9 0 00-.22-.63c-1.23-1.05-2.49-2.11-3.8-3.23zm-23.06-12c.88 8.72 1.39 17.33 1.45 26.08 1.72-1.74 3.34-3.4 5-5a1.529 1.529 0 00.46-1.24A122.11 122.11 0 0142.12 28c.18-1.82 0-3.69 0-5.63-2.45-.29-4.78.81-7.32.88v-.05zm17.39 19c-2.45 2.77-4.81 5.44-7.18 8.08a1.6 1.6 0 00-.4 1.15c.04 4.253.07 8.503.09 12.75 0 .64-.05 1.28-.08 1.87H52c0-7.88.11-15.76.19-23.76v-.09zm3.11-30.4c.52 5.32-.46 10.62-.39 16.14.36-.32.62-.53.84-.77.22-.24.5-.66.78-1a1.18 1.18 0 011.61-.17c.83.55 1.65 1.13 2.45 1.74.8.61 1.32 1.08 2 1.66.11-1.59.24-3.09.31-4.6.14-3 .32-6 .34-8.94a40.168 40.168 0 00-.42-4.52 23.761 23.761 0 00-7.52.55v-.09zM17.87 53.06l-.52 13.76 9-.37v-.26c-.19-2.74-.39-5.48-.57-8.23a.65.65 0 00-.4-.63c-1.63-.85-3.26-1.71-4.87-2.61-.86-.49-1.7-1.07-2.64-1.66zm23.9 1l-.32.33c-1.59 1.64-3.18 3.27-4.76 4.92a1.07 1.07 0 00-.21.64c0 1.56.1 3.11.1 4.67 0 .6.2.88.65.88h4c.47 0 .64-.22.63-.79 0-3.38 0-6.77-.06-10.16.01-.16-.01-.28-.03-.55v.06zM18.25 42.82c0 1.08-.07 2.08-.14 3.08a.59.59 0 00.39.68c1.86.88 3.72 1.78 5.58 2.68l1.16.56-.44-6.22-6.55-.78zM33.8 66.5l-.17-5.6-4.94-2.09.53 7.69h4.58z" fill="#000"/></svg>