<svg xmlns="http://www.w3.org/2000/svg" viewBox="0 0 80 80"><path d="M56.9 8.9c1.7.3 4.7.5 6.4.8 2.4.5 4 2.3 5.2 5 1 2.5 1.5 5.1 1.7 7.7.8 6.2.9 12.4 1.1 18.6.1 5 .4 10 .7 15.1.3 2.7 0 5.5.7 8.1.7 1.5 1.4 3.6-.7 4.2-5.6 1.1-11.3.6-16.9.9-6.3.3-12.6.6-18.8.9-4 .2-8.1.2-12.1.4-2.6.7-5.9-.2-6.3-3.2C14.3 56.2 11 45 7.2 33.9c-.5-1.5.2-2.7 1.4-2.8 3.1-.1 6.2-.4 9.4-.6 0-1.2-.1-2.2-.3-3.2-.4-3 .3-4.4 2.5-4.9 1.7-.4 3.5-.6 5.2-.9 7.5-1 15.1-1.8 22.4-3.9.5-.1.7-.4.9-1 .8-2.3 1.5-4.9 3.6-6.5 1.3-.9 3-1.3 4.6-1.2zM21 26.5c.2 4.8.2 9.6.3 14.4.5 4 .5 8.1.5 12.2s.1 8.1.1 12.2c0 .7.2.8.7.8 7-.6 14-1.7 21-1.8 8.4-.6 17-1.3 25.5-1.2-.9-13.9-.7-27.9-2.2-41.8-.1-2.3-.8-4.5-2-6.4-.4-.7-1-1.2-1.8-1.4-2.4-.2-4.9-.3-7.3-.4-1.3 0-2.4 1-3.1 2-.4.7-.7 1.4-.7 2.2-.2 2.2-1.1 3.7-2.7 4.1-5.8 1.3-11.7 2.8-17.6 3.6-3.6.6-7.2.8-10.7 1.5zM11 35l7.6 23.7c.1-4.8.3-9.5-.1-14.2-.3-3.3-.5-6.5-.5-9.8l-7 .3z"/><path d="M24.5 37.4c.5-2.3-.3-7.7 3-7.7 3.2-.1 6.5-.2 9.7-.3 3.9-.2 7.7-.9 11.5 0 .4.1.8.3 1.1.6.3.3.5.7.5 1.1.4 2.2 1.3 4.5.6 6.7-.8 1.9-2.9 3-4.8 3.1-3.9.4-7.9.7-11.8 1.1-2 .2-4 .5-6 .7-.9.1-2.1.1-2.8-.7-.9-1.3-.7-3.1-1-4.6z"/></svg>