<svg xmlns="http://www.w3.org/2000/svg" viewBox="0 0 80 80"><path d="M13 35.7c-10.4-1.1-9.8-11.5.3-12.2 0-1.1.1-2.3.1-3.4 0-.1-.1-.2-.2-.3-.4-.4-.5-1.1-.1-1.6 1.9-1.5 3.4-3.4 5.3-4.9 2.4-2.1 5.9-1.9 8.8-2.1 7.9-.5 15.7-1 23.6-1.4 1.9-.1 3.7-.1 5.6-.1.6 0 1.1.3 1.3.8 1.3 10.7 1 21.5 1.1 32.3 3.3-.4 6.6-.5 10-.8 1.7.1 6.7-1.2 6.2 1.6-1.7 2.3-22.6 25.4-24.8 28.2-.2.6-.8.9-1.4.9l-11.4-.3c-6.4-.4-19.5-.8-25.7-1-1.8-.2-3.7.2-5.4-.5-.6-.5-.6-1.4 0-1.9 1-1.1 2.1-2.2 3.1-3.3 1.3-1.4 2.6-2.9 4-4.3.5-.4.7-1.1.6-1.7-4.6.4-10.5-4.7-7-9.2 1.4-1.9 4-2.7 6.2-3.4L13 35.7zm3.4 21.2c1.4-.1 2.7-.5 3.8-1.2-1.2-.7-.8-2.5.3-3.1 1.4-.9 5.2-1 4.9 1.4-1.6 3.3-5.4 5-8.8 5.4l.2 4.1c10.4-.5 20.6-1.1 31-1.5.4 0 .6-.3.7-.6.1-.5.5-1.1.5-1.6 0-12.5.1-28 .1-40.6l-33.5.6v13.1c.9-.2 1.8-.6 2.5-1.1-.7-1.3-.3-2.2 1-2.6.8-.2 1.6-.4 2.3 0 1.5.7 1.1 2.9-.4 3.3-.2.1-.3.2-.4.3-1.1 1.8-3.2 2.2-5.1 2.9.2 7 .3 14.1.9 21.2zm35.3 1.3c1.5-1.9 3.4-3.6 4.7-5.7.2-3-.2-6-.2-9.1 0-9.6 0-19.3-.6-28.9-1.4 1.8-2.7 3.4-4 5.2-.3 1.1 0 2.3-.1 3.4.1 11.7.1 23.4.2 35.1zm2.8-46.1l-.1-.1c-6.1.2-15.3.8-21.4 1.2-3.2.2-6.3.4-9.4.6-.3.1-.5.2-.8.3-.4.1-.7.4-1 .4-.2 0-.5 0-.7.1-1.4.7-2.3 2.1-3.6 2.8l.1.2c6.4-.4 12.7-.3 19.1-.5 4.7-.1 9.3-.2 13.9-.4.2 0 .3-.1.5-.3 1.1-1.6 2.3-2.8 3.4-4.3zM13.1 25.8c-6.5 1-7.1 6.5 0 7.3v-7.3zm.2 23.7c-1.8.7-4.3 1.6-4.8 3.7 0 2.5 3.1 4 5.3 3.9l-.5-7.6z"/><path d="M32.3 36.5h-3c-.7.1-1.3-.4-1.6-1-.3-1.7-.2-3.4-.2-5.1 0-.8.6-1.6 1.4-1.8 5.1.1 10.3.3 15.4.3.8 0 1.5.7 1.5 1.5 0 1.5.6 3.2-.4 4.4-.5.6-1.2.9-2 .8-1.7.2-3.3.3-5 .4l-6.1.5z"/></svg>