<svg viewBox="0 0 80 80" fill="none" xmlns="http://www.w3.org/2000/svg"><path d="M35.53 6.68h2.12c.111.035.225.062.34.08a4 4 0 013.13 1.87 6.15 6.15 0 011.1 2.74l3.63.14a2.89 2.89 0 012.83 2.25c.23.72.44 1.44.64 2.12.477-.193.965-.36 1.46-.5a14.282 14.282 0 014.28-.1 1.38 1.38 0 011.28 1.06c.13.587.19 1.188.18 1.79 0 1.12-.1 2.25 0 3.36.2 4.07.46 8.14.7 12.2 0 .52.09 1 .13 1.47.622-.143 1.234-.33 1.83-.56.486-.29.945-.625 1.37-1 .136-.12.28-.23.43-.33 2-1.13 4-2.2 6-3.39a4.16 4.16 0 015.92 2c.23.67.4 1.35.6 2v.4a5.272 5.272 0 01-2.35 3.39c-.56.4-1.15.78-1.74 1.13a1008.997 1008.997 0 01-10.82 6.31.86.86 0 00-.52.94c.25 3.38.5 6.75.68 10.13.2 4.12.34 8.24.49 12.37a1.42 1.42 0 01-1.33 1.7c-1.03.15-2.07.23-3.11.24h-4c-3.83.13-7.67.28-11.5.44-.88 0-1.75.08-2.63.16-1.87.17-3.75.42-5.63.52-3.476.25-6.964.25-10.44 0-1.83-.15-3.71-.1-5.13-1.64a2.57 2.57 0 01-.87-1.46c-.18-1.68-.4-3.35-.48-5-.21-4.73-.37-9.46-.52-14.19-.13-4.14-.16-8.28-.34-12.42-.25-5.63-.09-11.25.14-16.87a2.86 2.86 0 012.53-2.42c1.07-.21 2.16-.3 3.25-.43l4.94-.55a9.893 9.893 0 010-1.22c.22-1.71.41-2.23 1.84-2.75 1.14-.41 2.31-.72 3.49-1 .44-.12.67-.26.73-.76a3.7 3.7 0 011.94-3.18c.73-.339 1.485-.616 2.26-.83a7.001 7.001 0 011.15-.21zm12.66 14h-.9l-2.71.32-7.49.74a56.659 56.659 0 01-10.58.08 1.068 1.068 0 00-.4 0c-1 .35-2.06.73-3.1 1.06a.59.59 0 00-.5.67v4.35c.13 6.26.24 12.52.41 18.79.12 4.24.32 8.48.5 12.72 0 1 .13 1.93.2 3l26-.24c-.33-3.86-.65-7.63-1-11.44l-.34.2c-2 1.17-4 2.36-6.07 3.52-.41.24-.83.42-1 .93a.67.67 0 01-.35.35 6.41 6.41 0 01-2.56.45c-.68-.08-1.35-.22-2-.32-1-.15-1.94-.25-2.89-.44a1.61 1.61 0 01-1.35-2.21c.5-1.75 1-3.48 1.57-5.22a1.78 1.78 0 011.1-1.11c.667-.28 1.333-.59 2-.93 3.55-1.82 7.08-3.66 10.63-5.46a1 1 0 00.68-1.14c-.1-4-.19-8-.18-12 .02-2.19.22-4.35.33-6.63v-.04zm7.27 26.16c-1.3.74-2.49 1.43-3.7 2.08a.74.74 0 00-.46.82c.4 4.26.78 8.52 1.17 12.77a2 2 0 01-1.9 2.26c-.49 0-1 .07-1.47.08-3.77 0-7.54 0-11.31.09-2.95 0-5.9.1-8.85.09-2 0-3.93-.11-5.9-.19-1.66-.06-2.09-.52-2.16-2.18 0-1.06-.14-2.12-.18-3.18-.21-5.22-.45-10.43-.61-15.65a727.34 727.34 0 01-.28-14.25c0-2.27.06-4.54.17-6.81a2 2 0 011.71-2.08c.78-.23 1.54-.5 2.32-.69.41-.11.43-.3.28-.65h-.69l-4.18.35c-.94.07-1.88.1-2.82.23-.77.1-.81.18-.79.94.12 6.06 0 12.12.26 18.18.28 5.87.26 11.76.47 17.63.13 3.62.43 7.22.67 10.84.06 1 .05 1.19 1.35 1.34 1.3.15 2.49.12 3.74.16 3.569.153 7.144.063 10.7-.27 3.163-.37 6.346-.54 9.53-.51.5 0 1 0 1.51-.06 3.743-.333 7.503-.457 11.26-.37.39 0 .79 0 1.32-.07l-1.16-20.9zm-4.74-8.1a.943.943 0 00.23-.06c1.18-.61 2.36-1.21 3.52-1.85a.64.64 0 00.2-.53c-.12-1.83-.33-3.66-.41-5.49-.18-4.31-.3-8.63-.44-12.94 0 0 0-.06-.06-.1-.56 0-1.13-.08-1.7-.1a1.409 1.409 0 00-.53.12c-.39.19-.77.41-1.22.66v.2a9.001 9.001 0 01.28 3.82v12.37c.01 1.33.09 2.62.13 3.94v-.04zM67.23 37c.77-.48 1.55-.91 2.28-1.41.356-.252.672-.556.94-.9a.84.84 0 00.19-.64c-.08-.43-.21-.85-.39-1.25a1.37 1.37 0 00-1.68-.65c-1.23.62-2.44 1.3-3.66 2L67.23 37zM35.88 14a1.91 1.91 0 002-1.82c0-1-.86-1.63-2.1-1.64a1.6 1.6 0 00-1.59 1.61c.05.98.54 1.85 1.69 1.85zm-1 39c.25 0 .43.09.61.1.89.09 1.78.13 2.66.25.45.06.54-.09.48-.49a4.4 4.4 0 00-1.18-2.5 4.14 4.14 0 00-1.1-.68.43.43 0 00-.42.15c-.32 1-.65 2.04-1.01 3.17h-.04z" fill="#000"/></svg>