<svg width="80" height="80" fill="none" xmlns="http://www.w3.org/2000/svg"><path d="M13 35.7a16.866 16.866 0 01-2.39-.5 16.707 16.707 0 01-3-1.39 5 5 0 01-1.39-6.76c1.22-2 3.17-2.84 5.31-3.36.572-.11 1.15-.19 1.73-.24 0-1.13.07-2.28.09-3.44 0-.1-.1-.2-.16-.28a1.17 1.17 0 01.4-1.92c.11-.06.207-.137.29-.23.57-.58 1.1-1.19 1.69-1.75.94-.9 1.9-1.77 2.86-2.63a6.291 6.291 0 012.83-1.49 35.649 35.649 0 016-.65c7.86-.53 15.73-1 23.59-1.43 1.61-.09 3.23-.1 4.84-.14.24-.02.48-.02.72 0a1.36 1.36 0 011.44 1.37c.18 1.85.37 3.69.49 5.54.51 8.46.47 16.93.5 25.4v.77c.62-.07 1.2-.17 1.78-.21 2.72-.19 5.45-.37 8.17-.54 1.26-.08 2.52-.14 3.78-.17a5.073 5.073 0 011.51.16 1.27 1.27 0 01.53 2.19c-.89 1-1.8 2-2.7 3L50.48 71.18a1.673 1.673 0 00-.33.47 1.39 1.39 0 01-1.45.87l-11.45-.34-11.12-.35-14.47-.44c-1.43 0-2.85-.07-4.27-.15a2.15 2.15 0 01-1.1-.36 1.22 1.22 0 010-1.9 764.417 764.417 0 013.1-3.34c1.34-1.43 2.65-2.91 4.05-4.28a1.63 1.63 0 00.56-1.67c-.53 0-1.07 0-1.6-.11a8 8 0 01-5.94-4.09 4.57 4.57 0 01.58-5A8.59 8.59 0 0110.55 48l2.67-.92L13 35.7zm3.37 21.19a9.8 9.8 0 003.85-1.17 1.41 1.41 0 01-.74-1.3 2.221 2.221 0 011-1.77 4.48 4.48 0 014-.26 1.46 1.46 0 01.61 2.26c-.36.518-.768 1-1.22 1.44a11.32 11.32 0 01-5.44 3l-1.88.35.24 4.08h.47c4.34-.24 8.68-.5 13-.73 5.827-.267 11.67-.53 17.53-.79.42 0 .6-.26.72-.63s.32-.89.48-1.34c.034-.1.055-.204.06-.31v-8c0-4.73 0-9.46.06-14.19l.09-17.21v-1.15l-33.47.64v13.11a6.559 6.559 0 002.52-1.13c-.74-1.26-.34-2.23 1-2.6.292-.082.59-.146.89-.19a2 2 0 012.36 1.26 1.93 1.93 0 01-1.38 2.19 1 1 0 00-.44.33 4.51 4.51 0 01-2.16 1.82c-.94.39-1.91.7-2.92 1.07.06 7.01.18 14.08.77 21.22zm35.29 1.26l.1.08c.06-.09.1-.19.17-.28 1.39-1.67 2.77-3.34 4.18-5a1.48 1.48 0 00.38-1.08c-.1-2.82-.24-5.65-.25-8.48 0-9.49-.08-19-.52-28.46 0-.12 0-.23-.06-.41-1.37 1.76-2.71 3.45-4 5.16a.93.93 0 00-.13.53c0 1 .07 1.92.07 2.88v17.16c0 5.907.017 11.817.05 17.73a.864.864 0 00.01.17zm2.8-46l-.06-.13c-1.29 0-2.58.09-3.87.16l-9.9.53-7.63.47a872 872 0 00-9.43.55c-.28.064-.55.168-.8.31-.35.13-.71.39-1 .35a1.56 1.56 0 00-1.31.41c-.9.75-1.78 1.51-2.67 2.26-.102.07-.213.123-.33.16l.12.15c1-.06 2-.16 3-.19 5.37-.11 10.74-.2 16.11-.32 4.65-.1 9.29-.24 13.94-.37a.8.8 0 00.46-.26c.51-.58 1-1.18 1.48-1.77.63-.75 1.26-1.46 1.89-2.27v-.04zM13.09 25.79a7.99 7.99 0 00-1.16.22 5.83 5.83 0 00-3.47 2.2 2.53 2.53 0 001 3.74c.608.316 1.24.583 1.89.8.586.153 1.18.273 1.78.36l-.04-7.32zm.21 23.73c-.761.26-1.503.574-2.22.94-.752.448-1.45.981-2.08 1.59a2 2 0 00-.29 2.34A5.42 5.42 0 0012.45 57a9.7 9.7 0 001.34.1l-.49-7.58z" fill="#000"/><path d="M32.27 36.45h-3a1.57 1.57 0 01-1.68-1.65c-.07-1.48-.17-3-.1-4.44a1.86 1.86 0 012.18-1.84c2.93.1 5.87.22 8.81.29h3.83c.64 0 1.28 0 1.91.08a1.52 1.52 0 011.5 1.51c.08.8.16 1.59.16 2.39a2.491 2.491 0 01-2.55 2.89c-1.65.17-3.31.27-5 .39l-6.06.38z" fill="#000"/></svg>