<svg xmlns="http://www.w3.org/2000/svg" viewBox="0 0 80 80"><path d="M35.5 6.7c.3 0 2.3 0 2.5.1 2.4.1 3.9 2.4 4.2 4.6 4.6.3 5.9-.7 7.1 4.5 1.8-.8 3.8-.8 5.7-.6.3 0 .6.1.8.3.7.6.6 1.7.6 2.5-.1 5.7.5 11.4.8 17 1.4-.2 2.6-1 3.6-1.9 2-1.1 4-2.2 6-3.4 1-.6 2.3-.7 3.4-.3 2 .6 2.9 2.8 3.1 4.7-.3 1.4-1.1 2.6-2.3 3.4-4.2 2.8-8.9 5-13 7.8.2 7.8 1 15.8 1.1 23.7-.5 1.7-3.1 1.1-4.4 1.3-6 0-12.1.2-18.1.6-5.3.7-10.6 1-16 .6-1.8-.1-3.7-.1-5.1-1.6-.4-.4-.8-.9-.9-1.5-.2-1.7-.4-3.3-.5-5-.5-14.5-1.4-29-.7-43.5.4-2.8 3.6-2.6 5.8-2.8l4.9-.6c-.1-1.7.1-3.5 1.8-4 1.1-.4 2.3-.7 3.5-1 .4-.1.7-.3.7-.8.1-2.7 3.1-3.8 5.4-4.1zm12.7 14c-.6-.1-3 .2-3.6.3l-7.5.7c-3.7.4-7.3.3-11 .1-1.1.4-2.2.8-3.3 1.1-.2.1-.3.4-.3.6.1 13 .3 25.9 1.1 38.9l26-.2c-.3-3.9-.6-7.6-1-11.4-2.1 1.2-4.2 2.5-6.4 3.7-.4.2-.8.4-1 .9-.6.8-2 .7-2.9.8-8.3-1.1-6.8-.8-4.7-8.2.5-1.3 2.1-1.4 3.1-2 3.7-2 7.7-3.7 11.2-5.9.3-6.5-.4-12.9.3-19.4zm7.3 26.1c-1.3.7-2.5 1.4-3.7 2.1-.3.1-.5.5-.5.8.4 4.3.8 8.5 1.2 12.8.1.8-.3 1.7-1.1 2.1-.7.3-1.5.2-2.3.3-6.7 0-13.4.1-20.2.2-2 0-3.9-.1-5.9-.2-1.7-.1-2.1-.5-2.2-2.2-.6-13.3-1.4-26.6-.9-39.9-.1-2.2 2.5-2.2 4-2.8.4-.1.4-.3.3-.6-2.2.1-5.6.4-7.7.6-.8.1-.8.2-.8.9.1 6.1 0 12.1.3 18.2.4 9.5.3 19 1.1 28.5.1 1 0 1.2 1.3 1.3 4.8.3 9.6.3 14.4-.1 3.7-.5 7.4-.5 11-.6 4.2-.5 8.4-.3 12.6-.4l-.9-21zm-4.8-8.1c1.2-.6 3-1.3 3.9-2.2 0-1.9-.3-3.9-.4-5.8-.2-4.3-.3-8.6-.4-12.9-.1-.2-1.3-.1-1.8-.2-.7 0-1.1.5-1.8.8.4 1.5.4 3.1.3 4.6.1 5.3 0 10.6.2 15.7zM67.2 37c1.1-.8 3.2-1.5 3.4-2.9-.2-.7-.3-1.6-1.1-1.9-.3-.1-.7-.1-1 0-1.2.6-2.4 1.3-3.7 2l2.4 2.8zM35.9 14c2.5 0 2.8-3.5-.1-3.5-2.2 0-2.1 3.5.1 3.5zm-1 39c1.1.2 2.2.2 3.3.3.4.1.5-.1.5-.5-.2-1.3-1.1-3-2.5-3.2-.7.9-.8 2.3-1.3 3.4z"/></svg>