<svg viewBox="0 0 80 80" fill="none" xmlns="http://www.w3.org/2000/svg"><path d="M56.9 8.88l3.59.46c.93.13 1.87.2 2.79.38 2.39.47 4 2.32 5.23 5a27.002 27.002 0 011.73 7.71c.76 6.17.93 12.36 1.07 18.57.12 5 .42 10 .65 15.08.11 2.35.25 4.71.4 7.06.052.347.157.684.31 1 .255.586.476 1.187.66 1.8A2 2 0 0172 68.38a30.901 30.901 0 01-4.24.6c-4.23.16-8.47.16-12.7.33-6.27.26-12.55.63-18.83.9-4 .17-8.07.23-12.1.37-.824.153-1.662.223-2.5.21a4.92 4.92 0 01-3-1.41 6 6 0 01-.83-2c-.59-1.84-1.14-3.7-1.71-5.54-1.9-6.127-3.81-12.257-5.73-18.39-1-3.2-2.07-6.37-3.13-9.54-.5-1.48.18-2.7 1.42-2.76 3.12-.14 6.23-.38 9.43-.58 0-.78-.05-1.34-.09-1.9-.04-.56-.11-.87-.16-1.3-.39-3 .27-4.4 2.5-4.93 1.73-.4 3.48-.64 5.22-.88 3.26-.46 6.52-.88 9.77-1.31a103.488 103.488 0 0012.59-2.62c.46-.12.69-.37.89-1a26 26 0 011.67-4.16A6.24 6.24 0 0155.16 9c.19 0 .38-.1.57-.15l1.17.03zM21 26.46v.77c.07 1.53.18 3.05.21 4.57.06 3 0 6.07.13 9.1 0 1.34.38 2.66.43 4 .09 2.72.08 5.45.11 8.17 0 4.07.1 8.15.13 12.22 0 .67.2.84.66.79 1.05-.12 2.11-.16 3.15-.27 3.54-.38 7.07-.84 10.61-1.16 2.42-.21 4.84-.21 7.25-.37 5-.32 10.09-.74 15.14-1 3.21-.16 6.43-.11 9.65-.15h.69c-.09-1.87-.17-3.63-.25-5.39-.25-5.36-.6-10.72-.71-16.08-.2-6.81-.42-13.58-1.2-20.31a13.82 13.82 0 00-2-6.45 2.76 2.76 0 00-1.81-1.39c-2.44-.17-4.87-.31-7.3-.4-.5.005-.99.143-1.42.4A4.86 4.86 0 0052 17.38c-.25 2.25-1.07 3.73-2.74 4.1-3.9.88-7.8 1.75-11.7 2.57-2 .41-3.94.74-5.91 1-2.76.37-5.52.64-8.27 1-.79.08-1.59.26-2.38.41zM11 35l7.65 23.65c.12-2.86.14-5.69.12-8.52a48.3 48.3 0 00-.19-5.66 71.093 71.093 0 01-.58-9.25v-.52l-7 .3z" fill="#000"/><path d="M24.5 37.38c.19-1.69.33-3.33.56-5 .27-1.87 1-2.6 2.4-2.65 3.23-.11 6.47-.17 9.7-.31 2.48-.12 5-.41 7.43-.46 1.363.026 2.72.166 4.06.42a2.07 2.07 0 011.64 1.76c.374 1.517.648 3.057.82 4.61a4.2 4.2 0 01-1.51 3.77 6.27 6.27 0 01-3.6 1.42c-3.94.4-7.89.74-11.84 1.13-2 .19-4 .47-6 .67a6.472 6.472 0 01-1.81-.07A1.83 1.83 0 0125 41c-.21-1.23-.34-2.43-.5-3.62z" fill="#000"/></svg>