<svg xmlns="http://www.w3.org/2000/svg" viewBox="0 0 80 80"><path d="M30.4 12.5c3.4-.4 5.3 3.3 4.6 6.3 1.6.5 3.2.8 4.7 1.2 1.3.3 2.7 1.3 4.1 1 .5-.2 1-.2 1.4 0 1.1.1 2-.9 3-1.3-.3-1.5-1.2-2.8-.7-4.3.6-1.2 2-1.8 3.3-2.1 2.1-.3 4.1.7 5.9 1.7 7.3 4.3 14.1 9.7 19.6 16.2 1.8 2.2 4.2 6.5 2.6 9.2-1.9 2.6-6.1 1.5-8.5.3-2 2.7-4.5 4.9-6.9 7.2-.2.2-.3.5-.2.7.9 2.4.5 5-.7 7.2-3.9 7.9-11.3 14.8-20.1 16.5-1.9.2-3.4-.7-5-1.7-1.4.9-3.2 1.2-4.8.8C23.8 70 18.1 62 14.9 54.2c-1.2-2.5-.5-5 .4-7.5l-4.2-4.9c-.3 0-1.5-.1-1.8.1-3.3 1.2-7.7.6-8-3.6.2-3.2 1.8-6.2 3.6-8.8 4.6-5.9 10.2-10.8 17-14.1 2.7-1.5 5.6-2.3 8.5-2.9zM17.3 44.6l3.1-1.2c.5-.2.9-.7 1.5-.7.4 0 .8.1 1.2.3l2.8 1.7c6.8 4 11.7 11.6 13.4 19.3.1.5.5 1 .5 1.5.1.8-.2 1.7-.1 2.5.9 2.8 5 1 6.9.3l-.7-.4c-.7-.5-1.8-.8-2.2-1.7-.3-.7.1-1.7.9-1.7 1.8.3 3.2 1.7 4.9 2.1.1 0 .3-.1.4-.2.2-.1 3.8-3 3.8-3.1-1.1-.6-2.1-1.1-3.3-1.5-.3-.1-.5-.3-.7-.6-.9-1.3.2-3 1.7-2.1 1.5.6 2.9 1.5 4.4 2 1.5-1.4 2.5-3.2 3.7-4.9-1.6-.4-3.5-1-4.5-2.3-.6-1.3.9-2.4 2.1-1.4 1 .7 2.2 1.1 3.4 1.2.4-1 .5-2.1.4-3.2-.1-.9-1-1.5-1.7-2l-9.6-8c-1-1-2.1-1.9-3.2-2.7-3.1 1.9-6.6 3.6-10.3 3.7-5 0-7.6-5.7-4.9-9.7 2.3-3.8 6.2-5.8 9.9-7.9-4.3-1.3-8.7-2.3-13-3.5-1.1-.3-2.3-.2-3.2.5-3.5 2.8-7.1 5.7-10.5 8.6-1.7 1.7-3.6 3.8-3.8 6.3 0 .4.2.8.4 1.1 1.8 2.7 4.1 5.3 6.3 7.7zM55 19.4c-.5.1-1.7.4-2.1.7-4.4 3.1-9.3 5.5-13.8 8.3-2.7 1.6-5.9 3.9-6.1 7.3-.1 2.2 2.6 3.4 4.5 2.9 4.9-.8 8.7-4.3 12.9-6.7.5-.3 1.3-.5 1.8 0 1.6 1.9-1.6 3-2.7 4-.5.4-.6.6-.1 1.1 1.1.9 10.7 9 11.7 9.5 2.3-2.4 4.9-4.5 6.9-7.1 1.2-1.6 2.6-3.7 3.8-5.4-1.9-2.4-3.6-4.7-5.9-6.8-3.3-2.9-7.3-5.5-10.9-7.8zM24 63.7c.9.8 1.8 1.6 2.7 2.3.4.3.8.6 1.3.2.5 0 1.1-.1 1.6-.3 2.4-1.4 4.1-3.9 4.9-6.5 0-.2 0-.3-.1-.5-.7-1.2-1.3-2.6-2.1-3.7-1.9 3.5-4.8 6.4-8.3 8.5zm3.7-14.2c-1.8 3.6-4.1 6.6-7.9 8.4l2.4 3.9c3.5-1.9 6.3-5.1 8.1-8.7.1-.2.1-.5 0-.6-.8-1.1-1.7-2-2.6-3zm-9.1 6.1c3.4-1.7 5.2-4.6 6.8-7.8-1.4-.7-2.5-2.1-4.1-2-1.2.2-2.3.9-3.1 1.9-1.9 2.4-.8 5.4.4 7.9zm17.6 7.2c-1.3 2.2-3.2 4.1-5.4 5.4 1.5.5 3 .6 4.5.5.4 0 .8-.2 1-.5.5-.6.3-1.4.5-2.1.2-1.3-.3-2.2-.6-3.3z"/></svg>