<svg viewBox="0 0 80 80" fill="none" xmlns="http://www.w3.org/2000/svg"><path d="M30.41 12.54h1.16c.051.04.109.07.17.09a4 4 0 012.95 2.66A5.83 5.83 0 0135 18.8l.45.14c1.43.35 2.86.67 4.27 1.06 1 .29 2 .71 3.08 1 .34.12.71.12 1.05 0a2 2 0 011.42 0 .92.92 0 00.54 0c.84-.42 1.66-.88 2.44-1.31-.27-1-.57-1.87-.78-2.8a2.37 2.37 0 011.07-2.64 5.4 5.4 0 014.76-.76c1.194.362 2.34.87 3.41 1.51a80.274 80.274 0 0111.57 8.22 61.787 61.787 0 018 7.94 13.53 13.53 0 013.11 6.76 3.3 3.3 0 01-2.57 3.89 10.17 10.17 0 01-6.41-1.1 34.145 34.145 0 01-4.78 5.2c-.68.68-1.38 1.34-2.08 2a.59.59 0 00-.17.72c.255.793.422 1.611.5 2.44a10.55 10.55 0 01-1.17 4.79 30.11 30.11 0 01-7.29 9.65 27.79 27.79 0 01-8.7 5.74 41.058 41.058 0 01-4.12 1.13h-1.27a6.632 6.632 0 01-1.41-.38c-.77-.37-1.49-.85-2.29-1.32a6.32 6.32 0 01-4.82.79 18 18 0 01-9.53-4.7C19.42 63.33 17 59 15 54.26a7.2 7.2 0 01-.53-4.41c.23-1 .59-2 .91-3.1l-4.18-4.86H9.79c-.12-.001-.238.02-.35.06a8.51 8.51 0 01-4.44.39A3.87 3.87 0 011.57 39c0-.22-.09-.44-.13-.66v-.73c.06-.28.1-.55.17-.82A20.12 20.12 0 015 29.56a42.205 42.205 0 014.17-4.7 39.733 39.733 0 017-6.05C18 17.63 20 16.57 22 15.5a22.233 22.233 0 015.09-2.19c1.08-.31 2.2-.51 3.32-.77zM17.29 44.63l3.09-1.23a1.15 1.15 0 00.36-.2A1.76 1.76 0 0123 43l2.82 1.72a17.54 17.54 0 014.81 3.75c.47.57 1 1.1 1.47 1.65A30.76 30.76 0 0139.24 64c.119.397.266.784.44 1.16.046.11.07.23.07.35a9.985 9.985 0 01-.11 1.82 1.77 1.77 0 001.43 2.08c1.93.32 3.63-.37 5.44-1.12l-.74-.44c-.56-.34-1.12-.66-1.65-1a1.42 1.42 0 01-.6-1.51 1.09 1.09 0 011-.89 2.86 2.86 0 011.17.37c1.12.53 2.21 1.09 3.32 1.64a.7.7 0 00.82-.11l3.49-2.77c.11-.09.2-.21.31-.32-.62-.31-1.19-.62-1.77-.89a14.317 14.317 0 00-1.52-.63 1.57 1.57 0 01-1-1.4 1.18 1.18 0 01.52-1.28 1.35 1.35 0 011.48 0c1.34.66 2.71 1.28 4.06 1.92a.45.45 0 00.63-.15c.4-.52.87-1 1.26-1.54.74-1 1.45-2.08 2.2-3.18L59 56a10 10 0 01-3.45-1.6 1.36 1.36 0 01-.63-1.4c.19-1 1.29-1.29 2.24-.6a7.83 7.83 0 003.44 1.2 6.47 6.47 0 00.4-3.18 2.11 2.11 0 00-.48-1 12.3 12.3 0 00-1.24-1l-9.65-8c-.97-1.01-2.05-1.91-3.22-2.68a25.542 25.542 0 01-5.72 2.81 13.43 13.43 0 01-4.6.89 6.17 6.17 0 01-5.62-3.87 6.81 6.81 0 01.72-5.8 15.08 15.08 0 014.94-4.92 8.577 8.577 0 001.74-1.14 4.19 4.19 0 011.66-.91c.52-.24 1-.57 1.61-.93l-.37-.17c-4.22-1.1-8.43-2.25-12.67-3.29a3.738 3.738 0 00-3.19.47c-3.55 2.82-7.08 5.66-10.5 8.63a14 14 0 00-3.62 5.15 2.16 2.16 0 00.21 2.21 40.3 40.3 0 003.73 4.8c.83 1.02 1.73 2.02 2.56 2.96zM55 19.36l-1.5.43a2.835 2.835 0 00-.57.23c-1 .69-2.07 1.43-3.15 2.07-3.56 2.09-7.14 4.13-10.7 6.21a16.68 16.68 0 00-4.93 4.11 5.3 5.3 0 00-1.15 3.2 2.51 2.51 0 00.74 1.89 4.061 4.061 0 003.79 1 15 15 0 005.79-2.19c2.41-1.45 4.74-3 7.12-4.52a2 2 0 011.12-.31 1.14 1.14 0 011.07.94A1.34 1.34 0 0152 34c-.8.59-1.62 1.16-2.44 1.72-.54.38-.56.65-.05 1.08l10 8.32c.52.43 1.09.81 1.66 1.23 1.69-1.65 3.36-3.24 5-4.89a20.095 20.095 0 001.87-2.25c.79-1 1.53-2.14 2.29-3.2l1.54-2.19c-.87-1.08-1.66-2.13-2.52-3.11A29.243 29.243 0 0066 27c-2.14-1.74-4.44-3.28-6.71-4.86-1.49-.99-3.01-1.92-4.29-2.78zM24.05 63.71c.93.8 1.81 1.57 2.71 2.32.37.32.76.63 1.26.18a.36.36 0 01.25 0 3.47 3.47 0 002.48-1.09 12.51 12.51 0 003.81-5.67.76.76 0 00-.06-.49c-.61-1.16-1.23-2.31-1.85-3.46a1.18 1.18 0 00-.22-.27 23.54 23.54 0 01-8.38 8.48zm3.68-14.24c-1.82 3.6-4.15 6.6-7.9 8.38l2.42 3.87a13.67 13.67 0 003.95-3A19.37 19.37 0 0030.32 53c.08-.17.13-.47 0-.58-.8-.98-1.68-1.93-2.59-2.95zm-9.16 6.16c3.37-1.73 5.25-4.61 6.84-7.83-1-.62-1.95-1.24-2.94-1.78a1.78 1.78 0 00-1.17-.18 4.88 4.88 0 00-3.06 1.86 5.54 5.54 0 00-.91 4.64c.31 1.1.81 2.15 1.24 3.29zm17.63 7.12a15 15 0 01-5.4 5.43c.477.154.965.275 1.46.36 1.014.138 2.038.181 3.06.13a1.55 1.55 0 001.4-1.67c.01-.335.043-.67.1-1 .18-1.2-.34-2.14-.62-3.25z" fill="#000"/></svg>