<svg xmlns="http://www.w3.org/2000/svg" viewBox="0 0 227 227"><path d="M197 177.2c-2.3 8.2-13.9 7.5-20.7 9.4-33 7.3-67 7.9-100.4 3.6-1.8-.1-3.6 1.1-4.2 2.9-2.5 4.9.9 10.3-.9 15.3-2 6.5-10 5.7-11.5-.3-2.3-6.5.2-13.1 1.8-19.5-32.9-3.8-39.2-23.3-3.1-30.5-7-15.6-1.5-22.8 7.4-35.4 3.9-7.5 2.9-16 .1-23.8-1.2-3.2 2.5-6.3 5.4-4.6 5 3.1 9.6 7 13.3 11.5 1.2-14.4 13.2-28.3 6.2-42.8-1.5-3.5-2.5-7.2-2.9-11-1-9.6 3.6-18.6 9.3-26 1.4-2.1 4.6-1.9 6 .1 1 1.4.7 3.2.3 4.8-1.7 6.3-1.6 13.3 2.9 18.5 7.9 10.8 15.5 23 14.7 36.9l.3.2c4.6-7.9 12.9-12.1 21-15.6 2.8-1.4 5.9.5 5.6 3.5-.5 2.9-3.9 4.2-4.4 7.2-3.4 8.5-3.6 18.7 1.4 26.5 1.2-1 1.9-2 3.2-2.7 2.7-.7 2-7.4 2.8-9.8.7-4.4 6.1-12.3 10.1-6.2.3.7.4 1.5.2 2.2-.9 2.6-.4 5.1.3 7.6 7.4 21.5 6.4 37.4-5.8 56.9 13.3 1.6 39.9 4 41.6 21.1zM134.6 83c-4.8 3.9-9.6 8.1-10.7 14.4-.5 3.3-2.6 3.7-5.5 4-3.2 1.1-5.2-1.9-5-4.8 0-12.2 0-23.2-7.4-33.6-3.4-5.7-8.2-10.6-10.7-16.9-.8 5 .4 10.2 2.4 14.8 9 19.9-9 34.8-5.8 55.6-.4 3 3.3 5.5.4 8.1-.3.3-.5.7-.6 1.2-.2 1.6-1.6 3-3.3 3.2-3.1.4-4.2-2.6-4.8-5.1-1.5-5.9-3.7-11.7-7.9-16.3 1.2 25.5-16.9 26-12.6 42.6 2.5 7.8 4.3 12.8 12.8 15.2.4.1.8.1 1.2-.1 3.9-1.9 7.6-4.2 10-8 2-2.7 4-8.3 8.2-6 1.3.8 2.1 2.4 2.3 3.9.1 3.6 2.1 5.9 4.7 8 6.2 5.3 9.3-3.4 11.9-7.9 1.4-2.8 4.2-3.4 6.5-1.3 2.1 2.5 2.9 5.9 5.7 7.9 6.6 5 8.7-2.6 13.6-4.8 1.1-.3 2.2.2 3.1.5 1.2-.7 2.7-1.1 3.4-2.1 10.7-13.7 14.9-31.5 9.1-48.1-1.8 4-5.2 5.8-8.6 8.1-4.2 2.5-8.8-1.7-10.3-5.6-4-8.8-4.6-17.5-2.1-26.9z"/><path d="M81.3 220.8c-4.3-1.6-5.2-5.6-4.5-9.9 1.2-5.2.5-12.8 5.4-16 2.2-.8 4.7 1 4.8 3.3 0 3.3.8 6.5 1.8 9.6 2.6 5.2-1.3 13.2-7.5 13zM146.9 46c-.1 3.8-.1 7.5-3 9.9-2.1 1.5-5.3.7-6.3-1.7-3.2-2-6.6-4-8.2-7.7-6-10.4-2.1-18.2.6-28.7.9-3.9 6-4.1 7.2-.6.8 2.4 1.9 4.6 3.2 6.6 4 6.9 6.3 14.5 6.5 22.2zm-7.6 1.3c0-6.2-1.5-12.3-4.5-17.8-2.9 6.5.5 16.1 4.5 17.8z"/></svg>