<svg width="80" height="80" viewBox="0 0 80 80" fill="none" xmlns="http://www.w3.org/2000/svg"><path d="M75.46 37.18c0 .21-.07.41-.08.61 0 1.48.05 3 0 4.42a35.106 35.106 0 01-1.51 8.56 9.14 9.14 0 01-2 3.54c-1.41 1.49-2.75 3-4.17 4.53a23.004 23.004 0 01-4.86 3.46 44.2 44.2 0 01-5.85 2.79 3.41 3.41 0 00-2.23 3c1.43.37 2.85.71 4.25 1.11a4.24 4.24 0 013 3 2.39 2.39 0 01-1.1 2.74 11 11 0 01-4 1.69 22.69 22.69 0 01-10.43-.06A13.57 13.57 0 0142 74.45a1.32 1.32 0 00-1.43-.1 27.461 27.461 0 01-8.63 2c-1.45.06-2.91.12-4.35.08a14.23 14.23 0 01-4.43-.87 5.41 5.41 0 01-2.3-1.56 2.529 2.529 0 01.07-3.61 9.13 9.13 0 015.16-2.7c.3-.06.33-.18.34-.41a5.59 5.59 0 00-2.22-5.06A64.072 64.072 0 0019.29 59a46.724 46.724 0 01-7-5 18 18 0 01-5-7.5 27.61 27.61 0 01-1.61-11.15 8.18 8.18 0 012.49-6c.334-.318.71-.588 1.12-.8a3.57 3.57 0 014.36.43 10.671 10.671 0 012.63 3.28A29.231 29.231 0 0118.7 38a31.76 31.76 0 001.51 3.64c.13.29.5.48.82.67a114.598 114.598 0 01-.23-15.51l-1.94 1.54c-.49.38-1 .77-1.46 1.13a1.46 1.46 0 01-2.47-.93c-.19-1.35-.26-2.72-.39-4.08a3.002 3.002 0 00-.15-.59c0-.11-.13-.23-.12-.33.09-.92 0-1.9.87-2.57 1.15-.87 2.28-1.76 3.44-2.61.61-.45 1.27-.82 1.88-1.26a13.77 13.77 0 012-1.5 53.139 53.139 0 005.19-3.11c3.3-2.1 6.5-4.32 9.75-6.5.32-.21.65-.41 1-.64.143-.124.273-.261.39-.41a5.76 5.76 0 01.62-.59c.59-.49 1.21-.9 1.79-1.35a1.649 1.649 0 012.38-.09c2.66 2.09 5.3 4.22 8 6.29 2.7 2.07 5.49 4.13 8.21 6.23 2 1.52 3.89 3.12 5.85 4.67.55.42 1.08.81 1 1.58-.08.77-.06 1.31-.1 2-.04.69-.08 1.39-.18 2.08-.086.485-.206.963-.36 1.43a2.93 2.93 0 01-1.36 1.42 1.21 1.21 0 01-.76.07c-.46-.07-.9-.21-1.42-.34 0 5.82-.72 11.58-.33 17.43a5.63 5.63 0 001.85-2.7 19.52 19.52 0 00.76-5.2v-3.66A7.72 7.72 0 0166 30a6.09 6.09 0 00.47-.77c.74-1.46 2.15-1.78 3.63-1.87a3.181 3.181 0 012.38 1.09 10 10 0 012.9 6c0 .14.06.29.09.43l-.01 2.3zM34.65 48.27v-1.22c0-.69-.13-1.37-.13-2 .047-3.333.107-6.667.18-10a1.43 1.43 0 011.53-1.33c2.21 0 4.43.06 6.64 0 1.462.136 2.937.042 4.37-.28.182-.035.368-.035.55 0a1.53 1.53 0 011.4 1.56c0 .75-.1 1.51-.07 2.27.09 2.09.25 4.19.35 6.28.08 1.8.11 3.59.16 5.41.09 0 .23-.09.36-.16 1.31-.73 2.63-1.44 3.92-2.18a10.12 10.12 0 013.54-1.47c.68-.09 1.36-.15 2.07-.23v-7c.1-3.74.26-7.49.4-11.24a.74.74 0 00-.33-.68c-2.09-1.52-4.11-3.11-6.25-4.56a67.219 67.219 0 01-9.25-7.8c-.37-.36-.72-.73-1.1-1.12-1.15.73-2.29 1.44-3.41 2.16a9792.957 9792.957 0 01-16.05 10.27.601.601 0 00-.23.43c-.07 3-.22 6-.17 9 .05 3 .3 5.77.49 8.65a.74.74 0 00.33.46 51.725 51.725 0 006.41 3.42 18.47 18.47 0 004.29 1.36zm7 11.75v-.76a9.23 9.23 0 00-6.85-8.45c-1.08-.31-2.18-.54-3.23-.92a46.636 46.636 0 01-8-3.83.92.92 0 00-.58-.13 1.28 1.28 0 01-1.7-.88c0-.11-.1-.3-.16-.3a2.64 2.64 0 00-1 .09c-.13.06-.19.46-.13.67a6.3 6.3 0 001.38 2.55 27.347 27.347 0 005.43 4.36 15.131 15.131 0 004.65 2.32c.54.14 1.1.2 1.65.32a1.08 1.08 0 011 1.18 1.1 1.1 0 01-1.2.92 12.07 12.07 0 01-1.57-.16 15.35 15.35 0 01-5.9-2.59c-1.52-1.1-3.08-2.14-4.51-3.34a9.62 9.62 0 01-3.33-4.91 3 3 0 01.46-2.68.58.58 0 000-.5c-.45-1-1-2.08-1.39-3.16a36.92 36.92 0 00-2.54-6.27A9.44 9.44 0 0012 30.7a1.16 1.16 0 00-1.38-.14A3.13 3.13 0 009 32.33a12.84 12.84 0 00-.77 3.24 25 25 0 001.77 11 13.998 13.998 0 002.46 4 33.003 33.003 0 007.3 5.82c1.86 1.17 3.73 2.34 5.54 3.58a7.61 7.61 0 013.31 4.5 9.66 9.66 0 01.09 4 4.12 4.12 0 000 1.88.36.36 0 00.22.23c.814.267 1.65.457 2.5.57a16.92 16.92 0 007.76-1.3c.28-.12.46-.23.39-.59a1.44 1.44 0 01.1-.7c.45-1.62.94-3.24 1.36-4.86a10.37 10.37 0 00.6-3.7l.02.02zm31.19-20.69c0-1.84.12-3.38 0-4.9A6.69 6.69 0 0070.63 30a1.4 1.4 0 00-1.86.15 7.35 7.35 0 00-1.55 4.39 60.463 60.463 0 01-.31 6.46 9.34 9.34 0 01-3.79 6.78.701.701 0 00-.23.51 5.61 5.61 0 01-1.07 3.5 21.686 21.686 0 01-2.38 2.51c-1 .95-2.18 1.82-3.28 2.72a1.37 1.37 0 01-1.16.35 1.15 1.15 0 01-.59-2c.834-.81 1.72-1.564 2.65-2.26a11.42 11.42 0 002.75-2.71 3.24 3.24 0 00.44-2.7.52.52 0 00-.39-.33 6.82 6.82 0 00-3.58.68c-2.13 1.17-4.27 2.33-6.43 3.45a5.48 5.48 0 00-2 1.62c-.5.68-1 1.37-1.46 2.08a7.37 7.37 0 00-1.58 4.49.83.83 0 01-.23.65 1.32 1.32 0 00-.44 1.07A2.868 2.868 0 0144 62c-.59 2.2-1.17 4.4-1.77 6.6a.65.65 0 00.13.69 5.79 5.79 0 002 1.35 11.7 11.7 0 007.3 1.1c.27 0 .38-.14.38-.43 0-.91 0-1.82.07-2.72A6 6 0 0156 62.87c1.73-.75 3.45-1.53 5.1-2.42a18.58 18.58 0 005-3.52c1.24-1.33 2.45-2.7 3.69-4a8.05 8.05 0 001.93-3.67 32 32 0 001.12-9.93z" fill="#000"/></svg>
