<svg viewBox="0 0 80 80" fill="none" xmlns="http://www.w3.org/2000/svg"><path d="M24.59 62.38c0-.79-.07-1.55-.08-2.32v-8.29a3.49 3.49 0 01.35-1 2.52 2.52 0 00.25-.71c.127-4.147.25-8.297.37-12.45 0-.68.07-1.37.1-2.1l-.6-.09a1 1 0 01-.87-.74 8.272 8.272 0 01-.3-1.56c-.08-1.32-.09-2.65-.16-4a4.08 4.08 0 01.62-1.94 1.24 1.24 0 011.1-.56l6.8-.62h.46c.06-.09.13-.16.13-.23-.14-1.77-.31-3.54-.42-5.31-.05-.8 0-1.6 0-2.4A1.1 1.1 0 0032 17a1.4 1.4 0 01-.32-.85 2.93 2.93 0 01.89-2.2c2.2-2.52 4.34-5.1 6.49-7.67a4.31 4.31 0 011.39-1.16 1.55 1.55 0 012 .29c1.16 1.17 2.3 2.36 3.46 3.54a2.48 2.48 0 001.23.83c.27.05.51.35.73.58 1.11 1.18 2.21 2.38 3.32 3.56.33.35.7.65 1.05 1a1.16 1.16 0 01-.07 1.95c-.16.13-.28.32-.45.44a2.42 2.42 0 01-.76.4c-.74.15-1.5.25-2.24.37.241 1.83.318 3.677.23 5.52 0 .71 0 1.42.06 2.19h4.85c1.35 0 1.82.49 1.89 1.82.09 1.65.15 3.29.23 4.94 0 .4.06.8.1 1.19a1.41 1.41 0 01-.29 1.2.79.79 0 00-.19.49c0 3.88-.1 7.76-.13 11.64v2.66c.7.22 1.35.39 2 .62.65.23.81.49.8 1.2 0 3.08-.09 6.17-.12 9.25v1.91c.63-.07 1.2-.15 1.77-.18a3.16 3.16 0 011 .09.91.91 0 01.65 1.13 7.87 7.87 0 000 3.24c.15 2.177.18 4.36.09 6.54A1.521 1.521 0 0160 75.1c-3 0-6 .08-8.93.1-1.06 0-2.12 0-3.19-.08a1.32 1.32 0 01-1.22-.62.74.74 0 00-.35-.28 1.3 1.3 0 01-.82-1.22 45.675 45.675 0 010-6.3c0-.71 0-1.42.07-2.16-2.88-.52-5.68-.25-8.52-.25-.019.17-.019.34 0 .51.08.55.24 1.09.27 1.64.09 2 .14 3.93.22 5.89a1.31 1.31 0 01-.75 1.45c-.09 0-.22.08-.26.16-.43.77-1.16.76-1.88.75-2.66 0-5.32-.05-8-.06h-4.79c-.236.02-.474.02-.71 0a1 1 0 01-.91-1.45c.049-.227.072-.458.07-.69 0-2.61 0-5.21.06-7.82a3.37 3.37 0 01.42-1.35c.2-.43.66-.51 1.08-.57l2.73-.37zm31.49-10.13c-9.76.19-19.45.11-29.12 0a4.93 4.93 0 00-.34 2.18c.06 1.59.09 3.19.14 4.78 0 .89.09 1.79.13 2.74h.8c1.7 0 3.41.07 5.11.08 1.19 0 2.39 0 3.59-.05a68.105 68.105 0 018.69.08c1.27.12 2.55.13 3.82.15h4.71c.746.026 1.492-.018 2.23-.13.08-3.26.16-6.5.24-9.83zm-2.41-24.13H44.9c-3.69 0-7.39.09-11.08.17-2 0-4.09.14-6.13.23-.63 0-1.25.12-1.94.19-.05 1.53.2 3 .24 4.47 1.14.08 2.2.17 3.26.23 2.55.15 5.09.3 7.64.43 1.51.08 3 .18 4.54.19 3.35 0 6.7-.25 10 .08a5.73 5.73 0 002.2-.28c.06-1.93.05-3.78.04-5.71zm-7.86 8.17l-8.81-.1c.09 4.65-.28 9.31.06 14h1.58l6.78-.2h.31c.38-.06.46-.22.39-.61a9.674 9.674 0 01-.2-1.49v-8.78c-.03-.93-.08-1.88-.11-2.82zm2.19-.11c.1 4.46.19 8.83.29 13.24h4.8c.133-4.4.26-8.773.38-13.12h-2.7c-.87 0-1.77-.07-2.77-.12zm-1.8-10.8v-1.71c0-1 .11-2 .17-2.92v-.88a2.47 2.47 0 01.47-1.79 91.313 91.313 0 00-9.48.08l.13 7.16h.49c2.23 0 4.46.08 6.69.1.51.03.99-.01 1.53-.04zm13.18 39.48h-.55a6.451 6.451 0 01-3-.31 1.27 1.27 0 00-.48 0h-3c-.116.015-.23.042-.34.08a.627.627 0 000 .2 42.35 42.35 0 01.35 7.38c.007.281.03.562.07.84 2.4-.26 4.72.09 7.11-.24-.12-2.72-.14-5.31-.16-7.95zm-24.79-14.8L34.88 36c-1.25-.08-2.46-.15-3.72-.18V37c0 2 .05 3.94 0 5.9-.05 1.96-.09 3.83-.13 5.74 0 .44 0 .88.05 1.27l3.51.15zM22.66 72.59l6-.36.06-7.38c-2.11 0-4.16-.54-6.3-.07.17 2.61-.02 5.22.24 7.81zM30.94 65c-.059.33-.095.665-.11 1 0 1.51.05 3 .12 4.53.054.585.144 1.166.27 1.74a37.48 37.48 0 004 0v-6.88a9.62 9.62 0 00-4.28-.39zm11-49.68l-1.57-7.23c-1 1.3-1.89 2.54-2.85 3.73-.96 1.19-2 2.3-3 3.5 2.467.163 4.943.157 7.41-.02l.01.02zM27.63 35.53v4.4c-.06 3-.15 6.06-.22 9.09v1.17l1.35-.12c.1-4.88.21-9.65.32-14.47l-1.45-.07zm22.31 37.55a53.26 53.26 0 00-.19-8.58l-2.1.09c0 2.85-.11 5.64.15 8.39l2.14.1zM47.8 15l.11-.16L43 9.38l-.11.07 1.36 5.69L47.8 15zm-12.74 9.9c.212-2.327.293-4.664.24-7a4.386 4.386 0 00-.47 0 3.624 3.624 0 00-.37 0c-.21 2.44.63 4.7.6 7.02v-.02z" fill="#000"/><path d="M56.08 52.25l-.24 9.88c-.738.112-1.484.156-2.23.13H48.9c-1.27 0-2.55 0-3.82-.15a68.107 68.107 0 00-8.69-.11c-1.2 0-2.4.06-3.59.05-1.7 0-3.41-.05-5.11-.08h-.8c0-.95-.1-1.85-.13-2.74-.05-1.59-.08-3.19-.14-4.78a4.93 4.93 0 01.38-2.21c9.63.12 19.32.2 29.08.01zm-2.41-24.13v5.68a5.729 5.729 0 01-2.2.28c-3.34-.33-6.69-.06-10-.08-1.51 0-3-.11-4.54-.19-2.55-.13-5.09-.28-7.64-.43-1.06-.06-2.12-.15-3.26-.23 0-1.5-.29-2.94-.24-4.47.69-.07 1.31-.16 1.94-.19 2-.09 4.09-.19 6.13-.23 3.69-.08 7.39-.13 11.08-.17h8l.73.03z" fill="#000"/></svg>