<svg xmlns="http://www.w3.org/2000/svg" viewBox="0 0 80 80"><path d="M24.6 62.4c-.1-3.5-.1-7.1-.1-10.6.1-.6.5-1.1.6-1.7.2-4.9.2-9.7.5-14.6-.6-.1-1.3-.2-1.5-.8-.5-1.8-.3-3.7-.5-5.6 0-.7.3-1.4.6-1.9.2-.4.7-.6 1.1-.6l6.8-.6h.5c.1-.1.1-.2.1-.2-.3-2.8-.5-5.5-.4-8.3-.1-.2-.2-.4-.3-.5-.5-.6-.4-1.4-.1-2 2.1-3 4.9-5.7 7.2-8.7.6-.7 1.5-1.5 2.4-1.4.4.1.7.2.9.5 1.2 1.2 2.3 2.4 3.5 3.5.3.4.7.7 1.2.8 1.5 1 2.7 2.9 4.1 4.1.4.5 1.1.9 1.4 1.4.3.5.1 1.2-.4 1.5-.8 1.1-2.3 1-3.4 1.2.4 2.6.1 5.1.3 7.7H54c1.3 0 1.8.5 1.9 1.8.1 2 .1 4.1.3 6.1.1.4 0 .9-.3 1.2-.1.1-.2.3-.2.5 0 4.8-.2 9.6-.1 14.3 1 .5 2.9.3 2.8 1.8 0 3.7-.1 7.4-.1 11.2 5.2-.8 2.7.9 3.4 4.3.1 2.2.2 4.4.1 6.5.1.9-.8 1.7-1.7 1.6-4.1 0-8.1.2-12.1 0-.5 0-1-.2-1.2-.6-.1-.1-.2-.2-.4-.3-.2-.1-.5-.3-.6-.5-.7-3-.2-6.2-.2-9.2-2.9-.5-5.7-.2-8.5-.2.3 2.7.4 5.4.5 8 .1.6-.2 1.2-.7 1.4-.1 0-.2.1-.3.2-.4.8-1.2.8-1.9.8-4.2 0-8.5-.1-12.8-.1-.7.1-1.7-.1-1.7-1 0-.4.2-.8.2-1.2 0-2.6 0-5.2.1-7.8 0-.5.2-.9.4-1.3s.7-.5 1.1-.6l2.6-.1zm21.2-26.1l-8.8-.1c.1 4.7-.3 9.3.1 14 1 0 7.2-.2 8.4-.2.4 0 .8-.1.7-.6-.6-4.4-.1-8.8-.4-13.1zm2.2-.1c.1 4.5.2 8.8.3 13.2h4.8c.1-4.4.3-8.8.4-13.1-2 0-3.5 0-5.5-.1zm-1.8-10.8c0-1.6 0-3.1.2-4.6 0-.9-.2-1.9.5-2.7-3.2-.1-6.3-.1-9.5.1l.1 7.2c2.9-.1 5.8.1 8.7 0zm13.2 39.5h-.5c-1.2.3-2.3-.3-3.5-.3-.2 0-3.3-.1-3.3.1.4 2.8.3 5.6.4 8.4 2.4-.3 4.7.1 7.1-.2-.2-2.8-.2-5.4-.2-8zM34.6 50.1l.3-14.1c-1.2-.1-2.5-.2-3.7-.2.1 4.7-.2 9.4-.1 14.1l3.5.2zM22.7 72.6l6-.4.1-7.4c-2.1 0-4.2-.5-6.3-.1.1 2.7-.1 5.3.2 7.9zm8.2-7.6c-.2 2.4-.1 4.9.3 7.3 1.3.1 2.7.1 4 0v-6.9c-1.4-.5-2.8-.6-4.3-.4zm11-49.7l-1.6-7.2c-1.9 2.6-3.7 4.8-5.8 7.2 2.5.2 5 .2 7.4 0zM27.6 35.5c.1 4.9-.2 9.7-.2 14.7l1.4-.1c.1-4.9.2-9.7.3-14.5l-1.5-.1zm22.3 37.6c.2-2.9.1-5.7-.2-8.6l-2.1.1c0 2.9-.1 5.6.1 8.4l2.2.1zM47.8 15l.1-.2L43 9.4l-.1.1 1.4 5.7 3.5-.2zm-12.7 9.9c.2-2.3.3-4.7.2-7h-.8c-.3 2.4.6 4.7.6 7z"/></svg>