<svg xmlns="http://www.w3.org/2000/svg" viewBox="0 0 80 80"><path d="M35.6 26.3c2.1-5.4 4.6-10.5 7.5-15.5.7-.9 1.6-2 2.8-2.2 1.2.3 2.3 1.1 3.4 1.6 1 .7 2.3.8 3.5.4.7-.3 1.3.2 2 .4.2.1.3.2.4.4.1.6-.2 1.2-.4 1.7-1.1 2.6-2.2 5.1-3.3 7.7-1.1 2.8-2.1 5.3-3.1 8 2.7.1 5.4-.4 8.1-.1.7.1 1.4.3 1.8.9.2.3.2.6.2.9-.1 2.3-.1 4.6-.1 6.8.6.1 1 .6 1.6.2.1 0 .2.1.3.1l1.3.8c.2 1.1.1 2.1-.2 3.2-.6 5-1.7 10-2.2 15 .7 1.5 1.7 3 1.6 4.8-.2 3.8-3.8 8-8.7 6.8-2.4-.9-4.2-2.3-5-4.9l-11.5.7c-2.3 12.7-18.4 6.3-14.9-4.8-.5-4.9-2.6-11.2-3.2-16.7-.2-1.1.1-3 1.5-3.1l1.5-.2c-1.3-2.5-2.5-5-3.3-7.7-.3-1 .5-1.4 1.3-1.8 3.2-2.1 7.2-4.8 10.4-6.9.4-.4 1-.2 1.4 0 .8-.2 1.2.3 1.7.8 1 1 2.3 1.9 3.6 2.7zM22.8 38.8c3.3-.3 6.6-.6 9.9-1-1.5-4.2-2.7-8.1-3.8-12.4-.1.1-.2.1-.3.2L21 30.5c-.5.3-1 .5-1 1.2 0 .2-.2.4-.4.6l3.2 6.5zm-.2 25c1.1 5.5 9.2 7 10.5.7-.1-2.1 0-2.7-1.2-5.1-.4-.3-.5-.8-.8-1.3-.2-.4-1-.6-1-1-1.8-.9-4-.1-5.8.8-.4.3-1 .6-1.2 1.1-.2.5.2 1.1 0 1.6.1.1-.5 3.2-.5 3.2zm18-32.6h.2c1.6-3.1 3.2-6.3 5.1-9.3.6-1.2 1.7-2.4 1.9-3.7 0-.3-.1-.7-.3-1-.9-1.7-1.6-3.3-2.5-5.1-2.9 5-5.4 10.2-7.7 15.5.8.8 1.9 1.2 2.8 2 .3.5.3 1.1.5 1.6zm8.8 29.9c0 .2.2 2 .2 2.1.4 1.6 1 2.4 3.1 2.9 2.6.6 5.5-1.1 6-3.8-.2 0 .1-.9 0-.9 0-.6-.3-.2-.4-.8 0-.5-.1-1-.3-1.5-.3-.9-1.2-1.3-1.5-2.1-.1-.3-.4-.5-.7-.6-2.7-1.3-5.5 1.5-6.2 3.9-.2.6-.7.7-.2.8zm6.8-24l.4-6.2c-3-.4-5.9.3-8.8-.2-.9 2-1.6 4.1-1.9 6.3l10.3.1zM31.3 26c.4 2.3 3.2 10.7 3.9 11.6l4.3-.4c-.2-1.6-.6-3.1-.8-4.6 0-.4-.2-.8-.4-1.1-.2-.3-.5-.6-.8-.9-2-1.5-4-3.1-6.2-4.6zm10.6 11.1l1.5-.1c1.3-5.3 3.4-10.3 5.3-15.4-2.7 4.2-4.9 8.7-7.2 13.1-.1.8.2 1.5.4 2.4zm9.5-23.9c-1.7-.2-2.9-1.2-4.4-1.8l2.6 4.9c.7-1 1.3-2 1.8-3.1z"/></svg>