<svg xmlns="http://www.w3.org/2000/svg" viewBox="0 0 80 80"><path d="M31.6 32.4c1-1.6 2-3.2 2.9-4.8.7-1.1 1.1-3.6 2.9-3.2.4.2.7.6 1 1 1.1 1.6 2.3 3.3 3.4 4.9 2.3-6.1 7.4-8.7 13.7-7.6 1.8.5 3.4 1.7 5 2.7 3.5 2.8 5.6 7.2 6.1 11.6h5.6c1 0 1.4.4 1.4 1.4.4 8 .6 15.9 1.3 23.9-3.9.6-10.5.8-14.5 1.1-3.9.4-7.9.1-11.7.9 0 .8.3 1.4-.1 2-.2.4-.7.5-1 .8-.3.4-.9.7-1.4.7-5.3.2-10.6.2-15.9.1-1 0-1.1 0-1.5-1 0-.1-.1-.2-.1-.2-1-.7-.7-2.1-.9-3.1-6.1-.3-12.2.3-18.2.5-.6 0-1.3.1-1.8-.1-.4-.1-.5-.6-.9-.7-.4-.2-.7-.7-.7-1.2-.1-1.7-.7-6.1-.8-7.7-.5-7 .2-14.1.1-21.1-.3-.9.2-1.5.9-2 7.1-6 14.2-12 22.1-16.9 1.9-1.2 2.2.9 2.2 2.4.2 5.2 0 10.4.6 15.5l.3.1zm40.1 6.9c-.3-.1-6.1 0-6.6-.1-1.8-.3-3.6-.3-5.4-.2-3.8.2-7.6.2-11.4.4 1.2 2.3 2.8 4.3 4.1 6.5.4.5.3 1.4-.3 1.7-.4.2-.6.6-1 .8-1.1.3-2.2 0-3.3.3 0 4.5.2 8.9.9 13.3 8.1-.8 16.1-1.1 24.2-1.7-.9-6.9-.9-13.9-1.2-21zm-7.4-2.7c-.6-5.1-4.1-10.1-9.1-11.7-3.4-.6-7.4.2-9.5 3.2-.5.6-.8 1.3-1.2 1.9-.8.9-.5 2-.7 3 0 .1.1.2.2.4 1 1.3 1.8 2.9 2.9 4.1 5.8-.3 11.7-.6 17.4-.9zM29.6 50.5c.8 5.1.4 10.3 1.1 15.5l4.3-.2c-.2-2.3-.4-4.3-.5-6.6-.1-.4 0-.8.2-1.1 1.1-1.6 3.6-1.4 5.3-1.2.7 0 1.3.7 1.3 1.4.4 2.5.3 5.1 1.1 7.6 1.4 0 2.9 0 4.3-.2-.8-5.7-1.1-11-1.1-16.7l-16 1.5zm-.9-33.2c-1.5.9-2.9 1.8-4.3 2.8-5.3 4.2-10.8 8.3-15.9 12.7 6.9-.3 13.7-1.1 20.6-1.3-.4-4.8-.5-9.4-.4-14.2zm-6.6 26.6c.2-3.2.1-6.5-.1-9.7l-6.8.5.6 9.5 6.3-.3zM8 35v9.3c1.8 0 3.6 0 5.4-.1l-.4-9.3-5 .1zm7.8 11.5c.3 2.5.3 4.9.6 7.3l5.6-.2c.1-2.5.2-5 .2-7.4l-6.4.3zM8 46.3c-.3 2.5-.2 5.1.1 7.6H14c-.2-2.5-.4-5-.6-7.4L8 46.3zm.2 9.9l.7 5.9 5.9-.6-.4-5.4H8.2zM24.3 34c.1 3.3.2 6.5.3 10 1.8-2.5 3.1-5.3 4.7-7.9.4-.6-.1-1.5-.2-2.2l-4.8.1zm-1.7 27.2l-.4-5.2h-5.5l.3 5.4 5.6-.2zm16.6-2.3c-.9-.2-1.8-.1-2.7.1.2 2.2.5 4.5.7 6.8h2.5c-.1-2.3-.3-4.5-.5-6.9zM27.9 56h-3.3c.1 1.8.2 3.5.5 5.3H28l-.1-5.3zm-.2-2.4c0-1.1-.2-2-.2-3.1l-3.4-.1.2 3.2h3.4z"/><path d="M64.4 49.9c-1-.1-2.1.3-2.9-.4-.3-.3-.5-.6-.5-1.1-.3-1.5-.3-3.1-.1-4.6.2-2.5 3.8-.9 5.3-1.8 2.9-1.5 2.6 4.4 2.4 6-.2 2-2.7 1.7-4.2 1.9zm1.9-2.5c.1-1 .1-2.1-.1-3.1l-3 .3c-.2 1-.1 2 .1 2.9l3-.1zm-16.5 8.4c.3-1.8-.3-4.3 2-4.3l3.3-.1c.7 0 1.3.1 1.5.9 1.1 1 1 2.4 1.1 3.7.3 3.4-4 2.6-6.3 2.9-.7.1-1.3-.3-1.5-.9-.2-.8 0-1.8-.1-2.2zm5.6.5c0-1-.1-1.9-.4-2.8l-2.7.2v2.7l3.1-.1z"/></svg>