<svg width="80" height="80" fill="none" xmlns="http://www.w3.org/2000/svg"><path d="M31.64 32.41c.15-.22.3-.44.44-.67.83-1.38 1.68-2.75 2.48-4.14.39-.67.66-1.41 1-2.08.214-.34.48-.644.79-.9a1 1 0 011.44 0 4 4 0 01.7.78c1 1.42 2 2.86 3 4.29l.44.59c.41-.81.78-1.55 1.16-2.29a9.82 9.82 0 017.56-5.28 13.4 13.4 0 015 0c.29.045.572.13.84.25a34.211 34.211 0 014.15 2.44 14 14 0 014.62 6.38c.096.282.213.556.35.82a9.12 9.12 0 011 3.62c0 .26.08.52.12.81h5.64c1 0 1.39.43 1.45 1.44.12 2.18.24 4.35.33 6.52.13 3.09.21 6.18.35 9.27.07 1.45.25 2.89.36 4.33.1 1.23.17 2.46.25 3.81-.5.08-1 .2-1.48.24-1.66.13-3.32.23-5 .35l-8 .54c-1.56.1-3.11.16-4.67.25-1.93.11-3.86.22-5.79.37a6.928 6.928 0 00-1.24.33c0 .47.07.84.1 1.21a1.2 1.2 0 01-.77 1.31.81.81 0 00-.38.26 1.56 1.56 0 01-1.4.66c-2.93.08-5.85.18-8.78.19-2.36 0-4.72-.09-7.09-.13-1 0-1.06 0-1.47-1a.48.48 0 00-.12-.21c-.72-.42-.68-1.16-.76-1.85-.05-.42-.08-.84-.12-1.29h-.44a89.386 89.386 0 00-9.26.1c-2.84.17-5.69.29-8.53.43H8.62a1.15 1.15 0 01-1-.46 1.33 1.33 0 00-.43-.35 1.29 1.29 0 01-.73-1.16l-.57-5.44c-.08-.75-.17-1.5-.22-2.25a107.74 107.74 0 010-12.32c.13-2.85.11-5.7.15-8.55a.64.64 0 000-.24c-.34-.94.19-1.46.85-2C11.72 27 17 22.94 22.26 18.84c2-1.6 4.3-2.95 6.48-4.37 1.06-.69 1.9-.29 2.08.95.057.478.083.959.08 1.44.07 3.85.12 7.69.23 11.53 0 1.33.22 2.66.33 4l.18.02zm40.1 6.91a7.952 7.952 0 00-.81-.06h-5.8a7.228 7.228 0 01-1-.12 5.996 5.996 0 00-.93-.14c-1.16 0-2.31.06-3.47.1-3.6.11-7.19.23-10.79.36-.21 0-.41 0-.65.06.017.093.044.183.08.27.85 1.34 1.71 2.67 2.56 4 .48.75 1 1.49 1.42 2.25a1.13 1.13 0 01-.35 1.71 1.597 1.597 0 00-.37.31 1.481 1.481 0 01-1.34.57c-.65 0-1.29 0-1.94.07-.196.025-.39.065-.58.12-.05 4.456.245 8.91.88 13.32H49c2.11-.21 4.22-.46 6.33-.63 1.53-.13 3.06-.12 4.59-.23 2.57-.17 5.14-.39 7.71-.56 1.31-.09 2.63-.11 4-.18.36 0 .73-.08 1.18-.14-.81-7.04-.81-14.04-1.07-21.08zm-7.39-2.68c0-.35-.06-.66-.09-1a11.273 11.273 0 00-1-2.86 13 13 0 00-3.49-5.23 17.379 17.379 0 00-4-2.5 2.261 2.261 0 00-.54-.15 11.467 11.467 0 00-3.92 0 7.67 7.67 0 00-5.54 3.2c-.47.6-.77 1.3-1.21 1.9-.76.9-.47 2-.73 3 0 .1.09.25.16.36.87 1.26 1.74 2.51 2.6 3.78a.72.72 0 00.74.35c.72-.06 1.45-.11 2.17-.15 2.49-.15 5-.33 7.47-.43 2.23-.1 4.45-.11 6.68-.17.235-.021.468-.055.7-.1zM29.59 50.47c.8 5.13.39 10.28 1.11 15.46l4.3-.22c-.08-1-.16-1.88-.23-2.78-.09-1.26-.23-2.52-.26-3.78a1.77 1.77 0 011-1.94 8.3 8.3 0 014.49-.43 1.37 1.37 0 011.25 1.37c.14 1.09.25 2.19.37 3.28.065 1.463.304 2.913.71 4.32a35.078 35.078 0 004.34-.17c-.31-2.86-.7-5.6-.88-8.36-.18-2.76-.16-5.5-.23-8.34l-15.97 1.59zm-.92-33.2a2.934 2.934 0 00-.37.19c-1.32.88-2.69 1.69-3.93 2.66-5.26 4.1-10.47 8.24-15.7 12.37-.09.098-.17.206-.24.32 6.92-.33 13.72-1.09 20.56-1.28-.11-2.36-.25-4.72-.3-7.08-.05-2.36-.02-4.72-.02-7.18zm-6.54 26.66a68.1 68.1 0 00-.13-9.74l-6.81.52.56 9.47 6.38-.25zM8 35v9.27c1.8 0 3.55 0 5.39-.12l-.35-9.29L8 35zm7.75 11.53c.29 2.49.33 4.89.61 7.33l5.64-.21c.08-2.54.16-5 .23-7.41l-6.48.29zM8 46.34a33.62 33.62 0 00.1 7.56H14c-.19-2.53-.37-4.95-.56-7.43L8 46.34zm.2 9.85l.72 5.94 5.88-.57-.4-5.37H8.2zM24.33 34c.11 3.33.22 6.55.34 9.95.158-.17.305-.35.44-.54A2685.52 2685.52 0 0029.36 36c.08-.13.2-.3.18-.43-.1-.6-.24-1.19-.36-1.8l-4.85.23zm-1.75 27.24l-.37-5.15h-5.53l.32 5.38 5.58-.23zm16.66-2.31a5.21 5.21 0 00-2.67.13c.25 2.24.49 4.46.74 6.77h2.47c-.1-1.16-.21-2.31-.3-3.45-.09-1.14-.16-2.28-.24-3.45zM27.85 56h-3.34c.075 1.76.24 3.516.49 5.26h2.86L27.85 56zm-.12-2.39c0-.59-.08-1.09-.11-1.59s-.05-1-.08-1.51l-3.39-.14.2 3.24h3.38z" fill="#000"/><path d="M64.45 49.91h-1.77A1.57 1.57 0 0161 48.49a14.74 14.74 0 01-.12-4.64c.12-1 .5-1.31 1.47-1.39.97-.08 1.88-.06 2.81-.13a2.54 2.54 0 001-.29 1.221 1.221 0 011.92.54c.309.714.498 1.474.56 2.25.05 1.058.006 2.12-.13 3.17a1.78 1.78 0 01-1.59 1.68c-.81.13-1.65.16-2.47.24v-.01zm1.83-2.47a9.478 9.478 0 00-.08-3.06l-3.05.29a7.17 7.17 0 00.12 2.91l3.01-.14zm-16.46 8.34c.1-1.11.12-1.94.25-2.76.18-1.13.6-1.48 1.72-1.52l3.3-.11c.69 0 1.29.11 1.52.88 1.12 1 1 2.38 1.06 3.67a2.29 2.29 0 01-2.32 2.62c-1.31.13-2.63.19-3.94.23a1.4 1.4 0 01-1.58-1.59c-.01-.57-.01-1.13-.01-1.42zm5.56.48a7.85 7.85 0 00-.44-2.83l-2.68.23v2.74l3.12-.14z" fill="#000"/></svg>