<svg viewBox="0 0 80 80" fill="none" xmlns="http://www.w3.org/2000/svg"><path d="M35.63 26.34c.57-1.38 1.09-2.67 1.63-3.95 1.74-3.98 3.713-7.853 5.91-11.6a6.39 6.39 0 012.12-2 1.29 1.29 0 011.35 0c.92.46 1.86.89 2.75 1.39a4 4 0 003.48.43c.71-.26 1.33.15 2 .38a.8.8 0 01.38 1 5.679 5.679 0 01-.35 1.13c-1.09 2.56-2.24 5.1-3.3 7.68-1.06 2.58-1.95 5-2.92 7.5a5.517 5.517 0 00-.16.54c.332.04.666.06 1 .06 1.34-.07 2.68-.2 4-.23 1 0 2.1 0 3.15.06a3.26 3.26 0 011.06.28 1.43 1.43 0 01.94 1.49c-.06 2-.08 4-.12 6v.83c.56.11 1 .62 1.63.25.07 0 .24.07.35.13l1.3.77a7.931 7.931 0 01-.17 3.18c-.49 3.44-1 6.87-1.55 10.3-.2 1.33-.41 2.65-.63 4a1.658 1.658 0 00.29 1.32A8.39 8.39 0 0161 60.3c.096.382.133.777.11 1.17-.35 3.43-2.61 7-7.34 7a3.64 3.64 0 01-1.32-.19c-2.18-.84-4.06-2-4.82-4.42 0-.13-.1-.24-.19-.45L35.57 64c-.07.216-.124.436-.16.66a8.07 8.07 0 01-2.66 4.82 6 6 0 01-5.17 1.37 8.27 8.27 0 01-5.51-3.08 7.85 7.85 0 01-1.83-5.09 11.929 11.929 0 01.39-3.52 2 2 0 000-.93c-.78-3.57-1.59-7.13-2.34-10.71-.35-1.68-.56-3.38-.87-5.06a3.67 3.67 0 01.46-2.46 1.26 1.26 0 011.06-.6l1.52-.21c-.17-.33-.29-.62-.43-.88a43.608 43.608 0 01-2.68-6.06c-.1-.243-.18-.494-.24-.75a1.18 1.18 0 01.73-1.5 3.6 3.6 0 00.54-.31L23 26.65l4.9-3.32.86-.56a1 1 0 011.12-.11c.09 0 .2.13.28.11.77-.17 1.23.34 1.71.78a23.76 23.76 0 003.76 2.79zM19.31 41.45c1.11 5.08 1.93 10.09 3.28 15.06a11.19 11.19 0 014.69-1.84 5.75 5.75 0 015.08 1.6 2.56 2.56 0 01.89 1.73.79.79 0 00.25.45 5.79 5.79 0 011.43 2.42c.1.29.22.58.33.86l12-.55a6.82 6.82 0 01.74-2.89 9.3 9.3 0 013.65-3.63 4.6 4.6 0 013.12-.56c.49.08 1 .23 1.46.32.46.09.71.1 1.09.15 0-.22.07-.34.1-.47.85-4.33 1.16-8.76 2.16-13.07a.881.881 0 00-.22-.77 2.061 2.061 0 00-1.73-.75c-2.63-.09-5.26-.22-7.89-.23-2.85 0-5.69 0-8.53.14-1.65.06-3.31.21-5 .36-3.64.34-7.28.69-10.91 1.08a6.999 6.999 0 00-2.78.43.83.83 0 01-.54 0 8.82 8.82 0 00-2.67.16zm3.48-2.62c3.32-.34 6.6-.57 9.88-1-.71-2.13-1.44-4.13-2.06-6.16-.62-2.03-1.15-4.14-1.72-6.25a2.438 2.438 0 00-.34.18l-7.63 4.89c-.47.3-1 .54-1 1.2 0 .18-.2.35-.35.59l3.22 6.55zm-.16 25a6.11 6.11 0 005.47 4.8 3.882 3.882 0 002.9-.7 5.8 5.8 0 002.09-3.35 1.42 1.42 0 000-.46c0-.22-.09-.44-.09-.65 0-1.53-.11-1.95-1.08-4-.41-.3-.52-.82-.77-1.26-.25-.44-1-.57-1-1a3.66 3.66 0 00-2.26-.38A10 10 0 0024.4 58c-.266.172-.52.363-.76.57a1.08 1.08 0 00-.41 1.25c.09.297.09.613 0 .91l-.6 3.1zm17.93-32.58h.16l.22-.41c1.52-3 3.12-6 4.92-8.9.56-.92 1.09-1.86 1.63-2.79a1.76 1.76 0 000-1.92c-.47-.79-.81-1.65-1.22-2.48-.41-.83-.8-1.65-1.27-2.61-2.853 5-5.414 10.163-7.67 15.46a12.478 12.478 0 002.4 1.64.94.94 0 01.57.8c.07.4.17.81.26 1.21zm8.82 29.89c0 .18.22 2 .2 2.13.38 1.64 1 2.44 3.11 2.9a5.19 5.19 0 003.66-.58 4.78 4.78 0 002.3-3.18c-.18 0 .06-.89 0-.89 0-.57-.32-.22-.37-.79a3.751 3.751 0 00-1.18-2.67 1.81 1.81 0 01-.67-.93 1.12 1.12 0 00-.67-.58 3.43 3.43 0 00-3.59.4 12.448 12.448 0 00-1.9 1.87 7.857 7.857 0 00-.73 1.64c-.13.4-.6.54-.16.68zm6.79-24l.38-6.23c-3-.35-5.9.32-8.77-.17A24.26 24.26 0 0045.86 37l10.31.14zM31.34 26c.37 2.28 3.16 10.67 3.86 11.63l4.32-.41c0-.22 0-.37-.05-.52-.25-1.37-.54-2.74-.75-4.11a2.68 2.68 0 00-1.17-2c-2.08-1.47-4.1-3.04-6.21-4.59zM41.9 37.12l1.5-.12c1.26-5.34 3.44-10.27 5.28-15.44a1.64 1.64 0 00-.22.24c-1.07 1.87-2.17 3.72-3.2 5.61-1.29 2.4-2.53 4.84-3.78 7.26a.7.7 0 000 .45c.09.66.24 1.27.42 2zm9.54-23.93c-.63-.16-1.15-.25-1.64-.43-.46-.194-.907-.414-1.34-.66a5.602 5.602 0 00-1.46-.7l2.58 4.93a19.279 19.279 0 001.86-3.14z" fill="#000"/><path d="M19.31 41.45a8.822 8.822 0 012.69-.14.83.83 0 00.54 0 6.999 6.999 0 012.78-.43c3.63-.39 7.27-.74 10.91-1.08 1.65-.15 3.31-.3 5-.36 2.84-.09 5.68-.16 8.53-.14 2.63 0 5.26.14 7.89.23a2.061 2.061 0 011.73.75.88.88 0 01.22.77c-1 4.31-1.31 8.74-2.16 13.07 0 .13-.06.25-.1.47-.38 0-.74-.08-1.09-.15-.35-.07-1-.24-1.46-.32a4.6 4.6 0 00-3.12.56A9.3 9.3 0 0048 58.29a6.82 6.82 0 00-.75 2.87l-12 .55c-.11-.28-.23-.57-.33-.86a5.79 5.79 0 00-1.43-2.42.79.79 0 01-.25-.45 2.56 2.56 0 00-.89-1.71 5.75 5.75 0 00-5.08-1.6 11.19 11.19 0 00-4.69 1.84c-1.34-4.97-2.16-9.98-3.27-15.06z" fill="#000"/></svg>