<svg xmlns="http://www.w3.org/2000/svg" viewBox="0 0 80 80"><path d="M21.7 19.8l-1.5.1c-.3.1-.5 0-.8-.1-.4-.2-.4-.6-.6-.9-.6-.4-.6-1-.6-1.6 0-1.6.1-3.2 0-4.8 0-1 .7-2.3 1.8-2.4 14-1.2 28.1-1.5 42-1.5.9.2 1.1.4 1.2 1.3.3 2.1.4 4.2.6 6.4 0 2.8-2.7 2-4.6 2.3v2.7c.4 3.5-1 7-3.6 9.4-1.8 2-4.3 3-6.5 4.3-1 .6-2.2 1.3-2.5 2.5-.2.5 0 .7.5.8 1.7.3 3.6.2 5.1 1.3.7.5 1.5.9 2.2 1.3 5.1 4.4 4 12 4.8 18.1 1.6-.3 3.1-.2 4.8-.2.4 0 .8.3.8.7.3 2.6.3 5.3.4 8 .1.6 0 1.3-.6 1.5-3.7 1.4-7.7.9-11.5 1l-18.5.3c-4.3.1-8.6.4-13 .3-.3.1-.7 0-1-.3-.5-.4-.5-1-.5-1.5v-6.5c-.2-1.7 1.1-1.6 2.3-1.9-.4-3.5-.1-7-.1-10.5.5-3 .9-6.4 3.4-8.5.7-.7 1.6-1.3 2.4-1.9 2-1 4.5-.8 6.5-1.7-.2-.8-1.2-1-1.9-1.2-5.1-.7-9.2-5-10.5-9.9-.7-2.2-.5-4.4-.5-6.9zm2.5 40.4c10.9-.3 22-1.1 32.9-1-.1-1.6-.5-6.4-.6-8.1-.4-3.1-1-6.8-3.7-8.7-1.2-.7-2.4-1.7-3.9-1.7-2.8-.1-5.4-1.1-4-4.4.9-2.1 3.1-3.1 5.1-4.1 2-.9 3.8-2.3 5.2-4 1.9-2.2 2.6-5.6 2-8.4-.3-.3-.5-.8-.4-1.2-7.3-.2-14.5.3-21.7.9-3.8.2-7.5.2-11.3.4 0 2.7-.2 5.5.9 8 .9 1.9 2.2 3.6 3.8 4.9 1.1.9 2.4 1.5 3.8 1.8 1.8.2 3.6.9 4.3 2.7 1.6 3.5-5.4 3.5-7.4 4.3-3 1.2-4.3 4.1-4.6 7.2-.8 3.6-.4 7.5-.4 11.4zm-1.5 8.4c4.5.1 9.1-.3 13.6-.4 8.9-.4 17.8.2 26.7-.5v-6.9c-1.2-.1-2.1.1-3.2.4-6 0-11.9.1-17.9.3-6 .2-13.2.6-19.2.8-.7 0-.8.2-.8.9.1 1.8-.2 3.7.8 5.4zm39.1-52.3c-.1-2-.2-3.9-.3-5.9-12.4.3-24.8.6-37.1 1.3-1.2.1-2.4.2-3.6.4-.5.1-.5.2-.5.6 0 1.7.1 3.4.1 5.2 7.2-.4 14.4-.4 21.5-1.1 6.7-.5 13.3-.1 19.9-.5z"/><path d="M37.9 35.1c-1.8-1.2-4-1.6-5.9-2.5-2.7-1.2-4.2-3.8-5.4-6.4-.5-.9-.7-1.9-.6-2.9 0-.7.5-1.6 1.3-1.7 1.2-.2 2.5-.3 3.7-.4 5.4-.4 10.8-.4 16.2-.6 1.8-.1 3.5-.2 5.2-.3 1-.2 2 .7 2 1.7-.1 6-6.3 9.2-10.9 11.7-.1 3.9.3 8 .4 11.9.2 1.6-.2 3.4.1 4.9.1.2.3.3.5.4 2 .9 3.9 1.9 5.8 3.1 1.6.9 3.2 1.6 4.8 2.4.2.1.3.3.4.5.3.6-.2 1.4-.9 1.4-2.4.3-4.7.4-7.1.3-5.2.1-10.4.2-15.6.2-1.3.1-2.7-.2-3.9.2-.6.3-1.2.2-1.5-.4-.3-.5-.1-1.2.5-1.5 3.3-2.3 7.1-3.7 10.5-5.8.3-.2.4-.5.4-.8V45c0-3.2.4-6.6 0-9.9z"/></svg>