<svg width="80" height="80" viewBox="0 0 80 80" fill="none" xmlns="http://www.w3.org/2000/svg"><path d="M21.71 19.84l-1.5.09a1 1 0 01-1.21-.72.49.49 0 00-.12-.26c-.6-.41-.58-1-.57-1.64 0-1.61.05-3.21 0-4.82a2.759 2.759 0 011-2.08 1.61 1.61 0 01.8-.29 45.835 45.835 0 015.74-.5c6.39-.26 12.78-.59 19.17-.8 5.35-.17 10.7-.2 16-.29.315-.015.63.005.94.06.86.15 1.12.43 1.22 1.28.08.68.16 1.36.22 2 .12 1.46.2 2.92.35 4.37a2.29 2.29 0 01-.78 1.8 1.52 1.52 0 01-.93.33c-.65.07-1.31.05-2 .08-.31 0-.62.05-.93.08a26.42 26.42 0 000 2.67 11.71 11.71 0 01-1.13 6.17 13.387 13.387 0 01-2.47 3.23 12.838 12.838 0 01-3.33 2.58c-1.07.58-2.17 1.11-3.22 1.72-.659.362-1.276.794-1.84 1.29-.33.35-.572.77-.71 1.23-.17.48 0 .74.53.84.65.12 1.3.22 2 .28a6.37 6.37 0 013.08 1c.71.47 1.45.9 2.16 1.35a6.59 6.59 0 012.3 2.87 19.271 19.271 0 011.88 6.85c.13 1.77.28 3.54.42 5.31.08 1 .16 2 .25 3.07.57-.06 1.11-.15 1.66-.17h3.12a.83.83 0 01.82.71c.08.378.12.764.12 1.15.11 2.28.2 4.56.29 6.85a4.7 4.7 0 010 .65 1 1 0 01-.61.85c-.49.208-1 .369-1.52.48-1.17.21-2.35.38-3.53.52-.344.01-.688 0-1.03-.03h-5.47c-6.153.08-12.303.18-18.45.3-2.51 0-5 .21-7.51.29h-5.47A1.27 1.27 0 0120 69.45c-.02-.22-.02-.44 0-.66V62.3a3.719 3.719 0 010-.58 1.09 1.09 0 01.87-1l1.41-.29c-.096-.663-.16-1.33-.19-2 0-2.82.07-5.64.12-8.46.022-.388.08-.773.17-1.15.22-1.07.41-2.15.7-3.2a8.05 8.05 0 012.48-4.2A12.184 12.184 0 0128 39.56a9.381 9.381 0 012.71-.78c1.13-.15 2.24-.45 3.35-.69.16-.057.315-.13.46-.22a1.27 1.27 0 00-.8-.84 4.398 4.398 0 00-1.11-.32A11.55 11.55 0 0125 32.27a13.43 13.43 0 01-2.9-5.43 14.846 14.846 0 01-.39-2.73c-.05-1.38 0-2.77 0-4.27zm2.47 40.36h.73c1.94-.08 3.88-.17 5.83-.24 1.43-.06 2.87-.06 4.3-.12 3.57-.16 7.14-.4 10.71-.51 3.57-.11 6.86-.11 10.29-.15h1c-.07-.83-.12-1.55-.18-2.27l-.45-5.81a17.922 17.922 0 00-1.6-6.18 5.33 5.33 0 00-2.1-2.54c-.59-.34-1.17-.69-1.74-1.06a4.621 4.621 0 00-2.13-.69c-.725-.06-1.446-.16-2.16-.3A2.61 2.61 0 0144.54 37c.062-.26.146-.514.25-.76a6.42 6.42 0 013-3c.67-.39 1.38-.72 2.08-1.06a15.29 15.29 0 005.22-4 8.829 8.829 0 001.68-3 12.92 12.92 0 00.42-5.06c0-.11 0-.27-.1-.33a1.38 1.38 0 01-.37-1.25h-2.05c-3.84 0-7.69 0-11.52.29-2.72.18-5.43.45-8.15.57-3.57.16-7.14.22-10.72.33l-.55.06c0 .2-.05.35-.05.49 0 1.31.06 2.63.11 3.94a9.091 9.091 0 00.89 3.58 13.76 13.76 0 003.82 4.91 8.43 8.43 0 003.78 1.76c.48.09 1 .15 1.43.27a4 4 0 012.86 2.38 1.649 1.649 0 01-.81 2.44c-.235.176-.49.324-.76.44a21.29 21.29 0 01-4.25 1 6.676 6.676 0 00-1.54.38A7.882 7.882 0 0026.86 43a6.11 6.11 0 00-1.79 3.18c-.21.78-.35 1.57-.51 2.35-.129.52-.219 1.047-.27 1.58-.17 2.91-.23 5.83-.11 8.75.01.4 0 .84 0 1.34zm-1.48 8.35h3.45c3.38-.12 6.75-.34 10.13-.41 5.66-.11 11.33-.15 17-.2h5.76a38.6 38.6 0 002.1-.06c.63 0 1.24-.14 1.83-.21V60.8h-1.53c-.34.045-.675.122-1 .23-.215.09-.44.153-.67.19h-5.61c-4.093.08-8.177.187-12.25.32-3.91.13-7.82.32-11.73.48l-7.5.28c-.66 0-.79.21-.77.86 0 1.21.08 2.43.13 3.64.01.213.058.423.14.62.15.39.33.72.52 1.13zm39.06-52.24c-.11-2-.21-3.91-.31-5.88h-.66c-.88 0-1.75.09-2.63.11-3.86.1-7.73.18-11.6.3-3.5.1-7 .21-10.5.36a994.29 994.29 0 00-11.73.57c-1.19.07-2.37.24-3.55.39-.46.05-.51.16-.5.62 0 1.44.08 2.87.13 4.3v.89h.41c1.19-.07 2.38-.19 3.57-.23 5.86-.18 11.72-.33 17.56-.86 4.08-.37 8.17-.36 12.25-.37 2.17 0 4.33-.08 6.5-.12.35-.01.66-.05 1.06-.08z" fill="#000"/><path d="M37.89 35.06a18.009 18.009 0 00-1.71-.92c-.71-.31-1.46-.52-2.19-.78a12.5 12.5 0 01-2-.79 9.85 9.85 0 01-3.6-3.12c-.66-1.05-1.24-2.15-1.8-3.25a5.36 5.36 0 01-.63-2.89 2.21 2.21 0 01.53-1.31 1.35 1.35 0 01.76-.36c1.23-.15 2.46-.29 3.7-.39 5.38-.44 10.78-.43 16.18-.62 1.75-.06 3.5-.16 5.24-.26a1.75 1.75 0 012 1.74 7 7 0 01-.8 3.44 12.58 12.58 0 01-4.19 4.68c-1.28.88-2.58 1.74-3.9 2.56a9.567 9.567 0 01-1.66.75.58.58 0 00-.42.66c.17 3.84.33 7.67.47 11.51.06 1.44 0 2.87 0 4.31a.88.88 0 00.63 1 41.197 41.197 0 015.77 3.12c1.39.79 2.87 1.42 4.31 2.12.182.065.359.141.53.23a1 1 0 01.44 1.14 1 1 0 01-.91.72 48.43 48.43 0 01-7.12.3c-5.2.06-10.41.16-15.61.25h-2.78a3.308 3.308 0 00-1.11.25c-.64.25-1.18.15-1.46-.36a1.12 1.12 0 01.46-1.5 50.396 50.396 0 017-3.82c1.22-.59 2.35-1.37 3.53-2a.77.77 0 00.36-.8v-5.55a20.09 20.09 0 01.09-2.93 30.7 30.7 0 000-5.59c0-.54-.07-1.07-.11-1.54zm14.53-12.57c-8.21.42-16.39.39-24.56 1-.092.45-.01.918.23 1.31a42.833 42.833 0 002.2 3.78 7.05 7.05 0 002.77 2.2c1.66.8 3.56 1 5.1 2.11a.37.37 0 00.2.07c.71 0 1 .51 1.2 1.1.115.347.205.7.27 1.06.334 2.278.481 4.579.44 6.88 0 .48-.1 1-.14 1.44-.06.7-.16 1.4-.17 2.1v5.76a1.22 1.22 0 01-.48 1.08 35.47 35.47 0 01-5.6 3.54c-.52.23-1 .5-1.53.76v.12l17.66-.23c-.12-.12-.15-.19-.21-.22a70.27 70.27 0 00-6.22-3.65 2.8 2.8 0 01-1.8-2.93 66.82 66.82 0 00-.48-9.38 24.996 24.996 0 01-.09-5.54c.077-.552.184-1.1.32-1.64.159-.6.51-1.13 1-1.51a1.79 1.79 0 011.4-.48 1.23 1.23 0 00.6-.22 36.385 36.385 0 004.61-3.19 10.89 10.89 0 002.54-3 5.08 5.08 0 00.74-2.32z" fill="#000"/><path d="M52.42 22.49a5.08 5.08 0 01-.73 2.28 10.891 10.891 0 01-2.54 3A36.378 36.378 0 0144.54 31a1.23 1.23 0 01-.6.22 1.789 1.789 0 00-1.4.48c-.49.38-.841.91-1 1.51a15.47 15.47 0 00-.32 1.64 24.996 24.996 0 00.09 5.54c.38 3.111.54 6.246.48 9.38a2.8 2.8 0 001.8 2.93 70.26 70.26 0 016.22 3.65c.06 0 .09.1.21.22l-17.66.23v-.12c.51-.26 1-.53 1.53-.76a35.47 35.47 0 005.6-3.54 1.22 1.22 0 00.51-1.13v-5.76c0-.7.11-1.4.17-2.1 0-.48.14-1 .14-1.44a42.206 42.206 0 00-.44-6.83 7.833 7.833 0 00-.27-1.06c-.19-.59-.49-1.07-1.2-1.1a.37.37 0 01-.2-.07c-1.54-1.1-3.44-1.31-5.1-2.11a7.05 7.05 0 01-2.77-2.2 42.847 42.847 0 01-2.2-3.78 1.81 1.81 0 01-.23-1.31c8.1-.61 16.31-.58 24.52-1z" fill="#000"/></svg>