<svg width="80" height="80" viewBox="0 0 80 80" fill="none" xmlns="http://www.w3.org/2000/svg"><path d="M47.5 66.55l-3 1.72v1.43a3.59 3.59 0 01-.17 1.08 1.32 1.32 0 01-1.49.87 1.38 1.38 0 01-1.18-1.15c-.02-.22-.02-.44 0-.66v-.69H39.2v1.37c.01.365-.02.731-.09 1.09a1.38 1.38 0 01-1.46 1.1 1.34 1.34 0 01-1.3-1.27c-.07-.61 0-1.24-.06-1.87v-.64c-1.17-.43-2.3-.85-3.44-1.24a1.34 1.34 0 00-.53 0c-.55 0-1.1.09-1.65.09-1.35 0-2.72 0-4.07-.1a13.711 13.711 0 01-6.07-1.83A7.93 7.93 0 0117 61c-.18-.6-.32-1.2-.48-1.83a7.965 7.965 0 00-.8 0c-2.73 0-4.9-2.34-3.19-5.79.27-.47.568-.924.89-1.36-1.42-1.45-1.84-3.09-.63-4.86a3.26 3.26 0 014.39-1.21l.54-3.75c-.83-.3-1.54-.56-2.27-.81-3.41-1.15-4.73-3.77-4.88-7.13A40.844 40.844 0 0111 26.7c.739-4.84 1.74-9.638 3-14.37a2.76 2.76 0 01.79-1.54 1.89 1.89 0 00.38-.53 11.46 11.46 0 019.49-5.76 24.73 24.73 0 016.92.44 11.07 11.07 0 015.79 3c1 1 1.93 2 2.88 3.05a17 17 0 014.25 9.87c.32 2.77.49 5.57.71 8.36.14 1.87.25 3.74.35 5.61v1.83l.65.2c.61-1 1.11-2 1.75-2.88a10.09 10.09 0 014.64-3.25 8.12 8.12 0 015.11-.18c1.391.361 2.717.938 3.93 1.71a6.6 6.6 0 012.25 2.53c.65 1.2 1.19 2.45 1.77 3.68.16.33.29.66.42 1a8.875 8.875 0 011.37 0 3.44 3.44 0 012.72 2.33A6.26 6.26 0 0168 49.75c-.42.3-.86.56-1.28.83a25.72 25.72 0 01.39 3.08c0 1.83 0 3.68-.17 5.51a7.45 7.45 0 01-1.31 3.48 17.603 17.603 0 01-3.05 3.62 6.81 6.81 0 01-3.92 1.85c-1 .09-2 .36-2.94.4a14.26 14.26 0 01-8.22-1.97zM42.56 37c-.06-.46-.15-.86-.17-1.26-.11-2.13-.17-4.26-.32-6.39-.18-2.61-.38-5.21-.65-7.81a14.77 14.77 0 00-4.16-9.16c-.67-.68-1.31-1.4-2-2.07A8.4 8.4 0 0030.5 8a25.312 25.312 0 00-2.74-.34c-2.32-.1-4.65-.1-6.75 1.14a7.66 7.66 0 00-4.15 5.9c-.15 1.33-.19 2.68-.29 4.19 1.22.06 2.42.2 3.62.17a25.26 25.26 0 018.74.83c.431.198.88.355 1.34.47A2 2 0 0132 21.93c.184.48.311.98.38 1.49.21 2.71.47 5.43.55 8.14.11 4.19.09 8.39.13 12.58 0 .28.07.56.11.86.37 0 .66.06 1 .07a4.52 4.52 0 014 2.54 8.86 8.86 0 01.71 1.61c.46 1.51.86 3 1.28 4.56.11.38.19.77.3 1.19h2.42v-7.92c-.3-.12-.5-.2-.69-.29A4.52 4.52 0 0139.43 42a6.81 6.81 0 013.13-5zM15.09 21.46c-.1.57-.18 1.07-.27 1.57a62.325 62.325 0 00-1.14 9.52 15.7 15.7 0 00.16 2.74 3.139 3.139 0 001.47 2.48c.911.46 1.88.797 2.88 1a2.7 2.7 0 012.41 3.13c-.14 1.73-.36 3.44-.5 5.16-.05.65 0 1.31 0 2 .017.58-.007 1.162-.07 1.74-.07.57-.32 1.13-.35 1.7-.08 1.69-.18 3.38-.1 5.07a12.33 12.33 0 00.63 3.22 4 4 0 001.19 1.8 8.57 8.57 0 007 1.77l-2-4.93h-2.68a4.672 4.672 0 01-1.7-.37 1.48 1.48 0 01-.21-2.61 8.448 8.448 0 011-.63c.92-.54 1.83-1.1 2.76-1.62a1 1 0 00.54-1.09 7 7 0 012.94-6.41 2 2 0 00.95-1.9c-.087-4.04-.153-8.083-.2-12.13 0-2.36 0-4.71-.07-7.07a5.93 5.93 0 00-.39-2.52c-.51-.09-.95-.14-1.37-.26a19.998 19.998 0 00-5.33-.71c-1.91.122-3.828.008-5.71-.34-.6-.15-1.19-.2-1.84-.31zm35 31.07h-.27c-.24.32-.49.63-.7 1-.67 1.06-1.32 2.13-2 3.19A2.34 2.34 0 0145.47 58a17.45 17.45 0 01-5 .14 4.891 4.891 0 01-2-.65A3.37 3.37 0 0137.05 55a16.861 16.861 0 00-1.58-5.6 2.14 2.14 0 00-.95-1c-1.38-.64-4.12.43-4.66 1.86-.35.923-.58 1.888-.68 2.87a18.87 18.87 0 00.91 6.95 7.68 7.68 0 005.78 5.38c1.105.291 2.238.459 3.38.5a9.2 9.2 0 008.46-4.25A15.342 15.342 0 0049.52 58c.375-1.23.63-2.492.76-3.77a7.385 7.385 0 00-.18-1.7h-.01zM48 49c.307.002.612-.035.91-.11a2.43 2.43 0 013.09.71 6.1 6.1 0 011.51 4.11 19.671 19.671 0 01-3.29 9.92l-.54.91c.52.17.92.34 1.34.45 2.258.543 4.608.577 6.88.1a5.44 5.44 0 003.21-1.75c.63-.71 1.2-1.48 1.78-2.23a5.29 5.29 0 001-3c.06-1.17 0-2.36.13-3.53.16-1.47-.79-2.68-.75-4.08a3.18 3.18 0 01-1.87-1.17 7.85 7.85 0 00-3.17-2.27 4.29 4.29 0 01-2.89 1.23c-1.65.25-2.9 0-3.75-1.51a3.75 3.75 0 00-2.14.46A13.268 13.268 0 0047 49a3.43 3.43 0 00-1 3.43c.238-.235.455-.489.65-.76.43-.89.9-1.8 1.35-2.67zm6.45-3.84a1.252 1.252 0 001.94-.21 2.34 2.34 0 011.16-.56 3.79 3.79 0 012.47.32 12.56 12.56 0 013.48 2.48c.38.35.73.74 1.32.69 2.11-.21 3.58-3.25 2.46-5.09a.531.531 0 00-.83-.21c-.19.11-.34.28-.53.39a1.341 1.341 0 01-2-.3 4.722 4.722 0 01-.62-1.15c-.69-1.62-1.32-3.27-2.06-4.86a3.65 3.65 0 00-1.22-1.54c-3.56-2.3-6.16-2.24-9.37.38a4.51 4.51 0 00-1.63 2.8 5.16 5.16 0 01-.34 1.16c-.55 1.3-1.32 1.49-2.52.73a3.579 3.579 0 00-1.52-.52 1.37 1.37 0 00-1.07.42 6.379 6.379 0 00-1 2c-.27 1 .26 1.66 1.31 1.9 1.107.256 2.162.7 3.12 1.31a8.15 8.15 0 014.6-1.65l.28-1.73c-.22-.08-.36-.11-.49-.17-1.07-.47-1.46-1.23-1.12-2.17a1.88 1.88 0 012.39-1.21c.25.07.47.22.72.28a1.62 1.62 0 011.34 1.77c0 1.06-.05 2.12-.09 3.18-.04.51-.11 1.02-.16 1.52l-.02.04zM16.4 55.79v-2a3.059 3.059 0 00-.74.22c-.44.25-.86 1.15-.66 1.51.32.59.84.48 1.4.27zm.2-5.61c.17-1-.05-1.5-.76-1.61a.58.58 0 00-.46.16.54.54 0 00-.1.48c.31.49.62.99 1.32.97z" fill="#000"/><path d="M42.56 37a6.81 6.81 0 00-3.13 5 4.52 4.52 0 002.71 4.74c.19.09.39.17.69.29V55h-2.42c-.11-.42-.19-.81-.3-1.19-.42-1.52-.82-3.05-1.28-4.56a8.854 8.854 0 00-.71-1.61 4.52 4.52 0 00-4-2.54c-.29 0-.58 0-1-.07 0-.3-.1-.58-.11-.86 0-4.19 0-8.39-.13-12.58-.08-2.71-.34-5.43-.55-8.14a6.656 6.656 0 00-.33-1.52 2 2 0 00-1.74-1.61 7.631 7.631 0 01-1.34-.47 25.258 25.258 0 00-8.73-.85c-1.2 0-2.4-.11-3.62-.17.1-1.51.14-2.86.29-4.19A7.66 7.66 0 0121 8.76c2.1-1.24 4.43-1.24 6.75-1.14A25.31 25.31 0 0130.5 8a8.4 8.4 0 014.77 2.34c.68.67 1.32 1.39 2 2.07a14.77 14.77 0 014.16 9.16c.27 2.6.47 5.2.65 7.81.15 2.13.21 4.26.32 6.39.01.36.1.76.16 1.23z" fill="#000"/><path d="M25.35 33.37l-1.51.18c-.1.45-.18.88-.3 1.3A1.45 1.45 0 0122 35.94a1.48 1.48 0 01-1.24-1.59A7.36 7.36 0 0121 33c.15-.52-.06-.76-.63-.9-.38.41-.8.86-1.23 1.3-.19.226-.4.434-.63.62a1.38 1.38 0 01-1.73 0 1.41 1.41 0 01-.41-1.69 3.18 3.18 0 01.49-.72c.68-.78 1.37-1.54 2.05-2.31a1.38 1.38 0 012-.31c.35.19.68.44 1 .62a5 5 0 004.13.4 1.35 1.35 0 011.92 1.4 2.78 2.78 0 00.4 1.56c.136.218.256.445.36.68A1.43 1.43 0 1126.2 35c-.32-.55-.54-1-.85-1.63zm8.29 20.31A1.699 1.699 0 0132 55.54a1.52 1.52 0 01-1.59-1.49 2.15 2.15 0 011.82-1.79 1.42 1.42 0 011.41 1.42zm22.99.14a2.14 2.14 0 002-1.21 1.429 1.429 0 011.94-.61 1.51 1.51 0 01.7 2 3.77 3.77 0 01-1.71 2 5.45 5.45 0 01-3.73.66c-.95-.17-1.47-.71-1.41-1.51.06-.8.65-1.28 1.63-1.3.11-.07.22-.05.58-.03zm3.63-13.09a1.75 1.75 0 01-1.71 1.79 1.68 1.68 0 01-1.69-1.76 1.811 1.811 0 011.9-1.76 1.56 1.56 0 011.5 1.73z" fill="#000"/></svg>