<svg xmlns="http://www.w3.org/2000/svg" viewBox="0 0 227 227"><path d="M27.1 119.2c.8-2.8 2.9-3.7 5.6-4.1 6.2-.9 12.4-1.7 18.5-2.8-2.7-1.8-5.2-3.4-7.7-5-2.1-1.6-5-2-6.5-4.1-2-2.9 1-6.6 4.3-6 7.8 3.3 14.8 8.7 22.3 12.8 1 .7 2.2 1 3.4.9 13.6-1.2 27.3-1.1 41-1L92.1 97.6c-7.1 1.1-13.9 1-21.1 1.5-4.9 1.1-8.9-4-4.2-7.3 5.1-2.6 10.3-1.3 16-1.6-4.7-4.1-9.6-7.7-14.5-11.6-.6-.4-1.2-.5-1.9-.5-7.1.3-14.1.7-21.2 1-2 .1-4 1.2-6 .1-2.3-1-3.6-3.8-2.4-6.1 2.5-4.7 14.3-2.5 19.3-3.1-7.6-5.1-15.2-10.2-22.5-16-1.5-.9-2.4-2.7-2.3-4.4.1-3.1 3.8-5.1 6.5-3.4 8.2 6.8 17 12.3 26.1 18.1-1.5-7.1-3.9-13.8-4-20.9 1.4-5.7 7.2-4.5 9.1.3 1 2.1-1 4.3.2 6.5 1.9 6.8 3.9 13.6 5.7 20.5.4 1.6 1.3 3 2.7 4 4.1 3 7.9 6.3 11.9 9.4 1.3-4.7 1.4-17.3 9.1-13 1.3.8 1.8 2.5 1.2 4-1.2 2.6-1.1 5.4-1.6 8.1-.2 2.4-1.7 5.4-.4 7.6 6.1 4.6 12 9.7 18.3 14-1.6-16.7-1.8-33.4-3.1-50-2.6-2.7-6-4.6-9-7-2-1.8-5.2-2.3-6.3-5-.4-1-.4-2.1.1-3.1 3.6-7.6 10.5.6 14.5 3.5-.7-7.5-1.5-14.5-2.2-21.9-.9-3.9 3.4-8.5 7-5.6 1.2 1 1.7 2.6 1.7 4.1 0 7.8 1.8 15.4 2.4 23.2 2.9-2.4 5.4-5.5 8.1-8.2.7-.8 1.4-1.8 1.8-2.8 1.5-2.7 5.6-4.7 8-2.7 2.5 1.9 1.1 5.3-.6 7.2-4.8 5.6-9.5 11.2-14.4 16.6-1.3 1.3-2 3.3-1.8 5.2.9 13 1.3 25.9 2.2 38.9C135.6 88.7 136 89 137 74.6c0-3 1.9-6.9 5.5-5.7 4.3 1.6 2 7.4 2.6 11.2 3.5-3.3 8.1-5.6 10.8-9.3 1-11 .4-21.9-.1-32.9-.4-2.7-.6-5.7 2.4-6.5 2.1-.5 4.5.7 5.3 2.8 1.1 9.8 1.9 19.9 1.6 29.9 8-6.6 16.2-12.5 24.4-18.8 1.3-1.2 3.3-1.7 5.1-1.1 2.8.8 3.5 4.9 1.1 6.6-7.6 6.1-14.8 11.8-22.5 18 7.5.8 15.5-.2 21.7 4.6 3.2 2.6.4 8.1-3.6 7.1-8.5-2.9-17.6-2.4-26.4-3.7-.8-.1-1.5.1-2.2.5-5.1 4.1-10.1 8-15.1 12.3 3.2 1.2 7.3 1.2 9.2 4.4 1.3 2.5-.8 5.7-3.6 5.7-4.8.6-9.3-3.5-13.9-3-4.3 3.5-8.6 7.1-13 10.5-1.1.9-1.3 1.8-.8 3.3 16.3-.2 32.9 1.2 49.1.6 8.1-8.2 15.7-17.1 25.6-23.3 1.2-.8 2.5-1.5 3.9-1.2 1.9.4 3.3 2.3 3.1 4.2-.7 3.4-4.9 4.7-7 7.1-4.5 4.3-9 8.6-13.7 13.2 7.8.1 15.6-.8 23.4-1.1 2.5-.2 4.6.9 5.2 2.9 1.4 5.5-5.9 6.1-9.7 5.9-5.7.4-11.3.9-17 1.3 3.9 4 15.9 10.2 15.6 15.8-.4 2.1-2.7 4-4.9 3.2-1.3-.4-2.5-1.1-3.6-2-5.7-4.9-11.7-9.5-18-13.6-1.6-.9-2.7-2.9-4.7-3.2-12.8-.3-25.5-.4-38.3-.7l7.1 5.8c2.4 2 4.9 3.9 7.2 5.9.6.5 1.5.8 2.3.6 3.8-.1 7.8-1.1 11.6-.3 2.8 1.1 3.2 5.3.6 6.9-1.6 1.1-3 .7-4.9.8 5.3 5.1 10.9 9.8 16.4 14.7.6.5 1.3.9 2.1 1 6 .5 12.1 1 18.1 1.4 2 .3 4.4-.4 6.1.9 2.4 1.7 1.8 5.8-1.1 6.6-4.5 1.3-9 .2-13.7.4 4.4 4.1 8.5 8.1 12.8 12.3 3.4 2.8 4.4 8.8-1.4 8.9-.9-.1-1.7-.5-2.3-1.1-6.5-5.9-12.9-12.1-19.7-17.7-1.4 7.9-1.7 16.2-5 23.5-1.6 2.9-6.2 2.5-7.4-.5-.4-.9-.5-2-.2-3 1.6-9.1 4.3-18.3 4-27.6-4.2-4.1-8.7-7.8-13.1-11.8-.7 3.7-2.7 8.6-6.8 9.4-2.6.1-4.7-2.8-3.9-5.3.6-2.2 2.3-4.3 1.2-6.6-.9-2.4-.7-5.4-2.2-7.5-5.4-4.2-10.6-8.9-16.2-12.8.7 11.8 2 23.6 2.9 35.4.4 4.3.8 8.6 1.2 12.8 0 .7.5 1.4 1.2 1.6 5.5 4.4 7.9 11.8 12.1 17.3 2.3 3.7 7.9 7.3 4.9 12.2-1.2 2.3-4.6 2.7-6.3.7-1.1-1-.7-2.6-1.5-3.7-3.2-3.9-6.1-8-9.4-11.7-.2 3.4-.4 6.6-.5 9.8-.1 4 .8 11.6-5.2 11-4-.7-4.4-4.9-3.8-8.2.2-4 .4-7.9.5-11.9-4.9 2.8-9.1 6.6-12.9 10.7-1.6 1.6-3.6 3.3-6 3.1-4.2-.2-5.9-6.2-1.9-8.1 5.7-5 11.2-10.4 17.7-14.4 2-1 3-3.4 2.5-5.6-1-8.3-1.7-16.7-2.5-25.1-.6-6.9-1.1-13.9-1.7-20.8-.3-3.4-.5-6.9-.7-10.4-1.8-.2-3.2-.2-4.6 1.3-5.9 6.4-12.1 12.5-18 18.9-1.4 1.4-2.2 3.5-1.9 5.4.1 4.4 2.7 13.6-.2 16.9-3.3 3-7.9-.8-7.5-4.7v-6.9c-.5-.2-.8.3-1.1.6-3.4 3.7-6.7 7.4-10.1 11-.7.6-.9 1.6-.7 2.5.7 6.8 1.1 13.6 1.1 20.5.5 3.6-3.4 7.7-6.9 5.1-3.7-4-1.4-12.7-2.4-18-4.7 5.9-8.7 11.6-13.2 17.7-1.9 3.3-7.6 2.9-8.1-1.2-.4-5.3 8.4-13.1 11.5-17.9-4.3.6-8.2 0-12.2 1.6-1.4.8-2.9.1-4-1.1-2.6-2.8.4-7.2 3.8-7.4 7-1.4 14.6-1.2 21.2-3.7 5-5.6 10.3-10.9 15.1-16.7-2.4.1-4.6.9-6.6-.5-2.2-1.5-2.4-5-.3-6.6 3.5-2.2 8.1-1 12.1-1.4 1.7.1 3.4-.5 4.6-1.8 4.3-4.8 8.9-9.2 13.2-13.9-10-.1-20.1.5-30.1.6-.4 0-.8.2-1.1.4-2.4 2.8-4.7 5.7-7.3 8.4-3.7 3.8-7.5 7.4-11.3 11-2.5 3-7.7 2-8.1-2.2-.2-4.4 11.7-12.5 14.6-16.7-8.6.9-16.6 2.3-25.1 3.5-3.3.7-5.8-1-6-4.7z"/></svg>