<svg xmlns="http://www.w3.org/2000/svg" viewBox="0 0 80 80"><path d="M38.8 24.7c.4-2.2.7-4.3 1.1-6.3-1.9-.4-3.9-.8-5.8-1.3-1.7-.3-3.6-1.5-2.9-3.5.3-1 1.4-1.6 2.5-1.3 2.5.3 5.2.2 7.6.9 1.2-2.8 3.4-5 5.9-6.6 2.3-1.3 4.7-2.3 7.4-2.4.9-.2 2.2-.7 3-.3.9.5 1.8.8 2.8.8 2.1.4 4.1 1.1 5.9 2.2 1.9 1 4 1.9 5.2 3.7 1.8 2.3 3.3 4.8 4.4 7.5 1.2 5.6 1 11.5.8 17.2-.2 4.4-.8 8.8-1.8 13.2-1.3 5.6-5.5 9.1-11 10.5-.2.1-.4.2-.4.3-.2 1-.4 2.1-.5 3.1-.4 9.7 1.1 12.4-10.4 9.8-3-.7-6.4-2-9.4-.9-6.2 2.3-13 2.5-19.2.4-.9-.3-1.8-.2-2.7.1C18 73.2 14.5 74 11 74.5c-1 .1-2.1.3-3 .8-.5.3-1.2.4-1.7.1-1.5-.8-1.3-3.1-1.6-4.6-.8-7.7-2.3-15.5-1.2-23.2.7-18.7 18.2-28.4 35.3-22.9zm4-1.7c2.1.3 4.2-.2 6 .9 3.7 3 3 10.7 2.9 15.1-.1 2.1-.4 2.1 1.9 2.9 1.6.4 3 2.9 1.3 4.1-1.3.9-2.5-.6-3.7-1-2-.6-3.4-2.7-3.3-4.8-.1-4.1.6-8.3-.6-12.2-.1-.4-.5-1.1-.9-1.1-1.1-.2-2.3-.3-3.4-.3-.5 0-.7.2-.7.7 0 2.1-.1 4.2-.2 6.3-.3 4.5-.3 9-.1 13.5.2 2 .6 3.9 2.1 5.2 1.8 1.6 3.8 3 5.8 4.5.3.2.6.3.9.4 5.3-.6 10.9-.9 15.8-3.2 3.2-1.6 4.8-5.3 5.2-8.7.9-7 1.6-14.1 1.2-21.1-5.1-1.3-9.6-3.5-14.9-3.9-4.6-.5-9.3-1-13.9-1.6-.3 0-.6 0-.7.4-.1 1.2-.4 2.5-.7 3.9zm-6.7 30c-1-.3-1.7-1.1-1.5-2.2.4-2.3 2.8-1.3 4-.3L38 43c-4.8.3-9.8.6-14.6.8-4.8.2-9.5.2-14.3.3-.5 0-1 0-1.4.4-1 6.4 2 13 6.6 17.4 9.7 9.9 28.1 10.5 36.9-.9-3.4-.2-5.5-2.7-8-4.3-.4 1.2-2 1.5-2.8.6-.7-.8-.5-2-.7-3-.5-.1-.5 0-.7.8-.1 1.3-1.9 1.9-2.8.9-.7-.9-.3-2-.1-3zm10-39c4.3 1.1 8.6 1.5 13 2.2 4.4.9 8.7 2.2 13.1 2.9l.2-.1c-.8-1.2-1.8-3.5-2.7-4.3-3.4-2.8-7.1-6.2-11.7-6.3-1.7-.5-3.6-.8-5.3 0-2.9.8-5.4 2.5-6.6 5.6z"/><path d="M63.7 25.5c2.8-.1 4.2 2.6 4.2 4.6 0 2.5-2.3 4.8-4.8 4.6-6.3 0-5.2-9 .6-9.2zM47.2 50.2c0-1.7 1.8-2.4 3.2-1.8 1.8.8 3.7.3 5.6.4 1.4.1 2.5 1.6 2.1 3m-3.5.5c-.6 2.5-3.7 2.5-4.6-.6l4.6.6zm-38.8 2.4c-.2.7-.4 1.3-1 1.6-.6.4-1.4.3-1.9-.2-.7-.7-.5-1.7-.3-2.5.1-.4-.1-.8-.4-1.1-.6-.6-1.2-1.3-1.5-2.1-.4-1.7 2-2.7 2.9-1.2 2.8 3.3 6.2 2.8 9.5.5 2.4-1.5 4.4.8 2.3 3 .7.6 1.5 1.1 1.6 2 .2 1.1-1 2.1-2.1 1.7-.8-.4-1.5-1.1-2.1-1.8-.2-.3-.4-.4-.7-.2s-.9.3-1.5.5c.3.6.7 1.2.5 2-.3 1.3-2.2 1.7-2.9.6-.6-.6-.6-1.6-1.1-2.2-.3-.4-.9-.4-1.3-.6zm11.4 10c-1.2.8-3.2-.3-2.7-1.9.1-.4.4-.8.8-1 2.5-1.6 5.9-2.2 8.5.2 1.3 1.1 2.9 2.1 1.1 3.6-.7.7-2 .6-2.7-.2-.6-.5-2-.7-2.6-1.1"/></svg>