<svg viewBox="0 0 80 80" fill="none" xmlns="http://www.w3.org/2000/svg"><path d="M38.83 24.7c.373-2.16.743-4.273 1.11-6.34-1.94-.43-3.86-.84-5.78-1.29a7.321 7.321 0 01-1.57-.55 2.31 2.31 0 01-1.29-2.9 2.12 2.12 0 012.46-1.34c2 .15 4 .3 6 .48.554.091 1.102.218 1.64.38.7-2 2.21-3.44 3.66-4.9a8.62 8.62 0 012.26-1.69c1.83-.88 3.59-2 5.67-2.22.58-.07 1.16-.1 1.73-.2.57-.1 1.09-.29 1.65-.36.56-.07 1-.16 1.33.06a6.26 6.26 0 002.83.83 16.88 16.88 0 015.88 2.23c.62.39 1.31.68 2 1a9.46 9.46 0 013.2 2.73A29.94 29.94 0 0176 18.14c.378 1.3.583 2.646.61 4 .375 4.397.425 8.816.15 13.22a69.462 69.462 0 01-1.79 13.15c-1.25 4.67-4 8-8.66 9.68-.79.28-1.59.52-2.37.81-.17.06-.42.19-.44.33a25.737 25.737 0 00-.5 3.1c-.11 2.11-.1 4.22-.19 6.33a10.843 10.843 0 01-.31 2.13A2.61 2.61 0 0160 73a19.49 19.49 0 01-7.35-.75 40.006 40.006 0 00-5.9-1.25 7.08 7.08 0 00-3.54.35 28.54 28.54 0 01-19.21.38 3.81 3.81 0 00-2.69.14A43.53 43.53 0 0111 74.47a7.23 7.23 0 00-3 .82 1.8 1.8 0 01-2.77-1.23 20.35 20.35 0 01-.57-3.21c-.5-4.33-1-8.66-1.44-13a53.62 53.62 0 01.23-10.21 34.18 34.18 0 011.82-8.91c2.66-7 7.74-11.53 14.73-14a29 29 0 0118.2-.22l.47.14c.05.024.105.04.16.05zm4-1.74c1.35.09 2.6.15 3.84.26a4.07 4.07 0 013.58 2.39A13.998 13.998 0 0151.37 29c.445 3.314.555 6.664.33 10-.06 2.11-.42 2.08 1.86 2.91a3 3 0 012 2.09 1.8 1.8 0 01-.68 2 1.82 1.82 0 01-2.08-.14 8.506 8.506 0 00-1.58-.86 4.81 4.81 0 01-3.28-4.81c0-2.14.1-4.27.08-6.41a18.3 18.3 0 00-.71-5.84c-.14-.44-.51-1.05-.87-1.12a28.157 28.157 0 00-3.44-.31c-.51 0-.66.25-.68.73 0 2.11-.14 4.22-.21 6.33a119.194 119.194 0 00-.11 13.5c.17 2 .61 3.89 2.09 5.23 1.8 1.63 3.81 3 5.76 4.47a2.441 2.441 0 001.93.35c2.17-.34 4.36-.63 6.54-.9a24.3 24.3 0 008.26-2.3 8.05 8.05 0 003.48-3.38 14.1 14.1 0 001.75-5.31c.48-4.08 1-8.15 1.24-12.24.19-3 0-5.93 0-8.82-1.38-.38-2.6-.61-3.73-1.05a42.09 42.09 0 00-11.13-2.9c-3.53-.33-7-.78-10.57-1.19-1.11-.13-2.21-.28-3.31-.43-.33 0-.58 0-.67.38-.21 1.34-.51 2.66-.8 4.02l-.01-.04zM36.1 53l-.56-.23a1.72 1.72 0 01-.91-1.93 1.57 1.57 0 011.53-1.45 4.85 4.85 0 011.59.58c.326.178.637.382.93.61L38 43l-3 .17c-3.87.21-7.73.5-11.61.63-4.75.17-9.51.2-14.27.31a2.83 2.83 0 00-1.08.19.83.83 0 00-.43.57 29.099 29.099 0 000 3.62 21.53 21.53 0 006.8 13.43 26.33 26.33 0 0016.4 7.44 23.48 23.48 0 0016.14-4.19A18.392 18.392 0 0051.3 61c-3.41-.18-5.46-2.7-8-4.33a1.64 1.64 0 01-1.8 1.08 1.73 1.73 0 01-1.42-1.53c-.13-.64-.17-1.3-.26-2-.47-.05-.49 0-.7.81a1.67 1.67 0 01-1.69 1.44 1.77 1.77 0 01-1.62-1.72c.045-.59.142-1.176.29-1.75zm10.01-39c1.82.38 3.6.81 5.4 1.1 2.52.41 5.07.6 7.57 1.09 3.13.61 6.22 1.45 9.34 2.16 1.25.29 2.53.48 3.8.71l.18-.15c-.8-1.37-1.6-2.74-2.42-4.1-.06-.11-.23-.15-.33-.24-.52-.4-1.05-.79-1.54-1.22-.66-.57-1.26-1.21-2-1.74-.6-.435-1.228-.83-1.88-1.18-2-1.14-3.92-2.21-6.28-2.15a1.44 1.44 0 01-.61-.12 6.72 6.72 0 00-4.7.08c-2.86.97-5.33 2.64-6.53 5.76z" fill="#000"/><path d="M63.74 25.55c2.85-.11 4.21 2.62 4.22 4.58a4.66 4.66 0 01-4.81 4.63 4.099 4.099 0 01-4.33-4 5.06 5.06 0 014.92-5.21zM47.25 50.16a2 2 0 012-2h.4c.286.008.57.058.84.15a8.17 8.17 0 004.1.39 8.687 8.687 0 011.53 0 2.331 2.331 0 012.06 3m-3.62.59c-.62 2.46-3.72 2.46-4.58-.59l4.58.59zm-38.78 2.38c-.12.33-.19.6-.31.85a1.6 1.6 0 01-1.69 1 1.53 1.53 0 01-1.38-1.36 6.47 6.47 0 01.11-1.58 1.05 1.05 0 00-.38-1.08c-.485-.434-.9-.94-1.23-1.5a1.59 1.59 0 01.41-2.22 1.62 1.62 0 012.29.4 6.93 6.93 0 002.74 2c1.76.82 3.4.28 5-.45.61-.28 1.18-.65 1.76-1 1.22-.68 2.13-.65 2.78.11.65.76.57 1.65-.45 2.9.34.28.73.54 1 .86a1.71 1.71 0 01.26 2.38 1.619 1.619 0 01-2.32.16 9.365 9.365 0 01-1.52-1.5c-.24-.27-.4-.38-.75-.23s-.92.3-1.46.47c.14.27.26.51.37.74a1.67 1.67 0 01-.52 2.22 1.65 1.65 0 01-2.24-.4 4.13 4.13 0 01-.76-1.47 1.19 1.19 0 00-1.12-1.07 4.198 4.198 0 01-.59-.23zm11.47 10.01a2 2 0 01-2.56-.54 1.7 1.7 0 01.71-2.33c2.46-1.57 5.93-2.22 8.52.23.33.31 1.13.94 1.44 1.27.79.88.4 1.66-.37 2.37a1.829 1.829 0 01-2.66-.2c-.58-.52-1.95-.68-2.62-1.07" fill="#000"/></svg>