<svg xmlns="http://www.w3.org/2000/svg" viewBox="0 0 227 227"><path d="M169.8 196.8c-32-2.4-64.1-4-96-7-11.5-.7-23-1.1-34.2-3.8-5.6-.5-3.6-7.5-4.4-11.4-1.2-17-1-34.1-.1-51.1.3-18.6-.1-37.2.1-55.8 0-8-.9-16.9-6.6-22.8-9.5-2.9-10.8 13.5-11.3 19.8.8 6.9-4.2 5.5-9 5.3-.4 0-1-.5-1.1-.8-3.5-16.9 4.6-41.3 25.9-33.3 14.8 5.7 14.1 31.6 15.7 45.3l40-1.1c-.1-2.9-.2-6-.4-9.1-.8-8.4-.1-17.2-2.7-25.3-1.5-3.9-1.1-3.7-5.3-3.6-5.5-.7-7.5 16.7-7.9 20.8-.1 1.6-1.6 3.6-3.5 3.3-1.5-.2-3-.2-4.6-.3 0-3-.1-6 0-8.9.8-9.5 3.1-22.3 13.4-25.6 13.8-2.9 21.7 12.6 22.3 24.5.3 4.2.2 8.5.3 12.8 0 2 .1 2.2 1.9 2.2 23.8-1 47.6-.3 71.5.3 5.7.2 11.4-.4 16.9-1.8 7.8-2 15.4 1.4 22.8 3.4 1.9.6 3.7 2.9 3.3 4.8-.6 2.6.2 5.1.2 7.7.1 16.5 0 33.1.1 49.6-.4 12.6-1.5 25.2-2.8 37.7.2 5.8.4 11.7.1 17.5-.4 7.9-10.5 5.3-15.8 6.3-8.9.1-19.8.5-28.8.4zM43.3 143.4c-.5 11.9-.1 23.8 1 35.6l12.5.8c26.2 1.5 52.4 3.7 78.6 5.3 20.2 2.3 40.4 2.3 60.7 2h6.6c3-5.5 2-11.3 3-16.9-18.7 4.7-26.2 2.2-43.3-5.3-12.4 8.9-20.2 12.2-36.1 10.9-13.4-.1-22.1-7.4-31.9-15.5-11.8 8.3-22.3 17-37.7 13.2-5.4-.9-3.4-11.1 2.4-9.9 2 .1 4 .4 5.8-.8 1.2-.3 2.5-.2 3.7-.7 5.6-2.5 11.9-4.2 16.6-8.3 6.2-5.1 7.1-8.4 14.6-2.3 11.3 11 28 16.2 43.4 12 5.8-1.3 11.2-4 15.7-7.9 5.7-5.5 9.4 5.6 24.4 6.5 7.3 1.1 14.8.7 22-1.3.9-.1 1.6-1 1.5-1.9.4-6.2 1-12.1 1.4-18.3-12.2 1.3-26 1-33.9-9.8-10.8 6.3-23.5 7.6-35.7 5.3-7.8-1.2-14.7-5.4-21.6-9.2-7 3.1-13.8 6.9-21.3 9-7.6 3-15.5 1.3-22.8-1.5-9 5.8-18.3 10.5-29.6 9zM209 94c-.1-3.7-.3-7.5-.4-11.3-.1-3-.1-3.1-3-3.8-4.8-.6-9.8-1.9-14.6-.5-4 1.2-8.1 1.7-12.3 1.7-5.2-.1-10.4-.1-15.6-.2-20.8-1-41.6-.1-62.3-.9 0 15.1-1 30.1.4 45.1 3.9-1.5 7.1-4.2 10.6-6.5 3.8-3.1 7.8 1.2 11.5 2.5 11.6 4.9 25.6 9.2 37.6 3.6 4.9-1.9 9.2-6.5 14.6-6.1 4.5.6 6.7 5.3 10.5 7.3 6.6 3.9 14.4 6.7 22.1 5.8-1.1-43.6 7-16.5-23.9-33.3-8.2 5.5-16.3 10.2-26.7 8.3-4.1-.7-8.9-1.9-11.2-5.8-.5-1.1-1.1-3.5.7-3.5 2.9-.1 5.7-.4 8.6-.3 22.9.9 26.4-15.2 33.3-7.5 4.6 4.3 13.9 7.5 20.1 5.4zM49.2 107l40.3-.6V92.9c-13.7-.1-27-1.1-40.3 2.1v12zM89 128v-7.7l-39.8.6v12.2c.7.1 1.1.1 1.8 0 19.5-2.9 17.7-12.6 26-7.6 3.7 2.7 7.8 2.8 12 2.5z"/></svg>