<svg xmlns="http://www.w3.org/2000/svg" viewBox="0 0 80 80"><path d="M18 53.8c-1.7.3-3.4.2-4.9.9-.2.1-.5.1-.8 0-.5-.2-.9-.7-.9-1.2.1-.8.9-1.2 1.6-1.4 1.5-.3 3.1-.6 4.7-.9l-.7-7.3c-1.5 0-3 .2-4.4.4-.2 0-.4 0-.6-.1-.9-.4-.9-1.7-.1-2.2 1.3-.6 2.9-.4 4.3-.6h.6l-.3-6.7c-1.6 0-3.3-.2-4.8.3-.3.1-.6 0-.8-.1-.6-.3-.8-1.1-.6-1.6.1-.3.4-.6.7-.7 1.8-.4 3.6-.4 5.5-.6v-3.6c-1.3 0-5.7.8-5.6-1.1 0-.5.3-1 .8-1.1.8-.2 3.8-.2 4.7-.3l-.2-4.9-2.8.3c-.4.1-.8.5-1.2.5-1.3.2-2.6-.8-1.8-2.1.2-.3.4-.5.7-.5 1.7-.4 3.4-.5 5.2-.8.1-1.8 0-3.5.3-5.2.1-.5.6-1 1.1-1 .1 0 .2 0 .2-.1.9-1 2.2-.9 3.3-1.1 5.8-.8 11.7-1.3 17.6-1.4 5.2-.5 10.5.1 15.8-.7l8.7.1c1.6.1 2.5 1.8 2.3 3.3 0 3.3 0 6.7.1 10 .4 8.6.8 17.2 1.3 25.8.4 6.7.9 13.3.4 20-.1.7-.7 1.3-1.4 1.3-3.7 1.2-7.5 1.9-11.4 2-6 .4-12.1 1.1-18.1.8-4.5-.2-9-.3-13.5-.5-.7-.1-1.4.4-2.2.2-.7-.2-1.2-1.1-.9-1.8.1-1.6-.3-3.2-.4-4.9l-3.7.4c-.5.1-1.2.2-1.6-.2-.7-.6-.4-1.9.5-2.1 1.5-.3 3-.5 4.5-.7L18 53.8zm2.4-3l2-.3c1.1-.1 2.2-.7 3.3-.3.9.4 1.2 1.6.5 2.4-.4.5-1.1.6-1.7.4-1.3.1-2.5.4-3.8.6l1.1 8.9c.1.1 3.3-.6 3.6-.6 1-.3 1.9.8 1.5 1.8-.1.3-.4.5-.7.7-1.3.5-2.6.6-4.1.9l.4 4.1c6.7-.1 13.4.4 20.1.3 5.6-.3 11.3-.6 16.9-1.2.4-.1.7-.3 1-.6 1.1-.5 2.5-.5 3.7-.8.7-.1.8-.2.8-.9 0-17.9-2.5-35.8-2-53.7-1.9-.3-3.8-.9-5.7-.4-3.4-.2-6.9-.1-10.4-.1-9.4.2-18.8.6-28.1 1.7v4.1c1.9-.1 3.8-.7 5.7-.3 2.3.7.3 4.1-1.5 2.8-.1-.1-.3-.2-.4-.2l-3.6.5v4.8c2.2-.1 4.4-.8 6.6-.4.4.1.7.4.9.8.4.7 0 1.6-.7 1.9-.8.3-1.5-.2-2.3-.1-1 0-3.1.4-4.2.5v3.6c2.4-.2 4.7-.5 7.2-.5.3 0 .6.1.8.3.7.6.6 1.8-.1 2.3-.7.7-1.4.2-2.2.2l-5.2.4c-.4 0-.4.2-.4.5.1 2.1.1 4.1.3 6.2 1.6-.1 3.5-.4 5.2-.3 1 .2 1.3 1.5.6 2.2-.5.6-1.6.4-2.3.5l-3.2.3.4 7z"/><path d="M46.1 34.9c.2 3.4 1.9 6.4 3 9.5.1.4.3.4.7.3 1.4-.7 3.2-1.2 4.4.2 1.7 2.4 2.1 5.6 1.8 8.5-.4 4.2-5.4 6.4-9.2 5.6-3.1-.6-4.9-3.4-6.2-6.1-2.5-5.3-4.3-10.8-5.6-16.5-.7-3.3-.9-7 1.1-9.9 1.2-1.9 3.5-2.5 5.1-3.9 1-.9 2.4-1.2 3.7-.7 4 1.3 5 6.8 4.3 10.4-.3 1.6-1.7 2.2-3 2.6 0-.1-.1 0-.1 0z"/></svg>