<svg width="80" height="80" fill="none" xmlns="http://www.w3.org/2000/svg"><path d="M18 53.78c-1.69.28-3.35.22-4.9.85a1.17 1.17 0 01-1.43-.42 1.07 1.07 0 01.14-1.47 3.061 3.061 0 011.25-.68c1.46-.32 2.94-.56 4.4-.82l.25-.05-.71-7.31c-.84 0-1.64.06-2.44.12s-1.3.16-1.94.24a1.11 1.11 0 01-1.11-.45 1.09 1.09 0 01-.11-1.23 1.43 1.43 0 011.19-.82c1.2-.14 2.4-.26 3.6-.38h.58l-.33-6.69h-3.22a9.004 9.004 0 00-1.61.3 1.2 1.2 0 01-1.42-.73 1.299 1.299 0 01.7-1.72 9.06 9.06 0 011.73-.29c1.24-.12 2.47-.21 3.74-.31v-3.6c-.88.06-1.71.16-2.54.15a12.3 12.3 0 01-2.27-.22 1 1 0 01-.77-1.07 1.14 1.14 0 01.78-1.13 5.379 5.379 0 011.14-.13l3.54-.17-.16-4.94-2.83.28a.53.53 0 00-.28.1 2.19 2.19 0 01-2 .27 1.21 1.21 0 01-1-1.11 1.43 1.43 0 011-1.44c.636-.147 1.28-.254 1.93-.32 1.07-.16 2.15-.29 3.25-.44.05-1.26.08-2.48.14-3.7.027-.489.097-.974.21-1.45a1.24 1.24 0 011.09-1c.08 0 .19 0 .24-.05.89-1 2.16-.91 3.31-1.08a159.509 159.509 0 0117.61-1.44c4.56-.16 9.13-.13 13.69-.2A9.07 9.07 0 0053.81 9a4.86 4.86 0 01.75-.1l8.66.1a2.12 2.12 0 011.52.73 3.191 3.191 0 01.83 2.56c0 3.33 0 6.65.14 10 .14 3.35.29 6.71.46 10.06.267 5.253.56 10.5.88 15.74.24 4 .63 7.93.53 11.92 0 1.84.08 3.69.08 5.54a19.221 19.221 0 01-.24 2.5A1.58 1.58 0 0166 69.39c-.84.18-1.65.5-2.48.76-.19.06-.37.14-.57.19a47.003 47.003 0 01-8.37 1.06c-2.61.12-5.21.42-7.82.61a91.168 91.168 0 01-10.32.22 2854.89 2854.89 0 01-13.54-.49 6.672 6.672 0 00-1.47.2 1.24 1.24 0 01-1.28-.39 1.34 1.34 0 01-.27-1.45 1.56 1.56 0 00.05-.68c-.12-1.2-.26-2.4-.39-3.6 0-.16 0-.33-.05-.6l-3.71.43a5.421 5.421 0 01-.8.08 1.2 1.2 0 01-.3-2.37c.83-.19 1.68-.31 2.53-.44.64-.1 1.29-.16 1.93-.23L18 53.78zm2.39-3l1.95-.33c.8-.14 1.59-.29 2.38-.41a1.48 1.48 0 011.63.75 1.46 1.46 0 01-1.83 2.09.59.59 0 00-.29 0c-1.17.2-2.34.42-3.55.64l1.11 8.89c.13.01.26.01.39 0l3.16-.6a1.33 1.33 0 011.54.84 1.28 1.28 0 01-.68 1.61c-.3.146-.62.25-.95.31-1 .21-2 .4-3.11.61l.37 4.11h.53c2.95 0 5.91.05 8.86.1 3.56.06 7.12.31 10.67.17 5.28-.21 10.55-.68 15.83-1.07a2.75 2.75 0 002.08-.71 1.18 1.18 0 01.69-.26c1-.19 2-.35 3-.53.7-.12.76-.16.75-.87 0-3.71-.08-7.42-.13-11.13 0-.56-.07-1.11-.11-1.66-.22-3-.47-6.06-.66-9.09-.15-2.36-.23-4.73-.34-7.09-.22-4.53-.51-9.06-.65-13.59-.1-3.47 0-7 0-10.42v-.63c-.28-.06-.51-.12-.74-.15-1.67-.28-3.33-.73-5-.29a5.576 5.576 0 01-1.2-.11c-3.06 0-6.11-.05-9.17 0-4.28.09-8.56.22-12.83.44-3.62.18-7.23.49-10.85.78-1.46.12-2.92.33-4.42.5v4.11c.123.01.247.01.37 0 1.1-.14 2.19-.33 3.29-.42a6.57 6.57 0 012 .1 1.28 1.28 0 011 1.34 1.57 1.57 0 01-.92 1.5 1.4 1.4 0 01-1.61-.08.61.61 0 00-.45-.23l-3.61.47v4.79h.33c1.35-.17 2.7-.39 4.05-.5a8.051 8.051 0 012.19.14 1.47 1.47 0 01.93 1.95 1.5 1.5 0 01-1.85.78 3.84 3.84 0 00-1.26-.17c-.52.018-1.038.072-1.55.16l-2.62.38v3.64c1.4-.12 2.75-.24 4.11-.34 1-.08 2-.17 3.05-.17a1.22 1.22 0 011.18 1 1.52 1.52 0 01-.47 1.6 1.43 1.43 0 01-1.54.29 1.81 1.81 0 00-.68-.12l-5.17.42c-.36 0-.43.19-.42.52.06 1.25.1 2.51.15 3.77 0 .81.11 1.62.16 2.46l1.93-.16c.89-.07 1.77-.16 2.66-.21a1.4 1.4 0 011.56 1.3 1.37 1.37 0 01-1.38 1.38l-1.3.1-3.25.29.69 7.01z" fill="#000"/><path d="M46.11 34.89c.06 1.273.32 2.528.77 3.72.72 1.93 1.48 3.85 2.2 5.78.14.38.32.44.67.28.35-.16.81-.33 1.22-.48a2.88 2.88 0 013.83 1.6A14.581 14.581 0 0156 53.3a5.67 5.67 0 01-3.28 4.63 8 8 0 01-5.87.94 7 7 0 01-4.21-2.74 21.917 21.917 0 01-2-3.38 75.146 75.146 0 01-5.55-16.51 17.832 17.832 0 01-.32-6.35 8 8 0 014.29-6c.16-.1.32-.18.49-.27a8.117 8.117 0 001.78-1.16 3.5 3.5 0 013.67-.7 5 5 0 013.21 2.83 13.06 13.06 0 011.3 4.47 13.831 13.831 0 01-.26 3.14c-.26 1.4-1.36 2-2.6 2.46l-.43.14-.11.09z" fill="#000"/></svg>