<svg xmlns="http://www.w3.org/2000/svg" viewBox="0 0 227 227"><path d="M90.8 201.2l43.2-2.1c9.2-.9 18.4-1.3 27.6-.2 2.6.3 14.1-.7 14.1-3.2-.1-14.5.2-29 .5-43.5.2-7.6 9.1-6.3 8.3 1.1-.3 13.3 0 26.6 0 39.9-.2 3.8 1.8 9.3-3 10.7-16.4 6.8-26.1 2-42.5 3.6-30.8 1.9-61.9 3.2-92.7 2.2-3.4-.3-5.3-2.9-6.7-5.8-.3-.6-.4-1.3-.2-2 .8-2.2.2-4.4 0-6.6-1.3-11.6-2-23.3-2-35 .6-4.8-2.2-14.2 2.4-17 1.5-.7 3.4-.2 4.5 1 .5.6.9 1.4.9 2.2.5 9.1.9 18.2 1.5 27.3.5 7.9 1.3 15.8 1.9 23.8.4 1.5-.5 4.6 1.9 4.3 13.4-.4 26.8-.8 40.3-.7z"/><path d="M97.5 130.6c10.1.3 20 10.8 16.5 21-3.9 10.5-18.5 12.6-27.5 7.8-13.6-6.6-3-30.2 11-28.8zm9.3-104.4c-1.1 9.6-2.7 19.9-3.8 29.7-2.2 18.8 14.8 18.8 11.8 43.2.3 13.7-10.7 11.7-9.6 4.6 6.2-24.6-13.8-26.3-11-47.7 1.1-9 2.7-17.9 4-26.9.2-1.9.4-3.8.4-5.6-.1-1.3-1-2.4-.6-3.7.7-3.5 5.5-3.9 7.3-1.1 1.6 2.3 1.1 4.6 1.5 7.5zM138.2 150c-8.1 1.8-17.5-5.3-15.1-14.1.8-3.4 1.7-6.7 2.9-9.9 2.5-6.6 10.8-9.1 16.1-6.4 14.6 4.2 12.5 30.3-3.9 30.4zm21.7-22.3c.5-5.5 2.8-10.5 4.7-15.6 1.3-3.9.5-7.6-1.4-11.2-3.6-6.6-7.2-13.3-10.5-20-3.3-6.7-4.5-14.1-2-21.5 1-4 6.1-6.7 8.2-2 .3.8.3 1.7.1 2.5-2.4 5.7-1.1 11 1.2 16.3 3 7.2 7.1 13.8 10.8 20.6 7.2 12.1-.2 20.4-2.5 32.2-1 6.7-9.3 4.9-8.6-1.3zm-91.3 65.5c-11.9.7-22-11.7-12.6-21.6 4.7-4.9 13.9-8.1 21.8-2.4 13.2 9.5 6.1 24-9.2 24zm41 .6c-2.7-.7-5.8-1-8.7-2.1-14.4-6.5-2.1-25.4 10.7-23.3 25.4-.2 17.5 22.8-2 25.4zm-53.2-73.4c-.5-10.9 11.2-25.2 7.3-37.1-.5-1.3-2.2-1.6-2.6-3-1.1-2.4.9-5.4 3.5-5.3 6.2 0 7.5 7.5 8.2 12.3 1.7 10.8-5.5 19.9-7.2 30.2-1.1 7.3 0 14.7 3.4 21.3.6 1 .9 2.2.9 3.3 0 3-3.3 4.7-6.1 3.2-5.8-4.2-7.2-15.8-7.4-24.9zm96.2 70.8c-7 .1-12.3-5.1-12.5-12.5-.2-7.2 1.1-17.2 10.6-16.1 17.6-.1 21.9 27.6 1.9 28.6z"/></svg>