<svg xmlns="http://www.w3.org/2000/svg" viewBox="0 0 80 80"><path d="M50.5 43.9c1.1 4.5-5.2 8.1-8.8 9.5-1.6.6-3.3 1.1-4.9 1.7-.2.1-.4 0-.5 0-.6-.2-.7-1-.2-1.4 2.5-1.4 4.3-3.6 5.5-6.2.8-1.1.8-2.5 1.1-3.8l-2-.8c-.1 1.1-1.1 1.8-1.7 2.7-.4.4-.9.9-1.6.9-.5-.1-.9-.5-1.2-.8-1.7-1.8-3.1-3.9-4-6.2l-.2-.2c-.3-1-.1-1.3.8-1.7.9-.4 2-1 3-1.5l-.2-2.2c-3.9.2-7.7 1.6-10.7 4.1-.4.4-1 .5-1.4.1-.7-.9.5-1.8.9-2.6 1.4-2.2 3.1-4.2 5.1-5.9 2.2-2 4.9-4.2 8.1-3.4C42 19 50.1 14.9 58.3 13.7c3.9-.9 7.8-.7 11.7-.5.8-.2 1.6.2 2.2.7 2.6 3.1 1.3 7.6-.5 10.8-2.6 4.9-5.8 9.4-10.1 12.9-3.3 2.7-6.9 5.4-11.1 6.3zm6.3-28.4c-9.5 1.9-20.6 9.1-19.4 20 .3 3.5 3.3 6.3 6.7 6.9 9.2 2 19-6.9 23.6-14.1-3.6-1.7-6-5-8.5-8-.9-1.5-2.3-3-2.4-4.8zM44 44c.2 3-1.7 5.7-3.4 8 2.9-.7 5.4-2.7 7.5-4.8.8-.8 1.2-2 .9-3.2-1.6.3-3.3.3-5 0zm-7-16.5c-1.4-.1-2.8.4-3.9 1.2-2.4 1.7-4.6 3.7-6.3 6.1 2.7-1.5 5.8-2.5 8.9-2.3.2-1.7.6-3.5 1.3-5zm.5 17.4c.9-.8 1.3-1.9 2.4-2.5-1.8-1.2-3.1-2.9-3.7-4.9L33.6 39c.9 2.2 2.2 4.2 3.9 5.9z"/><path d="M29.1 66c-1.4 1.6-3.6 1.3-5.4.7-1.7-.6-2.6-2.6-2.7-4.4-3.9.6-7.2-1.6-6.2-5.9-1.8 0-3.9-.5-5.1-2.1-1.1-1.4-1.3-3.5-.2-5 .3-.5.8-1 1.1-1.6C8.8 47 7.4 45 8.3 43c.9-3 4.5-3.7 7.3-3.5 2.6.1 4.4 2.3 4.9 4.7.1 0 .3-.1.4-.1 2.3-1.1 7.1-3.5 9.3-4.6.8-.8 1.8.7.7 1.1-2.1 1.2-8.4 4.4-10.5 5.3l-.2 1.1.9 1.3c.6-.2 1.2-.5 1.9-.4.7-.1 1.3.4 2 .4 2.2-1.4 4.2-3.3 6.3-4.9.2-.2.5-.4.9-.3.4.1.6.7.3 1.1-2.1 2-4.5 3.5-6.5 5.5-.3 1.1-.2 2.2-.4 3.3.9-.3 1.9-.1 2.8-.2 1.7-2 3.3-4.3 5.1-6.2.2-.2.5-.5.8-.4.7.1.7.9.3 1.3-1.6 2.1-3.3 4.1-4.8 6.2.6 1.1 1 2.3 1.1 3.5.9 0 2.1-.3 3 .1 2.2.9 3.1 3.8 3 6-.1 3.9-5.4 5.2-7.8 2.7zm19.3-32.3c-1.6-2.1-2.4-5.4-.4-7.5 2.1-3 7.2-2.4 8.5 1 .1.4.5.4.7.7.5 1.6.1 3.4-.5 4.9-1.1 3.2-6.5 3.8-8.3.9zm1.3-.8c.9 1.4 3.5 1.3 4.7.4 1.2-1 1.4-2.8 1.4-4.2.1-.4-.4-.5-.6-.8-.2-.3-.1-.7-.3-1-1.7-2.4-5.2-1.8-6.4.8-.5 1.6.2 3.4 1.2 4.8z"/></svg>