<svg xmlns="http://www.w3.org/2000/svg" viewBox="0 0 80 80"><path d="M56.9 39.2c-.6.3-7.3 3.5-8.1 3.9-.3.2-.7.3-1.1.2-.6 0-1.3-.3-1.6-.7-.5-1.3-1.5-2.4-1.3-4.1.3-2.8.3-5.7.5-8.6.1-.6-.2-1.3-.8-1.7l-5.1-3.6c-2-1.5-3.7-3.3-5.2-5.3-.6-.5-.4-1.5.2-1.9.7-.4.9-1.3 1.6-1.7.4-.3 1-.5 1.5-.5 2.9-.5 5.7-1.1 8.5-1.7 5.7-1.2 11.5-2.5 17.2-3.7 3.6-.8 7.3-1.4 10.9-2.1 1.5-.2 2.9 1.3 2.5 2.8-2.2 10.2-6.3 19.9-8.3 30.1-.4 1.6-.8 3.2-1.4 4.7-.2.4-.6.7-1 .8-.4.1-.9 0-1.2-.3-2.8-1.8-5.3-4.2-7.8-6.6zM54.6 32c1 1.7 9.3 10.8 10.5 11.3 1.8-5.5 2.4-10.2 4.3-15.7 1.5-4.9 3.4-10.2 5.1-15.1C68.6 18.4 60.3 26 54.6 32zm-7.7-5.5c8.3-5.6 16.6-11.1 25.2-16.1-7.7.9-16 3.5-23.6 5-3.9.8-6.1 1-10 1.8-.5.1-1.2 1.1-1.5 1.6 2.8 3.2 6.6 5.1 9.9 7.7zm3.7 12.7c1.5-.5 2.9-1.3 4.2-2.4l-1.5-1.7-2.7 4.1zM4.1 43c9.3-6.6 18.8-13.4 28.8-19 .9-.3 1.8.6 1.6 1.4-.1.7-.9 1-1.4 1.4-7.5 4.8-14.9 9.7-22 14.9-1.8 1.2-3.6 2.4-5.3 3.6-.3.2-.7.2-1 .2-1.4-.1-1.7-1.8-.7-2.5zm43.2 26.6c-1.3 1-4.7 6.1-5.8 2.7 0-.8.7-1.4 1.2-2.1 3.3-3.8 6.7-7.5 10-11.3 2.5-3 4.9-6.2 7.4-9.3.6-1.1 2.1-1.4 2.6 0 .2.5-.1 1.1-.4 1.5-4.5 6.5-10 12.4-15 18.5zm.5-13.4c-2.9 3-5.8 6-8.7 9.1-.8.8-1.3 2.2-2.6 2.4-1 .1-1.7-1-1.3-1.9 5.7-7.7 13.5-14.3 20.7-20.5 1.2-.8 2.6.8 1.6 1.9-.6.9-8.7 8.1-9.7 9zM28.3 38.1c2.6-2.2 5-4.4 7.5-6.5.7-.5 1.5-1.2 2.4-.8.9.4 1 1.7.2 2.2-1.6 1.4-3.1 2.8-4.7 4.2-1.8 1.6-3.6 3.3-5.3 4.9-.7.6-1.5 1.5-2.5 1.4-.7-.1-1.2-.8-1.2-1.4 0-.3.2-.6.4-.9 1.1-1.1 2.2-2.1 3.2-3.1z"/></svg>