<svg width="80" height="80" viewBox="0 0 80 80" fill="none" xmlns="http://www.w3.org/2000/svg"><path d="M56.92 39.2c-.37.19-.72.38-1.08.55l-7 3.32a2.21 2.21 0 01-2.16-.07c-.19-.11-.43-.24-.5-.41-.5-1.33-1.5-2.42-1.34-4.05.28-2.84.29-5.72.5-8.57a1.64 1.64 0 00-.76-1.66c-1.72-1.19-3.45-2.37-5.12-3.62a28.747 28.747 0 01-5.23-5.34 1.24 1.24 0 01.22-1.92 2 2 0 00.53-.51 3.29 3.29 0 012.55-1.71c2.85-.54 5.7-1.07 8.54-1.67C51.81 12.32 57.54 11 63.29 9.8c3.63-.75 7.28-1.39 10.93-2.05a2.26 2.26 0 012.48 2.82 129.746 129.746 0 01-4.38 15.35c-1.6 4.85-2.8 9.81-3.95 14.79-.31 1.35-.74 2.69-1.11 4a4.09 4.09 0 01-.26.72 1.441 1.441 0 01-2.23.51 46.913 46.913 0 01-7.4-6.39 4.923 4.923 0 00-.45-.35zM54.63 32c1 1.66 9.33 10.83 10.55 11.28.2-.7.72-2.07.88-2.78 1.12-4.83 1.86-8.17 3.37-12.89 1-3.18 2.35-7.08 3.37-10.26.08-.25 1.67-4.37 1.76-4.83C68.55 18.43 60.34 26 54.63 32zm-7.69-5.53c.32-.24 1.1-.7 1.39-.91 2.24-1.66 4.71-3.17 7-4.69 4.47-2.93 8.51-5.5 13-8.35.23-.14 3.61-2 3.81-2.2-.39-.08-4.66.66-5 .73-5.87 1.28-12.72 3-18.6 4.25-3.88.82-6.08 1-10 1.76-.49.1-1.22 1.07-1.55 1.59 2.82 3.35 6.61 5.23 9.95 7.82zm20.29-10l-.23-.13c-2.08 1.29-4.21 2.53-6.25 3.89-3.9 2.61-7.76 5.28-11.63 7.94a1.68 1.68 0 00-.66.69 7.19 7.19 0 00-.59 2.76c0 1.87-.08 3.74-.12 5.61.013.292.047.583.1.87.23-.33.36-.5.47-.68l3.23-5.25c.51-.85.95-1.76 2-2.07.16-.05.28-.23.41-.36l12.36-12.4.91-.87zM50.57 39.15a11.93 11.93 0 004.16-2.38l-1.5-1.66-2.66 4.04zM4.07 43l.93-.64c4.64-3.27 9.23-6.64 14-9.79 4.3-2.87 8.75-5.51 13.13-8.24.214-.145.45-.253.7-.32a1.24 1.24 0 011.48.64 1.22 1.22 0 01-.3 1.5c-.316.254-.65.485-1 .69-3.9 2.55-7.84 5-11.69 7.64-3.5 2.36-6.9 4.86-10.35 7.29-1.63 1.09-3.21 2.16-4.79 3.23a5.22 5.22 0 01-.55.36A1.43 1.43 0 013.76 45a1.49 1.49 0 01.31-2zm43.25 26.63l-3 3a3.759 3.759 0 01-1.09.72 1.19 1.19 0 01-1.41-.32 1.22 1.22 0 01-.14-1.53c.303-.45.637-.877 1-1.28 3.33-3.78 6.72-7.49 10-11.33 2.55-3 4.93-6.21 7.39-9.31a3.06 3.06 0 01.68-.71 1.17 1.17 0 011.43 0 1.19 1.19 0 01.41 1.47c-.1.237-.228.462-.38.67a143.435 143.435 0 01-9.26 12c-1.867 2.16-3.74 4.323-5.62 6.49l-.01.13zm.5-13.44c-2.893 3.02-5.78 6.047-8.66 9.08-.37.39-.69.85-1 1.27a5.616 5.616 0 01-.75.79 1.34 1.34 0 01-2.14-1.51 3.09 3.09 0 01.54-.95c1.37-1.58 2.72-3.18 4.16-4.69a157.4 157.4 0 0113.67-12.87c.56-.46 1.09-1 1.64-1.47.224-.2.465-.381.72-.54a1.25 1.25 0 011.61.15 1.27 1.27 0 010 1.71c-.25.314-.528.605-.83.87l-8.4 7.78c-.16.15-.31.31-.47.47l-.09-.09zM28.3 38.11c2.58-2.22 5-4.37 7.52-6.49a4.999 4.999 0 011.52-.86 1.17 1.17 0 011.47.64 1.25 1.25 0 01-.38 1.6c-1.57 1.38-3.14 2.76-4.69 4.16-1.79 1.63-3.55 3.29-5.34 4.92-.46.422-.955.803-1.48 1.14a1.29 1.29 0 01-1.87-.22 1.28 1.28 0 01.16-1.79c1.04-1.09 2.12-2.13 3.09-3.1z" fill="#000"/><path d="M67.23 16.5l-.85.84L54 29.74c-.13.13-.25.31-.41.36-1.07.31-1.51 1.22-2 2.07l-3.23 5.25c-.11.18-.24.35-.47.68a6.386 6.386 0 01-.1-.87c0-1.87.13-3.74.12-5.61a7.19 7.19 0 01.59-2.76 1.68 1.68 0 01.66-.69c3.87-2.66 7.73-5.33 11.63-7.94 2-1.36 4.17-2.6 6.25-3.89l.19.16z" fill="#000"/></svg>