<svg viewBox="0 0 80 80" fill="none" xmlns="http://www.w3.org/2000/svg"><path d="M50.51 43.89a4.86 4.86 0 01-.88 4c-.24.323-.508.624-.8.9a22.998 22.998 0 01-4.34 3.33c-.877.487-1.794.898-2.74 1.23-1.49.55-3 1-4.5 1.55-.12 0-.24.09-.37.12a.82.82 0 01-.94-.38.8.8 0 01.24-1 5.2 5.2 0 01.72-.51 10.859 10.859 0 003-2.7c.25-.336.481-.687.69-1.05.37-.63.7-1.28 1.07-1.91a6.45 6.45 0 00.89-2.8 5.62 5.62 0 01.23-1l-2-.81a2.853 2.853 0 01-.12.66c-.105.19-.237.365-.39.52-.41.51-.79 1-1.24 1.53-.297.3-.634.56-1 .77a1 1 0 01-1.09-.1 4.002 4.002 0 01-.71-.59 20.101 20.101 0 01-4-6.21l-.23-.12c-.32-1-.14-1.27.77-1.69.91-.42 2-1 3-1.53l-.16-2.19c-.53.07-1 .15-1.54.19-2.21.21-4.348.892-6.27 2a17.542 17.542 0 00-2.87 1.9c-.097.082-.2.156-.31.22a.93.93 0 01-1.08-.08.8.8 0 01-.12-1c.31-.54.63-1.07 1-1.59a27.002 27.002 0 015.13-5.88c.84-.73 1.72-1.42 2.62-2.08a6.8 6.8 0 015.5-1.32c.58-.83 1.12-1.68 1.74-2.47a25 25 0 017.35-6.23 34.9 34.9 0 0111.52-3.89 40.05 40.05 0 017.57-.74c1.14 0 2.29.18 3.44.28.248.028.498.011.74-.05a2 2 0 011 0A3.08 3.08 0 0173 15.06a8 8 0 01.48 5.35 20.162 20.162 0 01-1.79 4.29 47.802 47.802 0 01-6.3 9.3 33.327 33.327 0 01-3.8 3.62 46.418 46.418 0 01-4.89 3.62 20.93 20.93 0 01-5.84 2.59l-.35.06zm6.25-28.41c-1 .26-1.94.48-2.87.75a27 27 0 00-10.26 5.36 20.469 20.469 0 00-4.24 4.85 13.94 13.94 0 00-2 9.08 7.49 7.49 0 002.63 5 8.92 8.92 0 004.08 1.9 14.63 14.63 0 009-1.08 25.91 25.91 0 004.75-2.83 36.72 36.72 0 009.65-9.84c.07-.11.13-.24.21-.38A14.72 14.72 0 0164 25.68c-.69-.67-1.34-1.4-2-2.13-.93-1.08-1.89-2.14-2.75-3.27-.69-.92-1.26-1.92-1.87-2.9a3.26 3.26 0 01-.62-1.9zM71.22 15c-.41.2-.76.28-1 0a1 1 0 00-.76-.33 35.109 35.109 0 00-10.58.44 1.54 1.54 0 00-.24.1c1 1.06 1 1.17.47 1.9.4.65.78 1.31 1.21 1.95.43.64.87 1.22 1.35 1.79.71.83 1.45 1.64 2.19 2.45.38.42.76.84 1.16 1.24a18.268 18.268 0 003.49 2.51s.07 0 .09-.07l.46-.74a30.404 30.404 0 002.79-5.7 6.58 6.58 0 00-.06-4.4 9.903 9.903 0 00-.57-1.14zM44.05 44a6.71 6.71 0 01-.61 3.42 24.935 24.935 0 01-2.78 4.6c.165-.027.329-.064.49-.11.57-.22 1.16-.43 1.72-.7a19.998 19.998 0 005.26-4 3.288 3.288 0 001-2.51 6.493 6.493 0 00-.11-.66 15.88 15.88 0 01-4.97-.04zm-7-16.5h-.77a6.28 6.28 0 00-3.14 1.2 24.3 24.3 0 00-3.65 3.05c-.85.86-1.63 1.78-2.43 2.68-.08.117-.15.24-.21.37l.29-.13a17.22 17.22 0 017.39-2.22h1.24A16.4 16.4 0 0137 27.54l.05-.04zm.49 17.36c.94-.77 1.33-1.91 2.38-2.48a9.06 9.06 0 01-3.72-4.93L33.61 39a17.67 17.67 0 003.92 5.9l.01-.04z" fill="#000"/><path d="M29.11 66c-.24.21-.43.41-.65.57a3.39 3.39 0 01-2.22.64 9.773 9.773 0 01-2.57-.51A3.13 3.13 0 0122 65.33a5.82 5.82 0 01-1-3 .81.81 0 00-.22 0A6.111 6.111 0 0116 61.18a2.8 2.8 0 01-1.06-1.56 5.851 5.851 0 01-.21-2.62c0-.16.06-.32.09-.52h-.38a8.673 8.673 0 01-2.57-.54 4.53 4.53 0 01-3-4 3.89 3.89 0 01.65-2.56c.26-.44.59-.83.89-1.25l.23-.33-.4-.22a9.41 9.41 0 01-1-.73A3.37 3.37 0 018.29 43a4.45 4.45 0 012.56-2.77 10.14 10.14 0 014.71-.77A5 5 0 0119 41.09a6.84 6.84 0 011.34 2.56c0 .14.07.28.12.47.149-.032.296-.072.44-.12l5.56-2.71 3.79-1.85a.7.7 0 11.75 1.14c-.32.21-.66.38-1 .56L22.45 45c-.65.32-1.33.58-2 .89L20.18 47l.92 1.33c.106-.026.21-.059.31-.1a3.919 3.919 0 013.15 0 .71.71 0 00.83-.13c2-1.58 3.95-3.13 5.93-4.69a1.86 1.86 0 01.43-.25.63.63 0 01.77.23.67.67 0 010 .82c-.093.11-.197.21-.31.3-1.92 1.59-3.83 3.18-5.76 4.74a1.328 1.328 0 00-.58 1.14 23.134 23.134 0 01-.22 2.34 2.812 2.812 0 000 .31 5.71 5.71 0 01.86-.15 8.687 8.687 0 011.53 0 .65.65 0 00.72-.32 60.616 60.616 0 014.83-5.88 1.61 1.61 0 01.37-.32.68.68 0 01.94.9 2.272 2.272 0 01-.26.35c-1.51 1.93-3 3.85-4.54 5.77-.11.14-.21.3-.3.43.29.556.545 1.13.76 1.72.141.6.242 1.207.3 1.82.5 0 1-.09 1.58-.09a3.5 3.5 0 012.68 1c.36.414.656.88.88 1.38a6.66 6.66 0 01.89 3.84 3.73 3.73 0 01-2.62 3.44 4.82 4.82 0 01-5.16-.93zm-7.76-5.8c.14-.11.31-.27.51-.4a.71.71 0 01.82 0 .69.69 0 01.32.76c-.034.16-.087.314-.16.46a3.54 3.54 0 00.65 3.74c.137.168.317.295.52.37a6.88 6.88 0 002.4.51 1.69 1.69 0 001.25-.46 2.21 2.21 0 00.78-1.18.86.86 0 011-.69c.39.07.59.39.62.9a1 1 0 00.21.59c.24.27.533.487.86.64a3.44 3.44 0 002.67 0 2.31 2.31 0 001.6-2.2 5.61 5.61 0 00-.9-3.22 2.2 2.2 0 00-1.87-1.16 5.37 5.37 0 00-2.41.39c-.15.069-.303.129-.46.18a.77.77 0 01-1-.88c.02-.165.07-.325.15-.47a2.66 2.66 0 00-.09-2.76 1.53 1.53 0 00-1.64-.91c-.45.069-.895.173-1.33.31a8.973 8.973 0 00-.84.38.87.87 0 01-1.24-.8 1.55 1.55 0 01.07-.48c.287-1.059.462-2.145.52-3.24v-.44a.43.43 0 00-.32-.45 2.55 2.55 0 00-2.08 0c-.34.16-.67.36-1 .55-.81.48-1.39.18-1.4-.73a2.05 2.05 0 00-.33-1.3.55.55 0 01-.1-.31.511.511 0 00-.22-.4.67.67 0 01-.17-.88 3.91 3.91 0 00-.39-3.62 3.6 3.6 0 00-3.15-2 8.711 8.711 0 00-2.82.32 4.4 4.4 0 00-1.85.91 2.28 2.28 0 00.53 4l.2.09.76.32a.909.909 0 01.36 1.58c-.13.14-.26.26-.38.4-.39.5-.81 1-1.16 1.52a2.46 2.46 0 00-.43 1.83 3 3 0 002.2 2.55l.79.21a2.71 2.71 0 002.32-.24.73.73 0 01.92 0 .84.84 0 01.26.9 4.533 4.533 0 01-.26.6 4.61 4.61 0 00-.31 3 1.691 1.691 0 00.92 1.22c.547.255 1.112.468 1.69.64a2.201 2.201 0 002.41-.65zM71.22 15a9.9 9.9 0 01.57 1.12 6.58 6.58 0 01.06 4.4 30.404 30.404 0 01-2.79 5.7l-.46.78s-.06 0-.09.07A18.27 18.27 0 0165 24.54c-.4-.4-.78-.82-1.16-1.24-.74-.81-1.48-1.62-2.19-2.45-.48-.57-.92-1.18-1.35-1.79-.43-.61-.81-1.3-1.21-1.95.52-.73.49-.84-.47-1.9a1.53 1.53 0 01.24-.1c3.484-.68 7.051-.83 10.58-.44a.999.999 0 01.76.33c.26.3.61.22 1.02 0z" fill="#000"/><path d="M21.35 60.2a2.2 2.2 0 01-2.41.61 12.24 12.24 0 01-1.69-.64 1.688 1.688 0 01-.92-1.17 4.61 4.61 0 01.31-3c.101-.193.188-.394.26-.6a.84.84 0 00-.26-.9.73.73 0 00-.92 0 2.71 2.71 0 01-2.32.24l-.79-.21a3 3 0 01-2.2-2.55 2.46 2.46 0 01.43-1.83c.35-.53.77-1 1.16-1.52.12-.14.25-.26.38-.4A.91.91 0 0012 46.6l-.76-.32-.2-.09a2.28 2.28 0 01-.53-4 4.402 4.402 0 011.85-.91 8.711 8.711 0 012.82-.32 3.6 3.6 0 013.15 2 3.91 3.91 0 01.36 3.68.67.67 0 00.17.88.51.51 0 01.22.4.55.55 0 00.1.31c.253.384.369.842.33 1.3 0 .91.59 1.21 1.4.73.33-.19.66-.39 1-.55a2.551 2.551 0 012.08 0 .43.43 0 01.32.45v.44a15.519 15.519 0 01-.52 3.24 1.55 1.55 0 00-.07.48.87.87 0 001.24.8c.273-.14.554-.268.84-.38a8.85 8.85 0 011.33-.31 1.53 1.53 0 011.64.91 2.66 2.66 0 01.09 2.76 1.29 1.29 0 00-.15.47.77.77 0 001 .88c.157-.051.31-.111.46-.18a5.37 5.37 0 012.41-.39 2.201 2.201 0 011.87 1.16c.62.957.934 2.08.9 3.22a2.31 2.31 0 01-1.6 2.2 3.44 3.44 0 01-2.67 0 2.65 2.65 0 01-.86-.64 1 1 0 01-.21-.59c0-.51-.23-.83-.62-.9a.86.86 0 00-1 .69 2.21 2.21 0 01-.78 1.16 1.69 1.69 0 01-1.25.46 6.878 6.878 0 01-2.4-.51 1.21 1.21 0 01-.52-.37 3.54 3.54 0 01-.6-3.76c.073-.146.126-.3.16-.46a.69.69 0 00-.32-.76.71.71 0 00-.82 0c-.2.15-.37.31-.51.42zm27.06-26.48a8.08 8.08 0 01-1.53-3.53 4.73 4.73 0 011.12-4 5 5 0 018.54 1 .7.7 0 00.34.4.76.76 0 01.46.69 8.76 8.76 0 01-.61 4.51 4.18 4.18 0 01-3.57 2.63 6.12 6.12 0 01-3-.25 3.29 3.29 0 01-1.75-1.45zm1.31-.85c.228.372.584.65 1 .78a4.81 4.81 0 002.16.17 2.81 2.81 0 002.5-1.93c.32-.93.48-1.907.47-2.89a.44.44 0 00-.27-.48.73.73 0 01-.39-.67 1.13 1.13 0 00-.2-.6 3.87 3.87 0 00-2.67-1.55 2.29 2.29 0 00-1.39.19 6.13 6.13 0 00-1.3.8 3.38 3.38 0 00-1.22 3.11 6.61 6.61 0 001.31 3.07z" fill="#000"/></svg>