<svg width="80" height="80" fill="none" xmlns="http://www.w3.org/2000/svg"><path d="M25.36 35.88c-.12-1-.18-1.94-.36-2.88a104.527 104.527 0 01-1.28-12c-.06-.89-.16-1.78-.23-2.67a1.23 1.23 0 01.69-1.18l3.87-2.44c2.953-1.88 5.9-3.77 8.84-5.67A2.25 2.25 0 0139 8.63c1 .34 2 .57 3 .87 2.07.61 4.14 1.28 6.22 1.86 3.06.85 6.14 1.64 9.21 2.46a1.51 1.51 0 011.3 1.66c.07 1.25.16 2.51.29 3.76.24 2.14.51 4.27.77 6.41.34 2.82.673 5.64 1 8.46a1.56 1.56 0 01-.64 1.64 19.899 19.899 0 01-5 2.62c-.45.17-.88.37-1.43.6.5.14.88.22 1.25.36.57.22 1.13.48 1.69.72s.85.39 1.3.53a1.119 1.119 0 01.83 1.48 1.47 1.47 0 000 .47c.07 1.37.15 2.75.22 4.12.012.146.012.294 0 .44 1 .06 2 .2 2.94.18 3.19-.06 6.34.46 9.51.71a2.13 2.13 0 011.67 2v1.58c0 3.4.06 6.79.11 10.19a2.35 2.35 0 01-.88 2L66 68.86a7.92 7.92 0 01-1.84 1.4A1.25 1.25 0 0162.5 70a.64.64 0 00-.39-.14c-2.72-.29-5.45-.51-8.17-.87-2.72-.36-5.11-.84-7.67-1.25-1.14-.19-2.29-.33-3.44-.48a1.17 1.17 0 01-.93-.57c-.17-.27-.39-.5-.63-.81-1.11.52-2.25 1-3.35 1.57a56.163 56.163 0 01-8.38 3.27c-.93.3-1.37.09-1.86-.79-.66.33-1.2 0-1.8-.3-1.48-.77-3-1.43-4.49-2.21C18 65.64 14.57 63.79 11.15 62a1.19 1.19 0 00-.72-.11 1.27 1.27 0 01-1.56-.93 14 14 0 01-.24-2c-.19-2.76-.37-5.53-.55-8.29-.11-1.65-.21-3.31-.3-5 0-.7 0-1.41-.06-2.11a8 8 0 00-.19-1.29 1.24 1.24 0 01.78-1.45c.59-.22 1.2-.38 1.8-.55L25 36l.36-.12zm2 31.93c0-.7-.09-1.34-.12-2a4408.4 4408.4 0 01-.46-13.1.57.57 0 00-.37-.6c-1.79-.84-3.56-1.72-5.34-2.59l-10.76-5.21c-.14-.07-.3-.13-.51-.21 0 .43 0 .78.07 1.13.16 1.75.34 3.5.47 5.25.21 2.82.38 5.65.56 8.47 0 .33.13.47.47.46a1 1 0 011.06.71.71.71 0 00.36.34l14.07 7.13c.14.08.31.13.53.22h-.03zm15.69-27.65c0-.25 0-.43-.07-.62-.58-5-1.17-9.92-1.74-14.88 0-.29-.11-.45-.44-.54a2107.03 2107.03 0 01-13.12-3.58c-.65-.18-1.27-.42-2-.69l1.84 15.45a1.48 1.48 0 011.48.58.69.69 0 00.38.19c3.69.86 7.3 2 10.91 3.19l2.76.9zM54 41.3v-.16l-2.47-.41a1.08 1.08 0 01-.49-.14.59.59 0 00-.68 0c-1.41.63-2.81 1.24-4.23 1.85a3.43 3.43 0 01-1.32.44 9.201 9.201 0 01-2-.3c-.89-.26-1.73-.7-2.63-1-4-1.26-8.11-2.48-12.17-3.74a2 2 0 00-1.15 0c-2.59.73-5.18 1.47-7.78 2.18-2.6.71-5 1.32-7.47 2l-.54.18 15.76 7.65 1.17-.48.46-.13a1324.69 1324.69 0 019.46-3c2.54-.79 5.16-1.27 7.64-2.29 1.94-.79 4-1.33 6-2 .81-.23 1.6-.43 2.44-.65zM43.29 53.88v.37c.1 2.37.2 4.74.27 7.11 0 1-.06 2 0 3 0 .77.2.92.85 1 1.76.19 3.51.49 5.27.72 3.68.487 7.367.967 11.06 1.44.186.015.374.015.56 0V56.44h-.49c-1.17-.13-2.33-.24-3.49-.39-2.08-.27-4.15-.58-6.22-.85-1.57-.21-3.14-.37-4.7-.61-1.04-.2-2.05-.47-3.11-.71zM27 18.1l.44.15c4.52 1.2 9.05 2.39 13.57 3.61a2.16 2.16 0 001.79-.27c.81-.46 1.63-.91 2.48-1.32 2.11-1 4.25-2 6.37-3.07 1.07-.53 2.1-1.14 3.22-1.76-.21-.07-.32-.12-.44-.15-1.37-.34-2.73-.68-4.1-1a1.31 1.31 0 00-.62 0 1.28 1.28 0 01-1.45-.29.92.92 0 00-.44-.25c-2.3-.59-4.59-1.19-6.9-1.73-1.14-.27-2.32-.44-3.48-.62a.8.8 0 00-.52.14l-8.39 5.56c-.53.34-1.01.65-1.53 1zm18.41 33.95v.19c1.54.2 3.07.41 4.6.59 1.83.21 3.67.36 5.5.59 1.58.19 3.15.49 4.73.65.51.06 1.13.14 1.49-.5.08-.16.36-.21.56-.3.18-.05.357-.11.53-.18L68 50.18c.09 0 .16-.13.33-.26-1.15-.11-2.19-.28-3.22-.28-3.82 0-7.6-.44-11.4-.75-.71 0-1.5-.33-2.14.32 0 0-.1 0-.16.06-2.16.6-3.99 1.88-6 2.78z" fill="#000"/></svg>