<svg width="80" height="80" fill="none" xmlns="http://www.w3.org/2000/svg"><path d="M58.9 49.42l-2.63-4.49a8.405 8.405 0 01-.64-1.19c-.25-.6-.55-.74-1-.66a41.069 41.069 0 01-10.56.39c-2-.13-3.26-2.47-3-5.66A10 10 0 0143 32.2a3.208 3.208 0 012.26-1.35c.73 0 1.46-.1 2.18-.16l.41-.05c-1-2.41-1.86-4.78-2.8-7.13a.46.46 0 00-.39-.26c-2.35.15-4.69.32-7 .46-.3 0-.49.18-.68.56-1.32 2.72-2.67 5.42-4 8.13-.12.23-.23.47-.39.8l1.09.27c.246.038.49.091.73.16a1.49 1.49 0 011 1.24c.333 1.647.367 3.34.1 5a3.33 3.33 0 01-1.85 2.75c-1.12.47-2.25.89-3.4 1.34.02.102.046.202.08.3 1 2.59 2.06 5.17 3.07 7.78.19.49.4.69.75.7 2 .08 4.07.19 6.1.26 2.35.08 4.7.12 7 .19.244.007.486.043.72.11.77.25 1.09 1 1 2.24.33.34.67.67 1 1a5.66 5.66 0 011.36 4.56c-.19 2.19-.84 3.89-2.23 4.51a14.71 14.71 0 01-3.24 1c-2.46.48-4.92 1-7.38 1.27-3.35.34-6.7.45-10.05.63a9.587 9.587 0 01-1.5-.18c-1.82-.21-2.57-2.44-2.63-4.45-.05-1.73.16-3.49.27-5.23 0-.52.11-1 .19-1.55.46-3.06 1.65-4.62 3.63-4.72h2.53c-.34-1-.65-1.88-1-2.77-.71-1.61-1.34-3.19-1.93-4.81-.13-.33-.27-.46-.53-.39-1.38.37-2.76.72-4.15 1-.62.15-1.26.2-1.88.32a.75.75 0 00-.48.25c-1.51 2-3 4.12-4.45 6.08.44.958.828 1.94 1.16 2.94a10 10 0 01-1 7c-2.13 3.26-4.8 3.75-7.31 1.55-1.89-1.65-2.68-7.19-1.51-10.07a3.73 3.73 0 012.33-2.44 1.54 1.54 0 00.61-.31c1.22-1.07 2.42-1.17 3.61.13l3.74-6.33C16.55 42 16.22 37.34 17.58 34c.59-1.46 1.47-2.3 2.56-2.25 2.19.09 4.38.26 6.57.47 1.1.1 2.19.35 3.29.5a.41.41 0 00.35-.24c1.24-2.65 2.47-5.32 3.71-8 0-.07.06-.15.11-.3a2.809 2.809 0 00-.34-.05c-1.68.09-3.35.19-5 .27a3.22 3.22 0 01-1-.07c-.71-.17-1.17-.85-1.37-1.93a21.348 21.348 0 01.62-10.58 5.748 5.748 0 013-3.71 11.24 11.24 0 014.06-1c4.15-.32 8.23.62 12.32 1.53.468.19.992.19 1.46 0 .57-.31 1.11.14 1.4.95a32.476 32.476 0 012 7.16 8.734 8.734 0 01-.16 3.1 3.22 3.22 0 01-1.62 2.36c-.58.213-1.17.394-1.77.54-.15.05-.31.08-.51.13a42.86 42.86 0 002.86 6.32c.35.504.756.967 1.21 1.38.1.11.27.09.41.09h4.13a1.77 1.77 0 011.72 1.22c.57 1.19 1.27 2.23 1.84 3.42a7.42 7.42 0 01.52 4.3 2.89 2.89 0 01-1.51 2.53l-.82.35c.37.55.67 1 1 1.46 1.09 1.57 2.19 3.15 3.3 4.7a.58.58 0 00.46.23c3.76.08 7.51.13 11.26.21a1.68 1.68 0 011.37 1c2.3 3.72 1.44 10.31-2.15 12A15.87 15.87 0 0169 63.33a38.21 38.21 0 01-9.65.7 15.79 15.79 0 01-2.94-.53 3.36 3.36 0 01-2.14-3.5c.1-2.21.17-4.42.35-6.61.14-1.67.78-2.75 1.86-3.09.85-.3 1.7-.63 2.42-.88zm2.32 11.22c1.75-.15 3.38-.2 5-.45a41.584 41.584 0 005.23-1.1c1.69-.48 2.37-1.65 2.56-4 .1-1.21-.39-2.85-1.52-2.84-3 0-5.93.08-8.9.14a.51.51 0 00-.37.22c-.56.74-1.12.81-1.74.22-.15-.14-.34-.29-.5-.25-1.22.29-2.43.63-3.64.93-.45.11-.64.5-.67 1.17 0 1.3-.14 2.6-.17 3.9-.03 1.3 0 1.47.88 1.61 1.32.23 2.62.33 3.84.45zm-11.16-26.4v-.12l-4.72.26a1.63 1.63 0 00-1.4 1.26 13.138 13.138 0 00-.63 2.8c-.12.93.26 1.49.86 1.49 2.55 0 5.1.12 7.64 0a44.414 44.414 0 005.46-.93c.56-.11.68-.54.43-1.36a3.186 3.186 0 00-.25-.63c-.43-.82-.92-1.57-1.29-2.46a.87.87 0 00-1-.64l-5.1.33zm-17.44 2.3c-.67-.1-1.46-.24-2.24-.35-1.53-.21-3.05-.46-4.58-.6-1.85-.17-3.69-.24-5.54-.36-.43 0-.76.29-.91.93a12.599 12.599 0 00-.32 4c.11 1.23.44 1.82 1.13 1.88.809.12 1.631.12 2.44 0 2.34-.46 4.673-.987 7-1.58a31.186 31.186 0 003.4-1.21c.34-.14.45-.76.27-1.18-.18-.42-.42-.94-.65-1.53z" fill="#000"/></svg>