<svg xmlns="http://www.w3.org/2000/svg" viewBox="0 0 80 80"><path d="M25.4 35.9c-.8-5.8-1.5-11.7-1.9-17.6 0-.5.2-1 .7-1.2l3.9-2.4c3.3-2 6.4-4.4 9.8-6.1.4-.1.7 0 1.1.1 3.1.9 6.1 1.8 9.2 2.7 3.1.8 6.1 1.6 9.2 2.5.4.1.7.3 1 .6.2.3.4.7.3 1.1.2 3.4.7 6.8 1.1 10.2.2 3.1 1 6.3.9 9.4-1.5 2.1-4.7 2.9-7 3.9 1.5.3 2.9 1.1 4.2 1.6.3.1.6.3.8.5.2.3.2.6.1.9 0 1.7.2 3.4.2 5 4.2.2 8.3.4 12.4.9 1.7.4 1.8 2.1 1.7 3.6 0 3.4.1 6.8.1 10.2.1.8-.3 1.5-.9 2l-6.4 5.1c-.8.7-1.6 1.6-2.7 1.6-.5 0-.7-.6-1.2-.6-5.3-.5-10.7-1.2-15.8-2.1-1.3-.3-2.7-.2-4-.6-.4-.3-.6-.8-1-1.2-3.8 1.8-7.6 3.7-11.7 4.8-.9.3-1.4.1-1.9-.8-.7.3-1.2 0-1.8-.3-1.5-.8-3-1.4-4.5-2.2l-10.2-5.4c-.4-.2-.8 0-1.2-.1-.5-.1-.9-.5-1.1-1-.5-5.1-1.2-14.5-1.2-19.6.5-.8 1.6-.8 2.5-1.1L25 36l.4-.1zm2 31.9c-.3-5-.4-10.1-.6-15.1 0-.3-.1-.5-.4-.6-3.9-1.8-12.6-6.2-16.6-8 .4 5 .8 9.9 1.1 14.9 0 .3.1.5.5.5.5-.1.9.3 1.1.7.1.2.2.3.4.3L27 67.6c0 .1.2.1.4.2zM43 40.2c-.6-5.2-1.2-10.3-1.8-15.5 0-.3-.1-.4-.4-.5-5.1-1.4-10.1-2.6-15.1-4.3l1.8 15.4c.6-.1 1.2.1 1.5.6.1.1.2.2.4.2 4.6 1 9.2 2.6 13.6 4.1zm11 1.1v-.2c-.4-.1-2.6-.4-3-.5-.2-.1-.5-.1-.7 0l-4.2 1.8c-1.9 1.1-4.1-.2-5.9-.9-4-1.3-8.1-2.5-12.2-3.7-.4-.1-.8-.1-1.1 0-2.6.7-5.2 1.5-7.8 2.2-2.8.8-5.4 1.4-8 2.2l15.8 7.6c3.6-1.4 7.4-2.4 11.1-3.6 5.4-1.3 10.5-3.5 16-4.9zM43.3 53.9l.3 7.5c0 1-.1 2 0 3 0 .8.2.9.9 1 5.5.6 11.1 1.6 16.8 2.1V56.4c-3.4-.2-6.8-.8-10.2-1.2-2.6-.3-5.2-.6-7.8-1.3zM27 18.1c4.6 1.3 9.3 2.5 14 3.8.3.1.6.1.9.1 4.3-2.1 8.7-4.1 12.9-6.5-1.5-.5-3-.8-4.5-1.2-.5-.2-.9.2-1.4.1-.5 0-.7-.5-1.1-.6-2.3-.6-4.6-1.2-6.9-1.7-1.1-.3-2.3-.4-3.5-.6-.2 0-.4 0-.5.1-1 .6-9 5.9-9.9 6.5zM45.4 52v.2c4.9.7 9.9 1.1 14.8 1.8.5.1 1.1.1 1.5-.5.2-.3.8-.3 1.1-.5l5.2-2.9c.1 0 .2-.1.3-.3-4.9-.5-9.7-.5-14.6-1-.7 0-1.5-.3-2.1.3-2.2.7-4.1 2-6.2 2.9z"/></svg>