<svg width="80" height="80" fill="none" xmlns="http://www.w3.org/2000/svg"><path d="M23.26 42.66c-.44-.65-.92-1.32-1.35-2A18.76 18.76 0 0119 29.18a17.88 17.88 0 0110.8-15.72 17.221 17.221 0 015.9-1.54c.29 0 .39-.14.5-.41.667-1.6 1.333-3.19 2-4.77a1.76 1.76 0 011.23-1.15.36.36 0 00.18-.2 1 1 0 01.81-.6 2.3 2.3 0 012.86 1.52c.22.608.35 1.245.39 1.89 0 .7-.42 1.1-1.13 1.13a.43.43 0 00-.28.17L41 12.12a20.78 20.78 0 0112.56 7.5A19.8 19.8 0 0158 33.46c.87.21 1.72.41 2.57.63a34.43 34.43 0 017 2.38 13.86 13.86 0 015 4.24 5.93 5.93 0 011 4v2.68c-.13 1.41-.34 2.81-.5 4.22-.005.165.016.33.06.49.1.264.164.54.19.82a20.38 20.38 0 01-.49 3.81A4.69 4.69 0 0171 59.28 7.86 7.86 0 0166.11 61c-1.111 0-2.22.08-3.32.24a7.22 7.22 0 00-1.66.51 62.3 62.3 0 00-11 5.91c-2.34 1.57-4.73 3.06-7.14 4.52-1 .58-2 1-3 1.48-.24.12-.45.3-.68.44a2.52 2.52 0 01-.67.35 32.739 32.739 0 01-10.2.89 35.649 35.649 0 01-4.66-.86c-2.56-.59-5.12-1.18-7.64-1.9a38.446 38.446 0 01-4.46-1.74 4 4 0 01-2.2-3.07c-.27-1.21-.4-2.45-.57-3.68-.12-.89-.23-1.78-.3-2.67-.05-.55 0-1.11 0-1.66v-5.81c0-.63.18-1.25.25-1.87.07-.62.1-1.22.16-1.82a1.56 1.56 0 01.94-1.41c.76-.35 1.51-.73 2.26-1.09 2.84-1.36 5.66-2.73 8.5-4.07.77-.37 1.66-.69 2.54-1.03zm12.26-28.78c-.47.07-.9.12-1.31.2a16.002 16.002 0 00-10.86 7.41A16.441 16.441 0 0022.23 37a18.57 18.57 0 0020.41 11.3 15.719 15.719 0 0011-7.38 16.439 16.439 0 00.81-16.32 18.38 18.38 0 00-12.99-10.41c-.33-.08-.67-.12-1-.18a12.538 12.538 0 00-.54 4.19c.81-.23 1.58-.44 2.34-.67a.89.89 0 011.25.91 1.12 1.12 0 01-.85 1 11.11 11.11 0 01-3.81.73c-1.43-.05-2.86-.17-4.29-.33a5.08 5.08 0 01-2.4-.83 1 1 0 01-.32-1.41 1.12 1.12 0 011.54-.09 2 2 0 001.39.51c0-.228.017-.455.05-.68.1-.45.25-.9.34-1.35.13-.69.23-1.36.36-2.11zM11 54.56v.2c-.07 1.44-.14 2.89-.19 4.34a.75.75 0 00.18.5 7.51 7.51 0 002.61 1.89c1.07.48 2.17.92 3.21 1.46a26.09 26.09 0 006.65 2.56c.51.1 1.05 0 1.56.13s1 .32 1.53.41c.53.09 1.17.1 1.75.17.58.07 1 .19 1.48.22 1.53.08 3.06.15 4.59.17.86 0 1.72-.11 2.54-.17l.37-3.93h-.13c-2-.32-4-.64-6-1-.44-.07-.87-.25-1.32-.32-.69-.1-1.4-.1-2.08-.23-.68-.13-1.47-.42-2.21-.63l-2.22-.59c-.38-.11-.75-.25-1.13-.34a36 36 0 01-8.4-3.19c-1.02-.51-1.91-1.1-2.79-1.65zm-.19 7.86v.5c.12.91.22 1.83.39 2.73.143.797.344 1.582.6 2.35a1.9 1.9 0 00.73 1c.836.432 1.718.767 2.63 1 2.88.78 5.77 1.48 8.65 2.21a21 21 0 005.43.93c1.81 0 3.63-.1 5.44-.22a19.229 19.229 0 002.26-.44V69h-2.81c-1.61 0-3.22-.14-4.83-.22a44 44 0 01-11.58-2.32 17.381 17.381 0 01-6.4-3.51l-.51-.53zM40 66c.115-.054.225-.118.33-.19l5.51-3.6 4.6-3c.29-.19.5-.5.79-.68 1.533-.94 3.067-1.86 4.6-2.76a23.533 23.533 0 016.57-2.94c.1 0 .22-.21.24-.33.11-.86.19-1.72.3-2.59.08-.69.18-1.38.28-2.11-.27.018-.536.076-.79.17a145.9 145.9 0 00-3.79 2.27c-.93.58-1.83 1.21-2.74 1.82a67.65 67.65 0 01-7.65 4.52c-1.18.6-2.36 1.22-3.52 1.87-1.5.84-3 1.72-4.46 2.59a1.08 1.08 0 00-.59 1.06c.05.813.05 1.627 0 2.44A1.75 1.75 0 0040 66zm-.88 5.93c.45-.22.78-.35 1.07-.53 2-1.207 3.97-2.42 5.91-3.64 2.93-1.83 5.73-3.86 8.83-5.42a44.638 44.638 0 017-3.08.41.41 0 00.21-.28c.09-.69.16-1.39.24-2.09.08-.7.14-1.21.23-1.87a5.682 5.682 0 00-.9.27c-2.25 1.11-4.54 2.21-6.71 3.47-1.37.79-2.55 1.89-3.89 2.73a122.411 122.411 0 01-11.79 7.1.44.44 0 00-.2.3c-.02.96-.02 1.92-.02 2.99l.02.05zm26-19.28c.38.01.757.075 1.12.19a4.06 4.06 0 002.23.22 8.58 8.58 0 001.72-.4 1.09 1.09 0 00.81-.96c.15-.85.34-1.7.46-2.56.12-.86.13-1.52.19-2.37a7.48 7.48 0 01-3.11 1 8.78 8.78 0 01-3.23-.06.835.835 0 000 .15c-.11 1.08-.22 2.16-.32 3.24a.43.43 0 000 .23 1.23 1.23 0 01.15 1.27l-.02.05zm-.46 2.2l-.34 4.12a15.6 15.6 0 011.68-.12 5.79 5.79 0 003.25-1c1.38-.79 1.56-2.1 1.75-3.52-2.08.97-4.18.55-6.32.47l-.02.05zM38 18.2a18.15 18.15 0 012.67-9.41l-.89-1.11a30.15 30.15 0 00-2.94 10.52H38z" fill="#000"/></svg>