<svg xmlns="http://www.w3.org/2000/svg" viewBox="0 0 80 80"><path d="M23.3 42.7c-7.6-9.4-4.9-24.4 6.5-29.2 1.9-.9 3.9-1.4 5.9-1.5.3 0 .4-.1.5-.4.7-1.6 1.3-3.2 2-4.8.2-.6.7-1 1.2-1.1.2-.1.3-.5.5-.6.7-.4 1.6-.4 2.2 0 1.2.6 1.4 2.1 1.5 3.2 0 .7-.4 1.1-1.1 1.1-.1 0-.2.1-.3.2L41 12.1c9.9 1.6 17.8 11.2 17 21.3 5.9 1.4 15.8 3.7 15.6 11.2.1 2.3-.2 4.6-.5 6.9.4 1.7.1 3.4-.2 5.1-.9 2.8-4 4.2-6.7 4.3-1.7 0-3.4.1-5 .7-3.9 1.6-7.5 3.6-11 5.9-3.7 2.5-7.5 4.8-11.5 6.8-4.9 1.2-10 1.4-14.9 0-4.1-1-8.3-1.8-12.1-3.6-.6-.3-1.1-.7-1.5-1.3-1-1.6-.9-3.7-1.3-5.5-.5-3.2-.2-6.6-.3-9.9 0-.6.2-1.2.3-1.9.2-.9 0-1.9.4-2.7.7-.9 2-1.1 2.9-1.7 3.7-1.7 7.2-3.6 11.1-5zm12.2-28.8c-10.9.9-17.9 13.2-13.3 23.1 4.9 12.8 24 16.2 31.4 3.9 7-10.5-1.1-25.4-13.2-26.9-.4 1.4-.6 2.8-.5 4.2 1-.2 1.9-.6 2.8-.7.8.1 1 1.1.5 1.6-1.2 1.5-12 1.6-11.6-1.1.1-.8 1.2-.9 1.7-.5.4.3.9.5 1.4.5.2-1.4.7-2.7.8-4.1zM11 54.6c0 1.5-.1 3-.2 4.5 0 .2.1.4.2.5.7.8 1.6 1.5 2.6 1.9 3.3 1.4 6.3 3.3 9.9 4 1.1 0 2.1.3 3.1.5 3.4.4 6.9.8 10.4.4l.4-3.9c-3.2-.4-6.3-1.2-9.5-1.6-1.2-.3-3.2-.9-4.4-1.2-4.5-1.1-8.8-2.6-12.5-5.1zm-.2 7.8c.1 1.9.4 3.8 1 5.6.5 1.4 2.2 1.6 3.4 2 4.7 1.1 9.3 2.8 14.1 3.1 2.6-.1 5.2 0 7.7-.7V69c-8.4 0-19.8-.5-26.2-6.6zM40 66c2.7-1.7 7.8-5.1 10.4-6.8 1.6-1.4 3.6-2.3 5.4-3.4 2-1.3 4.2-2.3 6.6-2.9.1 0 .2-.2.2-.3.2-1.6.3-3.1.6-4.7-2.7.8-4.9 2.8-7.3 4.3-2.4 1.7-5 3.2-7.6 4.5-2.8 1.6-5.9 2.9-8.4 4.9-.3 1 0 2.1-.1 3.1-.2.3-.1.9.2 1.3zm-.9 5.9c5.5-2.9 10.3-6.7 15.8-9.6 2.3-1.3 4.8-2.2 7.1-3.2.3-1.3.3-2.8.5-4.1-4.1 1.5-8 3.9-11.5 6.5-3.8 2.6-7.7 5-11.8 7.1-.1.1-.2.2-.2.3.1 1 .1 2 .1 3zm26-19.2c1.1 0 2.2.7 3.4.4.8-.2 1.7-.2 2.3-.8.7-1.7.8-3.7.9-5.5-1.9 1.1-4.2 1.3-6.3.9-.1 1.2-.3 2.4-.3 3.6.2.4.2.9 0 1.4zm-.4 2.1l-.4 4.2c3.4-.1 6.5-.6 6.7-4.6-2.1.9-4.2.5-6.3.4zM38 18.2c0-3.3.9-6.6 2.7-9.4l-.9-1.1c-1.6 3.3-2.6 6.9-2.9 10.5H38z"/></svg>