<svg width="80" height="80" fill="none" xmlns="http://www.w3.org/2000/svg"><path d="M33.68 24.61l-2.27-2.93c-1.13-1.47-2.2-3-3.43-4.39a8.29 8.29 0 01-1.9-4.29c-.48-2.6-1.07-5.18-1.62-7.77a1.92 1.92 0 01.63-1.88 1.08 1.08 0 011.51.09c.95.79 1.89 1.61 2.82 2.41l6.06 5.2a2 2 0 01.8 1.23c.058.176.15.339.27.48 1.75 2.31 3.5 4.61 5.24 6.93a.79.79 0 00.76.38 3 3 0 012 .65 7.17 7.17 0 012.16 2.32.662.662 0 00.47.27c2.94.49 5.88 1 8.82 1.43l12.06 1.96c2.5.4 5 .84 7.49 1.16a1.83 1.83 0 011.7 2.14A12.72 12.72 0 0176 35a2.07 2.07 0 01-.81.77 4.47 4.47 0 00-1.91 2.11A19.09 19.09 0 0071.41 46v.77l1.46-1 .57-.39c.47-.36 1-.62 1.51-.25a1.84 1.84 0 01.94 1.79c-.2 1.63-.39 3.26-.61 4.89a1.11 1.11 0 01-1.1 1 .93.93 0 00-.41.11c-1.49 1.06-3 2.13-4.47 3.22.1.15.17.27.26.39.356.436.69.89 1 1.36a28.825 28.825 0 002.81 3.21c.44.55.87 1.11 1.31 1.65.122.157.263.298.42.42a2.84 2.84 0 01.92 3.4 4.98 4.98 0 01-.61 1.11A9.91 9.91 0 0172 70.55a3.25 3.25 0 01-2.76-.07 1.2 1.2 0 01-.48-.42c-1.2-1.5-2.4-3-3.57-4.53-1-1.23-1.85-2.5-2.78-3.75l-.33-.41-2.46 1.76L44.52 74a1.52 1.52 0 01-1.52.28 13.993 13.993 0 00-1.61-.13 96.997 96.997 0 01-16.34-5c-2.37-1-4.72-2-7.09-3a6.77 6.77 0 01-2.33-1.69c-.49-.53-1-1-1.49-1.54a1.47 1.47 0 00-1.93-.36 3 3 0 01-2.11.44 3.17 3.17 0 01-1.59-.89 18.35 18.35 0 01-5.39-14.22 12.29 12.29 0 013.71-8.7c.208-.214.436-.409.68-.58a54.118 54.118 0 016.17-3.77c6.49-3.25 12.94-6.6 19.4-9.91.19-.09.37-.19.6-.32zm15.56 20.17a2.36 2.36 0 00-.17-.26c-4.533-5.86-9.06-11.723-13.58-17.59-.25-.33-.45-.31-.77-.14L14.86 37l-1.86.9a5.71 5.71 0 012.3 3 1 1 0 00.79.74c8.31 2.41 16.58 4.83 24.83 7.36a2.46 2.46 0 002.38-.37c1.94-1.32 3.93-2.55 5.94-3.85zm-36.4.35h-.16c-.15 1-.32 2.08-.42 3.13-.15 1.65-.25 3.31-.36 5 0 .25.06.51 0 .76a8.39 8.39 0 01-.11 1.59c-.09.46 0 .72.45.76.258.007.514.05.76.13a9.87 9.87 0 014.74 3.72c.168.257.408.459.69.58 1 .38 1.93.73 2.91 1.06 3.63 1.22 7.26 2.44 10.9 3.63 1.45.48 2.92.9 4.45 1.36-.05-.28-.1-.52-.13-.77a1.527 1.527 0 010-.37c0-.34.12-.67.13-1a15.361 15.361 0 01.42-5.18 19.84 19.84 0 011.77-4.1 2.164 2.164 0 00-.25-.1c-6-2-11.9-4.06-17.84-6.12-2.27-.78-4.53-1.62-6.79-2.46a1.18 1.18 0 01-.46-.43c-.22-.4-.45-.8-.7-1.19zm26 22.46c1 .24 1.86.63 3-.15 4.46-3.25 9-6.34 13.55-9.49L58 56.1l-4.87-6.31-.22.12c-3.4 2.16-6.8 4.31-10.19 6.49a1.38 1.38 0 01-1.89 0c-.18.27-.36.51-.52.76a7.71 7.71 0 00-1.12 3 13.79 13.79 0 00-.19 4.57 5.37 5.37 0 01-.13 2.86h-.03zM72.28 30v-.12l-26-4.13L57 39.8 72.28 30zM41.05 53.55c0-.54.05-1 .1-1.43a.59.59 0 00-.49-.73c-1.34-.37-2.67-.78-4-1.17l-21.5-6.38A1.39 1.39 0 0114 42.69a.49.49 0 00-.13-.2 10.562 10.562 0 01-.64-1 3.29 3.29 0 00-1.4-1.7 1.59 1.59 0 00-1-.21 5.68 5.68 0 00-2.56 1.48 9.67 9.67 0 00-2.84 6.51A16 16 0 0010 60.31a1 1 0 001.43.24 3.18 3.18 0 013.76.35h.1a7 7 0 00-2.41-2 2 2 0 00-.76-.29 5.868 5.868 0 01-4-2.22c-1.63-1.82-1.81-4.16-1.84-6.52A14.43 14.43 0 017 45.78c.22-.8.515-1.576.88-2.32A2.92 2.92 0 0112 42.18a11.681 11.681 0 012 1.66 3 3 0 001.61 1c.887.237 1.758.528 2.61.87L38 52.53l3.05 1.02zM65.37 51c1.13-.78 2.17-1.52 3.23-2.24.57-.38 1.23-.69.74-1.62 0-1.67.08-3.35.17-5 0-1 .2-1.9.31-2.84-.66 0-1 .46-1.49.79-1.41 1-2.88 1.89-4.33 2.81-.83.52-1.65 1.06-2.52 1.51-.64.34-.78.69-.36 1.31.15.22.33.41.5.62.43.53.87 1.05 1.3 1.59L65.37 51zm-5.88 7l-4.58 3.19-11.06 7.7c-.17.12-.39.3-.4.47-.08.82-.09 1.64-.13 2.47h.15l17.17-12.36L59.49 58zM75 31.18l-.1-.08-16.49 10.6 1 1.25.29-.15 14.4-9.17a.91.91 0 00.34-.41c.16-.67.35-1.36.56-2.04zM17.5 63c1.43 1.78 19.58 8.29 23.69 8.56v-.85C33.24 68.41 25.37 66 17.5 63zm15.36-51l-3.1-2.66a.42.42 0 00-.33-.1c-.54.2-1.07.43-1.65.66.29 1.38.58 2.76.88 4.14a.5.5 0 00.12.21 9.16 9.16 0 002.71 1.92c.37.16.59 0 .63-.33.108-.685.161-1.377.16-2.07-.02-.7-.07-1.33.58-1.77zM70 60.17l-1.32.83a4.49 4.49 0 00-1.85 2.09.64.64 0 00.08.7c.39.5.73 1 1.1 1.55.37.55.56.72.86 1.11a10.13 10.13 0 013.28-3.12L70 60.17zM51.67 47.88c-.26-.34-.5-.62-.72-.94-.22-.32-.32-.24-.55-.09-2.27 1.47-4.54 2.92-6.8 4.39-.12.08-.28.23-.29.36-.08.52-.1 1-.16 1.7l8.52-5.42zm16.22 6.36l5.17-3.73c.09-.07.21-.15.23-.25.12-.65.22-1.31.35-2.11l-6.78 4.72 1.03 1.37zm2.67 14.29c.21 0 .42.06.55 0A6.91 6.91 0 0073.84 66a1.6 1.6 0 00.06-.55c-.18 0-.41-.08-.55 0a5.29 5.29 0 00-2.79 3.08z" fill="#000"/></svg>