<svg viewBox="0 0 80 80" fill="none" xmlns="http://www.w3.org/2000/svg"><path d="M24.85 18.18c-.27-1.59-.58-3.1-.78-4.64a32.632 32.632 0 01-.18-3.29.81.81 0 01.71-.81c.71-.18 1.42-.36 2.14-.48 2.4-.41 4.8-.86 7.21-1.16 2-.25 4.06-.31 6.1-.44l8.12-.5c.33 0 .65-.09 1-.12a.92.92 0 011 1.29 12.602 12.602 0 00-.36 3.83c0 1.17-.09 2.36-.15 3.54 0 .87-.08 1.74-.12 2.67H50L62.27 18c.343.018.68.093 1 .22a.79.79 0 01.52.84.92.92 0 00.13.51 13.47 13.47 0 012.39 6.29 58.6 58.6 0 01.7 9.45.85.85 0 00.41.79 22.1 22.1 0 018.28 10.59 22.779 22.779 0 011.3 4.77v.23c.45.48.34 1.06.31 1.67 0 1.14 0 2.29-.07 3.43a11.117 11.117 0 01-.17 1.63 5.14 5.14 0 01-.33.9 2.598 2.598 0 00-.13.36A19.12 19.12 0 0167 72.34a17.26 17.26 0 01-9.4 2.12c-6.49-.38-11.88-3.35-16-9.09a.55.55 0 00-.52-.23l-17.73.15c-3.86.04-7.72.067-11.58.08a1.23 1.23 0 01-.76-.21 1.77 1.77 0 01-.35-.77c-.08-.24-.07-.51-.16-.74-.63-1.81-1.32-3.58-1.91-5.4-.69-2.16-1.39-4.33-1.9-6.55a59.479 59.479 0 01-1.58-9.88C5 40.92 5 40 5 39.11c.08-2.18.17-4.36.31-6.53A54.1 54.1 0 017 21.15c.21-.78.512-1.532.9-2.24a1.35 1.35 0 012.1-.69.76.76 0 00.34.06l14.11-.07.4-.03zM14.46 46.53c0-.35-.08-.65-.1-1-.07-1-.17-2.09-.16-3.14A1.311 1.311 0 0115.46 41c.5-.05 1-.07 1.5-.09.93 0 1.28.29 1.62 1.4.173.592.313 1.193.42 1.8.15.81.29 1.63.44 2.46h.3l18.18.1c.28 0 .35-.14.43-.39a19.13 19.13 0 013.23-6.44 18.07 18.07 0 0113.06-7.23 18.85 18.85 0 019.56 1.69l1.13.52v-.34a55.494 55.494 0 00-.73-8.73 12 12 0 00-2-5.25.9.9 0 01-.17-.3.37.37 0 00-.45-.3l-12.14.1a.79.79 0 00-.46.2.73.73 0 01-1 0 .69.69 0 00-.63-.23L37.43 20 10 20.16a.91.91 0 01-.41 0c-.28-.15-.4 0-.48.26-.28.9-.61 1.79-.82 2.71a68 68 0 00-1.4 11.54A58.13 58.13 0 007 43.12c.1 1 .32 2 .5 3.05 0 .29.2.36.45.36h6.51zm25.79 16.76a22.81 22.81 0 01-2.49-14.73h-18v.37c.12.91.26 1.81.33 2.72a1.83 1.83 0 01-1.54 2.16 4.31 4.31 0 01-2.11-.43A2.14 2.14 0 0115 51.45c0-.25-.08-.5-.1-.75-.08-.74-.14-1.49-.21-2.24h-7c.21 1.07.36 2.11.64 3.11.633 2.253 1.3 4.49 2 6.71.52 1.61 1.15 3.17 1.72 4.76a.58.58 0 00.64.44l24.61-.19h2.95zm17-18.4c-.35 2.28-.66 4.54-1 6.78-.19 1.09-.52 2.15-.8 3.22a1 1 0 00.21 1c.23.262.488.496.77.7 2.06 1.43 4.13 2.84 6.21 4.26l-.24.38a3.115 3.115 0 00-.22.4.86.86 0 00.3 1.16c.19.093.399.138.61.13.82 0 1.65-.07 2.48-.06.83.01 1.25-.31 1.41-1.23a7.999 7.999 0 00-.24-3.31.91.91 0 00-.41-.51 1.51 1.51 0 00-1.92.47c-.23.28-.42.6-.63.91a.68.68 0 01-.17-.09l-5.26-3.69c-.18-.12-.19-.25-.16-.49.37-2.66.72-5.33 1.07-8 .08-.59.12-1.18.17-1.79.35 0 .66 0 1 .08a1.09 1.09 0 001.24-1.49 18.743 18.743 0 00-1.22-3.59c-.43-.87-1-1.2-1.8-.33-.8.87-1.65 1.83-2.45 2.76-.12.148-.224.31-.31.48a1 1 0 00.4 1.48c.29.13.59.23.94.37h.02zM28.86 14v.29c.18 1.16.38 2.32.54 3.49 0 .33.18.36.42.36L44 18.1h.28v-4.9a113.64 113.64 0 00-15.42.8z" fill="#000"/></svg>