<svg xmlns="http://www.w3.org/2000/svg" viewBox="0 0 80 80"><path d="M24.9 18.2c-.5-2.7-1-5.2-1-7.9 0-.2.1-.4.2-.5.7-.5 1.8-.5 2.6-.8 4.4-.8 8.8-1.5 13.3-1.6.5-.1 8.9-.5 9.1-.6.7-.2 1.3.6 1 1.3-.7 3.3-.3 6.7-.6 10h.5l12.3-.1c.3 0 .7.1 1 .2.7.2.4.9.6 1.4C67 24.1 66.8 30 67 35.3c0 .3.1.6.4.8 3.8 2.6 6.7 6.3 8.3 10.6.6 1.6 1.1 3.3 1.3 5 .4.5.3 1.1.3 1.7.8 11-8.3 21.9-19.7 21.1-6.5-.4-11.9-3.3-16-9.1-.1-.2-.3-.3-.5-.2l-17.7.2c-3.9 0-7.7.1-11.6.1-1 .1-1.1-1-1.3-1.7-3.8-9.9-6.4-20.4-5.2-31.1.4-4.7.6-10 2.9-14.2.3-.5.8-.6 1.2-.5.3 0 .6.3.9.3l14.1-.1h.5zM14.5 46.5c-.1-1.5-.4-3.1-.2-4.7.4-1.1 1.7-.9 2.7-1 .9 0 1.3.3 1.6 1.4.4 1.4.6 2.8.9 4.3h.3l18.2.1c.3 0 .4-.1.4-.4.7-2.3 1.8-4.5 3.2-6.4 5.3-7.4 15.9-9.3 23.8-5-.2-4.8 0-10.1-2.7-14.3-.2-.2-.2-.7-.6-.6L50 20c-.4 0-.6.4-1 .4s-.7-.5-1.1-.4H37.6l-27.6.2c-.4.1-.8-.3-.9.3-2.3 7.2-2.6 15-2.1 22.6.1 1 .3 2 .5 3.1 0 .3.2.4.4.4h6.6zm25.7 16.8c-2.5-4.5-3.3-9.7-2.5-14.7h-18c0 1.7 1.3 4.8-1.2 5.3-1.1 0-2.4-.3-3.1-1.2-.7-1.2-.5-2.8-.7-4.2h-7c.9 5 2.6 9.8 4.4 14.6.1.3.4.5.6.4 1.8 0 26.5-.2 27.5-.2zm17-18.4c-.6 3.4-.8 6.7-1.8 10-.3.7.5 1.3 1 1.7 2.1 1.4 4.1 2.8 6.2 4.3-.4.6-1 1.4-.2 1.9 1 .3 2.1 0 3.1.1.8 0 1.3-.3 1.4-1.2.1-1.1.3-3-.6-3.8-1.1-.6-2 .5-2.6 1.4-.1 0-.1-.1-.2-.1l-5.3-3.7c-.2-.1-.2-.2-.2-.5.4-3.3 1-6.5 1.2-9.8.7-.1 1.5.4 2.1-.3.3-.3.3-.8.2-1.1-.3-1.2-.7-2.4-1.2-3.6-.4-.9-1-1.2-1.8-.3-.9 1.3-4.9 4.1-1.3 5zM28.9 14c.1 1.3.4 2.5.5 3.8 0 .3.2.4.4.4h14.5v-4.9c-5.2-.2-10.3.1-15.4.7z"/></svg>