<svg xmlns="http://www.w3.org/2000/svg" viewBox="0 0 80 80"><path d="M33.7 24.6l-2.3-2.9c-1.8-2.8-4.9-5.1-5.3-8.7-.5-2.6-1.1-5.2-1.6-7.8-.2-.7.1-1.4.6-1.9.4-.3 1.1-.3 1.5.1.9.8 1.9 1.6 2.8 2.4l6.1 5.2c.4.3.7.7.8 1.2 1.7 2.6 3.7 4.9 5.5 7.4.2.3.5.4.8.4 2-.1 3.3 1.8 4.4 3.2 5.6 1.1 15.4 2.5 21.1 3.5 2.7.5 5.5.7 8.2 1.4.7.3 1.1 1.2 1 1.9-.1 1.7-.5 3.4-1.2 5-.2.3-.5.6-.8.8-.8.5-1.5 1.2-1.9 2.1-1.3 2.8-1.9 5.8-1.9 8.9.4-.3 1.6-1.1 2-1.4 1.1-1.1 2.6.2 2.4 1.5-.2 1.6-.4 3.3-.6 4.9 0 .3-.2.5-.4.7-.3.3-.8.2-1.2.4-1.5 1.1-3 2.1-4.5 3.2 1.5 2.4 3.6 4.4 5.4 6.6 1.7 1.3 2.1 3.1.7 4.9-1.4 1.8-4.5 4.5-6.6 2.4-2.3-2.8-4.5-5.8-6.7-8.7-1 .8-15.9 11.6-17.5 12.7-.9.8-2.1 0-3.1.2-5.6-1.2-11.1-2.9-16.3-5-2.4-1-4.7-2-7.1-3-1.6-.7-2.6-2-3.8-3.2-.4-.6-1.3-.8-1.9-.4-3.6 2.3-6.8-4.3-7.9-7-1.4-3.9-1.8-8.5-.2-12.4 1.6-4.2 5.9-6.3 9.6-8.3 6.6-3.4 13.2-6.8 19.9-10.3zm15.5 20.2c-4.5-6-9.2-11.9-13.7-17.9-.3-.3-.5-.3-.8-.1L14.9 37l-1.9.9c1.1.7 1.9 1.8 2.3 3 .1.4.4.7.8.7 8.3 2.4 16.6 4.8 24.8 7.4.8.3 1.7.2 2.4-.4 1.9-1.3 3.9-2.5 5.9-3.8zm-36.4.3h-.2c-.6 3.4-.6 7-.9 10.5-.1.5 0 .7.4.8 2.3.3 4.2 2 5.5 3.8.2.3.4.5.7.6 6.1 2.2 12.1 4.2 18.3 6-.2-.7-.1-1.4 0-2.1-.3-3.2.5-6.5 2.2-9.3-6.1-2.1-12.1-4.1-18.1-6.2-2.3-.8-4.5-1.6-6.8-2.5-.5-.3-.7-1-1.1-1.6zm26 22.5c1 .2 1.9.6 3-.1C47.1 63.6 52.6 60 58 56.2l-4.9-6.3c-3.5 2.2-6.9 4.4-10.4 6.6-.5.5-1.4.5-1.9 0-1.8 2.3-2.1 5.5-1.8 8.3.2.9.2 1.9-.2 2.8zM72.3 30v-.1l-26-4.1 10.7 14L72.3 30zM41 53.5c-.1-.7.3-1.3 0-1.9-1.1-.7-3.1-.9-4.4-1.4l-21.5-6.4c-.6-.1-1.1-.6-1.2-1.2-.8-1-1-2.3-2.2-2.9-1.2-.7-2.6.5-3.6 1.3-1.7 1.7-2.8 4.1-2.8 6.5-.3 4.8 1.5 10.4 5.4 13.2.3 0 .6 0 .8-.2 1.3-.8 2.7-.4 3.9.4-.8-1-1.9-1.9-3.2-2.3-.8-.1-1.5-.3-2.2-.7-2.9-1.6-3.7-4.9-3.6-8 .2-2.7.9-8.4 4.6-8.1 2 .2 2.9 2.5 4.8 3 3.9 1.3 21.2 7.5 25.2 8.7zM65.4 51c1.1-.8 2.2-1.5 3.2-2.2.6-.4 1.2-.7.7-1.6 0-2.6.1-5.3.5-7.8-.7 0-1 .5-1.5.8-1.4 1-2.9 1.9-4.3 2.8-.8.5-1.7 1.1-2.5 1.5-.6.3-.8.7-.4 1.3 1.1 1.3 3.1 3.8 4.3 5.2zm-5.9 7c-3 2.1-12.5 8.7-15.6 10.9-.2.1-.4.3-.4.5-.1.8-.1 1.6-.1 2.5.2.2 17.2-12.4 17.3-12.4L59.5 58zM75 31.2L58.4 41.7l1 1.2.3-.2 14.4-9.2c.6-.5.5-1.5.9-2.3zM17.5 63c1.4 1.8 19.6 8.3 23.7 8.6v-.8c-8-2.4-15.8-4.8-23.7-7.8zm15.4-51l-3.1-2.7c-.6-.3-1.3.4-2 .6.4 1.4.5 3 1 4.4.8.8 1.7 1.5 2.7 1.9.4.2.6 0 .6-.3.1-.7.2-1.4.2-2.1 0-.7-.1-1.4.6-1.8zM70 60.2c-1.2.8-3 1.7-3.2 3.3.5 1 1.4 2.1 2.1 3 .8-1.3 2-2.3 3.3-3.1L70 60.2zM51.7 47.9c-.3-.3-.5-.6-.7-.9-.2-.3-.3-.2-.5-.1-2.3 1.5-4.5 2.9-6.8 4.4-.1.1-.3.2-.3.4-.1.5-.1 1-.2 1.7l8.5-5.5zm16.2 6.3l5.2-3.7c.1-.1.2-.1.2-.2.1-.6.2-1.3.3-2.1l-6.8 4.7 1.1 1.3zm2.7 14.3c.2 0 .4.1.6 0 1.1-.7 2.7-1.7 2.8-3.1-.2 0-.4-.1-.6 0-1.3.6-2.4 1.8-2.8 3.1z"/></svg>