<svg viewBox="0 0 80 80" fill="none" xmlns="http://www.w3.org/2000/svg"><path d="M11.74 54.05l6.7-1.5v-1.62a2.52 2.52 0 01.21-.91c.49-1.05 1-2.07 1.53-3.1.077-.174.175-.339.29-.49a1 1 0 011.66-.16c.213.204.413.421.6.65.17.21.32.43.47.64h.14c0-1.88 0-3.76-.08-5.63 0-1.18-.09-2.35-.14-3.57l-3.55.55-4 .64c-.13.02-.26.02-.39 0a1 1 0 01-.81-.59c-.33-.67-1.28-1.12-.7-2.09.27-.46.52-.94.82-1.38 2.53-3.64 5-7.32 7.62-10.89 3.47-4.71 7.05-9.34 10.63-14 1.11-1.44 2.34-2.79 3.55-4.16a2 2 0 011-.54c.07-.15.12-.3.19-.43a1 1 0 011.57-.35c.246.21.474.44.68.69 1.84 2.09 3.67 4.2 5.53 6.29 2.96 3.26 6.104 6.344 9.42 9.24 3.16 2.81 6.19 5.73 9.07 8.81l3 3a1.39 1.39 0 01.38 1.54c-.23.49-.66.64-1.36.63H57.8c.28 3.59.56 7.1.85 10.71.37-.31.67-.6 1-.85a1.25 1.25 0 012 .3c.58.8 1.19 1.58 1.75 2.41.174.308.283.648.32 1 .12.79.2 1.59.3 2.48l4.44-.9c0-.47 0-.89-.07-1.31a2.489 2.489 0 010-.72A11.59 11.59 0 0170 44.81a1 1 0 00.19-.5 1 1 0 01.79-1 1.18 1.18 0 011.26.52c.066.087.123.181.17.28.82 1.48 1.633 2.96 2.44 4.44.33.62.66 1.23 1 1.86a1.55 1.55 0 010 1.61 1.31 1.31 0 00-.09.69l.78 9.55c0 .3-.08.65.32.83.08 0 .11.23.11.35 0 .61-.06 1.22-.1 1.9-.87.11-1.69.24-2.51.32L60.29 67a2.52 2.52 0 00-.79.13 5.431 5.431 0 01-2.29.36l-18.91.81c-.4 0-.8.07-1.22.12a35.639 35.639 0 01-3.63 5.48c-.34.48-.62 1-1 1.49a2.23 2.23 0 01-.44.56.89.89 0 01-1.39-.24 6.709 6.709 0 01-.83-2.13c-.11-1.58-.4-3.14-.62-4.77-.95-.07-1.88-.15-2.81-.2a7.999 7.999 0 01-2.61-.43 1.46 1.46 0 00-.63-.06c-3.36.07-6.71.14-10.07.24-1.55 0-3.1.15-4.66.22-1 0-1.37-.19-1.59-1.19-.22-1-.33-1.85-.45-2.78-.38-3-.75-6-1.13-9C5.2 55 5.1 54.36 5 53.75a1.9 1.9 0 00-.39-1 1.14 1.14 0 01-.18-.82c.2-1.46.44-2.92.69-4.37a5.1 5.1 0 01.35-1.15c.41-.9 1.17-1 2-.43A5.11 5.11 0 019 48c.43.86 1 1.66 1.43 2.51.57 1.1 1.39 2.11 1.31 3.54zM38.26 7.22c-.49.65-.93 1.25-1.39 1.85C33 14.15 29 19.19 25.14 24.33c-2.92 3.92-5.65 8-8.46 12-.17.25-.31.52-.53.88h.55c1.27-.24 2.53-.47 3.79-.74a10.18 10.18 0 003.34-.83 1 1 0 01.39-.07c.42-.06.84-.1 1.26-.15.16 0 .35-.09.48 0a3.22 3.22 0 001.74.07c.75-.05 1.5-.12 2.25-.16 2-.13 4.08-.16 6.11-.37 4.94-.5 9.87-1.09 14.8-1.63 1.44-.16 2.89-.3 4.33-.38.507.015 1.01.089 1.5.22.324.106.66.173 1 .2 1.77-.07 3.54-.17 5.31-.27.06 0 .12-.08.2-.14l-.5-.56a140.454 140.454 0 00-10.28-10A107.062 107.062 0 0140.19 9.6l-1.93-2.38zM58 65.15c-.08-.62-.16-1.14-.23-1.67-.59-4.36-.95-8.75-1.2-13.15-.28-4.9-.567-9.803-.86-14.71a3.215 3.215 0 00-.12-.5c-.3 0-.56 0-.82.05-3.82.4-7.64.78-11.45 1.24-4.53.55-9.08 1-13.64 1.1-1.39.05-2.78.17-4.1.25a2.06 2.06 0 00-.25 1.42c.13 2.25.35 4.5.37 6.75.05 6.53 0 13 0 19.58v.4a.46.46 0 00.46.54h2.73v-.56c-.18-1.71-.43-3.41-.51-5.12-.12-2.63-.14-5.26-.18-7.89a1.84 1.84 0 01.21-.93c.14-.25.45-.56.7-.57a1.54 1.54 0 001.07-.61L34.17 47a2.5 2.5 0 011.52-.65c.88-.08 1.75-.25 2.62-.39l6.12-1c.5-.08 1.06-.08 1.32.37a4.51 4.51 0 01.94 2c.14 2.81.34 5.62.47 8.43.12 2.61.16 5.21.27 7.81a2 2 0 01-.59 2L58 65.15zm-25.16 5.54h.19c.63-1 1.27-2 1.88-3a4.06 4.06 0 00.41-2.63c-.08-.79-.2-1.59-.26-2.39-.1-1.23-.15-2.46-.23-3.69-.19-2.81-.39-5.62-.58-8.43 0-.17 0-.35-.08-.62-.2.16-.33.24-.43.34-.94 1-1.84 1.95-2.81 2.88a1.67 1.67 0 00-.49 1.66c.54 3.44 1 6.88 1.57 10.33.28 1.86.55 3.73.83 5.55zm27.49-23.21c-.45.48-.8.92-1.22 1.29a.83.83 0 00-.33.75c.13 1.85.21 3.7.38 5.54.29 3.24.64 6.49 1 9.8l3.37-.46a7.689 7.689 0 00-.65-2.88 1.37 1.37 0 01-.11-.54c-.21-1.87-.43-3.73-.61-5.6-.18-1.87-.28-3.74-.43-5.6a1.35 1.35 0 00-.16-.61c-.38-.56-.79-1.08-1.24-1.69zm13.86 15.86a3.995 3.995 0 000-.56c-.18-3-.35-5.94-.54-8.91 0-.4-.21-.78-.25-1.17a2.93 2.93 0 010-1.18 1.21 1.21 0 00-.14-1.05c-.52-.93-1-1.88-1.53-2.82-.1-.17-.22-.34-.37-.56a3.72 3.72 0 00-.64 2.73 11.3 11.3 0 01.28 1.83c.23 3.13.44 6.26.66 9.39 0 .82.12 1.65.19 2.5.143.009.287.009.43 0l1.91-.2zM23.33 66c0-1.09.12-2.08.12-3.06 0-3.62 0-7.24-.05-10.86 0-.59 0-1.15-.63-1.49-.28-.15-.45-.52-.66-.8-.21-.28-.31-.42-.52-.72a14.28 14.28 0 01-.76 1.7 1.8 1.8 0 00-.19 1.23c.1.88.18 1.76.25 2.64.28 3.47.33 6.95.87 10.39 0 .28 0 .57.07.89l1.5.08zm-12.85.13c-.2-2.71-.39-5.35-.59-8-.13-1.66-.27-3.32-.42-5a1 1 0 00-.24-.64 5.89 5.89 0 01-1.51-2.24 5.51 5.51 0 00-.6-1.1l-.64 3.25c.57.37.61 1.05.7 1.68C7.63 57 8.05 60 8.49 63c.15 1 .31 2.09.51 3.2l1.48-.07zm1.54-10l.36 4.24a63.582 63.582 0 006.53-.65l-.28-4.82-6.61 1.23zm53.23 3.39l4-.48c-.14-2.12-.29-4.18-.44-6.34l-4.54.74c.07.74.12 1.4.19 2.06.042.29.099.576.17.86.14.59.3 1.18.43 1.78.08.45.12.86.19 1.39v-.01zm-52.68 3l.15 3.48 7-.2-.72-3.7-6.43.42zm57.19 1.26l-.28-2.5a39.449 39.449 0 00-4 .35l.28 2.52 4-.37z" fill="#000"/><path d="M38.26 7.22l1.93 2.38a107.066 107.066 0 0012.22 12.7 140.454 140.454 0 0110.28 10l.5.56c-.08.06-.14.13-.2.14-1.77.1-3.54.2-5.31.27a4.35 4.35 0 01-1-.2 6.551 6.551 0 00-1.5-.22c-1.44.08-2.89.22-4.33.38-4.93.54-9.86 1.13-14.8 1.63-2 .21-4.08.24-6.11.37-.75 0-1.5.11-2.25.16a3.22 3.22 0 01-1.69-.08c-.13-.06-.32 0-.48 0-.42 0-.84.09-1.26.15a1 1 0 00-.39.07 10.18 10.18 0 01-3.34.83c-1.26.27-2.52.5-3.79.74h-.55c.22-.36.36-.63.53-.88 2.81-4 5.54-8 8.46-12C29 19.19 33 14.15 36.87 9.07c.46-.6.9-1.2 1.39-1.85z" fill="#000"/></svg>