<svg xmlns="http://www.w3.org/2000/svg" viewBox="0 0 80 80"><path d="M51.1 49.8V54h.4l7.9-.1c.3 0 .7.1.9-.1.3-.4 1-.5 1.5-.2 3.4 3.8 6.8 7.6 10.8 10.9.7.6 1.2 1.5 2 2 .3.1.5.4.6.7.2.4 0 .7 0 1.1.2.9-.6 1.8-1.4 2.1-2 .3-5-.5-7.3-.6-17-.6-34 1.8-51.1 1.9-3 0-6.1.5-9.1-.4-1.1 0-1.5-1.6-.6-2.1 3.6-2.5 7.3-5 11-7.3l6.3-4c1-1 1.9-2.1 3.2-2.6 2.3-1.2 5-.8 7.5-1V51c-4-.1-16.1-.2-19.9-.4-1.3 0-1.4-.9-1.5-2 .1-.8-.5-1.4-.7-2.2-.8-3.5-1.5-7-1.8-10.6-.8-5.1-1.5-10.2-1.1-15.3.2-2.2.3-4.3.4-6.5.2-1.7.2-3.9 2-4.7.6-.3 1.2-.6 1.9-.2.3.1.6.1.9.1l40.5.3 14.4.1c.6 0 1-.5 1.6-.3 1.6.7 2.4 2.8 2.4 4.5.2 3.5.3 7 .4 10.5 0 4.3-.7 8.6-1.1 12.9-.4 3.4-.4 6.9-1.5 10.2-.1.6-.7 1-1.3 1.1-5.8.3-12.4.8-18.2 1.3zm4.7-31.3v-.1c-3.3.1-6.6-.1-9.8.3-2.5 2.1-5.1 4-7.6 6.1L22.2 38.9c-.5.8-.1 2.5-.2 3.5 0 .4.2.5.5.5 1.2-.1 2.4-.1 3.6-.1.3 0 .7-.1.9-.3 9.6-8.1 19.2-16.1 28.8-24zm5.3 6.2L40.6 42v.1l20-.7c.2-5.5.3-11.1.5-16.7zm-18.8-5.9l-.1-.1-20 .4c.1 5.7.1 11.2-.2 16.9 6.9-5.8 13.2-12.1 20.3-17.2zM30.4 42.5c2-.1 3.9-.1 5.8-.2.3 0 .6-.1.8-.3 4.7-3.9 9.3-7.8 14-11.8l9.9-8.4c.1-.1.3-.2.3-.4.1-1 .1-2 .2-3.1-1-.1-2.1.1-2.9.8-9.2 7.8-18.8 15.5-28.1 23.4zm16.3 18.8v4.1h.5l11.8-.1c1.7-.4 5.6 1.8 5-1.5 0-.5-.2-1-.7-1.2-.9-.5-1.7-1.4-2.7-1.6-.6-.1-1.2-.4-1.9-.6-.4-.2-.8 0-1 .4-.2.3-.4.3-.6.3l-10.4.2zm-6.5.2l-10 .3c-1.4 0-2.8.3-4.1.7-1.6.6-3.2 1.5-4.9 2.2-.5.2-.8.7-.6 1.2.2.7.9.8 1.5.8.7.4 1.5-.2 2.2-.1 1.2-.2 2.4.1 3.4-.7 4.1-.7 8.3-.4 12.5-.4v-4zm3.1-10c.2.5.6 2.8 1.8 2 .4-.3 1.8-1.1 1.9-1.6.2-.5-.2-1-.3-1.5-.1-.4-.4-.7-.7-.9-1.4-.7-2.9.7-2.7 2z"/></svg>