<svg xmlns="http://www.w3.org/2000/svg" viewBox="0 0 80 80"><path d="M37.3 41.3l2.9-1.7c3.7-2.1 8.4-1.1 12 .7.1-2.4.2-4.8.3-7.3 0-1.4.4-2.8 1.6-3.6 4.3-3.7 8.5-7.3 12.5-11.3 1-1 2.8-1.1 2.7.8-.7 16-1.4 31.9-.9 47.9 1 0 3.4-.1 4.3 0 1 .2 1.1 1.8.1 2.1-8.8.3-23.3.5-32.1.8-5.2.1-18.7.5-23.8.6-1.8.1-3.6.1-5.4.2-.6.1-1.3 0-1.8-.2-.1-.1-.2 0-.4 0-1.4-.1-2.9.3-4.2-.3-.5-.6-.1-1.9.7-2h3.7c-.1-17.1.5-34.3.5-51.4 0-.5-.5-.8-.5-1.3-.2-.8.5-1.6 1.3-1.6 1.2-.2 2.5-.4 3.7-.5 3.9-.3 7.7-.6 11.6-.7 3.3-.2 6.7.6 10 0 .5-.2 1.1-.1 1.3.4.3 6.3-.2 12.7-.2 19.1.1 3 .3 6.2.1 9.3zm-25.1-6.8c-.2 11.2-.6 22.4-.4 33.5 8.1.1 16.1-.3 24.1-.5-.7-11.2-1-22.3-.9-33.4-.9 0-1.9 0-2.8.1-1 0-1.6.3-2.5.1-1.8-.1-15.7.4-17.5.2zm29.7 33.1c.3-2.3.1-4.7 0-7 .1-1.4-.7-3.1.2-4.4.8-.9 2.1-1 3.1-.6 1.1.1 2.8-.6 3.2.9.2 3.6.1 7.3.3 10.9h4.5c-.2-4.7-.3-9.5-.4-14.2-.4-1.1-1.6-1.8-2.7-2.2-4-1.3-9-.8-12.2 2.2-.3.2-.4.6-.4 1 .3 4.5.3 9 .6 13.6h3.8zM18 15c0 5.8-.5 11.5-.1 17.2h4.2c-.2-5.8 0-11.6-.2-17.4L18 15zm17 17l.5-17.1-3.8-.2c-.3 0-.3.2-.3.3-.2 5.7-.3 11.3-.3 16.9H35zm31.8-2.5l-.2.1-5.2 4.3c-.1.1-.2.3-.2.5 0 1.9.1 3.7.1 5.6 1.7-1.4 3.3-2.6 4.9-3.9.2-.2.3-.4.3-.7.1-2 .2-3.9.3-5.9zm-.5 9.5l-4.7 3.6c-.1.1-.2.3-.2.5 0 2.1.1 4.1.1 6.1 1.5-1.1 3.1-2 4.6-3.2.2-2.3 0-4.7.2-7zM62 66.9h4.3v-8.3h-.2c-1.3.9-2.9 1.5-4.2 2.5-.1 1.8 0 3.8.1 5.8zm-.3-8.6l.2.1 4.3-2.6v-7.1c-1.5 1-2.9 2-4.3 2.9-.1.1-.2.3-.2.4v6.3zm-.5-27.2l5.6-4.5c.1-.1.1-.3.1-.4 0-1.8.2-3.7.3-5.4l-.2-.1c.2.3-5.6 5.3-5.8 5.6-.1.1-.3.3-.3.4.1 1.4.3 2.9.3 4.4zm-6 31.3c1.5-1 3.1-1.7 4.3-2.8.1-2.1-.1-4.3-.1-6.4-1.4 1-2.9 1.7-4.1 2.7-.1 2.2 0 4.4-.1 6.5zm4-26.5H59c-1.4 1-2.7 2.3-4.2 3.1-.1.1-.2.2-.2.3 0 .9-.1 1.8-.1 2.7v.3c.5 1 .4 2 .3 3.1.1 0 .1 0 .2-.1l4-3.4c.1-.1.1-.2.2-.3v-5.7zM55 53.4h.2c1.3-1 2.9-1.8 4.1-2.9.1-2 0-4-.1-6-1.4 1-2.7 2.1-4.1 3.2-.1.1-.2.3-.2.5.1 1.8.1 3.5.1 5.2zm-.3-16.8c.1 0 .1-.1.2-.1l3.9-3.2c.2-.1.3-.4.3-.6 0-1.5-.1-2.9-.1-4.4-1.4 1.2-2.9 2.3-4.2 3.5-.3 1.5-.1 3.1-.1 4.8zm5 30.4v-4.7h-.2l-3.9 2.3c-.4.4 0 1.6 0 2.3 0 .3.2.3.4.3.8-.1 2.8-.2 3.7-.2z"/><path d="M15.3 52c3.2-4.4 6.9-8.5 10.1-12.9.1-.1.2-.2.3-.2 1.9-.1 3.6 0 5.6.3-3.7 4.3-7.8 8.4-11.4 13-.1.1-.2.2-.3.2-.9.1-1.8-.2-2.8-.2-.5.1-1.1.4-1.5-.2zm7.7.7c2.7-3.9 6.1-7 9-10.8.1 2.8-.2 5.5.1 8.2.2 1.1.8 2.7-.9 2.7-2.7 0-5.4-.1-8.2-.1zM22.9 39c-2.4 3.6-5.3 6.7-8 10.1 0-2.8 0-5.7.1-8.5.1-.6.1-1.3.7-1.7.2-.1.4-.2.6-.1 2.2.3 4.3.3 6.6.2z"/></svg>