<svg viewBox="0 0 80 80" fill="none" xmlns="http://www.w3.org/2000/svg"><path d="M37.34 41.28l2.94-1.72a7.34 7.34 0 013.61-1.07 16.35 16.35 0 015.61.6c.94.32 1.82.79 2.76 1.2.009-.09.009-.18 0-.27.1-2.33.18-4.67.29-7 .03-.616.11-1.228.24-1.83a3.62 3.62 0 011.36-1.8c2.31-2 4.64-4 6.92-6 1.91-1.71 3.76-3.49 5.61-5.28a2.3 2.3 0 011.61-.7.91.91 0 01.94.57c.116.279.174.578.17.88 0 1-.12 2-.15 3.07-.08 2.38-.09 4.76-.19 7.14-.13 3.08-.33 6.16-.49 9.25-.07 1.57-.15 3.14-.16 4.71v17c0 2.2.09 4.41.13 6.62v.12h3.87a1.119 1.119 0 01.53 2.169c-.151.05-.311.068-.47.051-1.25 0-2.51.07-3.76.1L53 69.42l-12.12.29-15.76.42-8 .19c-1.8.05-3.6.08-5.4.18a2.91 2.91 0 01-1.84-.24c-.09-.06-.25 0-.38 0H6.29a2.15 2.15 0 01-1-.35.92.92 0 01-.31-1 1 1 0 01.87-.91 6.546 6.546 0 011 0h2.74a2.658 2.658 0 000-.28c0-1.21.07-2.43.06-3.64 0-.94-.15-1.89-.14-2.83.06-4.767.127-9.517.2-14.25.07-4.2.18-8.4.24-12.6.08-6 .13-11.89.19-17.84a1.19 1.19 0 00-.19-.63 1.39 1.39 0 01.93-2.34 33.342 33.342 0 013.73-.47c3.87-.27 7.74-.59 11.62-.72 2.53-.08 5.08.15 7.61.21.71 0 1.41 0 2.11-.07a.61.61 0 00.28-.11 1 1 0 011.46.89c.01.19.01.38 0 .57-.1 6-.23 12-.31 18v9.13a2 2 0 00-.04.26zm-25.1-6.73c-.22 11.23-.58 22.36-.4 33.53 8.08.11 16.06-.33 24.11-.45-.69-11.16-1-22.26-.85-33.41h-.52c-.77 0-1.53 0-2.29.06s-1.22.14-1.83.19a3.47 3.47 0 01-.64-.06 4 4 0 00-.59-.09l-14.89.23c-.7.01-1.4 0-2.1 0zm29.7 33a9.21 9.21 0 00.13-1.16c0-2 0-3.92-.11-5.88 0-1.14-.18-2.28-.2-3.41a1.66 1.66 0 01.39-1 2.74 2.74 0 012.85-.66c.09.047.19.07.29.07.59 0 1.18 0 1.76-.06A1.32 1.32 0 0148.56 57a9.002 9.002 0 000 1.37c0 .83.13 1.64.14 2.47v5.32c0 .38.07.76.09 1.09h4.49v-.42c-.08-2-.18-4-.24-6-.08-2.59-.12-5.19-.19-7.79a1 1 0 00-.2-.49 5.16 5.16 0 00-2.49-1.72 13.15 13.15 0 00-8.16-.1A9.12 9.12 0 0038 53a1.22 1.22 0 00-.41 1c.13 2.48.23 4.95.33 7.43.05 1.2.09 2.4.15 3.59 0 .85.09 1.7.14 2.53h3.73zM18.05 15c0 5.77-.55 11.49-.11 17.19h4.23v-.57c0-1.24-.06-2.48-.07-3.72-.067-4.167-.1-8.343-.1-12.53a4.718 4.718 0 00-.08-.63l-3.87.26zm17 17l.5-17.1-3.78-.16c-.26 0-.27.15-.28.33 0 1-.09 1.93-.11 2.9-.08 4.513-.153 9.03-.22 13.55-.01.16-.01.32 0 .48h3.89zm31.79-2.54l-.23.14-5.21 4.33a.64.64 0 00-.16.45c0 1.66.07 3.32.11 5v.6c1.71-1.36 3.32-2.63 4.92-3.93a1.06 1.06 0 00.26-.69c.09-1.48.14-3 .2-4.45.07-.47.1-.91.13-1.45h-.02zM66.26 39l-4.65 3.6a.64.64 0 00-.17.45c0 2 .08 3.92.13 5.88-.006.07-.006.14 0 .21l.43-.29c1.3-.88 2.59-1.78 3.89-2.65a.59.59 0 00.31-.55v-4.8l.06-1.85zM62 66.87h4.26v-8.34h-.17c-1.32.76-2.64 1.53-4 2.27a.5.5 0 00-.25.54c0 1.74.06 3.48.1 5.23.013.101.033.201.06.3zm-.3-8.53l.2.06 4.31-2.59v-7.06c-1.47 1-2.92 2-4.35 2.93a.602.602 0 00-.17.44v2l.01 4.22zm-.47-27.21l5.61-4.55a.59.59 0 00.14-.42c0-.92 0-1.84.09-2.77.09-.93.15-1.76.23-2.64l-.17-.15a2.9 2.9 0 01-.38.58l-5.44 5c-.12.11-.28.27-.28.4 0 1.29.11 2.58.16 3.88-.03.2-.02.4 0 .67h.04zm-5.99 31.25c1.45-.9 2.8-1.73 4.13-2.57a.59.59 0 00.18-.44c0-1.93-.08-3.86-.13-5.79a3.005 3.005 0 000-.35c-1.38.88-2.7 1.72-4 2.57a.5.5 0 00-.15.36v5.41l-.03.81zm3.92-26.48h-.19l-.41.29c-.82.66-1.64 1.32-2.48 2-.41.31-.88.55-1.3.83a.468.468 0 00-.2.33c0 .89-.08 1.78-.1 2.67a.5.5 0 000 .3 4.29 4.29 0 01.34 2.57 4.17 4.17 0 000 .5c.11 0 .14 0 .16-.06l4-3.42a.53.53 0 00.15-.34l.03-5.67zM55 53.44h.17c1.33-.9 2.68-1.8 4-2.71a.611.611 0 00.18-.44c0-1.87-.06-3.75-.1-5.62 0 0 0-.07-.06-.13l-.18.13c-1.29 1-2.59 2-3.87 3.07a.73.73 0 00-.19.51c0 .67.05 1.35.05 2v3.19zm-.34-16.83a1.21 1.21 0 00.2-.14l3.86-3.2a.71.71 0 00.28-.63c0-1.34-.06-2.68-.09-4v-.43c-1.38 1.15-2.69 2.23-4 3.33a.69.69 0 00-.23.48c-.03 1.49-.03 2.98-.03 4.59h.01zm5 30.43v-4.72h-.15l-3.93 2.27a.36.36 0 00-.18.26c0 .66.09 1.32.14 2 0 .26.16.29.38.28l2.39-.13h1.32l.03.04z" fill="#000"/><path d="M15.27 52c.47-.63.91-1.28 1.41-1.9 2.58-3.233 5.167-6.46 7.76-9.68.33-.41.62-.86.95-1.28a.51.51 0 01.34-.19c1 0 2-.06 3 0 .83.05 1.65.21 2.56.34l-.29.41c-2.42 2.65-4.87 5.28-7.26 8-1.32 1.49-2.55 3.05-3.81 4.59a.61.61 0 01-.62.26c-.8-.09-1.61-.14-2.41-.19a2.718 2.718 0 00-.64 0 1 1 0 01-.99-.36zm7.73.66c2.71-3.87 6.1-7 9-10.79v7.65c.022.192.059.383.11.57.14.575.237 1.16.29 1.75 0 .59-.52 1-1.23 1-2.72-.03-5.4-.11-8.17-.18zm-.1-13.61c-2.4 3.56-5.29 6.7-8 10.08v-.43c0-2.7 0-5.39.09-8.09.014-.415.098-.824.25-1.21a1 1 0 011-.6c1 .1 2 .21 3 .24 1.2.04 2.4.01 3.66.01z" fill="#000"/></svg>