<svg width="80" height="80" fill="none" xmlns="http://www.w3.org/2000/svg"><path d="M51.14 49.79V54h.39l7.87-.08h.55a.66.66 0 00.39-.11 1.119 1.119 0 011.84.14c.8.92 1.6 1.85 2.41 2.76a81.835 81.835 0 008 7.77c.495.483.965.99 1.41 1.52.187.183.391.347.61.49a1.27 1.27 0 01.6 1.53.55.55 0 000 .22 1.62 1.62 0 01-.53 1.47 2 2 0 01-2 .77c-2-.25-4.09-.5-6.14-.68-1.48-.13-2.965-.18-4.45-.15-4.16.11-8.32.28-12.48.44-2.51.09-5 .17-7.52.3-2.52.13-5.09.34-7.63.52-1.94.13-3.88.29-5.82.39-3.37.16-6.74.29-10.11.42h-3.06c-1.75 0-3.49.09-5.23.1a8.33 8.33 0 01-3.53-.5.999.999 0 00-.3 0 1.11 1.11 0 01-1.08-.82 1.21 1.21 0 01.47-1.33c.25-.19.54-.31.79-.49.93-.66 1.83-1.38 2.79-2 2.48-1.633 4.97-3.24 7.47-4.82l6.28-4c.169-.119.32-.26.45-.42a8.151 8.151 0 016.15-3.08c1.35 0 2.71-.12 4.11-.18V50.9h-.45L19 50.62c-1.7 0-3.4-.03-5.1-.09-.95 0-1.31-.37-1.44-1.39 0-.2 0-.4-.07-.59a2.42 2.42 0 00-.43-1.5 1.62 1.62 0 01-.25-.69A87.19 87.19 0 0110 36.85c0-.37 0-.74-.08-1.11-.23-1.59-.48-3.18-.7-4.78a58.13 58.13 0 01-.44-10.55c.09-2.13.18-4.25.32-6.37a19.43 19.43 0 01.35-2.51 2.92 2.92 0 011.64-2.18c.61-.3 1.18-.61 1.88-.19.285.104.591.131.89.08l40.46.3 14.4.11a1.51 1.51 0 00.71-.22 1.22 1.22 0 011.57.33 5.86 5.86 0 011.71 4c.19 3.49.29 7 .42 10.47a45.879 45.879 0 01-.52 7.13c-.22 1.91-.35 3.84-.59 5.74-.35 2.82-.39 5.69-1 8.47-.13.6-.28 1.19-.45 1.78a1.38 1.38 0 01-1.27 1.06c-1.66.11-3.31.21-5 .34-2.23.16-4.45.34-6.68.51l-6.29.49a.856.856 0 00-.19.04zm4.66-31.3v-.1h-.59c-2.83.05-5.67.12-8.51.15a1.82 1.82 0 00-1.32.55c-.48.44-1 .91-1.45 1.31-1.84 1.46-3.76 2.81-5.54 4.35-5.43 4.67-10.82 9.41-16.21 14.13a.65.65 0 00-.2.46v3c0 .41.15.47.49.45 1.2-.06 2.41-.1 3.62-.12a1.4 1.4 0 00.91-.35 7897.44 7897.44 0 0124.5-20.27l4.3-3.56zm5.3 6.23L40.58 42v.1l20-.66c.19-5.56.35-11.1.52-16.72zm-18.79-5.95l-.05-.14-20 .35c0 2.87.11 5.67.08 8.47-.03 2.8-.16 5.6-.25 8.4 6.78-5.63 13.06-11.94 20.22-17.08zM30.43 42.48c2-.07 3.93-.12 5.84-.21a1.51 1.51 0 00.85-.34c4.667-3.92 9.333-7.85 14-11.79L61 21.75c.13-.11.31-.25.33-.4.09-1 .15-2 .22-3.05a4 4 0 00-2.94.78c-8 6.74-16.15 13.4-24.24 20.09l-3.94 3.31zm16.3 18.8v4.14h.52L59 65.34c.49-.08.99-.08 1.48 0a5.93 5.93 0 002.12.34c1.28 0 1.63-.47 1.42-1.82v-.09a1.201 1.201 0 00-.71-1.11c-.64-.39-1.22-.86-1.85-1.26a3.52 3.52 0 00-.86-.31c-.09 0-.2 0-.29-.06-.52-.17-1-.36-1.56-.52a.76.76 0 00-1 .38c-.15.33-.35.33-.62.33h-10.4v.06zm-6.54.23h-.41c-3.2.11-6.39.24-9.59.32a12.13 12.13 0 00-4.1.73c-1.65.65-3.24 1.45-4.85 2.2a1.06 1.06 0 00-.65 1.24 1 1 0 001.1.76h.38a1.25 1.25 0 001.24 0 5.158 5.158 0 011-.15c1.16-.15 2.38.08 3.42-.72h.08c1.29-.15 2.57-.42 3.86-.45 2.74-.06 5.47 0 8.21 0h.34l-.03-3.93zm3.11-10c.15.41.36 1.12.66 1.79a.721.721 0 001.1.17l1.4-1a1 1 0 00.4-1.33c-.09-.24-.17-.49-.28-.72a1.59 1.59 0 00-1.8-1.07 2 2 0 00-1.48 2.18v-.02z" fill="#000"/></svg>