<svg xmlns="http://www.w3.org/2000/svg" viewBox="0 0 227 227"><path d="M120.2 11.5c29 10.6 20.8 46.4-11.4 39.7-12.4-2.7-13.4-18.3-8.3-27.7 3.2-7.7 11.6-12 19.7-12zm37.2 159.4c-.8 12.5-3.3 24.8-4.7 37.3.3 8.7-1.9 6.8-9.2 7.2-21.1-.1-42.3 1.3-63.3.6-2.1-.8-3.3-3.2-2.8-5.4.7-4.5 1.6-8.9 2.2-13.4-3.7-.9-7.3-2.1-10.6-4.1-1.8-1-2.2-2.3-1.7-4.3 1.6-7.1 3.1-14.3 4.6-21.4.4-1.3-1.3-1-2.2-1.4-8.4-2.4-11.7-13.5-4.4-18.7 12.3-9.3 26.5-15.6 39.5-23.7 1.5-1.1 3.5-2.1 4.5-3.7.5-3.2-1.5-6.8.4-9.7 3-3.7 10-1.7 12.1-6.5.7-1 .2-2.6-1-3-4.6-2.4-10.9-3.4-15.4-.4-2.4 1.7-4.6.9-5.5-2-.4-1-1.2-2-.9-3.2 7.9-12 38-5.9 31.3 11-2.7 5.3-8.9 7-14.2 8.6-.3.2-.5.6-.4 1 .6 2.2 0 5.2 1.6 6.9 6.6 3.2 13.2 6.4 19.9 9.6 10.3 5.8 26.7 10 33.8 19.1 5.8 9.3-3.8 19.6-13.6 19.6zm-76.2-11.4c-.4-2.2 1-3.9 3.1-3.4 1.8.7 2.6 3 3.3 4.7 1.9 7 1.4 14.3 0 21.3-1.5 9.6-3.2 19.1-4.8 28.7l64.1-1c1.1-8.3 2.2-16.4 3.4-24.7 1.3-8.7 2.3-17.3 1.6-26.1-.1-1.8-.6-2.5-2.3-2.9-5.8-1.2-11.6-2.5-17.6-2.5-11.5-.3-22.9-1.7-34.4-1.8-6.2.2-13-1.7-18.6 1.7-1.8 1.2-3.4 4.2-2.3 5.9 1.4.5 3-.1 4.5.1zm-9.9-.8c.8-18.6 25.6-11.6 37.8-12.1 10.8.7 21.6 1.1 32.4 2.2 5.8 1.4 13.4 1 15.9 7.7.7 1.8 1.2 3.5 0 5.2.1 1.2 2.9 1 3.9.8 4-.7 5.8-6.1 2.6-8.9-11.9-7.8-25.5-12.8-38.3-19.1-4.3-2.1-8.7-4.2-13-6.4-.5-.3-1.1-.2-1.5.2-8.8 6-18.6 10.4-27.8 15.7-4.9 2.5-9.5 5.5-13.8 8.9-2.5 1.7-.6 5.3 1.8 5.8zm9.3 33.3c.9-8.2 3.3-16 2.9-24.1-2.2.7-2.2.7-6.3-.2l-4 21.6 7.4 2.7z"/><path d="M75.2 123.2c5.6-16.8 11.7-33 17.7-49.6 1.9-5.1 4.2-10.1 6.4-15.1.7-2.1 1.1-5 3.7-4.8 3.1.2 3.8 3.8 2.7 6.2-7 18-13.5 36.2-19.8 54.4-2.3 6.5-1.4 3.6-3.5 10.3-.1.8-.5 1.5-1.1 2-2.5 2.2-6.2.3-6.1-3.4zm79.6 8.7c-1.4-.1-2.7-1.1-3.1-2.5-11.1-22.5-16-47.2-24.7-70.6-1-2 .6-4.6 2.8-4.5 4.6-.3 7.6 15.7 9.5 19.7 4.2 12.9 7.7 25.9 12.8 38.5 1.9 4.8 4.1 9.5 6.1 14.3 1.3 2.3-.7 5.4-3.4 5.1zM19.2 181.5c-6-.4-3.5-6-1.4-9.2 5.6-9.6 47.8-83.5 53.6-93C78.2 68.8 83.8 57.2 92.1 48c2.7-1.8 6 1.8 4.2 4.4-17.5 26.9-54.9 93.4-71.4 122-1.8 2.4-2.3 6.6-5.7 7.1zM210 169.8c-6.7-4-43.2-75.2-48.3-81.7-7-11.5-14-23.1-20.5-34.9-2-2.8 1.9-6.5 4.6-4.3 8.3 12.5 16.3 25.4 23.8 38.5 3.2 5.5 40.9 72.5 44.1 77.5 1.1 2.3-.6 4.9-3.7 4.9zM93.8 35.3c-.7 4.1-14 12.3-17.8 15.4-5.3 3.8-48.3 36.3-53.5 40.2-2.3 1.7-4.9 1-5.8-1.5-.6-1.5.1-3.2 1.4-4.1 7.5-5.5 52.8-39.5 60.3-44.9 3.6-1.7 13.9-13.5 15.4-5.1zm114.6 44.1c-15.4-8.7-50.7-27.1-64-38.4-1.7-2.6 1.4-5.9 4.1-4.3 11.5 7.1 49.6 28.6 61.4 35.8 3.9 1.9 2.4 7-1.5 6.9zm-95.7-9.8c.1-3.4.2-6.8.4-10.3-.1-.9.3-1.8.9-2.4 2.1-2.1 5.6-.6 5.5 2.6.2 6.4.3 12.7.5 19.1 0 1.7.7 3.5-.5 4.9-1.1 1.6-3.4 2-4.9.8-3.2-3.4-1.4-10.2-1.9-14.7z"/></svg>