<svg xmlns="http://www.w3.org/2000/svg" viewBox="0 0 227 227"><path d="M19.9 90c1.5-19.7.5-39.6 2.5-59.2.8-3.1 2.8-5.4 6.1-5.5 6.8.1 13.8-.6 20.5.4 1.1.5 2.4.5 3.5-.1 3.6-1.6 7.3 1.2 7.4 5.4.1 4.5.2 9 .4 13.4-.7 11.5 16 31.2 26.2 18.9 5.4-8.7 5.2-19.4 5.3-29.3-.5-4.2 2.8-8.3 7-8.7 8.8-.9 18.1-2.6 26.9-1.4 4.1 2.3 6.2 7.1 9 10.7 9.4 13 17 27.7 27.3 39.8 7.5 2.6 15.9 3.1 23.6 5.4 3.4.8 5.3 3.7 7.2 6.2 4.4 6 8.6 12.3 12.8 18.4 3.9 5.4 6.7 11.5 8.2 18 2.3 9.7-8.9 13.4-15.3 17.7-6.1 3.4-12.1 6.8-17.4 11.4-8.7 6.9-14.3-7.6-18.8-13.1-5.7-8.3-10.7-16.6-15.1-25.7-1-1.4-.9-4-.6-6 1.3-7.9 2.9-15.8 4.4-23.6.2-.8 0-1.7-.4-2.4-7.1-10.8-13.9-21.6-21.2-32.3-.2 13.3.6 26.4 2.9 39.5 1.8 18.8.6 37.8 1 56.6-.5 5.1 1.3 13-5.1 14.8-.4.1-.7.3-1 .6-8.8 14.2-21.4 25.3-32.9 37.3-1.2 2.6-1.9 5.4-5.4 5.7-5.5 3.2-11.5 4-17.7 4.6-15.5 1-8.7-6.8-14.3-10.5-2.8-1.8-3.7-5.4-5.9-7.7-5.9-5.4-10.4-11.8-15.1-18.2-2.2-3-4.7-5.9-7.2-8.8-2.3-2.4-6.4-3.7-6.5-7.7-2.4-15.8-2.5-48.1-2.3-64.6zm13.8-53.5c.5 37.4-4.5 75.4.8 112.5 4.8 1.8 10.3 2.6 14.7 5.8 4.2 2.6 7.9 6.1 10.7 10.2 5 6.9 7.3 15 9.1 23.2.7 2.6 2.5 4.5 4 6.9 2.6-.5 5.5-1.1 8.4-1.7.4-.2.7-.5.8-.9.9-6.1 3.4-11.6 5.8-17.2 6.2-14.2 17.3-22.8 31.3-28.2 1.2-.5 1.6-.9 1.6-2.2-.5-21.2 1.2-42.5-2.1-63.6-2.5-13.1-1.8-26.4-1.2-39.7.1-1.7.2-3.5.4-5.5l-13.7.7v2.1c.2 18.9-7.4 46.7-32 39.7-16-4.9-25.5-21.6-23.9-37.8 0-1.3.1-2.6.2-4.2 0-.1-14.9-.1-14.9-.1zm143.7 102c7.5-5 14.8-9 22.6-13.3 1.3-.7 1.7-1.6 1-3-5-10.9-12.2-20.4-19.1-30.2-.4-.6-1-1-1.6-1.2-5.8-1.2-11.5-4.3-17.4-3.9-.6.1-1 .6-1.2 1.1-1 7.7-2 15.3-3 22.9-.1.6 0 1.2.3 1.7 2.5 3.7 5 7.3 7.5 10.9 3.6 5 7.3 10 10.9 15z"/><path d="M72.2 101.7c6.8-7.8 28.7-16.9 28.2.5-1.7 12.8-10.6 22.7-17.7 33-2.5 4.4-4.4 9.4-10.5 6.5-5.9-3.3-11.4-7-15.7-12.4-5.8-6.9-12.3-13.8-14.3-23-1.5-8 4.6-13.4 12.5-11.4 7-.9 12 2.9 17.5 6.8z"/></svg>