<svg width="80" height="80" viewBox="0 0 80 80" fill="none" xmlns="http://www.w3.org/2000/svg"><path d="M37.89 19.5l-.69.13-1.34.22A28.539 28.539 0 0024.56 25a26.38 26.38 0 00-9.64 29.57 28.71 28.71 0 0013.29 16.17 25.66 25.66 0 0010.41 3.42c2.723.284 5.474.136 8.15-.44a33 33 0 0017.85-10 23.15 23.15 0 004.49-6.89 25.69 25.69 0 00-2.86-24.36 37.162 37.162 0 00-8.16-8 20.609 20.609 0 00-7.3-3.45 3.875 3.875 0 00-.59-.13 1 1 0 00-1.05.66.92.92 0 00.52 1.13c.206.088.42.155.64.2a18.841 18.841 0 016 2.67 36.927 36.927 0 016.8 6 23.35 23.35 0 015.39 20.9 20.85 20.85 0 01-6 10.72A31.36 31.36 0 0147 71.7a24 24 0 01-11.08 0 26.76 26.76 0 01-14.39-9.12 16.7 16.7 0 01-3.42-6.09c-.25-.82-.41-1.67-.65-2.49a22.891 22.891 0 01-.9-7.63c.036-1.376.203-2.746.5-4.09a16.48 16.48 0 012.59-5.84c.89-1.2 1.8-2.38 2.65-3.61a19.931 19.931 0 017.36-6.25A32.242 32.242 0 0137.39 24a14.83 14.83 0 017-.18 2.72 2.72 0 001.2-.05 1 1 0 00.78-1 1.55 1.55 0 00-.37-1.31 7.585 7.585 0 00-1.13-.85c-.49-.28-1-.47-1.53-.71a18 18 0 01-.22-4.53l.44-.11c.71-.12 1.43-.2 2.13-.36a1.47 1.47 0 001.25-1.61 4.263 4.263 0 00-.08-.8c-.12-.87-.25-1.74-.36-2.62-.06-.47-.07-.94-.12-1.41a1.88 1.88 0 00-1.91-1.83 4.57 4.57 0 00-.74 0c-1 .09-2 .16-3 .31a32.63 32.63 0 00-7.43 1.73 1.36 1.36 0 00-.87.7.81.81 0 01-.25.3 1 1 0 00-.31 1c.05.38.08.76.12 1.14.08.87.12 1.76.26 2.62a2.26 2.26 0 002.33 2.11c.7 0 1.4 0 2.1-.06l.94-.09.27 3.11zm-8 41.34c.26-.107.508-.241.74-.4.81-.61 1.57-1.29 2.4-1.88 1.63-1.16 3.32-2.25 5-3.41 1.19-.85 2.35-1.74 3.53-2.62.27-.2.52-.42.79-.61a1.12 1.12 0 00.54-1.1c-.08-.67-.2-1.34-.25-2-.21-2.79-.46-5.58-.6-8.37-.14-2.79-.15-5.87-.23-8.8a2.412 2.412 0 000-.47.84.84 0 00-1.66 0 3 3 0 00-.08.73v4c0 3.63.11 7.26.48 10.88.11 1.13.19 2.25.33 3.37a.83.83 0 01-.47.93c-.6.36-1.15.78-1.75 1.16a83.184 83.184 0 00-7.13 5.15l-2.24 1.74a.94.94 0 00-.41 1.12 1 1 0 001.05.58h-.04zm-6.82-16.51c-.15-.44-.27-.8-.4-1.16a.88.88 0 00-1.31-.51 4.06 4.06 0 00-1.57 1.45 1.711 1.711 0 00-.2.64 1.28 1.28 0 001.57 1.42 2.43 2.43 0 001.37-.82 5.56 5.56 0 00.54-1.02zM41.29 66.1a1.58 1.58 0 001.58 1.8 1.49 1.49 0 001.45-1.48 1.64 1.64 0 00-1.47-1.51 1.47 1.47 0 00-1.56 1.19zM64.6 48.8a1.34 1.34 0 00-1.38-1.29 1.58 1.58 0 00-1.54 1.35 1.41 1.41 0 001.44 1.32 1.49 1.49 0 001.48-1.38z" fill="#fff"/><path d="M37.89 19.5l-.28-3.13-.94.09c-.7 0-1.4.1-2.1.06a2.26 2.26 0 01-2.33-2.11c-.14-.86-.18-1.75-.26-2.62 0-.38-.07-.76-.12-1.14a1 1 0 01.31-1 .81.81 0 00.25-.3 1.36 1.36 0 01.87-.7 32.63 32.63 0 017.43-1.73c1-.15 2-.22 3-.31.246-.02.494-.02.74 0a1.88 1.88 0 011.91 1.83c.05.47.06.94.12 1.41.11.88.24 1.75.36 2.62.052.263.079.531.08.8a1.47 1.47 0 01-1.25 1.61c-.7.16-1.42.24-2.13.36l-.44.11a18 18 0 00.22 4.53c.51.24 1 .43 1.53.71.402.247.78.532 1.13.85a1.55 1.55 0 01.46 1.23 1 1 0 01-.78 1 2.722 2.722 0 01-1.2.05 14.83 14.83 0 00-7 .18 32.242 32.242 0 00-7.72 2.67 19.93 19.93 0 00-7.36 6.25c-.85 1.23-1.76 2.41-2.65 3.61a16.48 16.48 0 00-2.59 5.84 21.572 21.572 0 00-.5 4.09 22.892 22.892 0 00.9 7.63c.24.82.4 1.67.65 2.49a16.701 16.701 0 003.42 6.09 26.76 26.76 0 0014.39 9.12c3.613.853 7.375.857 10.99.01 6-1.37 9.69-3.06 14-7.39a20.85 20.85 0 006-10.72 23.35 23.35 0 00-5.39-20.9 36.927 36.927 0 00-6.8-6 18.839 18.839 0 00-6-2.67 4.354 4.354 0 01-.64-.2c-.46-.22-.8-2-.66-2.43.14-.43 2.14-.52 2.63-.46.2.028.397.071.59.13a20.609 20.609 0 017.3 3.45 37.158 37.158 0 018.16 8 25.69 25.69 0 012.86 24.36 23.15 23.15 0 01-4.49 6.89 33 33 0 01-17.85 10 25.941 25.941 0 01-8.15.44 25.66 25.66 0 01-10.41-3.42 28.71 28.71 0 01-13.23-16.19A26.38 26.38 0 0124.56 25a28.539 28.539 0 0111.3-5.17l1.34-.22.69-.11zm-4.17-8.88c.02 1.165.141 2.326.36 3.47a.58.58 0 00.56.5c.268.04.541.04.81 0 1.18-.14 2.37-.27 3.55-.47 1.82-.3 3.64-.65 5.46-1 .15 0 .29-.07.43-.1l-.55-4.44c-1.68-.25-8.49 1.03-10.62 2.04zm5.67 5.45l.45 3.4h1.35v-1.85a9.002 9.002 0 00-.06-1.87l-1.74.32z" fill="#000"/><path d="M32.15 61.69c-.6 0-2.15 1.52-3.32.25-.95-.74 0-2.53.41-2.85l2.24-1.74a83.184 83.184 0 017.13-5.15c.6-.38 1.15-.8 1.75-1.16a.83.83 0 00.47-.93c-.14-1.12-.22-2.24-.33-3.37-.37-3.62-.45-7.25-.48-10.88v-4a3 3 0 01.08-.73c.89-2.19 3-1.9 3.11-.5.53 1.06.68.95.77 1.39a2.46 2.46 0 010 .47c.08 2.93.09 5.86.23 8.79.14 2.93.39 5.58.6 8.37 0 .68.17 1.35.24 2a1.09 1.09 0 01-.53 1.09c-.27.19-.52.41-.79.61-1.18.88-2.34 1.78-3.53 2.62-1.64 1.16-3.33 2.25-5 3.41-.82.59-1.58 1.27-2.39 1.89a4.725 4.725 0 01-.66.42zM24.28 45a8.64 8.64 0 01-.72 1.37 3.29 3.29 0 01-1.85 1.09 1.72 1.72 0 01-2.12-1.91c.03-.3.126-.59.28-.85A5.4 5.4 0 0122 42.71a1.17 1.17 0 011.76.69c.16.47.31.96.52 1.6zm16.06 21.66a1.8 1.8 0 011.89-1.44A2 2 0 0144 67.05a1.8 1.8 0 01-1.75 1.8 1.91 1.91 0 01-1.91-2.19zm24.78-19.12a1.72 1.72 0 01-1.69 1.58 1.61 1.61 0 01-1.64-1.51 1.78 1.78 0 011.75-1.53 1.522 1.522 0 011.58 1.46zm-31.4-36.92c2.13-1 8.94-2.29 10.62-2l.55 4.44c-.14 0-.28.08-.43.1-1.82.34-3.64.69-5.46 1-1.18.2-2.37.33-3.55.47-.269.04-.542.04-.81 0a.58.58 0 01-.56-.5 20.434 20.434 0 01-.36-3.51zm5.67 5.45l1.74-.32c.085.62.105 1.246.06 1.87v1.85h-1.35l-.45-3.4z" fill="#000"/></svg>