<svg xmlns="http://www.w3.org/2000/svg" viewBox="0 0 80 80"><path d="M37.9 19.5l-.3-3.1c-5.8.7-5.2-.7-5.7-5.7-.2-.6.3-.9.6-1.3.2-.3.5-.6.9-.7 3.3-1.2 6.9-1.8 10.4-2 1.2-.2 2.6.4 2.6 1.8.1 1.6.4 3.2.6 4.8.1 2.1-2.5 1.6-3.8 2.1-.1 1.5 0 3 .2 4.5 1.1.5 2.5 1 3 2.1.5 1.4-.7 2-1.9 1.7-2.3-.5-4.7-.4-7 .2-5.8 1.2-11.6 3.9-15.1 8.9-2.1 2.9-4.5 5.8-5.2 9.5-.8 3.9-.7 7.9.4 11.7 1.7 9 9.9 15.5 18.5 17.7 8.8 2 18.8-.9 25-7.4 5.8-5.5 7.8-14.2 5.9-21.8-1.6-6.7-6.5-12-12.1-15.8-2-1.4-4.3-2.2-6.6-2.9-.5-.2-.8-2-.7-2.4.1-.4 2.1-.5 2.6-.5 6.7 1.4 12 6.3 16.1 11.6 6.6 9.2 6.4 23-1.6 31.3-6.5 7.1-16.3 11.3-26 10.4-10.9-1.1-20.4-9.3-23.6-19.6-5.6-16.3 6.2-33 22.8-35.1z"/><path d="M32.2 61.7c-.6 0-2.2 1.5-3.3.2-1-.7 0-2.5.4-2.8l2.2-1.7c2.9-2.5 6.3-4.4 9.3-6.7.2-1.3-.2-2.6-.3-3.9-.5-5.2-.6-10.4-.4-15.6.9-2.2 3-1.9 3.1-.5.5 1.1.7 1 .8 1.4.1 6.5.3 13.2 1.1 19.6.1.9-.8 1.2-1.3 1.7-3.8 2.9-7.9 5.4-11.6 8.3zM24.3 45c-.4 1.2-1.3 2.2-2.6 2.5-1.1.3-2.3-.7-2.1-1.9.1-1.2 2.2-3.4 3.5-2.9.9.4.8 1.3 1.2 2.3zm16 21.7c.5-2.2 3.5-1.7 3.7.4-.1 2.6-4 2.1-3.7-.4zm24.8-19.2c-.2 2-3.2 2.1-3.3.1.2-1.9 3.2-2.1 3.3-.1z"/></svg>