<svg xmlns="http://www.w3.org/2000/svg" viewBox="0 0 80 80"><path d="M24.3 66c-1.1 1.1-2.1 2.2-3.1 3.2-.5.6-1.4 1.1-2.1.7-.5-.2-.8-.7-.8-1.2-.1-1.8-.1-3.5-.1-5.3-.1-1.1.4-2.3.1-3.4-2-3.4-2.1-7.5-1.3-11.2.1-.3 0-.4-.3-.5-.8-.3-1.5-.6-2.2-1-1-.5-1.1-1.9-.2-2.5 1.5-1.3 3.1-2.5 4.6-3.8.5-.4.9-.8 1.5-.9.1 0 .2-.2.3-.3 1.7-2.8 3.7-5.3 6.2-7.5v-.1c-3.8-.5-7.6-1.2-11.4-1.4-1.8-.4-4.2-.2-5.8-1.3-1.5-1.5 1.2-3.4 2.4-4.1 4.2-3.1 8.6-5.8 13.1-8.3C31.7 13.2 38.3 9.3 45 5.4c.7-.6 1.3-.2 2-.2.3-.2.7-.2 1 0 .9.6.6 2 .6 2.9-.6 2.9-1.1 5.8-1.8 8.7-1.9 10.5-5.7 20.5-8.7 30.6-.2.7-.1 1.5-.7 2-.5.5-1.5.7-2.2.6-.8-.6-1.7-.9-2-2-1.3-4.8-2.6-9.3-4.1-14.2-2.3 1.9-3.9 4.5-5.7 6.8-.1.2-.1.5-.1.7 0 2.4 1 4.9.8 7.3-.8 2.1-2.9 1.2-4.4.6-.5 3-.9 6 .5 8.8.2.3.3.5.6.3 2.3.2 4.9-.4 7 .8.6.5.6 1.6.1 2.1-.6.9-1.3 1.7-1.9 2.5 2.9 1.1 6.2 2.2 9.3 2 .2-.5.7-.6 1.1-.9 1.8-1.4 3.4-3 4.7-4.8.6-.8 2-.8 2.5.1.3.6.2 1.2.1 1.9 3.7-4 5.1-9.5 5.6-14.9.8-5.4 1.4-12.1 6.3-15.4 7.6-4.3 14.5 1.3 12.3 9.7-1 3.2-3.1 5.9-4.3 8.9-.6 1.2-.3 2.5-.1 3.7 0 .8-.7 1.4-1.5 1.3-2-.4-1.7-4.4-1.1-5.8 1.2-3.5 4.1-6.3 4.6-10.1.6-4-2.1-7.6-6.3-6.2-2.7.4-4 2.3-5.1 4.5-1.9 4.4-1.8 9.3-2.8 13.9-1 5.3-3.2 10.1-7.3 13.9-.1.1-.2.3-.2.6.1 1.2.2 2.3.3 3.5.1 1.2-.1 3-1.7 2.8-1.9-.8-3.5-2.5-5.3-3.7-.2-.2-.4-.3-.7-.3-4.2.3-8.4-.6-12.1-2.4zM45 8.7c-6.3 3.6-12.7 7.4-19 11-4.4 2.6-8.9 5.1-13 8.2 3.4.4 6.8.5 10.2 1.1 1.8.3 3.7.5 5.6.6.2 0 .4-.1.5-.2 5-7.1 10.5-13.8 15.7-20.7z"/></svg>