<svg width="80" height="80" fill="none" xmlns="http://www.w3.org/2000/svg"><path d="M24.29 66c-1.05 1.09-2.07 2.17-3.11 3.23-.205.225-.44.42-.7.58a1.41 1.41 0 01-2.21-1.1 83.95 83.95 0 01-.14-5.26c0-1 .13-2 .18-3a.71.71 0 00-.12-.42 13.84 13.84 0 01-1.58-9.34c.08-.63.2-1.27.32-1.89.06-.29 0-.4-.3-.51a16.203 16.203 0 01-2.23-1 1.51 1.51 0 01-.21-2.53c1.52-1.29 3.08-2.52 4.63-3.77.46-.36.85-.83 1.51-.85.11 0 .24-.22.32-.35A33.645 33.645 0 0126 33.07l.83-.74v-.13c-.54-.07-1.08-.13-1.61-.21-1.82-.27-3.63-.57-5.45-.8-1.44-.17-2.9-.21-4.34-.38s-3.07-.42-4.6-.7a2.7 2.7 0 01-1.21-.57c-.62-.49-.51-1.15-.16-1.84A7.33 7.33 0 0112 25.45a114.574 114.574 0 0113.11-8.31C31.72 13.24 38.33 9.3 45 5.37a1.64 1.64 0 011.58-.23.8.8 0 00.43 0 1.15 1.15 0 011.56.93 6.44 6.44 0 010 2.1c-.55 2.92-1.13 5.83-1.77 8.72-.81 3.7-1.57 7.42-2.57 11.08-1 3.48-2.23 6.89-3.33 10.34-1 3.07-1.9 6.15-2.84 9.23-.12.42-.17.86-.28 1.28a1.4 1.4 0 01-1.08 1.09c-.174.069-.35.129-.53.18-.31 0-.71.14-.92 0-.78-.55-1.74-.91-2-2-.59-2.29-1.24-4.58-1.9-6.86-.66-2.28-1.44-4.84-2.19-7.36a18.196 18.196 0 00-1.72 1.65c-1.36 1.69-2.68 3.42-4 5.15a1.16 1.16 0 00-.08.68c.021.486.068.97.14 1.45.22 1.59.45 3.17.68 4.76a2 2 0 01-2.64 2.29c-.6-.18-1.18-.41-1.86-.65-.12.93-.26 1.8-.35 2.69a10.82 10.82 0 00.83 6.11c.16.29.29.49.64.33a.462.462 0 01.2 0c1.62 0 3.23.06 4.85.14.419.04.83.142 1.22.3a1.511 1.511 0 01.78 2.5c-.49.69-1 1.34-1.55 2l-.38.54 2.4.87a22.888 22.888 0 006.56 1.15c.12 0 .33 0 .36-.07.22-.47.72-.57 1.06-.86a23.226 23.226 0 004.11-4c.183-.276.38-.543.59-.8a1.64 1.64 0 011.83-.51 1.45 1.45 0 01.83 1.54c0 .3 0 .6-.08 1l.42-.46a20.519 20.519 0 003.73-6.95 36.34 36.34 0 001.42-7.44c.47-3.52.9-7.07 2.34-10.37a10.31 10.31 0 014-5.05 12.202 12.202 0 015-1.46 7 7 0 016.75 3.91 10.47 10.47 0 01.53 7.21 25.46 25.46 0 01-2.66 5.54 41.18 41.18 0 00-1.67 3.4 4.26 4.26 0 00-.15 3.2 1.3 1.3 0 01-.85 1.75 1.33 1.33 0 01-1.68-.9c-.06-.16-.11-.32-.16-.48a6.56 6.56 0 01.26-4.41A30.852 30.852 0 0163.8 44a11.87 11.87 0 001.63-4.43 6.55 6.55 0 00-.91-4.57 4 4 0 00-4-1.85c-.47 0-.93.17-1.4.24-2.68.39-4 2.27-5.09 4.51a22.575 22.575 0 00-1.61 6c-.41 2.63-.64 5.29-1.14 7.91-1 5.35-3.18 10.15-7.35 13.86a.771.771 0 00-.24.55c.07 1.18.2 2.35.26 3.52a5.69 5.69 0 01-.11 1.65 1.38 1.38 0 01-2.21.88c-1.58-1.05-3.08-2.27-4.63-3.4a1.29 1.29 0 00-.7-.28A27.28 27.28 0 0124.29 66zM45 8.66v-.07l-4.49 2.64c-4.85 2.82-9.65 5.67-14.51 8.46-4.24 2.46-8.46 4.91-12.46 7.74-.188.14-.368.29-.54.45 1 .11 1.94.24 2.84.31 2.458.132 4.908.389 7.34.77 1.84.34 3.71.46 5.58.65a.67.67 0 00.53-.23c1.4-1.9 2.73-3.85 4.16-5.73 3.27-4.28 6.58-8.52 9.87-12.78.6-.73 1.15-1.47 1.68-2.21z" fill="#000"/></svg>