<svg version="1.1" id="Layer_1" xmlns="http://www.w3.org/2000/svg" x="0" y="0" viewBox="0 0 80 80" xml:space="preserve"><style>.st0{fill:#fff}</style><path d="M25.6 75.8c-2.1-.6-4.4-.2-6.6-.5-1.1-.1-1.9-1.3-1.6-2.3.2-.7 1-1.2 1.6-1.5 2-.8 4.2-1.3 6.4-1.3-.3-2.1 0-4.1-.2-6.3-3.9.3-8 .2-11.9-.4-1.1 0-2.2-.7-3.2-.4-1.5.8-3.1-1.7-2.3-3.1-.6-.3-1.1-.9-1.1-1.6C5.5 53 4.6 47.5 4.1 42c0-1-.8-1.8-.6-2.8.1-.6.2-1.3.6-1.8.6-.3.5-.8.6-1.4 2-6.3 11.4-6.7 16.9-7.6-.4-4.4-.7-9.1-.9-13.6-.1-.7.3-1.5 1-1.8 1.9-2.3 4.8-3.4 7.7-3.8 5-.8 10.1-1.1 15.1-.7l4.2.3c.2 0 .4-.1.5-.3 1.1-1.5 2.4.2 3.6.7.7.3 1.6.4 2 1.2.6 1.1 1 2.3 1 3.5.1 4.8.2 9.6.2 14.4-.1 2 0 4.1-.2 6.2-1.7 4.8-7.4 6.8-12.1 6.7.2 2.9.6 5.7 1.1 8.6 0 .7.3 1.4.8 2 1.6 2.2-1.3 4-2.8 5.3-4 3.3-9 5-14.1 5.9-.8.2-.9.2-.8 1 .2 1.8.3 3.6.5 5.5 3.5.2 7.5-.7 10.6 1.3 1 .6 1 2.2.2 3-.3.2-.6.4-.9.4-1.6.3-3.2.6-4.8.8-1.8.3-3.4 0-5 .6-.1.1-2.9.2-2.9.2zM39 32.3c-1.8-.3-3.7-.3-5.5-.4-5-.1-9.9-.5-14.9.2-3.7.7-8.3 1-10.9 4.1-.3.3-.2.6.2.8 1.3.7 2.8 1.1 4.3 1.2.4 0 .5.2.6.6.5 3 1 6 1.6 9 .6 3.3 1.4 6.4 2 9.7 0 .9 1.2 1.3 1.7.6.8-1.3.1-3.1 0-4.5L16 40.1c-.1-.6-.2-1.3-1-1.5 5.3.5 10.6 0 15.7-1.6.5 5.3 1.2 10.5 2 15.8.2.8.3 2.1 1.3 2.2 1.9-.3.7-3.2.7-4.5-.5-3.8-.9-7.6-1.4-11.4 0-.4-.1-.7-.3-1-.3-.4-.5-.9-.4-1.4 0-.2.1-.3.3-.4.7-.4 1.5-.7 2.2-1 1.6-.6 2.8-1.8 3.9-3zm10.6-17.2c.9-.4 1.9-1.1 2.8-1.7.8-.6-.6-1-1.1-1.1-6.5-.7-13.1-1-19.5-.2-2.5.3-5.2.8-7.3 2.3-1.2.7 1.9 1.6 2.3 1.9.2.1.3.4.3.6-.2 2.8.4 5.7.5 8.6.2.8.1 2.3 1.2 2.2 1.2.1 1.1-1.6 1.2-2.4-.2-2.8-.6-5.7-.8-8.5 5.9.6 11.8 1 17.7-.9.2 5.3.2 10.5.5 15.8.1 1-.3 2 .1 2.9.4.8 1.7.9 2.1.1.8-1.1.3-2.2.1-3.3-.2-5.3.6-11.1-.1-16.3z"/><path d="M60.9 62.9c.2 1.6.2 2.9.4 4.4 0 .2.1.3.3.5 1.1.8.5 2.3 0 3.3-.6 1-2.5 1-2.7-.3-.4-2.7-.4-5.4-.6-8.1-2.7 1.9-5.5 3.7-8.4 5.3-1.3.6-2.6 2-4 2-1.3-.1-1.7-1.8-.8-2.7 3-2.1 6.4-3.6 9.5-5.6 1-.6 2-1.2 3-1.9.3-.2.4-.6.4-.9.2-10.9 2.2-21.8 5.8-32 .1-.2 0-.4-.1-.6-2-2.5-3.3-5.5-3.7-8.7-.6-2.6 1-5.7 4-5.4 2 .9 3.4 2.7 4.9 4.1 1.6 1.7 3.2 3.3 4.6 5.1 2 2.5 5.3 8.4 2.2 11-.5.3-1 .4-1.6.4-3.1-.5-5.6-2.3-8.1-4-3.1 10-5.1 20.5-5.1 30.9 0 .2.2.3.3.4l3.9 1.5c2.3 1 5.2 1.5 7 3.2 1.1 1.4-1 4.2-2.3 2.4-.3-.5-.8-.8-1.4-1-2.6-1.2-4.9-2.3-7.5-3.3zm13.2-33.4c-.5-5.4-5.4-9-8.8-12.8-.7-.6-1.7-.6-2.5-.8-.1 5.1 3.5 9.9 8 12.1.1.2 3 1.3 3.3 1.5z"/><path class="st0" d="M68.6 21.7c-2.1 0-2.6 3.1-.3 3.3.7 0 1.7-1.3 1.7-1.9 0-.8-.6-1.4-1.4-1.4z"/><path d="M68.6 21.7c.7-.1 1.4.6 1.4 1.3 0 .6-1 2-1.7 1.9-2.2-.1-1.7-3.1.3-3.2z"/></svg>