<svg viewBox="0 0 80 80" fill="none" xmlns="http://www.w3.org/2000/svg"><path d="M25.56 75.77a2.494 2.494 0 00-.62-.2c-1.68-.09-3.37-.15-5.06-.23-.3 0-.6-.07-.9-.1A1.73 1.73 0 0117.45 74a1.56 1.56 0 01.55-1.92c.303-.258.64-.473 1-.64a19.003 19.003 0 016.14-1.32h.27c-.06-.68-.17-1.35-.18-2-.01-.65.1-1.23.1-1.84 0-.8-.07-1.59-.11-2.41l-2.13.12a53.762 53.762 0 01-9.74-.47c-.87-.11-1.73-.36-2.59-.52a1 1 0 00-.59.1A1.16 1.16 0 018.8 63a2.33 2.33 0 01-1-3 2 2 0 01-1.14-1.6c-1-4.75-1.86-9.52-2.37-14.34L4.09 42a3.6 3.6 0 00-.42-1.55 2.14 2.14 0 01-.2-1.26c.086-.488.216-.966.39-1.43 0-.14.09-.32.19-.37.55-.32.53-.85.61-1.37a4.55 4.55 0 011.22-2.32 11.2 11.2 0 013.27-2.47 22.12 22.12 0 016.78-2l5.62-.76c-.17-2-.37-4.18-.51-6.31-.16-2.42-.28-4.83-.38-7.25a1.7 1.7 0 01.95-1.85c.33-.15.49-.61.79-.85a11.67 11.67 0 012.07-1.51 17.712 17.712 0 014.81-1.44 61.35 61.35 0 0115.13-.67c1.4.07 2.8.23 4.2.32a.79.79 0 00.55-.27c.56-.62 1-.88 1.82-.36.59.38 1.2.72 1.82 1.06.237.119.49.203.75.25a1.8 1.8 0 011.21.94 7.28 7.28 0 011 3.54c.09 4.8.19 9.6.25 14.41 0 1.4-.07 2.8-.12 4.21.007.65-.036 1.298-.13 1.94a3.24 3.24 0 01-.56 1.29 11 11 0 01-3.52 3.46c-.68.36-1.38.69-2.09 1-1.91.651-3.912.989-5.93 1 .1 1.08.19 2.15.32 3.22.22 1.8.463 3.593.73 5.38a3.33 3.33 0 00.78 2 2.24 2.24 0 01-.22 3 22.067 22.067 0 01-2.54 2.29c-1.05.82-2.16 1.58-3.27 2.31-.633.398-1.302.732-2 1-1.41.57-2.82 1.15-4.27 1.58-1.45.43-3 .7-4.54 1-.81.16-.91.22-.85 1 .16 1.82.32 3.64.49 5.49.113.01.227.01.34 0 2.33 0 4.66 0 7 .1a6.27 6.27 0 011.88.48c.492.182.962.42 1.4.71a1.76 1.76 0 01.72 2.06 1.62 1.62 0 01-1.4 1.35c-1.6.3-3.2.62-4.81.83-1.61.21-3 .24-4.46.37a1.82 1.82 0 00-.52.19l-2.88.03zM39 32.26a8.16 8.16 0 00-.81-.14c-1.57-.09-3.15-.22-4.72-.24-4.95-.06-9.91-.55-14.85.23-1.78.28-3.56.57-5.31 1-1.05.296-2.076.67-3.07 1.12a6 6 0 00-2.53 2c-.27.34-.2.61.15.78.62.327 1.265.601 1.93.82.79.209 1.596.353 2.41.43.41 0 .51.2.58.58.5 3 1 6 1.57 9 .36 2 .84 3.88 1.24 5.83.27 1.29.48 2.58.75 3.87a1 1 0 002-.07c.065-.295.085-.599.06-.9-.1-1-.2-1.91-.35-2.85-.69-4.5-1.4-9-2.1-13.48-.1-.64-.21-1.29-1-1.49a39.56 39.56 0 0015.66-1.61c0 .4.06.7.09 1 .24 2.21.43 4.42.72 6.62.37 2.73.8 5.45 1.24 8.17a6.7 6.7 0 00.58 1.79.901.901 0 001.45 0 1.94 1.94 0 00.31-1.51c-.11-.88-.19-1.76-.29-2.65-.46-3.793-.927-7.583-1.4-11.37a1.82 1.82 0 00-.34-1 1.63 1.63 0 01-.37-1.43.52.52 0 01.26-.38c.74-.36 1.52-.66 2.25-1a11.588 11.588 0 002-1.22 20.69 20.69 0 001.89-1.9zm10.63-17.21c.17-.09.48-.24.77-.43.66-.4 1.31-.82 2-1.25.32-.21.33-.46 0-.64a3.36 3.36 0 00-1.06-.44c-1.15-.16-2.32-.26-3.48-.35-1.37-.1-2.73-.17-4.1-.22a60.452 60.452 0 00-11.95.4 22.5 22.5 0 00-5.56 1.28c-.605.276-1.18.611-1.72 1-.4.28-.38.54.05.77.659.382 1.344.716 2.05 1a.62.62 0 01.48.74 7.64 7.64 0 00-.11 1.15c.2 2.473.413 4.95.64 7.43.062.542.159 1.08.29 1.61a.83.83 0 00.9.61.82.82 0 00.91-.58 6.42 6.42 0 00.3-1.82c-.1-1.66-.3-3.32-.46-5-.11-1.18-.22-2.36-.32-3.48 5.94.58 11.83.95 17.67-.88 0 .36.05.59.06.81.05 2.92.07 5.84.16 8.75.06 2.08.22 4.15.3 6.23 0 .71-.09 1.42-.08 2.13a1.29 1.29 0 00.72 1.31 1.09 1.09 0 001.49-.48 2.64 2.64 0 00.34-2.33 2.998 2.998 0 01-.27-1c.08-4.92.18-9.85.25-14.77a9.172 9.172 0 00-.27-1.55z" fill="#000"/><path d="M60.94 62.89c.12 1.29.22 2.47.33 3.66.008.248.032.495.07.74a1 1 0 00.25.48 1.54 1.54 0 01.59 1.56 6.907 6.907 0 01-.61 1.74 1.5 1.5 0 01-1.53.68 1.17 1.17 0 01-1.14-1 13.623 13.623 0 01-.23-1.8c-.13-2.09-.24-4.18-.37-6.35-.34.21-.69.38-1 .61-.53.37-1 .81-1.55 1.17-.77.53-1.56 1-2.37 1.51-1.15.67-2.34 1.29-3.5 2-1 .56-1.93 1.16-2.9 1.72a1.49 1.49 0 01-2.07-.19 1.64 1.64 0 01.17-2.14 3.22 3.22 0 01.73-.59c1.38-.78 2.78-1.52 4.15-2.31 1.54-.89 3.06-1.81 4.58-2.73 1-.62 2-1.25 3-1.95a1.43 1.43 0 00.43-.94c.1-2.08 0-4.17.25-6.24.29-2.86.73-5.71 1.2-8.54.47-2.83 1-5.46 1.57-8.16.4-1.78 1-3.51 1.52-5.26.39-1.27.85-2.52 1.25-3.78a.84.84 0 00-.08-.63A17.19 17.19 0 0160 17.41a5.43 5.43 0 011-4.34 3.24 3.24 0 011.18-.71c.3-.139.616-.243.94-.31A1.69 1.69 0 0164 12a9.32 9.32 0 012.85 2.06c.68.71 1.43 1.36 2.1 2.08 1.56 1.69 3.18 3.33 4.59 5.13a16.27 16.27 0 013.22 6.4 6 6 0 01-.07 3.27 2.39 2.39 0 01-2.6 1.66 10.93 10.93 0 01-4.26-1.6c-.74-.44-1.51-.85-2.24-1.31-.53-.33-1-.73-1.59-1.14-.27.88-.49 1.69-.76 2.49a83.724 83.724 0 00-2.75 12.3c-.49 2.71-1 5.42-1.3 8.16-.3 2.74-.23 5.32-.31 8a.61.61 0 00.34.42c1.28.5 2.58 1 3.87 1.46 1.63.62 3.28 1.19 4.87 1.89a4.26 4.26 0 012.16 1.34 2 2 0 01-.65 2.75 1.17 1.17 0 01-1.67-.37 2.49 2.49 0 00-1.41-.99c-1.33-.57-2.7-1.06-4-1.62-1-.41-1.94-.89-2.92-1.33-.15-.05-.27-.05-.53-.16zm13.12-33.43a5.8 5.8 0 00-.63-2.66 19.65 19.65 0 00-3.68-5.46c-1.47-1.59-3-3.14-4.51-4.68a2.08 2.08 0 00-.87-.42c-.54-.16-1.1-.27-1.66-.4 0 .11 0 .23-.05.35-.05.12 0 .25 0 .37a14.469 14.469 0 002.22 6.19 14.72 14.72 0 005.88 5.18c.14.07.25.19.39.26l2.91 1.27z" fill="#000"/><path d="M68.61 21.73a1.84 1.84 0 00-1.83 1.7A1.56 1.56 0 0068.27 25C69 25 70 23.72 70 23.07a1.3 1.3 0 00-1.39-1.34z" fill="#fff"/><path d="M68.61 21.73A1.3 1.3 0 0170 23.07c0 .65-1 2-1.69 1.92a1.56 1.56 0 01-1.49-1.56 1.84 1.84 0 011.79-1.7z" fill="#000"/></svg>