<svg viewBox="0 0 80 80" fill="none" xmlns="http://www.w3.org/2000/svg"><path d="M3.43 33.6c.1-.57.18-1.15.29-1.72.94-4.52 4.36-6.95 9-6.4a19.42 19.42 0 017.81 2.84c1.55.94 3 2.06 4.5 3.08.197.124.427.187.66.18A1.27 1.27 0 0127 32.63c.037.205.112.402.22.58.24.43.52.52 1 .31 4.09-1.69 8.24-3.25 12.29-5 3-1.35 5.92-3 8.88-4.49L63 17.18a.66.66 0 00.46-.74 6.67 6.67 0 012.51-5.65 8.74 8.74 0 012.55-1.07l.34-.11h1.06l.51.12a8.43 8.43 0 016.71 5.38 6.24 6.24 0 01-1.68 7.53 3.82 3.82 0 01-1.8.94c-1.182.205-2.38.306-3.58.3a6.997 6.997 0 01-1.76-.56l-3.83 2.07c.31.37.6.7.87 1 2.31 2.92 2.74 5.55.57 9.31A14.511 14.511 0 0160 41.38a8.59 8.59 0 01-8.39-.22c-1.74-.92-3.36-2.07-5.09-3.15-.81.87-1.67 1.83-2.57 2.74a28.494 28.494 0 00-4.49 5.83 2.908 2.908 0 00-.34 1.19c-.065.913.11 1.827.51 2.65 1.2 2.598 2 5.362 2.37 8.2a13.8 13.8 0 01-.32 5.79C40.49 68.59 37 70.3 33.28 70A21.58 21.58 0 0123 65.71 50.37 50.37 0 019.06 50.78a37.91 37.91 0 01-5.14-12.19c-.21-1-.33-2.05-.49-3.08V33.6zm36 27.17c-.19-1.27-.35-2.61-.61-3.92-.8-4-2.93-7.51-4.76-11.11l-.06-.09a48.619 48.619 0 00-5.77-7.11c-.27-.26-.48-.58-.75-.83s-.62-.47-.92-.72c-.3-.25-.55-.37-.58-.58-.08-.65-.57-.92-1-1.29a31.002 31.002 0 00-9.36-6 10.73 10.73 0 00-4.88-.82 4.3 4.3 0 00-3.58 2.22 7.37 7.37 0 00-.88 3.67 23.93 23.93 0 002.53 10.2 48.54 48.54 0 008.79 12.93 37 37 0 0010.74 8.28 13.09 13.09 0 006.16 1.55 4.49 4.49 0 004.5-3.59c.2-.88.28-1.8.43-2.79zm-2.32-15.5c.46-.76.9-1.52 1.37-2.27a40.367 40.367 0 016.22-7.15 55.99 55.99 0 018.9-7 143.15 143.15 0 0113.75-8.19c1.14-.59 2.3-1.16 3.47-1.74a5.13 5.13 0 00-1.61-1.84.44.44 0 00-.4 0c-1.81 1-3.58 2-5.4 2.94-3.52 1.82-7 3.59-10.58 5.39-3.58 1.8-7.1 3.82-10.76 5.49-3.88 1.78-7.89 3.27-11.85 4.89l-.62.21a44.214 44.214 0 017.51 9.27zm11.32-9c2 .91 3.51 2.37 5.54 2.86.73.19 1.477.308 2.23.35a5.53 5.53 0 003.62-1.3 11.49 11.49 0 004.36-5.4 3.76 3.76 0 00.1-2.6 10.43 10.43 0 00-2.28-3.3l-.64.4c.13.32.24.58.33.85a7.27 7.27 0 01-1.26 7.28 5.412 5.412 0 01-3.69 2.2 9.311 9.311 0 01-7.17-2.26l-1.14.92zm3.06-2.48c.62.29 1.12.56 1.64.76.38.149.776.25 1.18.3a4.44 4.44 0 002.69-.2 4.59 4.59 0 002.14-5.24c-.16-.53-.29-.59-.78-.27-1.68 1.1-3.37 2.21-5 3.33-.66.39-1.22.83-1.87 1.3v.02zM66.07 15.7c.75-.43 1.44-.78 2.09-1.2a1.65 1.65 0 011.94 0 9.8 9.8 0 013.15 3.16 2.41 2.41 0 01.14 2.82 1.16 1.16 0 000 .25 4.001 4.001 0 001.46-2.79c.07-2.84-2.53-5.06-4.85-5.42-2.14-.32-3.59 1.2-3.93 3.18z" fill="#000"/><path d="M9.7 37.63c.099 1.431.398 2.842.89 4.19a35.93 35.93 0 005.62 10 38.53 38.53 0 009.35 9A12.29 12.29 0 0030.7 63a3.86 3.86 0 004.59-3.23 9.002 9.002 0 000-2.79 20.5 20.5 0 00-2.48-6.89A43.88 43.88 0 0021.2 36.17 15.74 15.74 0 0015 33a3.998 3.998 0 00-5 2.87c-.132.58-.232 1.168-.3 1.76z" fill="#fff"/><path d="M9.7 37.63c.07-.582.17-1.16.3-1.73a4 4 0 015-2.9 15.74 15.74 0 016.19 3.14 43.88 43.88 0 0111.65 13.91 20.5 20.5 0 012.48 6.89 9.002 9.002 0 010 2.79A3.86 3.86 0 0130.7 63a12.29 12.29 0 01-5.14-2.13 38.53 38.53 0 01-9.35-9 35.93 35.93 0 01-5.62-10 15.278 15.278 0 01-.89-4.24z" fill="#000"/></svg>