<svg xmlns="http://www.w3.org/2000/svg" viewBox="0 0 80 80"><path d="M76.3 57.5c0 1.9.1 6.2-.2 8-.4 2.2-3.4 1.6-3.2-.7 0-1-.1-2-.2-3.2-2.7 4.1-6.9 6.6-11.2 8.9-.3.1-.5.5-.5.8 0 1 0 2-.1 3-.1.5-.2.9-.5 1.3-.2.2-.3.6-.2.9.4 1.1-.5 2.3-1.6 2.5-1.3 0-2-1.4-2.7-2.3-.4-1.6-.1-3.4-.2-5.1l-43-6c.1 1.5.1 3.1.3 4.6.1.5 0 1-.2 1.4-.5.9-1.7 1.2-2.5.6-.4-.2-.6-.7-.7-1.2-.2-2-.5-4.2-.6-6.3-1.1.1-2.1-.7-2.4-1.7-.9-2.5-1.8-4.9-2.7-7.4-.4-1.1-.9-2.8.4-3.5.1-.1.2-.2.3-.4.2-.7.6-1.3 1.3-1.7 1.7-1.1 3.5-2.2 5.3-3.2 1.4-.8 1.4-.8 1.1-2.4L10 32.2c-.2-.7.2-1.5.8-1.8.6-.2 1-.6 1.3-1.2 1.2-1.3 2.7-2.5 3.9-3.8 4.1-4.4 8.5-8.5 13.2-12.1C36.8 7.1 45.4.3 55.8 2.4c4.2.6 7.9 3.3 9.9 7 .3.5 1 .5 1.3 1 .2.3.3.6.3.9 0 5.1.9 10.1 1.2 15.1 0 .4.2.7.5.9 1.2.8 2.1 2 2.7 3.3.3.8 1.2 1.1 1.4 1.9.7 4-.1 8.3 1.3 12.3.5 2.3 1.8 4.4 1.7 6.8-.3 1.1.3 2.2.3 3.3-.1.1-.1 2.6-.1 2.6zM15 30.7l.1.2.5.2c10.8 2.8 21.6 5.8 32.2 9.1 4.1 1.5 8.5 2.2 12.8 3.1 2.8-2.1 6-4.1 7.7-7.3 1.2-1.9.7-5.1-1.6-5.9-1.1-.2-1.5-1-2.6-.9-4.9.2-9.2-1.4-6.2-7 1.4-3.2 4.5-5.6 5.5-9.1C61.7 3.5 48 3.9 41.5 8.3 33.3 13.6 25.7 19.9 19 27c-1.3 1.3-2.6 2.5-4 3.7zm17.6 21.9l-3.8-.6c-.4-.2-.9-.1-1.2.2-.1.2-.4.2-.7.2-1.7.4-3.2 1.6-4.5 2.7 2 .4 3.9 1.1 5.9 1.2 1.6-1.1 2.7-2.5 4.3-3.7zm17.3 8.8c.9-2 2.6-3.1 4-4.8l-4.4-1c0 2.3-2.4 3.3-3.4 5.2l3.8.6zm-18.1-4c1.4.3 2.5.6 3.7.9.2 0 .4-.1.5-.2.3-.3 3.9-3.9 4.2-4.1-1.3-.2-2.6-.5-3.8-.7-1.6 1.3-3 2.7-4.6 4.1zm7.4 1.8l3.7.9c1-2 2.6-3.3 4.2-5-1.1-.1-2.4-.7-3.2-.4-1.8 1.5-3.2 2.9-4.7 4.5zm-23.9-5.7c1.1.2 2.5.9 3.3.6l4.3-3.3c-.9-.1-1.9-.7-2.8-.5-1.6.5-3.2 2.4-4.8 3.2zm-5.8-2l.1.2 2.2.7h.1c.7-.4 3.5-2.7 4.1-3.1-.8-.1-1.8-.4-2.6-.2-1.3.7-2.6 1.6-3.9 2.4zm48.4 6l-1.2-.2c-.5 1.9-2.4 2.8-3.2 4.4 1.9-.9 3-2.5 4.4-4.2z"/></svg>