<svg width="80" height="80" fill="none" xmlns="http://www.w3.org/2000/svg"><path d="M48.74 52l-1.55-4.21-3.25.84c-3.95 1-7.89 2.1-11.84 3.13-.49.07-.99.07-1.48 0a.8.8 0 01-.53-.27 3.62 3.62 0 01-.94-2.32c.16-2 .3-4.09.44-6.14a1.267 1.267 0 000-.29l-7.4 2.38c.41 1.18.8 2.32 1.17 3.46 1 3.25 2.09 6.49 3.09 9.74.214.812.378 1.637.49 2.47a3.79 3.79 0 01-.65 2.71 10.33 10.33 0 01-4.63 3.92A31.069 31.069 0 0112 69.78a16.07 16.07 0 01-6.1-.35 7.711 7.711 0 01-1.9-.75 2.87 2.87 0 01-1-4.31 8.292 8.292 0 011.3-1.59 21.28 21.28 0 0113.19-6c1.83-.16 3.68-.18 5.57-.26-.09-.3-.22-.69-.35-1.09-1.09-3.09-2.17-6.18-3.28-9.27a1.19 1.19 0 00-.47-.55 1.34 1.34 0 01-.55-1.87 1.09 1.09 0 00.07-.71c-.85-3.05-1.75-6.09-2.6-9.14-.37-1.33.11-2 1.48-2.23.54-.141 1.069-.325 1.58-.55 3.9-1.333 7.807-2.667 11.72-4a.79.79 0 00.64-.8c.47-3.81 1-7.61 1.48-11.42a1.7 1.7 0 00-.07-.81 2.68 2.68 0 01.92-3.48A14.878 14.878 0 0136.45 9a19.15 19.15 0 0111.66-1.28c2.29.47 4.57 1.06 6.85 1.6.182.03.368.03.55 0a2.66 2.66 0 012 .39c1.034.69 2.01 1.463 2.92 2.31a2.59 2.59 0 01.4 3.38 8.9 8.9 0 01-5.18 4.2 22.47 22.47 0 01-9.6 1 18.56 18.56 0 01-6.49-1.53c-1.28-.61-2.48-1.37-3.72-2.06l-.49-.29-1.1 9.07c.58-.19 1-.32 1.48-.48 1.29-.43 2.57-.9 3.87-1.3A3.31 3.31 0 0141 24a1.33 1.33 0 011.11 1.05c.1.32.18.64.27 1a1.22 1.22 0 00.63.77 2.2 2.2 0 01.85 1c.3.82.47 1.69.69 2.53.22.84.51 1.95.78 2.92.143.533.403 1.028.76 1.45.221.434.341.913.35 1.4v.54c.85 2.49 1.71 5 2.59 7.52l2.13-.52 5.27-1.3c.11 0 .29-.08.32-.17.193-.535.346-1.083.46-1.64a325.689 325.689 0 001.87-13c.06-.47 0-1 0-1.44a1.37 1.37 0 011.92-1.3c.251.034.507.014.75-.06a23.88 23.88 0 0110-.63 9.59 9.59 0 014.7 2.33 3.619 3.619 0 01.2 5.64 10 10 0 01-5.13 2.66 31.12 31.12 0 01-10.57.6c-.28 2.14-.57 4.27-.82 6.41-.027.362.017.725.13 1.07a1.511 1.511 0 01-1.18 2c-1.17.3-2.36.52-3.53.82-1.81.44-3.61.92-5.48 1.4.21.65.42 1.26.61 1.87.48 1.54 1 3.09 1.45 4.64a1.34 1.34 0 01-.63 1.63.73.73 0 00-.34.42 7.52 7.52 0 01-4.24 5.88 16.87 16.87 0 01-6.72 1.71 19.56 19.56 0 01-6-.3c-2.62-.62-3.33-2.39-1.92-4.69A7.999 7.999 0 0135 55.55a24.579 24.579 0 0111.22-3.81c.41-.025.82-.025 1.23 0 .4.06.78.13 1.29.26zm-.51-34.14c2.19.029 4.37-.31 6.45-1a6.2 6.2 0 003.25-2.35c.32-.49.21-.74-.37-.91a5.323 5.323 0 01-.85-.37 8.398 8.398 0 00-1.71-.96c-2.54-.61-5.08-1.17-7.64-1.66a16.78 16.78 0 00-10.86 1.67c-.49.25-.63 1.22-.17 1.5a51.554 51.554 0 005 2.81c2.2.848 4.543 1.262 6.9 1.22v.05zm-4.64 20l-.34.11c-3.38 1.25-6.77 2.51-10.16 3.75a.59.59 0 00-.43.61c-.1 1.36-.23 2.71-.33 4.07-.06.83-.09 1.66-.14 2.49l13.89-4-2.49-7.03zm23-11c-.85.11-2.49.32-4.13.55-.45.06-.65.31-.67.8 0 1-.16 2.08-.26 3.12a1.6 1.6 0 001 1.23 27.362 27.362 0 009.57-1 5.35 5.35 0 002.47-1.57c.42-.47.44-.75 0-1.13a10.149 10.149 0 00-1.81-1.2c-1.76-.93-3.59-.88-6.22-.85l.05.05z" fill="#000"/></svg>