<svg width="80" height="80" viewBox="0 0 80 80" fill="none" xmlns="http://www.w3.org/2000/svg"><path d="M76.33 57.55v5.34c0 .3-.08.59-.1.89 0 .6 0 1.22-.14 1.81A1.53 1.53 0 0175 66.91c-1.17.38-2.18-.64-2.15-2 0-1-.11-2-.18-3.2l-.58.76a22 22 0 01-6.22 5.63c-1.43.86-2.89 1.69-4.35 2.51a.8.8 0 00-.5.8 26.547 26.547 0 01-.13 3c-.053.476-.24.927-.54 1.3a.74.74 0 00-.18.88 1.73 1.73 0 01-.61 2 1.5 1.5 0 01-2 .14 10.001 10.001 0 01-1.66-2 2.871 2.871 0 01-.19-1.36v-3.71l-43-6c.08 1.52.1 3.08.27 4.62a1.91 1.91 0 01-1.35 2.29 1.678 1.678 0 01-2-1.55c-.2-1.32-.32-2.65-.48-4C9.1 66.2 9 65.47 9 64.71A2.27 2.27 0 016.62 63c-.89-2.47-1.8-4.93-2.68-7.4a8.681 8.681 0 01-.39-1.6 1.68 1.68 0 01.79-1.88.59.59 0 00.28-.35 2.61 2.61 0 011.25-1.66c1.74-1.09 3.49-2.18 5.27-3.21 1.4-.82 1.43-.78 1.13-2.41L10 32.19a1.55 1.55 0 01.84-1.83 2.38 2.38 0 001.32-1.17c.096-.13.203-.25.32-.36 1.19-1.16 2.43-2.26 3.55-3.48A110.174 110.174 0 0129.2 13.22a92.749 92.749 0 0111-7.83 22.47 22.47 0 0115.55-3 13.53 13.53 0 019.9 7c.13.189.315.332.53.41a1.46 1.46 0 011.06 1.52c-.012 2.77.182 5.538.58 8.28.22 2.27.45 4.54.64 6.82a1.06 1.06 0 00.46.93 7.37 7.37 0 012.67 3.3c.137.372.385.693.71.92.32.26.556.607.68 1a8.6 8.6 0 01.28 2.59c.1 3.24 0 6.52 1 9.67.39 1.26.73 2.53 1.2 3.75.4.972.588 2.02.55 3.07a4.861 4.861 0 00.22 2.56c.073.253.1.517.08.78l.02 2.56zM15 30.74l.12.18.52.16c4.82 1.3 9.65 2.54 14.45 3.9C36 36.67 42 38.39 47.87 40.2a58.733 58.733 0 008.67 2.25c1.28.2 2.54.58 3.82.87a.38.38 0 00.28 0c1-.73 2.06-1.46 3.06-2.23.61-.47 1.14-1 1.73-1.52A11.93 11.93 0 0068.3 36a4.42 4.42 0 00-.62-5.37 3.09 3.09 0 00-1-.53c-.33-.15-.76-.17-1-.4a2.22 2.22 0 00-1.56-.52H62.6a17.12 17.12 0 01-3.37-.61 3.38 3.38 0 01-2.16-4.26c.212-.716.487-1.412.82-2.08 1.33-2.9 3.79-5.06 5.13-8a2.79 2.79 0 00.24-2.23A9.58 9.58 0 0058 6.46a14.66 14.66 0 00-5.07-1.13 19.67 19.67 0 00-11.42 3 82.29 82.29 0 00-8.47 6A112.465 112.465 0 0019 27c-.93 1-2 1.92-3 2.87-.3.28-.66.57-1 .87zm17.62 21.89L28.78 52a1.07 1.07 0 00-1.16.24c-.13.16-.43.17-.66.24a5.92 5.92 0 00-1.35.43c-1 .6-1.91 1.28-2.85 1.93a3.83 3.83 0 00-.33.35c1.92.43 3.76.86 5.61 1.26a.68.68 0 00.52-.17c.74-.68 1.45-1.39 2.2-2.07.57-.54 1.17-1.01 1.86-1.58zm17.29 8.76c.86-2 2.64-3.11 4-4.81l-4.39-1a2.91 2.91 0 01-1 2.31 245.97 245.97 0 00-1.8 2c-.2.24-.35.52-.59.88l3.78.62zm-18.13-4c1.35.33 2.54.64 3.74.91a.671.671 0 00.48-.2l3.62-3.57.55-.51c-1.34-.25-2.56-.48-3.79-.69-.11 0-.27.14-.38.24-.57.54-1.13 1.09-1.71 1.62-.82.71-1.6 1.41-2.51 2.22v-.02zm7.38 1.79l3.74.9c1-2 2.64-3.33 4.16-5-1.06-.19-2-.36-2.91-.51a.49.49 0 00-.32.12c-1 .89-2 1.78-2.94 2.69-.57.62-1.09 1.15-1.73 1.82v-.02zm-23.85-5.63c1.1.28 2 .51 2.92.72a.61.61 0 00.38-.12l4.28-3.32c-.5-.12-1-.21-1.54-.38a2.21 2.21 0 00-2.45.42 39.91 39.91 0 01-3.59 2.68zm-5.81-2l.06.18 2.17.68a.329.329 0 00.26-.07l3.26-2.49c.19-.16.4-.29.7-.5-.402-.095-.81-.169-1.22-.22-.45 0-1-.2-1.35 0-1.33.72-2.59 1.59-3.88 2.41v.01zm48.39 6l-1.17-.23c-.53 1.91-2.37 2.76-3.22 4.37 1.89-.84 3.01-2.51 4.39-4.14z" fill="#000"/></svg>