<svg version="1.1" id="Layer_1" xmlns="http://www.w3.org/2000/svg" x="0" y="0" viewBox="0 0 80 80" xml:space="preserve"><style>.st0{fill:#fff}</style><path d="M3.4 33.6c.4-5.1 3.9-8.9 9.3-8.1 4.7.5 8.6 3.2 12.3 5.9.2.1.4.2.7.2.6 0 1.2.4 1.3 1.1.1.6.5 1.3 1.2.9 7.2-2.8 14.4-5.7 21.2-9.5L63 17.3c.2 0 .3-.1.4-.3.1-3.8 1.6-6.4 5.5-7.3 4.9-.3 9.7 4.6 8.7 9.6-.5 2-1.9 3.9-3.9 4.4-1.8.3-3.7.6-5.3-.3l-3.8 2.1c2.9 3.1 4 6.1 1.4 10.3-1.4 2.4-3.4 4.4-5.9 5.7-4.9 2.7-9.5-.7-13.5-3.4-2.5 2.7-5.3 5.3-7.1 8.6-.6 1.2-.4 2.7.2 3.8 3.5 7.1 4.7 20.2-6.4 19.6C19.2 68.2 3.1 47.5 3.4 33.6zm36 27.2c-.4-5.4-2.8-10.3-5.4-15-1.7-2.6-3.7-5-5.8-7.2-.5-.6-1-1.1-1.7-1.5-.3-.3-.5-.4-.6-.6-.1-.7-.6-.9-1-1.3-4.5-4.5-18.2-12.4-18.7-.9.3 8.9 5.6 16.8 11.3 23.1 4.6 5.4 21.1 17.2 21.9 3.4zm-2.3-15.5c7.4-12.6 21.2-19.8 33.7-26.4-.4-.7-1-1.6-1.8-1.9-1.9.9-3.7 2.1-5.6 3-3.5 1.8-7 3.6-10.6 5.4-7.5 4.1-15.2 7.7-23.2 10.6 2.9 2.7 5.4 5.9 7.5 9.3zm11.3-9c3.5 2 7.7 5 11.4 1.9 2-1.3 3.5-3.2 4.4-5.4 1-2.2-.7-4.4-2.2-5.9l-.6.4c1.7 3.3.6 7.6-2.5 9.6-2.9 1.6-6.8.6-9.2-1.5l-1.3.9zm3.1-2.5c1.7.9 3.6 1.6 5.5.9 1.8-1 2.7-3.3 2.1-5.2-.2-.5-.3-.6-.8-.3-2.3 1.5-4.6 2.9-6.8 4.6zm14.6-18.1c1.3-.5 2.6-2.2 4-1.2 1.6 1.1 3.3 2.6 3.7 4.5.1.6-.3 1.1-.4 1.7 5.4-4.8-5.7-12.7-7.3-5z"/><path class="st0" d="M9.7 37.6c1.1 9 8.6 18.1 15.9 23.2 2.5 1.8 7.1 3.8 9.2.4 1.7-3.6-.3-7.9-1.9-11.1C30 44.7 26 40 21.2 36.2c-3.8-3.2-11-6-11.5 1.4z"/><path d="M9.7 37.6c.6-7.4 7.7-4.7 11.5-1.5C26 39.9 30 44.7 32.8 50c1.2 2.1 2.1 4.5 2.5 6.9 1 7.2-5.1 7.3-9.8 3.9-7.2-5-14.7-14.1-15.8-23.2z"/></svg>