<svg viewBox="0 0 80 80" fill="none" xmlns="http://www.w3.org/2000/svg"><path d="M61.38 64.64c1.35-2.34 2.66-4.59 4-6.85.104-.191.22-.375.35-.55A.85.85 0 0166.9 57s.06.06.1.07c1 .16 1.46 1 2 1.67a9.94 9.94 0 011.84 4.48 3 3 0 01-.36 2 6.1 6.1 0 01-4.48 3.2 5.45 5.45 0 01-3.6-.88 7.777 7.777 0 01-.93-.79 1 1 0 00-.22-.14c-.51-.27-1-.51-1.55-.81l-8.3-5c-.2-.12-.41-.22-.66-.35a3.18 3.18 0 00-.15 1.38A8.49 8.49 0 0150 65a1.09 1.09 0 01-1.34.85 7.781 7.781 0 00-3 0l-1 .07-6.38.28a.78.78 0 00-.38.06 2.87 2.87 0 01-1.7.33H25.11c-1.15 0-2.3-.11-3.45-.12-2.55 0-5.09 0-7.63-.07H12.4a.81.81 0 01-.77-.41 3.71 3.71 0 01-.51-1.57c.05-1.275.01-2.551-.12-3.82a155.4 155.4 0 01-.24-4.29c-.17-4.48-.39-9-.49-13.43-.13-5.72-.17-11.44-.22-17.15 0-2.59.05-5.18.07-7.76.025-.37.025-.74 0-1.11a3.35 3.35 0 01.42-1.68.75.75 0 01.75-.43h1.11c2.39-.05 4.79-.05 7.18-.15 3.47-.13 7-.26 10.41-.53 3.3-.27 6.57-.73 9.85-1.09 2.36-.25 4.72-.46 7.07-.7a8 8 0 001.09-.19.76.76 0 01.87.27 2.1 2.1 0 01.53 1.44 27.934 27.934 0 00.11 4.75c.11 1.89.23 3.77.37 5.66.06.82.19 1.64.26 2.46.1 1.11.11 2.22.27 3.31.145 1.201.215 2.41.21 3.62v3.59c0 2.8.15 5.6.4 8.4a.81.81 0 00.33.66c2.6 2 5.17 4 7.8 5.9 1.4 1 2.92 1.89 4.39 2.82a3.3 3.3 0 00.47.2.86.86 0 01.51 1.17 2.18 2.18 0 01-.21.4c-1.33 2.17-2.66 4.33-4 6.5-.3.5-.28.56.21.87.28.19.58.36.86.53zM11.83 16.46v1.88c0 5.76 0 11.52.06 17.29 0 3.06.16 6.12.27 9.19.11 3.28.25 6.56.37 9.84.06 1.56.09 3.13.17 4.69.09 1.73.53 3.44.22 5.25h.75c2.26 0 4.52-.13 6.78-.11 1.89 0 3.78.2 5.67.19 3.43 0 6.87.18 10.29-.14l2.27-.19 4.94-.35c.72-.05 1.44-.07 2.15-.11.87-.05 1.73-.12 2.65-.19a4 4 0 00.28-1.7 4.09 4.09 0 01.52-2.55c-.68-.45-1.35-.86-2-1.3C44.19 56.09 41.15 54 38 52a2.55 2.55 0 01-.49-.58c-.12-.14-.21-.36-.36-.43a3.26 3.26 0 01-1.25-1.22c-.73-1.1-1.47-2.2-2.16-3.34-.83-1.37-1.62-2.77-2.41-4.18a1.14 1.14 0 01.91-1.82c1.58-.08 3.17-.14 4.75-.08 1.8.07 3.6.3 5.39.44a3.58 3.58 0 001-.09 1.07 1.07 0 011 .31c.433.395.887.765 1.36 1.11 1 .72 1.93 1.41 2.91 2.1.073.044.15.081.23.11v-.7c-.18-2.973-.267-5.95-.26-8.93 0-1.28-.07-2.56-.17-3.84-.1-1.28-.25-2.77-.45-4.14a49.376 49.376 0 01-.65-8v-4.6c-.9.06-1.74.08-2.58.17-2.9.34-5.78.72-8.68 1-2.57.28-5.14.54-7.72.72-2.58.18-5.21.3-7.82.37-2.34.07-4.69.05-7 .07l-1.72.01zM39.53 51c.57.34 1 .68 1.57.95a38.21 38.21 0 013.95 2.52c1.83 1.28 3.69 2.54 5.59 3.72 2.47 1.54 5 3 7.49 4.49l.27.13 4-6.31c-.27-.17-.5-.34-.74-.48a70.182 70.182 0 01-7.8-5.44c-1-.75-1.91-1.51-2.88-2.25-.69-.53-1.44-1-2.11-1.55-1.38-1.22-2.89-2.29-4.36-3.42-.13-.1-.27-.18-.44-.29L39.53 51zm-1.11-1.59l3.65-6.75c-2.66-.12-5.18-.5-7.83-.56l4.18 7.31zm24.47 16.5a4 4 0 002.88.74 4.29 4.29 0 003-2.17 1.5 1.5 0 00.23-.98 7.87 7.87 0 00-2-4.19 1.788 1.788 0 00-.38-.29c-1.23 2.28-2.45 4.52-3.73 6.84v.05z" fill="#000"/><path d="M39.53 51L44 43c.17.11.31.19.44.29 1.47 1.13 3 2.2 4.36 3.42.67.58 1.42 1 2.11 1.55 1 .74 1.92 1.5 2.88 2.25A70.174 70.174 0 0061.61 56c.24.14.47.31.74.48l-4 6.31-.27-.13c-2.5-1.49-5-3-7.49-4.49-1.9-1.18-3.76-2.44-5.59-3.72a38.185 38.185 0 00-3.9-2.55c-.52-.27-1-.61-1.57-.9zM22.67 23.93c-2.47.13-4.44.24-6.42.33-.71 0-1.11-.26-1.13-.78-.02-.52.35-.86 1.05-.91l9.16-.67c3.16-.24 6.32-.48 9.48-.74.71-.06 1.42-.18 2.12-.27a1 1 0 011.13.78.9.9 0 01-.63 1.07 5.747 5.747 0 01-1.09.17c-2.92.24-5.85.48-8.77.7-1.8.13-3.57.24-4.9.32zm-6.42 6.43h-.12a.85.85 0 01-.87-.79.83.83 0 01.8-.87 178.945 178.945 0 0114.46-1.22c1.22-.06 2.42-.22 3.63-.33.153-.01.307-.01.46 0a.93.93 0 01.83.8.87.87 0 01-.56.93 3.84 3.84 0 01-1 .21l-5.71.4-6.5.48-5.42.39zM42.49 33h.65a.87.87 0 01.85.89.922.922 0 01-.85 1l-6.45.37-4.36.25h-.65a.815.815 0 01-.17-1.62c.465-.097.936-.163 1.41-.2l7.48-.53 2.09-.16zm-20.68 2.76l-3.58.13a3.48 3.48 0 01-.72 0 .8.8 0 01-.491-1.264.79.79 0 01.421-.286c.19-.053.384-.086.58-.1l6.7-.49c.52 0 1 0 1.56-.05.13-.015.26-.015.39 0a1 1 0 01.85 1 1.05 1.05 0 01-1 .92l-4.69.1-.02.04zm18.99-6.67c-.6.05-1.21.1-1.81.13-.6.03-.94-.25-1-.71a.848.848 0 01.8-.94c1-.13 1.94-.2 2.91-.3.36 0 .73-.08 1.1-.1a.94.94 0 011.05.84.88.88 0 01-.91 1c-.71.07-1.42.09-2.14.14v-.06z" fill="#000"/></svg>