<svg version="1.1" id="Layer_1" xmlns="http://www.w3.org/2000/svg" x="0" y="0" viewBox="0 0 80 80" xml:space="preserve"><style>.st0{fill:#fff}</style><path d="M56.5 54.7c1.7.4 3.1 1.2 4.8 1.4 1.3 0 2.5.4 3.7 0 .9-.5 1.7-1.2 2.6-1.7.2-.1.4-.1.6-.1.9.3.9 1.4.2 1.9C63.2 61 56.9 63.9 51 67.5c-9.4 7.6-23.1 7.3-30.5-2.9-4.8-6-7.7-13.2-11.1-20-.5-1.2-1.6-2.2-1.3-3.6 0-.6.7-.7 1.2-.8 4.8-.8 9.6-1.8 14.3-3 4.3-1.1 8.6-2.5 13-3.3.5-.1 1 .3 1.1.8.5 1.1 1.2 2.2 1.9 3.2.7-.9 1.5-1.7 2.1-2.6-.4-.9-.7-1.9-1.1-2.8-.8-1.8-.8-1.8.1-3.5 5.1-8.1 12.6-14.4 21-18.9 3-1.5 6.2-2.4 9.4-3.6.8-.3 2 .2 2 1.2-.1.7-.6 1.4-.9 2.1-2.6 6.4-6 12.4-10.1 18-1.3 2-2.6 3.9-3.8 5.9-.4.7-1 1.3-1.7 1.6-3.5 1.8-7.8 2.2-11.7 2.7-1.2.8-2.2 2.1-3.4 3.1 1.1 1.9 2.3 3.8 3.7 5.5l1.6-1.5c-.7-2.5 1-4.6 3.6-4.8 2.7-.2 6.4-.2 7.9 2.4.5.7 0 1.7.7 2.3 1.3 1.2 1.9 2.8 2.6 4.3.2.4.4.8.3 1.2-.6 2-2.8 3.3-4.8 3.9-.3.1-.4 0-.6.3zm5.9 3.5c.1-.2-4.1-.8-4.2-.8-.7-.1-1.3-.7-2-.8-2.4-.9-4.9-1.4-6.9-3-3.8-3.1-6.7-7.2-9.1-11.5-.9.6-1.8 1.2-2.7 1.9-.5.5-1.4.9-1.9.1-.3-.4-.3-1 0-1.3.2-.3 2.4-3.2 2.6-3.5L36 35.8c-8.7 2.3-17.2 4.8-26.1 6.1 6.8 11.8 12.4 32 29.9 28.6 3.7-.8 7.4-2.4 10.3-4.7 4.1-2.5 8.5-4.7 12.3-7.6zM46.9 35.7c3.1-.7 6.2-1 9-2.5 1.7-2 2.9-4.5 4.4-6.6 1.6-2.5 3.5-5 5-7.6 1.9-3.4 3.5-6.8 5.1-10.3-11.1 3-20.6 10.5-27.4 19.8-.4.6-.7 1.2-1 1.9-.2 1.1.6 2.1.9 3.2 2.3-2.6 5.2-6.5 7.5-9 2.7-2.9 5.7-5.5 8.9-7.8.9-.5 1.8-1.3 2.8-1.6.2 0 .4.1.6.2.4.4 1.1.7 1 1.4-.1.3-.2.6-.4.8-2.2 2.8-4.4 5.7-7.2 8-3.3 3-6.2 6.6-9.2 10.1zm5.6 6.2c-1.5-.1-4.8.1-3.8 2.4.4 2.2 3.1 2.2 4.8 1.7 4.6-1.5 3.4-4.3-1-4.1z"/><path class="st0" d="M52.7 44.8c.6-.1 1.2-.1 1.7-.3.6-.3.6-1.3 0-1.6-.6-.4-1.3.1-2 .1-.3 0-.6-.3-.9-.3-.8 0-1.3 1.1-.7 1.7.4.5 1.2.3 1.9.4z"/><path d="M28.2 46.6l.9-.8c1-1.1 2.7-.2 3.9-.8.3-.3.6-.7 1-.7.7-.1 1.1.7.9 1.4-.8 1.8-2.6 1.5-4.2 1.6-1 .5-1.6 1.4-2.9 1.8-.6.5-.9 1.8-1.5 2.5-2.1 2.9-4.6 1.1-5.3-1.8-.7.8-1.7 2.5-2.9 1.8-1-1 .5-1.6 1-2.3.7-1.2 1.6-2.3 1.9-3.6.4-.9.4-2.1 1.3-2.6 1.8-.5 1.6 2 .9 3-.7 1.6-.7 3.9.8 5.1.9-.6 1.2-1.7 1.7-2.6.1-.2.1-.4 0-.6-.3-1.1.1-2.3.8-3.1.4-.6 1.3-.3 1.7.2.3.3.1 1 0 1.5zm24.5-1.8c-.6-.1-1.4 0-1.9-.4-.6-.6-.1-1.7.7-1.7.3 0 .6.3.9.3.7 0 1.4-.5 2-.1.6.3.6 1.3 0 1.6-.6.2-1.2.2-1.7.3z"/></svg>