<svg width="80" height="80" viewBox="0 0 80 80" fill="none" xmlns="http://www.w3.org/2000/svg"><path d="M56.49 54.65c.61.19 1.19.35 1.75.54.56.19.83.38 1.27.49.573.163 1.158.277 1.75.34 1 .09 1.92.13 2.88.15A1.61 1.61 0 0065 56c.69-.41 1.34-.88 2-1.32.195-.156.403-.296.62-.42a.91.91 0 011.07.25.92.92 0 01.12 1.08c-.129.19-.284.362-.46.51a57.855 57.855 0 01-9.52 6.77c-2.54 1.38-5 2.84-7.55 4.27a2.63 2.63 0 00-.37.29c-.428.416-.886.8-1.37 1.15a27.688 27.688 0 01-9.46 3.81 19.28 19.28 0 01-14.21-2.65 23.86 23.86 0 01-5.45-5.21A54.346 54.346 0 0114 54.16c-1.57-3.19-3.09-6.41-4.65-9.6a12.3 12.3 0 00-1-1.72 3.11 3.11 0 01-.35-1.9.74.74 0 01.54-.66c.214-.08.435-.14.66-.18 4.8-.83 9.57-1.78 14.28-3 3.75-1 7.48-2 11.23-3a17.24 17.24 0 011.74-.34 1 1 0 011.08.79 14.43 14.43 0 001.93 3.2c.74-.88 1.46-1.69 2.14-2.6-.37-.93-.72-1.87-1.13-2.79-.76-1.75-.78-1.77.09-3.47.296-.572.63-1.123 1-1.65A57.84 57.84 0 0161.59 10a49.467 49.467 0 016.65-2.64c.92-.31 1.82-.64 2.73-1a1.62 1.62 0 011.9.7 1 1 0 010 .93c-.25.54-.52 1.07-.76 1.62-.46 1-.92 2.05-1.36 3.09a69.498 69.498 0 01-3.88 7.59c-.91 1.62-2 3.11-3.06 4.66-.58.88-1.18 1.75-1.76 2.63-1.09 1.65-2.16 3.3-3.24 5a6.457 6.457 0 00-.57.93 3.37 3.37 0 01-1.71 1.62 12.159 12.159 0 01-3.66 1.37c-1.33.24-2.63.63-4 .85-1.37.22-2.68.32-4 .48a.56.56 0 00-.3.14c-1 1-2.06 1.95-3.11 3a53.315 53.315 0 003.66 5.52L46.71 45a11.16 11.16 0 01-.12-1.32 3.26 3.26 0 012.17-3.07 4.521 4.521 0 011.52-.41 13.76 13.76 0 014.66.26 6 6 0 012.36 1.05A3.06 3.06 0 0158.44 44a1.15 1.15 0 00.39.95 9.27 9.27 0 012.1 3.2c.152.384.33.759.53 1.12a1.81 1.81 0 01-.23 2.33A7.84 7.84 0 0157 54.39a2.79 2.79 0 00-.38.13s-.07.04-.13.13zm5.92 3.55a3.684 3.684 0 00-.36-.18l-3.87-.62a1.06 1.06 0 01-.52-.15 4.082 4.082 0 00-1.5-.65c-1.2-.42-2.4-.8-3.58-1.24a11.73 11.73 0 01-3.32-1.79A22.172 22.172 0 0145.62 50c-.44-.57-.91-1.1-1.37-1.65A27.788 27.788 0 0141 43.56c-.26-.47-.55-.94-.85-1.45-.93.65-1.82 1.25-2.71 1.86-.215.174-.442.33-.68.47a.89.89 0 01-1.2-.34 1 1 0 010-1.33l2.25-3c.13-.16.23-.34.33-.48L36 35.8c-4.38 1.2-8.67 2.32-13 3.44s-8.69 1.94-13.1 2.62c.49.83 1 1.57 1.35 2.34 1.52 3 3 6.09 4.51 9.14a52.72 52.72 0 006.24 10A22.141 22.141 0 0026.76 68a17.63 17.63 0 0013 2.48 23.56 23.56 0 006.15-2.16 13.109 13.109 0 003.9-2.41c.095-.065.196-.121.3-.17.64-.36 1.29-.71 1.92-1.08 2.29-1.36 4.58-2.71 6.86-4.08 1-.59 1.94-1.22 2.91-1.84.213-.17.416-.35.61-.54zM46.93 35.71c.39-.05.62-.07.84-.12 1.45-.33 2.89-.73 4.36-1a12.72 12.72 0 003.79-1.4 1 1 0 00.39-.35c1.35-2.08 2.67-4.17 4-6.24 1.33-2.07 2.86-4.28 4.29-6.41.275-.382.529-.78.76-1.19 1.3-2.5 2.72-4.94 3.81-7.56.38-.92.85-1.81 1.31-2.78a2.671 2.671 0 00-.32.06 48.219 48.219 0 00-12.28 5.62A56.45 56.45 0 0043 28.48a14.734 14.734 0 00-1 1.86.94.94 0 000 .66c.27.82.58 1.63.9 2.49.088-.06.169-.13.24-.21l3.63-4.41c1.21-1.47 2.41-3 3.64-4.4a49.68 49.68 0 015-4.74c1.23-1.1 2.54-2.11 3.86-3.1.742-.5 1.51-.96 2.3-1.38a.87.87 0 011.1 0c.4.41 1.12.66 1 1.42a1.87 1.87 0 01-.36.8c-.69.89-1.44 1.73-2.11 2.63a36.551 36.551 0 01-5.06 5.34 51.141 51.141 0 00-4.6 4.83c-1.44 1.67-2.85 3.37-4.27 5-.09.12-.15.21-.34.44zM46.46 48c.62.71 1.18 1.47 1.86 2.11.87.84 1.82 1.6 2.77 2.36.282.24.63.39 1 .43 1.835.111 3.675-.13 5.42-.71a5.61 5.61 0 002.35-1.7c-.8-1.42-1.13-3.06-2.47-4.12a9.7 9.7 0 01-5 1.9 4.88 4.88 0 01-4.6-1.58s-.07 0-.12-.08A2.49 2.49 0 0046.46 48zm6-6.06V42h-1.52a5.002 5.002 0 00-1.33.29 1.38 1.38 0 00-.91 2.07.639.639 0 01.08.19 2.13 2.13 0 001.88 1.68A6 6 0 0056 44.66a1.24 1.24 0 00.13-1.73 3 3 0 00-1.86-.9c-.58-.03-1.18-.03-1.77-.1l-.04.01zm7.09-23l-.12-.12c-.25.19-.51.36-.75.56-1.3 1.14-2.57 2.29-3.88 3.41a36.998 36.998 0 00-5.2 5.49c-1.78 2.31-3.6 4.59-5.5 6.8-.42.48-.8 1-1.2 1.49l.11.1c.67-.63 1.4-1.22 2-1.91 1.64-1.86 3.21-3.78 4.84-5.64 1.27-1.45 2.56-2.89 3.9-4.27 1.34-1.38 2.92-2.79 4.36-4.21.57-.5 1-1.11 1.48-1.64l-.04-.06z" fill="#000"/><path d="M46.46 48a2.49 2.49 0 011.22-1.39s.1 0 .12.08a4.88 4.88 0 004.6 1.58 9.7 9.7 0 005-1.9c1.34 1.06 1.67 2.7 2.47 4.12a5.61 5.61 0 01-2.35 1.7c-1.745.58-3.585.821-5.42.71a1.84 1.84 0 01-1-.43c-1-.76-1.9-1.52-2.77-2.36-.69-.65-1.25-1.41-1.87-2.11z" fill="#000"/><path d="M52.67 44.83a12.21 12.21 0 001.33-.22.94.94 0 00.81-1.15 1 1 0 00-1.17-.7c-.27.025-.539.075-.8.15a1.001 1.001 0 01-.92-.09.78.78 0 00-.9 0 .92.92 0 00-.49 1 .94.94 0 00.76.86c.457.073.918.123 1.38.15z" fill="#fff"/><path d="M59.59 19c-.48.57-.91 1.18-1.43 1.7-1.44 1.42-2.95 2.77-4.36 4.21-1.41 1.44-2.63 2.82-3.9 4.27-1.63 1.86-3.2 3.78-4.84 5.64-.61.69-1.34 1.28-2 1.91l-.11-.1c.4-.5.78-1 1.2-1.49 1.9-2.21 3.72-4.49 5.5-6.8a36.998 36.998 0 015.2-5.49c1.31-1.12 2.58-2.27 3.88-3.41.24-.2.5-.37.75-.56l.11.12zM28.2 46.59l.95-.81a2.22 2.22 0 011.58-.57h1.78A.88.88 0 0033 45c.2-.15.36-.36.55-.51a.9.9 0 011.45.83c-.01.112-.03.222-.06.33a2.68 2.68 0 01-2.58 1.58 10 10 0 00-1.64 0 1 1 0 00-.52.29A6 6 0 0127.78 49c-.16 0-.29.31-.4.49-.36.66-.65 1.37-1.07 2a4.38 4.38 0 01-1.18 1.13 2 2 0 01-2.49-.14 4.37 4.37 0 01-1.39-2.09c-.07-.21-.15-.42-.25-.7-.282.387-.585.758-.91 1.11a4 4 0 01-1 .76.87.87 0 01-1.18-.39.92.92 0 01.33-1.17c.325-.246.611-.54.85-.87.58-.91 1.12-1.84 1.65-2.77.122-.275.209-.564.26-.86.18-.57.35-1.13.55-1.7a1.62 1.62 0 01.26-.48 1 1 0 011.07-.45 1 1 0 01.77 1 3.52 3.52 0 01-.44 2.06 5 5 0 00.16 4.43c.185.237.396.451.63.64a3.2 3.2 0 00.65-.59c.37-.65.71-1.32 1-2a1 1 0 000-.58 3.33 3.33 0 01.83-3.06.94.94 0 011.19-.21 1 1 0 01.68 1c-.032.346-.082.69-.15 1.03zm24.47-1.76c-.459-.023-.916-.07-1.37-.14a.94.94 0 01-.76-.86.92.92 0 01.49-1 .78.78 0 01.9 0 1 1 0 00.92.09c.261-.075.53-.125.8-.15a1 1 0 011.17.7.94.94 0 01-.82 1.14 12.21 12.21 0 01-1.33.22z" fill="#000"/></svg>