<svg xmlns="http://www.w3.org/2000/svg" viewBox="0 0 80 80"><path d="M70.8 63.2c-.2-1.6-.9-3.2-1.8-4.5-.6-.8-1-1.5-2.1-1.7-.7-.4-1.3.2-1.5.8-1.3 2.3-2.7 4.5-4 6.8-.3-.2-.6-.3-.9-.5-.5-.3-.5-.4-.2-.9 1.3-2.2 2.7-4.3 4-6.5.4-.5.4-1.3-.3-1.6-4.6-2.4-8.5-5.8-12.7-8.9-.2-.2-.3-.4-.3-.7-.4-4-.4-8-.4-12-.2-5-.9-10-1.1-15-.2-1.6-.2-3.2-.1-4.7 0-.7-.3-1.4-.9-1.7-12 1.3-24 2.7-36.1 2.7h-1.1c-1.4.1-1.1 2.2-1.2 3.2-.1 14.2.1 28.4.9 42.6.4 1.8-.5 4.3 1 5.7 3.2.3 6.5.1 9.7.2 2.3.2 12 .1 14.5.1.7.2 1.4-.3 2.1-.4l6.4-.3 1-.1c1-.2 2-.2 3 0 .3.1.6 0 .9-.1.3-.2.4-.4.5-.7.7-1.4.4-3 .7-4.5-.1-.2 8.8 5.3 9 5.4 1 .5 1.9 1 2.7 1.7 3.1 2.3 8.6-.3 8.3-4.4zM38.4 49.4l-4.2-7.3c2.7.1 5.2.4 7.8.6l-3.6 6.7zM48.7 62c0 .6-.1 1.2-.3 1.7-3.7.3-8.3.5-12 .8-7.8.5-15.7-.3-23.5.1.3-1.8-.1-3.5-.2-5.2-.2-4.8-.4-9.7-.5-14.5-.4-9.5-.3-18.9-.3-28.4 5.5 0 11.1 0 16.5-.5 6.4-.4 12.6-1.5 19-1.9-.2 5.6.4 11.2 1.1 16.7.3 4.5.2 9 .4 13.5-1.7-1-3.3-2.5-5-3.6-2.3.2-4.6-.3-6.9-.4-1.6-.1-3.2 0-4.7.1-.4 0-.8.3-1 .6-.2.4-.2.9.1 1.2 1.4 2.6 2.9 5.1 4.6 7.5.3.5.7.9 1.2 1.2.3.2.5.8.9 1 3.9 2.4 7.4 5 11.2 7.5-.5.8-.7 1.7-.6 2.6zm20.1 2.5c-1.1 2.1-4 2.9-5.9 1.4 1.2-2.4 2.5-4.6 3.7-6.9 1.4 1.1 2.1 2.8 2.4 4.5 0 .3 0 .7-.2 1z"/><path d="M22.7 23.9c-2.5.1-4.4.2-6.4.3-.7 0-1.1-.3-1.1-.8s.4-.9 1.1-.9l9.2-.7c3.2-.2 6.3-.5 9.5-.7.9 0 2-.5 2.8-.1.4.3.6.9.3 1.3-.3.5-1.1.5-1.6.6-4.5.4-9.6.8-13.8 1zm-6.5 6.5c-.6.1-1.2-.5-.9-1.1.1-.2.2-.4.4-.5 1.2-.2 2.5-.3 3.7-.5 3.7-.4 7.4-.7 11.1-.8 1.4 0 2.7-.3 4.1-.3.2 0 .4.1.6.3.9 1-.3 1.7-1.3 1.7-5.2.2-12.4.8-17.7 1.2zM42.5 33c.4 0 .9-.1 1.3.3.5.5.2 1.6-.6 1.6-2.6.1-8.3.5-10.8.6h-.7c-.7.1-1.2-.8-.7-1.3s1.3-.4 2-.5c1.5-.1 8.1-.6 9.5-.7zm-20.7 2.8c-.5 0-3.8.2-4.3.1-1.2-.4-.7-1.7.5-1.6l6.7-.5c.9.1 2.7-.5 2.8 1-.1.5-.5.9-1 .9 0-.1-4.7 0-4.7.1zm19-6.7c-.6 0-1.2.1-1.8.1-.9.1-1.3-.8-.8-1.4.1-.2.4-.3.6-.3 1.4-.2 2.7-.3 4-.4.8-.1 1.4.9.8 1.6-.7.6-1.9.3-2.8.4z"/></svg>