<svg xmlns="http://www.w3.org/2000/svg" viewBox="0 0 80 80"><path d="M41.8 71.2h-2.9c-1.8-.4-3.7-.8-5.5-1.4-2.2-1-8.7-4.6-6.2-7.5.9-.7 1.8.5 2.4 1 .9.9 1.9 1.6 3 2.1-.1-2.6-.1-5-.2-7.5 0-.5-.1-.8-.5-1-1.3-.7-2.5-1.7-3.4-2.8-.2-.2-.4-.2-.6-.1-4.8 2.6-10.1 4.7-15.4 2.2-9.1-4.4-5.8-21.2 4.3-22.9-3.1-7.5 2.9-14.8 10.8-13.5-.2-3.7.2-8.5 3.2-10.5 2.5-1.8 6-2.4 7.9.8l.5.8c2.1-1.6 2.6-1.8 4.6-1.6 1.5.2 3 .5 4.5 1 3.5 1.2 4.9 5 5.4 9.2 8.7-4.4 10.1 8.8 11.8 14.4 6.6-1 10.7 6.2 8.4 12.6-1.9 5.6-7.5 9.2-13.1 10.4-3.1.7-6.6.2-9.3-1.6-.4-.3-.9-.8-1.3-.8-.5.2-1.4 1.4-1.5 2.1v4.3c-.2 1.5-.4 2.8-.4 4.4 1.3-.7 2.4-1.8 3.2-3 .4-.5.8-1.3 1.6-1.3.7 0 1.1.8 1.2 1.4.2 2.1-1.8 3.6-3 5-2.4 2.6-6 3.4-9.5 3.8zm3.4-31.8c2.2-.3 4.5 0 6.8-.1.5 0 1-.3 1.2-.7.4-.8.1-1.9-.8-2.3-3.2-4.1-6.4-8.4-9.6-12.5-.8-1.1-4-4.6-4.3-1.5-.1.9-.9 1.6-1.3 2.3-1.9 2.4-3.9 4.8-5.8 7.2-1.3 1.5-2.4 3.1-3.3 4.8-.3.5-.3 1.2-.1 1.8.1.5.6.8 1.1.8 1.9 0 3.9-.3 5.9-.2.2 8.9.5 18.4 1.5 27.2.1.6.3.9.7.9 2.7.4 5.4.3 8-.3.4-.1.6-.3.5-.9-.1-2.4-.2-4.7-.2-7.1-.4-.2-.3-.7-.3-1.1-.3-6-.1-12.1 0-18.3z"/></svg>