<svg width="80" height="80" viewBox="0 0 80 80" fill="none" xmlns="http://www.w3.org/2000/svg"><path d="M41.8 71.25h-2.93l-.56-.13a42.006 42.006 0 01-4.9-1.28 17.36 17.36 0 01-5.95-4.22 3.17 3.17 0 01-.67-1.15 2 2 0 01.21-1.86.91.91 0 011.34-.36 6.54 6.54 0 011.34 1.09 9.35 9.35 0 003 2.1c-.06-2.56-.13-5-.16-7.54 0-.54-.13-.8-.49-1a12.24 12.24 0 01-3.42-2.83A.52.52 0 0028 54c-1.57.72-3.1 1.55-4.68 2.2a13.7 13.7 0 01-10.75 0c-4.57-1.86-6.86-9-4.52-14.71 1.68-4.1 4-6.82 7.39-7.87.43-.14.87-.22 1.34-.33-.12-.39-.22-.69-.31-1a11.12 11.12 0 01-.51-4A8.72 8.72 0 0118.29 23a9.401 9.401 0 016.76-3.28c.855-.023 1.71.01 2.56.1V16.7c.13-3.25 1.11-5.81 3.24-7.39a7.72 7.72 0 013.63-1.44c1.7-.25 3.12.47 4.25 2.25l.53.82c2.08-1.56 2.56-1.82 4.57-1.57a20.46 20.46 0 014.51 1c2.69 1 4.42 3.39 5.07 7.18l.34 2c.18-.09.34-.19.5-.25 2.19-.89 4.37-1.14 6.25 1a11.64 11.64 0 012.26 3.7c1 2.67 1.63 5.53 2.42 8.31.16.55.28 1.11.42 1.66a7.26 7.26 0 015.49 1.32c3.1 1.93 4.41 7.09 2.91 11.3a13 13 0 01-3.27 5.22 19.81 19.81 0 01-9.8 5.19 12.21 12.21 0 01-9.29-1.57c-.43-.28-.88-.85-1.28-.78-.4.07-.79.73-1.14 1.19a1.73 1.73 0 00-.32.87v4.32c0 .58-.19 1.15-.25 1.74-.07.85-.1 1.71-.16 2.65a9.43 9.43 0 003.22-3c.244-.36.522-.694.83-1a1 1 0 011.51.06 2.22 2.22 0 01.4 2.08 3.4 3.4 0 01-.44 1 25.799 25.799 0 01-2.5 2.93 13.18 13.18 0 01-6.93 3.3c-.95.21-1.87.32-2.78.46zm3.39-31.81a1.62 1.62 0 01.27-.1h6.51a1.249 1.249 0 001.31-1.19 1.64 1.64 0 00-.91-1.82 1 1 0 01-.39-.37c-.21-.34-.38-.74-.61-1.05-.47-.61-1-1.16-1.44-1.77-2.39-3.11-4.76-6.25-7.16-9.35a8.56 8.56 0 00-2.9-2.62c-.76-.37-1.34 0-1.43 1.1a1 1 0 01-.06.4c-.42.64-.83 1.29-1.29 1.86-1.92 2.43-3.87 4.82-5.8 7.24A23.093 23.093 0 0028 36.59a2.08 2.08 0 00-.11 1.76 1.09 1.09 0 001.11.77c1.32 0 2.63-.14 4-.19h1.86v.92c0 1.65 0 3.31.1 5 0 .87.27 1.74.27 2.62.02 6.244.41 12.482 1.17 18.68.08.65.26.87.71.95a20 20 0 008-.29c.42-.1.56-.29.54-.87-.09-2.27-.15-4.54-.22-6.81v-.27c-.41-.2-.28-.7-.29-1.09C45.08 55.88 45 54 45 52.1c0-4.22.12-8.43.19-12.66z" fill="#000"/></svg>