<svg xmlns="http://www.w3.org/2000/svg" viewBox="0 0 80 80"><path d="M60.2 40.5c3.3-1.2 10.1-1.3 8.9 3.9 1.3-.2 2.6-.3 3.9-.1 2.5.6 4.3 3.6 2.7 5.9-.7 1.4-1.9 2.3-2.8 3.5-.1.3-.3.6-.6.9-2 1.7-4.1 3.2-6.1 4.9-5.2 3.9-11 7.6-17.5 8.8-9.5.9-15.7-9.1-25-9.1 3.6 7.2 1.8 14.1-6 6.3C13.2 61 .9 41.5 9 37c3.5-1 6.3 2.3 8.2 4.8.1.2.3.3.5.1l7.6-4 .1-.1c-2-2-4.6-4-6.3-6.3-2.1-3.1-4.4-6.6-4.2-10.5.3-4.3 3.5-8.2 7.6-9.2 1.2-.3 2.5-.3 3.7-.1 2.1.4 4.4.4 6.2 1.4 2.4 1.4 4.6 3 6.6 4.9 1.1 1.1 1.8 2.3 3.1 3.3 4.9-5.7 12-11.7 19.7-9.3 4.9 1.9 7.5 7.2 6.8 12.2-.4 6.4-4.6 11.4-8.4 16.3zM19.2 58c.5-.2 1.1-.2 1.5-.5.2-.2.2-.6.4-.8.4-.4 1.1-.5 1.6-.1.2.3.6.4 1 .3 3.3 0 6.5 1 9.3 2.6 8.9 5.4 13.6 9.5 23.7 3.4 4.4-2.4 8.6-5.1 12.2-8.5 1.9-1.5 3.5-3.3 4.9-5.3.4-.4.5-1.2.1-1.7-.4-.7-1.1-1.1-1.8-1.1-4.3-.3-7.2 3.2-10.7 5.1-2 1.2-4.2 2.1-6.3 3.3-3.8 2.2-8.8 2.5-12.6.3-2.2-1.4-3.8-3.4-5.9-4.9-1-.9.4-2.5 1.4-1.6 3 2.1 5.2 5.5 9.2 5.7 3.4.3 9.2-1.3 9.6-5.3.1-.8-.2-1-.9-1.2-2.8-.6-5.6.8-8.3-.2-5-1.7-7.3-7.5-12.2-9.3-2.5-.9-5.3-.3-7.6.9-4.8 2.2-9.6 4.6-14 7.5L19.2 58zm40-8.2c2.6-1.6 5.3-3.2 7.6-5.1.1-.6.5-1.3.2-1.9-.1-.2-.3-.4-.6-.5-1.6-.6-3.3-.4-4.9.1-1.9.3-3 1.9-4.1 3.3 1.7.9 2.1 2.3 1.8 4.1z"/></svg>