<svg xmlns="http://www.w3.org/2000/svg" viewBox="0 0 80 80"><path d="M74.2 32.5c-.6 3.8-1.6 7.6-3.6 10.9-3.4.5-6.9.6-10.3.9-.1 0-.3 0-.4-.1-1-1.8-1.6-4.1-2-6.3 0-.4-.3-.8-.7-.9-.9-.6-2.3-.1-2.7.9-1.7 3.4-4 6.4-6 9.6-1.6-3.8-2.3-7.9-3.5-11.8-.2-.9-.6-1.8-1.2-2.5-.9-1-2.7-.7-3.2.6-2.8 5.7-5.1 11.6-7.1 17.6h-.2c-.1-3-1.7-5.7-2.4-8.6-.9-3.5-1.7-7.1-2.6-10.7-.6-2.5-1.2-4.9-1.9-7.3-.3-1.2-.9-1.3-2-.8-.6.4-1.1.9-1.3 1.6-1.7 4-2.8 8.2-4.1 12.3-.4 1.3-1 2.6-1.4 3.9-.1.3-.3.5-.6.4l-6.7-.4c-.2 0-.4-.1-.6-.3-1.7-2.3-2.9-4.9-3.8-7.7-.9-3.5-.7-7.2.5-10.6C9.6 13.4 21.3 7.4 31 10.9c3.9 1.8 8.1 4.7 11.6 7.3 6.2-4.2 14.4-9.8 21.8-5 2.9 2 5.1 4.9 7.2 7.7 2.3 3.3 2.7 7.7 2.6 11.6z"/><path d="M40.3 70.7c-1.6-.6-3.8-.8-4.8-2.4-.3-.5.1-1.1-.4-1.5-7.4-7-15.6-13.4-22.4-21.1h6.4c1.1 0 1.4-.4 1.4-1.5.8-3.3 2.3-6.3 3.3-9.6 2.3 7.3 5.1 14.2 8.3 21.1.1.3.3.5.5.7.8.4 1.7-.1 1.7-1.2.1-.3.2-.6.3-.8 2.5-5.4 4.3-11.1 6.7-16.6 1.4 4.9 3.2 9.6 4.9 14.3.2 1.2 1.7 1.8 2.7 1.1 2.4-3.3 4-7.1 6.2-10.7.4 1.6.9 2.9 1.6 4.3.7 1.2 1 1.2 2.3 1.2h.4c2.4 1.2 5.3.6 7.9.7-5.1 7.6-12.8 12.9-19.9 18.5-2 1.6-4.2 2.7-6.6 3.4 0 .1-.5.1-.5.1z"/></svg>