<svg width="80" height="80" fill="none" xmlns="http://www.w3.org/2000/svg"><path d="M39.71 25.08c1.19-1.22 2.39-2.53 3.68-3.75a64.938 64.938 0 0114.19-10.51 28.82 28.82 0 019.3-3.31 11.41 11.41 0 016.8.75 8.69 8.69 0 014.79 6.53c.486 2.74.404 5.552-.24 8.26a47.84 47.84 0 01-4.63 12.46A90.27 90.27 0 0154 60.73a62.236 62.236 0 01-13.22 9.43c-.46.24-.93.47-1.41.69a1.5 1.5 0 01-1.47-.18c-.64-.39-1.34-.66-2-1a77.21 77.21 0 01-16.85-11.31A66.43 66.43 0 016.34 43.7a34.93 34.93 0 01-4.56-10.43 15.61 15.61 0 01.12-8.83A10.4 10.4 0 018.12 18a18.899 18.899 0 019.18-1.13 46.499 46.499 0 0116.23 4.95c2.04.96 4.02 2.1 6.18 3.26zm-5.3 24.77v2.75c0 1.5-.14 3-.19 4.5 0 1.27.38 1.67 1.64 1.64.78 0 1.56 0 2.35.06 1.46.05 2.92.16 4.38.14a2.17 2.17 0 002.2-2.4v-6c0-.05 0-.09.07-.16.51 0 1 .09 1.55.12 1.56.09 3.12.21 4.68.24A1.85 1.85 0 0053 49.36c.283-.815.504-1.651.66-2.5.26-1.58.47-3.16.62-4.75a1.2 1.2 0 00-1.2-1.46c-.76 0-1.52-.06-2.28-.1l-5.22-.31c-.65 0-.63 0-.63-.68V33.3a1.229 1.229 0 00-1.24-1.3 5.055 5.055 0 00-.87 0c-1.06 0-2.11.08-3.17.14-.502.017-1.003.064-1.5.14-.77.12-1.53.3-2.3.42a1.2 1.2 0 00-1.15 1.22c0 .8-.1 1.59-.11 2.39v3.24c-1.83-.26-3.5-.46-5.17-.74-.95-.16-1.47.09-1.68 1-.1.48-.12 1-.24 1.45a35.796 35.796 0 00-.7 6.36 1.82 1.82 0 001.85 2.11c.6.06 1.21.09 1.81.09 1.24.04 2.52.03 3.93.03z" fill="#000"/></svg>