<svg xmlns="http://www.w3.org/2000/svg" viewBox="0 0 80 80"><path d="M39.7 25.1c7.4-7.7 16.4-15.5 27.2-17.6 5.1-1.2 10.9 1.8 11.6 7.3 1.2 7.2-1.7 14.4-4.9 20.7C66 49.6 55 62.4 40.8 70.2c-.9.4-1.9 1.2-2.9.5-12.6-6-24-15.1-31.6-27-3.5-5.6-6.5-12.6-4.4-19.3 2-6.3 9.4-8.3 15.4-7.6 8.1.9 15.3 4.3 22.4 8.3zm-5.3 24.7c0 2.5-.1 4.8-.2 7.2 0 1.3.4 1.7 1.6 1.6 2.2 0 4.5.2 6.7.2.9 0 1.8-.6 2.1-1.5.3-2.3-.1-4.8.2-7.1 2 .1 4.2.3 6.2.4.4 0 .9-.1 1.2-.3 1-.8 1-2.3 1.4-3.5.2-1.8.6-3.5.6-5.3-.4-1.5-2.3-.8-3.5-1l-5.2-.3c-.7 0-.6 0-.6-.7v-6.3c0-.3-.1-.7-.3-.9-.2-.2-.6-.3-.9-.3-1.3 0-2.7.1-4 .1-1.3 0-2.5.4-3.8.6-.3 0-.6.1-.8.4-.2.2-.3.5-.3.8-.1 1.9-.1 3.6-.1 5.6-1.8-.3-3.5-.5-5.2-.7-1.8-.4-1.7 1.2-1.9 2.5-.4 2.1-.7 4.2-.7 6.4-.1.5.1 1.1.4 1.5.4.4.9.6 1.4.6 1.9.1 3.6 0 5.7 0z"/></svg>