<svg width="80" height="80" fill="none" xmlns="http://www.w3.org/2000/svg"><path d="M60.25 40.46c1-.22 1.9-.5 2.85-.64a7.49 7.49 0 014 .4A3.14 3.14 0 0169.22 44c0 .11 0 .21-.06.35.68-.08 1.35-.19 2-.22a9.37 9.37 0 011.91.07 4.52 4.52 0 013.27 3.43 3.66 3.66 0 01-.57 2.46 12.76 12.76 0 01-2.5 3.12c-.12.1-.16.29-.25.43-.14.32-.333.614-.57.87-2 1.65-4.12 3.23-6.13 4.91a36.191 36.191 0 01-5.74 3.85A45.059 45.059 0 0153.42 67a24.675 24.675 0 01-4.58 1.25 14.26 14.26 0 01-3.66-.27 13.82 13.82 0 01-5-1.63c-1.81-1-3.6-2.11-5.39-3.18-.61-.36-1.2-.73-1.79-1.11a19.33 19.33 0 00-8.25-2.92 5.992 5.992 0 00-.86 0c.12.25.19.42.27.58a14.939 14.939 0 011.53 5.74 5.47 5.47 0 01-.35 2.14 1.83 1.83 0 01-2.52 1.17 11.17 11.17 0 01-4.88-3.34 51.342 51.342 0 01-6.21-8.65 43 43 0 01-4.85-11.8 10 10 0 010-5 6.1 6.1 0 01.75-1.69 3.35 3.35 0 013.78-1.47 8.38 8.38 0 014.41 2.83c.58.67 1.13 1.37 1.69 2.06.14.19.25.26.49.13l7.59-4 .1-.09-2.26-2.15a27.261 27.261 0 01-4-4.15 29.09 29.09 0 01-3.65-6.62 9.25 9.25 0 01.51-7.67 10.18 10.18 0 016.55-5.47 10.12 10.12 0 013.72-.13c1.54.21 3.08.46 4.6.76a5.84 5.84 0 011.64.67 33.23 33.23 0 016.56 4.93c.75.75 1.39 1.6 2.1 2.39.27.3.58.55 1 .92.053-.11.113-.217.18-.32 2.81-3.14 5.78-6.09 9.6-8a12.83 12.83 0 019.59-.91 9 9 0 013.82 2.67c2.59 2.69 3.34 6 3 9.57A21.15 21.15 0 0165 34c-1.35 2.09-2.93 4-4.41 6l-.34.46zM19.16 58.05c.43-.11.81-.23 1.21-.32a.58.58 0 00.49-.46 1.17 1.17 0 011.87-.63 1 1 0 001 .28c.136-.02.274-.02.41 0a19.56 19.56 0 018.93 2.6c1.68.91 3.25 2 4.89 3 1.15.7 2.34 1.36 3.53 2 1.58.727 3.27 1.19 5 1.37a9.7 9.7 0 004.86-.55 30.623 30.623 0 005.44-2.46c2.27-1.34 4.59-2.6 6.75-4.1A65.558 65.558 0 0069 54.34a24.59 24.59 0 004.87-5.26 1.4 1.4 0 00.13-1.66 2.22 2.22 0 00-1.84-1.1 9.62 9.62 0 00-6.1 2 42.402 42.402 0 01-4.57 3.07c-2 1.17-4.22 2.13-6.3 3.27a13 13 0 01-6.32 1.75 11.2 11.2 0 01-6.27-1.45c-2.17-1.37-3.79-3.38-5.86-4.85a1.001 1.001 0 01-.06-1.48.998.998 0 011.47-.14A33.652 33.652 0 0141 50.88c1.81 1.74 3.72 3.13 6.4 3.29a11.66 11.66 0 008.07-2.44A3.77 3.77 0 0057 48.91c.06-.76-.2-1-.94-1.2a11.83 11.83 0 00-4.32.07 8.5 8.5 0 01-7.45-2.29c-1.9-1.82-3.83-3.61-5.73-5.44a8.36 8.36 0 00-6.49-2.18 12.259 12.259 0 00-4.17 1.29 121.598 121.598 0 00-11.79 6.09c-.76.42-1.47.92-2.24 1.41l5.29 11.39zm40-8.2c.91-.55 1.76-1 2.55-1.55 1.62-1.08 3.21-2.2 4.81-3.31a.56.56 0 00.21-.29c.125-.387.225-.78.3-1.18a1 1 0 00-.64-1.19 2.42 2.42 0 00-.57-.2 7.5 7.5 0 00-4.32.33 5.63 5.63 0 00-1.9.83 24.272 24.272 0 00-2.2 2.5c1.67.82 2.11 2.21 1.78 4.06h-.02z" fill="#000"/></svg>