<svg width="80" height="80" fill="none" xmlns="http://www.w3.org/2000/svg"><path d="M74.16 32.53c-.22 1.16-.41 2.34-.68 3.49a34.42 34.42 0 01-2.74 7.22.66.66 0 01-.45.31c-3.33.28-6.67.53-10 .8a.58.58 0 01-.69-.45c-.37-1-.82-2.07-1.13-3.13a23.475 23.475 0 01-.58-2.77 1.1 1.1 0 00-.68-.93 1.89 1.89 0 00-2.68.86 36.912 36.912 0 01-3.71 6 29.818 29.818 0 00-1.9 3.19c-.12.152-.254.293-.4.42a2.455 2.455 0 01-.33-.53C47.11 43.25 46 39.47 45 35.69a5.6 5.6 0 00-1.25-2.52 2 2 0 00-3.2.55c-1.29 2.8-2.63 5.58-3.79 8.43-1.16 2.85-2 5.62-3.05 8.43-.09.24-.17.48-.26.71h-.19c-.05-.44-.1-.87-.17-1.3-.03-.442-.1-.88-.21-1.31-.66-2-1.48-3.93-2-6-.95-3.53-1.72-7.11-2.59-10.66-.6-2.45-1.23-4.89-1.87-7.34-.31-1.17-.91-1.31-2-.75a2.88 2.88 0 00-1.31 1.63c-1.67 4-2.79 8.18-4.11 12.29-.42 1.33-1 2.61-1.43 3.92a.52.52 0 01-.61.4l-6.68-.39a.84.84 0 01-.55-.28 27.09 27.09 0 01-3.78-7.66 18.27 18.27 0 01.46-10.63c2.1-6.34 6.7-10 12.68-12.29a17.33 17.33 0 0111.91 0 15 15 0 013.2 1.66c2.4 1.51 4.76 3.09 7.13 4.66.434.31.852.644 1.25 1 1.19-.8 2.33-1.63 3.54-2.34a38.897 38.897 0 017.79-3.9 12.39 12.39 0 0110.51 1.16c.388.219.75.48 1.08.78a46.218 46.218 0 016.11 6.92 14.911 14.911 0 012.33 6.67c.08.56.15 1.13.22 1.7v3.3z" fill="#000"/><path d="M40.26 70.67c-.76-.23-1.53-.41-2.27-.69a9.58 9.58 0 01-1.93-.98 1.64 1.64 0 01-.68-1.62.83.83 0 00-.3-.58 5339.76 5339.76 0 00-12.37-11.21 112.366 112.366 0 01-9.55-9.35c-.13-.15-.25-.31-.46-.57h6.44c1.08 0 1.42-.45 1.41-1.52.027-.426.125-.846.29-1.24 1-2.74 2-5.48 3-8.34.25.81.45 1.53.71 2.23C25.8 40.23 27 43.65 28.32 47c1.18 2.94 2.52 5.82 3.81 8.72a1.14 1.14 0 001.39.75c.53-.13.81-.59.86-1.28a2.47 2.47 0 01.31-.83c.17-.36.4-.7.55-1.08 2-5.007 3.983-10.027 5.95-15.06.05-.12.12-.22.23-.43.48 1.56.89 3 1.38 4.47 1.14 3.3 2.303 6.587 3.49 9.86A1.769 1.769 0 0049 53.21a3.5 3.5 0 00.79-1.06c1.45-2.57 2.87-5.16 4.3-7.74.33-.59.68-1.18 1.07-1.86.23.75.4 1.39.64 2 .3.78.64 1.55 1 2.3C57.39 48 57.74 48 59 48c.15 0 .32-.05.43 0a6.65 6.65 0 003.44.71c1.48.07 3 0 4.46 0a.43.43 0 010 .16 68.098 68.098 0 01-9.37 10.05c-3.48 2.82-7 5.55-10.55 8.32a19.54 19.54 0 01-6.62 3.43h-.53z" fill="#000"/></svg>