<svg width="80" height="80" viewBox="0 0 80 80" fill="none" xmlns="http://www.w3.org/2000/svg"><path d="M67.36 20.7A3.85 3.85 0 0165 22.54c-.71.3-1.5.48-2.26.72l-3.09 1a12.06 12.06 0 001.1 1.51c.87.88 1.83 1.71 2.76 2.55l2.9 2.6c.2.18.382.381.54.6.57.75.2 1.56-.86 1.78a20.54 20.54 0 01-2.36.28 29.177 29.177 0 01-5.37-.31h-.51v.52l.15 7.37a1.16 1.16 0 01-1.21 1.21 3.14 3.14 0 01-.81-.08 13.868 13.868 0 01-3.86-1.45c-.57-.3-1.15-.58-1.82-.91 0 .74-.41 1.36-.2 2.09a69.866 69.866 0 002.69 7.27c1.78 4.29 3.53 8.58 5.4 12.85 1.18 2.68 2.54 5.31 3.82 8 .23.49.53 1 .72 1.45.132.4.222.812.27 1.23a.8.8 0 01-.5.82 1.43 1.43 0 01-1.32.07 4.488 4.488 0 01-.75-.47l-7.66-5.54a1.35 1.35 0 00-.22-.12c-.11.62-.2 1.22-.32 1.81-.42 2.13-.85 4.25-1.27 6.38-.05.25 0 .52-.09.77a1.12 1.12 0 01-1.18.92 1.15 1.15 0 01-1.12-.72A49.93 49.93 0 0145.86 70c-.84-3-1.61-6-2.44-8.93-.54-1.94-1.13-3.87-1.72-5.89-.19 1-.42 1.82-.52 2.7-.33 2.69-.65 5.39-.9 8.09-.22 2.41-.34 4.83-.52 7.24a4.41 4.41 0 01-.15 1c-.22.77-1.11.92-1.83.41a3 3 0 01-1.08-1.42c-.86-2-1.75-3.91-2.61-5.87-.61-1.38-1.2-2.76-1.8-4.14 0-.06 0-.11-.21-.24a2.258 2.258 0 01-.28.35c-1 .93-2 1.86-3.05 2.78-.317.29-.65.56-1 .81a1.401 1.401 0 01-1.49.13.89.89 0 01-.47-1.13c.74-2.66 1.49-5.32 2.48-7.94 1.07-2.82 2-5.68 3-8.53.53-1.52 1.08-3 1.61-4.57.035-.098.065-.199.09-.3l-1.43.45A1.87 1.87 0 0130 45a.771.771 0 00-.34 0c-1.19 0-1.75-.54-1.38-1.45.55-1.35 1.14-2.68 1.72-4l.86-2c-.79-.23-1.56-.5-2.36-.7a47.99 47.99 0 01-6.08-2l-.51-.21a1 1 0 01-.7-.94 1 1 0 01.77-1c1.1-.41 2.19-.82 3.27-1.24.38-.15.72-.34 1.16-.55L24 29.85a26.87 26.87 0 01-6.7-4.48c-.72-.65-.35-1.6.71-1.82 1.06-.22 2-.27 3-.52 1.95-.49 3.86-1.07 5.79-1.61.41-.12.51-.28.42-.66-.19-.87-.26-1.76-.42-2.64-.21-1.22-.51-2.43-.66-3.65a27.955 27.955 0 01-.15-3.3c0-.61.53-.87 1.25-1a3.51 3.51 0 012.53.69c1.38.8 2.767 1.593 4.16 2.38.13.08.27.14.45.23.77-1 1.56-2 2.28-3 1.46-2 2.88-4.11 4.32-6.17a1.33 1.33 0 011.17-.68 1.48 1.48 0 011.35.71c.81 1.41 1.57 2.85 2.42 4.25.5.81 1.13 1.56 1.7 2.35.13.18.27.2.53.13 3.56-1.007 7.133-2.007 10.72-3 1.16-.32 2 .35 1.77 1.34a31.771 31.771 0 01-2 4.92c-.48 1-.87 2.1-1.32 3.2l1.27.23c1.63.37 3.27.73 4.89 1.11.78.19 1.53.44 2.32.61a1.85 1.85 0 011.49 1.06l.07.17zm-16.18 3.89a8.558 8.558 0 00-.25-1.43 8.24 8.24 0 00-3.66-4.29 4.44 4.44 0 00-2.22-.66 14.265 14.265 0 00-1.73 0 12.3 12.3 0 00-6.18 2 7.63 7.63 0 00-3.43 4.2 8.764 8.764 0 01-.4 1.19 3.73 3.73 0 00-.19 2.35c.68 2.53 2.56 4.29 5.35 5.46a7.36 7.36 0 006.61-.25c3.71-2.05 6.04-4.77 6.1-8.57zm-2.87 19.58l-1.84 2.26a1.35 1.35 0 01-1.42.47 1.15 1.15 0 01-1-1c.005-.09.005-.18 0-.27-.38 1.28-.67 2.56-1 3.83A3.74 3.74 0 0043 51.5c1.17 4.07 2.32 8.15 3.48 12.23.07.25.13.51.2.76a1.25 1.25 0 00.24-.38 136.355 136.355 0 012.09-4.35 1.14 1.14 0 011.14-.7 2.5 2.5 0 011.9.7c.7.74 1.45 1.45 2.2 2.16.75.71 1.29 1.14 1.94 1.7-2.83-6.43-5.4-12.93-7.88-19.45zM38.2 61.83h.08c0-.44.07-.88.13-1.31.48-3.7 1.37-7.35 2.18-11 .467-2.133.93-4.267 1.39-6.4 0-.09.05-.2 0-.27-.4-.57-.82-1.13-1.2-1.64-1.68.8-3.32 1.57-5 2.36a.56.56 0 00-.26.34c-1.093 3.14-2.18 6.28-3.26 9.42-.4 1.17-.79 2.35-1.2 3.55l.13-.08 2.36-2.27a1.661 1.661 0 011.54-.34 1 1 0 01.71 1 1.19 1.19 0 00.08.45l1.12 2.9c.4 1.1.8 2.19 1.2 3.29z" fill="#000"/><path d="M45.76 23.11c-.32 2.07-.61 4.15-1 6.22-.16 1-.78 1.36-1.87 1.46-.57.05-1.17.17-1.62-.25a2.34 2.34 0 01-1-2c.27-1.9.52-3.8.77-5.71a1.71 1.71 0 011.17-1.47.508.508 0 00.18-.09 1.76 1.76 0 011.62-.49c.93.05 1.47.46 1.53 1.23.02.366.02.734 0 1.1h.22z" fill="#000"/></svg>