<svg width="80" height="80" fill="none" xmlns="http://www.w3.org/2000/svg"><path d="M49.5 2.73c1 .1 2 .15 3 .33 2.08.38 4.14.84 6.21 1.26.52.12 1.048.207 1.58.26a4.8 4.8 0 012.8 1.54c.284.328.468.73.53 1.16a51.542 51.542 0 011 12.27v.63A1.19 1.19 0 0065 20a9.74 9.74 0 015.34-1.35 6 6 0 015.42 3c.26.39.63.71.87 1.11.236.369.4.78.48 1.21.09.61 0 1.25.06 1.86a10.56 10.56 0 01-.48 5.1 18 18 0 01-3.44 6A26.82 26.82 0 0162.92 44c-1.47.51-2.93 1-4.38 1.61a18.88 18.88 0 00-1.8.9 1.31 1.31 0 00-.34.24 2 2 0 00-.49 2 2 2 0 002 .58 16.86 16.86 0 001.51-.95l-.27-.3a1.49 1.49 0 01-.37-1.64 1.58 1.58 0 011.34-1 2.47 2.47 0 012.77 3.22 5.89 5.89 0 01-8.39 3.14 4.38 4.38 0 01-1.87-2.58c-.15.11-.29.2-.42.31a20.75 20.75 0 01-7.15 4 .998.998 0 00-.56.71 16.999 16.999 0 00.31 5.18A8.86 8.86 0 0047 64c.46.48.98.897 1.55 1.24.59.4 1.23.71 1.85 1.06.111.079.232.143.36.19A7.1 7.1 0 0154.78 69c1.61 1.82 1.59 3.63-.07 5.25A13.82 13.82 0 0147.55 78a54.69 54.69 0 01-6.62 1c-1.819.076-3.64.013-5.45-.19a20.94 20.94 0 01-4.62-.67 10.48 10.48 0 01-6.18-4.31 2.94 2.94 0 01.05-3.46 6.89 6.89 0 011.78-1.79 33.8 33.8 0 007.8-7.39 9 9 0 001.81-6.34 1.57 1.57 0 00-1.26-1.71 18.81 18.81 0 01-6.79-4.35c-.59-.55-1.29-1-2-1.54a8.74 8.74 0 01-.13 1.1 6.68 6.68 0 01-4.36 4.94 5.22 5.22 0 01-4.28-.6 2.64 2.64 0 01-1.21-2.76c.1-.64.2-1.29.27-1.93.19-1.86 2.6-3.68 4.3-3.19a3 3 0 011.18.74 1.34 1.34 0 01.22 1.6 1.49 1.49 0 01-1.47.81c-.81 0-1 .1-1.09.92-.05.39-.11.78-.17 1.17a1.78 1.78 0 002.14-.24c1.38-1.09 1.52-2.52 1.27-4.11a3.66 3.66 0 00-1.44-2.56 3.3 3.3 0 00-2.05-.63c-2 0-4.08.05-6.12 0a22.714 22.714 0 01-3.07-.27 6.5 6.5 0 01-3.79-2c-.06-.07-.14-.13-.27-.25l-.18.89c-.08-.06-.13-.08-.15-.12-1.27-2.87-2.41-5.82-2.21-9a33.91 33.91 0 011.09-5.87 6.64 6.64 0 012.07-3.13 13.86 13.86 0 016.13-3.47 3.582 3.582 0 013.14.66l1.72 1.3c0-1-.05-2 0-2.87.11-1.9.27-3.79.4-5.69a1.41 1.41 0 00-.1-.68 2.9 2.9 0 01.42-3.42A8.7 8.7 0 0122 6a27.82 27.82 0 018.21-2c4.85-.43 9.71-.74 14.56-1.1l.82-.11 3.91-.06zM61 10.65c-.1.025-.198.062-.29.11C57 13.12 52.86 14 48.63 14.6a75.929 75.929 0 01-12.63.56c-3.36-.11-6.72-.32-10.07-.56-1.61-.11-3.2-.41-4.85-.63 0 .17-.07.38-.09.59a50.57 50.57 0 00.7 14.53c.9 5.04 2.856 9.83 5.74 14.06.402.476.837.924 1.3 1.34.18.204.351.418.51.64.183.354.4.69.65 1a19.74 19.74 0 002 1.78c4.2 3.23 8.79 4.09 13.77 2.07a18 18 0 006.79-5.06A34.52 34.52 0 0059.36 32a48.29 48.29 0 002.08-13.61 46.445 46.445 0 00-.44-7.74zM21.79 39.72a1.91 1.91 0 00-.1-.33 44 44 0 01-3.58-12.61c-.07-.54-.07-1.1-.7-1.38-.12 0-.18-.24-.28-.37a7.14 7.14 0 00-.93-1.17 13.75 13.75 0 00-1.9-1.41 1.44 1.44 0 00-1.09-.13 15.52 15.52 0 00-2.3 1.08 8 8 0 00-4.09 8.54c.015.176.015.354 0 .53a7.23 7.23 0 000 1.68c.23.89.6 1.75.92 2.62a3.32 3.32 0 002.78 2.29c1.51.18 3 .19 4.55.28 2.24.13 4.48-.34 6.72.38zM58 42.31c1.4-.44 2.73-.84 4-1.29a19.93 19.93 0 007-4.43 19.698 19.698 0 002.81-3.11 8.5 8.5 0 001.69-4.07c.13-1.19.12-2.4.15-3.61a4.3 4.3 0 00-1.34-3.13 2.65 2.65 0 00-2-.85 8 8 0 00-4.19.83 3.67 3.67 0 00-1.49 1.08c-.22.34-.58.55-.64 1a43.812 43.812 0 01-2.06 9.12 25.86 25.86 0 01-3.41 7.39c-.11.36-.28.76-.52 1.07zM31.31 69.12a2.72 2.72 0 001.86 1.45 34.538 34.538 0 0011.4 1.14 13 13 0 002.94-.59 1.92 1.92 0 001.26-1.25.72.72 0 00-.36-1c-.37-.19-.72-.43-1.09-.6a9.7 9.7 0 01-5.06-6.07 18 18 0 01-.81-6.74c0-.41.06-.81.1-1.24H39v.4A11.099 11.099 0 0136.82 63c-1 1.25-2 2.41-3.11 3.58-.79.91-1.62 1.74-2.4 2.54z" fill="#000"/><path d="M43.66 32.87V41c0 .791-.07 1.581-.21 2.36a2 2 0 01-2 1.75H40.2c-.62 0-1.25.05-1.87.14a1.71 1.71 0 01-2.1-1.95c.13-3.81.29-7.63.4-11.45.07-2.49.12-5 .07-7.48a3.321 3.321 0 011.58-2.8 2.05 2.05 0 011.23-.23c.86 0 1.71.21 2.58.26a1.629 1.629 0 011.73 1.59c.08 1.5.05 3 .06 4.51v5.16l-.22.01z" fill="#000"/></svg>