<svg xmlns="http://www.w3.org/2000/svg" viewBox="0 0 227 227"><path d="M112.6 207.8c-3.5-.8-7.2-1.6-9.9-4.1-12.6-9.9-12.3-26.7-5.2-40.4 4.9-9.8 13.1-12.9 22.6-12.6 7.1 1.9 12.4 8.4 15.8 14.6 7.5 13.6.5 34.5-13.5 40-3.2 1.1-6.4 2.8-9.8 2.5zm2.6-182.9c11.7.1 23.1 2.6 34.4 6.3 17.8 5.4 33.3 14.5 44.2 30.5 5.6 8.5 20.7 27.6 19.7 37.2-.7 2.4-3.7 4.8-5.9 2.7-4.1-3-5.2-8.1-8.2-11.9-9-13.7-20.3-23.7-32.2-32.8-18.5-8.4-38.9-15.8-59.5-13-17.8 2-35.2 3.6-49.3 16.6-3.7 3.5-8.7 6-11.6 10.2-4.1 9.8-12.7 16.2-20.2 23.2-5 3.4-9.7-3.5-12.2-7.3-1.4-2-1.5-4.8-.2-6.9 5.9-9.8 12.2-19.2 20.3-26.2 21.3-17.1 53.7-27.6 80.7-28.6z"/><path d="M112.1 69c11.9-.8 22.2 2.6 33.4 5.1 15.6 2.5 32.2 8.3 40.9 22.5 1.7 3 4 6.2 3.3 9.8-.7 3.4-4.4 6.4-7.3 3.1-4.1-5.3-8.9-10-15.2-12.7-12.2-6-24.9-9.5-37.9-11.7-7.6-1.3-14.7.5-21.9 3C82.7 95.5 67 114.8 50 133.5c-2.3 3-7.8.4-9.8-2-3.3-5.7 1.4-12 3.6-17.2C56 91.8 86.2 68.2 112.1 69z"/><path d="M110.2 115.1c11.7 1.6 23.2 4.7 34.8 7.3 2.3.6 4.3 1.8 5.9 3.5 4.6 4.2 7.5 10 10.9 15.5 1.2 1.7 1.5 4 .7 6-.9 2.6-2.6 2.9-4.7 3.2-1.7.9-3.2.2-4.7-1-6.7-5.5-13.4-10.9-20.2-16.2-5.4-5.3-11.9-2.2-18.2-.8-13.3 3.6-23.5 15.3-32.8 25.2-3.8 4.4-7.7 4.4-12.4 3.3-3.9.3-5.5-2.4-4.8-7.3 2.5-22.2 26-37.4 45.5-38.7z"/></svg>