<svg width="80" height="80" viewBox="0 0 80 80" fill="none" xmlns="http://www.w3.org/2000/svg">
<path d="M30.11 54L28.73 55.73L19.64 67.11C19.33 67.5 19.01 67.8 18.46 67.65C18.37 67.65 18.26 67.71 18.16 67.76C17.9824 67.8688 17.7847 67.9408 17.5787 67.9715C17.3727 68.0022 17.1627 67.9911 16.9611 67.9389C16.7594 67.8866 16.5704 67.7942 16.4053 67.6673C16.2402 67.5403 16.1023 67.3814 16 67.2C15.5515 66.4749 15.2586 65.6644 15.14 64.82C14.6547 62.5265 14.6752 60.1548 15.2 57.87C15.3752 57.2278 15.606 56.6021 15.89 56C15.9877 55.7258 16.1508 55.4796 16.3651 55.2827C16.5795 55.0858 16.8386 54.9442 17.12 54.87C17.2211 54.8381 17.3135 54.7834 17.39 54.71C19.33 52.97 21.29 51.24 23.2 49.46C23.97 48.76 24.65 47.97 25.37 47.21C24.51 46.13 23.64 45.11 22.86 44.02C21.04 41.48 19.23 38.93 17.48 36.35C14.76 32.35 12.09 28.29 9.40002 24.25C9.40002 24.2 9.34002 24.14 9.30002 24.11C9.02882 23.8224 8.84893 23.4609 8.78308 23.0711C8.71722 22.6813 8.76835 22.2807 8.93002 21.92C9.27002 20.62 9.67002 19.34 9.99002 18.04C10.1398 17.3966 10.3788 16.7773 10.7 16.2C10.81 16 10.98 15.96 11.13 15.85L16.06 12.51C16.148 12.4488 16.2228 12.3706 16.28 12.28C16.3401 12.1828 16.4239 12.1026 16.5237 12.047C16.6235 11.9913 16.7358 11.9621 16.85 11.9621C16.9642 11.9621 17.0766 11.9913 17.1763 12.047C17.2761 12.1026 17.36 12.1828 17.42 12.28C18.42 13.39 19.42 14.49 20.42 15.59L20.57 15.7C20.63 15.25 20.67 14.84 20.73 14.43C20.85 13.51 21 12.6 21.11 11.69C21.135 11.4053 21.1147 11.1184 21.05 10.84C20.9966 10.6995 20.9824 10.5472 21.0088 10.3992C21.0352 10.2513 21.1013 10.1133 21.2 10C21.2837 9.9514 21.3557 9.88499 21.4109 9.80546C21.4661 9.72594 21.5031 9.63525 21.5193 9.53983C21.5355 9.44441 21.5306 9.34658 21.5048 9.25329C21.479 9.16 21.433 9.07353 21.37 9C21.92 8.63 22.45 8.25 23 7.89L28.19 4.54C28.74 4.2 29.07 4.32 29.52 4.75C30.4349 5.79099 31.2299 6.93147 31.89 8.15C34.17 11.61 36.4 15.15 38.65 18.58C38.7 18.67 38.76 18.75 38.84 18.87C38.97 17.29 40.12 16.79 41.33 16.37C42.2946 16.0421 43.3125 15.8996 44.33 15.95C45.4285 15.9758 46.5241 16.0727 47.61 16.24C48.1399 16.3194 48.6444 16.5194 49.0848 16.8245C49.5251 17.1296 49.8896 17.5318 50.15 18C50.3075 18.2555 50.3909 18.5498 50.3909 18.85C50.3909 19.1502 50.3075 19.4445 50.15 19.7C50.0422 20.0226 49.9848 20.3599 49.98 20.7L55.31 22.18C55.9029 21.2203 56.7704 20.4608 57.8 20C58.8873 19.4339 60.0649 19.0617 61.28 18.9C62.119 18.7785 62.9733 18.8124 63.8 19C64.7647 19.304 65.707 19.6749 66.62 20.11C67.3288 20.317 68.0503 20.4773 68.78 20.59C69.2788 20.7096 69.7697 20.8599 70.25 21.04C70.4321 21.1077 70.5906 21.2269 70.706 21.3832C70.8215 21.5395 70.8889 21.726 70.9 21.92C70.9285 23.1511 70.8918 24.3828 70.79 25.61C70.5036 27.7545 69.7342 29.806 68.54 31.61C67.2618 33.7933 65.7166 35.8088 63.94 37.61C62.6962 38.7523 61.3035 39.721 59.8 40.49C59.6124 40.6258 59.3867 40.6989 59.155 40.6989C58.9234 40.6989 58.6977 40.6258 58.51 40.49C58.4785 40.4674 58.4429 40.4513 58.4051 40.4427C58.3673 40.4341 58.3282 40.4332 58.29 40.44C58.1267 40.4779 57.957 40.4797 57.7929 40.4452C57.6288 40.4106 57.4742 40.3406 57.34 40.24C56.61 39.84 55.86 39.46 55.11 39.08C54.6641 38.9387 54.2751 38.6584 54 38.28C53.9568 38.2237 53.8975 38.1818 53.83 38.16C52.8385 37.7922 51.9716 37.1507 51.33 36.31C50.8953 35.8209 50.5732 35.2423 50.3866 34.615C50.2 33.9878 50.1533 33.3272 50.25 32.68C50.3079 32.2636 50.3982 31.8524 50.52 31.45L48.75 30.91C48.7058 30.9014 48.6601 30.9033 48.6167 30.9155C48.5733 30.9276 48.5334 30.9497 48.5 30.98C48.15 31.41 47.81 31.86 47.45 32.31L67.65 57.75L67.92 57.62C68.0467 57.5606 68.1879 57.5393 68.3264 57.5589C68.4649 57.5784 68.5947 57.6379 68.7 57.73C68.8087 57.8158 68.8896 57.9319 68.9323 58.0636C68.975 58.1953 68.9777 58.3368 68.94 58.47C68.8902 58.6572 68.8127 58.8358 68.71 59L65.58 64.69C65.15 65.48 64.76 66.29 64.35 67.09C64.2686 67.2839 64.1282 67.4472 63.9487 67.5567C63.7691 67.6663 63.5597 67.7164 63.35 67.7C63.2443 67.6965 63.1411 67.7322 63.06 67.8C61.6411 68.9397 60.1515 69.9885 58.6 70.94C56.8 72.22 55 73.57 53.2 74.88C52.07 75.69 50.93 76.48 49.8 77.28C49.17 77.72 49.03 77.61 48.39 77.21C47.125 76.255 46.0036 75.1235 45.06 73.85C44 72.68 43 71.46 42 70.2C39.83 67.32 37.73 64.4 35.58 61.51C34.12 59.56 32.58 57.64 31.18 55.69C30.82 55.17 30.49 54.6 30.11 54ZM50.8 70.45C51.973 69.345 53.2375 68.3414 54.58 67.45C56.13 66.37 57.69 65.29 59.19 64.15C60.69 63.01 62.38 61.62 63.96 60.35L66.12 58.61L46.39 33.66L34.47 48.57C39.92 55.88 45.36 63.15 50.8 70.45ZM28.62 6.21L25 8.63L24.86 8.74C24.613 9.01805 24.3345 9.26639 24.03 9.48C23.92 9.53042 23.8321 9.619 23.7824 9.72933C23.7328 9.83966 23.7248 9.96425 23.76 10.08C24.1048 12.3888 24.5957 14.6734 25.23 16.92C25.63 18.33 26.06 19.74 26.44 21.16C26.5618 21.6674 26.6189 22.1882 26.61 22.71C26.6087 22.7927 26.5911 22.8744 26.5583 22.9503C26.5254 23.0263 26.4779 23.095 26.4184 23.1526C26.359 23.2101 26.2888 23.2554 26.2119 23.2859C26.1349 23.3163 26.0527 23.3313 25.97 23.33C25.8207 23.3385 25.6721 23.3032 25.5425 23.2286C25.4129 23.1541 25.3078 23.0433 25.24 22.91C25.0268 22.5796 24.7895 22.2655 24.53 21.97C22.62 19.97 20.69 17.89 18.78 15.84C18.18 15.2 17.63 14.5 17.05 13.84L16.82 13.96C15.32 14.96 13.82 15.96 12.32 16.96C12.165 17.1098 12.0752 17.3145 12.07 17.53C12.07 17.68 12.24 17.84 12.34 17.99C17.74 26.2433 23.1467 34.49 28.56 42.73L28.83 43.14C31.7501 39.5911 34.1446 35.6407 35.94 31.41C35.4797 31.5186 35.0284 31.6624 34.59 31.84C33.3783 32.2912 32.2497 32.94 31.25 33.76C30.9179 34.0358 30.5634 34.2833 30.19 34.5C30.0227 34.6072 29.8342 34.6769 29.6375 34.7045C29.4407 34.7322 29.2404 34.717 29.05 34.66C28.35 34.42 27.65 34.18 26.97 33.89C26.7668 33.7917 26.6028 33.6275 26.5048 33.4241C26.4067 33.2208 26.3804 32.9902 26.43 32.77C26.43 32.54 26.54 32.32 26.6 32.04L25 31.58C24.8015 31.5516 24.6133 31.4742 24.4521 31.355C24.2909 31.2358 24.1619 31.0783 24.0766 30.8969C23.9913 30.7154 23.9525 30.5156 23.9635 30.3154C23.9746 30.1152 24.0353 29.9209 24.14 29.75C24.661 28.5361 25.3998 27.4278 26.32 26.48C28.7088 24.116 31.7067 22.4613 34.98 21.7L38.18 20.95L28.62 6.21ZM54.78 32.5C57.66 31.36 60.08 26.72 59.29 23.9C58.73 23.97 58.18 24.06 57.62 24.11C56.6408 24.2094 55.6516 24.1315 54.7 23.88C53.89 23.67 53.11 23.35 52.31 23.12C51.51 22.89 50.68 22.7 49.85 22.49C49.67 23.32 49.5 24.07 49.35 24.83C49.3222 25.0742 49.2169 25.303 49.0495 25.483C48.8822 25.663 48.6615 25.7846 48.42 25.83C47.0407 26.1491 45.6245 26.2803 44.21 26.22C43.28 26.16 42.35 26.1 41.42 25.97C40.655 26.0092 39.8922 25.8581 39.2 25.53C39.1669 25.5249 39.1332 25.5249 39.1 25.53C38.28 25.53 37.97 25.06 38.19 24.27C38.34 23.74 38.48 23.2 38.65 22.58L37.46 22.83C34.724 23.2674 32.1087 24.2686 29.78 25.77C28.6283 26.5182 27.6136 27.4585 26.78 28.55C26.42 29.05 26.1 29.55 25.78 30.1L27.09 30.56C27.32 30.65 27.45 30.56 27.59 30.38C28.2495 29.391 29.0477 28.502 29.96 27.74C30.65 27.19 31.36 26.66 32.09 26.16C32.1793 26.0921 32.2816 26.0432 32.3905 26.0165C32.4995 25.9897 32.6128 25.9855 32.7234 26.0043C32.834 26.023 32.9395 26.0643 33.0336 26.1254C33.1276 26.1866 33.2081 26.2665 33.27 26.36C33.3922 26.5402 33.4397 26.7609 33.4024 26.9754C33.3651 27.19 33.2459 27.3816 33.07 27.51C32.885 27.6612 32.6914 27.8014 32.49 27.93C30.8746 29.0148 29.5106 30.4333 28.49 32.09L28.22 32.59L29.02 32.99C29.31 33.15 29.58 33.19 29.76 32.82C29.76 32.73 29.91 32.67 29.99 32.59C30.9307 31.7552 32.0015 31.0796 33.16 30.59C38.2082 28.4284 43.8178 27.9481 49.16 29.22C51.3641 29.6094 53.3569 30.7724 54.78 32.5ZM33.37 49.94C32.65 50.84 31.95 51.7 31.27 52.59C31.21 52.66 31.27 52.88 31.32 52.98C32.13 54.13 32.92 55.28 33.77 56.39C35.31 58.39 36.96 60.39 38.43 62.5C41.1304 66.3979 44.0484 70.1405 47.17 73.71C47.65 74.26 48.17 74.79 48.7 75.36C49.07 74.36 49.4 73.46 49.77 72.56C49.8377 72.4196 49.8605 72.2618 49.8355 72.1079C49.8105 71.9541 49.7387 71.8117 49.63 71.7C44.8167 65.28 40.01 58.8467 35.21 52.4C34.6 51.59 34 50.78 33.37 49.94ZM65.23 21.35C65.2252 21.3731 65.2252 21.3969 65.23 21.42C65.2989 22.7659 65.164 24.1144 64.83 25.42C64.46 26.79 64.03 28.15 63.62 29.51C63.3265 30.5359 62.8708 31.5082 62.27 32.39C60.7289 34.555 58.7364 36.3598 56.43 37.68L56.18 37.84C56.91 38.22 57.63 38.54 58.3 38.96C58.4209 39.0471 58.5661 39.0939 58.715 39.0939C58.864 39.0939 59.0092 39.0471 59.13 38.96C60.6198 38.1639 61.9844 37.1531 63.18 35.96C64.5684 34.4715 65.7983 32.8428 66.85 31.1C68.5218 28.6612 69.4017 25.7666 69.37 22.81C69.37 22.49 69.26 22.34 68.95 22.29C68.38 22.19 67.81 22.11 67.26 21.96C66.71 21.81 65.91 21.59 65.23 21.35ZM11.23 19.53C11.17 19.75 11.13 19.88 11.1 20.01C10.88 20.89 10.66 21.78 10.46 22.66C10.4185 22.8218 10.44 22.9934 10.52 23.14C13.13 26.99 15.74 30.85 18.38 34.68C20.38 37.56 22.38 40.42 24.38 43.26C25.01 44.14 25.73 44.96 26.43 45.85C26.76 45.47 27.03 45.11 27.35 44.79C27.67 44.47 27.54 44.42 27.35 44.18L12.05 20.73L11.23 19.53ZM57.23 22.45V22.58C57.47 22.58 57.71 22.58 57.96 22.58L60.09 22.25C60.61 22.18 60.7 22.25 60.81 22.73C61.1444 24.0368 61.2057 25.3985 60.99 26.73C60.6602 28.3552 59.9671 29.8847 58.9627 31.2043C57.9584 32.5238 56.6686 33.5992 55.19 34.35C55.0056 34.4645 54.7863 34.5093 54.5717 34.4762C54.3572 34.4432 54.1615 34.3346 54.02 34.17C53.42 33.57 52.79 33 52.18 32.43C52.1048 32.3837 52.0242 32.3467 51.94 32.32C51.73 32.9345 51.7586 33.6055 52.02 34.2C52.314 34.8286 52.7207 35.398 53.22 35.88C53.3402 36.0732 53.5004 36.2384 53.6899 36.3643C53.8794 36.4903 54.0937 36.5741 54.3184 36.6101C54.5431 36.6462 54.7729 36.6335 54.9922 36.5731C55.2116 36.5127 55.4155 36.4059 55.59 36.26C56.9618 35.4715 58.2144 34.4916 59.31 33.35C60.3316 32.3974 61.1335 31.2338 61.66 29.94C62.3485 28.1802 62.8805 26.3632 63.25 24.51C63.3783 23.565 63.4518 22.6135 63.47 21.66C63.47 20.95 63.17 20.66 62.47 20.66C61.77 20.66 61.17 20.8 60.47 20.87C59.4969 21.0273 58.5711 21.3997 57.76 21.96C57.5654 22.1103 57.3816 22.274 57.21 22.45H57.23ZM50.83 74.45L51.05 74.32C54.64 71.46 58.37 68.8 62.14 66.2C63.0573 65.6337 63.7607 64.779 64.14 63.77C64.4351 63.0589 64.7689 62.3645 65.14 61.69V61.59C64.9056 61.6349 64.6796 61.7159 64.47 61.83C63.3 62.74 62.12 63.65 61 64.62C60.1 65.4 59.3 66.3 58.4 67.08C56.3449 68.8422 54.1623 70.4499 51.87 71.89C51.7313 71.9589 51.6189 72.0713 51.55 72.21C51.28 72.91 51.06 73.65 50.81 74.42L50.83 74.45Z" fill="black"/>
</svg>
