<?xml version="1.0" encoding="utf-8"?>
<!-- Generator: Adobe Illustrator 24.3.0, SVG Export Plug-In . SVG Version: 6.00 Build 0)  -->
<svg version="1.1" id="Layer_1" xmlns="http://www.w3.org/2000/svg" xmlns:xlink="http://www.w3.org/1999/xlink" x="0px" y="0px"
	 viewBox="0 0 80 80" style="enable-background:new 0 0 80 80;" xml:space="preserve">
<path d="M30.1,54c-0.6,0.7-9.6,12.1-10.5,13.1c-0.3,0.4-0.6,0.7-1.2,0.5c-0.3,0-0.6,0.3-0.9,0.3c-3.7,0-3.1-9.7-1.7-12
	c0.2-0.5,0.7-1,1.2-1.1c2.9-2.4,5.7-4.9,8.2-7.7c-5.8-7.3-10.7-15.2-16-23c-0.6-0.6-0.9-1.5-0.5-2.3c0.6-1.9,0.9-3.9,1.8-5.7
	c0.1-0.2,0.3-0.2,0.4-0.3l4.9-3.3c0.3-0.3,0.6-0.7,1.1-0.5c1.2,1.2,2.2,2.5,3.4,3.7c0.1-1.6,0.7-3.2,0.5-4.9c-0.1-0.3,0-0.6,0.1-0.8
	c0.4-0.2,0.4-0.7,0.2-1c1.1-0.8,5.6-3.7,6.8-4.5c1.5-0.9,3,2.6,3.7,3.6c2.3,3.6,4.6,7.2,6.9,10.7c0.6-3.6,6.1-3,8.8-2.6
	c1.3,0.2,2.7,1.2,2.8,2.6c0,0.6-0.5,1.2-0.4,1.9l5.3,1.5c1.8-2.6,5.5-3.7,8.5-3.2c2.1,0.9,4.3,1.4,6.5,2c0.4,0.1,0.6,0.5,0.6,0.9
	c0,1.2,0,2.5-0.1,3.7c-1.1,6.1-5.5,11.9-11,14.9c-0.4,0.3-1,0.2-1.4,0c-0.2,0-0.4,0.1-0.6,0c-1.3-0.7-2.9-1.2-4-2.3
	c-2.7-1-4.4-4-3.3-6.7l-1.8-0.5c-0.6,0.1-0.8,1-1.3,1.4l20.2,25.4c0.9-0.6,1.7,0.4,1.1,1.3c-1,1.7-3.5,6.4-4.4,8.1
	c-0.2,0.4-0.6,0.6-1,0.6c-1.6,0.9-3.1,2.3-4.8,3.2c-2.9,2.1-5.8,4.3-8.8,6.3c-0.6,0.4-0.8,0.3-1.4-0.1c-5.1-4.4-8.7-10.4-12.8-15.7
	C33.7,59,31.7,56.7,30.1,54z M50.8,70.4c2.5-2.4,5.6-4.1,8.4-6.3c2.1-1.6,4.7-3.8,6.9-5.5l-19.7-25L34.5,48.6
	C39.9,55.9,45.4,63.2,50.8,70.4z M28.6,6.2c-1,0.7-4.1,2.6-4.8,3.5c0.3,3.9,1.7,7.7,2.7,11.4c0.1,0.6,0.4,1.4,0,2
	c-0.3,0.3-1,0.2-1.2-0.2c-2.5-3.2-5.6-5.9-8.2-9.1c-1.6,1-3.1,2.1-4.7,3.1c-0.3,0.3-0.3,0.7,0,1c5.5,8.4,11,16.8,16.5,25.2
	c2.9-3.5,5.3-7.5,7.1-11.7c-1.7,0.4-3.3,1.2-4.7,2.3c-0.6,0.5-1.4,1.2-2.2,0.9c-1.3-0.5-3.3-0.7-2.5-2.6L25,31.6
	c-2.5-0.8,0.4-4,1.3-5.1c3.1-3.3,7.5-4.7,11.9-5.5L28.6,6.2z M54.8,32.5c2.9-1.1,5.3-5.8,4.5-8.6c-3.3,0.9-6.3-0.7-9.4-1.4
	c-0.3,1-0.2,2.1-0.8,3c-2.3,1.2-5.1,0.7-7.6,0.5c-0.8,0.1-1.6-0.2-2.3-0.4c-1.7,0-0.6-1.9-0.5-2.9c-5,0.8-10.4,2.8-12.9,7.5l1.3,0.5
	c0.2,0.1,0.4,0,0.5-0.2c0.7-1,1.5-1.9,2.4-2.6c0.9-0.6,3.2-3.1,3.4-0.8c-0.1,0.5-0.6,0.7-0.9,1c-1.8,1.2-3.3,2.8-4.3,4.7
	c0.4,0.1,1.2,0.9,1.5,0.2C35.4,27.8,49.5,26.4,54.8,32.5z M33.4,49.9c-0.7,0.9-1.4,1.8-2.1,2.7c-0.1,0.1,0,0.3,0,0.4
	c0.8,1.2,1.6,2.3,2.5,3.4c5,6.3,9.3,13.2,14.9,19c0.4-1,0.7-1.9,1.1-2.8c0.1-0.3,0.1-0.6-0.1-0.9C44.2,64.5,38.8,57.2,33.4,49.9z
	 M65.2,21.4c0,6.6-3,13.4-9.1,16.5c0.9,0.4,1.7,1,2.5,1.3c0.1,0,0.3,0,0.4-0.1c5.6-3.3,10.2-9.5,10.2-16.1c0-0.3-0.1-0.5-0.4-0.5
	C67.6,22.1,66.6,21.8,65.2,21.4z M11.2,19.5c-0.2,1.2-0.9,2.4-0.7,3.6c5.3,7.6,10.2,15.4,15.9,22.7c0.3-0.4,0.6-0.7,0.9-1.1
	s0.2-0.4,0-0.6L12.1,20.7L11.2,19.5z M57.2,22.5v0.1c0.5,0,2.3-0.2,2.9-0.3c0.5-0.1,0.6,0,0.7,0.5c1.3,4.6-1.5,9.6-5.6,11.6
	c-1.4,0.6-2.1-1.6-3.2-2c-0.6,1.6,0.9,3.8,2.4,4.3c0.4,0.1,0.9-0.1,1.3-0.4c2.5-1.5,4.9-3.6,6.1-6.3c0.5-1.4,3.3-9.4,0.8-9.3
	C60.6,20.7,58.6,21.1,57.2,22.5L57.2,22.5z M50.8,74.4c3.7-2.8,7.5-5.6,11.3-8.2c1.7-1,2.2-3,3-4.6c-2.6,1.2-4.6,3.6-6.7,5.5
	c-2.1,1.8-4.2,3.4-6.5,4.8C51.2,72.5,51.1,73.6,50.8,74.4z"/>
</svg>
