<svg width="80" height="80" viewBox="0 0 80 80" fill="none" xmlns="http://www.w3.org/2000/svg">
<path d="M34.36 60.06C34.4158 58.1078 34.2514 56.1554 33.87 54.24C33.75 53.35 33.73 53.38 32.87 53.24C29.87 52.91 26.94 52.54 23.97 52.24C21.97 52.02 19.9 51.84 17.86 51.67C15.8815 51.6008 13.9296 51.1914 12.09 50.46C9.82661 49.4608 7.97624 47.7129 6.84998 45.51C6.34647 44.5541 6.11041 43.4799 6.16673 42.401C6.22305 41.322 6.56967 40.2783 7.16998 39.38C8.52589 37.1069 10.5668 35.3216 13 34.28C15.2474 33.1712 17.6898 32.5122 20.19 32.34C20.2463 32.3493 20.3037 32.3493 20.36 32.34C20.44 31.14 20.43 29.98 20.62 28.85C20.8353 27.5689 21.3594 26.3594 22.1469 25.3262C22.9344 24.293 23.9617 23.4671 25.14 22.92C27.1777 21.8925 29.4952 21.5589 31.74 21.97L33.91 22.28C34.06 21.28 34.17 20.28 34.35 19.28C34.8325 17.2737 35.9167 15.4629 37.4574 14.0902C38.9981 12.7175 40.9216 11.8487 42.97 11.6C46.4139 11.3351 49.8661 11.9945 52.97 13.51C53.6188 13.8595 54.2231 14.2859 54.77 14.78C55.3018 15.2311 55.6328 15.875 55.69 16.57C55.759 16.877 55.8526 17.178 55.97 17.47L56.52 18.92C57.0801 18.835 57.6499 18.835 58.21 18.92C58.9791 19.172 59.7069 19.5359 60.37 20C61.4114 20.6773 62.3948 21.4399 63.31 22.28C65.86 24.69 67.23 27.55 66.52 31.16C66.3112 32.51 65.8928 33.8191 65.28 35.04C66.14 35.25 66.97 35.46 67.8 35.65C68.6558 35.8272 69.4656 36.1799 70.1782 36.6859C70.8908 37.192 71.4907 37.8403 71.94 38.59C72.805 39.7482 73.4553 41.0522 73.86 42.44C74.1861 43.6515 74.0998 44.9371 73.6146 46.0941C73.1293 47.2511 72.2728 48.2136 71.18 48.83C68.2741 50.6234 65.0478 51.8358 61.68 52.4C57.79 53.1359 53.8541 53.6036 49.9 53.8L49.68 53.87V60.64C50.17 60.58 50.77 60.48 51.37 60.42C52.49 60.31 53.61 60.22 54.73 60.14C55.0114 60.1144 55.2951 60.1347 55.57 60.2C55.8419 60.2499 56.094 60.376 56.2971 60.5637C56.5001 60.7513 56.6458 60.9927 56.717 61.2598C56.7882 61.5269 56.7821 61.8088 56.6995 62.0726C56.6168 62.3364 56.4609 62.5713 56.25 62.75C55.18 63.75 54.03 64.65 52.92 65.58L48.13 69.58C47.38 70.2 46.61 70.8 45.87 71.43C45.5117 71.763 45.0557 71.972 44.5695 72.026C44.0833 72.08 43.5927 71.9763 43.17 71.73C40.7955 70.6246 38.5118 69.3339 36.34 67.87C34.49 66.63 32.6 65.45 30.76 64.18C30.0131 63.6185 29.3079 63.0036 28.65 62.34C28.4409 62.1193 28.2807 61.8569 28.18 61.57C28.0814 61.3418 28.0467 61.0911 28.0797 60.8447C28.1127 60.5984 28.2121 60.3656 28.3672 60.1714C28.5224 59.9772 28.7275 59.8289 28.9605 59.7423C29.1935 59.6557 29.4457 59.6342 29.69 59.68C31.24 59.84 32.8 59.94 34.36 60.06ZM51.65 63.06C51.07 63.23 50.65 63.34 50.16 63.51C49.6935 63.7026 49.1714 63.7117 48.6985 63.5355C48.2256 63.3593 47.8367 63.0109 47.61 62.56C47.5725 62.4708 47.51 62.3944 47.43 62.34C47.0056 62.1879 46.6505 61.8875 46.43 61.4943C46.2095 61.1011 46.1384 60.6414 46.23 60.2C46.28 58.67 46.37 57.2 46.38 55.62C46.38 53.31 46.38 50.99 46.33 48.68C46.33 45.93 46.22 43.18 46.13 40.43C45.9766 38.4784 46.0033 36.5167 46.21 34.57C46.2549 34.3894 46.2549 34.2006 46.21 34.02C46.0225 33.3709 45.6823 32.7761 45.2177 32.2855C44.7532 31.7949 44.1779 31.4226 43.54 31.2C41.66 30.59 39.86 31.2 38.08 31.72C37.9331 31.7759 37.799 31.861 37.686 31.9703C37.573 32.0796 37.4834 32.2107 37.4226 32.3556C37.3618 32.5006 37.3311 32.6564 37.3324 32.8136C37.3337 32.9708 37.3669 33.126 37.43 33.27C37.4501 33.3791 37.4501 33.4909 37.43 33.6C37.2373 34.3904 37.0937 35.1919 37 36C36.93 37.4 37 38.82 37 40.22C37 42.22 37.11 44.22 37.14 46.22C37.14 46.91 37.03 47.59 37.01 48.22C37.01 49.48 36.95 50.73 37.01 51.98C37.01 54.04 37.19 56.1 37.26 58.17C37.26 59.01 37.26 59.86 37.26 60.71C37.263 60.9907 37.1777 61.2653 37.0162 61.495C36.8547 61.7247 36.6252 61.8978 36.36 61.99C36.2251 62.0442 36.1076 62.1341 36.02 62.25C35.9272 62.4213 35.7977 62.5699 35.6407 62.6852C35.4837 62.8004 35.3032 62.8796 35.112 62.9168C34.9208 62.9541 34.7238 62.9486 34.535 62.9008C34.3462 62.8529 34.1703 62.7639 34.02 62.64C33.7735 62.5233 33.5154 62.4328 33.25 62.37V62.51C34.13 63.09 35.01 63.65 35.88 64.24C38.3722 66.0633 41.0228 67.6597 43.8 69.01C43.9568 69.1024 44.1396 69.1407 44.3203 69.119C44.501 69.0973 44.6695 69.0169 44.8 68.89C47.0533 66.99 49.3033 65.1033 51.55 63.23C51.5869 63.1549 51.6203 63.0782 51.65 63V63.06Z" fill="black"/>
</svg>
