<?xml version="1.0" encoding="utf-8"?>
<!-- Generator: Adobe Illustrator 24.3.0, SVG Export Plug-In . SVG Version: 6.00 Build 0)  -->
<svg version="1.1" id="Layer_1" xmlns="http://www.w3.org/2000/svg" xmlns:xlink="http://www.w3.org/1999/xlink" x="0px" y="0px"
	 viewBox="0 0 80 80" style="enable-background:new 0 0 80 80;" xml:space="preserve">
<path d="M34.4,60.1c0.1-2-0.1-3.9-0.5-5.8c-0.1-0.9-0.1-0.9-1-1c-5-0.6-10-1.2-15-1.6c-4.4-0.1-9-2-11-6.2
	c-3.2-7.7,7.1-13,13.5-13.2c-0.4-8.4,6-11.8,13.5-10.1c0.4-10.6,10.8-13,19.1-8.8c1.2,0.7,2.6,1.6,2.7,3.1c0.1,0.6,0.6,1.8,0.8,2.4
	c2.7-0.5,4.9,1.8,6.8,3.4c3.8,3.2,4.2,8.4,2,12.8c1.7,0.5,3.5,0.6,4.9,1.6c2.5,2.2,4.8,6,3.4,9.4c-4,6.8-16.9,7-23.9,7.8v6.8
	c1.6-0.2,3.4-0.4,5-0.5c0.5,0,1.2,0,1.6,0.4c0.6,0.6,0.6,1.7,0,2.2c-2,1.9-6,5-8.1,6.8c-1.5,1-3,3.3-5,2.1c-2.4-1.1-4.7-2.4-6.8-3.9
	c-2.7-2-6.3-3.4-8.2-6.3C27.3,58.3,32.6,60.3,34.4,60.1z M51.7,63.1c-1.4,0.5-3.2,1.2-4-0.5c-0.3-0.4-1-0.5-1.2-1.1
	c-0.6-1.9,0.1-3.9-0.1-5.9c0.2-7.2-0.6-14.4-0.2-21.6c-1-3.7-5.8-3.5-8.5-2c-0.2,0.2-0.4,0.5-0.4,0.8c0,0.3,0.2,0.5,0.1,0.8
	C36.8,35.8,37,38,37,40.2c0.2,6-0.2,12,0.3,17.9c-0.2,1.2,0.6,3.2-0.9,3.8c-0.3,0.1-0.4,0.5-0.7,0.7c-0.8,0.6-1.6-0.1-2.4-0.3
	c3.3,2.4,7.1,5.2,11.1,6.7C46.9,67.3,49.4,65.1,51.7,63.1L51.7,63.1z"/>
</svg>
