<svg width="80" height="80" viewBox="0 0 80 80" fill="none" xmlns="http://www.w3.org/2000/svg">
<path d="M34.62 55.7C33.22 55.7 31.89 55.78 30.62 55.7C24.62 55.27 18.98 53.77 14.02 50.22C12.2919 49.0191 10.8312 47.4733 9.72998 45.68C8.65504 43.9889 8.14112 42.0017 8.26142 40.0015C8.38172 38.0013 9.13011 36.0901 10.4 34.54C11.3412 33.3603 12.4417 32.317 13.67 31.44C13.8806 31.2702 14.0197 31.0275 14.06 30.76C14.19 29.43 14.27 28.09 14.37 26.7L12.68 26.85C10.0372 27.1565 7.36029 26.7598 4.91998 25.7C3.937 25.2426 3.01074 24.6721 2.15998 24C1.55052 23.556 1.12117 22.9076 0.950416 22.1731C0.779659 21.4387 0.878891 20.6673 1.22998 20C2.58502 16.7912 4.63411 13.9225 7.22998 11.6C8.6747 10.1697 10.2746 8.90522 12 7.83001C13.7747 6.72672 15.8111 6.1158 17.9 6.06001C20.0505 6.13958 22.1129 6.93497 23.76 8.32001C23.8534 8.40009 23.9373 8.49069 24.01 8.59001C24.09 8.69001 24.15 8.80001 24.24 8.94001L24.64 8.70001C26.8731 7.17697 29.4808 6.29503 32.18 6.15001C33.09 6.08001 34.02 6.15001 34.92 6.03001C38.4 5.57001 41.18 7.16001 43.86 9.03001L44.04 9.14001C46.44 7.06001 49.22 6.83001 52.16 7.54001C53.2197 7.82818 54.1742 8.41479 54.91 9.23001C57.4884 11.801 59.6479 14.7603 61.31 18C61.763 19.0276 62.1179 20.0956 62.37 21.19C62.5473 21.9515 62.4407 22.7516 62.07 23.44C61.2875 25.2434 59.8615 26.6907 58.07 27.5C56.67 28.12 55.2 28.6 53.76 29.12C53.5481 29.1973 53.3199 29.2185 53.0974 29.1818C52.8749 29.145 52.6657 29.0514 52.49 28.91C52.2539 28.7847 52.01 28.6745 51.76 28.58C51.76 29.37 51.76 30.03 51.76 30.68C51.76 31.33 51.55 32.13 51.53 32.85C51.5439 33.1998 51.6822 33.5331 51.92 33.79C54.0829 35.688 55.5007 38.2931 55.92 41.14C55.92 41.14 55.92 41.2 55.92 41.19C57.7 41.4 59.46 41.56 61.21 41.83C62.9832 42.0934 64.7041 42.6333 66.31 43.43C67 42.27 67.66 41.11 68.31 39.97C68.82 39.13 69.31 38.3 69.93 37.51C70.0274 37.3572 70.1553 37.2261 70.3056 37.1248C70.456 37.0236 70.6256 36.9544 70.8038 36.9216C70.9821 36.8887 71.1652 36.893 71.3417 36.934C71.5183 36.975 71.6845 37.0519 71.83 37.16C72.1654 37.3694 72.4535 37.6466 72.6756 37.9738C72.8977 38.301 73.0491 38.6709 73.12 39.06C73.48 40.65 73.84 42.24 74.21 43.82C74.4 44.65 74.62 45.48 74.83 46.31C74.83 46.31 74.83 46.39 74.83 46.41C75.75 47.12 75.83 48.23 76.14 49.22C76.8577 51.4402 77.4289 53.705 77.85 56C78.5628 60.0887 78.4164 64.281 77.42 68.31C77.1252 69.5013 76.5084 70.5885 75.6371 71.4528C74.7658 72.317 73.6736 72.9249 72.48 73.21C69.1201 74.23 65.6472 74.8312 62.14 75C60.81 75.05 59.49 75.29 58.14 75.27C56.05 75.27 53.96 75.11 51.87 74.94C50.15 74.79 48.42 74.58 46.71 74.3C44.3139 73.765 42.0384 72.7883 40 71.42C39.22 70.95 38.46 70.42 37.69 69.95C36.7379 69.3878 35.9325 68.6081 35.3398 67.6747C34.747 66.7413 34.3839 65.6808 34.28 64.58C33.9095 61.7708 34.0007 58.9198 34.55 56.14C34.57 56.05 34.58 56 34.62 55.7ZM42.5 40.08L42.16 40.65C41.4273 41.9855 40.8822 43.4156 40.54 44.9C40.4881 45.2181 40.3377 45.5119 40.11 45.74C39.5887 46.1855 39.2358 46.796 39.11 47.47C38.2245 50.4522 37.533 53.4885 37.04 56.56C36.5902 58.9899 36.4892 61.4716 36.74 63.93C36.772 64.7494 37.0129 65.5471 37.44 66.2472C37.8671 66.9473 38.466 67.5266 39.18 67.93C40.33 68.6 41.42 69.35 42.58 69.99C44.0464 70.8958 45.6721 71.5135 47.37 71.81C49.73 72.13 52.1 72.36 54.46 72.6C56.7287 72.7551 59.0062 72.725 61.27 72.51C64.7286 72.3151 68.1572 71.7588 71.5 70.85C72.4284 70.6549 73.2755 70.1822 73.9291 69.4946C74.5828 68.807 75.012 67.9371 75.16 67C75.8225 63.6012 75.8969 60.114 75.38 56.69C75.0603 54.7227 74.5991 52.781 74 50.88C73.56 49.41 73.38 47.82 72.38 46.55C72.3151 46.4425 72.271 46.3238 72.25 46.2C71.92 45.01 71.58 43.83 71.25 42.63C71.08 41.98 70.96 41.31 70.81 40.63C69.88 42.03 68.97 43.37 68.08 44.73C67.987 44.8797 67.9417 45.054 67.95 45.23C67.9774 45.4916 67.9216 45.7551 67.7905 45.9831C67.6594 46.2112 67.4598 46.392 67.22 46.5C66.98 46.5995 66.717 46.6297 66.4607 46.5873C66.2044 46.5449 65.9651 46.4315 65.77 46.26C65.2295 45.8567 64.6419 45.5208 64.02 45.26C59.8078 43.7924 55.2859 43.4478 50.9 44.26C49.9462 44.3361 49.0435 44.7225 48.33 45.36C48.1084 45.612 47.8269 45.8041 47.5116 45.9188C47.1962 46.0334 46.8571 46.0669 46.5254 46.0161C46.1938 45.9653 45.8802 45.8318 45.6136 45.6281C45.347 45.4243 45.136 45.1567 45 44.85C44.23 43.29 43.38 41.73 42.5 40.08ZM36.7 47.18C37.39 45.55 38.07 44.02 38.7 42.47C39.3222 40.8088 40.1921 39.2512 41.28 37.85C41.3642 37.6933 41.4811 37.5565 41.6228 37.449C41.7645 37.3414 41.9277 37.2657 42.1013 37.2268C42.2749 37.1879 42.4548 37.1868 42.6288 37.2236C42.8029 37.2604 42.967 37.3342 43.11 37.44C43.5159 37.6918 43.8581 38.0341 44.11 38.44C45.02 39.86 45.85 41.32 46.72 42.76C46.7962 42.8945 46.8796 43.0247 46.97 43.15C48.89 41.88 51.05 41.68 53.22 41.41C53.22 41.14 53.22 40.93 53.13 40.72C52.6838 38.9755 51.7712 37.3853 50.49 36.12C50.1 35.69 49.87 35.12 49.49 34.7C49.2109 34.3747 49.0195 33.9835 48.9338 33.5635C48.848 33.1436 48.8708 32.7087 49 32.3C49.3 29.9161 49.3 27.5039 49 25.12C48.7004 21.5979 47.632 18.1844 45.87 15.12C44.3394 12.4259 41.9584 10.3157 39.1 9.12001C38.8492 8.99546 38.5635 8.96018 38.29 9.02001C38.0614 9.11939 37.8091 9.15148 37.5629 9.11251C37.3167 9.07354 37.0867 8.96513 36.9 8.80001C36.6448 8.60891 36.3456 8.48511 36.03 8.44001C33.5254 8.17661 30.9942 8.51959 28.65 9.44001C25.2025 10.8899 22.2596 13.3249 20.19 16.44C19.0261 18.0589 18.1998 19.8953 17.76 21.84C18.1906 21.0741 18.6786 20.342 19.22 19.65C20.6815 18.1354 22.4658 16.9698 24.44 16.24C24.8434 16.0896 25.2695 16.0084 25.7 16C26.59 15.95 27.49 16 27.92 17C27.92 17.11 28.09 17.18 28.18 17.26C28.538 17.5963 28.8721 17.9572 29.18 18.34C30.4742 20.0904 31.5521 21.9908 32.39 24C32.9954 25.4843 33.2056 27.1002 33 28.69C32.89 29.62 32.74 30.55 32.6 31.53C32.96 31.53 33.33 31.53 33.7 31.53C34.9395 31.5183 36.1692 31.7493 37.32 32.21C37.5939 32.3041 37.8429 32.459 38.0485 32.663C38.2541 32.867 38.4108 33.1149 38.507 33.3881C38.6032 33.6613 38.6363 33.9527 38.6039 34.2405C38.5716 34.5283 38.4745 34.805 38.32 35.05C37.2862 37.0813 35.81 38.8548 34 40.24C33.821 40.3836 33.706 40.592 33.68 40.82C33.68 41.88 33.73 42.93 33.78 43.99C33.7742 44.1469 33.8198 44.3014 33.91 44.43C34.79 45.34 35.72 46.23 36.7 47.18ZM27.86 36.74C26.31 36.83 24.86 37.01 23.43 36.98C22.0289 36.9901 20.6632 36.5409 19.5416 35.7011C18.4201 34.8614 17.6046 33.6773 17.22 32.33C17.03 31.74 16.87 31.14 16.69 30.54C16.6288 30.6745 16.6046 30.823 16.62 30.97C16.7306 31.4043 16.6922 31.8631 16.5108 32.2729C16.3295 32.6828 16.0158 33.0198 15.62 33.23C14.8399 33.7038 14.1183 34.2677 13.47 34.91C12.6399 35.6124 11.9703 36.4847 11.5062 37.468C11.0422 38.4513 10.7945 39.5228 10.78 40.61C10.8316 42.3801 11.484 44.0799 12.63 45.43C14.7158 47.8872 17.4083 49.7557 20.44 50.85C21.04 51.1 21.66 51.3 22.06 51.45C22.69 50.96 23.14 50.54 23.65 50.22C26.2207 48.6051 28.6766 46.8141 31 44.86C31.0783 44.7944 31.1426 44.7136 31.189 44.6225C31.2354 44.5315 31.2629 44.432 31.27 44.33C31.27 43.18 31.27 42.04 31.27 40.89C31.2301 40.6995 31.1238 40.5293 30.97 40.41C30.4439 39.9721 29.9462 39.5012 29.48 39C28.86 38.28 28.34 37.44 27.86 36.74ZM14.76 24.05C15.0762 21.3395 15.934 18.7202 17.2826 16.3478C18.6311 13.9754 20.4428 11.8984 22.61 10.24C21.97 9.87001 21.42 9.51001 20.83 9.24001C19.753 8.65144 18.5169 8.42032 17.3 8.58001C15.7994 8.76039 14.3632 9.29511 13.11 10.14C11.66 11.14 10.29 12.33 8.92998 13.49C6.63394 15.5054 4.81937 18.0102 3.61998 20.82C3.31998 21.49 3.34998 21.82 3.94998 22.16C4.8051 22.734 5.7085 23.2325 6.64998 23.65C8.33311 24.2844 10.141 24.5172 11.93 24.33C12.84 24.27 13.74 24.15 14.76 24.05ZM25.09 18.54C22.8 19.72 20.72 21 19.9 23.6C19.6293 24.4107 19.4319 25.2441 19.31 26.09C18.9363 28.036 19.0952 30.0469 19.77 31.91C19.9783 32.4833 20.3244 32.9966 20.7778 33.4047C21.2312 33.8127 21.778 34.103 22.37 34.25C23.8226 34.5971 25.3391 34.573 26.78 34.18C26.8667 34.1533 26.9462 34.1069 27.0121 34.0445C27.078 33.982 27.1286 33.9052 27.16 33.82C27.3008 33.3131 27.5821 32.8564 27.9714 32.5025C28.3606 32.1487 28.842 31.9121 29.36 31.82C29.4635 31.7941 29.5606 31.7469 29.6449 31.6815C29.7293 31.6161 29.7991 31.5339 29.85 31.44C30.4698 29.851 30.683 28.1323 30.47 26.44C30.2411 25.2152 29.7758 24.0468 29.1 23C28.5 21.89 27.79 20.83 27.1 19.76C27.0431 19.6779 26.9687 19.6094 26.8823 19.5592C26.7959 19.5091 26.6995 19.4786 26.6 19.47C26.278 19.5279 25.9459 19.465 25.6674 19.2934C25.3888 19.1218 25.1832 18.8536 25.09 18.54ZM24.89 52.23C24.89 52.23 24.94 52.23 24.96 52.23L31.26 53.15C31.3261 53.1625 31.3939 53.1625 31.46 53.15C31.51 52.73 31.77 52.95 31.97 52.97C32.88 53.04 33.8 53.14 34.71 53.18C34.8011 53.1699 34.8879 53.136 34.9617 53.0815C35.0355 53.0271 35.0935 52.9541 35.13 52.87C35.38 51.95 35.59 51.03 35.78 50.1C35.8086 49.9208 35.7655 49.7376 35.66 49.59C35.06 49.03 34.44 48.5 33.83 47.95V48.12C33.5855 48.202 33.3274 48.236 33.07 48.22C32.7522 48.1361 32.4195 48.1258 32.0972 48.19C31.7749 48.2541 31.4714 48.3909 31.21 48.59L31.15 48.11L24.89 52.23Z" fill="black"/>
<path d="M55.05 66.31C55.1076 65.9864 55.0725 65.6532 54.9486 65.3488C54.8247 65.0444 54.6172 64.7813 54.35 64.59C53.7529 63.9554 53.192 63.2877 52.67 62.59C52.46 62.34 52.25 62.09 52.03 61.87C51.9193 61.7783 51.8278 61.6657 51.7608 61.5385C51.6938 61.4114 51.6526 61.2722 51.6396 61.1291C51.6266 60.986 51.642 60.8417 51.685 60.7045C51.728 60.5674 51.7976 60.4401 51.89 60.33C52.166 60.004 52.4633 59.6967 52.78 59.41C52.985 59.2182 53.2517 59.1059 53.5321 59.093C53.8125 59.0802 54.0883 59.1678 54.31 59.34C54.7218 59.6391 55.1066 59.9737 55.46 60.34C55.77 60.66 56.05 60.75 56.46 60.45C56.7934 60.1772 57.1516 59.9361 57.53 59.73C57.838 59.5404 58.1762 59.4051 58.53 59.33C58.7956 59.2471 59.0798 59.2451 59.3465 59.3245C59.6132 59.4038 59.8501 59.5608 60.0272 59.7754C60.2042 59.99 60.3133 60.2525 60.3406 60.5294C60.3678 60.8063 60.3119 61.085 60.18 61.33C59.6825 62.6262 58.8256 63.7536 57.71 64.58C57.5709 64.6589 57.4604 64.7797 57.3939 64.9251C57.3275 65.0705 57.3086 65.2332 57.34 65.39V65.5C57.42 66.16 57.49 66.81 57.57 67.5C58.4 67.77 59.22 68.05 60.05 68.31C60.2096 68.3253 60.3703 68.3253 60.53 68.31C60.8377 68.3327 61.1254 68.4713 61.335 68.6976C61.5447 68.924 61.6608 69.2214 61.66 69.53C61.6601 69.684 61.6291 69.8364 61.5687 69.9781C61.5083 70.1198 61.4198 70.2478 61.3086 70.3543C61.1974 70.4608 61.0657 70.5437 60.9216 70.598C60.7775 70.6523 60.6238 70.6767 60.47 70.67C59.6631 70.5757 58.8642 70.4219 58.08 70.21C57.77 70.13 57.5 69.93 57.2 69.82C56.6838 69.6454 56.1214 69.6668 55.62 69.88C54.7611 70.244 53.8347 70.4216 52.9021 70.4009C51.9695 70.3802 51.0519 70.1618 50.21 69.76C50.0662 69.7061 49.9349 69.6236 49.8238 69.5177C49.7127 69.4117 49.6241 69.2844 49.5634 69.1434C49.5027 69.0024 49.4711 68.8506 49.4705 68.6971C49.4699 68.5435 49.5004 68.3915 49.56 68.25C49.619 68.1088 49.7065 67.9814 49.8171 67.8757C49.9277 67.77 50.0589 67.6882 50.2026 67.6357C50.3463 67.5831 50.4993 67.5608 50.652 67.5701C50.8047 67.5795 50.9538 67.6203 51.09 67.69C52.0499 68.0496 53.0972 68.1054 54.09 67.85C54.67 67.77 55.22 67.56 55.04 66.68C55.0359 66.5566 55.0393 66.433 55.05 66.31Z" fill="black"/>
<path d="M72 60.38C71.9631 60.6621 71.8507 60.929 71.6747 61.1526C71.4987 61.3761 71.2656 61.548 71 61.65C70.31 61.98 69.58 62.24 68.87 62.54C68.32 62.79 67.76 63.04 67.23 63.32C67.0255 63.4546 66.7822 63.5177 66.538 63.4996C66.2938 63.4815 66.0625 63.3832 65.88 63.22C65.6744 63.0662 65.5358 62.8392 65.493 62.586C65.4502 62.3328 65.5064 62.0729 65.65 61.86C65.877 61.5258 66.1781 61.2486 66.53 61.05C67.78 60.43 69.06 59.86 70.33 59.29C70.5103 59.1982 70.7115 59.1556 70.9135 59.1664C71.1155 59.1773 71.311 59.2412 71.4804 59.3518C71.6498 59.4623 71.787 59.6156 71.8783 59.7961C71.9695 59.9767 72.0115 60.1781 72 60.38Z" fill="black"/>
<path d="M48.33 55.32C48.3364 55.7541 48.2081 56.1795 47.9627 56.5377C47.7174 56.8958 47.3671 57.1692 46.96 57.32C46.5586 57.4262 46.1336 57.3987 45.7493 57.2417C45.3649 57.0848 45.0422 56.8068 44.83 56.45C44.4853 56.0116 44.3054 55.4661 44.3219 54.9087C44.3383 54.3513 44.55 53.8173 44.92 53.4C45.1127 53.1596 45.3655 52.9744 45.6528 52.863C45.9401 52.7517 46.2517 52.7181 46.5562 52.7658C46.8606 52.8135 47.147 52.9408 47.3865 53.1346C47.6259 53.3285 47.81 53.5822 47.92 53.87C48.0926 54.3425 48.2296 54.8271 48.33 55.32Z" fill="black"/>
<path d="M65.19 56.81C64.817 56.8277 64.4474 56.7308 64.131 56.5324C63.8146 56.334 63.5665 56.0435 63.42 55.7C63.2179 55.3252 63.1346 54.8978 63.181 54.4745C63.2275 54.0512 63.4015 53.6521 63.68 53.33C63.8797 53.0376 64.1696 52.8186 64.5056 52.7067C64.8415 52.5947 65.2048 52.5959 65.54 52.71C65.9125 52.8305 66.2378 53.0648 66.47 53.38C66.8044 53.9237 67.0667 54.5086 67.25 55.12C67.3057 55.4615 67.2262 55.8112 67.0283 56.095C66.8304 56.3788 66.5297 56.5743 66.19 56.64C65.8603 56.7161 65.5264 56.7728 65.19 56.81Z" fill="black"/>
<path d="M43.65 62.31C42.82 62.22 41.98 62.16 41.15 62.01C40.7849 61.938 40.4422 61.7803 40.15 61.55C39.9275 61.3947 39.7683 61.1646 39.7015 60.9017C39.6347 60.6388 39.6647 60.3606 39.786 60.118C39.9073 59.8754 40.1119 59.6845 40.3623 59.5802C40.6127 59.4759 40.8923 59.4652 41.15 59.55L43.37 59.91C43.65 59.91 43.94 59.91 44.23 59.98C44.387 59.9733 44.5437 59.9982 44.6908 60.0534C44.8379 60.1086 44.9724 60.1928 45.0862 60.301C45.2001 60.4093 45.291 60.5394 45.3535 60.6835C45.416 60.8276 45.4488 60.9829 45.45 61.14C45.45 61.8 44.95 62.22 44.19 62.25H43.65V62.31Z" fill="black"/>
<path d="M45.08 62.69C45.3387 62.6653 45.5982 62.729 45.8161 62.8706C46.034 63.0123 46.1975 63.2235 46.28 63.47C46.352 63.7025 46.345 63.9522 46.2599 64.1802C46.1749 64.4082 46.0166 64.6016 45.81 64.73C45.6118 64.8524 45.4045 64.9594 45.19 65.05C44.37 65.45 43.56 65.85 42.73 66.24C42.4841 66.3872 42.1919 66.4364 41.9115 66.3778C41.631 66.3192 41.3829 66.1572 41.2165 65.924C41.0501 65.6908 40.9776 65.4035 41.0134 65.1192C41.0493 64.835 41.1909 64.5746 41.41 64.39C41.6525 64.1546 41.9332 63.9619 42.24 63.82C43.02 63.46 43.81 63.14 44.61 62.82C44.7624 62.7626 44.9197 62.719 45.08 62.69Z" fill="black"/>
<path d="M68.08 64C69.08 64.34 70.08 64.64 71.08 65C71.3636 65.1479 71.5994 65.3733 71.76 65.65C71.9093 65.8658 71.978 66.1272 71.9543 66.3886C71.9305 66.6499 71.8157 66.8946 71.63 67.08C71.457 67.2662 71.2244 67.386 70.9724 67.4189C70.7205 67.4518 70.4649 67.3956 70.25 67.26C69.5057 66.7984 68.6757 66.4923 67.81 66.36C67.5169 66.3321 67.2469 66.189 67.0594 65.9621C66.8718 65.7352 66.7821 65.4431 66.81 65.15C66.8542 64.8604 67.0047 64.5975 67.232 64.4127C67.4594 64.2279 67.7474 64.1342 68.04 64.15L68.08 64Z" fill="black"/>
<path d="M43.82 27.39C43.7636 27.6817 43.6868 27.9691 43.59 28.25C43.3497 28.7742 42.9635 29.218 42.4776 29.5284C41.9916 29.8387 41.4265 30.0025 40.85 30C40.3728 30.032 39.898 29.9104 39.495 29.6531C39.0919 29.3958 38.7818 29.0163 38.61 28.57C38.3224 28.073 38.1619 27.5127 38.1427 26.9388C38.1235 26.3649 38.2462 25.7951 38.5 25.28C38.6847 24.8199 39.0086 24.429 39.4263 24.1619C39.844 23.8947 40.3348 23.7647 40.83 23.79C41.3268 23.7896 41.8107 23.9487 42.2104 24.244C42.61 24.5392 42.9043 24.955 43.05 25.43C43.2 25.81 43.41 26.16 43.56 26.54C43.6648 26.8175 43.7517 27.1014 43.82 27.39Z" fill="black"/>
<path d="M21.81 27.18C21.7999 26.8308 21.8592 26.483 21.9845 26.1568C22.1098 25.8307 22.2986 25.5327 22.54 25.28C22.6777 25.115 22.8046 24.9413 22.92 24.76C23.1037 24.4103 23.4054 24.1369 23.7716 23.9886C24.1378 23.8403 24.5447 23.8267 24.92 23.95C26.65 24.35 27.39 26.21 27.28 27.76C27.203 28.3597 26.991 28.9341 26.66 29.44C26.4108 29.8505 26.0303 30.1646 25.5801 30.3316C25.13 30.4986 24.6366 30.5086 24.18 30.36C23.5252 30.1075 22.9552 29.6749 22.5359 29.1122C22.1165 28.5495 21.8649 27.8797 21.81 27.18Z" fill="black"/>
</svg>
