<?xml version="1.0" encoding="utf-8"?>
<!-- Generator: Adobe Illustrator 24.3.0, SVG Export Plug-In . SVG Version: 6.00 Build 0)  -->
<svg version="1.1" id="Layer_1" xmlns="http://www.w3.org/2000/svg" xmlns:xlink="http://www.w3.org/1999/xlink" x="0px" y="0px"
	 viewBox="0 0 80 80" style="enable-background:new 0 0 80 80;" xml:space="preserve">
<path d="M19.4,69.5h-2.3c-3.6-0.5-7.9-0.3-9.8-4.1c-0.9-1.6-1.5-3.4-1.6-5.3c-0.6-6.1-1.3-12-1.8-18.1c-0.2-1.9-0.2-4.6-0.2-6.5
	C4,33,3.4,30.3,4.7,27.9c4.2-6.6,13-7.3,20.1-7.1c-2-8.6,3.7-11.5,11.3-11.6c3.6-0.5,7.3-0.6,11-0.3c8.8-0.3,7,5.2,7.2,11.7
	c3.3,0,6.6,0.1,9.9,0.1c1.1,0,2.3-0.7,3.4-0.1c1.6,0.8,3.5,1.4,4.4,3.1c3.3,7.4,3,15.7,3.2,23.7c0,3.5-0.2,7.1-0.6,10.6
	c-0.3,3.1-2.2,5-5.3,5.8C53,67.4,36,67.5,19.4,69.5z M48.8,44.5c0.2-5.1,0.8-6.2,6-6.9c0.5-4.5,0.2-9,0.2-13.6
	c-10.4,0.3-20.7-0.5-31,0.1l0.5,15c4.5,0.3,3.2,2.1,4,5.4H48.8z M24.4,53.5l0.4,12.3c9.9-0.8,19.7-1.7,29.4-2.7
	c-0.2-3.9-0.3-7.7-0.5-11.5c-3.3-0.1-4.7-0.2-5.1-3.9c-6.5,0-13.1,0.4-19.5-0.4C29,51,28.2,52.1,24.4,53.5z M16.3,24.5
	c-3,0.6-8.3,2.7-9.1,5.9c-0.4,4.4-0.4,8.8-0.1,13.2c-0.1,1.6,0.2,1.7,1.7,1.5c0,0,3.8,0,3.8,0c-0.4-3.5-0.7-6.9,3.9-6.9L16.3,24.5z
	 M66.2,43.4l5.5-0.5c0.4,0,0.4-0.4,0.3-0.6c-0.3-5.6-0.3-11.3-2.6-16.6c-0.2-0.4-0.5-0.7-0.9-1c-1.8-1.4-3.9-0.7-5.9-0.8v14.3
	c1.5,0.1,4.9,0.7,3.9,2.7C66,41.7,66.3,42.5,66.2,43.4z M7.6,48c0.2,3.2,0.6,6.2,0.9,9.4c0.3,2.6,0.4,5.8,2.5,7.6
	c1.9,1.2,4.4,0.9,6.5,1.2l-0.3-12.5c-3.9,0-4.2-1.3-4.4-4.9c0-0.2-0.2-0.4-0.4-0.4C11,48.3,9.3,48.2,7.6,48z M62.8,62
	c2.3-0.5,4.6-1,6.9-1.6c0.6-0.2,1-0.6,1.3-1.1c0.3-0.6,0.6-1.2,0.6-1.9c0.1-3.7,0.5-7.5,0.4-11.2l-5.1,0.4c-0.3,2.1-1.6,4.1-3.9,4.3
	c-0.5,0.1-0.6,0.3-0.5,0.7C62.6,55.1,62.8,58.5,62.8,62z M49.4,20.8c-0.2-2,0.4-4.1-0.4-5.9c-1.4-0.7-3.2-0.3-4.7-0.5
	c-4.4,0-8.9-0.2-13.2,0.9c-0.2,0.1-0.3,0.3-0.4,0.6c-0.2,1.5-0.3,3.2-0.4,4.6L49.4,20.8z"/>
</svg>
