<svg width="80" height="80" viewBox="0 0 80 80" fill="none" xmlns="http://www.w3.org/2000/svg">
<path d="M19.4 69.53H17.1C15.83 69.37 14.56 69.18 13.28 69.05C10.72 68.78 8.55 67.8 7.28 65.47C6.37702 63.8483 5.81869 62.0575 5.64 60.21C5.32 57.21 5.01 54.21 4.71 51.21C4.41 48.21 4.08 45.13 3.8 42.08C3.69 40.94 3.65 39.8 3.58 38.66V35.56C3.67 34.36 3.85 33.16 3.82 31.96C3.75447 30.564 4.05948 29.1756 4.70404 27.9357C5.34861 26.6957 6.30979 25.6484 7.49 24.9C9.68884 23.2544 12.2052 22.0831 14.88 21.46C16.8411 21.1262 18.8221 20.9224 20.81 20.85C22.11 20.76 23.42 20.85 24.81 20.85C24.4267 19.3439 24.3519 17.7758 24.59 16.24C24.6626 15.2727 24.9498 14.3338 25.4306 13.4914C25.9115 12.649 26.574 11.9243 27.37 11.37C28.4769 10.6457 29.7073 10.1305 31 9.84999C32.7025 9.54889 34.4228 9.35849 36.15 9.27999C39.7985 8.82702 43.4822 8.72656 47.15 8.97999C48.09 9.07999 49.04 9.10999 49.98 9.19999C52.46 9.43999 53.85 10.67 54.19 13.14C54.3302 14.6023 54.3903 16.0711 54.37 17.54C54.37 18.54 54.37 19.62 54.37 20.69H54.86C58 20.69 61.14 20.75 64.29 20.76C64.7477 20.7462 65.2016 20.6722 65.64 20.54C66.3196 20.3311 67.0521 20.3773 67.7 20.67C68.6997 21.0889 69.6658 21.5837 70.59 22.15C71.229 22.5598 71.7468 23.1329 72.09 23.81C72.6774 25.098 73.146 26.4369 73.49 27.81C74.0758 29.8588 74.4905 31.9526 74.73 34.07C75.06 38.52 75.28 42.99 75.3 47.46C75.3104 51.0013 75.1201 54.5403 74.73 58.06C74.4 61.16 72.58 63.06 69.46 63.91C66.1184 64.7366 62.7236 65.3313 59.3 65.69C53.8 66.3 48.3 66.91 42.79 67.42C36.07 68.03 29.35 68.54 22.63 69.11C21.54 69.27 20.47 69.41 19.4 69.53ZM48.75 44.47C48.84 43.4 48.89 42.41 49.02 41.47C49.0392 40.6318 49.362 39.8292 49.9285 39.2112C50.4951 38.5931 51.2667 38.2019 52.1 38.11C52.95 37.91 53.82 37.76 54.7 37.59C55.24 33.06 54.92 28.59 54.94 23.95C44.56 24.28 34.2 23.44 23.94 24.05L24.41 39.05C25.12 39.17 25.82 39.24 26.5 39.41C26.9689 39.5279 27.3792 39.8117 27.6549 40.2088C27.9307 40.6059 28.0533 41.0895 28 41.57C28.091 42.5455 28.2447 43.5142 28.46 44.47H48.75ZM24.39 53.47L24.82 65.81C34.68 65.06 44.54 64.15 54.25 63.13C54.08 59.23 53.93 55.45 53.77 51.67L51.66 51.52C51.0209 51.5368 50.3977 51.3194 49.9077 50.9087C49.4178 50.4979 49.0949 49.9222 49 49.29C48.87 48.77 48.8 48.29 48.71 47.72C42.16 47.72 35.65 48.09 29.16 47.34C29 51 28.17 52.1 24.39 53.47ZM16.32 24.47C16.2305 24.4567 16.1395 24.4567 16.05 24.47C15.62 24.58 15.19 24.68 14.77 24.82C12.4314 25.5265 10.2701 26.723 8.43 28.33C7.76635 28.8353 7.32238 29.5764 7.19 30.4C6.77005 34.792 6.73993 39.2126 7.1 43.61C7.1 44.11 7.04 44.81 7.32 45.04C7.6 45.27 8.32 45.13 8.82 45.13H12.65C12.65 44.82 12.59 44.51 12.57 44.19C12.51 43.35 12.39 42.51 12.4 41.67C12.3752 40.8219 12.6819 39.9975 13.2552 39.372C13.8284 38.7465 14.623 38.3691 15.47 38.32C15.82 38.32 16.17 38.32 16.54 38.25L16.32 24.47ZM66.17 43.41L71.63 42.92C72.05 42.92 71.99 42.56 71.97 42.28C71.81 39.53 71.74 36.77 71.48 34.03C71.1722 31.1688 70.4758 28.363 69.41 25.69C69.1873 25.285 68.8678 24.9415 68.48 24.69C66.65 23.27 64.56 23.98 62.57 23.9V38.2C63.08 38.27 63.57 38.31 64 38.4C64.4537 38.4793 64.9014 38.5895 65.34 38.73C66.4 39.09 67.02 40.16 66.49 40.92C65.96 41.68 66.27 42.45 66.17 43.41ZM7.63 48.05C7.63 48.33 7.63 48.47 7.63 48.61C7.92 51.55 8.2 54.49 8.51 57.43C8.62453 59.4213 9.02878 61.3853 9.71 63.26C9.98662 63.9555 10.4528 64.5595 11.0557 65.0032C11.6585 65.4469 12.3737 65.7126 13.12 65.77C14.29 65.95 15.48 66.03 16.66 66.15L17.57 66.25L17.26 53.74C16.68 53.69 16.18 53.66 15.68 53.59C15.3295 53.5902 14.9826 53.5198 14.66 53.3831C14.3373 53.2463 14.0455 53.046 13.8019 52.794C13.5583 52.542 13.368 52.2436 13.2422 51.9165C13.1165 51.5893 13.0579 51.2402 13.07 50.89C13 50.21 12.99 49.52 12.9 48.89C12.9 48.73 12.69 48.47 12.55 48.46C11 48.27 9.31 48.17 7.63 48.05ZM62.75 62C62.75 62 62.75 62 62.83 62C65.12 61.48 67.42 61 69.69 60.41C70.2413 60.1965 70.7034 59.8014 71 59.29C71.3441 58.6999 71.5525 58.0406 71.61 57.36C71.81 53.72 71.93 50.08 72.08 46.44C72.0696 46.3481 72.0495 46.2576 72.02 46.17L66.92 46.59C66.7768 47.2681 66.5898 47.9362 66.36 48.59C66.0575 49.2218 65.5944 49.7631 65.017 50.1597C64.4397 50.5563 63.7683 50.7943 63.07 50.85C62.61 50.94 62.5 51.15 62.52 51.58C62.61 54.33 62.68 57.07 62.75 59.82C62.76 60.53 62.75 61.25 62.75 62ZM49.36 20.78C49.36 19.39 49.36 18.11 49.36 16.78C49.36 16.38 49.27 15.98 49.22 15.58C49.22 15.3148 49.1146 15.0604 48.9271 14.8729C48.7396 14.6854 48.4852 14.58 48.22 14.58C46.88 14.5 45.54 14.41 44.22 14.37C42.9 14.33 41.65 14.37 40.36 14.37C39.07 14.37 37.91 14.37 36.69 14.46C35.47 14.55 34.2 14.65 32.96 14.79C32.3048 14.8737 31.6588 15.0177 31.03 15.22C30.9287 15.2788 30.8419 15.3597 30.7761 15.4566C30.7103 15.5536 30.6672 15.6641 30.65 15.78C30.54 16.59 30.49 17.42 30.43 18.24C30.37 19.06 30.33 19.7 30.29 20.4L49.36 20.78Z" fill="black"/>
</svg>
