<?xml version="1.0" encoding="utf-8"?>
<!-- Generator: Adobe Illustrator 24.3.0, SVG Export Plug-In . SVG Version: 6.00 Build 0)  -->
<svg version="1.1" id="Layer_1" xmlns="http://www.w3.org/2000/svg" xmlns:xlink="http://www.w3.org/1999/xlink" x="0px" y="0px"
	 viewBox="0 0 80 80" style="enable-background:new 0 0 80 80;" xml:space="preserve">
<path d="M30,61.1h-7.3c-0.1,0-0.2-0.1-0.3-0.1c-5-1.1-12.7,0.4-15.2-5.2C6,45.5,5.5,34.9,6.8,24.6c1.5-6.3,21.4-6.4,27.1-6.7
	c5.5-0.1,11-0.1,16.5,0.1c6.5,0.2,13,0,19.5,0.8c1.3,0.1,2.4,1.3,2.4,2.6c0.3,11.3,0.6,22.6,0.9,33.9c0.1,0.6-0.1,1.2-0.5,1.6
	c0.6,1.2,0.2,2.2-1,2.3c-2.4,0.2-4.7,0.5-7.1,0.7C53.1,60.8,41.6,60.8,30,61.1z M70.2,42.3c0-0.3,0-0.5,0-0.8l-0.3-10.3
	c-0.1-3.1-0.2-6.1-0.3-9.2c0-0.4-0.3-0.7-0.6-0.8c-13.1-1.1-26.3-1-39.4-0.6c-6.8,0.6-14.1,0.7-20.3,3.8c0.6,1.1,0.6,1.3-0.3,2.1
	c-0.2,6.1-0.3,12.3,0,18.4C29.3,43.4,49.8,43.4,70.2,42.3z M9.4,52.7c0.1,1.7,0,3.9,2.1,4.2c5.1,1,10.3,1.7,15.5,1.6
	c14.6-0.1,29.1-0.3,43.6-2l-0.2-5.9C51,51.8,28.9,52,9.4,52.7z"/>
<path d="M64.5,32.5c-0.3,2.1,1.2,6.4-2.1,6.4c0,0-7.6,0.1-7.6,0.1c-1.4,0.1-3.2,0.1-3.6-1.5c-0.3-2.7-4.5-13.4,0.2-13.3
	c2.3,0,4.6-0.2,6.9-0.2c1.2,0.1,2.6-0.2,3.8,0.2c0.4,0.2,0.4,0.7,0.8,0.8c2.2,0.7,1.1,5.6,1.4,7.6L64.5,32.5z"/>
</svg>
