<svg width="80" height="80" viewBox="0 0 80 80" fill="none" xmlns="http://www.w3.org/2000/svg">
<path d="M30 61.06H22.7C22.6 61.06 22.51 61.01 22.41 61C19.96 60.72 17.51 60.47 15.06 60.17C13.2883 60.0012 11.5521 59.5663 9.90999 58.88C9.11367 58.5937 8.43954 58.0431 7.99999 57.32C7.73 56.8 7.43 56.32 7.17 55.8C6.94106 55.2553 6.82211 54.6708 6.82 54.08C6.7 52.27 6.65 50.46 6.55 48.65C6.38 45.48 6.13 42.31 6.05 39.14C5.99 36.71 6.04999 34.26 6.23999 31.84C6.42999 29.42 6.13 26.94 6.8 24.55C6.89585 24.0888 7.05044 23.6418 7.26 23.22C7.71825 22.5291 8.36814 21.9869 9.13 21.66C10.9462 20.7641 12.878 20.1246 14.87 19.76C21.1267 18.5097 27.4896 17.8667 33.87 17.84C39.37 17.75 44.87 17.75 50.37 17.89C56.88 18.07 63.37 17.84 69.89 18.64C70.54 18.7109 71.1433 19.012 71.5908 19.4888C72.0382 19.9656 72.3004 20.5868 72.33 21.24C72.4567 25.74 72.5833 30.2467 72.71 34.76C72.8833 41.54 73.06 48.32 73.24 55.1C73.2864 55.3895 73.2645 55.6859 73.176 55.9655C73.0874 56.245 72.9347 56.5 72.73 56.71C73.33 57.92 72.93 58.86 71.73 58.98C69.38 59.22 67.02 59.47 64.66 59.68C62.66 59.85 60.76 59.97 58.81 60.1C55.51 60.32 52.21 60.62 48.9 60.71C43.08 60.88 37.25 60.9 31.42 60.99C31 61 30.49 61 30 61.06ZM70.2 42.33C70.2 42.03 70.2 41.8 70.2 41.57L69.93 31.25C69.84 28.19 69.74 25.13 69.67 22.07C69.6829 21.8811 69.6258 21.6942 69.5096 21.5447C69.3934 21.3953 69.2262 21.294 69.04 21.26C68.1209 21.0634 67.1882 20.9364 66.25 20.88C61.25 20.74 56.35 20.65 51.39 20.54C44.13 20.38 36.88 20.25 29.62 20.63C24.7865 20.849 19.9763 21.4306 15.23 22.37C13.5065 22.6665 11.8269 23.1771 10.23 23.89C9.91999 24.05 9.61999 24.25 9.31999 24.43C9.92999 25.49 9.89 25.72 8.97 26.5C8.89068 26.614 8.85194 26.7513 8.85999 26.89C8.85999 27.75 8.85999 28.61 8.85999 29.46C8.85999 33.59 8.78999 37.72 8.77999 41.85C8.77999 42.85 8.9 43.91 8.96 44.94C10.68 44.78 12.31 44.57 13.96 44.5C19.88 44.2267 25.8 43.9867 31.72 43.78C36.82 43.59 41.92 43.44 47.02 43.25C54.0133 42.99 61.0133 42.7167 68.02 42.43L70.2 42.33ZM9.35999 52.66C9.40999 53.34 9.43 53.96 9.49999 54.58C9.50633 55.1362 9.71144 55.6718 10.0782 56.0899C10.4451 56.5081 10.9494 56.7812 11.5 56.86C13.03 57.14 14.57 57.41 16.11 57.65C19.7099 58.2301 23.3543 58.4878 27 58.42C34.21 58.28 41.42 58.22 48.63 58.08C51.19 58.02 53.76 57.86 56.32 57.66C60.06 57.38 63.79 57.03 67.53 56.66L70.61 56.39L70.4 50.47H69.7C67.43 50.6 65.17 50.74 62.9 50.86L56.49 51.17C53.06 51.35 49.62 51.59 46.19 51.7C41.48 51.86 36.78 51.93 32.07 52.04L10.35 52.53C10.06 52.58 9.74999 52.62 9.35999 52.66Z" fill="black"/>
<path d="M64.5 32.5C64.5 33.99 64.5 35.5 64.5 36.98C64.5111 37.2469 64.4636 37.513 64.3609 37.7596C64.2582 38.0062 64.1028 38.2273 63.9055 38.4074C63.7082 38.5875 63.4739 38.7223 63.219 38.8022C62.9641 38.8821 62.6948 38.9052 62.43 38.87L54.79 38.97C54.28 38.97 53.79 38.97 53.26 38.97C52.7931 38.974 52.3376 38.8258 51.9623 38.548C51.5871 38.2702 51.3125 37.8777 51.18 37.43C51.0103 36.815 50.8767 36.1906 50.78 35.56C50.7127 35.0319 50.6023 34.5101 50.45 34C49.8384 32.3804 49.5005 30.6704 49.45 28.94C49.39 28.04 49.28 27.14 49.27 26.23C49.27 24.77 49.97 24.13 51.42 24.11C53.72 24.11 56.02 23.95 58.33 23.89C59.33 23.89 60.4 23.89 61.43 23.89C61.6785 23.8795 61.9244 23.9433 62.1364 24.0734C62.3484 24.2034 62.5168 24.3937 62.62 24.62C62.6945 24.7401 62.8072 24.8316 62.94 24.88C63.2797 24.967 63.5817 25.1625 63.8001 25.4369C64.0185 25.7112 64.1414 26.0494 64.15 26.4C64.26 27.93 64.3 29.46 64.35 30.99C64.35 31.48 64.35 31.99 64.35 32.47L64.5 32.5Z" fill="black"/>
</svg>
