<svg width="80" height="80" viewBox="0 0 80 80" fill="none" xmlns="http://www.w3.org/2000/svg">
<path d="M75.69 57.79C75.4007 58.9294 75.0366 60.0485 74.6 61.14C73.0975 63.99 70.8062 66.3472 68 67.93C63.3665 70.7097 58.2618 72.6147 52.94 73.55C47.7155 74.5969 42.3828 75.0032 37.06 74.76C31.1124 74.6193 25.2373 73.4206 19.71 71.22C16.8418 70.1287 14.2476 68.422 12.11 66.22C11.1473 65.2691 10.3904 64.1303 9.88635 62.8745C9.38231 61.6187 9.14188 60.2726 9.18 58.92C9.35234 56.5531 10.3096 54.3114 11.9 52.55C13.3295 50.8897 15.0179 49.4714 16.9 48.35C17.13 48.21 17.35 48.06 17.6 47.89C17.18 46.78 16.78 45.69 16.37 44.61C15.0431 40.9121 14.1668 37.0677 13.76 33.16C13.6836 32.5694 13.6368 31.9753 13.62 31.38C13.5761 30.2896 13.8123 29.2061 14.3059 28.2328C14.7996 27.2595 15.5343 26.4288 16.44 25.82C19.0138 24.0789 21.934 22.9156 25 22.41C28.39 21.78 31.79 21.26 35.19 20.66C36.37 20.45 37.54 20.15 38.71 19.88C39.21 19.77 39.34 19.47 39.05 19.03C38.26 17.8 37.48 16.56 36.65 15.37C36.53 15.19 36.14 15.15 35.87 15.14C34.8198 15.183 33.7848 14.8779 32.9258 14.2721C32.0668 13.6663 31.432 12.7937 31.12 11.79C30.8666 11.1568 30.8364 10.4562 31.0346 9.80359C31.2327 9.15098 31.6473 8.58538 32.21 8.2C32.7428 7.79456 33.3617 7.51697 34.0188 7.38866C34.676 7.26036 35.3538 7.28476 36 7.46C36.2342 7.54351 36.4814 7.58416 36.73 7.58C38.47 7.36 40.23 9.23 40.54 10.66C40.683 11.4616 40.5453 12.2881 40.15 13C40.0887 13.1439 40.057 13.2986 40.057 13.455C40.057 13.6114 40.0887 13.7661 40.15 13.91C40.84 15.16 41.58 16.38 42.25 17.51L46 12.22L46.12 12.3C46.12 12.25 46.12 12.2 46.12 12.17C44.93 10.32 45.3 9.11 47.12 7.89C47.9158 7.37481 48.8284 7.06815 49.7739 6.99825C50.7193 6.92834 51.6671 7.09745 52.53 7.49C53.1524 7.7085 53.6921 8.11401 54.0752 8.65104C54.4583 9.18806 54.666 9.83036 54.67 10.49C54.6923 11.1014 54.5308 11.7055 54.2064 12.2242C53.882 12.7429 53.4095 13.1525 52.85 13.4C52.0021 13.9808 51.0151 14.326 49.99 14.4C49.8978 14.3917 49.8056 14.4165 49.73 14.47C47.9182 15.8419 46.6728 17.831 46.23 20.06L49.99 20.31C53.7914 20.6451 57.556 21.3144 61.24 22.31C64.91 23.24 67.16 25.75 68.58 29.13C69.4159 31.2132 69.8142 33.4462 69.75 35.69C69.75 37.54 69.75 39.4 69.64 41.24C69.5245 42.8561 69.3242 44.4649 69.04 46.06C68.951 46.3292 68.9627 46.6216 69.0731 46.8828C69.1834 47.144 69.3849 47.3562 69.64 47.48C71.8767 48.8077 73.6637 50.7759 74.77 53.13C75.1462 54.1534 75.4602 55.1986 75.71 56.26L75.69 57.79ZM40.76 71.26C43.42 71.02 46.09 70.87 48.76 70.52C54.1732 69.9115 59.4332 68.3365 64.29 65.87C66.8449 64.6725 69.0615 62.858 70.74 60.59C71.2356 59.9448 71.5911 59.2034 71.784 58.4131C71.9768 57.6228 72.0027 56.8009 71.86 56C71.4087 54.1166 70.2895 52.4608 68.71 51.34C66.6449 49.7396 64.3168 48.5112 61.83 47.71C60.83 47.37 59.83 47.14 59.44 45.99C59.44 45.93 59.35 45.89 59.29 45.86C58.9005 45.6164 58.5861 45.2698 58.3813 44.8586C58.1766 44.4474 58.0896 43.9876 58.13 43.53C58 41.75 58 40 57.85 38.19C57.74 36.57 57.58 34.96 57.44 33.35C57.44 32.97 57.28 32.69 56.79 32.62C56.6118 32.5944 56.4408 32.5323 56.2877 32.4377C56.1346 32.3431 56.0026 32.2179 55.9 32.07C55.7869 31.8494 55.6126 31.666 55.398 31.5419C55.1834 31.4178 54.9376 31.3581 54.69 31.37C54.21 31.31 53.74 31.23 53.26 31.18C49.68 30.8 46.09 30.48 42.51 30.04C37.8667 29.4619 33.1571 30.3021 29 32.45C28.251 32.7522 27.5994 33.2542 27.1162 33.9014C26.633 34.5486 26.3369 35.316 26.26 36.12C26.08 38.53 25.94 40.95 25.77 43.36C25.68 44.58 26.05 45.89 25.19 46.99C25.19 47.06 25.19 47.17 25.19 47.26C25.1326 47.6337 24.9735 47.9843 24.7301 48.2736C24.4867 48.5629 24.1684 48.7796 23.81 48.9C22.64 49.41 21.46 49.9 20.34 50.52C17.8217 51.7182 15.6425 53.5262 14 55.78C13.4853 56.4682 13.1288 57.2615 12.9559 58.1033C12.783 58.9451 12.7981 59.8147 13 60.65C13.5596 62.4234 14.7011 63.956 16.24 65C18.1139 66.4316 20.2078 67.5494 22.44 68.31C28.3321 70.3376 34.5293 71.3355 40.76 71.26Z" fill="black"/>
<path d="M41.37 61.49C38.8685 61.4639 36.454 60.5687 34.5402 58.9578C32.6264 57.3468 31.3324 55.1203 30.88 52.66C30.3233 50.4285 30.4672 48.0797 31.292 45.9328C32.1167 43.7858 33.5825 41.9449 35.49 40.66C36.5892 39.8817 37.8343 39.3335 39.1506 39.0483C40.4669 38.763 41.8272 38.7466 43.15 39C47.55 39.63 51.62 43.77 52.15 49C52.4289 51.492 51.8747 54.0062 50.5739 56.15C49.2732 58.2938 47.2991 59.9465 44.96 60.85C43.8062 61.1859 42.6343 61.4563 41.45 61.66L41.37 61.49ZM43.28 49.49H43.12C43.12 48.26 43.12 47.02 43.12 45.79C43.1504 45.4094 43.0284 45.0324 42.7809 44.7417C42.5334 44.4511 42.1805 44.2706 41.8 44.24C41.4299 44.2227 41.0672 44.3478 40.7863 44.5896C40.5055 44.8313 40.3279 45.1714 40.29 45.54C40.149 46.0711 40.052 46.6129 40 47.16C39.9 48.79 39.84 50.43 39.77 52.07C39.7351 52.6161 39.7351 53.1639 39.77 53.71C39.7781 53.9158 39.8289 54.1177 39.919 54.303C40.0091 54.4882 40.1367 54.6527 40.2936 54.7862C40.4506 54.9196 40.6335 55.0191 40.8308 55.0782C41.0281 55.1374 41.2355 55.155 41.44 55.13C41.717 55.1136 41.9875 55.0397 42.2344 54.9131C42.4813 54.7864 42.6991 54.6098 42.8741 54.3944C43.049 54.1791 43.1772 53.9296 43.2506 53.662C43.3239 53.3944 43.3407 53.1145 43.3 52.84C43.27 51.72 43.28 50.6 43.28 49.49Z" fill="black"/>
</svg>
