<svg width="80" height="80" viewBox="0 0 80 80" fill="none" xmlns="http://www.w3.org/2000/svg">
<path d="M41.52 31.73V30.08C41.52 25.38 41.52 20.67 41.52 15.97C41.5201 15.0304 41.46 14.0918 41.34 13.16C41.2257 12.2356 41.3093 11.2975 41.5851 10.4079C41.861 9.51831 42.3228 8.69752 42.94 7.99999C44.3673 6.30684 46.2316 5.03749 48.33 4.32999C54.6266 1.90835 61.6199 2.04111 67.82 4.69998C69.0067 5.23513 70.0847 5.9843 71 6.90999C71.8936 7.659 72.6485 8.55939 73.23 9.56998C73.2936 9.68536 73.3965 9.77407 73.52 9.81998C73.9629 9.96948 74.3395 10.2694 74.5843 10.6676C74.8291 11.0659 74.9266 11.5373 74.86 12C74.94 17.8533 75.01 23.7066 75.07 29.56C75.07 31.24 75.07 32.91 75.07 34.56C75.1316 35.2511 75.2284 35.9387 75.36 36.62C75.4481 36.9186 75.4652 37.2336 75.41 37.54C74.83 38.92 75.05 40.38 74.96 41.8C74.84 43.96 74.7 46.13 74.75 48.3C74.84 51.56 75.09 54.81 75.27 58.06C75.2898 58.2695 75.2898 58.4804 75.27 58.69C75.1818 59.0985 75.2322 59.5248 75.4133 59.9015C75.5944 60.2782 75.8958 60.5838 76.27 60.77C77.44 61.47 77.83 63.47 77.27 64.98C76.6404 66.7298 75.691 68.3473 74.47 69.75C70.9628 73.838 66.0262 76.4315 60.67 77C57.539 77.498 54.3416 77.3928 51.25 76.69C48.7669 76.0448 46.4311 74.9278 44.37 73.4C44.2232 73.306 44.0579 73.2449 43.8853 73.2207C43.7127 73.1965 43.5369 73.2099 43.37 73.26C40.85 74.12 38.37 75.26 35.83 75.9C31.3586 77.203 26.7274 77.8761 22.07 77.9C17.1347 77.7887 12.2626 76.7648 7.70002 74.88C6.05529 74.1891 4.66003 73.0136 3.70002 71.51C2.94342 70.3951 2.63443 69.0363 2.83457 67.7039C3.0347 66.3715 3.72928 65.1633 4.78002 64.32C6.77209 62.9193 8.99149 61.8739 11.34 61.23C12.47 60.83 13.64 60.54 14.92 60.16C14.78 59.16 14.61 58.16 14.48 57.16C13.71 51.27 12.79 45.41 12.88 39.45C12.88 38.59 12.88 37.72 12.99 36.87C13.0809 36.1661 13.3262 35.491 13.7082 34.8929C14.0902 34.2948 14.5996 33.7884 15.2 33.41C17.1703 32.0635 19.4021 31.147 21.75 30.72C27.2976 29.4265 33.0702 29.4437 38.61 30.77C39.56 31 40.5 31.38 41.52 31.73ZM57.37 17.73C60.4429 17.8206 63.4934 17.1797 66.27 15.86C67.288 15.3087 68.2099 14.5961 69 13.75C69.9 12.82 69.79 11.85 69.13 10.75C68.4019 9.69968 67.3473 8.91926 66.13 8.52998C63.5224 7.41185 60.7191 6.82115 57.882 6.79197C55.0449 6.7628 52.2301 7.29572 49.6 8.35998C48.3534 8.88558 47.2194 9.64607 46.26 10.6C46.0042 10.8121 45.7982 11.0779 45.6569 11.3787C45.5155 11.6794 45.4422 12.0077 45.4422 12.34C45.4422 12.6723 45.5155 13.0005 45.6569 13.3013C45.7982 13.602 46.0042 13.8679 46.26 14.08C46.9054 14.727 47.6394 15.2792 48.44 15.72C51.2108 17.097 54.277 17.7734 57.37 17.69V17.73ZM41 36.46C39.9066 35.5732 38.6119 34.9689 37.23 34.7C33.446 33.8764 29.5467 33.7241 25.71 34.25C23.309 34.4529 20.9628 35.0793 18.78 36.1C18.2388 36.399 17.7177 36.733 17.22 37.1V37.41C18.0202 37.8195 18.8413 38.1867 19.68 38.51C21.9518 39.1842 24.3103 39.5212 26.68 39.51C30.6817 39.7196 34.6847 39.121 38.45 37.75C39.324 37.3692 40.1754 36.9384 41 36.46ZM46.34 40.33C46.42 41.46 46.47 42.53 46.6 43.58C46.6 43.78 46.93 44.01 47.15 44.1C48.25 44.5 49.37 44.85 50.48 45.23C54.1629 46.5402 58.1033 46.9617 61.98 46.46C64.98 46.08 67.62 44.77 70.44 43.96C70.5157 43.9252 70.5817 43.8723 70.6323 43.8061C70.6829 43.7398 70.7164 43.6622 70.73 43.58C70.73 42.58 70.73 41.66 70.73 40.58C62.57 43.89 54.45 43.33 46.29 40.33H46.34ZM46 35.82C46.59 36.06 47.05 36.22 47.49 36.43C48.0631 36.7783 48.6654 37.076 49.29 37.32C50.41 37.63 51.58 37.8 52.73 38.04C58.6476 39.2523 64.7936 38.6458 70.36 36.3C70.56 36.21 70.83 35.99 70.84 35.81C70.9 34.99 70.84 34.16 70.84 33.25C66.8388 34.8849 62.5522 35.7075 58.23 35.67C53.85 35.51 49.95 33.67 45.94 32.34L46 35.82ZM45.69 28.14L50.2 29.71C54.1993 31.3064 58.5479 31.8236 62.81 31.21C65.3716 30.8237 67.8557 30.0339 70.17 28.87C70.44 28.72 70.84 28.45 70.86 28.22C70.94 27.3 70.86 26.38 70.86 25.47C70.7 25.47 70.67 25.47 70.65 25.47L70.16 25.7C66.9077 27.2719 63.384 28.2054 59.78 28.45C56.6159 28.4901 53.4732 27.9267 50.52 26.79C48.89 26.25 47.28 25.66 45.66 25.1L45.69 28.14ZM16.89 42C16.8 43.73 16.8 43.73 18.21 44.29C18.96 44.6 19.68 44.99 20.45 45.29C21.4734 45.6724 22.5318 45.9537 23.61 46.13C25.84 46.39 28.09 46.44 30.32 46.68C34.38 47.13 38.12 45.96 41.84 44.61C41.961 44.554 42.0662 44.469 42.1465 44.3626C42.2267 44.2562 42.2794 44.1317 42.3 44C42.3 42.94 42.18 41.88 42.1 40.71C38.2316 42.6422 33.974 43.6681 29.65 43.71C25.3235 44.0519 20.9738 43.469 16.89 42ZM46.7 48C46.7972 48.6313 46.958 49.2511 47.18 49.85C47.6098 50.5465 48.0841 51.2146 48.6 51.85C51.3364 52.6401 54.1553 53.11 57 53.25C60.94 53.25 64.84 53.14 68.56 51.63C71.16 50.57 70.56 51.32 70.56 48.56C70.56 48.51 70.56 48.46 70.49 48.28C66.77 49.9077 62.7693 50.7975 58.71 50.9C54.55 51 50.77 49.54 46.7 48.07V48ZM18.4 55L18.62 56.62C20.31 57.08 21.9 57.62 23.53 57.94C26.24 58.48 28.98 58.87 31.71 59.33C35.62 59.98 39.37 59.08 43.15 58.17L43.01 55.17L42.35 55.39C38.3973 56.8098 34.1846 57.359 30 57C26.15 56.49 22.33 55.73 18.4 55.09V55ZM45.32 19C45.47 19.6 45.43 20.3 45.76 20.56C46.4732 21.1156 47.2743 21.5482 48.13 21.84C49.88 22.44 51.67 22.92 53.45 23.44C55.4531 24.0382 57.5411 24.3017 59.63 24.22C61.6689 24.0598 63.6823 23.6638 65.63 23.04C67.5723 22.3672 69.3461 21.2824 70.83 19.86C70.9158 19.7962 70.976 19.7041 71 19.6C71 19.02 71 18.44 71 17.96C62.67 23.05 54.2 23 45.32 19ZM47.32 56.46L49.67 57.53C50.5161 57.986 51.4033 58.361 52.32 58.65C54.18 59.07 56.06 59.37 57.95 59.65C59.5701 59.9094 61.2094 60.0298 62.85 60.01C65.3436 59.8192 67.7499 59.0079 69.85 57.65C71.11 56.91 71.15 56.82 70.75 55.36L70.17 55.55C65.1214 57.4169 59.6813 57.9709 54.36 57.16C52.36 56.89 50.36 56.3 48.36 55.86C47.42 55.63 47.2 55.83 47.33 56.46H47.32ZM17.54 48.39C17.62 48.94 17.7 49.62 17.82 50.28C17.8377 50.362 17.874 50.4389 17.926 50.5048C17.978 50.5706 18.0443 50.6237 18.12 50.66C19.142 51.0504 20.1916 51.3646 21.26 51.6C23.81 52.02 26.38 52.34 28.94 52.67C33.1027 53.2133 37.3348 52.7784 41.3 51.4C43 50.82 43 50.76 42.64 49C42.64 49 42.58 48.92 42.52 48.83C34.15 52 25.83 51.44 17.54 48.39ZM19.09 60.79C19.45 61.68 19.53 62.79 20.09 63.09C21.1875 63.8853 22.4661 64.394 23.81 64.57C27.05 64.77 30.32 64.67 33.58 64.57C34.6411 64.4702 35.6916 64.2795 36.72 64C32.16 64 27.81 63.28 19.09 60.79ZM48.26 61.34C50.0453 63.1425 52.3559 64.3328 54.86 64.74C60.31 65.97 65.55 65.68 70.26 62.28C69.9603 62.3091 69.6686 62.3939 69.4 62.53C66.9173 63.7546 64.1656 64.3325 61.4 64.21C57 63.8 52.47 63.24 48.26 61.34Z" fill="black"/>
<path d="M63.74 8.92L62.84 9.1C61.07 9.43 59.31 9.78 57.53 10.1C55.53 10.42 53.53 10.63 51.53 11C51.2597 11.0277 50.999 11.116 50.7674 11.2583C50.5358 11.4005 50.3392 11.5931 50.1923 11.8218C50.0453 12.0504 49.9517 12.3092 49.9184 12.579C49.8851 12.8487 49.913 13.1225 50 13.38C50.0836 13.6495 50.2207 13.8994 50.403 14.1148C50.5853 14.3302 50.8091 14.5066 51.0611 14.6336C51.3132 14.7605 51.5882 14.8354 51.8698 14.8536C52.1513 14.8719 52.4337 14.8333 52.7 14.74C53.0221 14.6081 53.3574 14.5109 53.7 14.45C57.14 14.05 60.59 13.67 64.04 13.29C64.6097 13.2089 65.1292 12.9198 65.4984 12.4786C65.8677 12.0373 66.0606 11.475 66.04 10.9C65.994 10.3338 65.7269 9.8086 65.2964 9.43801C64.8659 9.06742 64.3068 8.88131 63.74 8.92Z" fill="white"/>
<path d="M63.74 8.91998C64.0238 8.89818 64.3091 8.93268 64.5796 9.02152C64.85 9.11036 65.1002 9.25177 65.3158 9.43763C65.5314 9.62349 65.7082 9.85013 65.8359 10.1045C65.9636 10.3589 66.0398 10.6361 66.06 10.92C66.0806 11.495 65.8876 12.0573 65.5184 12.4986C65.1491 12.9398 64.6296 13.2289 64.06 13.31C60.61 13.69 57.16 14.07 53.72 14.47C53.3773 14.5309 53.0421 14.6281 52.72 14.76C52.4512 14.8561 52.1656 14.8963 51.8807 14.8783C51.5959 14.8603 51.3176 14.7844 51.0631 14.6553C50.8085 14.5261 50.5829 14.3464 50.4002 14.1271C50.2174 13.9079 50.0812 13.6536 50 13.38C49.9133 13.1254 49.8843 12.8548 49.9153 12.5876C49.9463 12.3205 50.0364 12.0636 50.1791 11.8357C50.3218 11.6078 50.5135 11.4145 50.7403 11.2699C50.967 11.1254 51.2231 11.0332 51.49 11C53.49 10.63 55.49 10.42 57.49 10.1C59.27 9.80998 61.03 9.45998 62.8 9.09998L63.74 8.91998Z" fill="black"/>
</svg>
