<svg width="80" height="80" viewBox="0 0 80 80" fill="none" xmlns="http://www.w3.org/2000/svg">
<path d="M28 9.81H30.2C30.83 9.92 31.46 9.99 32.08 10.15C34.6653 10.8319 36.9892 12.2677 38.7558 14.2747C40.5224 16.2817 41.6517 18.769 42 21.42C42.17 22.49 42.19 23.6 42.27 24.68C44.3701 23.9232 46.4094 23.0072 48.37 21.94C51.5532 20.1072 54.2383 17.5217 56.19 14.41C56.522 13.814 56.8127 13.1959 57.06 12.56C57.41 11.69 57.74 10.82 58.06 9.88L58.3 10.09C58.84 10.73 59.3 11.41 59.93 12.02C61.32 13.47 62.76 14.87 64.15 16.33C66.01 18.26 67.91 20.15 69.65 22.19C71.1913 23.9164 72.8343 25.5493 74.57 27.08C74.6385 27.1293 74.7174 27.1621 74.8007 27.176C74.8839 27.1898 74.9692 27.1844 75.05 27.16C75.33 27.04 75.45 27.16 75.6 27.35C75.98 27.91 76.4 28.46 76.78 29.03C76.8708 29.1545 76.9166 29.3061 76.91 29.46C76.73 30.93 76.61 32.41 76.33 33.86C75.6663 37.6809 73.539 41.0925 70.4 43.37C70.3091 43.4183 70.2287 43.4841 70.1633 43.5636C70.098 43.6432 70.049 43.7348 70.0193 43.8334C69.9896 43.9319 69.9796 44.0354 69.99 44.1377C70.0004 44.2401 70.031 44.3395 70.08 44.43C70.5649 45.6124 70.7999 46.8824 70.77 48.16C70.5404 50.9173 69.8649 53.619 68.77 56.16C67.5 59.26 65.58 61.66 62.28 62.82C59.6 63.76 56.96 64.07 54.35 62.73C52.0404 61.5726 50.0852 59.8143 48.69 57.64C47.8549 56.5033 47.3154 55.1769 47.12 53.78C47.12 53.33 47.12 52.88 47.12 52.4C44.11 53.2641 41.2429 54.5646 38.61 56.26C34.81 58.9 31.09 61.64 27.38 64.4C25.8818 65.5555 24.6276 66.9966 23.69 68.64C23.5191 68.946 23.4264 69.2895 23.42 69.64C23.4398 69.9516 23.3509 70.2604 23.1686 70.5138C22.9863 70.7673 22.7217 70.9497 22.42 71.03C22.12 71.0911 21.8081 71.0444 21.5392 70.898C21.2702 70.7517 21.0616 70.5151 20.95 70.23C20.05 68.31 19.1533 66.39 18.26 64.47C17.68 63.2 17.18 61.87 16.53 60.64C14.7034 57.5022 12.4029 54.6654 9.71001 52.23C7.83052 50.5266 5.86459 48.9212 3.82001 47.42C3.33424 47.1014 2.9793 46.6187 2.82001 46.06V45.77C2.98507 45.1981 3.33718 44.6981 3.82001 44.35C5.33001 43 6.82001 41.59 8.34001 40.29C11.27 37.81 14.13 35.21 17.94 34.05C17.63 33.58 17.31 33.15 17.03 32.69C16.7373 32.2129 16.4735 31.7187 16.24 31.21C15.2514 29.0902 14.7702 26.7694 14.8344 24.4313C14.8987 22.0933 15.5066 19.8023 16.61 17.74C17.4829 15.9377 18.7271 14.3404 20.261 13.053C21.7948 11.7656 23.5837 10.8172 25.51 10.27C26.34 10.09 27.16 10 28 9.81ZM17.46 24.27C17.3887 26.3661 17.8028 28.4503 18.67 30.36C19.2476 31.6289 20.0747 32.7686 21.1019 33.7111C22.1292 34.6537 23.3357 35.3799 24.6495 35.8464C25.9633 36.313 27.3575 36.5104 28.7492 36.4268C30.1409 36.3432 31.5015 35.9804 32.75 35.36C34.3109 34.5459 35.6876 33.4193 36.7944 32.0502C37.9012 30.6812 38.7144 29.099 39.1834 27.4022C39.6524 25.7053 39.7672 23.9301 39.5206 22.187C39.274 20.4439 38.6713 18.7702 37.75 17.27C36.3707 15.0592 34.2047 13.4533 31.6884 12.776C29.1722 12.0987 26.4927 12.4003 24.19 13.62C22.2184 14.6312 20.5541 16.1526 19.3704 18.0258C18.1867 19.8989 17.527 22.0552 17.46 24.27ZM59.33 22.12C59.9 22.73 60.47 23.29 61 23.88C63.13 26.2 64.82 28.88 67.36 30.88C67.42 30.93 67.5 30.98 67.53 31.05C67.614 31.2324 67.6616 31.4294 67.67 31.63C67.4442 33.567 66.7808 35.4272 65.73 37.07C64.8362 38.654 63.4835 39.9301 61.85 40.73C60.3905 41.4422 58.8796 42.0438 57.33 42.53C54.81 43.26 52.23 43.8 49.68 44.44C45.8126 45.4648 42.012 46.7272 38.3 48.22C33.5918 50.073 29.2279 52.7028 25.39 56C24.85 56.46 24.39 57 23.84 57.46C22.47 55.15 21.34 52.73 19.76 50.58C18.1151 48.4644 16.2882 46.4968 14.3 44.7C14.4408 44.5792 14.5876 44.4657 14.74 44.36L21 40.62C21.1842 40.5366 21.3321 40.3895 21.4166 40.2058C21.5011 40.0221 21.5165 39.8141 21.46 39.62C21.4257 39.4282 21.3199 39.2565 21.164 39.1396C21.0082 39.0227 20.8138 38.9692 20.62 38.99C20.3197 39.0011 20.0258 39.0797 19.76 39.22C18.26 40.04 16.76 40.85 15.3 41.73C14.3854 42.2836 13.507 42.8948 12.67 43.56C12.533 43.6608 12.4173 43.7877 12.3295 43.9333C12.2417 44.079 12.1836 44.2406 12.1585 44.4088C12.1334 44.577 12.1418 44.7486 12.1833 44.9135C12.2247 45.0785 12.2984 45.2336 12.4 45.37C12.5302 45.6046 12.688 45.8228 12.87 46.02C13.47 46.65 14.06 47.27 14.69 47.86C16.6563 49.6886 18.3412 51.7981 19.69 54.12C20.6 55.65 21.39 57.26 22.26 58.82C22.387 59.071 22.5948 59.2718 22.85 59.39C23.2908 59.5456 23.7528 59.6333 24.22 59.65C24.4349 59.6746 24.6517 59.6244 24.8338 59.5079C25.016 59.3913 25.1524 59.2154 25.22 59.01C25.3122 58.7436 25.4625 58.5011 25.66 58.3C26.84 57.35 28 56.37 29.25 55.52C31.1038 54.2132 33.023 53.0016 35 51.89C38.4828 50.1837 42.0938 48.7526 45.8 47.61C48.5509 46.7461 51.3446 46.0251 54.17 45.45C56.942 44.8282 59.6428 43.9235 62.23 42.75C66.09 40.95 68.16 37.75 69.28 33.75C69.5136 32.9371 69.6874 32.1082 69.8 31.27C69.8216 31.1023 69.8097 30.932 69.765 30.769C69.7204 30.6059 69.6439 30.4533 69.54 30.32C69.02 29.72 68.39 29.22 67.83 28.66C67.27 28.1 66.73 27.59 66.23 27.02C64.8 25.35 63.41 23.64 61.96 22.02C61.3177 21.4064 60.7776 20.6941 60.36 19.91C60.3074 19.6997 60.1879 19.5122 60.0195 19.3757C59.8511 19.2392 59.6429 19.1612 59.4263 19.1533C59.2097 19.1454 58.9964 19.2081 58.8185 19.3319C58.6406 19.4558 58.5078 19.6341 58.44 19.84C58.235 20.2167 57.9974 20.5747 57.73 20.91C56.2829 22.4968 54.5957 23.8465 52.73 24.91C49.6497 26.573 46.4058 27.9135 43.05 28.91C42.6214 29.0376 42.2162 29.2334 41.85 29.49C41.6681 29.6257 41.5463 29.8271 41.5108 30.0513C41.4753 30.2755 41.5289 30.5047 41.66 30.69C41.7926 30.8711 41.9875 30.9968 42.2071 31.0429C42.4268 31.0891 42.6557 31.0524 42.85 30.94C43.2 30.79 43.56 30.66 43.92 30.54C45.99 29.84 48.1 29.24 50.12 28.42C52.7325 27.4238 55.1544 25.9863 57.28 24.17C58 23.48 58.61 22.81 59.33 22.12ZM67.69 45.12C67.59 45.12 67.49 45.19 67.39 45.24C65.1378 46.3701 62.7966 47.3133 60.39 48.06C60.3355 48.0685 60.2832 48.0877 60.2361 48.1164C60.189 48.1452 60.1481 48.1829 60.1156 48.2275C60.0831 48.2721 60.0597 48.3226 60.0467 48.3762C60.0337 48.4298 60.0315 48.4855 60.04 48.54C60.04 50.14 60.04 51.73 60.04 53.33C60.0424 53.4534 60.0768 53.574 60.14 53.68C60.3947 54.0473 60.5085 54.494 60.4608 54.9384C60.413 55.3828 60.2069 55.7952 59.88 56.1C59.6849 56.3046 59.4342 56.4477 59.1588 56.5116C58.8834 56.5756 58.5953 56.5576 58.33 56.46C58.0705 56.3669 57.8473 56.1936 57.6928 55.9653C57.5382 55.7371 57.4602 55.4655 57.47 55.19C57.47 54.94 57.47 54.68 57.47 54.43C57.54 52.74 57.61 51.05 57.69 49.36V48.87C57.6337 48.8613 57.5763 48.8613 57.52 48.87L50 51.31C49.8498 51.3858 49.7324 51.5138 49.67 51.67C49.4874 52.1971 49.4198 52.7571 49.4715 53.3125C49.5232 53.8678 49.6932 54.4057 49.97 54.89C51.1653 57.167 52.9869 59.0546 55.22 60.33C55.9336 60.753 56.7335 61.0093 57.56 61.08C59.2072 61.1734 60.8497 60.8283 62.32 60.08C63.4663 59.6061 64.4375 58.7886 65.1 57.74C66.7258 55.1083 67.7819 52.165 68.2 49.1C68.4329 47.7653 68.2551 46.3914 67.69 45.16V45.12Z" fill="black"/>
<path d="M26.94 23.65C27 21.83 27.05 20.01 27.12 18.19C27.1238 18.0474 27.1474 17.9061 27.19 17.77C27.2416 17.5098 27.3831 17.2761 27.5897 17.1097C27.7963 16.9433 28.0548 16.8549 28.32 16.86C28.5942 16.8591 28.8586 16.9615 29.0606 17.1468C29.2626 17.3321 29.3874 17.5868 29.41 17.86C29.4701 18.6251 29.4902 19.3928 29.47 20.16C29.47 22.62 29.47 25.07 29.47 27.53C29.47 27.88 29.56 28.23 29.56 28.53C29.5707 29.0233 29.5271 29.5163 29.43 30C29.3619 30.2398 29.2225 30.4532 29.0303 30.6119C28.8381 30.7707 28.6023 30.8673 28.3539 30.889C28.1056 30.9107 27.8566 30.8564 27.6398 30.7334C27.423 30.6103 27.2487 30.4243 27.14 30.2C26.9647 29.7775 26.8665 29.3271 26.85 28.87C26.85 27.13 26.85 25.39 26.85 23.65H26.94Z" fill="black"/>
</svg>
