<?xml version="1.0" encoding="utf-8"?>
<!-- Generator: Adobe Illustrator 24.3.0, SVG Export Plug-In . SVG Version: 6.00 Build 0)  -->
<svg version="1.1" id="Layer_1" xmlns="http://www.w3.org/2000/svg" xmlns:xlink="http://www.w3.org/1999/xlink" x="0px" y="0px"
	 viewBox="0 0 80 80" style="enable-background:new 0 0 80 80;" xml:space="preserve">
<path d="M28,9.8c8.3-0.8,14.7,6.9,14.3,14.9c7.1-2.4,13.8-7.3,15.8-14.8c5.5,5.7,10.8,12,16.7,17.3c0.3,0,0.6-0.2,0.8,0.2
	c1.9,1.8,1.1,4.2,0.7,6.5c-0.6,4.2-3.2,7.4-6.3,10c1.4,4.1,0.4,8.4-1.2,12.3c-1.9,5.6-8.9,9.2-14.4,6.6c-3.8-2-7.5-5.8-7.2-10.3
	c-7.6,2.1-13.5,7.6-19.7,12c-2,1.6-3.8,3.6-4.2,6.1c-2.4,2.5-3.8-4.7-4.9-6c-1.8-4.7-4.8-8.9-8.5-12.2c-1.9-1.7-3.8-3.3-5.9-4.8
	c-0.5-0.4-1-1-1-1.6c1.2-2.3,3.8-3.7,5.5-5.5c2.9-2.5,5.8-5.1,9.6-6.2C10.9,25.4,16.7,10.7,28,9.8z M17.5,24.3
	c-0.1,17.9,24,14.6,22.1-2.1C37.3,7.7,18,10.5,17.5,24.3z M59.3,22.1c2.9,2.8,5,6.3,8.2,8.9c0.4,5.9-4.9,10.3-10.2,11.5
	c-11.9,2.9-24.6,6-33.5,14.9c-2.5-4.8-5.4-9.2-9.5-12.8c-0.3,0,6.7-4,6.7-4.1c0.6-0.2,0.7-1.1,0.2-1.5c-0.4-0.3-1-0.1-1.4,0.1
	c-2.5,1.5-5.3,2.7-7.4,4.7c-0.7,1.6,1.5,2.8,2.4,3.9c3.8,3.1,5.4,7.8,8.2,11.5c0.7,0.2,2,0.6,2.4-0.4c2.5-3.1,6.4-5,9.8-7.1
	c6.1-3,12.6-5.1,19.2-6.4c6.6-1.4,13.6-4.4,15.1-11.7c0.8-2.5,0.7-3.4-1.4-5.1c-2.2-2.1-3.9-4.5-5.9-6.6c-1.9-1.7-2.1-4.9-4.2-1.1
	c-3.8,4.2-9.4,6.3-14.7,8c-0.6,0.2-1.4,0.5-1.5,1.1c-0.1,0.7,0.7,1.3,1.3,0.9c2.4-0.9,4.9-1.5,7.3-2.5
	C53.7,27.1,56.8,24.9,59.3,22.1z M67.7,45.1c-2.4,1.2-5.1,2.1-7.6,3.1c-0.2,1.7,0,3.4-0.1,5.1c0.1,0.5,0.6,1,0.4,1.6
	c-0.1,1.3-1.9,2.3-2.8,1c-0.6-2.2,0.1-4.8,0-7.1c-0.3-0.1-7.4,2.4-7.7,2.4c-0.9,0.9-0.6,2.6,0,3.6c2.9,6.1,10.6,8.8,15.1,2.8
	C67.2,54,69.3,49.3,67.7,45.1z"/>
<path d="M26.9,23.6c0.4-1.6-0.9-8.2,2.1-6.5c1.1,3.5,0,7.7,0.5,11.4c0.2,1.2-0.5,2.9-1.9,2.2C26,28.9,27.2,25.9,26.9,23.6L26.9,23.6
	z"/>
</svg>
