<?xml version="1.0" encoding="utf-8"?>
<!-- Generator: Adobe Illustrator 24.3.0, SVG Export Plug-In . SVG Version: 6.00 Build 0)  -->
<svg version="1.1" id="Layer_1" xmlns="http://www.w3.org/2000/svg" xmlns:xlink="http://www.w3.org/1999/xlink" x="0px" y="0px"
	 viewBox="0 0 80 80" style="enable-background:new 0 0 80 80;" xml:space="preserve">
<path d="M77.3,50.9c-0.3-3-2.2-2.3-4.4-2.1c-0.1-5.5-1.9-11.3-6.4-14.4c-0.7-0.5-1.2-1.2-1.3-2.1c-1.8-7.2-3.1-11-6.5-1.5l-4.3-2.9
	c-0.6-0.6-1.9-0.9-2-1.8C53,16.9,46.8,7.9,37.6,7C27.4,6.5,20.3,17.1,22.9,28c0.1,0.6,0.1,0.9-0.4,1.2c-4.7,2.9-7.7,7.7-9.5,12.8
	c-0.9-0.6-2.3-0.8-2.8-1.8c-0.6-1.8-1.1-5.2-3.5-5.2c-0.9,0.2-1.2,1.3-1,2.1c0.5,1.3,1.9,2.1,1.9,3.6c-3.7,0.7-5.5,8-0.7,7.9
	c2.3-0.5,3.5-2.7,3.7-4.9c0.8,0.2,0.7,1,1,1.5c0.6,0.5,0.2,1.2,0.2,1.8c-1,5.8,0.5,11.9,4.2,16.5c1,2.5-0.6,5.6,0.2,8.1
	C19,75,24.3,74.9,28.1,74c1.8-1.4,2.2-4.2,3.4-6c6,0.3,12.3,0.1,18.3-1.6c-0.3,1.3,0.8,2.4,1.3,3.6c0,2.1,1.7,3.7,3.7,4.2
	c2.6,0.6,5.8,0.3,7.7-1.6c1.4-1.7,1.3-4.1,2.2-6.1c3.4,1.5,8.2,1.2,10.7-1.9c2-2.7,1-6.6,1.7-9.8C77.1,53.5,77.4,52.2,77.3,50.9z
	 M7.4,44.9c-0.2,0.3-0.5,0.5-0.8,0.7c0.1-0.7,0.5-1.3,1.1-1.6C7.7,44.3,7.6,44.6,7.4,44.9z M36.7,19.2c0.6,3.6,0.8,7.4,1.6,11
	c0.3,0.6,0.3,1.3,0,1.8c-0.2,0.6-0.9,1-1.5,0.8c-1.9-0.7-1.2-3.8-1.7-5.5c0.2-2-2.2-9.5,0.3-9.7v0C36.1,17.7,36.6,18.2,36.7,19.2z
	 M74.4,53.8c-4.6-0.2-5.4,7.6-0.7,8.1c-2,3.2-7,2.9-9.7,0.7c-1.6-1-1.9,0.2-2.4,1.6c-1.1,0.7-0.7,2.3-1.7,3.1
	c-1.9,1-4.6,0.8-6.6,0.2c-1.3-1.2-1-4.9-3.5-4.2c-5.6,1.6-11.4,2-17.1,1.6c-1.5,0.1-3.8-1.1-4.5,0.8c-0.6,2.1-2.6,3.8-4.9,3
	c-3.2-1-4.7-1.1-4.3-5c0-0.7-0.2-1.3-0.7-1.8c-1.5-1.8-2.7-3.8-3.4-6c-2.5-8.7,1.4-19.3,9.1-24.2l2.5,4c-1.7,0.3-3.9,2.2-1.7,3.5
	c4.9-1.5,10.3-2.2,15.5-2.8c4.1-0.5,8.2-0.7,12.3-0.4c1.1,0.1,2-1,1.6-2.1c-0.3-1.4-2.5-1-3.4-1.2l1-2.9c2.3,1.5,4.3,2.9,6.3,4.6
	c2.7,2.2,2.9-2.6,3.6-4.2h0.2c0.8,2.1,0.6,4.8,2.5,6.3c3.3,2.2,5.4,5.9,5.7,9.9c0.3,4.2-0.7,6.3,4.6,5.4L74.4,53.8z"/>
<path d="M59.3,49.9c-1.2-0.8-1.2-3.3,0.6-2.9c2.3,1.9,4.6,1.6,6.6-0.5c0.8-0.3,1.7,0.3,1.7,1.1c0.1,0.8-0.4,1.6-0.9,2.1
	c-0.6,0.6,0.4,1,0.6,1.5c0.7,0.9-0.1,2.9-1.4,2.3c-0.8-0.7-1.2-1.6-1.9-2.6c0,0-0.4,0-0.4,0c0.5,1,1.1,2.3,0,3.1
	c-1.5,0.8-2.4-1.9-2.7-3c-0.5,0.9-1.3,3.4-2.6,2.5C57.6,52.5,58.7,51,59.3,49.9z"/>
</svg>
