<svg width="80" height="80" viewBox="0 0 80 80" fill="none" xmlns="http://www.w3.org/2000/svg">
<path d="M77.32 51.75C77.22 52.75 77.11 53.75 77.03 54.75C76.82 57.25 76.64 59.75 76.43 62.25C76.3519 63.1167 75.9817 63.9312 75.38 64.56C74.7249 65.3498 73.9129 65.995 72.9954 66.4546C72.0779 66.9142 71.0749 67.1783 70.05 67.23C68.8723 67.2835 67.6922 67.2467 66.52 67.12C65.8752 66.9776 65.2504 66.7559 64.66 66.46C64.25 67.8 63.74 69.12 63.46 70.46C63.3238 71.2422 62.9702 71.9702 62.4397 72.5608C61.9092 73.1515 61.2231 73.5809 60.46 73.8C58.6229 74.5232 56.6061 74.656 54.69 74.18C53.5198 73.884 52.4711 73.2303 51.69 72.31C51.4558 72.0757 51.2788 71.7904 51.173 71.4765C51.0672 71.1625 51.0354 70.8283 51.08 70.5C51.0855 70.3306 51.0402 70.1635 50.95 70.02C50.65 69.42 50.35 68.82 50.01 68.25C49.8359 67.9918 49.7175 67.7002 49.6624 67.3937C49.6073 67.0872 49.6167 66.7726 49.69 66.47C49.3 66.55 48.97 66.61 48.64 66.69C43.5537 67.9784 38.2911 68.4276 33.06 68.02C32.51 68.02 31.86 67.72 31.44 68.02C31.02 68.32 30.98 69.02 30.73 69.58C30.19 70.69 29.66 71.81 29.07 72.89C28.8568 73.3508 28.5104 73.7372 28.0755 73.9992C27.6406 74.2613 27.1371 74.3869 26.63 74.36C25.11 74.36 23.63 74.48 22.06 74.43C20.4843 74.4168 18.9512 73.9174 17.67 73C17.5511 72.9006 17.42 72.8166 17.28 72.75C16.8168 72.5491 16.4367 72.195 16.2036 71.7471C15.9706 71.2991 15.8987 70.7847 16 70.29C16.12 68.4 16.21 66.51 16.33 64.62C16.3408 64.2566 16.22 63.9015 15.99 63.62C13.6754 60.6343 12.1641 57.1055 11.6 53.37C11.4213 51.2727 11.4884 49.1617 11.8 47.08C11.8063 46.8877 11.8331 46.6966 11.88 46.51C11.9777 46.2966 12.0031 46.0573 11.9526 45.8281C11.9021 45.599 11.7783 45.3925 11.6 45.24C11.4644 45.1104 11.3793 44.9367 11.36 44.75C11.3428 44.5207 11.256 44.3021 11.1113 44.1234C10.9666 43.9447 10.7707 43.8145 10.55 43.75C10.48 44.13 10.42 44.51 10.34 44.88C10.1919 45.7787 9.78321 46.6141 9.16456 47.2825C8.5459 47.9509 7.74457 48.423 6.86003 48.64C5.00003 48.89 3.60003 47.12 4.00003 45C4.11405 44.0986 4.46591 43.2437 5.01948 42.5232C5.57305 41.8027 6.3084 41.2424 7.15003 40.9L7.59003 40.73C7.50901 39.7842 7.0943 38.8981 6.42003 38.23C6.05602 37.9552 5.80108 37.5604 5.7004 37.1156C5.59972 36.6708 5.65982 36.2047 5.87003 35.8C5.93905 35.608 6.05474 35.4362 6.20669 35.3001C6.35864 35.1639 6.54206 35.0677 6.74045 35.0201C6.93883 34.9725 7.14595 34.975 7.34313 35.0273C7.54032 35.0797 7.72139 35.1803 7.87003 35.32C8.65139 36.0575 9.2358 36.9788 9.57003 38C9.84003 38.72 10.01 39.49 10.24 40.24C10.2789 40.4045 10.3701 40.5519 10.5 40.66C11.32 41.11 12.15 41.53 13.04 42C13.04 41.94 13.14 41.76 13.21 41.57C13.9418 39.5052 14.8975 37.5267 16.06 35.67C17.7261 33.0818 19.9292 30.8821 22.52 29.22C23.01 28.9 23.08 28.61 22.94 28C20.6 18.21 26.14 8.49 34.77 7.16L36.05 7H37.65C37.7571 7.04245 37.8674 7.0759 37.98 7.1C39.9516 7.2905 41.8603 7.8972 43.58 8.88C49.34 12.13 52.82 19.16 52.37 26.15C52.3731 26.259 52.3977 26.3664 52.4423 26.4659C52.4869 26.5654 52.5507 26.6551 52.63 26.73C53.2 27.16 53.8 27.55 54.39 27.94L58.68 30.82C58.68 30.69 58.78 30.56 58.83 30.45C59.45 29 60 27.56 60.7 26.19C60.7877 25.9212 60.9564 25.6861 61.1829 25.517C61.4094 25.3479 61.6827 25.253 61.9653 25.2453C62.2479 25.2376 62.526 25.3176 62.7614 25.4742C62.9968 25.6308 63.1779 25.8564 63.28 26.12C63.4268 26.3619 63.5443 26.6204 63.63 26.89C64.16 28.71 64.73 30.53 65.2 32.37C65.3657 33.198 65.8414 33.9313 66.53 34.42C70.14 36.96 71.94 40.88 72.63 45.58C72.78 46.64 72.8 47.72 72.88 48.81C73.57 48.74 74.24 48.66 74.88 48.6C76.42 48.46 76.88 48.92 77.22 50.66L77.28 50.93L77.32 51.75ZM50.81 32.67L52.96 32.83C53.2509 32.8429 53.5305 32.9462 53.7599 33.1254C53.9893 33.3046 54.1571 33.5509 54.24 33.83C54.3336 34.0723 54.3635 34.3346 54.327 34.5917C54.2904 34.8489 54.1885 35.0924 54.031 35.299C53.8736 35.5056 53.6658 35.6684 53.4275 35.7718C53.1893 35.8753 52.9285 35.916 52.67 35.89C48.5788 35.6363 44.4725 35.7836 40.41 36.33C36.84 36.75 33.28 37.33 29.72 37.93C28.358 38.0413 27.0336 38.4328 25.83 39.08C25.6887 39.1583 25.5328 39.2068 25.372 39.2225C25.2111 39.2381 25.0488 39.2205 24.895 39.1708C24.7413 39.1211 24.5994 39.0404 24.4781 38.9336C24.3568 38.8268 24.2588 38.6962 24.19 38.55C24.0325 38.2467 23.9776 37.9005 24.0335 37.5634C24.0894 37.2262 24.2531 36.9162 24.5 36.68C24.7263 36.4658 24.9909 36.2962 25.28 36.18C25.71 35.98 26.15 35.84 26.56 35.69L24.08 31.69C22.0653 32.959 20.2996 34.5858 18.87 36.49C16.2745 40.2103 14.6925 44.5425 14.28 49.06C14.0465 51.3685 14.288 53.7004 14.9897 55.9121C15.6913 58.1237 16.8383 60.1684 18.36 61.92C18.7917 62.4204 19.0294 63.0591 19.03 63.72C19.03 64.4 19.03 65.08 19.03 65.72C18.9844 66.0886 19.0566 66.4622 19.2362 66.7874C19.4158 67.1125 19.6937 67.3724 20.03 67.53C21.0871 68.012 22.1805 68.4099 23.3 68.72C24.1681 69.0133 25.116 68.9595 25.9454 68.57C26.7747 68.1805 27.4214 67.4853 27.75 66.63C27.89 66.33 28.02 66.02 28.16 65.71C28.2701 65.3819 28.4835 65.0983 28.7684 64.9017C29.0533 64.7052 29.3942 64.6064 29.74 64.62C30.74 64.68 31.69 64.87 32.67 64.89C35.18 64.96 37.67 65.1 40.21 64.97C43.4409 64.7059 46.6409 64.1469 49.77 63.3C50.92 63.02 51.46 63.36 51.95 64.6C52.27 65.39 52.57 66.18 52.9 66.96C52.9798 67.1661 53.1158 67.3457 53.2926 67.4783C53.4694 67.6109 53.6798 67.6912 53.9 67.71C55.5956 67.9848 57.3244 67.9848 59.02 67.71C59.3508 67.6443 59.6583 67.4922 59.9112 67.2691C60.1641 67.046 60.3535 66.76 60.46 66.44C60.6005 66.1165 60.7143 65.7821 60.8 65.44C60.8942 64.9273 61.1848 64.4716 61.61 64.17C61.715 64.0856 61.7831 63.9637 61.8 63.83C61.98 62.38 62.97 61.83 64.04 62.59C64.9072 63.2681 65.9075 63.7557 66.9758 64.0211C68.0441 64.2864 69.1564 64.3235 70.24 64.13C71.476 63.9635 72.6132 63.3648 73.45 62.44C73.57 62.29 73.66 62.1 73.79 61.9C71.45 61.48 70.66 60.02 70.59 57.9C70.5408 56.9985 70.8059 56.1079 71.34 55.38C71.6781 54.8718 72.1402 54.4581 72.6826 54.1781C73.225 53.8982 73.8299 53.7611 74.44 53.78L74.6 51.72C74.3879 51.7517 74.1743 51.7717 73.96 51.78C73.1991 51.8549 72.4338 51.875 71.67 51.84C70.67 51.75 70.3 51.16 70.23 50.05C70.16 48.94 70.14 47.54 70.03 46.29C69.8078 43.4789 68.7254 40.8044 66.93 38.63C66.1538 37.8123 65.2998 37.0721 64.38 36.42C63.6158 35.8311 63.0902 34.9859 62.9 34.04C62.74 33.29 62.53 32.55 62.34 31.81C62.2 31.26 62.05 30.7 61.9 30.14H61.73C61.44 31.14 61.11 32.21 60.88 33.27C60.52 34.94 59.35 35.4 58.17 34.36C57.17 33.51 56.17 32.73 55.17 31.98C54.17 31.23 52.97 30.48 51.86 29.73L50.81 32.67ZM47.94 32.67C47.9902 32.3863 48.057 32.1058 48.14 31.83C48.2336 31.5666 48.3438 31.3094 48.47 31.06C49.8504 27.9104 50.1287 24.3873 49.26 21.06C47.58 14.11 41.76 9.47 35.55 10.21C31.14 10.74 27.88 13.34 26.08 18.07C25.0279 20.8702 24.7955 23.9123 25.41 26.8399C26.0246 29.7674 27.4607 32.4592 29.55 34.6C29.635 34.6722 29.7338 34.7262 29.8404 34.7589C29.947 34.7916 30.0592 34.8021 30.17 34.79C31.41 34.61 32.64 34.34 33.88 34.18C37.17 33.74 40.46 33.32 43.75 32.95C45.14 32.79 46.54 32.77 47.94 32.68V32.67ZM7.78003 43.94C7.47458 44.0972 7.2126 44.3272 7.01724 44.6098C6.82189 44.8924 6.6992 45.2187 6.66003 45.56C6.97062 45.4096 7.23699 45.1813 7.43325 44.8974C7.62951 44.6135 7.74898 44.2837 7.78003 43.94Z" fill="black"/>
<path d="M47.94 32.68C46.54 32.77 45.14 32.79 43.75 32.95C40.46 33.32 37.17 33.74 33.88 34.18C32.64 34.34 31.41 34.61 30.17 34.79C30.0592 34.8021 29.947 34.7916 29.8404 34.7589C29.7338 34.7262 29.635 34.6721 29.55 34.6C27.4568 32.4574 26.0185 29.7621 25.4038 26.8305C24.7892 23.899 25.0237 20.8529 26.08 18.05C27.88 13.32 31.14 10.72 35.55 10.19C41.76 9.44999 47.55 14.09 49.26 21.04C50.1287 24.3673 49.8504 27.8903 48.47 31.04C48.3438 31.2894 48.2336 31.5466 48.14 31.81C48.0558 32.0957 47.989 32.3862 47.94 32.68ZM35.49 17.68C35.2163 17.6907 34.9548 17.7964 34.7505 17.9789C34.5461 18.1613 34.4116 18.4092 34.37 18.68C34.295 19.0348 34.2747 19.399 34.31 19.76C34.58 22.29 34.86 24.82 35.17 27.34C35.34 28.73 35.53 30.13 35.76 31.51C35.7674 31.8201 35.8821 32.118 36.0845 32.3529C36.287 32.5879 36.5647 32.7453 36.8703 32.7984C37.1758 32.8515 37.4904 32.7969 37.7602 32.644C38.0301 32.4912 38.2385 32.2494 38.35 31.96C38.5023 31.6827 38.5822 31.3714 38.5822 31.055C38.5822 30.7386 38.5023 30.4273 38.35 30.15C38.2257 29.8787 38.135 29.5933 38.08 29.3C37.79 27.2 37.51 25.1 37.22 23.01C37.05 21.73 36.88 20.45 36.7 19.18C36.61 18.24 36.14 17.69 35.49 17.69V17.68Z" fill="black"/>
<path d="M59.34 49.88C59.14 49.66 58.97 49.49 58.83 49.31C58.6023 49.0533 58.4669 48.728 58.4451 48.3856C58.4234 48.0432 58.5166 47.7034 58.71 47.42C58.7861 47.281 58.8941 47.1621 59.0252 47.0731C59.1563 46.9841 59.3066 46.9275 59.4638 46.908C59.621 46.8884 59.7807 46.9065 59.9295 46.9608C60.0784 47.015 60.2122 47.1039 60.32 47.22C60.9353 47.7535 61.6945 48.0932 62.5023 48.1964C63.3101 48.2996 64.1304 48.1617 64.86 47.8C65.249 47.6026 65.5902 47.3228 65.86 46.98C66.0165 46.7518 66.2403 46.5781 66.5002 46.4831C66.7601 46.3881 67.0432 46.3765 67.31 46.45C67.564 46.5288 67.7872 46.6848 67.9485 46.8963C68.1098 47.1077 68.2012 47.3642 68.21 47.63C68.2326 48.0214 68.1606 48.4124 68 48.77C67.8133 49.1412 67.5666 49.4791 67.27 49.77C66.99 50.05 67.05 50.24 67.27 50.48C67.5028 50.7331 67.7199 51.0003 67.92 51.28C68.109 51.5979 68.1925 51.9676 68.1584 52.3359C68.1242 52.7042 67.9743 53.0522 67.73 53.33C67.6327 53.4457 67.5104 53.5379 67.3723 53.5995C67.2342 53.6611 67.084 53.6906 66.9329 53.6858C66.7817 53.681 66.6337 53.642 66.4998 53.5717C66.366 53.5014 66.2498 53.4017 66.16 53.28C65.65 52.58 65.16 51.84 64.64 51.02L64.21 51.07C64.37 51.42 64.5 51.72 64.63 52.02C64.8338 52.3621 64.9026 52.768 64.8231 53.1582C64.7436 53.5484 64.5214 53.8949 64.2 54.13C63.55 54.52 62.87 54.19 62.46 53.33C62.28 52.95 62.01 52.62 61.84 52.23C61.6964 51.8579 61.5762 51.4771 61.48 51.09C61.22 51.61 60.94 52.17 60.67 52.73C60.21 53.73 59.53 54.04 58.9 53.63C58.5748 53.3509 58.3599 52.9648 58.2939 52.5414C58.2279 52.118 58.3152 51.6849 58.54 51.32C58.81 50.85 59.07 50.39 59.34 49.88Z" fill="black"/>
</svg>
