<?xml version="1.0" encoding="utf-8"?>
<!-- Generator: Adobe Illustrator 24.3.0, SVG Export Plug-In . SVG Version: 6.00 Build 0)  -->
<svg version="1.1" id="Layer_1" xmlns="http://www.w3.org/2000/svg" xmlns:xlink="http://www.w3.org/1999/xlink" x="0px" y="0px"
	 viewBox="0 0 80 80" style="enable-background:new 0 0 80 80;" xml:space="preserve">
<path d="M75.7,57.8c-4.7,18.6-41.5,20-56,13.4C7.1,66.4,5.4,54.7,17.6,47.9c-9.9-25.6-0.5-23.6,21.1-28c1.5-0.3-1.8-3.6-2.1-4.5
	c-0.1-0.2-0.5-0.2-0.8-0.2c-2.7,0.2-5.5-2.6-4.8-5.3c1.3-3.9,8.8-3,9.5,0.9c0.3,1-0.3,1.9-0.5,2.8c0.4,1.5,1.6,2.8,2.2,4.1l3.8-5.3
	l0.1,0.1c-2.6-3.9,3.4-6.5,6.4-4.8c2.6,0.8,2.9,4.9,0.3,5.9c-0.9,0.7-2,0.9-3.1,1.1c-1.8,1.4-3.1,3.4-3.5,5.6
	c15.9,1,25.2,2.5,23.4,21.2c-0.1,1.6-0.3,3.2-0.6,4.8c-0.2,0.5,0.1,1.2,0.6,1.4C73.2,49.6,75.9,53.6,75.7,57.8z M40.8,71.3
	c8.1-0.5,16.3-1.5,23.5-5.4c5.9-2.6,11.2-9.6,4.4-14.5c-2.1-1.6-4.4-2.8-6.9-3.6c-1-0.3-2-0.6-2.4-1.7c-0.4-0.3-0.8-0.6-1.1-1.1
	c-0.7-3.7-0.4-7.7-0.9-11.5c0.1-0.7-0.7-0.7-1.2-0.9c-0.4-0.2-0.5-0.7-0.9-0.9c-0.7-0.3-1.4-0.2-2.1-0.4c-8.6-0.7-18.9-3.6-26.1,2.7
	c-1.6,2.8-0.8,6.4-1.3,9.5c-0.1,1.2,0.3,2.5-0.6,3.6c0,0.8-0.6,1.7-1.4,1.9C-3,61.1,25.2,72.2,40.8,71.3z"/>
<path d="M41.4,61.5C26,60.9,27.8,36.9,43.2,39c12.6,2.5,11.8,21.6-1.7,22.7L41.4,61.5z M43.3,49.5h-0.2c-0.2-1.5,0.4-3.4-0.3-4.7
	c-0.8-1-2.4-0.4-2.5,0.8c-0.2,1.8-1.5,9.2,0.5,9.5C44.1,55.6,43.2,51.5,43.3,49.5z"/>
</svg>
