<svg width="80" height="80" viewBox="0 0 80 80" fill="none" xmlns="http://www.w3.org/2000/svg">
<path d="M59.39 65.18C58.8869 65.0759 58.3896 64.9458 57.9 64.79C56.9821 64.4304 56.1607 63.8618 55.5011 63.1292C54.8414 62.3967 54.3617 61.5204 54.1 60.57C53.724 59.4389 53.6186 58.2353 53.7923 57.056C53.9659 55.8768 54.4138 54.7547 55.1 53.78C55.947 52.4501 57.0563 51.3068 58.36 50.42C59.4314 49.69 60.7038 49.3125 62 49.34C62.1268 49.3614 62.257 49.3342 62.3645 49.2637C62.472 49.1933 62.549 49.0848 62.58 48.96C63.185 47.4386 64.2225 46.1277 65.5643 45.1894C66.906 44.251 68.4933 43.7263 70.13 43.68C72.0199 43.6752 73.8463 44.362 75.2647 45.611C76.6831 46.8599 77.5956 48.5847 77.83 50.46C78.1448 52.6523 77.5883 54.8807 76.2799 56.6677C74.9714 58.4547 73.015 59.6581 70.83 60.02C70.0228 60.115 69.2072 60.115 68.4 60.02C68.2607 59.9827 68.1126 59.9977 67.9836 60.0622C67.8546 60.1267 67.7537 60.2362 67.7 60.37C66.9937 61.7787 65.966 63.0017 64.7 63.94C63.8179 64.5844 62.7847 64.9908 61.7 65.12C61.6269 65.1378 61.5564 65.1647 61.49 65.2L59.39 65.18ZM60.39 62.65C61.4721 62.75 62.55 62.4194 63.39 61.73C64.9693 60.4514 65.988 58.6076 66.23 56.59C66.3099 56.0694 66.2605 55.5371 66.0861 55.04C65.9117 54.543 65.6177 54.0965 65.23 53.74C64.4539 52.9967 63.5447 52.4064 62.55 52C62.3154 51.8545 62.0532 51.7592 61.78 51.72C61.0516 51.6995 60.3407 51.9448 59.78 52.41C58.9169 53.1595 58.1206 53.9826 57.4 54.87C56.935 55.4169 56.5912 56.0562 56.3912 56.7457C56.1913 57.4351 56.1397 58.1592 56.24 58.87C56.65 61.1 58 62.81 60.41 62.65H60.39ZM68.81 57.54C69.7856 57.6914 70.7839 57.5793 71.7017 57.2154C72.6194 56.8514 73.4233 56.2489 74.03 55.47C74.9093 54.4296 75.4008 53.1167 75.4208 51.7547C75.4409 50.3927 74.9883 49.0658 74.14 48C73.5979 47.3902 72.9233 46.9128 72.1679 46.6044C71.4126 46.2959 70.5966 46.1647 69.7826 46.2207C68.9686 46.2767 68.1783 46.5184 67.4723 46.9274C66.7664 47.3364 66.1635 47.9017 65.71 48.58C65.4006 49.0353 65.1201 49.5096 64.87 50C65.87 50.89 66.71 51.64 67.53 52.46C68.3153 53.2676 68.7777 54.3348 68.83 55.46C68.86 56.19 68.83 56.83 68.83 57.54H68.81Z" fill="black"/>
<path d="M60.23 40C60.31 40.83 60.44 41.58 60.44 42.33C60.4766 43.2687 60.4331 44.2087 60.31 45.14C60.296 45.4181 60.227 45.6907 60.1071 45.942C59.9872 46.1933 59.8188 46.4184 59.6115 46.6044C59.4042 46.7903 59.1621 46.9333 58.8993 47.0253C58.6364 47.1172 58.358 47.1562 58.08 47.14C56.75 47.14 55.41 47.14 54.08 47.09H52.4C52.4 48.19 52.4 49.3 52.4 50.41C52.3924 50.7459 52.3556 51.0805 52.29 51.41C52.2498 51.8166 52.0574 52.1929 51.7514 52.4637C51.4454 52.7344 51.0484 52.8796 50.64 52.87C49.23 52.94 47.82 52.99 46.4 53.05C43.5 53.16 40.59 53.32 37.69 53.37C35.35 53.37 33 53.37 30.69 53.29C27.35 53.18 24 52.98 20.69 52.88C18.08 52.79 15.47 52.74 12.86 52.77C10.98 52.77 9.1 53 7.21 53.07C6.5216 53.0866 5.83361 53.0229 5.16 52.88C4.67773 52.8294 4.23461 52.5915 3.92602 52.2174C3.61742 51.8434 3.46803 51.3631 3.51 50.88C3.51 49.46 3.64 48.03 3.71 46.6C3.8 45.02 3.93 43.43 3.98 41.85C4 38.56 4 35.3 4.1 32.05C4.1 31.75 4.1 31.45 4.1 31.16C4.1 30.6296 4.31071 30.1209 4.68578 29.7458C5.06086 29.3707 5.56956 29.16 6.1 29.16C7.36 29.06 8.62 29.04 9.87 28.97C10.73 28.97 11.59 28.85 12.45 28.8H13.1C13.19 27.98 13.28 27.13 13.37 26.27C13.4479 25.1772 13.5814 24.0892 13.77 23.01C13.8001 22.7641 13.88 22.5269 14.005 22.313C14.13 22.0991 14.2973 21.913 14.4967 21.766C14.6961 21.619 14.9234 21.5143 15.1647 21.4582C15.406 21.4022 15.6562 21.396 15.9 21.44C16.508 21.4957 17.1123 21.5858 17.71 21.71C18.42 21.84 19.12 22.01 19.84 22.17C19.91 21.1 19.97 20.09 20.08 19.07C20.0953 18.666 20.216 18.273 20.43 17.93C20.5382 17.7851 20.6784 17.6673 20.8398 17.5858C21.0011 17.5042 21.1792 17.4612 21.36 17.46C22.0282 17.5082 22.6999 17.4746 23.36 17.36C26.08 17.24 28.79 17.09 31.51 17.05C34.23 17.01 36.82 17.1 39.51 17.13H39.79C39.8974 16.5202 40.0478 15.9187 40.24 15.33C41.1113 13.1512 42.6566 11.3081 44.65 10.07C45.9708 9.24426 47.5336 8.89335 49.0807 9.07514C50.6277 9.25693 52.0666 9.96057 53.16 11.07C54.1649 12.1305 54.8089 13.4815 55 14.93C55.14 15.69 55.26 16.45 55.4 17.24L58.29 17.35C59.77 17.41 61.29 17.48 62.72 17.52C63.1428 17.5501 63.5672 17.5501 63.99 17.52C64.1727 17.4908 64.3596 17.502 64.5376 17.5526C64.7156 17.6032 64.8803 17.6922 65.0204 17.8131C65.1604 17.9341 65.2723 18.0842 65.3482 18.2529C65.4242 18.4217 65.4623 18.605 65.46 18.79C65.46 22.44 65.46 26.08 65.46 29.72C65.46 32 65.43 34.28 65.37 36.56C65.3446 37.2671 65.2745 37.9718 65.16 38.67C65.0243 39.1221 64.733 39.5117 64.3377 39.7698C63.9424 40.0278 63.4685 40.1377 63 40.08C62.8076 40.0232 62.6099 39.9864 62.41 39.97L60.23 40ZM16.08 23.84C16.08 24.15 16.01 24.41 15.99 24.67C15.94 25.41 15.91 26.15 15.84 26.88C15.61 29.2 15.32 31.5 15.13 33.82C14.94 36.14 14.82 38.56 14.68 40.93C14.62 41.93 14.59 42.93 14.56 43.93C14.56 44.53 14.82 44.85 15.28 44.84C17.84 44.76 20.4 44.67 22.96 44.63C29.61 44.51 36.26 44.35 42.91 44.33C47.46 44.33 52.02 44.51 56.58 44.61H57.84C58.22 43.06 57.69 41.61 57.78 40.04H56.91C55.35 40.04 53.8 40.04 52.24 39.96C49.51 39.89 46.78 39.76 44.04 39.75C41.3 39.74 38.6 39.87 35.89 39.86C31.25 39.86 26.61 39.78 21.97 39.74C21.6578 39.7486 21.3468 39.782 21.04 39.84C20.7338 39.9232 20.4074 39.8869 20.1269 39.7383C19.8465 39.5898 19.6331 39.3401 19.53 39.04C19.3924 38.5107 19.3186 37.9668 19.31 37.42C19.4233 33.3133 19.5533 29.1967 19.7 25.07C19.7 24.56 19.51 24.42 19.08 24.36C18.3 24.24 17.54 24.08 16.76 23.95C16.55 23.87 16.33 23.87 16.08 23.84ZM5.9 50.51C6.42 50.51 6.82 50.51 7.23 50.51C8.57 50.42 9.92 50.22 11.23 50.23C15.7233 50.23 20.2167 50.3 24.71 50.44C28.06 50.52 31.41 50.85 34.71 50.83C39.71 50.83 44.61 50.53 49.56 50.37L49.82 50.3V46.9H49.52C46 46.9 42.52 46.9 38.96 46.9L20.52 47.09C18.95 47.09 17.38 47.09 15.81 47.09C15.2913 47.0756 14.7731 47.1328 14.27 47.26C13.45 47.51 13.06 47.42 12.63 46.67C12.5924 46.6005 12.5453 46.5365 12.49 46.48C12.2706 46.2701 12.1099 46.0065 12.024 45.7152C11.938 45.424 11.9297 45.1154 12 44.82C12.06 43.65 12.09 42.47 12.16 41.29C12.3 38.84 12.44 36.4 12.6 33.95C12.66 32.95 12.74 32.05 12.82 31.12L6.62 31.58C6.72392 37.8984 6.48356 44.2178 5.9 50.51ZM25.19 33.51C24.46 34.62 25.28 35.33 26.19 35.25C26.2866 35.245 26.3834 35.245 26.48 35.25H32.48H55.37C56.3 35.25 57.22 35.16 58.14 35.12C58.2264 35.1207 58.3104 35.1487 58.38 35.2C58.5144 35.3243 58.6803 35.4093 58.8596 35.4458C59.039 35.4823 59.2249 35.4689 59.3972 35.407C59.5694 35.3451 59.7214 35.2371 59.8365 35.0948C59.9516 34.9525 60.0254 34.7814 60.05 34.6C60.1554 34.1606 60.2157 33.7116 60.23 33.26C60.33 30.48 60.42 27.7 60.52 24.92C60.52 23.99 60.61 23.06 60.65 22.14C60.6756 21.9497 60.6375 21.7562 60.5416 21.5898C60.4457 21.4234 60.2975 21.2933 60.12 21.22C59.9649 21.1366 59.7846 21.1129 59.6132 21.1535C59.4419 21.194 59.2913 21.2959 59.19 21.44C59.1095 21.5538 58.9976 21.6418 58.868 21.6933C58.7384 21.7448 58.5967 21.7575 58.46 21.73L46.3 21.28L28.87 20.66C27.99 20.66 27.11 20.58 26.23 20.57C26.0859 20.5466 25.9385 20.5551 25.798 20.5948C25.6576 20.6345 25.5275 20.7044 25.417 20.7997C25.3064 20.895 25.2181 21.0133 25.1581 21.1464C25.0982 21.2795 25.0681 21.4241 25.07 21.57C25.02 22.51 24.98 23.46 24.95 24.4C24.87 27 24.8 29.61 24.72 32.22C24.6766 32.4559 24.6973 32.6991 24.78 32.9243C24.8627 33.1494 25.0043 33.3482 25.19 33.5V33.51ZM47.19 17.16C47.19 16.59 47.1 16.04 47.03 15.48C46.9948 15.2541 47.0296 15.0228 47.1297 14.8172C47.2298 14.6116 47.3904 14.4416 47.59 14.33C47.78 14.2143 48.0031 14.1653 48.224 14.1907C48.445 14.216 48.6512 14.3143 48.81 14.47C49.0701 14.7751 49.252 15.1389 49.34 15.53C49.4303 16.0926 49.4837 16.6605 49.5 17.23H52.71C52.6446 15.9319 52.3395 14.657 51.81 13.47C51.6959 13.2451 51.5474 13.0393 51.37 12.86C50.6793 12.1629 49.7746 11.718 48.8008 11.5965C47.8271 11.475 46.8408 11.684 46 12.19C44.5553 13.0953 43.3701 14.3598 42.56 15.86C42.372 16.2738 42.2278 16.7061 42.13 17.15L47.19 17.16Z" fill="black"/>
<path d="M58.71 23.66L26.9 22.55C26.8927 22.6165 26.8927 22.6835 26.9 22.75L26.72 31.75C26.72 32.27 26.72 32.75 26.72 33.38H58.21L58.71 23.66Z" fill="white"/>
<path d="M59.6 57.19C59.6 56.69 59.6 56.19 59.6 55.69C59.5849 55.5362 59.6012 55.381 59.648 55.2338C59.6947 55.0865 59.7709 54.9503 59.8719 54.8334C59.9729 54.7165 60.0966 54.6213 60.2356 54.5537C60.3745 54.4861 60.5257 54.4474 60.68 54.44C60.8301 54.436 60.9794 54.462 61.1193 54.5163C61.2592 54.5707 61.3869 54.6524 61.4949 54.7567C61.6029 54.861 61.6891 54.9857 61.7483 55.1236C61.8075 55.2615 61.8387 55.4099 61.84 55.56C61.92 56.46 61.95 57.37 62.01 58.28C62.01 58.53 62.09 58.78 62.13 59.02C62.2138 59.3039 62.1859 59.609 62.0521 59.873C61.9182 60.137 61.6885 60.3398 61.41 60.44C61.1037 60.5205 60.7785 60.4854 60.4963 60.3416C60.2142 60.1978 59.9948 59.9552 59.88 59.66C59.7771 59.3795 59.7099 59.0873 59.68 58.79C59.6447 58.5247 59.6247 58.2576 59.62 57.99C59.62 57.73 59.62 57.46 59.62 57.19H59.6Z" fill="black"/>
<path d="M71.36 51.76C71.36 52.76 71.36 53.67 71.36 54.62C71.3746 54.8718 71.3114 55.1219 71.179 55.3365C71.0466 55.5512 70.8515 55.72 70.62 55.82C70.3963 55.9322 70.1387 55.9564 69.898 55.8879C69.6574 55.8194 69.4511 55.6632 69.32 55.45C69.0613 55.0299 68.9101 54.5525 68.88 54.06C68.88 52.63 68.93 51.2 68.97 49.78C68.9742 49.5419 69.0146 49.3059 69.09 49.08C69.1693 48.8224 69.3396 48.6025 69.5692 48.4613C69.7987 48.3201 70.0718 48.2672 70.3374 48.3125C70.6031 48.3578 70.8432 48.4982 71.013 48.7075C71.1827 48.9168 71.2705 49.1807 71.26 49.45C71.26 50.22 71.26 50.99 71.26 51.76H71.36Z" fill="black"/>
<path d="M58.71 23.66L58.21 33.33H26.63C26.63 32.74 26.63 32.22 26.63 31.7L26.81 22.75C26.8027 22.6835 26.8027 22.6165 26.81 22.55L58.71 23.66Z" fill="black"/>
</svg>
