<svg width="80" height="80" viewBox="0 0 80 80" fill="none" xmlns="http://www.w3.org/2000/svg">
<g clip-path="url(#clip0)">
<path d="M32.1165 65.0641C31.5565 65.4741 31.7465 65.9141 31.9765 66.3541C32.4465 67.2741 32.4765 76.2641 32.0765 77.2541C31.9793 77.5673 31.804 77.8505 31.567 78.0772C31.33 78.3038 31.0392 78.4663 30.722 78.5494C30.4047 78.6324 30.0716 78.6333 29.7539 78.5519C29.4363 78.4705 29.1446 78.3095 28.9065 78.0841C27.5865 77.0341 27.5165 67.7241 28.4565 65.8741C28.5038 65.7847 28.5608 65.7009 28.6265 65.6241C28.1565 64.9363 27.8829 64.1333 27.8354 63.3016C27.7878 62.4699 27.968 61.641 28.3565 60.9041C28.4165 60.7641 28.3565 60.5741 28.3565 60.3441C22.3065 63.5341 16.6265 62.9441 11.2065 59.0141C11.0179 59.2684 10.8475 59.5358 10.6965 59.8141C10.6536 59.9847 10.6713 60.165 10.7465 60.3241C11.2926 61.3632 11.4282 62.5696 11.1265 63.7041C10.9011 64.2779 10.6441 64.8388 10.3565 65.3841C11.3065 66.5941 11.5365 73.5941 10.9765 75.1441C10.7899 75.68 10.4126 76.1285 9.91647 76.4041C9.70353 76.5462 9.4617 76.6393 9.20842 76.6766C8.95515 76.714 8.69674 76.6946 8.45184 76.62C8.20694 76.5454 7.98166 76.4174 7.79224 76.2451C7.60281 76.0729 7.45398 75.8608 7.35647 75.6241C6.49647 73.9941 6.64647 66.8041 7.27647 65.1641C7.34513 64.9872 7.34513 64.791 7.27647 64.6141C6.93091 63.9806 6.73421 63.2768 6.70129 62.556C6.66836 61.8352 6.80009 61.1163 7.08647 60.4541C7.09632 60.3865 7.12016 60.3218 7.15647 60.2641C7.29953 60.0693 7.3672 59.8293 7.34698 59.5884C7.32676 59.3476 7.22001 59.1223 7.04647 58.9541C6.59096 58.2397 6.30071 57.4327 6.1969 56.5919C6.0931 55.7511 6.17836 54.8977 6.44647 54.0941C6.48155 53.9253 6.46048 53.7497 6.38647 53.5941C5.62647 51.9741 4.83647 50.3741 4.07647 48.7541C3.96647 48.4941 3.85647 48.3841 3.56647 48.3841C2.91343 48.4148 2.26248 48.2893 1.66767 48.018C1.07287 47.7466 0.551365 47.3373 0.146468 46.8241C-0.498162 46.1715 -1.06525 45.4467 -1.54353 44.6641C-1.86861 44.0631 -2.02519 43.3855 -1.9967 42.7028C-1.96822 42.0202 -1.75573 41.3579 -1.38171 40.7861C-1.0077 40.2144 -0.486077 39.7543 0.127961 39.4547C0.741999 39.1551 1.42561 39.027 2.10647 39.0841H2.39647C2.39647 38.8641 2.39647 38.6541 2.39647 38.4441C2.40706 33.36 3.84496 28.381 6.54647 24.0741C8.43647 18.5741 14.2065 16.3441 14.2065 15.7841C14.2065 4.70406 28.1565 3.13406 28.5265 16.7141C33.3565 18.1841 35.3565 24.1241 36.8065 27.4541C36.8865 27.6241 36.9565 27.7941 37.0765 28.0641C37.5961 27.4863 38.0772 26.875 38.5165 26.2341C39.1413 25.2116 39.9641 24.3243 40.9365 23.6241C42.7772 22.0869 44.8906 20.9098 47.1665 20.1541C49.4424 19.4647 51.7922 19.0485 54.1665 18.9141C54.9509 18.8978 55.7313 19.0302 56.4665 19.3041C59.3277 20.4749 61.9947 22.0731 64.3765 24.0441C66.7665 25.9041 67.7965 28.5241 68.4665 31.3541C69.1148 34.1278 69.364 36.9799 69.2065 39.8241C69.2095 40.1593 69.2396 40.4937 69.2965 40.8241C69.3199 40.9395 69.3199 41.0586 69.2965 41.1741C69.0765 41.7541 68.8365 42.3241 68.6065 42.8941C68.4681 43.165 68.2653 43.3978 68.016 43.5722C67.7667 43.7465 67.4784 43.857 67.1765 43.8941C66.3565 44.1141 65.5565 44.4141 64.7365 44.6441C64.4065 44.7341 64.3265 44.9041 64.3265 45.2241C64.3265 46.9141 64.4465 48.6041 64.3265 50.2941C64.1865 52.6341 63.7765 65.9441 63.5265 68.2941C63.4479 69.3041 63.2941 70.3069 63.0665 71.2941C62.8077 72.3104 62.3199 73.2542 61.6405 74.0532C60.9611 74.8522 60.108 75.4853 59.1465 75.9041C58.0849 76.3214 56.957 76.5449 55.8165 76.5641C54.8012 76.4983 53.8448 76.0645 53.1265 75.3441C52.9465 75.2041 52.9165 64.0941 52.7065 63.9241C51.5913 65.6261 50.0975 67.0471 48.3419 68.0759C46.5863 69.1046 44.6164 69.7132 42.5865 69.8541C40.5797 69.9973 38.569 69.6338 36.7395 68.7968C34.9099 67.9597 33.3202 66.6762 32.1165 65.0641ZM24.6265 21.2441C24.1365 21.8241 23.7265 22.3941 23.2365 22.8941C19.7901 26.5448 15.7788 29.6174 11.3565 31.9941C9.68167 32.8718 7.89531 33.5177 6.04647 33.9141C5.90572 33.9239 5.77362 33.9856 5.67572 34.0872C5.57782 34.1887 5.52108 34.323 5.51647 34.4641C4.99617 37.6365 5.03678 40.8757 5.63647 44.0341C5.69185 44.871 5.96787 45.6784 6.43647 46.3741C6.59647 46.5541 6.54647 46.9241 6.58647 47.2041C6.57122 47.367 6.57122 47.5311 6.58647 47.6941C7.66338 50.9716 9.57631 53.9116 12.1365 56.2241C14.2767 58.2729 17.0816 59.4847 20.0404 59.6389C22.9992 59.7931 25.9149 58.8793 28.2565 57.0641C30.6768 55.2841 32.5984 52.9114 33.8365 50.1741C36.4792 44.6372 37.095 38.3484 35.5765 32.4041C35.5132 32.195 35.3833 32.0123 35.2065 31.8841C34.5865 31.4341 33.9465 31.0141 33.3065 30.5941C32.0293 29.6905 30.8255 28.6874 29.7065 27.5941C28.2668 26.3096 26.9996 24.8441 25.9365 23.2341C25.5165 22.5541 25.0665 21.9141 24.6265 21.2441ZM61.7065 50.4441C61.7065 50.2241 61.7065 50.0541 61.7065 49.8841C61.7065 48.1941 61.7765 46.5041 61.8165 44.8141C61.7927 44.1767 61.9911 43.5509 62.3778 43.0438C62.7646 42.5367 63.3156 42.1797 63.9365 42.0341L66.0365 41.3941C66.1444 41.3791 66.2424 41.3227 66.3095 41.2369C66.3767 41.151 66.4079 41.0425 66.3965 40.9341C66.6211 37.9208 66.4191 34.8909 65.7965 31.9341C65.2265 29.5841 64.4165 27.3841 62.3565 25.9341C60.3489 24.3458 58.148 23.0186 55.8065 21.9841C55.6586 21.9082 55.4898 21.8836 55.3265 21.9141C54.754 22.0784 54.1983 22.296 53.6665 22.5641C50.9665 24.0641 48.4765 25.8041 46.8965 28.5641C46.7911 28.7674 46.7428 28.9955 46.7565 29.2241C46.808 29.6648 46.8848 30.1022 46.9865 30.5341C47.5737 33.2545 48.48 35.8961 49.6865 38.4041C51.2336 42.0529 53.626 45.2817 56.6665 47.8241C58.1481 49.0352 59.8639 49.9272 61.7065 50.4441ZM52.4865 56.3541C52.5827 55.0657 52.4403 53.7707 52.0665 52.5341C51.4931 50.2868 50.1215 48.325 48.2078 47.0148C46.2941 45.7046 43.969 45.1356 41.6665 45.4141C40.6201 45.6341 39.5882 45.918 38.5765 46.2641C38.4378 46.2935 38.3115 46.365 38.2149 46.4688C38.1183 46.5726 38.056 46.7036 38.0365 46.8441C37.0161 50.6546 35.0878 54.1613 32.4165 57.0641C32.3448 57.142 32.2894 57.2334 32.2533 57.333C32.2173 57.4326 32.2013 57.5383 32.2065 57.6441C32.3217 58.5903 32.5089 59.5263 32.7665 60.4441C33.4655 62.7694 35.0309 64.7374 37.1395 65.9415C39.2481 67.1456 41.7386 67.4937 44.0965 66.9141C45.825 66.4961 47.423 65.6562 48.7475 64.4696C50.072 63.2829 51.0818 61.7864 51.6865 60.1141C51.9065 59.5941 52.0465 59.0441 52.2365 58.4441H51.9865C50.6882 58.8279 49.3177 58.8999 47.9865 58.6541C47.7298 58.6383 47.4823 58.5526 47.2708 58.4063C47.0592 58.26 46.8918 58.0587 46.7865 57.8241C46.7193 57.6293 46.7026 57.4208 46.7378 57.2179C46.773 57.015 46.859 56.8243 46.9878 56.6635C47.1165 56.5028 47.2839 56.3773 47.4743 56.2987C47.6646 56.2201 47.8718 56.191 48.0765 56.2141C48.9009 56.3423 49.742 56.3151 50.5565 56.1341C50.8714 56.0092 51.2124 55.9639 51.549 56.0023C51.8857 56.0407 52.2077 56.1615 52.4865 56.3541ZM46.4865 39.5541H46.5965C46.3666 38.6731 46.0896 37.8052 45.7665 36.9541C45.5505 36.5648 45.1921 36.2745 44.7665 36.1441C44.3096 35.9925 43.8174 35.983 43.355 36.1169C42.8926 36.2508 42.4817 36.5218 42.1765 36.8941C41.728 37.4609 41.4993 38.1706 41.5323 38.8927C41.5654 39.6147 41.8581 40.3006 42.3565 40.8241C43.0223 41.5058 43.9157 41.9188 44.8665 41.9841C45.0406 42.0064 45.2174 41.9941 45.3867 41.9478C45.556 41.9016 45.7145 41.8222 45.8531 41.7144C45.9916 41.6065 46.1074 41.4723 46.1938 41.3195C46.2802 41.1667 46.3355 40.9983 46.3565 40.8241C46.4165 40.4341 46.4565 39.9941 46.5165 39.5541H46.4865ZM2.45647 41.6441C2.14652 41.5362 1.80877 41.539 1.50067 41.652C1.19257 41.7651 0.933126 41.9813 0.766468 42.2641C0.638142 42.5217 0.598959 42.8147 0.655062 43.097C0.711164 43.3793 0.85938 43.635 1.07647 43.8241C1.52647 44.3441 2.07647 44.8241 2.53647 45.3241C2.70461 45.4309 2.88619 45.515 3.07647 45.5741L2.45647 41.6441Z" fill="black"/>
<path d="M16.4665 39.4841C15.8465 39.6541 15.2865 39.8641 14.7065 39.9741C13.1756 40.1763 11.6188 39.9405 10.2165 39.2941C9.79645 39.1241 9.37645 38.9141 8.96645 38.7141C8.70252 38.5883 8.47866 38.3918 8.31977 38.1464C8.16087 37.901 8.07318 37.6163 8.06645 37.3241C8.04685 37.0905 8.09725 36.8564 8.21124 36.6515C8.32522 36.4467 8.49762 36.2805 8.70645 36.1741C8.90692 36.0544 9.13954 35.9997 9.37233 36.0176C9.60512 36.0356 9.82664 36.1251 10.0065 36.2741C10.838 36.879 11.8139 37.2549 12.8365 37.3641C13.2548 37.4552 13.6872 37.4614 14.1081 37.3824C14.5289 37.3034 14.9296 37.1407 15.2865 36.9041C16.0237 36.4733 16.8537 36.2264 17.7065 36.1841C18.4465 36.0741 18.9765 36.6741 18.9965 37.5541C18.9965 39.2541 18.9965 40.9641 19.1165 42.6741C19.1783 43.5373 19.2952 44.3957 19.4665 45.2441C19.5334 45.5082 19.6524 45.7564 19.8165 45.9741C19.8815 46.0732 19.967 46.1573 20.0673 46.2206C20.1676 46.284 20.2803 46.3251 20.3978 46.3412C20.5153 46.3573 20.6349 46.348 20.7485 46.314C20.8621 46.28 20.9671 46.2221 21.0565 46.1441C21.2346 45.9842 21.429 45.8434 21.6365 45.7241C21.8542 45.6008 22.1048 45.5481 22.3537 45.5732C22.6026 45.5983 22.8377 45.6999 23.0265 45.8641C23.2237 46.0188 23.3694 46.2296 23.4444 46.4689C23.5194 46.7081 23.5201 46.9644 23.4465 47.2041C23.2428 47.7671 22.8703 48.2536 22.38 48.5972C21.8896 48.9408 21.3052 49.1248 20.7065 49.1241C18.4765 49.0241 17.0265 47.7641 16.7065 45.2641C16.5494 43.532 16.4826 41.793 16.5065 40.0541C16.4565 39.8741 16.4665 39.6841 16.4665 39.4841Z" fill="black"/>
<path d="M14.8965 45.9241C14.9845 47.1444 14.7059 48.3631 14.0965 49.4241C13.8538 49.8629 13.4474 50.1881 12.966 50.3286C12.4846 50.4691 11.9671 50.4135 11.5265 50.1741C10.8489 49.907 10.2916 49.4026 9.95861 48.7549C9.62557 48.1072 9.53951 47.3605 9.71648 46.6541C9.89648 45.7541 10.1765 44.8741 10.4065 43.9841C10.5128 43.6969 10.5997 43.4029 10.6665 43.1041C10.679 42.8154 10.7825 42.5381 10.9621 42.3118C11.1417 42.0855 11.3882 41.9218 11.6665 41.8441C11.7936 41.7947 11.9093 41.7198 12.0065 41.6241C12.1723 41.4615 12.3786 41.3463 12.604 41.2905C12.8293 41.2346 13.0655 41.2402 13.2881 41.3065C13.5106 41.3729 13.7112 41.4976 13.8692 41.6677C14.0272 41.8379 14.1368 42.0472 14.1865 42.2741C14.5265 43.6541 14.7365 45.0441 14.8965 45.9241Z" fill="black"/>
<path d="M29.1765 40.1941C27.5297 40.1241 25.9547 39.5005 24.7065 38.4241C24.4452 38.2365 24.2642 37.9574 24.1993 37.6424C24.1345 37.3274 24.1906 36.9996 24.3565 36.7241C24.5405 36.4649 24.8137 36.2827 25.1238 36.2126C25.4338 36.1425 25.7588 36.1893 26.0365 36.3441C26.2269 36.4217 26.4054 36.5261 26.5665 36.6541C27.1607 37.161 27.9015 37.4645 28.6806 37.5203C29.4596 37.5761 30.2361 37.3812 30.8965 36.9641C31.2299 36.7738 31.6032 36.6642 31.9865 36.6441C32.2578 36.6727 32.5136 36.7847 32.7187 36.9647C32.9237 37.1447 33.068 37.3838 33.1316 37.6491C33.1952 37.9144 33.175 38.193 33.0738 38.4463C32.9726 38.6997 32.7954 38.9155 32.5665 39.0641C31.7417 39.4505 30.8933 39.7845 30.0265 40.0641C29.749 40.1395 29.4638 40.1831 29.1765 40.1941Z" fill="black"/>
<path d="M19.6765 52.3941C20.4307 52.3664 21.1801 52.5265 21.8573 52.8598C22.5345 53.1932 23.1183 53.6894 23.5565 54.3041C23.7355 54.5708 23.8706 54.8645 23.9565 55.1741C24.0189 55.4282 23.9999 55.6955 23.9024 55.9383C23.8048 56.1811 23.6335 56.3871 23.4126 56.5274C23.1917 56.6676 22.9324 56.7351 22.6711 56.7201C22.4099 56.7052 22.1599 56.6086 21.9565 56.4441C21.7421 56.2762 21.5505 56.0813 21.3865 55.8641C21.1938 55.604 20.9488 55.3871 20.6673 55.2273C20.3857 55.0675 20.0739 54.9685 19.7518 54.9364C19.4297 54.9044 19.1044 54.9402 18.7969 55.0414C18.4895 55.1426 18.2066 55.307 17.9665 55.5241C17.6515 55.7741 17.2585 55.9051 16.8565 55.8941C16.6463 55.8689 16.4472 55.7862 16.281 55.6551C16.1148 55.524 15.988 55.3496 15.9146 55.1511C15.8412 54.9525 15.824 54.7376 15.8649 54.5299C15.9058 54.3223 16.0032 54.1299 16.1465 53.9741C16.5363 53.4952 17.0249 53.1061 17.5789 52.8334C18.1329 52.5608 18.7392 52.4109 19.3565 52.3941H19.6765Z" fill="black"/>
<path d="M57.7565 28.4041C59.9765 28.4041 61.0865 29.6241 60.7065 31.2341C60.5851 31.7199 60.3001 32.1492 59.8995 32.4497C59.4988 32.7502 59.0069 32.9036 58.5065 32.8841C56.6065 33.0641 54.6965 33.2141 52.7965 33.3741C52.5139 33.4019 52.2294 33.3443 51.9799 33.2089C51.7303 33.0734 51.5271 32.8662 51.3965 32.6141C51.282 32.3555 51.2457 32.0691 51.2919 31.7902C51.338 31.5113 51.4648 31.2519 51.6565 31.0441C52.0785 30.4652 52.6115 29.9761 53.2244 29.6053C53.8373 29.2345 54.5179 28.9893 55.2265 28.8841C56.2165 28.7241 57.1965 28.5141 57.7565 28.4041Z" fill="black"/>
<path d="M56.7065 39.2741C55.7065 39.0741 54.6365 38.9241 53.6165 38.6841C53.4495 38.661 53.2894 38.6031 53.1463 38.514C53.0033 38.425 52.8806 38.3068 52.7863 38.1672C52.6919 38.0275 52.6281 37.8696 52.5988 37.7037C52.5695 37.5378 52.5756 37.3675 52.6165 37.2041C52.6578 37.0408 52.7319 36.8876 52.8343 36.754C52.9368 36.6203 53.0654 36.5089 53.2123 36.4266C53.3592 36.3442 53.5213 36.2927 53.6888 36.275C53.8563 36.2574 54.0256 36.2741 54.1865 36.3241C55.2608 36.5997 56.3794 36.6575 57.4765 36.4941C57.9258 36.4209 58.3676 36.3071 58.7965 36.1541C59.0665 36.0741 59.3165 35.9041 59.5965 35.8241C59.9253 35.6914 60.2934 35.6949 60.6197 35.8337C60.946 35.9725 61.2038 36.2352 61.3365 36.5641C61.4691 36.8929 61.4656 37.261 61.3268 37.5873C61.188 37.9136 60.9253 38.1714 60.5965 38.3041C59.4133 38.9272 58.0809 39.211 56.7465 39.1241L56.7065 39.2741Z" fill="black"/>
<path d="M45.4865 58.4541C45.4365 59.2141 45.4065 59.9841 45.3265 60.7441C45.1165 62.8141 43.4965 63.6741 41.6365 63.3641C41.2925 63.3214 40.9782 63.1481 40.7585 62.88C40.5389 62.6119 40.4307 62.2697 40.4565 61.9241C40.492 61.563 40.6682 61.2305 40.9471 60.9984C41.2259 60.7663 41.585 60.6534 41.9465 60.6841C42.6965 60.6841 42.6965 60.6841 42.7665 59.9241C42.9699 58.402 42.943 56.858 42.6865 55.3441C42.6496 55.189 42.6439 55.0282 42.6698 54.871C42.6957 54.7137 42.7527 54.5632 42.8374 54.4282C42.9221 54.2933 43.0329 54.1765 43.1632 54.0848C43.2935 53.9931 43.4408 53.9282 43.5965 53.8941C43.7511 53.8544 43.9122 53.8471 44.0697 53.8726C44.2273 53.8981 44.3779 53.9558 44.5121 54.0422C44.6463 54.1285 44.7613 54.2417 44.8498 54.3745C44.9383 54.5073 44.9984 54.6569 45.0265 54.8141C45.2765 56.0041 45.4165 57.2241 45.5965 58.4341L45.4865 58.4541Z" fill="black"/>
<path d="M36.8365 58.9541C36.3865 58.8441 35.6665 58.7041 34.9765 58.4741C34.724 58.3878 34.5102 58.2149 34.373 57.9862C34.2357 57.7574 34.1838 57.4874 34.2265 57.2241C34.2618 56.9542 34.3917 56.7055 34.5932 56.5224C34.7946 56.3393 35.0544 56.2336 35.3265 56.2241C35.7011 56.2207 36.0744 56.2677 36.4365 56.3641C36.6479 56.4251 36.8696 56.4423 37.0879 56.4148C37.3063 56.3873 37.5167 56.3156 37.7065 56.2041C37.9643 56.012 38.2875 55.9295 38.6058 55.9744C38.9242 56.0194 39.2119 56.1881 39.4065 56.4441C39.5902 56.7053 39.6714 57.025 39.6345 57.3422C39.5976 57.6594 39.4453 57.952 39.2065 58.1641C38.8859 58.4499 38.5103 58.6674 38.1028 58.8032C37.6954 58.939 37.2645 58.9904 36.8365 58.9541Z" fill="black"/>
</g>
<defs>
<clipPath id="clip0">
<rect width="80" height="80" fill="white"/>
</clipPath>
</defs>
</svg>
