<?xml version="1.0" encoding="utf-8"?>
<!-- Generator: Adobe Illustrator 24.3.0, SVG Export Plug-In . SVG Version: 6.00 Build 0)  -->
<svg version="1.1" id="Layer_1" xmlns="http://www.w3.org/2000/svg" xmlns:xlink="http://www.w3.org/1999/xlink" x="0px" y="0px"
	 viewBox="0 0 80 80" style="enable-background:new 0 0 80 80;" xml:space="preserve">
<g>
	<path d="M34.1,65.1c-0.6,0.4-0.4,0.8-0.1,1.3c0.5,0.9,0.5,9.9,0.1,10.9c-0.4,1.3-2.2,1.8-3.2,0.8c-1.3-1-1.4-10.4-0.4-12.2
		c0.2-0.7-0.8-1.6-0.6-2.6c-0.2-1.1,0.6-1.9,0.5-3c-6.1,3.2-11.7,2.6-17.2-1.3c-0.2,0.3-0.4,0.5-0.5,0.8c0.6,1.9,0.9,3.8-0.3,5.6
		c0.9,1.7,1.9,9.8-0.4,11C7.4,78.6,8.8,67,9.3,65.2c0.1-0.9-0.7-1.7-0.6-2.6c-0.1-1.1,0.5-2,0.6-3c-0.4-1-1.1-1.9-1.2-3
		c-0.3-1,0.3-2,0.2-3c-0.8-1.6-1.6-3.2-2.3-4.8c-0.1-0.3-0.2-0.4-0.5-0.4c-3.3,0-7-4.5-4.9-7.6c0.8-1.3,2.3-1.9,3.8-1.7
		c-0.1-5.3,1.3-10.5,4.1-15c1.9-5.5,7.7-7.7,7.7-8.3c0-11.1,13.9-12.7,14.3,0.9c5.1,1.7,6.9,7.7,8.5,11.4c4-6.2,12-10.2,19.4-8.8
		c9.7,3.6,13.4,10.3,12.7,20.5c0.4,3.5-1.6,4.1-4.5,4.8c-0.3,0.1-0.4,0.3-0.4,0.6c0,1.7,0.1,3.4,0,5.1c-0.1,2.3-0.5,15.6-0.8,18
		c0.5,5.2-5.7,10.9-10.4,7.1c-0.2-0.1-0.2-11.3-0.4-11.4C50.4,71,39.1,72.1,34.1,65.1z M26.6,21.2C21.7,26.9,15.4,32.1,8,33.9
		c-0.3,0-0.5,0.3-0.5,0.5c-1.2,7.7,0.7,16.4,6.6,21.8c15.1,12.2,28-10,23.4-23.8C33.6,29.1,29.2,26,26.6,21.2z M63.7,50.4
		c0.4-2.7-1.2-7.3,2.2-8.4c0,0,2.1-0.6,2.1-0.6c0.2,0,0.4-0.2,0.4-0.5c0.1-5.1,0.3-11.5-4-15c-2.1-1.6-4.5-3.3-7-4
		c-3.4,1.2-6.5,3.5-8.4,6.7C49.7,37.2,54.9,47.6,63.7,50.4z M54.5,56.4c0.9-7.6-7.5-13.6-14.3-9.9c-1.1,4.2-3.6,7.8-6,11.2
		c0.9,12.4,17.6,12.4,20,0.8c-1.7,0.2-4.3,1.1-5.5-0.6c-0.2-0.6,0.1-1.3,0.7-1.5c1-0.2,2.1,0.2,3.1-0.2C53.2,55.9,53.9,56,54.5,56.4
		z M48.5,39.6c0-2.3-1.8-5.1-4.3-2.7C41.2,40.2,48.7,44.9,48.5,39.6z M4.5,41.6c-0.9-0.4-2,0.5-1.8,1.5c0.5,1,1.5,2,2.4,2.5
		L4.5,41.6z"/>
	<path d="M18.5,39.5c-2.3,1-7.6,0.7-8.4-2.2c-0.1-1,1.2-1.7,1.9-1.1c1.2,0.8,2.7,1.3,4.1,1.1c1.2-0.3,2.3-1.2,3.6-1.2
		c2.9-0.1-0.1,9.1,2.7,10.2c0.5,0.1,0.8-0.4,1.2-0.6c2.1-0.8,2.4,2,0.7,2.9C18.4,51.2,18.4,43.5,18.5,39.5z"/>
	<path d="M16.9,45.9c0,1.6-0.3,3.8-1.9,4.4c-2,0.5-3.8-1.8-3.2-3.7c0.6-1.7,0.4-4.2,2.3-5C16.6,39.8,16.6,44.8,16.9,45.9z"/>
	<path d="M31.2,40.2c-1.7,0.2-7.2-2.3-4.1-4c0.5-0.1,1,0.1,1.4,0.4c1.6,1.6,3.6,0.5,5.4,0c0.8,0.1,1.4,1,1.1,1.8
		C34.3,39.6,32.5,39.9,31.2,40.2z"/>
	<path d="M21.7,52.4c1.9-0.3,5.7,2.2,3.7,4.1c-1.2,0.8-1.9-0.8-2.7-1.3c-1.4-1-2.5,0.5-3.8,0.7C15.9,54.7,20,52,21.7,52.4z"/>
	<path d="M59.8,28.4c2.9-0.1,4,2.5,2.1,4c-2.2,0.9-4.8,0.5-7.1,0.9c-0.9,0.1-1.7-0.7-1.5-1.6C54.1,29.2,57.7,28.8,59.8,28.4z"/>
	<path d="M58.7,39.3c-1.2-0.4-3-0.1-3.9-1.1c-0.5-0.7,0-1.8,0.9-1.9c1.7,0.3,3.5,0.5,5.1-0.1c0.6-0.2,1.2-0.6,1.8-0.3
		c1.1,0.4,1.1,2.1,0,2.5C61.5,39.1,59.8,39,58.7,39.3z"/>
	<path d="M47.5,58.5c0.1,2.6-0.7,5.6-3.9,4.9c-0.7-0.1-1.2-0.7-1.2-1.4c1.1-3.2,3.2,2,2.2-6.6c-0.3-1,1-1.9,1.8-1.3
		C47.4,54.9,47.5,57.4,47.5,58.5z"/>
	<path d="M38.8,59c-0.6-0.2-2-0.2-2.5-1c-0.7-1.4,0.9-2.1,2.1-1.6c1,0.4,2.1-1.1,3,0.1C42.4,58,40.2,59.1,38.8,59z"/>
</g>
</svg>
