<?xml version="1.0" encoding="utf-8"?>
<!-- Generator: Adobe Illustrator 24.3.0, SVG Export Plug-In . SVG Version: 6.00 Build 0)  -->
<svg version="1.1" id="Layer_1" xmlns="http://www.w3.org/2000/svg" xmlns:xlink="http://www.w3.org/1999/xlink" x="0px" y="0px"
	 viewBox="0 0 80 80" style="enable-background:new 0 0 80 80;" xml:space="preserve">
<style type="text/css">
	.st0{fill:#FFFFFF;}
</style>
<path d="M17.5,37c-2.5-0.2-4.8-0.4-7.3-0.8c-0.5,0-0.8-0.5-1-0.9c-0.3-0.3-0.3-0.8-0.1-1.2c1.7-2.8,3-5.9,5-8.5
	c-0.9-1.1-2.6-3.4-3.4-4.5c-0.3-0.3-0.3-0.8-0.1-1.1c1.1-0.8,1.9-2,3-3c0.5-0.5,1.3-0.1,1.4,0.5c0.1,0.7,2.2,2.8,2.6,3.4
	c0.8-0.9,1.5-2.6,2.9-1.9c0.8,0.6,1.2,1.8,1.8,2.6c0.9,1.6,2,3.4,2.9,5c3.1-1.1,6.3-1.6,9.6-1.7c0.2-1.3-1.3-4.2,0.9-4.2
	c2.1-0.2,4.3-0.6,6.4-0.6c5.2-0.7,3.5,0.7,4.4,4.6c1,0.1,8.6,0.6,9.8,0.7c0.7,0,1.3,0.2,1.8,0.6c5.8-6.7,4.7-5.2,9.3,1.1
	c1.2-0.5,2.5-1.1,3.8-1.5c0.7-0.3,1.5,0,1.9,0.6C74,27.6,74,29,74,30.3c0,0.4-0.1,0.9-0.4,1.3c-0.8,1-2.2,1.2-3.4,1.9l0.7,1.2
	c0.4,0.7,0.3,0.9-0.2,1.6c-0.4,0.5-1,0.8-1.6,0.8c-1.6,0.1-3.1,0.3-4.7,0.4c0.2,6.8,0.9,13.5,0.8,20.2c0,0.5-0.5,1-1.2,1.1
	c-2.2,0.3-4.4,0.5-6.6,0.9c-5.9,0.8-12,0.5-17.9,0.7c-0.7,0-6,0.3-6.6,0.2c-2.5,0.1-5,0.2-7.5,0.2c-1.9-0.1-4.1,0.2-5.7-1.1
	c-1-1-0.8-2.5-1-3.8c-1.4-6.1-1.5-12.4-1.4-18.7C17.5,37.3,17.5,37.2,17.5,37z M19.5,37.9c-0.2,6.1,0.3,12.2,1.3,18.2
	c0.2,0.9-0.2,2.4,1.2,2.5c2.4,0.6,6.7,0.1,9.2,0.1c10.7-0.6,21.9,0.1,32.4-1.9c-0.4-6.5-0.6-13-0.9-19.5c-0.1-0.4-0.3-0.5-0.7-0.6
	c-1.1,0-2.2-0.1-3.2,0c-0.1,1,0.1,1.7-0.1,2.6c-0.1,0.2-0.2,0.4-0.4,0.5c-0.3,0.2-0.2,0.7-0.6,0.9c-0.1,0.1-0.3,0.2-0.5,0.2
	c-1.9,0.2-3.9,0.6-5.8,0.6c0,0.8-0.5,1.6-1.3,1.8c0,0-0.6,0.2-0.6,0.2c-1.3,0.4-1.6-0.9-1.7-1.9c-4.6,0.2-9.2,0.2-13.7,0.4
	c-0.1,3.2-3.4,3-3.6-0.1c-2,0-3.8-0.3-5.8-0.6c-0.4,0-0.8-0.1-1.1-0.3c-1.1-1-0.9-2.7-0.9-4C21.6,37.4,20.4,37.2,19.5,37.9
	L19.5,37.9z M56.7,39.2c-0.1-3.9-0.1-7.8-0.2-11.6c-10.2-0.7-20.9-1.7-31,1c-1.2,0.2-0.7,1.6-0.8,2.5c0.1,2.8-0.2,5.6,0,8.3
	c0,0.3,0.2,0.4,0.5,0.4c1.7,0.3,3.4,0.3,5.1,0.4c0-1.3,0.3-2.5,1.8-2.3c0.5,0.1,1,0.4,1.3,0.8c0.3,0.5,0.1,0.9,0.3,1.5
	c4.7-0.2,9.3-0.2,13.9-0.4c0.1-0.9,0.1-1.8,1-2.4c0.6-0.4,1.7-0.5,2.3,0.1c0.5,0.6,0.2,1.5,0.4,2.2C53.1,39.7,54.9,39.5,56.7,39.2z
	 M11.1,34.6c3.5,0.3,6.8,0.6,10.3,0.6c-1.9-2.9-4.3-5.3-6.3-8.1L11.1,34.6z M69.8,31.5c-0.7-0.7-1-1.7-1-2.6l-10.3,4.3
	c0,0.6,0,1.2,0.1,1.8h3c0.9,0,1.8-0.2,2.7-0.7C66.1,33.3,68,32.5,69.8,31.5z M36.5,22.5l0.3,2.3h7.9L44.4,22L36.5,22.5z M18.7,22.5
	l4.4,4.7C22.2,25,21.1,23,19.8,21L18.7,22.5z M71.9,27.6c-0.4,0.2-0.9,0.1-1,0.6c-0.4,0.9,0.2,2.1,1.2,2.4
	C72.3,29.6,72.2,28.6,71.9,27.6z"/>
<path class="st0" d="M11.1,34.6l4-7.5c2.1,2.8,4.5,5.1,6.4,8.1C17.9,35.2,14.6,34.8,11.1,34.6z"/>
<path class="st0" d="M69.8,31.5c-1.8,1-3.7,1.8-5.6,2.8c-0.8,0.5-1.7,0.7-2.7,0.7h-3c-0.1-0.6-0.2-1.2-0.1-1.8l10.4-4.3
	C68.8,29.8,69.2,30.8,69.8,31.5z"/>
<path class="st0" d="M18.7,22.5l1.1-1.5c1.3,1.9,2.4,4,3.4,6.2L18.7,22.5z"/>
<path class="st0" d="M71.9,27.6c0.3,0.9,0.3,1.9,0.1,2.9c-1-0.2-1.6-1.4-1.2-2.4C71.1,27.8,71.5,27.8,71.9,27.6z"/>
<path d="M39.7,47.8c1.1,0,9.5-0.4,10.3-0.2c0.5,0,0.9,0.3,1,0.7c0.1,0.2,0.2,0.3,0.3,0.4c0.3,0.2,0.5,0.6,0.5,0.9
	c0.1,1.3,0.5,2.6,0.4,3.9c-0.1,0.9-1.1,1.1-1.8,1.1c-4.8,0.2-9.7,0.2-14.5,0.7c-1.4,0.1-2.7,0.2-4.1,0.2C30.9,55.6,30,54.9,30,54
	c-0.4-1.5-0.2-2.9-0.2-4.5c0-1.1,0.4-1.4,1.4-1.4L39.7,47.8z"/>
</svg>
