<svg width="80" height="80" viewBox="0 0 80 80" fill="none" xmlns="http://www.w3.org/2000/svg">
<path d="M41.67 62.43L38.29 66.64C37.7 67.39 37.08 68.11 36.57 68.91C35.74 70.23 34.9 70.1 33.57 69.11C33.387 68.937 33.2258 68.7422 33.09 68.53C31.7387 66.7294 30.623 64.7634 29.77 62.68C29.61 62.31 29.43 61.94 29.24 61.55C27.9485 61.9427 26.7145 62.5042 25.57 63.22C25.08 63.52 24.57 63.8 24.11 64.11C23.4148 64.4916 22.6173 64.6455 21.83 64.55C21.5557 64.5378 21.2938 64.4318 21.0882 64.2498C20.8825 64.0678 20.7455 63.8208 20.7 63.55C20.2 61.24 19.7 58.92 19.19 56.49L15.54 56.89C14.54 57 13.54 57.12 12.54 57.2C12.179 57.2607 11.8082 57.1941 11.4908 57.0117C11.1735 56.8293 10.9293 56.5424 10.8 56.2C10.6845 55.9809 10.5435 55.7761 10.38 55.59C10.1626 55.3725 10.0405 55.0775 10.0405 54.77C10.0405 54.4625 10.1626 54.1675 10.38 53.95C10.7368 53.5033 11.1316 53.0885 11.56 52.71C12.76 51.63 13.97 50.57 15.28 49.43L14.44 49C12.44 48.11 10.44 47.22 8.44 46.31C8.01037 46.1052 7.59889 45.8644 7.21 45.59C6.98038 45.4602 6.78456 45.2781 6.6384 45.0585C6.49224 44.8389 6.39983 44.588 6.36867 44.3261C6.33751 44.0641 6.36847 43.7985 6.45904 43.5508C6.54961 43.303 6.69725 43.0801 6.89 42.9C7.36 42.38 7.89 41.9 8.38 41.42L11.38 38.31C10.86 37.98 10.38 37.73 10.02 37.44C9.59315 37.1524 9.2006 36.8169 8.85 36.44C8.68532 36.2871 8.55985 36.0969 8.48419 35.8853C8.40853 35.6738 8.3849 35.4471 8.4153 35.2245C8.44571 35.0019 8.52924 34.7898 8.65886 34.6063C8.78848 34.4228 8.96036 34.2731 9.16 34.17C9.56705 33.9223 9.99542 33.7115 10.44 33.54C12.72 32.54 14.99 31.63 17.28 30.69C17.73 30.5 18.07 30.32 18.19 29.69C18.3553 29.2897 18.6289 28.9434 18.98 28.69C22.4333 25.5633 25.8767 22.44 29.31 19.32C31.31 17.45 33.36 15.58 35.37 13.7C35.6117 13.456 35.8141 13.176 35.97 12.87C36.0311 12.7151 36.123 12.5742 36.2401 12.4559C36.3573 12.3376 36.4972 12.2442 36.6515 12.1816C36.8058 12.1189 36.9712 12.0883 37.1376 12.0914C37.3041 12.0946 37.4682 12.1315 37.62 12.2C40.52 13.11 43.41 14.03 46.31 14.91C47.67 15.32 49.05 15.67 50.43 16C50.7362 16.0402 51.0477 15.9952 51.33 15.87C53.18 15.23 55.02 14.55 56.88 13.92C57.3566 13.7504 57.8549 13.6494 58.36 13.62C59.56 13.55 60.08 14.07 59.98 15.27C59.85 16.72 59.67 18.16 59.5 19.61C59.5 19.98 59.4 20.36 59.35 20.72L68.86 24.35C69.1984 24.4382 69.5106 24.6064 69.7703 24.8406C70.03 25.0748 70.2296 25.368 70.3521 25.6955C70.4747 26.023 70.5167 26.3752 70.4745 26.7223C70.4324 27.0694 70.3074 27.4013 70.11 27.69C69.11 29.35 67.92 30.95 66.81 32.57C66.64 32.83 66.46 33.08 66.24 33.4C66.55 33.62 66.82 33.83 67.11 34.01C67.7302 34.3371 68.2386 34.842 68.57 35.46C68.6799 35.6486 68.8484 35.7962 69.05 35.88C70.17 36.42 71.28 36.94 72.41 37.43C72.6823 37.5164 72.9647 37.5668 73.25 37.58C73.4317 37.5995 73.6075 37.6556 73.7668 37.745C73.9261 37.8345 74.0656 37.9553 74.1769 38.1002C74.2881 38.2451 74.3688 38.4111 74.4141 38.5881C74.4593 38.7651 74.4681 38.9495 74.44 39.13C74.44 39.96 73.99 40.53 73.21 40.53C72.9425 40.5232 72.6763 40.5701 72.4272 40.668C72.1781 40.7659 71.9513 40.9128 71.76 41.1C71.1998 41.567 70.6719 42.0715 70.18 42.61C69.2074 43.7894 67.9316 44.6814 66.49 45.19C66.2844 45.2709 66.0841 45.3644 65.89 45.47L65.77 45.54C65.87 46.7 65.95 47.74 66.03 48.77C66.15 50.29 66.24 51.77 66.41 53.31C66.4359 54.1313 66.2894 54.9488 65.98 55.71C65.8882 55.9517 65.7183 56.1557 65.4972 56.2898C65.2762 56.4238 65.0167 56.4802 64.76 56.45C62.7 56.45 60.64 56.38 58.59 56.31C57.59 56.31 56.71 56.15 55.74 56.07C55.64 56.3 55.56 56.47 55.5 56.64C54.62 59.42 53.72 62.19 52.86 64.97C52.53 66.04 52.42 66.19 51.34 66.31C51.34 66.31 51.27 66.31 51.25 66.31C50.19 66.94 49.25 66.36 48.41 65.9C46.41 64.9 44.41 63.8 42.35 62.74L41.67 62.43ZM57.36 16.37C56.87 16.54 56.54 16.63 56.23 16.76C54.36 17.54 52.49 18.3 50.63 19.12C44.79 21.71 38.97 24.37 33.11 26.92C26.55 29.78 20 32.55 13.37 35.36C13.12 35.47 12.89 35.6 12.49 35.8C14.43 36.8 16.17 37.8 18 38.53C20.22 39.46 22.5 40.23 24.78 41.01C33.49 44.01 42.28 46.76 50.78 50.29C50.95 50.36 51.14 50.4 51.38 50.47C51.45 50.06 51.54 49.7 51.59 49.32C52.06 46.03 52.45 42.73 53 39.46C54.07 33.06 55.21 26.67 56.66 20.34C57 19.09 57.12 17.8 57.36 16.37ZM64.83 35.37C63.83 36.71 62.89 37.85 62.04 39.02C59.84 42.02 57.69 45.1 55.47 48.11C54.6269 49.0438 54.1109 50.2268 54 51.48C54.0165 51.7668 53.9579 52.0528 53.83 52.31C53.63 52.65 53.37 53.09 53.05 53.18C52.4248 53.391 51.7536 53.4256 51.11 53.28C50.8277 53.1463 50.5083 53.1131 50.2046 53.1859C49.9008 53.2586 49.6311 53.433 49.44 53.68L46.29 57C46.1715 57.1477 46.0708 57.3088 45.99 57.48C45.8512 57.84 45.5756 58.1305 45.2233 58.2879C44.871 58.4453 44.4708 58.4568 44.11 58.32C43.74 58.23 43.39 58.08 43.02 57.99C40.35 57.32 37.69 56.63 35.02 55.99C30.8093 54.9135 26.6683 53.581 22.62 52C20.9 51.37 19.17 50.77 17.44 50.15C17.21 51.34 17.2 51.33 16.21 52.08C15.22 52.83 14.4 53.52 13.33 54.37C13.5265 54.3807 13.7235 54.3807 13.92 54.37L18.65 54.03C19.83 53.93 20.12 54.12 20.52 55.36C21.52 55.44 21.76 56.22 21.92 57.07C22 57.54 22.1 58 22.22 58.46C22.34 58.92 22.5 59.29 22.58 59.72C22.72 60.38 22.81 61.05 22.95 61.86C23.39 61.58 23.66 61.37 23.95 61.21C25.2833 60.47 26.65 59.74 28.05 59.02C28.2949 58.8686 28.5771 58.7884 28.865 58.7884C29.1529 58.7884 29.4351 58.8686 29.68 59.02C29.8106 59.11 29.9621 59.1651 30.12 59.18C30.3688 59.2295 30.6024 59.3368 30.8022 59.4931C31.0019 59.6494 31.1622 59.8504 31.27 60.08C31.52 60.52 31.73 60.99 31.98 61.43C32.85 62.93 33.73 64.43 34.61 65.93C34.7603 66.1462 34.9275 66.3502 35.11 66.54L35.72 65.73C37.03 63.98 38.33 62.22 39.64 60.48C39.9432 60.1178 40.2778 59.7832 40.64 59.48C40.7524 59.3543 40.8922 59.2561 41.0486 59.193C41.205 59.1299 41.3739 59.1036 41.542 59.1162C41.7102 59.1287 41.8733 59.1798 42.0186 59.2654C42.1639 59.3511 42.2875 59.469 42.38 59.61C42.6864 60.0114 43.0984 60.3195 43.57 60.5C44.31 60.86 45.04 61.23 45.79 61.58L50.53 63.87C50.64 63.5 50.73 63.24 50.8 62.98C51.27 61.33 51.71 59.68 52.19 58.04C52.3827 57.2399 52.6506 56.4598 52.99 55.71C53.3366 54.9718 53.8339 54.3143 54.45 53.78C54.85 53.47 55.59 53.57 56.18 53.58C58.49 53.58 60.8 53.68 63.11 53.72C63.3875 53.7146 63.6646 53.6946 63.94 53.66C63.94 53.48 63.94 53.38 63.94 53.29L63.22 46.11C63.19 45.9283 63.1397 45.7505 63.07 45.58C62.9863 45.4162 62.9381 45.2366 62.9284 45.0529C62.9188 44.8692 62.9479 44.6855 63.0139 44.5138C63.08 44.3421 63.1814 44.1863 63.3117 44.0564C63.442 43.9265 63.5981 43.8255 63.77 43.76C64.55 43.34 65.35 42.97 66.12 42.53C66.597 42.2851 67.0378 41.9755 67.43 41.61C68.21 40.83 68.92 39.98 69.7 39.11L69 38.73C68.21 38.26 67.41 37.81 66.65 37.3C66.3348 37.043 66.0496 36.7511 65.8 36.43C65.46 36.11 65.2 35.78 64.83 35.34V35.37ZM9.53 44.1C10.59 44.56 11.53 45.04 12.53 45.41C16.41 46.86 20.31 48.28 24.2 49.71C28.8081 51.4929 33.5538 52.8976 38.39 53.91C40.03 54.22 41.63 54.77 43.26 55.18C43.581 55.308 43.939 55.308 44.26 55.18C45.475 54.2215 46.6027 53.1574 47.63 52L46.49 51.52C39.38 48.66 32.06 46.39 24.81 43.91C21.0863 42.7959 17.4688 41.3536 14 39.6C13.8973 39.5575 13.7898 39.5273 13.68 39.51L9.53 44.1ZM55.36 43.56C59.21 37.85 63.74 32.66 67.45 26.81L58.81 23.09C57.5 30 56 36.68 55.36 43.56ZM37.43 14.94C37.12 15.3 36.81 15.75 36.43 16.13C34.3 18.21 32.18 20.29 30.01 22.34C28.37 23.88 26.68 25.34 25.01 26.86C24.77 27.08 24.57 27.32 24.35 27.55C31.86 24.55 39.17 21.32 46.58 17.92L37.43 14.94Z" fill="black"/>
<path d="M9.53 44.1L13.65 39.51C13.7598 39.5273 13.8673 39.5575 13.97 39.6C17.4491 41.3484 21.0767 42.784 24.81 43.89C32.06 46.37 39.38 48.64 46.49 51.5L47.63 51.98C46.595 53.1279 45.4606 54.182 44.24 55.13C43.919 55.258 43.561 55.258 43.24 55.13C41.61 54.72 40.01 54.13 38.37 53.86C33.5338 52.8476 28.7881 51.4429 24.18 49.66C20.29 48.23 16.39 46.81 12.51 45.36C11.55 45 10.59 44.56 9.53 44.1Z" fill="black"/>
<path d="M55.36 43.56C56 36.68 57.5 30 58.81 23.09L67.45 26.81C63.74 32.66 59.21 37.85 55.36 43.56Z" fill="black"/>
<path d="M37.43 14.94L46.58 17.94C39.17 21.34 31.86 24.61 24.35 27.57C24.57 27.34 24.77 27.1 25.01 26.88C26.68 25.37 28.37 23.88 30.01 22.36C32.18 20.31 34.3 18.23 36.43 16.15C36.81 15.75 37.12 15.3 37.43 14.94Z" fill="black"/>
</svg>
