<?xml version="1.0" encoding="utf-8"?>
<!-- Generator: Adobe Illustrator 24.3.0, SVG Export Plug-In . SVG Version: 6.00 Build 0)  -->
<svg version="1.1" id="Layer_1" xmlns="http://www.w3.org/2000/svg" xmlns:xlink="http://www.w3.org/1999/xlink" x="0px" y="0px"
	 viewBox="0 0 80 80" style="enable-background:new 0 0 80 80;" xml:space="preserve">
<path d="M12.2,51.7c-2.4-1.1-4.6-1.8-6.8-2.9c-1-0.6-1-1.3-0.3-2.3c1.3-2,3.5-2.9,5.3-4.2c-4.8-1.8-7.3-3.4-1.5-6.7
	C21.3,28,33.8,20.4,46.2,12.8c0.8-0.5,1.2-0.5,2,0.1c5.6,2,11.4,3.7,16.9,6c1.9,0.8,4,1.3,5.9,2.1c0.6,0.3,1,1.1,0.6,1.7
	c-0.1,0.4-0.6,0.5-0.7,0.9c-0.2,0.6-0.4,1.3-0.7,1.9c1.2,0.4,2.7,0.7,4,0.9c0.8,0.1,1.4,0.8,1.5,1.5c0.2,0.7-0.1,1.5-0.7,1.8
	c-1.3,1-2.5,1.9-3.9,2.9c1.7,0.5,3.3,0.5,4.7,1.6c0.5,0.3,0.7,1,0.5,1.6c-0.1,0.2-0.2,0.4-0.1,0.6c0.4,1.7-1.7,2.6-2.7,3.6
	C62,48,51,56.6,39.8,64.7c-1.6,1.2-3.1,2.4-4.6,3.7c-0.5,0.5-1.3,0.8-2,0.5c-2.9-1-5.8-1.7-8.8-2.2c-4.8-1-9.2-3.3-13.5-5.4
	c-1.5-0.9-3.1-1.9-3.9-3.4c-0.2-0.5,0.1-0.9,0.2-1.4c0-0.7,0.4-1.3,1-1.6C9.5,53.8,10.8,52.8,12.2,51.7z M9,38.7
	c5,1.8,9.6,4,14.7,5.4c3.1,0.8,6.2,1.6,9.3,2.5c0.4,0.2,1,0.1,1.3-0.3c6.4-5.2,13.5-9.5,20.3-14.2c4.6-3.2,9.7-5.7,14.1-9.2
	c-7.2-2.4-14.3-5.4-21.5-7.6C34.4,23.1,21.8,31,9,38.7z M7.9,47.2c8.3,3.4,16.9,5.9,25.7,7.7c0.2,0,0.4,0,0.6-0.1
	c9.6-5.9,19-12.3,28-18.9c3.1-2.5,6.5-4.7,9.7-7c-1.5-0.5-2.9-0.9-4.3-1.3c-0.3-0.1-0.6,0-0.8,0.2c-2.8,1.7-5.6,3.4-8.4,5.2
	C50.4,38.5,42,43.7,34.2,49.6c-0.5,0.5-1.3,0.6-1.8,0c-0.3-0.3-0.7-0.6-1.1-0.6c-2.9-0.8-5.7-1.4-8.5-2.3s-5.7-2-8.6-3.1
	c-0.5-0.2-1.1-0.2-1.5,0.2C11,44.9,9.5,45.9,7.9,47.2z"/>
</svg>
