<svg width="80" height="80" viewBox="0 0 80 80" fill="none" xmlns="http://www.w3.org/2000/svg">
<path d="M12.17 51.7C10.27 50.9 8.52 50.18 6.78 49.44C6.30566 49.2437 5.84468 49.0165 5.4 48.76C4.4 48.15 4.4 47.45 5.08 46.47C6.22 44.67 8.08 43.82 9.71 42.7L10.36 42.24C9.76 42 9.25 41.84 8.78 41.61C7.9853 41.2678 7.22235 40.8562 6.5 40.38C6.21401 40.2367 5.97248 40.0182 5.80138 39.7479C5.63027 39.4776 5.53605 39.1658 5.52885 38.8461C5.52166 38.5263 5.60175 38.2105 5.76052 37.9329C5.9193 37.6552 6.15075 37.426 6.43 37.27C7.19683 36.6393 8.01276 36.0709 8.87 35.57C15.99 31.23 23.13 26.93 30.25 22.57C35.59 19.32 40.91 16.03 46.25 12.76C47.09 12.25 47.42 12.29 48.25 12.87C48.5131 13.049 48.8036 13.1841 49.11 13.27C54.56 14.87 59.9 16.76 65.17 18.88C66.71 19.5 68.31 19.99 69.89 20.54C70.2849 20.6661 70.6667 20.8302 71.03 21.03C71.2377 21.1228 71.4173 21.2689 71.5503 21.4535C71.6833 21.6381 71.7652 21.8547 71.7875 22.0811C71.8098 22.3076 71.7719 22.5359 71.6775 22.7429C71.5831 22.95 71.4356 23.1283 71.25 23.26C71.1201 23.3649 71.0132 23.4954 70.9358 23.6433C70.8584 23.7912 70.8122 23.9535 70.8 24.12C70.6606 24.6215 70.4555 25.1023 70.19 25.55C70.33 25.55 70.55 25.69 70.78 25.74C71.9 26 73.02 26.27 74.16 26.48C74.5402 26.5386 74.8913 26.718 75.1615 26.9918C75.4317 27.2656 75.6065 27.6191 75.66 28C75.7559 28.341 75.7352 28.7043 75.6011 29.0322C75.4671 29.3601 75.2273 29.6338 74.92 29.81C73.92 30.56 72.92 31.31 71.92 32.07C71.67 32.25 71.44 32.44 71.04 32.75C71.59 32.9 71.94 33.01 72.3 33.09C72.9028 33.1622 73.4983 33.2859 74.08 33.46C74.6694 33.7006 75.227 34.013 75.74 34.39C75.996 34.5595 76.1843 34.8136 76.2721 35.1079C76.3598 35.4022 76.3414 35.7179 76.22 36C76.16 36.21 76.04 36.45 76.1 36.63C76.2042 36.9703 76.1941 37.3354 76.0713 37.6694C75.9485 38.0035 75.7198 38.2881 75.42 38.48C74.7651 39.0974 74.0739 39.6751 73.35 40.21C66.24 45 59.43 50.24 52.53 55.37C48.3 58.5 44.05 61.6 39.84 64.75C38.27 65.92 36.78 67.19 35.28 68.45C35.0312 68.7187 34.7101 68.9098 34.3553 69.0002C34.0005 69.0907 33.6271 69.0767 33.28 68.96C30.3972 67.9668 27.4371 67.2142 24.43 66.71C21.2353 66.0061 18.1437 64.8972 15.23 63.41C13.79 62.7 12.36 61.98 10.92 61.28C9.66288 60.6196 8.5295 59.7468 7.57 58.7C7.30369 58.4871 7.11725 58.1905 7.04099 57.8582C6.96473 57.5259 7.00315 57.1776 7.15 56.87C7.21525 56.7576 7.24974 56.63 7.25 56.5C7.25998 56.1633 7.35744 55.8351 7.53278 55.5475C7.70812 55.26 7.9553 55.023 8.25 54.86C9.53 53.85 10.79 52.81 12.17 51.7ZM9 38.74C10.49 39.31 11.78 39.74 13.06 40.29C16.59 41.64 20.06 43.18 23.71 44.18C26.8 45.02 29.91 45.79 33 46.64C33.2201 46.7173 33.4569 46.7339 33.6856 46.6881C33.9144 46.6424 34.1266 46.536 34.3 46.38C36.04 45.01 37.76 43.62 39.58 42.38C44.58 38.96 49.58 35.61 54.58 32.21C58.98 29.21 63.75 26.79 67.98 23.54C68.17 23.4 68.35 23.25 68.64 23.01L67.17 22.5C66.02 22.09 64.87 21.7 63.73 21.28C58.3967 19.3733 53.0967 17.45 47.83 15.51C47.6105 15.4195 47.3711 15.3885 47.1358 15.4201C46.9006 15.4517 46.6778 15.5448 46.49 15.69C44.71 16.82 43 18 41.26 19C30.92 25.34 20.57 31.6733 10.21 38C9.86 38.16 9.52 38.39 9 38.74ZM9.73 57.22C10.5384 58.0532 11.5127 58.7073 12.59 59.14C13.65 59.6 14.69 60.14 15.73 60.59C18.3538 61.975 21.1289 63.0521 24 63.8C27.1 64.48 30.17 65.28 33.24 66.06C33.3914 66.1049 33.5524 66.1062 33.7045 66.0637C33.8566 66.0213 33.9937 65.9368 34.1 65.82C34.79 65.25 35.46 64.65 36.18 64.11C40.2867 61.0366 44.4033 57.9733 48.53 54.92C56.28 49.17 63.92 43.26 71.91 37.83C72.55 37.39 73.11 36.83 73.76 36.27C72.9 35.65 71.97 35.8 71.18 35.49C70.39 35.18 69.59 34.8 68.76 34.43C68.61 34.53 68.42 34.64 68.24 34.78C66.24 36.26 64.31 37.78 62.31 39.22C54.33 45 46 50.36 37.8 55.85C36.8 56.51 35.8 57.08 34.74 57.68C34.4956 57.867 34.1999 57.9749 33.8925 57.9892C33.5851 58.0035 33.2807 57.9235 33.02 57.76C32.626 57.4907 32.1735 57.3193 31.7 57.26C31 57.14 30.3 57.02 29.62 56.84L15.73 53C15.43 52.92 15.13 52.82 14.8 52.72C13.09 54.21 11.42 55.7 9.69 57.22H9.73ZM7.94 47.15C8.51 47.38 8.86 47.54 9.21 47.67C10.87 48.28 12.51 48.93 14.21 49.5C20.5684 51.7072 27.0659 53.4911 33.66 54.84C33.8764 54.8733 34.0977 54.8346 34.29 54.73C35.21 54.21 36.13 53.73 37.01 53.11C40.12 51.11 43.2 48.97 46.31 46.93C51.75 43.36 57.13 39.69 62.31 35.8C65.31 33.56 68.31 31.25 71.46 29.25C71.6432 29.1119 71.8139 28.958 71.97 28.79C70.45 28.34 69.05 27.9 67.63 27.52C67.3559 27.4694 67.0728 27.5267 66.84 27.68C64.03 29.41 61.2 31.12 58.44 32.93C55.12 35.11 51.87 37.42 48.57 39.62C43.71 42.86 38.81 46.03 34.2 49.62C34.1033 49.7022 33.9995 49.7758 33.89 49.84C33.663 50.0008 33.3839 50.0705 33.108 50.0353C32.832 50.0001 32.5794 49.8626 32.4 49.65C32.1039 49.3113 31.7023 49.0823 31.26 49C28.41 48.25 25.53 47.58 22.72 46.7C19.91 45.82 16.98 44.7 14.12 43.62C13.8802 43.5008 13.611 43.4534 13.3449 43.4836C13.0788 43.5138 12.8271 43.6202 12.62 43.79C11.83 44.38 10.96 44.88 10.15 45.45C9.34 46.02 8.78 46.52 7.94 47.15Z" fill="black"/>
<path d="M9.69 57.22C11.42 55.7 13.09 54.22 14.8 52.7C15.13 52.8 15.43 52.9 15.73 52.98L29.62 56.84C30.3 57.02 31 57.14 31.7 57.26C32.1735 57.3193 32.626 57.4907 33.02 57.76C33.2807 57.9235 33.5851 58.0035 33.8925 57.9892C34.1999 57.9749 34.4956 57.867 34.74 57.68C35.74 57.08 36.81 56.51 37.8 55.85C46 50.36 54.33 45 62.32 39.22C64.32 37.77 66.27 36.22 68.25 34.78C68.43 34.64 68.62 34.53 68.77 34.43C69.6 34.8 70.38 35.17 71.19 35.49C72 35.81 72.91 35.65 73.77 36.27C73.12 36.82 72.56 37.39 71.92 37.83C63.92 43.26 56.29 49.17 48.54 54.92C44.42 57.98 40.3033 61.0433 36.19 64.11C35.47 64.65 34.8 65.25 34.11 65.82C34.0037 65.9368 33.8666 66.0213 33.7145 66.0637C33.5624 66.1062 33.4014 66.1049 33.25 66.06C30.18 65.28 27.11 64.48 24.01 63.8C21.1217 63.0558 18.3297 61.9786 15.69 60.59C14.69 60.09 13.61 59.59 12.55 59.14C11.4728 58.7073 10.4984 58.0532 9.69 57.22Z" fill="black"/>
</svg>
