<svg width="80" height="80" viewBox="0 0 80 80" fill="none" xmlns="http://www.w3.org/2000/svg">
<path d="M17.49 37.05C16.26 36.94 15.09 36.84 13.92 36.72C12.75 36.6 11.44 36.45 10.2 36.3C10.0302 36.2865 9.86661 36.2297 9.72485 36.1352C9.58309 36.0407 9.46783 35.9116 9.39 35.76C9.32613 35.6408 9.25255 35.5271 9.17 35.42C9.02677 35.2569 8.94053 35.0515 8.9243 34.8351C8.90806 34.6186 8.96271 34.4027 9.08 34.22C10.5 31.67 11.93 29.11 13.37 26.57C13.5731 26.2587 13.797 25.9613 14.04 25.68L12.49 23.68L10.66 21.2C10.5641 21.1009 10.4931 20.9803 10.4529 20.8484C10.4127 20.7164 10.4045 20.5767 10.4289 20.441C10.4533 20.3052 10.5097 20.1772 10.5933 20.0674C10.677 19.9577 10.7855 19.8695 10.91 19.81C11.1186 19.6775 11.3072 19.5159 11.47 19.33C12.06 18.7 12.62 18.05 13.2 17.41C13.3069 17.2931 13.424 17.186 13.55 17.09C13.6651 16.9868 13.8061 16.9169 13.9579 16.8879C14.1097 16.8589 14.2666 16.8718 14.4116 16.9253C14.5566 16.9788 14.6843 17.0708 14.781 17.1915C14.8776 17.3121 14.9395 17.4568 14.96 17.61C15.0271 17.917 15.1756 18.2002 15.39 18.43L17.59 21C17.98 20.49 18.34 20 18.72 19.52C18.8363 19.3591 18.9857 19.225 19.1582 19.1266C19.3307 19.0283 19.5223 18.9681 19.72 18.95C20.0016 18.9085 20.2891 18.959 20.5395 19.0942C20.79 19.2293 20.9901 19.4418 21.11 19.7C21.5 20.39 21.98 21.03 22.38 21.7C22.98 22.7 23.54 23.7 24.12 24.7L25.32 26.7C28.4017 25.624 31.6362 25.0501 34.9 25C34.9 24.78 34.9 24.63 34.9 24.48C34.8 23.67 34.67 22.86 34.59 22.05C34.51 21.24 34.92 20.81 35.79 20.85C35.8797 20.8602 35.9703 20.8602 36.06 20.85C38.0971 20.5068 40.1552 20.303 42.22 20.24C42.85 20.19 43.48 20.08 44.11 20.06C44.5132 20.0548 44.9158 20.0951 45.31 20.18C45.538 20.2049 45.7485 20.3141 45.9002 20.4861C46.0519 20.6582 46.1338 20.8807 46.13 21.11C46.25 22.24 46.4 23.36 46.54 24.49C46.54 24.6 46.54 24.71 46.62 24.88L48.37 24.99L56.44 25.54C56.7717 25.5181 57.1043 25.5645 57.4174 25.6763C57.7304 25.7881 58.0172 25.9629 58.26 26.19C58.98 25.38 59.66 24.62 60.35 23.87C60.84 23.34 61.35 22.8 61.85 22.29C62.0059 22.1178 62.2 21.9845 62.4166 21.9006C62.6333 21.8167 62.8665 21.7847 63.0978 21.8071C63.329 21.8294 63.5518 21.9055 63.7484 22.0293C63.945 22.1531 64.1099 22.3211 64.23 22.52C65.23 23.88 66.11 25.24 67.05 26.61C67.2 26.83 67.37 27.04 67.55 27.28C68.23 27 68.87 26.72 69.55 26.46C70.23 26.2 70.7 26 71.3 25.8C71.642 25.6669 72.0197 25.6569 72.3682 25.7719C72.7167 25.8868 73.0143 26.1195 73.21 26.43C73.5112 26.8793 73.725 27.3814 73.84 27.91C73.973 28.7128 74.0266 29.5267 74 30.34C74.0193 30.7869 73.8946 31.2282 73.6444 31.599C73.3942 31.9699 73.0316 32.2506 72.61 32.4C71.83 32.7 71.1 33.11 70.29 33.51L71 34.69C71.43 35.4 71.35 35.61 70.84 36.24C70.6516 36.4784 70.4115 36.6707 70.1377 36.8024C69.8639 36.9341 69.5638 37.0016 69.26 37C67.83 37.1 66.41 37.23 64.99 37.35H64.58C64.64 38.25 64.75 39.13 64.75 40C64.75 43.41 65.09 46.79 65.23 50.19C65.32 52.19 65.38 54.19 65.45 56.19C65.45 56.66 65.33 57.11 65.38 57.59C65.43 58.07 64.89 58.59 64.22 58.73C63.3 58.88 62.38 58.98 61.46 59.1C60.18 59.27 58.89 59.42 57.62 59.62C54.7448 60.0198 51.8423 60.1903 48.94 60.13C46.72 60.13 44.5 60.25 42.28 60.31C41.41 60.31 40.55 60.31 39.69 60.31L34.12 60.54H33.12C30.6 60.62 28.12 60.71 25.57 60.76C24.185 60.8014 22.7996 60.6873 21.44 60.42C20.8591 60.3565 20.3176 60.0953 19.9062 59.6803C19.4948 59.2652 19.2384 58.7215 19.18 58.14C19.07 57.4 19 56.66 18.91 55.93C18.8973 55.818 18.8738 55.7075 18.84 55.6C18.4639 54.1263 18.2064 52.6248 18.07 51.11C17.567 46.5116 17.3832 41.8838 17.52 37.26C17.51 37.29 17.5 37.2 17.49 37.05ZM19.49 37.94C19.4817 38.0332 19.4817 38.1269 19.49 38.22C19.3762 43.0052 19.6236 47.7921 20.23 52.54C20.35 53.41 20.57 54.27 20.72 55.14C20.7303 55.4757 20.7671 55.8101 20.83 56.14C20.9098 56.4363 20.9403 56.7438 20.92 57.05C20.9099 57.4972 21.0095 57.9401 21.21 58.34C21.31 58.53 21.71 58.6 21.99 58.66C23.2577 58.905 24.5505 58.9957 25.84 58.93L31.15 58.75L39.64 58.46C40.64 58.46 41.64 58.4 42.57 58.38C44.57 58.38 46.64 58.24 48.68 58.23C50.9059 58.2811 53.1329 58.2043 55.35 58C57.62 57.73 59.89 57.43 62.16 57.14C62.64 57.08 63.16 56.98 63.58 56.89C63.58 56.52 63.58 56.22 63.52 55.89C63.4 53.33 63.32 50.77 63.17 48.21C62.9251 45.3436 62.8249 42.4666 62.87 39.59C62.8951 39.2038 62.8951 38.8163 62.87 38.43C62.8403 38.0708 62.7903 37.7135 62.72 37.36C62.62 36.92 62.47 36.82 62 36.8C61.3 36.8 60.6 36.75 59.9 36.74C59.5 36.74 59.11 36.8 58.75 36.82C58.75 37.54 58.75 38.15 58.75 38.75C58.7773 38.9762 58.7456 39.2056 58.658 39.4158C58.5703 39.6261 58.4298 39.8101 58.25 39.95C58.1252 40.0745 58.0355 40.2297 57.99 40.4C57.9379 40.5756 57.8352 40.7319 57.6946 40.8493C57.5541 40.9667 57.382 41.04 57.2 41.06C55.52 41.27 53.83 41.48 52.14 41.67C51.8869 41.6853 51.6331 41.6853 51.38 41.67C51.3609 41.845 51.3308 42.0187 51.29 42.19C51.2328 42.4935 51.092 42.775 50.8836 43.0029C50.6751 43.2308 50.4072 43.396 50.11 43.48L49.52 43.64C49.3606 43.7003 49.1897 43.7237 49.02 43.7086C48.8502 43.6934 48.6861 43.6401 48.54 43.5526C48.3938 43.465 48.2693 43.3456 48.1757 43.2031C48.0822 43.0607 48.0222 42.899 48 42.73C47.93 42.42 47.88 42.11 47.82 41.73C43.2 41.94 38.61 41.92 34.09 42.14C34.0389 42.5544 33.962 42.9652 33.86 43.37C33.7862 43.5985 33.6609 43.8071 33.4939 43.9796C33.3269 44.1521 33.1225 44.284 32.8964 44.3651C32.6704 44.4463 32.4288 44.4745 32.1902 44.4476C31.9516 44.4207 31.7223 44.3394 31.52 44.21C31.3148 44.0883 31.1376 43.9248 30.9998 43.7301C30.8619 43.5355 30.7666 43.3139 30.72 43.08C30.64 42.76 30.58 42.43 30.52 42.08C30.32 42.08 30.16 42.03 30.01 42.03C28.4657 42.0223 26.9268 41.848 25.42 41.51C25.1992 41.4664 24.975 41.443 24.75 41.44C24.3543 41.4533 23.9657 41.3319 23.6478 41.0958C23.33 40.8597 23.1016 40.5227 23 40.14C22.8461 39.5986 22.7522 39.0419 22.72 38.48C22.72 38.01 22.72 37.53 22.72 37.06C22.4564 37.1723 22.1759 37.2399 21.89 37.26C21.0322 37.229 20.1861 37.4668 19.47 37.94H19.49ZM56.7 39.17C56.64 35.24 56.58 31.4 56.52 27.52C56.37 27.52 56.22 27.46 56.07 27.45C53.46 27.28 50.86 27.08 48.26 26.94C44.59 26.73 40.92 26.82 37.26 26.87C33.3029 26.8633 29.3645 27.412 25.56 28.5C24.96 28.68 24.82 28.82 24.79 29.44C24.76 30.06 24.79 30.44 24.79 31C24.79 32.59 24.79 34.18 24.79 35.76C24.79 36.65 24.69 37.53 24.66 38.41C24.6636 38.706 24.6972 39.0008 24.76 39.29C24.76 39.57 24.98 39.69 25.27 39.72C25.75 39.72 26.21 39.89 26.69 39.92C27.9 40.02 29.12 40.08 30.37 40.16C30.37 39.71 30.44 39.35 30.49 39C30.5198 38.7489 30.6244 38.5126 30.7902 38.3218C30.9561 38.131 31.1755 37.9945 31.42 37.93C31.6769 37.8482 31.9499 37.8309 32.2151 37.8797C32.4802 37.9286 32.7292 38.042 32.94 38.21C33.1698 38.3297 33.3634 38.5087 33.5006 38.7286C33.6378 38.9484 33.7135 39.201 33.72 39.46C33.72 39.68 33.72 39.9 33.8 40.18C38.47 40.02 43.11 39.99 47.72 39.79C47.78 39.36 47.79 39.01 47.87 38.69C47.9121 38.4297 48.0077 38.181 48.1506 37.9595C48.2936 37.7379 48.4809 37.5484 48.7007 37.4028C48.9205 37.2572 49.1681 37.1587 49.4278 37.1134C49.6876 37.0682 49.9539 37.0773 50.21 37.14C50.3492 37.1394 50.4871 37.168 50.6147 37.2238C50.7423 37.2795 50.8568 37.3614 50.9509 37.464C51.0451 37.5666 51.1167 37.6877 51.1614 37.8196C51.206 37.9515 51.2225 38.0913 51.21 38.23C51.21 38.72 51.29 39.23 51.34 39.71C53.1397 39.6986 54.9342 39.5178 56.7 39.17ZM11.1 34.58C14.58 34.85 17.93 35.2 21.41 35.18C19.52 32.24 17.14 29.88 15.06 27.11L11.1 34.58ZM69.85 31.49C69.1915 30.7741 68.8335 29.8325 68.85 28.86L58.5 33.18C58.4656 33.7694 58.5059 34.3608 58.62 34.94H61.62C62.5511 34.9414 63.467 34.7039 64.28 34.25C65.96 33.37 67.69 32.58 69.4 31.74C69.53 31.68 69.66 31.59 69.85 31.49ZM22.85 33.71C22.85 32.71 22.85 31.76 22.96 30.87C23.0062 30.4953 22.9561 30.1149 22.8143 29.765C22.6726 29.415 22.4439 29.107 22.15 28.87C19.5761 26.4782 17.2324 23.85 15.15 21.02C14.77 20.47 14.31 19.97 13.82 19.36L13.19 20.07L12.55 20.78L22.85 33.71ZM63 24C62.9429 24.0136 62.8887 24.0373 62.84 24.07L58.63 28.51C58.5158 28.6164 58.4387 28.7566 58.41 28.91C58.41 29.69 58.41 30.47 58.41 31.28L65.58 28.11L63 24ZM36.47 22.52L36.74 24.86H44.68L44.42 22L36.47 22.52ZM18.73 22.52L23.16 27.18C22.226 25.0203 21.0945 22.9515 19.78 21L18.73 22.52ZM71.92 27.63C71.49 27.81 71.05 27.76 70.92 28.19C70.8195 28.42 70.771 28.6693 70.7777 28.9202C70.7844 29.1711 70.8463 29.4174 70.9589 29.6417C71.0715 29.866 71.2321 30.0628 71.4294 30.218C71.6266 30.3733 71.8555 30.4832 72.1 30.54C72.2612 29.5756 72.1996 28.587 71.92 27.65V27.63ZM68.63 34.17L66.41 35.22V35.35L69.06 35.03L68.63 34.17Z" fill="black"/>
<path d="M11.1 34.58L15.1 27.11C17.18 29.88 19.56 32.24 21.45 35.18C17.93 35.2 14.58 34.85 11.1 34.58Z" fill="white"/>
<path d="M69.85 31.49C69.66 31.59 69.53 31.68 69.39 31.74C67.68 32.58 65.95 33.37 64.27 34.25C63.457 34.7038 62.5411 34.9414 61.61 34.94H58.61C58.4959 34.3607 58.4556 33.7694 58.49 33.18L68.87 28.86C68.8481 29.8298 69.1988 30.771 69.85 31.49Z" fill="white"/>
<path d="M22.86 33.71L12.56 20.77L13.2 20.06L13.83 19.35C14.32 19.96 14.78 20.46 15.16 21.01C17.2424 23.84 19.5861 26.4682 22.16 28.86C22.4539 29.0969 22.6826 29.405 22.8243 29.7549C22.9661 30.1049 23.0162 30.4852 22.97 30.86C22.86 31.76 22.89 32.67 22.86 33.71Z" fill="black"/>
<path d="M63 24L65.6 28.11L58.43 31.28C58.43 30.47 58.43 29.69 58.43 28.91C58.4587 28.7566 58.5358 28.6164 58.65 28.51L62.88 24C62.9198 23.9951 62.9602 23.9951 63 24Z" fill="black"/>
<path d="M18.73 22.54L19.78 21C21.0935 22.9452 22.2249 25.0072 23.16 27.16L18.73 22.54Z" fill="white"/>
<path d="M71.92 27.65C72.1861 28.5972 72.2306 29.5929 72.05 30.56C71.8055 30.5032 71.5766 30.3933 71.3794 30.238C71.1822 30.0828 71.0215 29.886 70.9089 29.6617C70.7963 29.4375 70.7344 29.1911 70.7277 28.9402C70.721 28.6893 70.7696 28.44 70.87 28.21C71.05 27.78 71.49 27.83 71.92 27.65Z" fill="white"/>
<path d="M68.63 34.19L69.1 35.05L66.45 35.37V35.24L68.63 34.19Z" fill="black"/>
<path d="M39.67 47.75L48.48 47.47C48.9772 47.4515 49.4751 47.4682 49.97 47.52C50.1958 47.5123 50.4175 47.5812 50.5991 47.7156C50.7807 47.8499 50.9114 48.0418 50.97 48.26C51.028 48.423 51.1366 48.5632 51.28 48.66C51.4304 48.7635 51.5547 48.9004 51.6432 49.06C51.7317 49.2197 51.7819 49.3976 51.79 49.58C51.91 50.58 52.06 51.58 52.18 52.58C52.2247 52.8917 52.2247 53.2083 52.18 53.52C52.1502 53.7749 52.0353 54.0123 51.8538 54.1938C51.6723 54.3753 51.4349 54.4902 51.18 54.52C50.9117 54.5615 50.6413 54.5882 50.37 54.6C47.08 54.7 43.8 54.77 40.51 54.9C38.95 54.96 37.4 55.15 35.84 55.25C34.48 55.33 33.12 55.41 31.77 55.42C31.5579 55.4624 31.339 55.4578 31.1288 55.4066C30.9187 55.3553 30.7223 55.2585 30.5535 55.1232C30.3848 54.9878 30.2478 54.8171 30.1521 54.623C30.0565 54.4289 30.0046 54.2163 30 54C29.87 53.5433 29.7896 53.0739 29.76 52.6C29.76 51.6 29.76 50.6 29.76 49.54C29.76 48.48 30.17 48.15 31.17 48.1L39.67 47.75ZM31.86 53.43C33.13 53.36 34.33 53.31 35.52 53.23C36.71 53.15 38.09 52.95 39.38 52.9C42.64 52.78 45.9 52.72 49.16 52.63C49.49 52.63 49.81 52.56 50.1 52.53L49.73 49.26L31.73 50.06C31.6545 51.1848 31.6981 52.3144 31.86 53.43Z" fill="black"/>
<path d="M31.86 53.43C31.7014 52.314 31.6612 51.1844 31.74 50.06L49.74 49.26L50.11 52.53C49.82 52.53 49.5 52.62 49.17 52.63C45.91 52.72 42.65 52.78 39.39 52.9C38.1 52.95 36.82 53.14 35.53 53.23C34.24 53.32 33.13 53.36 31.86 53.43Z" fill="black"/>
</svg>
