<svg width="80" height="80" viewBox="0 0 80 80" fill="none" xmlns="http://www.w3.org/2000/svg">
<path d="M35.53 6.67999H37.65C37.7612 6.71499 37.8749 6.74173 37.99 6.75999C38.6226 6.80137 39.2363 6.9925 39.7805 7.31763C40.3247 7.64276 40.7838 8.09257 41.12 8.62999C41.7037 9.44045 42.0813 10.3809 42.22 11.37L45.85 11.51C46.5073 11.5073 47.1458 11.7288 47.6603 12.1378C48.1748 12.5468 48.5345 13.119 48.68 13.76C48.91 14.48 49.12 15.2 49.32 15.88C49.7971 15.6866 50.2845 15.5197 50.78 15.38C52.1935 15.1318 53.6364 15.0981 55.06 15.28C55.3596 15.2936 55.6465 15.4044 55.8775 15.5957C56.1084 15.787 56.2708 16.0482 56.34 16.34C56.4701 16.9275 56.5305 17.5283 56.52 18.13C56.52 19.25 56.42 20.38 56.52 21.49C56.72 25.56 56.98 29.63 57.22 33.69C57.22 34.21 57.31 34.69 57.35 35.16C57.9725 35.0168 58.584 34.8297 59.18 34.6C59.6665 34.3096 60.1251 33.9748 60.55 33.6C60.6859 33.4807 60.8296 33.3704 60.98 33.27C62.98 32.14 64.98 31.07 66.98 29.88C67.492 29.5842 68.0612 29.401 68.6496 29.3425C69.238 29.2841 69.8322 29.3517 70.3924 29.541C70.9526 29.7302 71.466 30.0367 71.8984 30.4401C72.3308 30.8434 72.6723 31.3343 72.9 31.88C73.13 32.55 73.3 33.23 73.5 33.88V34.28C73.3564 34.974 73.0742 35.632 72.6705 36.2145C72.2667 36.7969 71.7495 37.292 71.15 37.67C70.59 38.07 70 38.45 69.41 38.8C65.8033 40.9333 62.1967 43.0367 58.59 45.11C58.4095 45.1844 58.2597 45.318 58.1652 45.4888C58.0707 45.6596 58.0371 45.8576 58.07 46.05C58.32 49.43 58.57 52.8 58.75 56.18C58.95 60.3 59.09 64.42 59.24 68.55C59.2806 68.751 59.2772 68.9585 59.23 69.1581C59.1828 69.3577 59.0929 69.5448 58.9665 69.7063C58.8402 69.8679 58.6803 70.0001 58.4979 70.094C58.3155 70.1878 58.1149 70.2411 57.91 70.25C56.88 70.4003 55.8409 70.4805 54.8 70.49C53.47 70.49 52.14 70.49 50.8 70.49C46.97 70.62 43.13 70.77 39.3 70.93C38.42 70.93 37.55 71.01 36.67 71.09C34.8 71.26 32.92 71.51 31.04 71.61C27.5645 71.86 24.0755 71.86 20.6 71.61C18.77 71.46 16.89 71.51 15.47 69.97C15.0228 69.5961 14.716 69.0812 14.6 68.51C14.42 66.83 14.2 65.16 14.12 63.51C13.91 58.78 13.75 54.05 13.6 49.32C13.47 45.18 13.44 41.04 13.26 36.9C13.01 31.27 13.17 25.65 13.4 20.03C13.494 19.4033 13.7935 18.8256 14.2514 18.3876C14.7094 17.9496 15.2998 17.6761 15.93 17.61C17 17.4 18.09 17.31 19.18 17.18L24.12 16.63C24.0949 16.2237 24.0949 15.8163 24.12 15.41C24.34 13.7 24.53 13.18 25.96 12.66C27.1 12.25 28.27 11.94 29.45 11.66C29.89 11.54 30.12 11.4 30.18 10.9C30.1933 10.2457 30.3798 9.60669 30.7206 9.04805C31.0614 8.4894 31.5443 8.03114 32.12 7.71999C32.8491 7.38124 33.605 7.10362 34.38 6.88999C34.7568 6.78805 35.1415 6.71781 35.53 6.67999ZM48.19 20.68C47.89 20.68 47.59 20.68 47.29 20.68L44.58 21L37.09 21.74C33.5736 22.0966 30.0314 22.1234 26.51 21.82C26.3779 21.7948 26.2422 21.7948 26.11 21.82C25.11 22.17 24.05 22.55 23.01 22.88C22.9331 22.891 22.8592 22.9171 22.7924 22.9568C22.7256 22.9964 22.6673 23.0489 22.6209 23.1112C22.5744 23.1734 22.5407 23.2442 22.5217 23.3195C22.5027 23.3948 22.4987 23.4731 22.51 23.55C22.51 25 22.51 26.45 22.51 27.9C22.64 34.16 22.75 40.42 22.92 46.69C23.04 50.93 23.24 55.17 23.42 59.41C23.42 60.41 23.55 61.34 23.62 62.41L49.62 62.17C49.29 58.31 48.97 54.54 48.62 50.73L48.28 50.93C46.28 52.1 44.28 53.29 42.21 54.45C41.8 54.69 41.38 54.87 41.21 55.38C41.1423 55.5371 41.0171 55.6623 40.86 55.73C40.0464 56.0532 39.1751 56.2064 38.3 56.18C37.62 56.1 36.95 55.96 36.3 55.86C35.3 55.71 34.36 55.61 33.41 55.42C33.1591 55.3979 32.9169 55.3172 32.7028 55.1844C32.4888 55.0516 32.3089 54.8705 32.1776 54.6555C32.0463 54.4406 31.9672 54.1978 31.9468 53.9467C31.9264 53.6957 31.9652 53.4433 32.06 53.21C32.56 51.46 33.06 49.73 33.63 47.99C33.7168 47.7335 33.8611 47.5002 34.0517 47.3078C34.2423 47.1155 34.4743 46.9691 34.73 46.88C35.3967 46.6 36.0633 46.29 36.73 45.95C40.28 44.13 43.81 42.29 47.36 40.49C47.5932 40.416 47.7911 40.2592 47.9164 40.0491C48.0417 39.839 48.0857 39.5903 48.04 39.35C47.94 35.35 47.85 31.35 47.86 27.35C47.88 25.16 48.08 23 48.19 20.72V20.68ZM55.46 46.84C54.16 47.58 52.97 48.27 51.76 48.92C51.6002 48.9822 51.4669 49.098 51.383 49.2475C51.2991 49.3971 51.2698 49.5712 51.3 49.74C51.7 54 52.08 58.26 52.47 62.51C52.5064 62.7854 52.4849 63.0653 52.4071 63.332C52.3293 63.5986 52.1968 63.8461 52.0181 64.0587C51.8393 64.2713 51.6183 64.4444 51.3689 64.5668C51.1196 64.6893 50.8475 64.7585 50.57 64.77C50.08 64.77 49.57 64.84 49.1 64.85C45.33 64.85 41.56 64.85 37.79 64.94C34.84 64.94 31.89 65.04 28.94 65.03C26.94 65.03 25.01 64.92 23.04 64.84C21.38 64.78 20.95 64.32 20.88 62.66C20.88 61.6 20.74 60.54 20.7 59.48C20.49 54.26 20.25 49.05 20.09 43.83C19.95 39.0833 19.8567 34.3333 19.81 29.58C19.81 27.31 19.87 25.04 19.98 22.77C19.9549 22.2726 20.1163 21.7838 20.4325 21.3991C20.7488 21.0144 21.1972 20.7616 21.69 20.69C22.47 20.46 23.23 20.19 24.01 20C24.42 19.89 24.44 19.7 24.29 19.35C24.06 19.35 23.83 19.35 23.6 19.35L19.42 19.7C18.48 19.77 17.54 19.8 16.6 19.93C15.83 20.03 15.79 20.11 15.81 20.87C15.93 26.93 15.81 32.99 16.07 39.05C16.35 44.92 16.33 50.81 16.54 56.68C16.67 60.3 16.97 63.9 17.21 67.52C17.27 68.52 17.26 68.71 18.56 68.86C19.86 69.01 21.05 68.98 22.3 69.02C25.8687 69.1733 29.4436 69.0831 33 68.75C36.1628 68.3802 39.3458 68.2099 42.53 68.24C43.03 68.24 43.53 68.24 44.04 68.18C47.7835 67.8468 51.5427 67.7233 55.3 67.81C55.69 67.81 56.09 67.81 56.62 67.74L55.46 46.84ZM50.72 38.74C50.7989 38.7298 50.8762 38.7096 50.95 38.68C52.13 38.07 53.31 37.47 54.47 36.83C54.5418 36.7629 54.5972 36.6802 54.6318 36.5883C54.6665 36.4964 54.6796 36.3978 54.67 36.3C54.55 34.47 54.34 32.64 54.26 30.81C54.08 26.5 53.96 22.18 53.82 17.87C53.82 17.87 53.82 17.81 53.76 17.77C53.2 17.77 52.63 17.69 52.06 17.67C51.8772 17.6752 51.6972 17.716 51.53 17.79C51.14 17.98 50.76 18.2 50.31 18.45C50.31 18.45 50.31 18.55 50.31 18.65C50.6763 19.8885 50.7718 21.1913 50.59 22.47C50.59 22.67 50.59 22.88 50.59 23.08C50.59 27 50.59 30.92 50.59 34.84C50.6 36.17 50.68 37.46 50.72 38.78V38.74ZM67.23 37C68 36.52 68.78 36.09 69.51 35.59C69.8657 35.3376 70.1824 35.0343 70.45 34.69C70.5237 34.602 70.5786 34.4998 70.6113 34.3897C70.644 34.2796 70.6538 34.164 70.64 34.05C70.5603 33.6193 70.4294 33.1996 70.25 32.8C70.0958 32.5069 69.8407 32.2796 69.5319 32.1601C69.223 32.0406 68.8813 32.037 68.57 32.15C67.34 32.77 66.13 33.45 64.91 34.15L67.23 37ZM35.88 14C36.1309 14.0121 36.3817 13.9746 36.6181 13.8896C36.8545 13.8047 37.0718 13.6739 37.2575 13.5049C37.4433 13.3358 37.5939 13.1318 37.7007 12.9044C37.8075 12.6771 37.8685 12.4309 37.88 12.18C37.88 11.18 37.02 10.55 35.78 10.54C35.5699 10.5413 35.3621 10.584 35.1685 10.6656C34.9748 10.7472 34.7992 10.8662 34.6516 11.0157C34.5039 11.1652 34.3872 11.3423 34.308 11.5369C34.2288 11.7316 34.1887 11.9399 34.19 12.15C34.24 13.13 34.73 14 35.88 14ZM34.88 53C35.13 53 35.31 53.09 35.49 53.1C36.38 53.19 37.27 53.23 38.15 53.35C38.6 53.41 38.69 53.26 38.63 52.86C38.5155 51.9215 38.1017 51.0449 37.45 50.36C37.1212 50.0771 36.75 49.8476 36.35 49.68C36.273 49.6642 36.1931 49.6698 36.119 49.6963C36.045 49.7227 35.9796 49.769 35.93 49.83C35.61 50.83 35.28 51.87 34.92 53H34.88Z" fill="black"/>
</svg>
