<svg width="80" height="80" viewBox="0 0 80 80" fill="none" xmlns="http://www.w3.org/2000/svg">
<path d="M13 35.7C12.1923 35.5913 11.3936 35.4242 10.61 35.2C9.56653 34.837 8.56162 34.3714 7.61003 33.81C6.55404 33.0778 5.82053 31.967 5.56171 30.7083C5.30289 29.4496 5.53864 28.1395 6.22003 27.05C7.44003 25.05 9.39003 24.21 11.53 23.69C12.102 23.5794 12.6795 23.4993 13.26 23.45C13.26 22.32 13.33 21.17 13.35 20.01C13.35 19.91 13.25 19.81 13.19 19.73C13.0519 19.5927 12.9502 19.4231 12.8942 19.2365C12.8382 19.0499 12.8297 18.8523 12.8694 18.6616C12.9091 18.4709 12.9959 18.2931 13.1217 18.1444C13.2475 17.9957 13.4085 17.8808 13.59 17.81C13.6991 17.7505 13.7972 17.6727 13.88 17.58C14.45 17 14.98 16.39 15.57 15.83C16.51 14.93 17.47 14.06 18.43 13.2C19.2292 12.4678 20.2041 11.9546 21.26 11.71C23.2381 11.3241 25.2452 11.1067 27.26 11.06C35.12 10.53 42.99 10.06 50.85 9.63003C52.46 9.54003 54.08 9.53003 55.69 9.49003C55.9296 9.47004 56.1704 9.47004 56.41 9.49003C56.5961 9.47906 56.7824 9.50645 56.9574 9.5705C57.1325 9.63454 57.2925 9.73389 57.4275 9.86235C57.5625 9.99082 57.6697 10.1457 57.7424 10.3173C57.8151 10.4889 57.8517 10.6737 57.85 10.86C58.03 12.71 58.22 14.55 58.34 16.4C58.85 24.86 58.81 33.33 58.84 41.8V42.57C59.46 42.5 60.04 42.4 60.62 42.36C63.34 42.17 66.07 41.99 68.79 41.82C70.05 41.74 71.31 41.68 72.57 41.65C73.0785 41.6273 73.5876 41.6812 74.08 41.81C74.3056 41.8658 74.5116 41.9824 74.6755 42.1471C74.8394 42.3118 74.955 42.5183 75.0096 42.7442C75.0643 42.97 75.0559 43.2066 74.9855 43.428C74.915 43.6494 74.7852 43.8473 74.61 44C73.72 45 72.81 46 71.91 47L50.48 71.18C50.3437 71.3165 50.2321 71.4755 50.15 71.65C50.0376 71.9343 49.8347 72.1736 49.5725 72.3309C49.3104 72.4882 49.0037 72.5546 48.7 72.52L37.25 72.18L26.13 71.83L11.66 71.39C10.23 71.39 8.81003 71.32 7.39003 71.24C6.99735 71.2228 6.61689 71.0983 6.29003 70.88C6.14811 70.7657 6.03362 70.621 5.95496 70.4566C5.8763 70.2922 5.83547 70.1123 5.83547 69.93C5.83547 69.7478 5.8763 69.5679 5.95496 69.4035C6.03362 69.2391 6.14811 69.0944 6.29003 68.98C7.32336 67.86 8.35669 66.7467 9.39003 65.64C10.73 64.21 12.04 62.73 13.44 61.36C13.6835 61.1645 13.8657 60.9032 13.965 60.6072C14.0643 60.3111 14.0764 59.9928 14 59.69C13.47 59.69 12.93 59.69 12.4 59.58C11.1588 59.4109 9.97472 58.9527 8.943 58.2423C7.91128 57.532 7.06079 56.5892 6.46003 55.49C6.0566 54.6913 5.89651 53.7918 5.99961 52.903C6.10271 52.0141 6.46448 51.1751 7.04003 50.49C7.97979 49.3756 9.1877 48.5188 10.55 48L13.22 47.08L13 35.7ZM16.37 56.89C17.7205 56.7705 19.0314 56.3721 20.22 55.72C19.9872 55.5946 19.7943 55.4061 19.6634 55.1762C19.5326 54.9464 19.469 54.6843 19.48 54.42C19.4937 54.0667 19.5916 53.7217 19.7655 53.4138C19.9395 53.106 20.1844 52.8441 20.48 52.65C21.0808 52.2991 21.755 52.0928 22.4493 52.0477C23.1436 52.0026 23.8389 52.1198 24.48 52.39C24.6914 52.4737 24.8803 52.6057 25.0317 52.7753C25.1831 52.9449 25.2928 53.1475 25.352 53.367C25.4112 53.5865 25.4184 53.8168 25.3729 54.0395C25.3274 54.2623 25.2306 54.4713 25.09 54.65C24.7302 55.1678 24.3217 55.65 23.87 56.09C22.3719 57.5778 20.4876 58.6169 18.43 59.09L16.55 59.44L16.79 63.52H17.26C21.6 63.28 25.94 63.02 30.26 62.79C36.0867 62.5234 41.93 62.26 47.79 62C48.21 62 48.39 61.74 48.51 61.37C48.63 61 48.83 60.48 48.99 60.03C49.0244 59.93 49.0446 59.8257 49.05 59.72C49.05 57.05 49.05 54.38 49.05 51.72C49.05 46.99 49.05 42.26 49.11 37.53L49.2 20.32V19.17L15.73 19.81V32.92C16.6407 32.7264 17.4997 32.3413 18.25 31.79C17.51 30.53 17.91 29.56 19.25 29.19C19.5423 29.1076 19.8396 29.0442 20.14 29C20.6196 28.8815 21.126 28.9447 21.5617 29.1773C21.9974 29.41 22.3317 29.7956 22.5 30.26C22.5822 30.7312 22.4866 31.2161 22.2316 31.6207C21.9766 32.0253 21.5805 32.3209 21.12 32.45C20.9454 32.5167 20.793 32.6311 20.68 32.78C20.1735 33.6023 19.4163 34.2403 18.52 34.6C17.58 34.99 16.61 35.3 15.6 35.67C15.66 42.68 15.78 49.75 16.37 56.89ZM51.66 58.15L51.76 58.23C51.82 58.14 51.86 58.04 51.93 57.95C53.32 56.28 54.7 54.61 56.11 52.95C56.2419 52.8043 56.3434 52.6337 56.4087 52.4483C56.4739 52.2628 56.5016 52.0663 56.49 51.87C56.39 49.05 56.25 46.22 56.24 43.39C56.24 33.9 56.16 24.39 55.72 14.93C55.72 14.81 55.72 14.7 55.66 14.52C54.29 16.28 52.95 17.97 51.66 19.68C51.5647 19.8397 51.5194 20.0243 51.53 20.21C51.53 21.21 51.6 22.13 51.6 23.09C51.6 28.81 51.6 34.53 51.6 40.25C51.6 46.1567 51.6167 52.0667 51.65 57.98C51.6477 58.0369 51.6511 58.0938 51.66 58.15ZM54.46 12.15L54.4 12.02C53.11 12.02 51.82 12.11 50.53 12.18L40.63 12.71L33 13.18C29.8467 13.3467 26.7034 13.53 23.57 13.73C23.2896 13.7937 23.0201 13.8981 22.77 14.04C22.42 14.17 22.06 14.43 21.77 14.39C21.5349 14.354 21.2946 14.3721 21.0675 14.4432C20.8405 14.5143 20.6327 14.6363 20.46 14.8C19.56 15.55 18.68 16.31 17.79 17.06C17.6884 17.1292 17.5772 17.1831 17.46 17.22L17.58 17.37C18.58 17.31 19.58 17.21 20.58 17.18C25.95 17.07 31.32 16.98 36.69 16.86C41.34 16.76 45.98 16.62 50.63 16.49C50.8084 16.458 50.9706 16.3663 51.09 16.23C51.6 15.65 52.09 15.05 52.57 14.46C53.2 13.71 53.83 13 54.46 12.19V12.15ZM13.09 25.79C12.6985 25.8347 12.3107 25.9082 11.93 26.01C10.5447 26.298 9.31141 27.0799 8.46003 28.21C8.24877 28.5123 8.10617 28.8572 8.0422 29.2204C7.97823 29.5836 7.99445 29.9564 8.08971 30.3127C8.18498 30.669 8.35699 31.0002 8.5937 31.283C8.8304 31.5658 9.12609 31.7935 9.46003 31.95C10.0681 32.2659 10.7 32.5334 11.35 32.75C11.9363 32.9027 12.5305 33.0229 13.13 33.11L13.09 25.79ZM13.3 49.52C12.5385 49.7799 11.7966 50.094 11.08 50.46C10.3275 50.9078 9.62953 51.4414 9.00003 52.05C8.71001 52.359 8.52564 52.7522 8.47352 53.1727C8.4214 53.5933 8.50422 54.0196 8.71003 54.39C9.10634 55.0707 9.64624 55.6568 10.2921 56.1075C10.938 56.5583 11.6744 56.8629 12.45 57C12.8938 57.0643 13.3416 57.0977 13.79 57.1L13.3 49.52Z" fill="black"/>
<path d="M32.27 36.45C31.59 36.45 30.44 36.45 29.27 36.45C29.0479 36.466 28.8249 36.4344 28.6159 36.3576C28.4068 36.2807 28.2166 36.1602 28.0577 36.0042C27.8988 35.8481 27.7749 35.66 27.6943 35.4524C27.6137 35.2448 27.5781 35.0224 27.59 34.8C27.52 33.32 27.42 31.8 27.49 30.36C27.4889 30.088 27.5474 29.8191 27.6615 29.5722C27.7756 29.3253 27.9425 29.1064 28.1503 28.9309C28.3582 28.7555 28.602 28.6278 28.8646 28.5568C29.1271 28.4858 29.4021 28.4732 29.67 28.52C32.6 28.62 35.54 28.74 38.48 28.81C39.76 28.81 41.04 28.81 42.31 28.81C42.95 28.81 43.59 28.81 44.22 28.89C44.618 28.8953 44.998 29.0564 45.2784 29.3387C45.5589 29.621 45.7175 30.0021 45.72 30.4C45.8 31.2 45.88 31.99 45.88 32.79C45.9395 33.154 45.9174 33.5266 45.8154 33.881C45.7133 34.2354 45.5338 34.5627 45.2898 34.8392C45.0458 35.1157 44.7434 35.3346 44.4045 35.48C44.0656 35.6254 43.6986 35.6938 43.33 35.68C41.68 35.85 40.02 35.95 38.33 36.07L32.27 36.45Z" fill="black"/>
</svg>
