<svg width="80" height="80" viewBox="0 0 80 80" fill="none" xmlns="http://www.w3.org/2000/svg">
<path d="M64 65.83C65 65.83 66 65.83 67 65.83C69.18 65.83 71.35 65.73 73.52 65.72C73.9181 65.7812 74.3053 65.8991 74.67 66.07C74.8318 66.14 74.999 66.1969 75.17 66.24C76.52 66.4 77.17 67.24 77.09 68.87C77.09 69.76 77.02 70.64 76.97 71.52C76.87 73.14 76.17 73.93 74.8 73.88C71.8 73.76 68.88 73.57 65.91 73.49C63.91 73.49 61.85 73.49 59.82 73.57L51.5 73.63C48.5 73.63 45.5 73.63 42.5 73.72C40.05 73.78 37.59 73.94 35.14 74.05C29.14 74.31 23.14 74.55 17.09 74.84C14.4 74.97 11.73 75.22 9.09002 75.38C8.47287 75.4201 7.85327 75.4 7.24002 75.32C6.75456 75.2278 6.32043 74.9592 6.0213 74.5659C5.72217 74.1726 5.57922 73.6824 5.62002 73.19C5.62002 71.91 5.62002 70.62 5.78002 69.34C5.82911 68.7557 6.07573 68.2057 6.47926 67.7803C6.88279 67.355 7.41916 67.0798 8.00002 67H14.5L14.92 55.79L14.78 55.63C14.7455 55.764 14.6986 55.8946 14.64 56.02C13.4 57.83 12.17 59.64 10.91 61.44C10.5516 61.9679 10.1394 62.4572 9.68002 62.9C9.53554 63.0765 9.35246 63.2175 9.14489 63.3121C8.93732 63.4067 8.7108 63.4524 8.48279 63.4456C8.25478 63.4389 8.03137 63.3798 7.82977 63.2731C7.62818 63.1664 7.45378 63.0148 7.32002 62.83C6.89002 62.39 6.43002 62 6.00002 61.57C5.60854 61.207 5.35554 60.7191 5.28438 60.19C5.21322 59.6609 5.32835 59.1235 5.61002 58.67C5.68122 58.5487 5.71916 58.4107 5.72002 58.27C5.70409 57.9649 5.7499 57.6598 5.85472 57.3728C5.95953 57.0858 6.1212 56.823 6.33002 56.6C9.07002 53.25 11.78 49.88 14.56 46.6C15.1311 45.9507 15.4255 45.1036 15.38 44.24C15.38 43.24 15.44 42.18 15.49 41.15C15.55 39.84 16.16 39.15 17.26 39.32C19.6 39.58 21.93 39.86 24.26 40.14C24.9111 40.3309 25.5824 40.445 26.26 40.48C26.93 40.41 27.42 41.16 27.49 42.09C27.68 44.65 27.86 47.2 28.02 49.76C28.12 51.31 28.1 51.32 29.3 51.9C30.2 52.33 31.1 52.75 32 53.2C32.1152 53.2636 32.2488 53.2854 32.3782 53.2617C32.5076 53.238 32.6249 53.1703 32.71 53.07C32.9772 52.8338 33.1806 52.5341 33.3012 52.1985C33.4218 51.8629 33.4558 51.5022 33.4 51.15C33.29 48.27 33.4 45.38 33.21 42.51C32.9 36.84 32.48 31.19 32.1 25.51C32.04 24.51 31.96 23.45 31.97 22.43C31.97 21.11 32.54 20.28 33.63 20.14C36.4 19.77 39.14 19.14 41.95 19.27C42.0357 19.2628 42.1188 19.2367 42.1932 19.1934C42.2675 19.1502 42.3314 19.091 42.38 19.02C42.5362 18.7466 42.7892 18.5415 43.089 18.4453C43.3888 18.349 43.7138 18.3686 44 18.5C44.3062 18.6295 44.5658 18.849 44.7443 19.1294C44.9229 19.4098 45.0121 19.7378 45 20.07C45.2285 23.6388 45.1717 27.2202 44.83 30.78C44.5471 34.0786 44.4603 37.3911 44.57 40.7C44.6994 40.5934 44.8229 40.4799 44.94 40.36C47.28 37.42 49.6133 34.4667 51.94 31.5C52.0757 31.3001 52.1424 31.0613 52.13 30.82C52.03 26.63 52.34 22.46 52.57 18.28C52.7 15.97 52.57 13.62 52.45 11.28C52.3582 10.5381 52.5016 9.78606 52.86 9.13C52.9771 8.92455 53.1417 8.75015 53.34 8.6214C53.5384 8.49265 53.7647 8.4133 54 8.39C55.41 8.31 56.82 8.18 58.23 8.16C59.64 8.14 60.84 8.25 62.14 8.29C62.3501 8.30074 62.5596 8.25952 62.75 8.17C63.95 7.54 65.07 8.17 65.35 9.7C66.0191 13.0898 66.2577 16.5505 66.06 20C65.81 23.76 65.6 27.51 65.36 31.27C65.3423 31.435 65.3659 31.6019 65.4287 31.7555C65.4916 31.9091 65.5917 32.0447 65.72 32.15C67 33.3 68.28 34.45 69.51 35.68C69.9033 36.1011 70.1701 36.6244 70.28 37.19C70.5178 38.3002 70.4522 39.4539 70.09 40.53C69.69 41.61 68.99 41.95 68.09 41.53C67.99 41.53 67.87 41.4 67.79 41.43C66.79 41.87 65.97 41.26 65.11 40.84L64.73 40.65C63.94 49 64.06 57.4 64 65.83ZM57.86 35.2C57.03 36.2 56.2 37.27 55.4 38.34C55.2013 38.6103 55.0897 38.9347 55.08 39.27C54.9734 47.9367 54.88 56.6033 54.8 65.27C54.8 65.52 54.8 65.76 54.8 65.98C54.89 65.98 54.93 66.05 54.96 66.04C56.86 65.89 58.75 65.73 60.65 65.56C60.94 65.56 61.07 65.36 61.08 64.99C61.08 63.08 61.15 61.17 61.18 59.26C61.24 55.93 61.24 52.61 61.35 49.26C61.46 45.91 61.71 42.46 61.88 39.06C61.8901 38.8296 61.8114 38.604 61.66 38.43C60.43 37.38 59.17 36.32 57.86 35.2ZM34.8 23.2C35.68 31.92 36.19 40.53 36.25 49.28C37.97 47.54 39.59 45.88 41.25 44.28C41.4146 44.1209 41.5413 43.9269 41.6209 43.7123C41.7005 43.4977 41.731 43.2679 41.71 43.04C41.5374 38.023 41.6743 33.0001 42.12 28C42.3 26.18 42.12 24.31 42.12 22.37C39.67 22.08 37.34 23.18 34.8 23.25V23.2ZM52.19 42.2C49.74 44.97 47.38 47.64 45.01 50.28C44.7303 50.5956 44.5866 51.0089 44.61 51.43C44.65 55.6833 44.68 59.9333 44.7 64.18C44.7 64.82 44.65 65.46 44.62 66.05H52C52 58.17 52.11 50.29 52.19 42.29V42.2ZM55.3 11.8C55.82 17.12 54.84 22.42 54.91 27.94C55.27 27.62 55.53 27.41 55.75 27.17C55.97 26.93 56.25 26.51 56.53 26.17C56.7261 25.9417 57.002 25.797 57.3013 25.7654C57.6005 25.7337 57.9006 25.8177 58.14 26C58.97 26.55 59.79 27.13 60.59 27.74C61.39 28.35 61.91 28.82 62.59 29.4C62.7 27.81 62.83 26.31 62.9 24.8C63.04 21.8 63.22 18.8 63.24 15.86C63.1853 14.3466 63.0451 12.8375 62.82 11.34C60.3001 11.1219 57.7614 11.3076 55.3 11.89V11.8ZM17.87 53.06L17.35 66.82L26.35 66.45C26.35 66.31 26.35 66.25 26.35 66.19C26.16 63.45 25.96 60.71 25.78 57.96C25.7861 57.8266 25.751 57.6946 25.6794 57.5819C25.6079 57.4692 25.5033 57.3812 25.38 57.33C23.75 56.48 22.12 55.62 20.51 54.72C19.65 54.23 18.81 53.65 17.87 53.06ZM41.77 54.06L41.45 54.39C39.86 56.03 38.27 57.66 36.69 59.31C36.5529 59.4952 36.4793 59.7196 36.48 59.95C36.48 61.51 36.58 63.06 36.58 64.62C36.58 65.22 36.78 65.5 37.23 65.5C38.57 65.5 39.9 65.5 41.23 65.5C41.7 65.5 41.87 65.28 41.86 64.71C41.86 61.33 41.86 57.94 41.8 54.55C41.81 54.39 41.79 54.27 41.77 54V54.06ZM18.25 42.82C18.25 43.9 18.18 44.9 18.11 45.9C18.0805 46.0414 18.1039 46.1888 18.1758 46.3141C18.2476 46.4395 18.363 46.5341 18.5 46.58C20.36 47.46 22.22 48.36 24.08 49.26L25.24 49.82L24.8 43.6L18.25 42.82ZM33.8 66.5L33.63 60.9L28.69 58.81L29.22 66.5H33.8Z" fill="black"/>
</svg>
