<?xml version="1.0" encoding="utf-8"?>
<!-- Generator: Adobe Illustrator 24.3.0, SVG Export Plug-In . SVG Version: 6.00 Build 0)  -->
<svg version="1.1" id="Layer_1" xmlns="http://www.w3.org/2000/svg" xmlns:xlink="http://www.w3.org/1999/xlink" x="0px" y="0px"
	 viewBox="0 0 80 80" style="enable-background:new 0 0 80 80;" xml:space="preserve">
<path d="M35.5,6.7c0.3,0,2.3,0,2.5,0.1c2.4,0.1,3.9,2.4,4.2,4.6c4.6,0.3,5.9-0.7,7.1,4.5c1.8-0.8,3.8-0.8,5.7-0.6
	c0.3,0,0.6,0.1,0.8,0.3c0.7,0.6,0.6,1.7,0.6,2.5c-0.1,5.7,0.5,11.4,0.8,17c1.4-0.2,2.6-1,3.6-1.9c2-1.1,4-2.2,6-3.4
	c1-0.6,2.3-0.7,3.4-0.3c2,0.6,2.9,2.8,3.1,4.7c-0.3,1.4-1.1,2.6-2.3,3.4c-4.2,2.8-8.9,5-13,7.8c0.2,7.8,1,15.8,1.1,23.7
	c-0.5,1.7-3.1,1.1-4.4,1.3c-6,0-12.1,0.2-18.1,0.6C31.3,71.7,26,72,20.6,71.6c-1.8-0.1-3.7-0.1-5.1-1.6c-0.4-0.4-0.8-0.9-0.9-1.5
	c-0.2-1.7-0.4-3.3-0.5-5c-0.5-14.5-1.4-29-0.7-43.5c0.4-2.8,3.6-2.6,5.8-2.8c0,0,4.9-0.6,4.9-0.6c-0.1-1.7,0.1-3.5,1.8-4
	c1.1-0.4,2.3-0.7,3.5-1c0.4-0.1,0.7-0.3,0.7-0.8C30.2,8.1,33.2,7,35.5,6.7z M48.2,20.7c-0.6-0.1-3,0.2-3.6,0.3c0,0-7.5,0.7-7.5,0.7
	c-3.7,0.4-7.3,0.3-11,0.1c-1.1,0.4-2.2,0.8-3.3,1.1c-0.2,0.1-0.3,0.4-0.3,0.6c0.1,13,0.3,25.9,1.1,38.9l26-0.2
	c-0.3-3.9-0.6-7.6-1-11.4c-2.1,1.2-4.2,2.5-6.4,3.7c-0.4,0.2-0.8,0.4-1,0.9c-0.6,0.8-2,0.7-2.9,0.8c-8.3-1.1-6.8-0.8-4.7-8.2
	c0.5-1.3,2.1-1.4,3.1-2c3.7-2,7.7-3.7,11.2-5.9C48.2,33.6,47.5,27.2,48.2,20.7z M55.5,46.8c-1.3,0.7-2.5,1.4-3.7,2.1
	c-0.3,0.1-0.5,0.5-0.5,0.8c0.4,4.3,0.8,8.5,1.2,12.8c0.1,0.8-0.3,1.7-1.1,2.1c-0.7,0.3-1.5,0.2-2.3,0.3c-6.7,0-13.4,0.1-20.2,0.2
	c-2,0-3.9-0.1-5.9-0.2c-1.7-0.1-2.1-0.5-2.2-2.2c-0.6-13.3-1.4-26.6-0.9-39.9c-0.1-2.2,2.5-2.2,4-2.8c0.4-0.1,0.4-0.3,0.3-0.6
	c-2.2,0.1-5.6,0.4-7.7,0.6c-0.8,0.1-0.8,0.2-0.8,0.9c0.1,6.1,0,12.1,0.3,18.2c0.4,9.5,0.3,19,1.1,28.5c0.1,1,0,1.2,1.3,1.3
	c4.8,0.3,9.6,0.3,14.4-0.1c3.7-0.5,7.4-0.5,11-0.6c4.2-0.5,8.4-0.3,12.6-0.4L55.5,46.8z M50.7,38.7c1.2-0.6,3-1.3,3.9-2.2
	c0-1.9-0.3-3.9-0.4-5.8c-0.2-4.3-0.3-8.6-0.4-12.9c-0.1-0.2-1.3-0.1-1.8-0.2c-0.7,0-1.1,0.5-1.8,0.8c0.4,1.5,0.4,3.1,0.3,4.6
	C50.6,28.3,50.5,33.6,50.7,38.7L50.7,38.7z M67.2,37c1.1-0.8,3.2-1.5,3.4-2.9c-0.2-0.7-0.3-1.6-1.1-1.9c-0.3-0.1-0.7-0.1-1,0
	c-1.2,0.6-2.4,1.3-3.7,2L67.2,37z M35.9,14c2.5,0,2.8-3.5-0.1-3.5C33.6,10.5,33.7,14,35.9,14z M34.9,53c1.1,0.2,2.2,0.2,3.3,0.3
	c0.4,0.1,0.5-0.1,0.5-0.5c-0.2-1.3-1.1-3-2.5-3.2C35.5,50.5,35.4,51.9,34.9,53L34.9,53z"/>
</svg>
