<svg width="80" height="80" viewBox="0 0 80 80" fill="none" xmlns="http://www.w3.org/2000/svg">
<path d="M56.9 8.87998L60.49 9.33998C61.42 9.46998 62.36 9.53998 63.28 9.71998C65.67 10.19 67.28 12.04 68.51 14.72C69.4616 17.1912 70.0445 19.789 70.24 22.43C71 28.6 71.17 34.79 71.31 41C71.43 46 71.73 51 71.96 56.08C72.07 58.43 72.21 60.79 72.36 63.14C72.4121 63.4871 72.5167 63.8242 72.67 64.14C72.9255 64.7264 73.1459 65.3274 73.33 65.94C73.4678 66.4398 73.4061 66.9735 73.158 67.4287C72.9099 67.8839 72.4947 68.2249 72 68.38C70.6022 68.6778 69.1855 68.8783 67.76 68.98C63.53 69.14 59.29 69.14 55.06 69.31C48.79 69.57 42.51 69.94 36.23 70.21C32.23 70.38 28.16 70.44 24.13 70.58C23.3057 70.733 22.4682 70.8033 21.63 70.79C20.497 70.6811 19.4368 70.1828 18.63 69.38C18.2343 68.7692 17.9531 68.0915 17.8 67.38C17.21 65.54 16.66 63.68 16.09 61.84C14.19 55.7133 12.28 49.5833 10.36 43.45C9.35999 40.25 8.28999 37.08 7.22999 33.91C6.72999 32.43 7.40999 31.21 8.64999 31.15C11.77 31.01 14.88 30.77 18.08 30.57C18.08 29.79 18.03 29.23 17.99 28.67C17.95 28.11 17.88 27.8 17.83 27.37C17.44 24.37 18.1 22.97 20.33 22.44C22.06 22.04 23.81 21.8 25.55 21.56C28.81 21.1 32.07 20.68 35.32 20.25C39.5669 19.6385 43.7717 18.7635 47.91 17.63C48.37 17.51 48.6 17.26 48.8 16.63C49.2359 15.1978 49.7946 13.806 50.47 12.47C50.9099 11.5532 51.5671 10.7579 52.3845 10.1531C53.2019 9.54834 54.1547 9.15248 55.16 8.99998C55.35 8.99998 55.54 8.89998 55.73 8.84998L56.9 8.87998ZM21 26.46C21 26.78 21 27.01 21 27.23C21.07 28.76 21.18 30.28 21.21 31.8C21.27 34.8 21.21 37.87 21.34 40.9C21.34 42.24 21.72 43.56 21.77 44.9C21.86 47.62 21.85 50.35 21.88 53.07C21.88 57.14 21.98 61.22 22.01 65.29C22.01 65.96 22.21 66.13 22.67 66.08C23.72 65.96 24.78 65.92 25.82 65.81C29.36 65.43 32.89 64.97 36.43 64.65C38.85 64.44 41.27 64.44 43.68 64.28C48.68 63.96 53.77 63.54 58.82 63.28C62.03 63.12 65.25 63.17 68.47 63.13H69.16C69.07 61.26 68.99 59.5 68.91 57.74C68.66 52.38 68.31 47.02 68.2 41.66C68 34.85 67.78 28.08 67 21.35C66.8769 19.0677 66.1898 16.8515 65 14.9C64.8148 14.5526 64.5576 14.2489 64.2454 14.0091C63.9332 13.7694 63.5733 13.5992 63.19 13.51C60.75 13.34 58.32 13.2 55.89 13.11C55.3896 13.1154 54.8996 13.2534 54.47 13.51C53.7713 13.9016 53.1801 14.4598 52.7492 15.1349C52.3183 15.8101 52.0609 16.5813 52 17.38C51.75 19.63 50.93 21.11 49.26 21.48C45.36 22.36 41.46 23.23 37.56 24.05C35.56 24.46 33.62 24.79 31.65 25.05C28.89 25.42 26.13 25.69 23.38 26.05C22.59 26.13 21.79 26.31 21 26.46ZM11 35L18.65 58.65C18.77 55.79 18.79 52.96 18.77 50.13C18.8174 48.2412 18.754 46.3513 18.58 44.47C18.1857 41.4025 17.9919 38.3126 18 35.22C18 35.02 18 34.82 18 34.7L11 35Z" fill="black"/>
<path d="M24.5 37.38C24.69 35.69 24.83 34.05 25.06 32.38C25.33 30.51 26.06 29.78 27.46 29.73C30.69 29.62 33.93 29.56 37.16 29.42C39.64 29.3 42.16 29.01 44.59 28.96C45.9527 28.9859 47.3108 29.1264 48.65 29.38C49.0726 29.4659 49.4579 29.6817 49.7519 29.9973C50.0459 30.3128 50.2341 30.7123 50.29 31.14C50.6643 32.6569 50.9382 34.197 51.11 35.75C51.1976 36.4548 51.105 37.1703 50.841 37.8296C50.5769 38.4889 50.1499 39.0705 49.6 39.52C48.5797 40.361 47.3197 40.8581 46 40.94C42.06 41.34 38.11 41.68 34.16 42.07C32.16 42.26 30.16 42.54 28.16 42.74C27.5564 42.8016 26.9471 42.7781 26.35 42.67C25.9777 42.5693 25.6467 42.3537 25.4043 42.0538C25.1619 41.7539 25.0204 41.3851 25 41C24.79 39.77 24.66 38.57 24.5 37.38Z" fill="black"/>
</svg>
