<svg width="80" height="80" viewBox="0 0 80 80" fill="none" xmlns="http://www.w3.org/2000/svg">
<path d="M30.41 12.54H31.57C31.6211 12.5796 31.6786 12.61 31.74 12.63C32.4208 12.7781 33.0511 13.1014 33.5685 13.568C34.0859 14.0345 34.4725 14.6281 34.69 15.29C35.1529 16.4 35.2612 17.626 35 18.8L35.45 18.94C36.88 19.29 38.31 19.61 39.72 20C40.72 20.29 41.72 20.71 42.8 21C43.1398 21.1197 43.5102 21.1197 43.85 21C44.3074 20.8263 44.8126 20.8263 45.27 21C45.446 21.054 45.6341 21.054 45.81 21C46.65 20.58 47.47 20.12 48.25 19.69C47.98 18.69 47.68 17.82 47.47 16.89C47.3381 16.3934 47.3711 15.8675 47.5641 15.3913C47.7571 14.9152 48.0996 14.5146 48.54 14.25C49.2203 13.7633 50.0045 13.4413 50.8305 13.3094C51.6565 13.1775 52.5019 13.2393 53.3 13.49C54.494 13.8523 55.6392 14.3594 56.71 15C60.8018 17.393 64.6736 20.1438 68.28 23.22C71.183 25.6174 73.8608 28.2751 76.28 31.16C77.9281 33.0784 79.0055 35.4203 79.39 37.92C79.5641 38.7766 79.3913 39.6672 78.9095 40.3965C78.4277 41.1258 77.6762 41.6342 76.82 41.81C74.6205 42.1548 72.3687 41.7684 70.41 40.71C69.0007 42.6039 67.3988 44.3466 65.63 45.91C64.95 46.59 64.25 47.25 63.55 47.91C63.4438 47.9926 63.3691 48.1091 63.3381 48.2401C63.3072 48.371 63.322 48.5086 63.38 48.63C63.6345 49.4228 63.8022 50.241 63.88 51.07C63.8738 52.7367 63.4729 54.3782 62.71 55.86C60.9577 59.5366 58.4776 62.8195 55.42 65.51C52.908 67.9549 49.9561 69.9025 46.72 71.25C45.3672 71.6979 43.992 72.0751 42.6 72.38H41.33C40.8474 72.3056 40.3746 72.1782 39.92 72C39.15 71.63 38.43 71.15 37.63 70.68C36.9192 71.1249 36.1269 71.4238 35.2994 71.5595C34.4719 71.6951 33.6257 71.6647 32.81 71.47C29.2328 70.898 25.9113 69.26 23.28 66.77C19.42 63.33 17 59 15 54.26C14.363 52.8826 14.1775 51.3391 14.47 49.85C14.7 48.85 15.06 47.85 15.38 46.75L11.2 41.89H9.79C9.67069 41.889 9.55215 41.9093 9.44 41.95C8.02093 42.4722 6.48837 42.6068 5 42.34C4.13646 42.2488 3.32867 41.8698 2.70655 41.264C2.08443 40.6582 1.68412 39.8608 1.57 39C1.57 38.78 1.48 38.56 1.44 38.34V37.61C1.5 37.33 1.54 37.06 1.61 36.79C2.24561 34.1777 3.3983 31.7193 5 29.56C6.27128 27.8919 7.66514 26.3209 9.17 24.86C11.2598 22.5776 13.609 20.5472 16.17 18.81C18 17.63 20 16.57 22 15.5C23.5987 14.5606 25.3086 13.8249 27.09 13.31C28.17 13 29.29 12.8 30.41 12.54ZM17.29 44.63L20.38 43.4C20.5111 43.3555 20.633 43.2878 20.74 43.2C21.0326 42.9055 21.4199 42.7238 21.8335 42.6872C22.247 42.6506 22.6602 42.7614 23 43L25.82 44.72C27.63 45.6795 29.258 46.9487 30.63 48.47C31.1 49.04 31.63 49.57 32.1 50.12C35.6338 54.0558 38.093 58.8364 39.24 64C39.3586 64.3968 39.5056 64.7844 39.68 65.16C39.7262 65.2709 39.75 65.3899 39.75 65.51C39.7688 66.1188 39.732 66.728 39.64 67.33C39.5953 67.5607 39.5969 67.7979 39.6448 68.0279C39.6928 68.2579 39.786 68.4761 39.9191 68.6697C40.0522 68.8633 40.2225 69.0285 40.4201 69.1556C40.6177 69.2827 40.8386 69.3692 41.07 69.41C43 69.73 44.7 69.04 46.51 68.29L45.77 67.85C45.21 67.51 44.65 67.19 44.12 66.85C43.8775 66.6899 43.69 66.4593 43.5827 66.1893C43.4754 65.9193 43.4535 65.6228 43.52 65.34C43.564 65.1016 43.6862 64.8846 43.8673 64.7234C44.0484 64.5622 44.2781 64.466 44.52 64.45C44.9322 64.4872 45.3314 64.6135 45.69 64.82C46.81 65.35 47.9 65.91 49.01 66.46C49.1406 66.5312 49.2905 66.5589 49.438 66.5391C49.5854 66.5193 49.7228 66.4531 49.83 66.35L53.32 63.58C53.43 63.49 53.52 63.37 53.63 63.26C53.01 62.95 52.44 62.64 51.86 62.37C51.3658 62.131 50.8583 61.9207 50.34 61.74C50.0551 61.6293 49.8088 61.4379 49.6312 61.1892C49.4535 60.9405 49.3523 60.6454 49.34 60.34C49.2812 60.0991 49.2997 59.8457 49.3931 59.6159C49.4864 59.3862 49.6498 59.1917 49.86 59.06C50.0799 58.9159 50.3371 58.8391 50.6 58.8391C50.8629 58.8391 51.1201 58.9159 51.34 59.06C52.68 59.72 54.05 60.34 55.4 60.98C55.4509 61.0126 55.5079 61.0346 55.5674 61.0447C55.627 61.0548 55.6881 61.0528 55.7469 61.0388C55.8057 61.0248 55.861 60.9991 55.9097 60.9632C55.9583 60.9273 55.9992 60.882 56.03 60.83C56.43 60.31 56.9 59.83 57.29 59.29C58.03 58.29 58.74 57.21 59.49 56.11L59 56C57.7582 55.6923 56.5871 55.1491 55.55 54.4C55.3162 54.2572 55.131 54.0472 55.0186 53.7974C54.9062 53.5476 54.8718 53.2697 54.92 53C55.11 52 56.21 51.71 57.16 52.4C58.1964 53.0649 59.3749 53.4761 60.6 53.6C60.9979 52.5903 61.1355 51.4968 61 50.42C60.9321 50.0498 60.7663 49.7046 60.52 49.42C60.1287 49.0602 59.7145 48.7262 59.28 48.42L49.63 40.42C48.66 39.4094 47.5799 38.5105 46.41 37.74C44.6281 38.9118 42.7065 39.8558 40.69 40.55C39.2207 41.1139 37.6636 41.4152 36.09 41.44C34.8764 41.4192 33.696 41.041 32.6963 40.3526C31.6967 39.6642 30.9223 38.6963 30.47 37.57C30.152 36.6104 30.0516 35.5921 30.1762 34.5888C30.3007 33.5856 30.647 32.6227 31.19 31.77C32.4297 29.7666 34.1216 28.0816 36.13 26.85C36.7541 26.542 37.3384 26.1592 37.87 25.71C38.3467 25.284 38.9145 24.9727 39.53 24.8C40.05 24.56 40.53 24.23 41.14 23.87L40.77 23.7C36.55 22.6 32.34 21.45 28.1 20.41C27.5669 20.2454 27.0037 20.2022 26.4517 20.2836C25.8998 20.3649 25.373 20.5687 24.91 20.88C21.36 23.7 17.83 26.54 14.41 29.51C12.828 30.9296 11.5901 32.6908 10.79 34.66C10.6217 35.0129 10.5524 35.4048 10.5894 35.7941C10.6263 36.1833 10.7683 36.5551 11 36.87C12.1207 38.5616 13.3676 40.1662 14.73 41.67C15.56 42.69 16.46 43.69 17.29 44.63ZM55 19.36L53.5 19.79C53.3022 19.8458 53.1111 19.9229 52.93 20.02C51.93 20.71 50.86 21.45 49.78 22.09C46.22 24.18 42.64 26.22 39.08 28.3C37.1861 29.3379 35.5118 30.7338 34.15 32.41C33.4256 33.3214 33.0215 34.446 33 35.61C32.985 35.9592 33.043 36.3077 33.1704 36.6331C33.2979 36.9586 33.4919 37.2539 33.74 37.5C34.236 37.973 34.8436 38.3128 35.5063 38.4877C36.169 38.6625 36.8652 38.6668 37.53 38.5C39.5913 38.1805 41.5633 37.4346 43.32 36.31C45.73 34.86 48.06 33.31 50.44 31.79C50.7744 31.5781 51.1642 31.4702 51.56 31.48C51.8186 31.4919 52.0654 31.5915 52.2599 31.7623C52.4543 31.9332 52.5849 32.1651 52.63 32.42C52.7241 32.7156 52.7127 33.0347 52.5978 33.3228C52.483 33.6109 52.2717 33.8503 52 34C51.2 34.59 50.38 35.16 49.56 35.72C49.02 36.1 49 36.37 49.51 36.8L59.51 45.12C60.03 45.55 60.6 45.93 61.17 46.35C62.86 44.7 64.53 43.11 66.17 41.46C66.8472 40.7564 67.4722 40.0044 68.04 39.21C68.83 38.21 69.57 37.07 70.33 36.01L71.87 33.82C71 32.74 70.21 31.69 69.35 30.71C68.3413 29.38 67.2205 28.1388 66 27C63.86 25.26 61.56 23.72 59.29 22.14C57.8 21.15 56.28 20.22 55 19.36ZM24.05 63.71C24.98 64.51 25.86 65.28 26.76 66.03C27.13 66.35 27.52 66.66 28.02 66.21C28.1007 66.1801 28.1893 66.1801 28.27 66.21C28.7353 66.2039 29.1947 66.1043 29.6208 65.917C30.0468 65.7298 30.4308 65.4587 30.75 65.12C32.5214 63.6201 33.8406 61.6569 34.56 59.45C34.5951 59.2845 34.574 59.1121 34.5 58.96C33.89 57.8 33.27 56.65 32.65 55.5C32.5904 55.3996 32.5163 55.3086 32.43 55.23C30.4106 58.7289 27.5247 61.6492 24.05 63.71ZM27.73 49.47C25.91 53.07 23.58 56.07 19.83 57.85L22.25 61.72C23.7386 60.9692 25.0773 59.9525 26.2 58.72C27.9116 57.0814 29.3081 55.1426 30.32 53C30.4 52.83 30.45 52.53 30.32 52.42C29.52 51.44 28.64 50.49 27.73 49.47ZM18.57 55.63C21.94 53.9 23.82 51.02 25.41 47.8C24.41 47.18 23.46 46.56 22.47 46.02C22.112 45.8283 21.6991 45.7648 21.3 45.84C20.0812 46.0498 18.9875 46.7146 18.24 47.7C17.7554 48.3584 17.4224 49.1158 17.2651 49.918C17.1078 50.7203 17.1299 51.5474 17.33 52.34C17.64 53.44 18.14 54.49 18.57 55.63ZM36.2 62.75C34.9001 64.9967 33.0395 66.8677 30.8 68.18C31.2775 68.3344 31.7654 68.4547 32.26 68.54C33.2738 68.6779 34.2982 68.7214 35.32 68.67C35.7262 68.6319 36.1009 68.4352 36.363 68.1226C36.6251 67.8099 36.7534 67.4066 36.72 67C36.7299 66.6647 36.7634 66.3306 36.82 66C37 64.8 36.48 63.86 36.2 62.75Z" fill="black"/>
</svg>
