<?xml version="1.0" encoding="utf-8"?>
<!-- Generator: Adobe Illustrator 24.3.0, SVG Export Plug-In . SVG Version: 6.00 Build 0)  -->
<svg version="1.1" id="Layer_1" xmlns="http://www.w3.org/2000/svg" xmlns:xlink="http://www.w3.org/1999/xlink" x="0px" y="0px"
	 viewBox="0 0 80 80" style="enable-background:new 0 0 80 80;" xml:space="preserve">
<path d="M30.4,12.5c3.4-0.4,5.3,3.3,4.6,6.3c1.6,0.5,3.2,0.8,4.7,1.2c1.3,0.3,2.7,1.3,4.1,1c0.5-0.2,1-0.2,1.4,0
	c1.1,0.1,2-0.9,3-1.3c-0.3-1.5-1.2-2.8-0.7-4.3c0.6-1.2,2-1.8,3.3-2.1c2.1-0.3,4.1,0.7,5.9,1.7c7.3,4.3,14.1,9.7,19.6,16.2
	c1.8,2.2,4.2,6.5,2.6,9.2c-1.9,2.6-6.1,1.5-8.5,0.3c-2,2.7-4.5,4.9-6.9,7.2c-0.2,0.2-0.3,0.5-0.2,0.7c0.9,2.4,0.5,5-0.7,7.2
	c-3.9,7.9-11.3,14.8-20.1,16.5c-1.9,0.2-3.4-0.7-5-1.7c-1.4,0.9-3.2,1.2-4.8,0.8c-8.9-1.4-14.6-9.4-17.8-17.2
	c-1.2-2.5-0.5-5,0.4-7.5l-4.2-4.9c-0.3,0-1.5-0.1-1.8,0.1c-3.3,1.2-7.7,0.6-8-3.6c0.2-3.2,1.8-6.2,3.6-8.8
	c4.6-5.9,10.2-10.8,17-14.1C24.6,13.9,27.5,13.1,30.4,12.5z M17.3,44.6c0,0,3.1-1.2,3.1-1.2c0.5-0.2,0.9-0.7,1.5-0.7
	c0.4,0,0.8,0.1,1.2,0.3l2.8,1.7c6.8,4,11.7,11.6,13.4,19.3c0.1,0.5,0.5,1,0.5,1.5c0.1,0.8-0.2,1.7-0.1,2.5c0.9,2.8,5,1,6.9,0.3
	l-0.7-0.4c-0.7-0.5-1.8-0.8-2.2-1.7c-0.3-0.7,0.1-1.7,0.9-1.7c1.8,0.3,3.2,1.7,4.9,2.1c0.1,0,0.3-0.1,0.4-0.2c0.2-0.1,3.8-3,3.8-3.1
	c-1.1-0.6-2.1-1.1-3.3-1.5c-0.3-0.1-0.5-0.3-0.7-0.6c-0.9-1.3,0.2-3,1.7-2.1c1.5,0.6,2.9,1.5,4.4,2c1.5-1.4,2.5-3.2,3.7-4.9
	c-1.6-0.4-3.5-1-4.5-2.3c-0.6-1.3,0.9-2.4,2.1-1.4c1,0.7,2.2,1.1,3.4,1.2c0.4-1,0.5-2.1,0.4-3.2c-0.1-0.9-1-1.5-1.7-2
	c0,0-9.6-8-9.6-8c-1-1-2.1-1.9-3.2-2.7c-3.1,1.9-6.6,3.6-10.3,3.7c-5,0-7.6-5.7-4.9-9.7c2.3-3.8,6.2-5.8,9.9-7.9
	c-4.3-1.3-8.7-2.3-13-3.5c-1.1-0.3-2.3-0.2-3.2,0.5c-3.5,2.8-7.1,5.7-10.5,8.6c-1.7,1.7-3.6,3.8-3.8,6.3c0,0.4,0.2,0.8,0.4,1.1
	C12.8,39.6,15.1,42.2,17.3,44.6z M55,19.4c-0.5,0.1-1.7,0.4-2.1,0.7c-4.4,3.1-9.3,5.5-13.8,8.3c-2.7,1.6-5.9,3.9-6.1,7.3
	c-0.1,2.2,2.6,3.4,4.5,2.9c4.9-0.8,8.7-4.3,12.9-6.7c0.5-0.3,1.3-0.5,1.8,0c1.6,1.9-1.6,3-2.7,4c-0.5,0.4-0.6,0.6-0.1,1.1
	c1.1,0.9,10.7,9,11.7,9.5c2.3-2.4,4.9-4.5,6.9-7.1c1.2-1.6,2.6-3.7,3.8-5.4c-1.9-2.4-3.6-4.7-5.9-6.8C62.6,24.3,58.6,21.7,55,19.4z
	 M24,63.7c0.9,0.8,1.8,1.6,2.7,2.3c0.4,0.3,0.8,0.6,1.3,0.2c0.5,0,1.1-0.1,1.6-0.3c2.4-1.4,4.1-3.9,4.9-6.5c0-0.2,0-0.3-0.1-0.5
	c-0.7-1.2-1.3-2.6-2.1-3.7C30.4,58.7,27.5,61.6,24,63.7z M27.7,49.5c-1.8,3.6-4.1,6.6-7.9,8.4l2.4,3.9c3.5-1.9,6.3-5.1,8.1-8.7
	c0.1-0.2,0.1-0.5,0-0.6C29.5,51.4,28.6,50.5,27.7,49.5z M18.6,55.6c3.4-1.7,5.2-4.6,6.8-7.8c-1.4-0.7-2.5-2.1-4.1-2
	c-1.2,0.2-2.3,0.9-3.1,1.9C16.3,50.1,17.4,53.1,18.6,55.6z M36.2,62.8c-1.3,2.2-3.2,4.1-5.4,5.4c1.5,0.5,3,0.6,4.5,0.5
	c0.4,0,0.8-0.2,1-0.5c0.5-0.6,0.3-1.4,0.5-2.1C37,64.8,36.5,63.9,36.2,62.8z"/>
</svg>
