<?xml version="1.0" encoding="utf-8"?>
<!-- Generator: Adobe Illustrator 24.3.0, SVG Export Plug-In . SVG Version: 6.00 Build 0)  -->
<svg version="1.1" id="Layer_1" xmlns="http://www.w3.org/2000/svg" xmlns:xlink="http://www.w3.org/1999/xlink" x="0px" y="0px"
	 viewBox="0 0 227 227" style="enable-background:new 0 0 227 227;" xml:space="preserve">
<path d="M197,177.2c-2.3,8.2-13.9,7.5-20.7,9.4c-33,7.3-67,7.9-100.4,3.6c-1.8-0.1-3.6,1.1-4.2,2.9c-2.5,4.9,0.9,10.3-0.9,15.3
	c-2,6.5-10,5.7-11.5-0.3c-2.3-6.5,0.2-13.1,1.8-19.5c-32.9-3.8-39.2-23.3-3.1-30.5c-7-15.6-1.5-22.8,7.4-35.4
	c3.9-7.5,2.9-16,0.1-23.8c-1.2-3.2,2.5-6.3,5.4-4.6c5,3.1,9.6,7,13.3,11.5c1.2-14.4,13.2-28.3,6.2-42.8c-1.5-3.5-2.5-7.2-2.9-11
	c-1-9.6,3.6-18.6,9.3-26c1.4-2.1,4.6-1.9,6,0.1c1,1.4,0.7,3.2,0.3,4.8c-1.7,6.3-1.6,13.3,2.9,18.5c7.9,10.8,15.5,23,14.7,36.9
	l0.3,0.2c4.6-7.9,12.9-12.1,21-15.6c2.8-1.4,5.9,0.5,5.6,3.5c-0.5,2.9-3.9,4.2-4.4,7.2c-3.4,8.5-3.6,18.7,1.4,26.5
	c1.2-1,1.9-2,3.2-2.7c2.7-0.7,2-7.4,2.8-9.8c0.7-4.4,6.1-12.3,10.1-6.2c0.3,0.7,0.4,1.5,0.2,2.2c-0.9,2.6-0.4,5.1,0.3,7.6
	c7.4,21.5,6.4,37.4-5.8,56.9C168.7,157.7,195.3,160.1,197,177.2z M134.6,83c-4.8,3.9-9.6,8.1-10.7,14.4c-0.5,3.3-2.6,3.7-5.5,4
	c-3.2,1.1-5.2-1.9-5-4.8c0-12.2,0-23.2-7.4-33.6c-3.4-5.7-8.2-10.6-10.7-16.9c-0.8,5,0.4,10.2,2.4,14.8c9,19.9-9,34.8-5.8,55.6
	c-0.4,3,3.3,5.5,0.4,8.1c-0.3,0.3-0.5,0.7-0.6,1.2c-0.2,1.6-1.6,3-3.3,3.2c-3.1,0.4-4.2-2.6-4.8-5.1c-1.5-5.9-3.7-11.7-7.9-16.3
	c1.2,25.5-16.9,26-12.6,42.6c2.5,7.8,4.3,12.8,12.8,15.2c0.4,0.1,0.8,0.1,1.2-0.1c3.9-1.9,7.6-4.2,10-8c2-2.7,4-8.3,8.2-6
	c1.3,0.8,2.1,2.4,2.3,3.9c0.1,3.6,2.1,5.9,4.7,8c6.2,5.3,9.3-3.4,11.9-7.9c1.4-2.8,4.2-3.4,6.5-1.3c2.1,2.5,2.9,5.9,5.7,7.9
	c6.6,5,8.7-2.6,13.6-4.8c1.1-0.3,2.2,0.2,3.1,0.5c1.2-0.7,2.7-1.1,3.4-2.1c10.7-13.7,14.9-31.5,9.1-48.1c-1.8,4-5.2,5.8-8.6,8.1
	c-4.2,2.5-8.8-1.7-10.3-5.6C132.7,101.1,132.1,92.4,134.6,83z"/>
<path d="M81.3,220.8c-4.3-1.6-5.2-5.6-4.5-9.9c1.2-5.2,0.5-12.8,5.4-16c2.2-0.8,4.7,1,4.8,3.3c0,3.3,0.8,6.5,1.8,9.6
	C91.4,213,87.5,221,81.3,220.8z"/>
<path d="M146.9,46c-0.1,3.8-0.1,7.5-3,9.9c-2.1,1.5-5.3,0.7-6.3-1.7c-3.2-2-6.6-4-8.2-7.7c-6-10.4-2.1-18.2,0.6-28.7
	c0.9-3.9,6-4.1,7.2-0.6c0.8,2.4,1.9,4.6,3.2,6.6C144.4,30.7,146.7,38.3,146.9,46z M139.3,47.3c0-6.2-1.5-12.3-4.5-17.8
	C131.9,36,135.3,45.6,139.3,47.3z"/>
</svg>
