<svg width="80" height="80" viewBox="0 0 80 80" fill="none" xmlns="http://www.w3.org/2000/svg">
<path d="M75.46 37.18C75.46 37.39 75.39 37.59 75.38 37.79C75.38 39.27 75.43 40.79 75.38 42.21C75.2332 45.1149 74.726 47.9902 73.87 50.77C73.4776 52.0852 72.794 53.2951 71.87 54.31C70.46 55.8 69.12 57.31 67.7 58.84C66.2371 60.1994 64.6033 61.3625 62.84 62.3C60.9609 63.3719 59.0057 64.3044 56.99 65.09C56.3666 65.3186 55.8235 65.7243 55.4273 66.2572C55.0312 66.7901 54.7992 67.4271 54.76 68.09C56.19 68.46 57.61 68.8 59.01 69.2C59.7295 69.3925 60.3856 69.7711 60.9122 70.2978C61.4389 70.8244 61.8175 71.4805 62.01 72.2C62.16 72.7139 62.1332 73.2633 61.9337 73.7602C61.7342 74.257 61.3738 74.6725 60.91 74.94C59.7022 75.7635 58.3424 76.3381 56.91 76.63C53.4758 77.4202 49.9048 77.3997 46.48 76.57C44.8692 76.1443 43.3505 75.4257 42 74.45C41.7966 74.2973 41.5534 74.2067 41.2998 74.189C41.0461 74.1712 40.7927 74.2271 40.57 74.35C37.8205 75.4793 34.906 76.1548 31.94 76.35C30.49 76.41 29.03 76.47 27.59 76.43C26.0765 76.3776 24.581 76.0839 23.16 75.56C22.2706 75.2491 21.4777 74.7114 20.86 74C20.6247 73.7599 20.4397 73.4753 20.3157 73.1629C20.1916 72.8504 20.1311 72.5164 20.1376 72.1803C20.1441 71.8442 20.2176 71.5128 20.3536 71.2054C20.4897 70.898 20.6856 70.6208 20.93 70.39C22.3092 68.9509 24.1214 68.0026 26.09 67.69C26.39 67.63 26.42 67.51 26.43 67.28C26.5301 66.3165 26.3781 65.3436 25.9889 64.4565C25.5997 63.5695 24.9867 62.7988 24.21 62.22C22.63 61.09 21 60 19.29 59C16.8079 57.5521 14.4646 55.8784 12.29 54C10.0142 51.9645 8.2936 49.3836 7.29 46.5C5.99273 42.9335 5.44466 39.1378 5.68 35.35C5.66329 34.2329 5.87561 33.1241 6.30386 32.0922C6.73211 31.0603 7.36721 30.127 8.17 29.35C8.50358 29.0317 8.88068 28.7623 9.29 28.55C9.96121 28.127 10.7542 27.9397 11.5437 28.0175C12.3333 28.0954 13.0744 28.434 13.65 28.98C14.7355 29.8881 15.6295 31.0031 16.28 32.26C17.2888 34.0817 18.1001 36.0059 18.7 38C19.1275 39.2434 19.6318 40.4591 20.21 41.64C20.34 41.93 20.71 42.12 21.03 42.31C20.6031 37.1511 20.5263 31.9693 20.8 26.8L18.86 28.34C18.37 28.72 17.86 29.11 17.4 29.47C17.2012 29.6622 16.952 29.794 16.6812 29.8501C16.4105 29.9062 16.1294 29.8842 15.8706 29.7868C15.6119 29.6894 15.3861 29.5205 15.2196 29.2998C15.0531 29.079 14.9526 28.8156 14.93 28.54C14.74 27.19 14.67 25.82 14.54 24.46C14.5101 24.2588 14.4599 24.0611 14.39 23.87C14.39 23.76 14.26 23.64 14.27 23.54C14.36 22.62 14.27 21.64 15.14 20.97C16.29 20.1 17.42 19.21 18.58 18.36C19.19 17.91 19.85 17.54 20.46 17.1C21.0797 16.5402 21.7491 16.0381 22.46 15.6C24.2477 14.6627 25.9805 13.6244 27.65 12.49C30.95 10.39 34.15 8.17 37.4 5.99C37.72 5.78 38.05 5.58 38.4 5.35C38.5426 5.22592 38.6732 5.08865 38.79 4.94C38.9818 4.72823 39.189 4.53102 39.41 4.35C40 3.86 40.62 3.45 41.2 3C41.3478 2.83372 41.5277 2.69905 41.729 2.6041C41.9302 2.50914 42.1485 2.45586 42.3708 2.44745C42.5931 2.43905 42.8149 2.47569 43.0227 2.55518C43.2305 2.63466 43.42 2.75536 43.58 2.91C46.24 5 48.88 7.13 51.58 9.2C54.28 11.27 57.07 13.33 59.79 15.43C61.79 16.95 63.68 18.55 65.64 20.1C66.19 20.52 66.72 20.91 66.64 21.68C66.56 22.45 66.58 22.99 66.54 23.68C66.5 24.37 66.46 25.07 66.36 25.76C66.2744 26.2447 66.1541 26.7226 66 27.19C65.7238 27.8059 65.2434 28.3074 64.64 28.61C64.4009 28.7147 64.1343 28.7393 63.88 28.68C63.42 28.61 62.98 28.47 62.46 28.34C62.46 34.16 61.74 39.92 62.13 45.77C63.0004 45.0731 63.6443 44.1333 63.98 43.07C64.4666 41.3788 64.7222 39.6297 64.74 37.87C64.74 36.65 64.74 35.43 64.74 34.21C64.7433 32.7142 65.181 31.2516 66 30C66.1755 29.7553 66.3326 29.4979 66.47 29.23C67.21 27.77 68.62 27.45 70.1 27.36C70.5513 27.3624 70.997 27.4608 71.4074 27.6487C71.8177 27.8367 72.1834 28.1098 72.48 28.45C74.1042 30.0596 75.1278 32.1773 75.38 34.45C75.38 34.59 75.44 34.74 75.47 34.88L75.46 37.18ZM34.65 48.27C34.65 47.82 34.65 47.43 34.65 47.05C34.65 46.36 34.52 45.68 34.52 45.05C34.5667 41.7167 34.6267 38.3833 34.7 35.05C34.7127 34.862 34.7624 34.6785 34.8462 34.5098C34.9301 34.3411 35.0464 34.1906 35.1886 34.067C35.3308 33.9434 35.496 33.8492 35.6747 33.7896C35.8534 33.7301 36.0421 33.7064 36.23 33.72C38.44 33.72 40.66 33.78 42.87 33.72C44.3323 33.8565 45.807 33.762 47.24 33.44C47.4216 33.4047 47.6084 33.4047 47.79 33.44C48.1781 33.473 48.539 33.6527 48.7991 33.9426C49.0592 34.2325 49.199 34.6106 49.19 35C49.19 35.75 49.09 36.51 49.12 37.27C49.21 39.36 49.37 41.46 49.47 43.55C49.55 45.35 49.58 47.14 49.63 48.96C49.72 48.96 49.86 48.87 49.99 48.8C51.3 48.07 52.62 47.36 53.91 46.62C54.9856 45.909 56.1871 45.41 57.45 45.15C58.13 45.06 58.81 45 59.52 44.92C59.52 44.63 59.52 44.33 59.52 44.04C59.52 42.04 59.52 39.96 59.52 37.92C59.62 34.18 59.78 30.43 59.92 26.68C59.9312 26.5475 59.9064 26.4144 59.8484 26.2947C59.7903 26.175 59.701 26.0732 59.59 26C57.5 24.48 55.48 22.89 53.34 21.44C50.0285 19.1234 46.9326 16.5128 44.09 13.64C43.72 13.28 43.37 12.91 42.99 12.52C41.84 13.25 40.7 13.96 39.58 14.68C34.2467 18.1 28.8967 21.5233 23.53 24.95C23.4637 25.0016 23.409 25.0665 23.3693 25.1406C23.3297 25.2146 23.3061 25.2962 23.3 25.38C23.23 28.38 23.08 31.38 23.13 34.38C23.18 37.38 23.43 40.15 23.62 43.03C23.6647 43.221 23.7834 43.3865 23.95 43.49C26.0039 44.7788 28.1458 45.9217 30.36 46.91C31.7292 47.5365 33.1699 47.9932 34.65 48.27ZM41.65 60.02C41.65 59.77 41.65 59.52 41.65 59.26C41.5502 57.3076 40.8331 55.4373 39.6021 53.9187C38.371 52.4001 36.6895 51.3115 34.8 50.81C33.72 50.5 32.62 50.27 31.57 49.89C28.7877 48.8704 26.1089 47.5879 23.57 46.06C23.3964 45.9537 23.1924 45.908 22.99 45.93C22.8212 45.9949 22.6405 46.0233 22.4599 46.0133C22.2793 46.0033 22.1029 45.9551 21.9423 45.872C21.7817 45.7888 21.6405 45.6726 21.528 45.5309C21.4156 45.3892 21.3345 45.2253 21.29 45.05C21.29 44.94 21.19 44.75 21.13 44.75C20.794 44.7158 20.4545 44.7463 20.13 44.84C20 44.9 19.94 45.3 20 45.51C20.2555 46.4557 20.728 47.3288 21.38 48.06C22.9968 49.7388 24.8216 51.204 26.81 52.42C28.2146 53.4557 29.7878 54.2406 31.46 54.74C32 54.88 32.56 54.94 33.11 55.06C33.2538 55.07 33.3941 55.1087 33.5227 55.1738C33.6514 55.239 33.7656 55.3292 33.8588 55.4391C33.952 55.5491 34.0223 55.6766 34.0654 55.8142C34.1085 55.9517 34.1237 56.0965 34.11 56.24C34.0655 56.5177 33.9163 56.7678 33.6931 56.9389C33.47 57.11 33.1897 57.1891 32.91 57.16C32.3837 57.141 31.8593 57.0875 31.34 57C29.2122 56.5638 27.2013 55.681 25.44 54.41C23.92 53.31 22.36 52.27 20.93 51.07C19.3305 49.825 18.165 48.1066 17.6 46.16C17.4602 45.7086 17.429 45.2306 17.5089 44.7649C17.5889 44.2992 17.7777 43.8589 18.06 43.48C18.0973 43.4019 18.1166 43.3165 18.1166 43.23C18.1166 43.1435 18.0973 43.0581 18.06 42.98C17.61 41.98 17.06 40.9 16.67 39.82C16.017 37.6567 15.1668 35.5579 14.13 33.55C13.6071 32.4736 12.8842 31.5064 12 30.7C11.8158 30.5311 11.5819 30.4262 11.3332 30.401C11.0846 30.3758 10.8344 30.4315 10.62 30.56C10.2468 30.734 9.91165 30.9799 9.63366 31.2836C9.35567 31.5873 9.14034 31.9429 9 32.33C8.60377 33.372 8.34493 34.4611 8.23 35.57C7.98505 39.3231 8.59007 43.0832 10 46.57C10.5889 48.0323 11.4206 49.3847 12.46 50.57C14.6052 52.8461 17.0632 54.8057 19.76 56.39C21.62 57.56 23.49 58.73 25.3 59.97C26.9339 60.9962 28.117 62.6046 28.61 64.47C28.9188 65.7824 28.9495 67.145 28.7 68.47C28.5551 69.0883 28.5551 69.7317 28.7 70.35C28.7166 70.4026 28.7451 70.4508 28.7832 70.4906C28.8214 70.5305 28.8682 70.5611 28.92 70.58C29.734 70.8467 30.5709 71.0375 31.42 71.15C34.0729 71.3325 36.7314 70.8871 39.18 69.85C39.46 69.73 39.64 69.62 39.57 69.26C39.5446 69.022 39.579 68.7814 39.67 68.56C40.12 66.94 40.61 65.32 41.03 63.7C41.4531 62.5133 41.6564 61.2595 41.63 60L41.65 60.02ZM72.84 39.33C72.84 37.49 72.96 35.95 72.84 34.43C72.6969 32.7251 71.906 31.1397 70.63 30C70.3558 29.792 70.0145 29.6923 69.6714 29.7199C69.3283 29.7476 69.0074 29.9007 68.77 30.15C67.7913 31.4067 67.2473 32.9474 67.22 34.54C67.232 36.6973 67.1285 38.8537 66.91 41C66.8017 42.3359 66.4072 43.6328 65.7532 44.8027C65.0993 45.9725 64.2012 46.988 63.12 47.78C63.0487 47.8446 62.9914 47.9233 62.9518 48.011C62.9123 48.0988 62.8912 48.1937 62.89 48.29C62.9346 49.5435 62.5579 50.7757 61.82 51.79C61.0948 52.6887 60.2989 53.528 59.44 54.3C58.44 55.25 57.26 56.12 56.16 57.02C56.0064 57.1634 55.8219 57.2695 55.6208 57.3302C55.4197 57.3909 55.2072 57.4045 55 57.37C54.7834 57.3375 54.5805 57.2439 54.4153 57.1C54.2501 56.9562 54.1294 56.7682 54.0674 56.5581C54.0054 56.348 54.0048 56.1246 54.0654 55.9141C54.1261 55.7036 54.2457 55.5148 54.41 55.37C55.2442 54.5609 56.1294 53.806 57.06 53.11C58.1238 52.3693 59.0538 51.4529 59.81 50.4C60.0758 50.0093 60.2529 49.5651 60.3289 49.0987C60.4049 48.6323 60.378 48.1549 60.25 47.7C60.2189 47.6161 60.1666 47.5416 60.0983 47.4838C60.03 47.426 59.9479 47.3868 59.86 47.37C58.6271 47.2678 57.3896 47.5028 56.28 48.05C54.15 49.22 52.01 50.38 49.85 51.5C49.0642 51.8736 48.3786 52.4289 47.85 53.12C47.35 53.8 46.85 54.49 46.39 55.2C45.3812 56.4807 44.8256 58.0598 44.81 59.69C44.8205 59.8085 44.8054 59.9279 44.7657 60.04C44.726 60.1522 44.6627 60.2545 44.58 60.34C44.4302 60.4732 44.3128 60.6388 44.2365 60.8242C44.1603 61.0096 44.1273 61.2099 44.14 61.41C44.1143 61.6111 44.0674 61.8088 44 62C43.41 64.2 42.83 66.4 42.23 68.6C42.1833 68.7154 42.1708 68.8418 42.1938 68.9641C42.2169 69.0864 42.2745 69.1995 42.36 69.29C42.9245 69.8755 43.6059 70.3354 44.36 70.64C46.6109 71.7849 49.1717 72.1707 51.66 71.74C51.93 71.74 52.04 71.6 52.04 71.31C52.04 70.4 52.04 69.49 52.11 68.59C52.0888 67.3517 52.4512 66.1371 53.1477 65.113C53.8442 64.0889 54.8405 63.3054 56 62.87C57.73 62.12 59.45 61.34 61.1 60.45C62.9496 59.5609 64.6392 58.3714 66.1 56.93C67.34 55.6 68.55 54.23 69.79 52.93C70.7428 51.8962 71.4082 50.6309 71.72 49.26C72.611 46.0291 72.989 42.6782 72.84 39.33Z" fill="black"/>
</svg>
