<svg width="80" height="80" viewBox="0 0 80 80" fill="none" xmlns="http://www.w3.org/2000/svg">
<path d="M24.59 62.38C24.59 61.59 24.52 60.83 24.51 60.06C24.51 57.3 24.51 54.53 24.51 51.77C24.5751 51.4208 24.6931 51.0836 24.86 50.77C24.9784 50.5472 25.0627 50.3078 25.11 50.06C25.2367 45.9133 25.36 41.7633 25.48 37.61C25.48 36.93 25.55 36.24 25.58 35.51L24.98 35.42C24.7768 35.4002 24.5845 35.3187 24.429 35.1864C24.2734 35.0541 24.1621 34.8774 24.11 34.68C23.9602 34.1708 23.8597 33.6484 23.81 33.12C23.73 31.8 23.72 30.47 23.65 29.12C23.6893 28.4313 23.9027 27.7638 24.27 27.18C24.3885 26.9987 24.5524 26.8516 24.7454 26.7534C24.9384 26.6551 25.1537 26.6091 25.37 26.62L32.17 26H32.63C32.69 25.91 32.76 25.84 32.76 25.77C32.62 24 32.45 22.23 32.34 20.46C32.29 19.66 32.34 18.86 32.34 18.06C32.3827 17.869 32.3738 17.6701 32.314 17.4838C32.2542 17.2975 32.1458 17.1305 32 17C31.8018 16.7601 31.6892 16.461 31.68 16.15C31.6667 15.7415 31.739 15.3347 31.8923 14.9558C32.0456 14.577 32.2764 14.2343 32.57 13.95C34.77 11.43 36.91 8.84998 39.06 6.27998C39.436 5.79926 39.9098 5.40388 40.45 5.11998C40.7629 4.92111 41.1368 4.84101 41.5038 4.89422C41.8707 4.94743 42.2064 5.13042 42.45 5.40998C43.61 6.57998 44.75 7.76998 45.91 8.94998C46.2257 9.34569 46.6549 9.63533 47.14 9.77998C47.41 9.82998 47.65 10.13 47.87 10.36C48.98 11.54 50.08 12.74 51.19 13.92C51.52 14.27 51.89 14.57 52.24 14.92C52.3995 15.0308 52.5285 15.1799 52.6154 15.3536C52.7023 15.5273 52.7441 15.72 52.7372 15.9141C52.7302 16.1082 52.6746 16.2974 52.5755 16.4644C52.4764 16.6314 52.337 16.7709 52.17 16.87C52.01 17 51.89 17.19 51.72 17.31C51.4925 17.4876 51.2352 17.623 50.96 17.71C50.22 17.86 49.46 17.96 48.72 18.08C48.9614 19.9094 49.0384 21.7568 48.95 23.6C48.95 24.31 48.95 25.02 49.01 25.79H49.79C51.15 25.79 52.51 25.79 53.86 25.79C55.21 25.79 55.68 26.28 55.75 27.61C55.84 29.26 55.9 30.9 55.98 32.55C55.98 32.95 56.04 33.35 56.08 33.74C56.1258 33.9489 56.1236 34.1655 56.0733 34.3734C56.0231 34.5813 55.9262 34.7751 55.79 34.94C55.6726 35.0768 55.6056 35.2498 55.6 35.43C55.6 39.31 55.5 43.19 55.47 47.07C55.47 47.97 55.47 48.88 55.47 49.73C56.17 49.95 56.82 50.12 57.47 50.35C58.12 50.58 58.28 50.84 58.27 51.55C58.27 54.63 58.18 57.72 58.15 60.8C58.15 61.41 58.15 62.01 58.15 62.71C58.78 62.64 59.35 62.56 59.92 62.53C60.256 62.5065 60.5936 62.5369 60.92 62.62C61.0377 62.6501 61.1482 62.7034 61.245 62.7769C61.3417 62.8504 61.4228 62.9426 61.4834 63.0479C61.5439 63.1532 61.5828 63.2696 61.5977 63.3902C61.6126 63.5107 61.6032 63.6331 61.57 63.75C61.3453 64.8183 61.3453 65.9217 61.57 66.99C61.7199 69.1667 61.75 71.35 61.66 73.53C61.668 73.7461 61.6299 73.9614 61.5481 74.1616C61.4662 74.3618 61.3426 74.5423 61.1855 74.6909C61.0284 74.8395 60.8413 74.9528 60.6369 75.0234C60.4325 75.0939 60.2153 75.12 60 75.1C57 75.1 54 75.18 51.07 75.2C50.01 75.2 48.95 75.2 47.88 75.12C47.6394 75.138 47.3985 75.0897 47.1834 74.9804C46.9683 74.8711 46.7873 74.7049 46.66 74.5C46.5751 74.3727 46.4528 74.2749 46.31 74.22C46.0662 74.1231 45.8574 73.9548 45.711 73.737C45.5647 73.5193 45.4876 73.2623 45.49 73C45.345 70.9025 45.345 68.7975 45.49 66.7C45.49 65.99 45.49 65.28 45.56 64.54C42.68 64.02 39.88 64.29 37.04 64.29C37.0213 64.4595 37.0213 64.6305 37.04 64.8C37.12 65.35 37.28 65.89 37.31 66.44C37.4 68.44 37.45 70.37 37.53 72.33C37.5876 72.6209 37.5447 72.9227 37.4085 73.1861C37.2722 73.4495 37.0507 73.6589 36.78 73.78C36.69 73.78 36.56 73.86 36.52 73.94C36.09 74.71 35.36 74.7 34.64 74.69C31.98 74.69 29.32 74.64 26.64 74.63C25.04 74.63 23.45 74.63 21.85 74.63C21.6138 74.6502 21.3762 74.6502 21.14 74.63C20.9678 74.6329 20.7979 74.5913 20.6465 74.5093C20.4951 74.4273 20.3675 74.3075 20.2759 74.1617C20.1844 74.0159 20.1321 73.8489 20.124 73.6769C20.116 73.5049 20.1525 73.3337 20.23 73.18C20.2785 72.9532 20.302 72.7218 20.3 72.49C20.3 69.88 20.3 67.28 20.36 64.67C20.403 64.1953 20.5461 63.7352 20.78 63.32C20.98 62.89 21.44 62.81 21.86 62.75L24.59 62.38ZM56.08 52.25C46.32 52.44 36.63 52.36 26.96 52.25C26.6834 52.9416 26.5672 53.687 26.62 54.43C26.68 56.02 26.71 57.62 26.76 59.21C26.76 60.1 26.85 61 26.89 61.95H27.69C29.39 61.95 31.1 62.02 32.8 62.03C33.99 62.03 35.19 62.03 36.39 61.98C39.2854 61.8216 42.188 61.8484 45.08 62.06C46.35 62.18 47.63 62.19 48.9 62.21C50.47 62.21 52.04 62.21 53.61 62.21C54.3558 62.2356 55.1023 62.1921 55.84 62.08C55.92 58.82 56 55.58 56.08 52.25ZM53.67 28.12H52.9C50.24 28.12 47.59 28.12 44.9 28.12C41.21 28.12 37.51 28.21 33.82 28.29C31.82 28.29 29.73 28.43 27.69 28.52C27.06 28.52 26.44 28.64 25.75 28.71C25.7 30.24 25.95 31.71 25.99 33.18C27.13 33.26 28.19 33.35 29.25 33.41C31.8 33.56 34.34 33.71 36.89 33.84C38.4 33.92 39.89 34.02 41.43 34.03C44.78 34.03 48.13 33.78 51.43 34.11C52.1746 34.1608 52.9219 34.0657 53.63 33.83C53.69 31.9 53.68 30.05 53.67 28.12ZM45.81 36.29L37 36.19C37.09 40.84 36.72 45.5 37.06 50.19H38.64L45.42 49.99C45.52 49.99 45.63 49.99 45.73 49.99C46.11 49.93 46.19 49.77 46.12 49.38C46.0148 48.8893 45.9479 48.3911 45.92 47.89C45.92 44.96 45.92 42.04 45.92 39.11C45.89 38.18 45.84 37.23 45.81 36.29ZM48 36.18C48.1 40.64 48.19 45.01 48.29 49.42H53.09C53.2233 45.02 53.35 40.6466 53.47 36.3C52.47 36.3 51.64 36.3 50.77 36.3C49.9 36.3 49 36.23 48 36.18ZM46.2 25.38C46.2 24.73 46.2 24.2 46.2 23.67C46.2 22.67 46.31 21.67 46.37 20.75C46.37 20.45 46.37 20.16 46.37 19.87C46.2888 19.235 46.4573 18.5932 46.84 18.08C43.6807 17.9425 40.5165 17.9692 37.36 18.16L37.49 25.32H37.98C40.21 25.32 42.44 25.4 44.67 25.42C45.18 25.45 45.66 25.41 46.2 25.38ZM59.38 64.86C59.1 64.86 58.96 64.86 58.83 64.86C57.8196 64.9952 56.7915 64.8889 55.83 64.55C55.6715 64.5195 55.5085 64.5195 55.35 64.55H52.35C52.2342 64.5648 52.1203 64.5916 52.01 64.63C51.9993 64.6962 51.9993 64.7637 52.01 64.83C52.3414 67.2751 52.4585 69.7445 52.36 72.21C52.3667 72.4911 52.3901 72.7716 52.43 73.05C54.83 72.79 57.15 73.14 59.54 72.81C59.42 70.09 59.4 67.5 59.38 64.86ZM34.59 50.06L34.88 36C33.63 35.92 32.42 35.85 31.16 35.82V37C31.16 39 31.21 40.94 31.16 42.9C31.11 44.86 31.07 46.73 31.03 48.64C31.03 49.08 31.03 49.52 31.08 49.91L34.59 50.06ZM22.66 72.59L28.66 72.23L28.72 64.85C26.61 64.85 24.56 64.31 22.42 64.78C22.59 67.39 22.4 70 22.66 72.59ZM30.94 65C30.8815 65.3305 30.8447 65.6646 30.83 66C30.83 67.51 30.88 69 30.95 70.53C31.0039 71.115 31.094 71.6961 31.22 72.27C32.5524 72.3412 33.8876 72.3412 35.22 72.27V65.39C33.841 64.9389 32.3778 64.8056 30.94 65ZM41.94 15.32L40.37 8.08998C39.37 9.38998 38.48 10.63 37.52 11.82C36.56 13.01 35.52 14.12 34.52 15.32C36.9875 15.4833 39.4634 15.4767 41.93 15.3L41.94 15.32ZM27.63 35.53C27.63 35.72 27.63 35.87 27.63 36.02C27.63 37.32 27.63 38.63 27.63 39.93C27.57 42.93 27.48 45.99 27.41 49.02C27.41 49.38 27.41 49.74 27.41 50.19L28.76 50.07C28.86 45.19 28.97 40.42 29.08 35.6L27.63 35.53ZM49.94 73.08C50.1076 70.2195 50.044 67.3502 49.75 64.5L47.65 64.59C47.65 67.44 47.54 70.23 47.8 72.98L49.94 73.08ZM47.8 15L47.91 14.84L43 9.37998L42.89 9.44998L44.25 15.14L47.8 15ZM35.06 24.9C35.2725 22.5731 35.3527 20.236 35.3 17.9C35.1434 17.8916 34.9866 17.8916 34.83 17.9C34.7067 17.8937 34.5833 17.8937 34.46 17.9C34.25 20.34 35.09 22.6 35.06 24.92V24.9Z" fill="black"/>
<path d="M56.08 52.25C56 55.58 55.92 58.82 55.84 62.13C55.1023 62.2421 54.3558 62.2856 53.61 62.26C52.04 62.26 50.47 62.26 48.9 62.26C47.63 62.26 46.35 62.26 45.08 62.11C42.1886 61.8884 39.2861 61.8516 36.39 62C35.19 62 33.99 62.06 32.8 62.05C31.1 62.05 29.39 62 27.69 61.97H26.89C26.89 61.02 26.79 60.12 26.76 59.23C26.71 57.64 26.68 56.04 26.62 54.45C26.5752 53.6939 26.7053 52.9377 27 52.24C36.63 52.36 46.32 52.44 56.08 52.25Z" fill="black"/>
<path d="M53.67 28.12C53.67 30.05 53.67 31.9 53.67 33.8C52.9619 34.0357 52.2146 34.1309 51.47 34.08C48.13 33.75 44.78 34.02 41.47 34C39.96 34 38.47 33.89 36.93 33.81C34.38 33.68 31.84 33.53 29.29 33.38C28.23 33.32 27.17 33.23 26.03 33.15C26.03 31.65 25.74 30.21 25.79 28.68C26.48 28.61 27.1 28.52 27.73 28.49C29.73 28.4 31.82 28.3 33.86 28.26C37.55 28.18 41.25 28.13 44.94 28.09C47.6 28.09 50.25 28.09 52.94 28.09L53.67 28.12Z" fill="black"/>
</svg>
