<svg width="80" height="80" viewBox="0 0 80 80" fill="none" xmlns="http://www.w3.org/2000/svg">
<path d="M35.63 26.34C36.2 24.96 36.72 23.67 37.26 22.39C38.9992 18.41 40.9727 14.5366 43.17 10.79C43.7132 9.96892 44.4387 9.28445 45.29 8.79C45.4931 8.66531 45.7267 8.5993 45.965 8.5993C46.2033 8.5993 46.4369 8.66531 46.64 8.79C47.56 9.25 48.5 9.68 49.39 10.18C49.8993 10.5113 50.4774 10.7221 51.0804 10.7966C51.6833 10.8711 52.2954 10.8073 52.87 10.61C53.58 10.35 54.2 10.76 54.87 10.99C55.0456 11.0804 55.1816 11.2325 55.2517 11.4171C55.3219 11.6018 55.3213 11.8058 55.25 11.99C55.173 12.3778 55.0557 12.7565 54.9 13.12C53.81 15.68 52.66 18.22 51.6 20.8C50.54 23.38 49.65 25.8 48.68 28.3C48.6175 28.4772 48.5641 28.6574 48.52 28.84C48.8519 28.8796 49.1858 28.8997 49.52 28.9C50.86 28.83 52.2 28.7 53.52 28.67C54.52 28.67 55.62 28.67 56.67 28.73C57.0366 28.7628 57.395 28.8575 57.73 29.01C58.0305 29.1178 58.2863 29.323 58.4567 29.5931C58.627 29.8631 58.7021 30.1823 58.67 30.5C58.61 32.5 58.59 34.5 58.55 36.5V37.33C59.11 37.44 59.55 37.95 60.18 37.58C60.25 37.58 60.42 37.65 60.53 37.71L61.83 38.48C61.9889 39.5406 61.9311 40.6224 61.66 41.66C61.17 45.1 60.66 48.53 60.11 51.96C59.91 53.29 59.7 54.61 59.48 55.96C59.433 56.1881 59.4346 56.4234 59.4846 56.6508C59.5345 56.8783 59.6318 57.0926 59.77 57.28C60.3736 58.1965 60.7914 59.2226 61 60.3C61.0958 60.6821 61.1329 61.0767 61.11 61.47C60.76 64.9 58.5 68.47 53.77 68.47C53.322 68.4885 52.8745 68.4241 52.45 68.28C50.27 67.44 48.39 66.28 47.63 63.86C47.63 63.73 47.53 63.62 47.44 63.41L35.57 64C35.4999 64.2156 35.4464 64.4362 35.41 64.66C35.1157 66.5288 34.1742 68.2348 32.75 69.48C32.0529 70.0926 31.2232 70.5352 30.3261 70.7729C29.429 71.0107 28.489 71.037 27.58 70.85C25.4083 70.5922 23.4272 69.4848 22.07 67.77C20.8763 66.3437 20.2277 64.5399 20.24 62.68C20.1941 61.4938 20.3256 60.3074 20.63 59.16C20.7031 58.8543 20.7031 58.5357 20.63 58.23C19.85 54.66 19.04 51.1 18.29 47.52C17.94 45.84 17.73 44.14 17.42 42.46C17.2804 41.6114 17.4432 40.7408 17.88 40C17.9916 39.8185 18.1473 39.6683 18.3327 39.5634C18.518 39.4585 18.727 39.4023 18.94 39.4L20.46 39.19C20.29 38.86 20.17 38.57 20.03 38.31C18.9843 36.3609 18.0883 34.335 17.35 32.25C17.2504 32.0067 17.1701 31.7559 17.11 31.5C17.008 31.2043 17.0276 30.8802 17.1645 30.5989C17.3014 30.3176 17.5443 30.1022 17.84 30C18.0286 29.9125 18.2093 29.8087 18.38 29.69L23 26.65C24.6333 25.5433 26.2667 24.4367 27.9 23.33L28.76 22.77C28.9141 22.6414 29.1033 22.5621 29.303 22.5425C29.5028 22.5229 29.7038 22.5638 29.88 22.66C29.97 22.66 30.08 22.79 30.16 22.77C30.93 22.6 31.39 23.11 31.87 23.55C33.0284 24.6015 34.2879 25.5361 35.63 26.34ZM19.31 41.45C20.42 46.53 21.24 51.54 22.59 56.51C23.9931 55.5481 25.5971 54.9189 27.28 54.67C28.193 54.5072 29.1318 54.5678 30.0164 54.8464C30.901 55.125 31.705 55.6134 32.36 56.27C32.8728 56.7071 33.1925 57.3287 33.25 58C33.2807 58.1737 33.3688 58.3321 33.5 58.45C34.1682 59.127 34.6593 59.9581 34.93 60.87C35.03 61.16 35.15 61.45 35.26 61.73L47.26 61.18C47.2904 60.1739 47.5431 59.1869 48 58.29C48.8509 56.7607 50.116 55.5025 51.65 54.66C52.5908 54.1096 53.6965 53.9111 54.77 54.1C55.26 54.18 55.77 54.33 56.23 54.42C56.69 54.51 56.94 54.52 57.32 54.57C57.32 54.35 57.39 54.23 57.42 54.1C58.27 49.77 58.58 45.34 59.58 41.03C59.6068 40.8934 59.6009 40.7524 59.5627 40.6185C59.5244 40.4847 59.455 40.3618 59.36 40.26C59.1521 40.0063 58.8867 39.8059 58.5858 39.6754C58.2849 39.545 57.9572 39.4883 57.63 39.51C55 39.42 52.37 39.29 49.74 39.28C46.89 39.28 44.05 39.28 41.21 39.42C39.56 39.48 37.9 39.63 36.21 39.78C32.57 40.12 28.93 40.47 25.3 40.86C24.3538 40.8137 23.408 40.96 22.52 41.29C22.345 41.3502 22.155 41.3502 21.98 41.29C21.087 41.2073 20.1867 41.2612 19.31 41.45ZM22.79 38.83C26.11 38.49 29.39 38.26 32.67 37.83C31.96 35.7 31.23 33.7 30.61 31.67C29.99 29.64 29.46 27.53 28.89 25.42C28.7721 25.471 28.6584 25.5311 28.55 25.6L20.92 30.49C20.45 30.79 19.92 31.03 19.92 31.69C19.92 31.87 19.72 32.04 19.57 32.28L22.79 38.83ZM22.63 63.83C22.9065 65.1109 23.5875 66.2689 24.5724 67.1332C25.5573 67.9975 26.794 68.5222 28.1 68.63C28.6057 68.7104 29.1222 68.69 29.62 68.5699C30.1177 68.4497 30.5867 68.2323 31 67.93C32.067 67.0921 32.8066 65.9067 33.09 64.58C33.115 64.4277 33.115 64.2723 33.09 64.12C33.09 63.9 33 63.68 33 63.47C33 61.94 32.89 61.52 31.92 59.47C31.51 59.17 31.4 58.65 31.15 58.21C30.9 57.77 30.15 57.64 30.15 57.21C29.4568 56.8447 28.6646 56.7115 27.89 56.83C26.6643 57.0007 25.4809 57.3974 24.4 58C24.1338 58.1722 23.8798 58.3626 23.64 58.57C23.4435 58.7041 23.2968 58.8993 23.2227 59.1254C23.1486 59.3514 23.1511 59.5956 23.23 59.82C23.3198 60.1167 23.3198 60.4333 23.23 60.73L22.63 63.83ZM40.56 31.25H40.72L40.94 30.84C42.46 27.84 44.06 24.84 45.86 21.94C46.42 21.02 46.95 20.08 47.49 19.15C47.6759 18.8643 47.7749 18.5308 47.7749 18.19C47.7749 17.8492 47.6759 17.5157 47.49 17.23C47.02 16.44 46.68 15.58 46.27 14.75C45.86 13.92 45.47 13.1 45 12.14C42.1466 17.1407 39.5857 22.3027 37.33 27.6C38.0634 28.2383 38.8688 28.7887 39.73 29.24C39.8895 29.3078 40.0272 29.4184 40.1278 29.5596C40.2284 29.7008 40.288 29.8671 40.3 30.04C40.37 30.44 40.47 30.85 40.56 31.25ZM49.38 61.14C49.38 61.32 49.6 63.14 49.58 63.27C49.96 64.91 50.58 65.71 52.69 66.17C53.9398 66.4336 55.2429 66.2271 56.35 65.59C56.9366 65.2529 57.4449 64.7951 57.8414 64.2469C58.2379 63.6987 58.5135 63.0726 58.65 62.41C58.47 62.41 58.71 61.52 58.65 61.52C58.65 60.95 58.33 61.3 58.28 60.73C58.2718 60.2287 58.1631 59.7341 57.9605 59.2755C57.7578 58.8169 57.4652 58.4036 57.1 58.06C56.7818 57.8308 56.5467 57.5044 56.43 57.13C56.3636 56.9928 56.27 56.8706 56.1548 56.7709C56.0396 56.6712 55.9052 56.596 55.76 56.55C55.1836 56.2761 54.5423 56.1685 53.9081 56.2391C53.2739 56.3098 52.6719 56.556 52.17 56.95C51.4715 57.5035 50.8346 58.1305 50.27 58.82C49.9648 59.337 49.7199 59.8872 49.54 60.46C49.41 60.86 48.94 61 49.38 61.14ZM56.17 37.14L56.55 30.91C53.55 30.56 50.65 31.23 47.78 30.74C46.86 32.7303 46.2142 34.8362 45.86 37L56.17 37.14ZM31.34 26C31.71 28.28 34.5 36.67 35.2 37.63L39.52 37.22C39.52 37 39.52 36.85 39.47 36.7C39.22 35.33 38.93 33.96 38.72 32.59C38.687 32.1903 38.5648 31.8032 38.3623 31.457C38.1598 31.1109 37.8822 30.8146 37.55 30.59C35.47 29.12 33.45 27.55 31.34 26ZM41.9 37.12L43.4 37C44.66 31.66 46.84 26.73 48.68 21.56C48.5989 21.6325 48.5252 21.7129 48.46 21.8C47.39 23.67 46.29 25.52 45.26 27.41C43.97 29.81 42.73 32.25 41.48 34.67C41.4305 34.8159 41.4305 34.9741 41.48 35.12C41.57 35.78 41.72 36.39 41.9 37.12ZM51.44 13.19C50.81 13.03 50.29 12.94 49.8 12.76C49.3408 12.5663 48.8934 12.3459 48.46 12.1C48.0098 11.7972 47.518 11.5614 47 11.4L49.58 16.33C50.2979 15.3445 50.9207 14.2931 51.44 13.19Z" fill="black"/>
<path d="M19.31 41.45C20.1942 41.2659 21.1015 41.2187 22 41.31C22.175 41.3702 22.365 41.3702 22.54 41.31C23.428 40.98 24.3738 40.8337 25.32 40.88C28.95 40.49 32.59 40.14 36.23 39.8C37.88 39.65 39.54 39.5 41.23 39.44C44.07 39.35 46.91 39.28 49.76 39.3C52.39 39.3 55.02 39.44 57.65 39.53C57.9772 39.5083 58.3049 39.565 58.6059 39.6954C58.9068 39.8259 59.1722 40.0263 59.38 40.28C59.475 40.3818 59.5444 40.5047 59.5827 40.6385C59.6209 40.7724 59.6268 40.9134 59.6 41.05C58.6 45.36 58.29 49.79 57.44 54.12C57.44 54.25 57.38 54.37 57.34 54.59C56.96 54.59 56.6 54.51 56.25 54.44C55.9 54.37 55.25 54.2 54.79 54.12C53.7165 53.9311 52.6108 54.1296 51.67 54.68C50.1314 55.514 48.8593 56.7653 48 58.29C47.5425 59.1801 47.2864 60.1599 47.25 61.16L35.25 61.71C35.14 61.43 35.02 61.14 34.92 60.85C34.6493 59.9381 34.1582 59.107 33.49 58.43C33.3588 58.3121 33.2708 58.1537 33.24 57.98C33.1775 57.3158 32.8581 56.7023 32.35 56.27C31.695 55.6134 30.891 55.125 30.0064 54.8464C29.1218 54.5678 28.183 54.5073 27.27 54.67C25.5871 54.9189 23.9831 55.5481 22.58 56.51C21.24 51.54 20.42 46.53 19.31 41.45Z" fill="black"/>
</svg>
