<svg width="80" height="80" viewBox="0 0 80 80" fill="none" xmlns="http://www.w3.org/2000/svg">
<path d="M31.64 32.41C31.79 32.19 31.94 31.97 32.08 31.74C32.91 30.36 33.76 28.99 34.56 27.6C34.95 26.93 35.22 26.19 35.56 25.52C35.7736 25.1797 36.0403 24.8759 36.35 24.62C36.4433 24.5232 36.5551 24.4462 36.6788 24.3936C36.8025 24.3411 36.9356 24.314 37.07 24.314C37.2044 24.314 37.3375 24.3411 37.4612 24.3936C37.5849 24.4462 37.6967 24.5232 37.79 24.62C38.0565 24.8482 38.2919 25.1104 38.49 25.4C39.49 26.82 40.49 28.26 41.49 29.69L41.93 30.28C42.34 29.47 42.71 28.73 43.09 27.99C43.8216 26.5583 44.8935 25.328 46.2117 24.4074C47.5299 23.4868 49.0539 22.9039 50.65 22.71C52.3019 22.3963 53.9981 22.3963 55.65 22.71C55.9399 22.7554 56.2224 22.8395 56.49 22.96C57.9289 23.6749 59.3157 24.4902 60.64 25.4C62.7589 27.0407 64.3624 29.255 65.26 31.78C65.356 32.0617 65.473 32.3358 65.61 32.6C66.1909 33.7242 66.5314 34.957 66.61 36.22C66.61 36.48 66.69 36.74 66.73 37.03H68.1C69.53 37.03 70.95 37.03 72.37 37.03C73.37 37.03 73.76 37.46 73.82 38.47C73.94 40.65 74.06 42.82 74.15 44.99C74.28 48.08 74.36 51.17 74.5 54.26C74.57 55.71 74.75 57.15 74.86 58.59C74.96 59.82 75.03 61.05 75.11 62.4C74.61 62.48 74.11 62.6 73.63 62.64C71.97 62.77 70.31 62.87 68.63 62.99L60.63 63.53C59.07 63.63 57.52 63.69 55.96 63.78C54.03 63.89 52.1 64 50.17 64.15C49.7473 64.2214 49.3322 64.3319 48.93 64.48C48.93 64.95 49 65.32 49.03 65.69C49.0725 65.9637 49.0191 66.2436 48.8788 66.4824C48.7384 66.7212 48.5198 66.904 48.26 67C48.1108 67.0481 47.9789 67.1384 47.88 67.26C47.7242 67.4823 47.5132 67.6601 47.2676 67.7759C47.0221 67.8916 46.7506 67.9413 46.48 67.92C43.55 68 40.63 68.1 37.7 68.11C35.34 68.11 32.98 68.02 30.61 67.98C29.61 67.98 29.55 67.98 29.14 66.98C29.1186 66.9009 29.0773 66.8286 29.02 66.77C28.3 66.35 28.34 65.61 28.26 64.92C28.21 64.5 28.18 64.08 28.14 63.63C27.96 63.63 27.83 63.63 27.7 63.63C24.6137 63.5033 21.5229 63.5367 18.44 63.73C15.6 63.9 12.75 64.02 9.91 64.16C9.48 64.16 9.05 64.16 8.62 64.16C8.42815 64.173 8.23609 64.1378 8.06139 64.0574C7.88669 63.977 7.73493 63.8542 7.62 63.7C7.50285 63.5544 7.35633 63.4352 7.19 63.35C6.97162 63.2448 6.78731 63.0801 6.6582 62.875C6.52909 62.6698 6.4604 62.4324 6.46 62.19L5.89 56.75C5.81 56 5.72 55.25 5.67 54.5C5.43501 50.3967 5.43501 46.2833 5.67 42.18C5.8 39.33 5.78 36.48 5.82 33.63C5.83514 33.5507 5.83514 33.4693 5.82 33.39C5.48 32.45 6.01 31.93 6.67 31.39C11.72 27 17 22.94 22.26 18.84C24.26 17.24 26.56 15.89 28.74 14.47C29.8 13.78 30.64 14.18 30.82 15.42C30.8766 15.8979 30.9033 16.3788 30.9 16.86C30.97 20.71 31.02 24.55 31.13 28.39C31.13 29.72 31.35 31.05 31.46 32.39L31.64 32.41ZM71.74 39.32C71.4712 39.2862 71.2008 39.2662 70.93 39.26H65.13C64.7943 39.2433 64.4601 39.2032 64.13 39.14C63.8241 39.0691 63.5132 39.0222 63.2 39C62.04 39 60.89 39.06 59.73 39.1C56.13 39.21 52.54 39.33 48.94 39.46C48.73 39.46 48.53 39.46 48.29 39.52C48.3067 39.6126 48.3336 39.7032 48.37 39.79C49.22 41.13 50.08 42.46 50.93 43.79C51.41 44.54 51.93 45.28 52.35 46.04C52.455 46.1697 52.53 46.321 52.5696 46.4832C52.6091 46.6453 52.6123 46.8142 52.5788 46.9776C52.5454 47.1411 52.4761 47.2952 52.376 47.4287C52.2759 47.5623 52.1475 47.672 52 47.75C51.8617 47.834 51.7369 47.9385 51.63 48.06C51.4747 48.2624 51.2697 48.4213 51.035 48.5212C50.8002 48.6211 50.5435 48.6585 50.29 48.63C49.64 48.63 49 48.63 48.35 48.7C48.1538 48.7246 47.9598 48.7647 47.77 48.82C47.7208 53.276 48.015 57.7292 48.65 62.14H49C51.11 61.93 53.22 61.68 55.33 61.51C56.86 61.38 58.39 61.39 59.92 61.28C62.49 61.11 65.06 60.89 67.63 60.72C68.94 60.63 70.26 60.61 71.63 60.54C71.99 60.54 72.36 60.46 72.81 60.4C72 53.36 72 46.36 71.74 39.32ZM64.35 36.64C64.35 36.29 64.29 35.98 64.26 35.64C64.0569 34.646 63.7205 33.684 63.26 32.78C62.5421 30.7773 61.3437 28.9815 59.77 27.55C58.5565 26.5387 57.2107 25.6977 55.77 25.05C55.5969 24.9778 55.4155 24.9274 55.23 24.9C53.933 24.675 52.607 24.675 51.31 24.9C50.2107 25.0032 49.1466 25.3425 48.1904 25.8948C47.2343 26.4471 46.4087 27.1993 45.77 28.1C45.3 28.7 45 29.4 44.56 30C43.8 30.9 44.09 32 43.83 33C43.83 33.1 43.92 33.25 43.99 33.36C44.86 34.62 45.73 35.87 46.59 37.14C46.6632 37.2666 46.7732 37.3679 46.9054 37.4304C47.0376 37.4929 47.1857 37.5137 47.33 37.49C48.05 37.43 48.78 37.38 49.5 37.34C51.99 37.19 54.5 37.01 56.97 36.91C59.2 36.81 61.42 36.8 63.65 36.74C63.8849 36.7187 64.1185 36.6854 64.35 36.64ZM29.59 50.47C30.39 55.6 29.98 60.75 30.7 65.93L35 65.71C34.92 64.71 34.84 63.83 34.77 62.93C34.68 61.67 34.54 60.41 34.51 59.15C34.4359 58.7614 34.4941 58.3592 34.6754 58.0075C34.8567 57.6559 35.1505 57.3751 35.51 57.21C36.9383 56.6549 38.4923 56.5061 40 56.78C40.3422 56.8101 40.6605 56.9676 40.8921 57.2213C41.1236 57.4751 41.2513 57.8065 41.25 58.15C41.39 59.24 41.5 60.34 41.62 61.43C41.6854 62.893 41.9237 64.343 42.33 65.75C43.7788 65.783 45.2282 65.7263 46.67 65.58C46.36 62.72 45.97 59.98 45.79 57.22C45.61 54.46 45.63 51.72 45.56 48.88L29.59 50.47ZM28.67 17.27C28.5423 17.3245 28.4187 17.388 28.3 17.46C26.98 18.34 25.61 19.15 24.37 20.12C19.11 24.22 13.9 28.36 8.67 32.49C8.57951 32.5884 8.49911 32.6956 8.43 32.81C15.35 32.48 22.15 31.72 28.99 31.53C28.88 29.17 28.74 26.81 28.69 24.45C28.64 22.09 28.67 19.73 28.67 17.27ZM22.13 43.93C22.319 40.6844 22.2756 37.4294 22 34.19L15.19 34.71L15.75 44.18L22.13 43.93ZM8 35V44.27C9.8 44.27 11.55 44.27 13.39 44.15L13.04 34.86L8 35ZM15.75 46.53C16.04 49.02 16.08 51.42 16.36 53.86L22 53.65C22.08 51.11 22.16 48.65 22.23 46.24L15.75 46.53ZM8 46.34C7.74897 48.8557 7.78252 51.3918 8.1 53.9H14C13.81 51.37 13.63 48.95 13.44 46.47L8 46.34ZM8.2 56.19L8.92 62.13L14.8 61.56L14.4 56.19H8.2ZM24.33 34C24.44 37.33 24.55 40.55 24.67 43.95C24.8279 43.7794 24.9748 43.5991 25.11 43.41C26.53 40.9433 27.9467 38.4733 29.36 36C29.44 35.87 29.56 35.7 29.54 35.57C29.44 34.97 29.3 34.38 29.18 33.77L24.33 34ZM22.58 61.24L22.21 56.09H16.68L17 61.47L22.58 61.24ZM39.24 58.93C38.3538 58.7404 37.4335 58.7852 36.57 59.06C36.82 61.3 37.06 63.52 37.31 65.83H39.78C39.68 64.67 39.57 63.52 39.48 62.38C39.39 61.24 39.32 60.1 39.24 58.93ZM27.85 56H24.51C24.5855 57.7604 24.7491 59.5159 25 61.26H27.86L27.85 56ZM27.73 53.61C27.73 53.02 27.65 52.52 27.62 52.02C27.59 51.52 27.57 51.02 27.54 50.51L24.15 50.37L24.35 53.61H27.73Z" fill="black"/>
<path d="M64.45 49.91C63.86 49.91 63.27 49.91 62.68 49.91C62.2698 49.9406 61.8639 49.809 61.5497 49.5434C61.2356 49.2779 61.0382 48.8996 61 48.49C60.7152 46.9594 60.6747 45.3933 60.88 43.85C61 42.85 61.38 42.54 62.35 42.46C63.32 42.38 64.23 42.4 65.16 42.33C65.5098 42.3034 65.8503 42.2047 66.16 42.04C66.3117 41.9167 66.4908 41.8316 66.6822 41.7919C66.8737 41.7522 67.0718 41.7592 67.26 41.8121C67.4482 41.865 67.621 41.9624 67.7637 42.0961C67.9064 42.2297 68.0149 42.3957 68.08 42.58C68.389 43.2941 68.5782 44.0543 68.64 44.83C68.6896 45.8884 68.6461 46.9492 68.51 48C68.4885 48.4235 68.3166 48.8255 68.0251 49.1335C67.7336 49.4415 67.3417 49.6353 66.92 49.68C66.11 49.81 65.27 49.84 64.45 49.92V49.91ZM66.28 47.44C66.4193 46.4224 66.3923 45.3889 66.2 44.38L63.15 44.67C62.9905 45.638 63.0313 46.6284 63.27 47.58L66.28 47.44Z" fill="black"/>
<path d="M49.82 55.78C49.92 54.67 49.94 53.84 50.07 53.02C50.25 51.89 50.67 51.54 51.79 51.5L55.09 51.39C55.78 51.39 56.38 51.5 56.61 52.27C57.73 53.27 57.61 54.65 57.67 55.94C57.7181 56.2697 57.6937 56.606 57.5984 56.9253C57.5032 57.2446 57.3394 57.5393 57.1184 57.7888C56.8975 58.0383 56.6248 58.2365 56.3194 58.3697C56.014 58.5029 55.6831 58.5679 55.35 58.56C54.04 58.69 52.72 58.75 51.41 58.79C51.1946 58.8203 50.975 58.8 50.7688 58.7306C50.5626 58.6613 50.3754 58.5448 50.222 58.3905C50.0687 58.2361 49.9534 58.0482 49.8854 57.8416C49.8173 57.6349 49.7984 57.4153 49.83 57.2C49.82 56.63 49.82 56.07 49.82 55.78ZM55.38 56.26C55.4081 55.2977 55.259 54.3384 54.94 53.43L52.26 53.66V56.4L55.38 56.26Z" fill="black"/>
</svg>
