<?xml version="1.0" encoding="utf-8"?>
<!-- Generator: Adobe Illustrator 24.3.0, SVG Export Plug-In . SVG Version: 6.00 Build 0)  -->
<svg version="1.1" id="Layer_1" xmlns="http://www.w3.org/2000/svg" xmlns:xlink="http://www.w3.org/1999/xlink" x="0px" y="0px"
	 viewBox="0 0 80 80" style="enable-background:new 0 0 80 80;" xml:space="preserve">
<path d="M21.7,19.8l-1.5,0.1c-0.3,0.1-0.5,0-0.8-0.1c-0.4-0.2-0.4-0.6-0.6-0.9c-0.6-0.4-0.6-1-0.6-1.6c0-1.6,0.1-3.2,0-4.8
	c0-1,0.7-2.3,1.8-2.4C34,8.9,48.1,8.6,62,8.6c0.9,0.2,1.1,0.4,1.2,1.3c0.3,2.1,0.4,4.2,0.6,6.4c0,2.8-2.7,2-4.6,2.3
	c0,0.9,0,1.8,0,2.7c0.4,3.5-1,7-3.6,9.4c-1.8,2-4.3,3-6.5,4.3c-1,0.6-2.2,1.3-2.5,2.5c-0.2,0.5,0,0.7,0.5,0.8
	c1.7,0.3,3.6,0.2,5.1,1.3c0.7,0.5,1.5,0.9,2.2,1.3c5.1,4.4,4,12,4.8,18.1c1.6-0.3,3.1-0.2,4.8-0.2c0.4,0,0.8,0.3,0.8,0.7
	c0.3,2.6,0.3,5.3,0.4,8c0.1,0.6,0,1.3-0.6,1.5c-3.7,1.4-7.7,0.9-11.5,1c-6.2,0.1-12.3,0.2-18.5,0.3c-4.3,0.1-8.6,0.4-13,0.3
	c-0.3,0.1-0.7,0-1-0.3c-0.5-0.4-0.5-1-0.5-1.5c0-2.2,0-4.3,0-6.5c-0.2-1.7,1.1-1.6,2.3-1.9c-0.4-3.5-0.1-7-0.1-10.5
	c0.5-3,0.9-6.4,3.4-8.5c0.7-0.7,1.6-1.3,2.4-1.9c2-1,4.5-0.8,6.5-1.7c-0.2-0.8-1.2-1-1.9-1.2c-5.1-0.7-9.2-5-10.5-9.9
	C21.5,24.5,21.7,22.3,21.7,19.8z M24.2,60.2c10.9-0.3,22-1.1,32.9-1c-0.1-1.6-0.5-6.4-0.6-8.1c-0.4-3.1-1-6.8-3.7-8.7
	c-1.2-0.7-2.4-1.7-3.9-1.7c-2.8-0.1-5.4-1.1-4-4.4c0.9-2.1,3.1-3.1,5.1-4.1c2-0.9,3.8-2.3,5.2-4c1.9-2.2,2.6-5.6,2-8.4
	c-0.3-0.3-0.5-0.8-0.4-1.2c-7.3-0.2-14.5,0.3-21.7,0.9c-3.8,0.2-7.5,0.2-11.3,0.4c0,2.7-0.2,5.5,0.9,8c0.9,1.9,2.2,3.6,3.8,4.9
	c1.1,0.9,2.4,1.5,3.8,1.8c1.8,0.2,3.6,0.9,4.3,2.7c1.6,3.5-5.4,3.5-7.4,4.3c-3,1.2-4.3,4.1-4.6,7.2C23.8,52.4,24.2,56.3,24.2,60.2z
	 M22.7,68.6c4.5,0.1,9.1-0.3,13.6-0.4c8.9-0.4,17.8,0.2,26.7-0.5v-6.9c-1.2-0.1-2.1,0.1-3.2,0.4c-6,0-11.9,0.1-17.9,0.3
	c-6,0.2-13.2,0.6-19.2,0.8c-0.7,0-0.8,0.2-0.8,0.9C22,65,21.7,66.9,22.7,68.6z M61.8,16.3c-0.1-2-0.2-3.9-0.3-5.9
	c-12.4,0.3-24.8,0.6-37.1,1.3c-1.2,0.1-2.4,0.2-3.6,0.4c-0.5,0.1-0.5,0.2-0.5,0.6c0,1.7,0.1,3.4,0.1,5.2c7.2-0.4,14.4-0.4,21.5-1.1
	C48.6,16.3,55.2,16.7,61.8,16.3z"/>
<path d="M37.9,35.1c-1.8-1.2-4-1.6-5.9-2.5c-2.7-1.2-4.2-3.8-5.4-6.4c-0.5-0.9-0.7-1.9-0.6-2.9c0-0.7,0.5-1.6,1.3-1.7
	c1.2-0.2,2.5-0.3,3.7-0.4c5.4-0.4,10.8-0.4,16.2-0.6c1.8-0.1,3.5-0.2,5.2-0.3c1-0.2,2,0.7,2,1.7c-0.1,6-6.3,9.2-10.9,11.7
	c-0.1,3.9,0.3,8,0.4,11.9c0.2,1.6-0.2,3.4,0.1,4.9c0.1,0.2,0.3,0.3,0.5,0.4c2,0.9,3.9,1.9,5.8,3.1c1.6,0.9,3.2,1.6,4.8,2.4
	c0.2,0.1,0.3,0.3,0.4,0.5c0.3,0.6-0.2,1.4-0.9,1.4c-2.4,0.3-4.7,0.4-7.1,0.3c-5.2,0.1-10.4,0.2-15.6,0.2c-1.3,0.1-2.7-0.2-3.9,0.2
	c-0.6,0.3-1.2,0.2-1.5-0.4c-0.3-0.5-0.1-1.2,0.5-1.5c3.3-2.3,7.1-3.7,10.5-5.8c0.3-0.2,0.4-0.5,0.4-0.8c0-1.8,0-3.7,0-5.5
	C37.9,41.8,38.3,38.4,37.9,35.1z"/>
</svg>
