<svg width="80" height="80" viewBox="0 0 80 80" fill="none" xmlns="http://www.w3.org/2000/svg">
<path d="M21.71 19.84L20.21 19.93C19.9541 19.9938 19.6834 19.9539 19.4568 19.8191C19.2302 19.6842 19.066 19.4653 19 19.21C18.9868 19.1133 18.945 19.0228 18.88 18.95C18.28 18.54 18.3 17.95 18.31 17.31C18.31 15.7 18.36 14.1 18.31 12.49C18.3167 12.0917 18.4095 11.6995 18.5822 11.3405C18.7548 10.9814 19.0031 10.664 19.31 10.41C19.5458 10.2434 19.8222 10.1432 20.11 10.12C22.011 9.83313 23.9281 9.66613 25.85 9.62002C32.24 9.36002 38.63 9.03002 45.02 8.82002C50.37 8.65002 55.72 8.62002 61.02 8.53002C61.3346 8.51513 61.6499 8.53525 61.96 8.59002C62.82 8.74002 63.08 9.02002 63.18 9.87002C63.26 10.55 63.34 11.23 63.4 11.87C63.52 13.33 63.6 14.79 63.75 16.24C63.7614 16.5791 63.6974 16.9165 63.5625 17.2278C63.4276 17.5391 63.2252 17.8165 62.97 18.04C62.7053 18.2504 62.3781 18.3665 62.04 18.37C61.39 18.44 60.73 18.42 60.04 18.45C59.73 18.45 59.42 18.5 59.11 18.53C59.0647 19.4194 59.0647 20.3106 59.11 21.2C59.3014 23.3212 58.9107 25.4544 57.98 27.37C57.3259 28.5662 56.493 29.6554 55.51 30.6C54.5496 31.6375 53.4245 32.5092 52.18 33.18C51.11 33.76 50.01 34.29 48.96 34.9C48.3015 35.2616 47.6845 35.6942 47.12 36.19C46.7907 36.5391 46.5476 36.9603 46.41 37.42C46.24 37.9 46.41 38.16 46.94 38.26C47.59 38.38 48.24 38.48 48.94 38.54C50.0357 38.6025 51.0966 38.9469 52.02 39.54C52.73 40.01 53.47 40.44 54.18 40.89C55.2035 41.609 56.0012 42.6045 56.48 43.76C57.5257 45.9071 58.1632 48.2299 58.36 50.61C58.49 52.38 58.64 54.15 58.78 55.92C58.86 56.92 58.94 57.92 59.03 58.99C59.6 58.93 60.14 58.84 60.69 58.82C61.69 58.82 62.77 58.82 63.81 58.82C64.0091 58.8203 64.2015 58.8922 64.352 59.0225C64.5026 59.1529 64.6012 59.333 64.63 59.53C64.7105 59.908 64.7507 60.2935 64.75 60.68C64.86 62.96 64.95 65.24 65.04 67.53C65.055 67.7464 65.055 67.9636 65.04 68.18C65.0267 68.3642 64.9627 68.5411 64.855 68.6912C64.7474 68.8412 64.6002 68.9585 64.43 69.03C63.9398 69.238 63.4308 69.3987 62.91 69.51C61.74 69.72 60.56 69.89 59.38 70.03C59.0364 70.0395 58.6925 70.0294 58.35 70C56.53 70 54.71 70 52.88 70C46.7267 70.08 40.5767 70.18 34.43 70.3C31.92 70.3 29.43 70.51 26.92 70.59C25.87 70.59 24.83 70.59 23.78 70.59C23 70.59 22.22 70.59 21.45 70.59C21.2792 70.6152 21.1051 70.6053 20.9383 70.561C20.7715 70.5166 20.6154 70.4387 20.4797 70.332C20.344 70.2253 20.2315 70.0921 20.149 69.9404C20.0665 69.7888 20.0158 69.6219 20 69.45C19.9801 69.2305 19.9801 69.0096 20 68.79C20 66.63 20 64.46 20 62.3C19.9849 62.107 19.9849 61.9131 20 61.72C20.0149 61.4809 20.1083 61.2533 20.2655 61.0726C20.4228 60.8918 20.6352 60.7679 20.87 60.72L22.28 60.43C22.1836 59.7669 22.1202 59.0994 22.09 58.43C22.09 55.61 22.16 52.79 22.21 49.97C22.2323 49.5824 22.2892 49.1975 22.38 48.82C22.6 47.75 22.79 46.67 23.08 45.62C23.4524 43.9972 24.3189 42.5299 25.56 41.42C26.2917 40.6997 27.1115 40.0747 28 39.56C28.8589 39.1649 29.7725 38.902 30.71 38.78C31.84 38.63 32.95 38.33 34.06 38.09C34.2207 38.0332 34.3749 37.9594 34.52 37.87C34.4629 37.6765 34.3606 37.4994 34.2215 37.3533C34.0824 37.2073 33.9105 37.0964 33.72 37.03C33.3657 36.875 32.9925 36.7674 32.61 36.71C29.5863 36.2937 26.8504 34.6974 25 32.27C23.626 30.709 22.6332 28.8501 22.1 26.84C21.8856 25.9441 21.755 25.0301 21.71 24.11C21.66 22.73 21.71 21.34 21.71 19.84ZM24.18 60.2H24.91C26.85 60.12 28.79 60.03 30.74 59.96C32.17 59.9 33.61 59.9 35.04 59.84C38.61 59.68 42.18 59.44 45.75 59.33C49.32 59.22 52.61 59.22 56.04 59.18H57.04C56.97 58.35 56.92 57.63 56.86 56.91L56.41 51.1C56.2508 48.9609 55.7089 46.8677 54.81 44.92C54.3959 43.8728 53.6608 42.9836 52.71 42.38C52.12 42.04 51.54 41.69 50.97 41.32C50.3273 40.9189 49.5958 40.6819 48.84 40.63C48.115 40.57 47.3939 40.4699 46.68 40.33C46.3078 40.278 45.9512 40.1462 45.6346 39.9436C45.318 39.741 45.0489 39.4724 44.8457 39.1562C44.6425 38.84 44.51 38.4837 44.4572 38.1115C44.4045 37.7394 44.4327 37.3602 44.54 37C44.6022 36.7402 44.6858 36.486 44.79 36.24C45.4211 34.9289 46.4789 33.8712 47.79 33.24C48.46 32.85 49.17 32.52 49.87 32.18C51.8795 31.2411 53.6607 29.8762 55.09 28.18C55.8412 27.2998 56.412 26.2804 56.77 25.18C57.2433 23.5377 57.3861 21.8179 57.19 20.12C57.19 20.01 57.19 19.85 57.09 19.79C56.9301 19.6283 56.8126 19.4295 56.7481 19.2115C56.6835 18.9934 56.6739 18.7627 56.72 18.54H54.67C50.83 18.54 46.98 18.54 43.15 18.83C40.43 19.01 37.72 19.28 35 19.4C31.43 19.56 27.86 19.62 24.28 19.73L23.73 19.79C23.73 19.99 23.68 20.14 23.68 20.28C23.68 21.59 23.74 22.91 23.79 24.22C23.8389 25.4616 24.1418 26.6801 24.68 27.8C25.5618 29.7068 26.8685 31.3864 28.5 32.71C29.5927 33.604 30.8925 34.2091 32.28 34.47C32.76 34.56 33.28 34.62 33.71 34.74C34.3439 34.8753 34.9354 35.1626 35.4336 35.5772C35.9318 35.9918 36.3218 36.5213 36.57 37.12C36.7037 37.3273 36.7891 37.5619 36.8201 37.8066C36.8512 38.0513 36.8269 38.2999 36.7492 38.534C36.6715 38.768 36.5423 38.9817 36.3711 39.1593C36.1999 39.3369 35.9911 39.4738 35.76 39.56C35.525 39.7363 35.2699 39.884 35 40C33.6213 40.4781 32.1972 40.8132 30.75 41C30.2234 41.065 29.7064 41.1926 29.21 41.38C28.3346 41.7725 27.5382 42.3215 26.86 43C25.9533 43.8529 25.3288 44.9624 25.07 46.18C24.86 46.96 24.72 47.75 24.56 48.53C24.4312 49.0493 24.341 49.5774 24.29 50.11C24.12 53.02 24.06 55.94 24.18 58.86C24.19 59.26 24.18 59.7 24.18 60.2ZM22.7 68.55C23.82 68.55 24.99 68.55 26.15 68.55C29.53 68.43 32.9 68.21 36.28 68.14C41.94 68.03 47.61 67.99 53.28 67.94C55.2 67.94 57.12 67.94 59.04 67.94C59.7067 67.94 60.4067 67.92 61.14 67.88C61.77 67.88 62.38 67.74 62.97 67.67V60.8C62.4 60.8 61.91 60.8 61.44 60.8C61.1001 60.8446 60.7652 60.9216 60.44 61.03C60.2248 61.1192 60 61.1829 59.77 61.22C57.9 61.22 56.03 61.22 54.16 61.22C50.0667 61.3 45.9833 61.4067 41.91 61.54C38 61.67 34.09 61.86 30.18 62.02L22.68 62.3C22.02 62.3 21.89 62.51 21.91 63.16C21.91 64.37 21.99 65.59 22.04 66.8C22.0509 67.0132 22.0983 67.2229 22.18 67.42C22.33 67.81 22.51 68.14 22.7 68.55ZM61.76 16.31C61.65 14.31 61.55 12.4 61.45 10.43H60.79C59.91 10.43 59.04 10.52 58.16 10.54C54.3 10.64 50.43 10.72 46.56 10.84C43.06 10.94 39.56 11.05 36.06 11.2C32.1467 11.3667 28.2367 11.5567 24.33 11.77C23.14 11.84 21.96 12.01 20.78 12.16C20.32 12.21 20.27 12.32 20.28 12.78C20.28 14.22 20.36 15.65 20.41 17.08C20.41 17.37 20.41 17.65 20.41 17.97C20.59 17.97 20.71 17.97 20.82 17.97C22.01 17.9 23.2 17.78 24.39 17.74C30.25 17.56 36.11 17.41 41.95 16.88C46.03 16.51 50.12 16.52 54.2 16.51C56.37 16.51 58.53 16.43 60.7 16.39C61.05 16.38 61.36 16.34 61.76 16.31Z" fill="black"/>
<path d="M37.89 35.06C37.337 34.7228 36.7661 34.4157 36.18 34.14C35.47 33.83 34.72 33.62 33.99 33.36C33.3019 33.1546 32.6327 32.8903 31.99 32.57C30.5528 31.8402 29.3166 30.7689 28.39 29.45C27.73 28.4 27.15 27.3 26.59 26.2C26.1131 25.3148 25.8948 24.3134 25.96 23.31C25.9885 22.8271 26.1747 22.3669 26.49 22C26.6985 21.8021 26.9648 21.676 27.25 21.64C28.48 21.49 29.71 21.35 30.95 21.25C36.33 20.81 41.73 20.82 47.13 20.63C48.88 20.57 50.63 20.47 52.37 20.37C52.619 20.3341 52.8729 20.3522 53.1143 20.4233C53.3556 20.4944 53.5788 20.6166 53.7687 20.7818C53.9585 20.9469 54.1105 21.1511 54.2142 21.3803C54.318 21.6095 54.3711 21.8584 54.37 22.11C54.4017 23.3062 54.1263 24.4906 53.57 25.55C52.5915 27.4392 51.1499 29.0494 49.38 30.23C48.1 31.11 46.8 31.97 45.48 32.79C44.9518 33.0922 44.3959 33.3434 43.82 33.54C43.6803 33.5778 43.5597 33.6664 43.482 33.7885C43.4043 33.9107 43.375 34.0574 43.4 34.2C43.57 38.04 43.73 41.87 43.87 45.71C43.93 47.15 43.87 48.58 43.87 50.02C43.8322 50.2351 43.8757 50.4567 43.9921 50.6415C44.1086 50.8263 44.2896 50.9612 44.5 51.02C46.5032 51.905 48.4327 52.9483 50.27 54.14C51.66 54.93 53.14 55.56 54.58 56.26C54.7617 56.3245 54.9388 56.4013 55.11 56.49C55.299 56.6046 55.4448 56.7787 55.5244 56.985C55.604 57.1912 55.613 57.4181 55.55 57.63C55.492 57.8297 55.3732 58.0064 55.2101 58.1355C55.047 58.2645 54.8477 58.3395 54.64 58.35C52.2773 58.6247 49.8975 58.725 47.52 58.65C42.32 58.71 37.11 58.81 31.91 58.9C30.98 58.9 30.06 58.9 29.13 58.9C28.7483 58.9186 28.3728 59.0032 28.02 59.15C27.38 59.4 26.84 59.3 26.56 58.79C26.4249 58.5295 26.3974 58.2265 26.4835 57.946C26.5695 57.6655 26.7621 57.43 27.02 57.29C29.2488 55.8338 31.5894 54.5564 34.02 53.47C35.24 52.88 36.37 52.1 37.55 51.47C37.6843 51.3892 37.7907 51.2692 37.8551 51.1263C37.9194 50.9833 37.9386 50.8241 37.91 50.67C37.91 48.82 37.91 46.97 37.91 45.12C37.8686 44.1424 37.8987 43.1632 38 42.19C38.17 40.3305 38.17 38.4595 38 36.6C38 36.06 37.93 35.53 37.89 35.06ZM52.42 22.49C44.21 22.91 36.03 22.88 27.86 23.49C27.7676 23.94 27.8499 24.4083 28.09 24.8C28.7585 26.0967 29.4928 27.3583 30.29 28.58C31.0114 29.5368 31.9647 30.294 33.06 30.78C34.72 31.58 36.62 31.78 38.16 32.89C38.2184 32.9323 38.2879 32.9567 38.36 32.96C39.07 32.96 39.36 33.47 39.56 34.06C39.6746 34.4066 39.7648 34.7608 39.83 35.12C40.164 37.3975 40.3112 39.6985 40.27 42C40.27 42.48 40.17 43 40.13 43.44C40.07 44.14 39.97 44.84 39.96 45.54C39.96 47.46 39.96 49.38 39.96 51.3C39.978 51.5059 39.9435 51.7131 39.8595 51.902C39.7755 52.0909 39.645 52.2554 39.48 52.38C37.7279 53.7321 35.853 54.9173 33.88 55.92C33.36 56.15 32.88 56.42 32.35 56.68V56.8L50.01 56.57C49.89 56.45 49.86 56.38 49.8 56.35C47.7905 55.0277 45.7145 53.8094 43.58 52.7C42.9968 52.4814 42.5032 52.0745 42.1772 51.5439C41.8512 51.0132 41.7114 50.389 41.78 49.77C41.8401 46.6359 41.6797 43.5015 41.3 40.39C41.0648 38.5524 41.0346 36.6943 41.21 34.85C41.2868 34.2979 41.3936 33.7504 41.53 33.21C41.6889 32.6107 42.0403 32.0802 42.53 31.7C42.7156 31.5248 42.9366 31.3913 43.1781 31.3085C43.4195 31.2257 43.6759 31.1956 43.93 31.22C44.1459 31.2008 44.3529 31.1249 44.53 31C46.1464 30.0568 47.6877 28.9903 49.14 27.81C50.1616 26.9724 51.0223 25.9558 51.68 24.81C52.1111 24.1081 52.3651 23.3119 52.42 22.49Z" fill="black"/>
<path d="M52.42 22.49C52.3618 23.2973 52.1115 24.079 51.69 24.77C51.0323 25.9158 50.1716 26.9323 49.15 27.77C47.6991 28.9641 46.1578 30.044 44.54 31C44.3629 31.1249 44.1559 31.2008 43.94 31.22C43.6859 31.1955 43.4295 31.2257 43.1881 31.3085C42.9466 31.3913 42.7256 31.5248 42.54 31.7C42.0503 32.0802 41.6989 32.6107 41.54 33.21C41.4036 33.7504 41.2968 34.2979 41.22 34.85C41.0446 36.6943 41.0748 38.5524 41.31 40.39C41.6898 43.5015 41.8501 46.6359 41.79 49.77C41.7214 50.389 41.8612 51.0132 42.1872 51.5439C42.5132 52.0745 43.0068 52.4813 43.59 52.7C45.7244 53.8094 47.8005 55.0276 49.81 56.35C49.87 56.35 49.9 56.45 50.02 56.57L32.36 56.8V56.68C32.87 56.42 33.36 56.15 33.89 55.92C35.863 54.9173 37.7379 53.7321 39.49 52.38C39.6682 52.2544 39.8095 52.0833 39.8992 51.8846C39.9889 51.6859 40.0237 51.4667 40 51.25C40 49.33 40 47.41 40 45.49C40 44.79 40.11 44.09 40.17 43.39C40.17 42.91 40.31 42.39 40.31 41.95C40.3485 39.6652 40.2013 37.381 39.87 35.12C39.8048 34.7608 39.7146 34.4066 39.6 34.06C39.41 33.47 39.11 32.99 38.4 32.96C38.3279 32.9567 38.2584 32.9323 38.2 32.89C36.66 31.79 34.76 31.58 33.1 30.78C32.0047 30.294 31.0514 29.5368 30.33 28.58C29.5328 27.3583 28.7985 26.0966 28.13 24.8C27.8899 24.4083 27.8076 23.94 27.9 23.49C36 22.88 44.21 22.91 52.42 22.49Z" fill="black"/>
</svg>
