<svg width="80" height="80" viewBox="0 0 80 80" fill="none" xmlns="http://www.w3.org/2000/svg">
<path d="M47.5 66.55L44.5 68.27C44.5 68.68 44.5 69.19 44.5 69.7C44.4988 70.0665 44.4415 70.4308 44.33 70.78C44.2273 71.0796 44.0204 71.3324 43.7468 71.4921C43.4733 71.6518 43.1514 71.7079 42.84 71.65C42.5458 71.6107 42.2721 71.4776 42.0595 71.2704C41.847 71.0632 41.7069 70.7931 41.66 70.5C41.6401 70.2804 41.6401 70.0595 41.66 69.84C41.66 69.62 41.66 69.41 41.66 69.15H39.2C39.2 69.66 39.2 70.09 39.2 70.52C39.2107 70.8855 39.1805 71.2511 39.11 71.61C39.0427 71.9399 38.8571 72.2338 38.5882 72.4364C38.3193 72.639 37.9857 72.7363 37.65 72.71C37.3134 72.7004 36.9927 72.5644 36.7518 72.329C36.5109 72.0937 36.3675 71.7763 36.35 71.44C36.28 70.83 36.35 70.2 36.29 69.57V68.93C35.12 68.5 33.99 68.08 32.85 67.69C32.6751 67.6547 32.4949 67.6547 32.32 67.69C31.77 67.69 31.22 67.78 30.67 67.78C29.32 67.78 27.95 67.78 26.6 67.68C24.4615 67.5526 22.3826 66.9258 20.53 65.85C18.7637 64.7579 17.4962 63.0165 17 61C16.82 60.4 16.68 59.8 16.52 59.17C16.2535 59.1566 15.9865 59.1566 15.72 59.17C12.99 59.17 10.82 56.83 12.53 53.38C12.8005 52.9101 13.0977 52.456 13.42 52.02C12 50.57 11.58 48.93 12.79 47.16C13.2191 46.4253 13.9185 45.8875 14.7387 45.6614C15.5589 45.4354 16.4351 45.5389 17.18 45.95L17.72 42.2C16.89 41.9 16.18 41.64 15.45 41.39C12.04 40.24 10.72 37.62 10.57 34.26C10.4789 31.7321 10.6229 29.2012 11 26.7C11.7388 21.8591 12.7402 17.062 14 12.33C14.0914 11.7452 14.3684 11.2053 14.79 10.79C14.9464 10.6367 15.075 10.4573 15.17 10.26C16.1343 8.5745 17.511 7.1617 19.171 6.15417C20.831 5.14664 22.7197 4.57743 24.66 4.49997C26.9759 4.32092 29.3054 4.46905 31.58 4.93997C33.7674 5.33594 35.785 6.3813 37.37 7.93997C38.37 8.93997 39.3 9.93997 40.25 10.99C42.6966 13.7339 44.1878 17.197 44.5 20.86C44.82 23.63 44.99 26.43 45.21 29.22C45.35 31.09 45.46 32.96 45.56 34.83C45.56 35.42 45.56 36 45.56 36.66L46.21 36.86C46.82 35.86 47.32 34.86 47.96 33.98C49.1646 32.4758 50.7747 31.348 52.6 30.73C54.2395 30.1212 56.0317 30.0581 57.71 30.55C59.1013 30.9112 60.4274 31.4882 61.64 32.26C62.5972 32.8933 63.3727 33.7653 63.89 34.79C64.54 35.99 65.08 37.24 65.66 38.47C65.82 38.8 65.95 39.13 66.08 39.47C66.536 39.4347 66.994 39.4347 67.45 39.47C68.0736 39.5711 68.6573 39.8421 69.1371 40.2531C69.6169 40.6641 69.9743 41.1993 70.17 41.8C70.8319 43.1633 70.9767 44.7204 70.5777 46.1824C70.1786 47.6444 69.2627 48.912 68 49.75C67.58 50.05 67.14 50.31 66.72 50.58C66.912 51.5978 67.0422 52.6264 67.11 53.66C67.11 55.49 67.11 57.34 66.94 59.17C66.8045 60.422 66.3538 61.6193 65.63 62.65C64.781 63.9885 63.755 65.2061 62.58 66.27C61.5097 67.2971 60.1333 67.9467 58.66 68.12C57.66 68.21 56.66 68.48 55.72 68.52C52.8439 68.7091 49.9779 68.0223 47.5 66.55ZM42.56 37C42.5 36.54 42.41 36.14 42.39 35.74C42.28 33.61 42.22 31.48 42.07 29.35C41.89 26.74 41.69 24.14 41.42 21.54C41.148 18.0939 39.6758 14.8524 37.26 12.38C36.59 11.7 35.95 10.98 35.26 10.31C33.9636 9.04733 32.2941 8.23712 30.5 7.99997C29.5935 7.83687 28.6788 7.72336 27.76 7.65997C25.44 7.55997 23.11 7.55997 21.01 8.79997C19.8869 9.36698 18.9208 10.2019 18.197 11.2309C17.4732 12.2599 17.014 13.4514 16.86 14.7C16.71 16.03 16.67 17.38 16.57 18.89C17.79 18.95 18.99 19.09 20.19 19.06C23.1294 18.8244 26.0874 19.1053 28.93 19.89C29.3611 20.088 29.8097 20.2453 30.27 20.36C30.6865 20.4073 31.0776 20.5844 31.3881 20.8661C31.6985 21.1478 31.9126 21.52 32 21.93C32.1838 22.4103 32.3113 22.9103 32.38 23.42C32.59 26.13 32.85 28.85 32.93 31.56C33.04 35.75 33.02 39.95 33.06 44.14C33.06 44.42 33.13 44.7 33.17 45C33.54 45 33.83 45.06 34.17 45.07C35.0065 45.0817 35.8233 45.3254 36.5295 45.7738C37.2357 46.2223 37.8036 46.8579 38.17 47.61C38.4595 48.1217 38.6973 48.6611 38.88 49.22C39.34 50.73 39.74 52.22 40.16 53.78C40.27 54.16 40.35 54.55 40.46 54.97H42.88V47.05C42.58 46.93 42.38 46.85 42.19 46.76C41.2703 46.3809 40.5013 45.7089 40.0023 44.8483C39.5033 43.9877 39.3021 42.9865 39.43 42C39.5435 40.9852 39.8837 40.009 40.4255 39.1435C40.9673 38.278 41.6968 37.5454 42.56 37ZM15.09 21.46C14.99 22.03 14.91 22.53 14.82 23.03C14.1961 26.1693 13.815 29.3521 13.68 32.55C13.6532 33.4662 13.7067 34.3831 13.84 35.29C13.8691 35.7907 14.0178 36.2772 14.2736 36.7086C14.5293 37.1401 14.8847 37.5041 15.31 37.77C16.2211 38.2303 17.1897 38.5666 18.19 38.77C18.5589 38.8048 18.9167 38.9151 19.2412 39.0942C19.5656 39.2733 19.8497 39.5172 20.0757 39.8108C20.3018 40.1044 20.465 40.4414 20.5552 40.8009C20.6454 41.1603 20.6607 41.5344 20.6 41.9C20.46 43.63 20.24 45.34 20.1 47.06C20.05 47.71 20.1 48.37 20.1 49.06C20.1168 49.6409 20.0934 50.2223 20.03 50.8C19.96 51.37 19.71 51.93 19.68 52.5C19.6 54.19 19.5 55.88 19.58 57.57C19.6456 58.6666 19.8575 59.7495 20.21 60.79C20.4343 61.4877 20.8459 62.1103 21.4 62.59C22.3677 63.3765 23.4955 63.9424 24.7045 64.2481C25.9135 64.5538 27.1747 64.592 28.4 64.36L26.4 59.43C25.55 59.43 24.63 59.43 23.72 59.43C23.1352 59.4142 22.5585 59.2887 22.02 59.06C21.7723 58.9538 21.5583 58.7821 21.4011 58.5633C21.2439 58.3445 21.1493 58.0869 21.1277 57.8183C21.1061 57.5497 21.1582 57.2803 21.2785 57.0392C21.3987 56.7981 21.5825 56.5943 21.81 56.45C22.1282 56.2169 22.4624 56.0064 22.81 55.82C23.73 55.28 24.64 54.72 25.57 54.2C25.7673 54.1029 25.9272 53.9436 26.0248 53.7465C26.1224 53.5495 26.1524 53.3257 26.11 53.11C25.9889 51.8769 26.1973 50.6339 26.7138 49.5077C27.2304 48.3815 28.0365 47.4126 29.05 46.7C29.3708 46.5045 29.6301 46.2226 29.7981 45.8865C29.9661 45.5505 30.0361 45.1739 30 44.8C29.9133 40.76 29.8467 36.7166 29.8 32.67C29.8 30.31 29.8 27.96 29.73 25.6C29.7843 24.7416 29.6512 23.8817 29.34 23.08C28.83 22.99 28.39 22.94 27.97 22.82C26.2334 22.3445 24.4405 22.1056 22.64 22.11C20.7299 22.2321 18.8121 22.1179 16.93 21.77C16.33 21.62 15.74 21.57 15.09 21.46ZM50.09 52.53H49.82C49.58 52.85 49.33 53.16 49.12 53.53C48.45 54.59 47.8 55.66 47.12 56.72C46.9629 57.0465 46.732 57.3321 46.4457 57.5542C46.1594 57.7764 45.8254 57.929 45.47 58C43.8187 58.2865 42.1347 58.3337 40.47 58.14C39.7641 58.0709 39.0816 57.8491 38.47 57.49C38.0648 57.2048 37.7275 56.8339 37.4821 56.4035C37.2366 55.9731 37.0891 55.4939 37.05 55C36.8518 53.0558 36.3172 51.161 35.47 49.4C35.2724 48.9709 34.9384 48.6193 34.52 48.4C33.14 47.76 30.4 48.83 29.86 50.26C29.5092 51.1829 29.2806 52.1478 29.18 53.13C29.0466 55.4831 29.3553 57.8405 30.09 60.08C30.476 61.416 31.2176 62.6222 32.2356 63.5697C33.2536 64.5172 34.5097 65.1706 35.87 65.46C36.9747 65.7513 38.1083 65.919 39.25 65.96C40.9129 66.0848 42.5785 65.7553 44.0686 65.0067C45.5588 64.2581 46.8174 63.1186 47.71 61.71C48.4777 60.5605 49.0866 59.3125 49.52 58C49.8948 56.7709 50.1493 55.5083 50.28 54.23C50.286 53.6582 50.2256 53.0877 50.1 52.53H50.09ZM48 49C48.3068 49.0018 48.6125 48.9648 48.91 48.89C49.4247 48.6188 50.0197 48.5413 50.5867 48.6716C51.1538 48.8019 51.6552 49.1313 52 49.6C52.9946 50.7359 53.5326 52.2003 53.51 53.71C53.3279 57.2528 52.1911 60.6805 50.22 63.63L49.68 64.54C50.2 64.71 50.6 64.88 51.02 64.99C53.2775 65.5333 55.6276 65.5674 57.9 65.09C59.1398 64.8944 60.2739 64.2762 61.11 63.34C61.74 62.63 62.31 61.86 62.89 61.11C63.5214 60.2353 63.8703 59.1885 63.89 58.11C63.95 56.94 63.89 55.75 64.02 54.58C64.18 53.11 63.23 51.9 63.27 50.5C62.527 50.3456 61.8638 49.9306 61.4 49.33C60.551 48.3188 59.4608 47.538 58.23 47.06C57.4568 47.8206 56.4242 48.26 55.34 48.29C53.69 48.54 52.44 48.29 51.59 46.78C50.8468 46.7171 50.1017 46.8772 49.45 47.24C48.5691 47.7316 47.7471 48.3221 47 49C46.5343 49.4246 46.1945 49.9694 46.0181 50.5745C45.8417 51.1796 45.8355 51.8216 46 52.43C46.2377 52.1954 46.4552 51.9412 46.65 51.67C47.08 50.78 47.55 49.87 48 49ZM54.45 45.16C54.5822 45.2927 54.7425 45.3941 54.9191 45.4566C55.0958 45.5191 55.2842 45.541 55.4704 45.5209C55.6567 45.5007 55.836 45.4389 55.9952 45.3401C56.1544 45.2413 56.2893 45.108 56.39 44.95C56.7167 44.6585 57.1186 44.4644 57.55 44.39C58.3859 44.2153 59.2562 44.3281 60.02 44.71C61.3131 45.3318 62.4902 46.1706 63.5 47.19C63.88 47.54 64.23 47.93 64.82 47.88C66.93 47.67 68.4 44.63 67.28 42.79C67.2488 42.7126 67.1998 42.6436 67.137 42.5887C67.0742 42.5338 66.9992 42.4946 66.9183 42.4741C66.8375 42.4536 66.7529 42.4526 66.6715 42.471C66.5901 42.4893 66.5142 42.5267 66.45 42.58C66.26 42.69 66.11 42.86 65.92 42.97C65.7741 43.0944 65.6033 43.186 65.419 43.2388C65.2347 43.2915 65.0412 43.304 64.8517 43.2756C64.6621 43.2472 64.4808 43.1784 64.3201 43.0739C64.1594 42.9694 64.0229 42.8317 63.92 42.67C63.661 42.3172 63.4524 41.9302 63.3 41.52C62.61 39.9 61.98 38.25 61.24 36.66C60.9817 36.0448 60.5598 35.5121 60.02 35.12C56.46 32.82 53.86 32.88 50.65 35.5C49.7786 36.1992 49.1978 37.197 49.02 38.3C48.9525 38.6986 48.8384 39.088 48.68 39.46C48.13 40.76 47.36 40.95 46.16 40.19C45.6993 39.9037 45.1795 39.7259 44.64 39.67C44.4419 39.6583 44.2436 39.6898 44.0588 39.7623C43.8741 39.8348 43.7073 39.9466 43.57 40.09C43.1215 40.6926 42.783 41.3696 42.57 42.09C42.3 43.09 42.83 43.75 43.88 43.99C44.9869 44.2462 46.042 44.6892 47 45.3C48.3284 44.2924 49.934 43.7165 51.6 43.65L51.88 41.92C51.66 41.84 51.52 41.81 51.39 41.75C50.32 41.28 49.93 40.52 50.27 39.58C50.3458 39.3425 50.4682 39.1225 50.6298 38.9327C50.7915 38.743 50.9893 38.5873 51.2117 38.4747C51.4341 38.3621 51.6767 38.2948 51.9253 38.2768C52.174 38.2589 52.4237 38.2905 52.66 38.37C52.91 38.44 53.13 38.59 53.38 38.65C53.7867 38.7189 54.1518 38.9404 54.4008 39.2694C54.6499 39.5983 54.764 40.0098 54.72 40.42C54.72 41.48 54.67 42.54 54.63 43.6C54.59 44.11 54.52 44.62 54.47 45.12L54.45 45.16ZM16.4 55.79V53.79C16.145 53.8318 15.8964 53.9057 15.66 54.01C15.22 54.26 14.8 55.16 15 55.52C15.32 56.11 15.84 56 16.4 55.79ZM16.6 50.18C16.77 49.18 16.55 48.68 15.84 48.57C15.7563 48.5617 15.6718 48.5717 15.5924 48.5993C15.513 48.627 15.4405 48.6715 15.38 48.73C15.3266 48.7964 15.2898 48.8745 15.2724 48.958C15.255 49.0414 15.2576 49.1277 15.28 49.21C15.59 49.7 15.9 50.2 16.6 50.18Z" fill="black"/>
<path d="M42.56 37C41.6968 37.5454 40.9673 38.278 40.4255 39.1435C39.8837 40.009 39.5435 40.9852 39.43 42C39.3031 42.9775 39.4992 43.9697 39.9884 44.8254C40.4777 45.6811 41.2332 46.3535 42.14 46.74C42.33 46.83 42.53 46.91 42.83 47.03V55H40.41C40.3 54.58 40.22 54.19 40.11 53.81C39.69 52.29 39.29 50.76 38.83 49.25C38.6474 48.6911 38.4095 48.1517 38.12 47.64C37.7536 46.8879 37.1857 46.2523 36.4795 45.8038C35.7733 45.3554 34.9565 45.1117 34.12 45.1C33.83 45.1 33.54 45.1 33.12 45.03C33.12 44.73 33.02 44.45 33.01 44.17C33.01 39.98 33.01 35.78 32.88 31.59C32.8 28.88 32.54 26.16 32.33 23.45C32.2798 22.9322 32.169 22.422 32 21.93C31.9195 21.5112 31.7073 21.129 31.3943 20.8394C31.0812 20.5497 30.6838 20.3678 30.26 20.32C29.7997 20.2053 29.3511 20.048 28.92 19.85C26.0818 19.0597 23.1273 18.772 20.19 19C18.99 19 17.79 18.89 16.57 18.83C16.67 17.32 16.71 15.97 16.86 14.64C17.0161 13.3959 17.4753 12.2092 18.1971 11.1839C18.9189 10.1587 19.8814 9.32639 21 8.75997C23.1 7.51997 25.43 7.51997 27.75 7.61997C28.6729 7.69623 29.591 7.82309 30.5 7.99997C32.3013 8.24334 33.9751 9.06443 35.27 10.34C35.95 11.01 36.59 11.73 37.27 12.41C39.6859 14.8824 41.158 18.1239 41.43 21.57C41.7 24.17 41.9 26.77 42.08 29.38C42.23 31.51 42.29 33.64 42.4 35.77C42.41 36.13 42.5 36.53 42.56 37Z" fill="black"/>
<path d="M25.35 33.37L23.84 33.55C23.74 34 23.66 34.43 23.54 34.85C23.4556 35.1855 23.2539 35.4798 22.9715 35.6797C22.6891 35.8796 22.3445 35.9719 22 35.94C21.6306 35.8807 21.2974 35.6838 21.0673 35.3888C20.8373 35.0938 20.7275 34.7227 20.76 34.35C20.7977 33.8935 20.878 33.4415 21 33C21.15 32.48 20.94 32.24 20.37 32.1C19.99 32.51 19.57 32.96 19.14 33.4C18.9503 33.6264 18.7394 33.834 18.51 34.02C18.2648 34.2172 17.9596 34.3247 17.645 34.3247C17.3304 34.3247 17.0252 34.2172 16.78 34.02C16.5326 33.8247 16.3578 33.5521 16.2834 33.2457C16.2091 32.9394 16.2396 32.617 16.37 32.33C16.4993 32.0685 16.6642 31.8262 16.86 31.61C17.54 30.83 18.23 30.07 18.91 29.3C19.0163 29.1425 19.154 29.0087 19.3144 28.9069C19.4749 28.8051 19.6546 28.7376 19.8423 28.7085C20.0301 28.6794 20.2218 28.6894 20.4055 28.7378C20.5893 28.7862 20.761 28.8721 20.91 28.99C21.26 29.18 21.59 29.43 21.91 29.61C22.5296 29.9684 23.219 30.1896 23.9315 30.2586C24.6441 30.3276 25.3631 30.2428 26.04 30.01C26.2597 29.9049 26.5038 29.8613 26.7464 29.8836C26.9889 29.906 27.2209 29.9936 27.4177 30.1371C27.6145 30.2806 27.7688 30.4747 27.8643 30.6988C27.9598 30.9229 27.9928 31.1686 27.96 31.41C27.9365 31.9581 28.0757 32.5008 28.36 32.97C28.4957 33.188 28.616 33.4152 28.72 33.65C28.8151 33.8159 28.8759 33.9992 28.8989 34.1891C28.9219 34.3789 28.9066 34.5714 28.8539 34.7553C28.8012 34.9391 28.7121 35.1105 28.592 35.2593C28.4719 35.4081 28.3232 35.5313 28.1546 35.6216C27.986 35.7119 27.8011 35.7675 27.6106 35.785C27.4202 35.8026 27.2282 35.7818 27.0459 35.7238C26.8637 35.6659 26.6949 35.5719 26.5496 35.4476C26.4043 35.3233 26.2854 35.1711 26.2 35C25.88 34.45 25.66 34 25.35 33.37Z" fill="black"/>
<path d="M33.64 53.68C33.662 53.9114 33.6363 54.1448 33.5645 54.3658C33.4928 54.5868 33.3764 54.7908 33.2228 54.9651C33.0691 55.1394 32.8813 55.2804 32.6709 55.3793C32.4606 55.4781 32.2323 55.5329 32 55.54C31.7971 55.5494 31.5943 55.518 31.4038 55.4477C31.2132 55.3774 31.0386 55.2697 30.8904 55.1307C30.7422 54.9918 30.6233 54.8246 30.5408 54.639C30.4583 54.4534 30.4138 54.2531 30.41 54.05C30.4823 53.5964 30.6981 53.1778 31.0256 52.8557C31.3531 52.5335 31.7752 52.3248 32.23 52.26C32.6049 52.2626 32.9635 52.4134 33.2276 52.6794C33.4918 52.9455 33.64 53.3051 33.64 53.68Z" fill="black"/>
<path d="M56.63 53.82C57.0448 53.834 57.4547 53.727 57.8098 53.5122C58.1649 53.2974 58.4499 52.9839 58.63 52.61C58.7165 52.4418 58.8355 52.2925 58.9802 52.1706C59.1248 52.0487 59.2922 51.9567 59.4727 51.9C59.6531 51.8433 59.843 51.8229 60.0313 51.8401C60.2197 51.8572 60.4028 51.9116 60.57 52C60.9259 52.1747 61.1987 52.4824 61.3297 52.8566C61.4607 53.2308 61.4392 53.6415 61.27 54C60.9587 54.8504 60.3517 55.5603 59.56 56C58.4356 56.6589 57.1122 56.893 55.83 56.66C54.88 56.49 54.36 55.95 54.42 55.15C54.48 54.35 55.07 53.87 56.05 53.85C56.16 53.78 56.27 53.8 56.63 53.82Z" fill="black"/>
<path d="M60.26 40.73C60.2653 40.9598 60.2253 41.1885 60.1422 41.4028C60.0591 41.6172 59.9347 41.8131 59.7759 41.9793C59.6171 42.1455 59.4271 42.2788 59.2167 42.3716C59.0064 42.4644 58.7798 42.5148 58.55 42.52C58.3216 42.5216 58.0954 42.4767 57.885 42.3879C57.6746 42.2991 57.4845 42.1684 57.3263 42.0037C57.1681 41.8389 57.0452 41.6437 56.965 41.4299C56.8849 41.216 56.8491 40.9881 56.86 40.76C56.8664 40.5188 56.9209 40.2813 57.0204 40.0614C57.1199 39.8416 57.2623 39.6439 57.4394 39.4799C57.6164 39.3159 57.8244 39.189 58.0512 39.1066C58.278 39.0242 58.519 38.9879 58.76 39C58.9749 39.007 59.186 39.0583 59.3802 39.1508C59.5743 39.2432 59.7472 39.3748 59.888 39.5372C60.0289 39.6997 60.1346 39.8895 60.1986 40.0948C60.2627 40.3 60.2835 40.5163 60.26 40.73Z" fill="black"/>
</svg>
