<svg width="80" height="80" viewBox="0 0 80 80" fill="none" xmlns="http://www.w3.org/2000/svg">
<path d="M38.83 24.7C39.2033 22.54 39.5733 20.4267 39.94 18.36C38 17.93 36.08 17.52 34.16 17.07C33.6175 16.9469 33.0907 16.7624 32.59 16.52C32.0452 16.2929 31.608 15.8659 31.3681 15.3266C31.1282 14.7873 31.1038 14.1767 31.3 13.62C31.4769 13.1357 31.8243 12.7325 32.2771 12.4858C32.7299 12.2392 33.2571 12.166 33.76 12.28C35.76 12.43 37.76 12.58 39.76 12.76C40.3142 12.8515 40.862 12.9784 41.4 13.14C42.1 11.14 43.61 9.7 45.06 8.24C45.7154 7.55634 46.4789 6.98536 47.32 6.55C49.15 5.67 50.91 4.55 52.99 4.33C53.57 4.26 54.15 4.23 54.72 4.13C55.29 4.03 55.81 3.84 56.37 3.77C56.93 3.7 57.37 3.61 57.7 3.83C58.5638 4.3281 59.534 4.61266 60.53 4.66C62.6124 5.02845 64.607 5.7849 66.41 6.89C67.03 7.28 67.72 7.57 68.41 7.89C69.668 8.54832 70.7617 9.48138 71.61 10.62C73.432 12.8993 74.9109 15.4328 76 18.14C76.3779 19.4408 76.583 20.7857 76.61 22.14C76.9849 26.537 77.0351 30.9556 76.76 35.36C76.5844 39.7904 75.985 44.1938 74.97 48.51C73.72 53.18 70.97 56.51 66.31 58.19C65.52 58.47 64.72 58.71 63.94 59C63.77 59.06 63.52 59.19 63.5 59.33C63.2704 60.3522 63.1034 61.3875 63 62.43C62.89 64.54 62.9 66.65 62.81 68.76C62.7776 69.4785 62.6737 70.192 62.5 70.89C62.3862 71.474 62.0763 72.0015 61.6216 72.3853C61.1669 72.769 60.5948 72.9859 60 73C57.5246 73.2209 55.0298 72.9663 52.65 72.25C50.7176 71.6855 48.7453 71.2676 46.75 71C45.5594 70.8135 44.341 70.934 43.21 71.35C37.043 73.6931 30.2548 73.8274 24 71.73C23.1162 71.4476 22.1597 71.4974 21.31 71.87C17.9925 73.1547 14.53 74.0279 11 74.47C9.95235 74.5225 8.92867 74.8023 7.99999 75.29C7.74802 75.4561 7.45832 75.5562 7.15753 75.5811C6.85675 75.606 6.55454 75.5548 6.2787 75.4323C6.00286 75.3098 5.76225 75.12 5.579 74.8802C5.39574 74.6404 5.27573 74.3583 5.22999 74.06C4.95445 73.007 4.76384 71.9335 4.65999 70.85C4.15999 66.52 3.65999 62.19 3.21999 57.85C2.97164 54.4471 3.04866 51.0283 3.44999 47.64C3.65708 44.6022 4.26917 41.6057 5.26999 38.73C7.92999 31.73 13.01 27.2 20 24.73C25.8858 22.7054 32.2669 22.6283 38.2 24.51L38.67 24.65C38.7209 24.6737 38.7747 24.6905 38.83 24.7ZM42.83 22.96C44.18 23.05 45.43 23.11 46.67 23.22C47.4305 23.2439 48.169 23.4805 48.8018 23.903C49.4346 24.3255 49.9363 24.9168 50.25 25.61C50.7665 26.6876 51.1429 27.8268 51.37 29C51.8145 32.3139 51.9251 35.664 51.7 39C51.64 41.11 51.28 41.08 53.56 41.91C54.0425 42.0615 54.4789 42.3326 54.8285 42.698C55.1782 43.0634 55.4298 43.5113 55.56 44C55.6719 44.3625 55.6663 44.7511 55.5442 45.1102C55.4221 45.4694 55.1896 45.7808 54.88 46C54.5607 46.1925 54.19 46.2824 53.818 46.2573C53.4459 46.2323 53.0906 46.0936 52.8 45.86C52.3052 45.5183 51.7756 45.23 51.22 45C50.2227 44.6669 49.362 44.0163 48.7696 43.1476C48.1773 42.2789 47.8858 41.24 47.94 40.19C47.94 38.05 48.04 35.92 48.02 33.78C48.1 31.8078 47.8602 29.8356 47.31 27.94C47.17 27.5 46.8 26.89 46.44 26.82C45.3007 26.6464 44.1519 26.5428 43 26.51C42.49 26.51 42.34 26.76 42.32 27.24C42.32 29.35 42.18 31.46 42.11 33.57C41.8183 38.0643 41.7816 42.5715 42 47.07C42.17 49.07 42.61 50.96 44.09 52.3C45.89 53.93 47.9 55.3 49.85 56.77C50.13 56.9587 50.4461 57.0872 50.7783 57.1475C51.1105 57.2077 51.4516 57.1984 51.78 57.12C53.95 56.78 56.14 56.49 58.32 56.22C61.1879 55.949 63.9847 55.1702 66.58 53.92C68.06 53.178 69.2752 51.9977 70.06 50.54C70.9919 48.9046 71.5869 47.0991 71.81 45.23C72.29 41.15 72.81 37.08 73.05 32.99C73.24 29.99 73.05 27.06 73.05 24.17C71.67 23.79 70.45 23.56 69.32 23.12C65.7602 21.6486 62.0152 20.6728 58.19 20.22C54.66 19.89 51.19 19.44 47.62 19.03C46.51 18.9 45.41 18.75 44.31 18.6C43.98 18.6 43.73 18.6 43.64 18.98C43.43 20.32 43.13 21.64 42.84 23L42.83 22.96ZM36.1 53L35.54 52.77C35.1932 52.5977 34.9147 52.3134 34.7495 51.9632C34.5844 51.6129 34.5423 51.2172 34.63 50.84C34.6597 50.4516 34.8327 50.088 35.1155 49.82C35.3982 49.5521 35.7705 49.3988 36.16 49.39C36.7199 49.4886 37.2581 49.685 37.75 49.97C38.0762 50.1475 38.3872 50.3515 38.68 50.58L38 43L35 43.17C31.13 43.38 27.27 43.67 23.39 43.8C18.64 43.97 13.88 44 9.11999 44.11C8.75105 44.1023 8.38416 44.1669 8.03999 44.3C7.93042 44.357 7.83496 44.4378 7.76057 44.5364C7.68618 44.635 7.63473 44.749 7.60999 44.87C7.53486 46.0755 7.53486 47.2845 7.60999 48.49C8.18683 53.6391 10.6012 58.4074 14.41 61.92C18.8323 66.2505 24.6388 68.8847 30.81 69.36C36.5214 69.9851 42.2638 68.4943 46.95 65.17C48.6194 64.0286 50.0891 62.6197 51.3 61C47.89 60.82 45.84 58.3 43.3 56.67C43.1736 57.0321 42.9243 57.3384 42.5954 57.5357C42.2666 57.733 41.879 57.8088 41.5 57.75C41.129 57.6844 40.7895 57.4995 40.5332 57.2233C40.2769 56.9471 40.1178 56.5949 40.08 56.22C39.95 55.58 39.91 54.92 39.82 54.22C39.35 54.17 39.33 54.22 39.12 55.03C39.0637 55.4354 38.8605 55.8061 38.549 56.0715C38.2374 56.337 37.8392 56.4788 37.43 56.47C36.9955 56.4332 36.5899 56.2373 36.291 55.9199C35.992 55.6025 35.8208 55.1859 35.81 54.75C35.8546 54.1592 35.9517 53.5736 36.1 53ZM46.11 14C47.93 14.38 49.71 14.81 51.51 15.1C54.03 15.51 56.58 15.7 59.08 16.19C62.21 16.8 65.3 17.64 68.42 18.35C69.67 18.64 70.95 18.83 72.22 19.06L72.4 18.91C71.6 17.54 70.8 16.17 69.98 14.81C69.92 14.7 69.75 14.66 69.65 14.57C69.13 14.17 68.6 13.78 68.11 13.35C67.45 12.78 66.85 12.14 66.11 11.61C65.5105 11.1749 64.8824 10.7807 64.23 10.43C62.23 9.29 60.31 8.22 57.95 8.28C57.7403 8.28489 57.5322 8.24394 57.34 8.16C55.8148 7.61998 54.1459 7.64839 52.64 8.24C49.78 9.21 47.31 10.88 46.11 14Z" fill="black"/>
<path d="M63.74 25.55C66.59 25.44 67.95 28.17 67.96 30.13C67.9563 30.7523 67.828 31.3675 67.5827 31.9394C67.3375 32.5112 66.9801 33.0282 66.5318 33.4598C66.0835 33.8913 65.5532 34.2287 64.9724 34.452C64.3916 34.6753 63.7719 34.78 63.15 34.76C62.6009 34.791 62.0511 34.7112 61.5335 34.5253C61.0158 34.3395 60.5408 34.0514 60.1368 33.6781C59.7328 33.3049 59.408 32.8542 59.1818 32.3529C58.9556 31.8516 58.8325 31.3099 58.82 30.76C58.8 30.0946 58.9115 29.4318 59.1481 28.8096C59.3847 28.1874 59.7418 27.618 60.1988 27.134C60.6559 26.65 61.2039 26.261 61.8116 25.9892C62.4192 25.7174 63.0746 25.5681 63.74 25.55Z" fill="black"/>
<path d="M47.25 50.16C47.25 49.6296 47.4607 49.1209 47.8358 48.7458C48.2109 48.3707 48.7196 48.16 49.25 48.16H49.65C49.9359 48.1677 50.2191 48.2183 50.49 48.31C51.8009 48.788 53.2125 48.9223 54.59 48.7C55.099 48.655 55.611 48.655 56.12 48.7C56.4685 48.7255 56.8069 48.829 57.11 49.0029C57.4131 49.1769 57.6732 49.4168 57.871 49.7049C58.0689 49.993 58.1993 50.3219 58.2528 50.6672C58.3063 51.0126 58.2814 51.3656 58.18 51.7" fill="black"/>
<path d="M54.56 52.29C53.94 54.75 50.84 54.75 49.98 51.7L54.56 52.29Z" fill="black"/>
<path d="M15.78 54.67C15.66 55 15.59 55.27 15.47 55.52C15.3395 55.8508 15.1025 56.1287 14.7964 56.3097C14.4904 56.4908 14.1328 56.5648 13.78 56.52C13.4284 56.4874 13.0988 56.3342 12.8473 56.0863C12.5958 55.8384 12.4377 55.5111 12.4 55.16C12.3718 54.6308 12.4088 54.1002 12.51 53.58C12.558 53.3825 12.5476 53.1754 12.4801 52.9836C12.4127 52.7919 12.2911 52.6239 12.13 52.5C11.6451 52.0664 11.2302 51.5604 10.9 51C10.7803 50.8276 10.696 50.6332 10.6518 50.428C10.6076 50.2229 10.6045 50.011 10.6426 49.8046C10.6807 49.5982 10.7593 49.4014 10.8739 49.2256C10.9884 49.0497 11.1366 48.8983 11.31 48.78C11.4855 48.6528 11.6848 48.562 11.896 48.5132C12.1072 48.4644 12.326 48.4585 12.5396 48.4958C12.7531 48.5331 12.957 48.6128 13.1392 48.7304C13.3213 48.8479 13.478 49.0008 13.6 49.18C14.3335 50.0634 15.2751 50.7506 16.34 51.18C18.1 52 19.74 51.46 21.34 50.73C21.95 50.45 22.52 50.08 23.1 49.73C24.32 49.05 25.23 49.08 25.88 49.84C26.53 50.6 26.45 51.49 25.43 52.74C25.77 53.02 26.16 53.28 26.43 53.6C26.7762 53.8837 26.9974 54.2919 27.046 54.7369C27.0946 55.1819 26.9668 55.6282 26.69 55.98C26.55 56.1457 26.3783 56.2816 26.1848 56.3796C25.9914 56.4777 25.7802 56.5359 25.5638 56.5508C25.3475 56.5657 25.1303 56.5371 24.9252 56.4665C24.7202 56.3959 24.5314 56.2849 24.37 56.14C23.8078 55.6996 23.2978 55.1963 22.85 54.64C22.61 54.37 22.45 54.26 22.1 54.41C21.75 54.56 21.18 54.71 20.64 54.88C20.78 55.15 20.9 55.39 21.01 55.62C21.2208 55.987 21.2843 56.4204 21.1878 56.8325C21.0913 57.2447 20.8419 57.6047 20.49 57.84C20.1366 58.0736 19.707 58.1623 19.29 58.0879C18.873 58.0134 18.5007 57.7814 18.25 57.44C17.9001 57.0063 17.6416 56.5063 17.49 55.97C17.4618 55.6873 17.3333 55.4241 17.1279 55.2278C16.9225 55.0316 16.6537 54.9153 16.37 54.9C16.1678 54.8383 15.9706 54.7614 15.78 54.67Z" fill="black"/>
<path d="M27.25 64.68C26.8296 64.9125 26.3395 64.9858 25.8694 64.8867C25.3994 64.7875 24.9807 64.5225 24.69 64.14C24.5806 63.9411 24.5121 63.7222 24.4887 63.4964C24.4652 63.2706 24.4872 63.0424 24.5534 62.8252C24.6196 62.608 24.7286 62.4063 24.874 62.2319C25.0194 62.0576 25.1982 61.9141 25.4 61.81C27.86 60.24 31.33 59.59 33.92 62.04C34.25 62.35 35.05 62.98 35.36 63.31C36.15 64.19 35.76 64.97 34.99 65.68C34.8057 65.8488 34.5888 65.9781 34.3526 66.0598C34.1164 66.1416 33.866 66.1741 33.6167 66.1554C33.3675 66.1366 33.1248 66.067 32.9034 65.9509C32.6821 65.8347 32.487 65.6745 32.33 65.48C31.75 64.96 30.38 64.8 29.71 64.41" fill="black"/>
</svg>
