<?xml version="1.0" encoding="utf-8"?>
<!-- Generator: Adobe Illustrator 24.3.0, SVG Export Plug-In . SVG Version: 6.00 Build 0)  -->
<svg version="1.1" id="Layer_1" xmlns="http://www.w3.org/2000/svg" xmlns:xlink="http://www.w3.org/1999/xlink" x="0px" y="0px"
	 viewBox="0 0 80 80" style="enable-background:new 0 0 80 80;" xml:space="preserve">
<path d="M38.8,24.7c0.4-2.2,0.7-4.3,1.1-6.3c-1.9-0.4-3.9-0.8-5.8-1.3c-1.7-0.3-3.6-1.5-2.9-3.5c0.3-1,1.4-1.6,2.5-1.3
	c2.5,0.3,5.2,0.2,7.6,0.9c1.2-2.8,3.4-5,5.9-6.6c2.3-1.3,4.7-2.3,7.4-2.4c0.9-0.2,2.2-0.7,3-0.3c0.9,0.5,1.8,0.8,2.8,0.8
	c2.1,0.4,4.1,1.1,5.9,2.2c1.9,1,4,1.9,5.2,3.7c1.8,2.3,3.3,4.8,4.4,7.5c1.2,5.6,1,11.5,0.8,17.2c-0.2,4.4-0.8,8.8-1.8,13.2
	c-1.3,5.6-5.5,9.1-11,10.5c-0.2,0.1-0.4,0.2-0.4,0.3c-0.2,1-0.4,2.1-0.5,3.1c-0.4,9.7,1.1,12.4-10.4,9.8c-3-0.7-6.4-2-9.4-0.9
	c-6.2,2.3-13,2.5-19.2,0.4c-0.9-0.3-1.8-0.2-2.7,0.1C18,73.2,14.5,74,11,74.5c-1,0.1-2.1,0.3-3,0.8c-0.5,0.3-1.2,0.4-1.7,0.1
	c-1.5-0.8-1.3-3.1-1.6-4.6c-0.8-7.7-2.3-15.5-1.2-23.2C4.2,28.9,21.7,19.2,38.8,24.7z M42.8,23c2.1,0.3,4.2-0.2,6,0.9
	c3.7,3,3,10.7,2.9,15.1c-0.1,2.1-0.4,2.1,1.9,2.9c1.6,0.4,3,2.9,1.3,4.1c-1.3,0.9-2.5-0.6-3.7-1c-2-0.6-3.4-2.7-3.3-4.8
	c-0.1-4.1,0.6-8.3-0.6-12.2c-0.1-0.4-0.5-1.1-0.9-1.1c-1.1-0.2-2.3-0.3-3.4-0.3c-0.5,0-0.7,0.2-0.7,0.7c0,2.1-0.1,4.2-0.2,6.3
	c-0.3,4.5-0.3,9-0.1,13.5c0.2,2,0.6,3.9,2.1,5.2c1.8,1.6,3.8,3,5.8,4.5c0.3,0.2,0.6,0.3,0.9,0.4c5.3-0.6,10.9-0.9,15.8-3.2
	c3.2-1.6,4.8-5.3,5.2-8.7c0.9-7,1.6-14.1,1.2-21.1c-5.1-1.3-9.6-3.5-14.9-3.9c-4.6-0.5-9.3-1-13.9-1.6c-0.3,0-0.6,0-0.7,0.4
	C43.4,20.3,43.1,21.6,42.8,23L42.8,23z M36.1,53c-1-0.3-1.7-1.1-1.5-2.2c0.4-2.3,2.8-1.3,4-0.3L38,43c-4.8,0.3-9.8,0.6-14.6,0.8
	C18.6,44,13.9,44,9.1,44.1c-0.5,0-1,0-1.4,0.4c-1,6.4,2,13,6.6,17.4c9.7,9.9,28.1,10.5,36.9-0.9c-3.4-0.2-5.5-2.7-8-4.3
	c-0.4,1.2-2,1.5-2.8,0.6c-0.7-0.8-0.5-2-0.7-3c-0.5-0.1-0.5,0-0.7,0.8c-0.1,1.3-1.9,1.9-2.8,0.9C35.5,55.1,35.9,54,36.1,53z
	 M46.1,14c4.3,1.1,8.6,1.5,13,2.2c4.4,0.9,8.7,2.2,13.1,2.9l0.2-0.1c-0.8-1.2-1.8-3.5-2.7-4.3c-3.4-2.8-7.1-6.2-11.7-6.3
	c-1.7-0.5-3.6-0.8-5.3,0C49.8,9.2,47.3,10.9,46.1,14z"/>
<path d="M63.7,25.5c2.8-0.1,4.2,2.6,4.2,4.6c0,2.5-2.3,4.8-4.8,4.6C56.8,34.7,57.9,25.7,63.7,25.5z"/>
<path d="M47.2,50.2c0-1.7,1.8-2.4,3.2-1.8c1.8,0.8,3.7,0.3,5.6,0.4c1.4,0.1,2.5,1.6,2.1,3"/>
<path d="M54.6,52.3c-0.6,2.5-3.7,2.5-4.6-0.6L54.6,52.3z"/>
<path d="M15.8,54.7c-0.2,0.7-0.4,1.3-1,1.6c-0.6,0.4-1.4,0.3-1.9-0.2c-0.7-0.7-0.5-1.7-0.3-2.5c0.1-0.4-0.1-0.8-0.4-1.1
	c-0.6-0.6-1.2-1.3-1.5-2.1c-0.4-1.7,2-2.7,2.9-1.2c2.8,3.3,6.2,2.8,9.5,0.5c2.4-1.5,4.4,0.8,2.3,3c0.7,0.6,1.5,1.1,1.6,2
	c0.2,1.1-1,2.1-2.1,1.7c-0.8-0.4-1.5-1.1-2.1-1.8c-0.2-0.3-0.4-0.4-0.7-0.2s-0.9,0.3-1.5,0.5c0.3,0.6,0.7,1.2,0.5,2
	c-0.3,1.3-2.2,1.7-2.9,0.6c-0.6-0.6-0.6-1.6-1.1-2.2C16.8,54.9,16.2,54.9,15.8,54.7z"/>
<path d="M27.2,64.7c-1.2,0.8-3.2-0.3-2.7-1.9c0.1-0.4,0.4-0.8,0.8-1c2.5-1.6,5.9-2.2,8.5,0.2c1.3,1.1,2.9,2.1,1.1,3.6
	c-0.7,0.7-2,0.6-2.7-0.2c-0.6-0.5-2-0.7-2.6-1.1"/>
</svg>
