<?xml version="1.0" encoding="utf-8"?>
<!-- Generator: Adobe Illustrator 24.3.0, SVG Export Plug-In . SVG Version: 6.00 Build 0)  -->
<svg version="1.1" id="Layer_1" xmlns="http://www.w3.org/2000/svg" xmlns:xlink="http://www.w3.org/1999/xlink" x="0px" y="0px"
	 viewBox="0 0 80 80" style="enable-background:new 0 0 80 80;" xml:space="preserve">
<path d="M18,53.8c-1.7,0.3-3.4,0.2-4.9,0.9c-0.2,0.1-0.5,0.1-0.8,0c-0.5-0.2-0.9-0.7-0.9-1.2c0.1-0.8,0.9-1.2,1.6-1.4
	c1.5-0.3,3.1-0.6,4.7-0.9L17,43.9c-1.5,0-3,0.2-4.4,0.4c-0.2,0-0.4,0-0.6-0.1c-0.9-0.4-0.9-1.7-0.1-2.2c1.3-0.6,2.9-0.4,4.3-0.6
	c0,0,0.6,0,0.6,0l-0.3-6.7c-1.6,0-3.3-0.2-4.8,0.3c-0.3,0.1-0.6,0-0.8-0.1c-0.6-0.3-0.8-1.1-0.6-1.6c0.1-0.3,0.4-0.6,0.7-0.7
	c1.8-0.4,3.6-0.4,5.5-0.6v-3.6c-1.3,0-5.7,0.8-5.6-1.1c0-0.5,0.3-1,0.8-1.1c0.8-0.2,3.8-0.2,4.7-0.3l-0.2-4.9l-2.8,0.3
	c-0.4,0.1-0.8,0.5-1.2,0.5c-1.3,0.2-2.6-0.8-1.8-2.1c0.2-0.3,0.4-0.5,0.7-0.5c1.7-0.4,3.4-0.5,5.2-0.8c0.1-1.8,0-3.5,0.3-5.2
	c0.1-0.5,0.6-1,1.1-1c0.1,0,0.2,0,0.2-0.1c0.9-1,2.2-0.9,3.3-1.1c5.8-0.8,11.7-1.3,17.6-1.4C44,9.1,49.3,9.7,54.6,8.9
	c0,0,8.7,0.1,8.7,0.1c1.6,0.1,2.5,1.8,2.3,3.3c0,3.3,0,6.7,0.1,10c0.4,8.6,0.8,17.2,1.3,25.8c0.4,6.7,0.9,13.3,0.4,20
	c-0.1,0.7-0.7,1.3-1.4,1.3c-3.7,1.2-7.5,1.9-11.4,2c-6,0.4-12.1,1.1-18.1,0.8c-4.5-0.2-9-0.3-13.5-0.5c-0.7-0.1-1.4,0.4-2.2,0.2
	c-0.7-0.2-1.2-1.1-0.9-1.8c0.1-1.6-0.3-3.2-0.4-4.9l-3.7,0.4c-0.5,0.1-1.2,0.2-1.6-0.2c-0.7-0.6-0.4-1.9,0.5-2.1
	c1.5-0.3,3-0.5,4.5-0.7L18,53.8z M20.4,50.8l2-0.3c1.1-0.1,2.2-0.7,3.3-0.3c0.9,0.4,1.2,1.6,0.5,2.4c-0.4,0.5-1.1,0.6-1.7,0.4
	c-1.3,0.1-2.5,0.4-3.8,0.6l1.1,8.9c0.1,0.1,3.3-0.6,3.6-0.6c1-0.3,1.9,0.8,1.5,1.8c-0.1,0.3-0.4,0.5-0.7,0.7
	c-1.3,0.5-2.6,0.6-4.1,0.9l0.4,4.1c6.7-0.1,13.4,0.4,20.1,0.3c5.6-0.3,11.3-0.6,16.9-1.2c0.4-0.1,0.7-0.3,1-0.6
	c1.1-0.5,2.5-0.5,3.7-0.8c0.7-0.1,0.8-0.2,0.8-0.9C65,48.3,62.5,30.4,63,12.5c-1.9-0.3-3.8-0.9-5.7-0.4c-3.4-0.2-6.9-0.1-10.4-0.1
	c-9.4,0.2-18.8,0.6-28.1,1.7v4.1c1.9-0.1,3.8-0.7,5.7-0.3c2.3,0.7,0.3,4.1-1.5,2.8c-0.1-0.1-0.3-0.2-0.4-0.2c0,0-3.6,0.5-3.6,0.5
	v4.8c2.2-0.1,4.4-0.8,6.6-0.4c0.4,0.1,0.7,0.4,0.9,0.8c0.4,0.7,0,1.6-0.7,1.9c-0.8,0.3-1.5-0.2-2.3-0.1c-1,0-3.1,0.4-4.2,0.5v3.6
	c2.4-0.2,4.7-0.5,7.2-0.5c0.3,0,0.6,0.1,0.8,0.3c0.7,0.6,0.6,1.8-0.1,2.3c-0.7,0.7-1.4,0.2-2.2,0.2c0,0-5.2,0.4-5.2,0.4
	c-0.4,0-0.4,0.2-0.4,0.5c0.1,2.1,0.1,4.1,0.3,6.2c1.6-0.1,3.5-0.4,5.2-0.3c1,0.2,1.3,1.5,0.6,2.2c-0.5,0.6-1.6,0.4-2.3,0.5
	c0,0-3.2,0.3-3.2,0.3L20.4,50.8z"/>
<path d="M46.1,34.9c0.2,3.4,1.9,6.4,3,9.5c0.1,0.4,0.3,0.4,0.7,0.3c1.4-0.7,3.2-1.2,4.4,0.2c1.7,2.4,2.1,5.6,1.8,8.5
	c-0.4,4.2-5.4,6.4-9.2,5.6c-3.1-0.6-4.9-3.4-6.2-6.1c-2.5-5.3-4.3-10.8-5.6-16.5c-0.7-3.3-0.9-7,1.1-9.9c1.2-1.9,3.5-2.5,5.1-3.9
	c1-0.9,2.4-1.2,3.7-0.7c4,1.3,5,6.8,4.3,10.4c-0.3,1.6-1.7,2.2-3,2.6C46.2,34.8,46.1,34.9,46.1,34.9z"/>
</svg>
