<svg width="80" height="80" viewBox="0 0 80 80" fill="none" xmlns="http://www.w3.org/2000/svg">
<path d="M18 53.78C16.31 54.06 14.65 54 13.1 54.63C12.85 54.7371 12.5705 54.7538 12.3095 54.6771C12.0485 54.6005 11.8224 54.4353 11.67 54.21C11.5 53.9939 11.4197 53.7207 11.4458 53.447C11.4719 53.1733 11.6023 52.9201 11.81 52.74C12.1675 52.4183 12.5957 52.1853 13.06 52.06C14.52 51.74 16 51.5 17.46 51.24L17.71 51.19L17 43.88C16.16 43.88 15.36 43.94 14.56 44C13.76 44.06 13.26 44.16 12.62 44.24C12.4113 44.279 12.1959 44.2573 11.9991 44.1776C11.8024 44.0978 11.6326 43.9633 11.51 43.79C11.3694 43.6202 11.2837 43.4117 11.264 43.1921C11.2444 42.9725 11.2918 42.7521 11.4 42.56C11.5077 42.3299 11.6747 42.1327 11.8838 41.9886C12.093 41.8445 12.3367 41.7587 12.59 41.74C13.79 41.6 14.99 41.48 16.19 41.36H16.77L16.44 34.67C15.36 34.67 14.29 34.67 13.22 34.67C12.6753 34.7209 12.1364 34.8213 11.61 34.97C11.325 35.0437 11.0228 35.01 10.761 34.8754C10.4992 34.7408 10.2959 34.5147 10.19 34.24C10.1212 34.0813 10.0848 33.9105 10.0829 33.7376C10.0809 33.5647 10.1135 33.3931 10.1787 33.2329C10.2439 33.0728 10.3404 32.9272 10.4625 32.8048C10.5846 32.6824 10.73 32.5855 10.89 32.52C11.4559 32.3676 12.0353 32.2705 12.62 32.23C13.86 32.11 15.09 32.02 16.36 31.92V28.32C15.48 28.38 14.65 28.48 13.82 28.47C13.0582 28.4671 12.2982 28.3935 11.55 28.25C11.3137 28.1953 11.1054 28.0567 10.9637 27.8598C10.8221 27.663 10.7568 27.4214 10.78 27.18C10.7696 26.9325 10.8401 26.6883 10.9808 26.4844C11.1215 26.2805 11.3249 26.128 11.56 26.05C11.9343 25.9661 12.3165 25.9226 12.7 25.92L16.24 25.75L16.08 20.81L13.25 21.09C13.1491 21.0959 13.0519 21.1306 12.97 21.19C12.6827 21.3921 12.3511 21.5221 12.003 21.5691C11.6549 21.6161 11.3006 21.5787 10.97 21.46C10.7031 21.4136 10.4595 21.279 10.2782 21.0778C10.0969 20.8765 9.9884 20.6202 9.97002 20.35C9.95325 20.033 10.0424 19.7195 10.2235 19.4588C10.4045 19.1981 10.6672 19.005 10.97 18.91C11.606 18.7629 12.2506 18.656 12.9 18.59C13.97 18.43 15.05 18.3 16.15 18.15C16.2 16.89 16.23 15.67 16.29 14.45C16.3168 13.9614 16.387 13.4761 16.5 13C16.5502 12.7383 16.6833 12.4998 16.8796 12.3197C17.0759 12.1396 17.325 12.0275 17.59 12C17.67 12 17.78 12 17.83 11.95C18.72 10.95 19.99 11.04 21.14 10.87C26.9789 10.065 32.8579 9.58427 38.75 9.42999C43.31 9.26999 47.88 9.29999 52.44 9.22999C52.9019 9.18846 53.3599 9.11157 53.81 8.99999C54.057 8.94706 54.3078 8.91362 54.56 8.89999L63.22 8.99999C63.5098 9.01123 63.7943 9.08181 64.0557 9.20737C64.3172 9.33294 64.5501 9.51081 64.74 9.72999C65.0565 10.0705 65.2948 10.476 65.4382 10.9182C65.5816 11.3604 65.6266 11.8286 65.57 12.29C65.57 15.62 65.57 18.94 65.71 22.29C65.85 25.64 66 29 66.17 32.35C66.4367 37.6033 66.73 42.85 67.05 48.09C67.29 52.09 67.68 56.02 67.58 60.01C67.58 61.85 67.66 63.7 67.66 65.55C67.6346 66.3877 67.5544 67.2228 67.42 68.05C67.3677 68.4002 67.1993 68.7226 66.9418 68.9656C66.6843 69.2086 66.3526 69.358 66 69.39C65.16 69.57 64.35 69.89 63.52 70.15C63.33 70.21 63.15 70.29 62.95 70.34C60.1974 70.9435 57.3962 71.2983 54.58 71.4C51.97 71.52 49.37 71.82 46.76 72.01C43.3269 72.2782 39.8814 72.3516 36.44 72.23C31.9067 72.0767 27.3933 71.9133 22.9 71.74C22.4041 71.7518 21.9111 71.8189 21.43 71.94C21.2017 72.0042 20.9598 72.0016 20.7329 71.9325C20.506 71.8633 20.3037 71.7306 20.15 71.55C19.9681 71.3612 19.8456 71.1232 19.7976 70.8655C19.7496 70.6077 19.7782 70.3416 19.88 70.1C19.9466 69.8798 19.9637 69.6476 19.93 69.42C19.81 68.22 19.67 67.02 19.54 65.82C19.54 65.66 19.54 65.49 19.49 65.22L15.78 65.65C15.5157 65.6964 15.2483 65.7232 14.98 65.73C14.6818 65.7389 14.391 65.6364 14.1643 65.4425C13.9376 65.2486 13.7913 64.9772 13.7538 64.6812C13.7164 64.3853 13.7905 64.086 13.9617 63.8417C14.1329 63.5974 14.389 63.4257 14.68 63.36C15.51 63.17 16.36 63.05 17.21 62.92C17.85 62.82 18.5 62.76 19.14 62.69L18 53.78ZM20.39 50.78L22.34 50.45C23.14 50.31 23.93 50.16 24.72 50.04C25.0363 49.9693 25.3672 50.0043 25.6616 50.1398C25.9561 50.2753 26.1979 50.5037 26.35 50.79C26.5082 51.0549 26.5785 51.3631 26.5506 51.6704C26.5228 51.9777 26.3983 52.2683 26.195 52.5005C25.9918 52.7326 25.7202 52.8944 25.4192 52.9626C25.1183 53.0308 24.8035 53.0019 24.52 52.88C24.4249 52.8559 24.3252 52.8559 24.23 52.88C23.06 53.08 21.89 53.3 20.68 53.52L21.79 62.41C21.9198 62.4196 22.0502 62.4196 22.18 62.41L25.34 61.81C25.6549 61.7393 25.9848 61.7856 26.2681 61.9401C26.5515 62.0947 26.7689 62.347 26.88 62.65C26.9918 62.9546 26.9838 63.2902 26.8576 63.5891C26.7313 63.888 26.4963 64.1278 26.2 64.26C25.8991 64.4065 25.5794 64.5108 25.25 64.57C24.25 64.78 23.25 64.97 22.14 65.18L22.51 69.29H23.04C25.99 69.29 28.95 69.34 31.9 69.39C35.46 69.45 39.02 69.7 42.57 69.56C47.85 69.35 53.12 68.88 58.4 68.49C58.7769 68.521 59.1561 68.474 59.514 68.3518C59.8719 68.2297 60.2008 68.035 60.48 67.78C60.6763 67.6218 60.9181 67.5307 61.17 67.52C62.17 67.33 63.17 67.17 64.17 66.99C64.87 66.87 64.93 66.83 64.92 66.12C64.92 62.41 64.84 58.7 64.79 54.99C64.79 54.43 64.72 53.88 64.68 53.33C64.46 50.33 64.21 47.27 64.02 44.24C63.87 41.88 63.79 39.51 63.68 37.15C63.46 32.62 63.17 28.09 63.03 23.56C62.93 20.09 63.03 16.56 63.03 13.14C63.03 12.93 63.03 12.71 63.03 12.51C62.75 12.45 62.52 12.39 62.29 12.36C60.62 12.08 58.96 11.63 57.29 12.07C56.8872 12.0768 56.4849 12.0399 56.09 11.96C53.03 11.96 49.98 11.91 46.92 11.96C42.64 12.05 38.36 12.18 34.09 12.4C30.47 12.58 26.86 12.89 23.24 13.18C21.78 13.3 20.32 13.51 18.82 13.68V17.79C18.9431 17.8004 19.0669 17.8004 19.19 17.79C20.29 17.65 21.38 17.46 22.48 17.37C23.1479 17.3009 23.8224 17.3347 24.48 17.47C24.7797 17.5364 25.0455 17.7082 25.229 17.9542C25.4126 18.2001 25.5017 18.5039 25.48 18.81C25.494 19.1233 25.4139 19.4336 25.2499 19.701C25.0859 19.9683 24.8456 20.1805 24.56 20.31C24.3161 20.4642 24.0305 20.5393 23.7423 20.525C23.4541 20.5106 23.1774 20.4076 22.95 20.23C22.8958 20.1617 22.8276 20.1059 22.75 20.0662C22.6723 20.0265 22.5871 20.004 22.5 20L18.89 20.47V25.26C19.06 25.26 19.14 25.26 19.22 25.26C20.57 25.09 21.92 24.87 23.27 24.76C24.003 24.7065 24.7398 24.7536 25.46 24.9C25.6539 24.96 25.8332 25.0596 25.9867 25.1923C26.1402 25.3251 26.2646 25.4882 26.3519 25.6714C26.4393 25.8546 26.4878 26.0539 26.4943 26.2567C26.5009 26.4596 26.4654 26.6616 26.39 26.85C26.2326 27.1857 25.9564 27.4511 25.6148 27.5951C25.2731 27.7392 24.8903 27.7516 24.54 27.63C24.1324 27.5037 23.7065 27.4463 23.28 27.46C22.7603 27.4781 22.2425 27.5316 21.73 27.62L19.11 28V31.64C20.51 31.52 21.86 31.4 23.22 31.3C24.22 31.22 25.22 31.13 26.27 31.13C26.552 31.1346 26.8236 31.2368 27.0387 31.4191C27.2539 31.6014 27.3992 31.8526 27.45 32.13C27.5361 32.4135 27.5375 32.7159 27.454 33.0002C27.3705 33.2845 27.2058 33.5381 26.98 33.73C26.7794 33.923 26.5268 34.0532 26.2533 34.1047C25.9797 34.1562 25.6971 34.1268 25.44 34.02C25.2232 33.9367 24.9923 33.896 24.76 33.9L19.59 34.32C19.23 34.32 19.16 34.51 19.17 34.84C19.23 36.09 19.27 37.35 19.32 38.61C19.32 39.42 19.43 40.23 19.48 41.07L21.41 40.91C22.3 40.84 23.18 40.75 24.07 40.7C24.2587 40.6779 24.4499 40.6944 24.632 40.7486C24.8141 40.8027 24.9833 40.8934 25.1292 41.015C25.2751 41.1366 25.3948 41.2866 25.4809 41.456C25.567 41.6253 25.6177 41.8104 25.63 42C25.6313 42.1816 25.5966 42.3616 25.5277 42.5297C25.4588 42.6977 25.3572 42.8504 25.2288 42.9788C25.1004 43.1072 24.9477 43.2088 24.7797 43.2777C24.6117 43.3465 24.4316 43.3813 24.25 43.38L22.95 43.48L19.7 43.77L20.39 50.78Z" fill="black"/>
<path d="M46.11 34.89C46.1694 36.1628 46.4292 37.4182 46.88 38.61C47.6 40.54 48.36 42.46 49.08 44.39C49.22 44.77 49.4 44.83 49.75 44.67C50.1 44.51 50.56 44.34 50.97 44.19C51.3256 44.0359 51.7086 43.9551 52.0962 43.9525C52.4838 43.95 52.8678 44.0257 53.2255 44.175C53.5831 44.3244 53.9068 44.5445 54.1774 44.822C54.4479 45.0995 54.6597 45.4287 54.8 45.79C55.8573 48.1431 56.2714 50.7346 56 53.3C55.9081 54.2919 55.5566 55.242 54.9808 56.0548C54.405 56.8676 53.6252 57.5144 52.72 57.93C50.9567 58.9857 48.8548 59.3223 46.85 58.87C45.156 58.509 43.656 57.5327 42.64 56.13C41.8735 55.0655 41.2042 53.9342 40.64 52.75C38.1563 47.4804 36.2938 41.9399 35.09 36.24C34.6038 34.1596 34.4954 32.0087 34.77 29.89C34.9512 28.6191 35.4356 27.4104 36.1823 26.3661C36.9289 25.3218 37.916 24.4725 39.06 23.89C39.22 23.79 39.38 23.71 39.55 23.62C40.1916 23.313 40.79 22.923 41.33 22.46C41.8131 22.0086 42.4143 21.7032 43.0638 21.5793C43.7133 21.4555 44.3846 21.5181 45 21.76C45.7111 21.9648 46.368 22.3248 46.9231 22.8142C47.4782 23.3036 47.9177 23.9101 48.21 24.59C48.9075 25.9901 49.3479 27.5042 49.51 29.06C49.5432 30.1132 49.456 31.1667 49.25 32.2C48.99 33.6 47.89 34.2 46.65 34.66L46.22 34.8L46.11 34.89Z" fill="black"/>
</svg>
