<?xml version="1.0" encoding="utf-8"?>
<!-- Generator: Adobe Illustrator 24.3.0, SVG Export Plug-In . SVG Version: 6.00 Build 0)  -->
<svg version="1.1" id="Layer_1" xmlns="http://www.w3.org/2000/svg" xmlns:xlink="http://www.w3.org/1999/xlink" x="0px" y="0px"
	 viewBox="0 0 227 227" style="enable-background:new 0 0 227 227;" xml:space="preserve">
<path d="M90.8,201.2c14.4-0.7,28.8-1.4,43.2-2.1c9.2-0.9,18.4-1.3,27.6-0.2c2.6,0.3,14.1-0.7,14.1-3.2c-0.1-14.5,0.2-29,0.5-43.5
	c0.2-7.6,9.1-6.3,8.3,1.1c-0.3,13.3,0,26.6,0,39.9c-0.2,3.8,1.8,9.3-3,10.7c-16.4,6.8-26.1,2-42.5,3.6c-30.8,1.9-61.9,3.2-92.7,2.2
	c-3.4-0.3-5.3-2.9-6.7-5.8c-0.3-0.6-0.4-1.3-0.2-2c0.8-2.2,0.2-4.4,0-6.6c-1.3-11.6-2-23.3-2-35c0.6-4.8-2.2-14.2,2.4-17
	c1.5-0.7,3.4-0.2,4.5,1c0.5,0.6,0.9,1.4,0.9,2.2c0.5,9.1,0.9,18.2,1.5,27.3c0.5,7.9,1.3,15.8,1.9,23.8c0.4,1.5-0.5,4.6,1.9,4.3
	C63.9,201.5,77.3,201.1,90.8,201.2z"/>
<path d="M97.5,130.6c10.1,0.3,20,10.8,16.5,21c-3.9,10.5-18.5,12.6-27.5,7.8C72.9,152.8,83.5,129.2,97.5,130.6z"/>
<path d="M106.8,26.2c-1.1,9.6-2.7,19.9-3.8,29.7c-2.2,18.8,14.8,18.8,11.8,43.2c0.3,13.7-10.7,11.7-9.6,4.6
	c6.2-24.6-13.8-26.3-11-47.7c1.1-9,2.7-17.9,4-26.9c0.2-1.9,0.4-3.8,0.4-5.6c-0.1-1.3-1-2.4-0.6-3.7c0.7-3.5,5.5-3.9,7.3-1.1
	C106.9,21,106.4,23.3,106.8,26.2z"/>
<path d="M138.2,150c-8.1,1.8-17.5-5.3-15.1-14.1c0.8-3.4,1.7-6.7,2.9-9.9c2.5-6.6,10.8-9.1,16.1-6.4
	C156.7,123.8,154.6,149.9,138.2,150z"/>
<path d="M159.9,127.7c0.5-5.5,2.8-10.5,4.7-15.6c1.3-3.9,0.5-7.6-1.4-11.2c-3.6-6.6-7.2-13.3-10.5-20c-3.3-6.7-4.5-14.1-2-21.5
	c1-4,6.1-6.7,8.2-2c0.3,0.8,0.3,1.7,0.1,2.5c-2.4,5.7-1.1,11,1.2,16.3c3,7.2,7.1,13.8,10.8,20.6c7.2,12.1-0.2,20.4-2.5,32.2
	C167.5,135.7,159.2,133.9,159.9,127.7z"/>
<path d="M68.6,193.2c-11.9,0.7-22-11.7-12.6-21.6c4.7-4.9,13.9-8.1,21.8-2.4C91,178.7,83.9,193.2,68.6,193.2z"/>
<path d="M109.6,193.8c-2.7-0.7-5.8-1-8.7-2.1c-14.4-6.5-2.1-25.4,10.7-23.3C137,168.2,129.1,191.2,109.6,193.8z"/>
<path d="M56.4,120.4c-0.5-10.9,11.2-25.2,7.3-37.1c-0.5-1.3-2.2-1.6-2.6-3C60,77.9,62,74.9,64.6,75c6.2,0,7.5,7.5,8.2,12.3
	c1.7,10.8-5.5,19.9-7.2,30.2c-1.1,7.3,0,14.7,3.4,21.3c0.6,1,0.9,2.2,0.9,3.3c0,3-3.3,4.7-6.1,3.2C58,141.1,56.6,129.5,56.4,120.4z"
	/>
<path d="M152.6,191.2c-7,0.1-12.3-5.1-12.5-12.5c-0.2-7.2,1.1-17.2,10.6-16.1C168.3,162.5,172.6,190.2,152.6,191.2z"/>
</svg>
