<svg width="80" height="80" viewBox="0 0 80 80" fill="none" xmlns="http://www.w3.org/2000/svg">
<path d="M50.51 43.89C50.6633 44.5806 50.6639 45.2963 50.5119 45.9872C50.3599 46.6781 50.059 47.3275 49.63 47.89C49.3902 48.2129 49.1225 48.514 48.83 48.79C47.521 50.0687 46.064 51.1866 44.49 52.12C43.613 52.6066 42.6964 53.0181 41.75 53.35C40.26 53.9 38.75 54.35 37.25 54.9C37.13 54.9 37.01 54.99 36.88 55.02C36.7034 55.0712 36.5147 55.0616 36.3442 54.9927C36.1738 54.9238 36.0314 54.7996 35.94 54.64C35.8561 54.4717 35.8341 54.2792 35.878 54.0963C35.9219 53.9135 36.0288 53.7519 36.18 53.64C36.4051 53.4499 36.646 53.2793 36.9 53.13C38.0599 52.4254 39.0775 51.5096 39.9 50.43C40.1507 50.094 40.3811 49.7434 40.59 49.38C40.96 48.75 41.29 48.1 41.66 47.47C42.1681 46.6176 42.4727 45.6594 42.55 44.67C42.5961 44.3304 42.673 43.9956 42.78 43.67L40.78 42.86C40.7661 43.084 40.7258 43.3055 40.66 43.52C40.5546 43.7105 40.4234 43.8855 40.27 44.04C39.86 44.55 39.48 45.04 39.03 45.57C38.7325 45.8701 38.3962 46.1291 38.03 46.34C37.8583 46.4311 37.6637 46.4701 37.4701 46.4524C37.2765 46.4346 37.0923 46.3608 36.94 46.24C36.6814 46.0714 36.4431 45.8734 36.23 45.65C34.5245 43.8449 33.1683 41.7393 32.23 39.44L32 39.32C31.68 38.32 31.86 38.05 32.77 37.63C33.68 37.21 34.77 36.63 35.77 36.1L35.61 33.91C35.08 33.98 34.61 34.06 34.07 34.1C31.8608 34.3095 29.7225 34.9916 27.8 36.1C26.7834 36.6377 25.8221 37.2741 24.93 38C24.8333 38.0822 24.7295 38.1558 24.62 38.22C24.4542 38.3211 24.2608 38.3678 24.0672 38.3534C23.8735 38.3391 23.6891 38.2644 23.54 38.14C23.4084 38.0123 23.3247 37.8433 23.3029 37.6613C23.281 37.4792 23.3224 37.2952 23.42 37.14C23.73 36.6 24.05 36.07 24.42 35.55C25.8363 33.3519 27.5643 31.3713 29.55 29.67C30.39 28.94 31.27 28.25 32.17 27.59C32.9383 26.9882 33.8272 26.5588 34.7762 26.331C35.7253 26.1032 36.7122 26.0824 37.67 26.27C38.25 25.44 38.79 24.59 39.41 23.8C41.4329 21.2664 43.9292 19.1504 46.76 17.57C50.3428 15.6092 54.242 14.2926 58.28 13.68C60.7741 13.1937 63.3089 12.946 65.85 12.94C66.99 12.94 68.14 13.12 69.29 13.22C69.5377 13.248 69.7884 13.2311 70.03 13.17C70.358 13.0853 70.702 13.0853 71.03 13.17C71.4815 13.3124 71.8942 13.557 72.2358 13.8848C72.5775 14.2126 72.839 14.6147 73 15.06C73.7718 16.7347 73.9414 18.6246 73.48 20.41C73.0507 21.9042 72.4501 23.3438 71.69 24.7C69.9628 28.0368 67.8482 31.1584 65.39 34C64.2205 35.3047 62.9498 36.5151 61.59 37.62C60.0409 38.9323 58.4074 40.1416 56.7 41.24C54.8973 42.3971 52.9277 43.2706 50.86 43.83L50.51 43.89ZM56.76 15.48C55.76 15.74 54.82 15.96 53.89 16.23C50.1227 17.2539 46.6223 19.0826 43.63 21.59C41.9695 22.9727 40.5385 24.6097 39.39 26.44C37.7039 29.1486 36.9979 32.3536 37.39 35.52C37.5804 37.4661 38.5243 39.2605 40.02 40.52C41.1952 41.4917 42.5999 42.1458 44.1 42.42C47.1387 43.0219 50.29 42.6437 53.1 41.34C54.7797 40.5688 56.3721 39.6201 57.85 38.51C61.6589 35.8685 64.9332 32.5297 67.5 28.67C67.57 28.56 67.63 28.43 67.71 28.29C66.3459 27.6169 65.0944 26.7365 64 25.68C63.31 25.01 62.66 24.28 62 23.55C61.07 22.47 60.11 21.41 59.25 20.28C58.56 19.36 57.99 18.36 57.38 17.38C56.9795 16.8272 56.7626 16.1626 56.76 15.48ZM71.22 15C70.81 15.2 70.46 15.28 70.22 15C70.1243 14.8939 70.0069 14.8095 69.8758 14.7526C69.7447 14.6957 69.6029 14.6675 69.46 14.67C65.9314 14.2809 62.3641 14.4293 58.88 15.11C58.7973 15.1365 58.717 15.17 58.64 15.21C59.64 16.27 59.64 16.38 59.11 17.11C59.51 17.76 59.89 18.42 60.32 19.06C60.75 19.7 61.19 20.28 61.67 20.85C62.38 21.68 63.12 22.49 63.86 23.3C64.24 23.72 64.62 24.14 65.02 24.54C66.0805 25.5111 67.2519 26.3536 68.51 27.05C68.51 27.05 68.58 27.05 68.6 26.98L69.06 26.24C70.1863 24.4425 71.1214 22.5321 71.85 20.54C72.3355 19.1099 72.3144 17.5563 71.79 16.14C71.6247 15.7482 71.4343 15.3674 71.22 15ZM44.05 44C44.1504 45.1738 43.94 46.3533 43.44 47.42C42.6818 49.049 41.7497 50.5913 40.66 52.02C40.8254 51.9932 40.989 51.9564 41.15 51.91C41.72 51.69 42.31 51.48 42.87 51.21C44.833 50.1776 46.6106 48.8258 48.13 47.21C48.4649 46.8863 48.7272 46.4951 48.8995 46.0624C49.0719 45.6297 49.1505 45.1653 49.13 44.7C49.1047 44.4783 49.068 44.258 49.02 44.04C47.3715 44.2876 45.6943 44.2741 44.05 44ZM37.05 27.5C36.74 27.5 36.51 27.5 36.28 27.5C35.1437 27.6072 34.0582 28.0221 33.14 28.7C31.8265 29.5949 30.604 30.6164 29.49 31.75C28.64 32.61 27.86 33.53 27.06 34.43C26.9797 34.5472 26.9094 34.6709 26.85 34.8L27.14 34.67C29.4037 33.3805 31.9304 32.6215 34.53 32.45H34.7H35.77C35.9234 30.7595 36.3384 29.1032 37 27.54L37.05 27.5ZM37.54 44.86C38.48 44.09 38.87 42.95 39.92 42.38C38.1409 41.2231 36.8243 39.4783 36.2 37.45L33.61 39C34.505 41.2111 35.8385 43.2181 37.53 44.9L37.54 44.86Z" fill="black"/>
<path d="M29.11 66C28.87 66.21 28.68 66.41 28.46 66.57C27.8178 67.0367 27.0321 67.2632 26.24 67.21C25.3643 67.1561 24.4999 66.9846 23.67 66.7C22.9684 66.4559 22.3765 65.9704 22 65.33C21.3962 64.4414 21.0501 63.4031 21 62.33C20.927 62.32 20.853 62.32 20.78 62.33C19.9471 62.4798 19.0921 62.4549 18.2692 62.257C17.4464 62.059 16.6737 61.6923 16 61.18C15.4769 60.7982 15.1023 60.2469 14.94 59.62C14.6722 58.7739 14.6004 57.8779 14.73 57C14.73 56.84 14.79 56.68 14.82 56.48H14.44C13.5609 56.4315 12.6943 56.2494 11.87 55.94C11.0326 55.6412 10.3016 55.1027 9.76815 54.3914C9.23468 53.6801 8.92233 52.8275 8.87 51.94C8.78147 51.037 9.0114 50.1314 9.52 49.38C9.78 48.94 10.11 48.55 10.41 48.13L10.64 47.8L10.24 47.58C9.891 47.3589 9.55695 47.115 9.24 46.85C8.695 46.3911 8.30947 45.7712 8.13879 45.0795C7.9681 44.3878 8.02104 43.6597 8.29 43C8.48782 42.379 8.81964 41.809 9.26201 41.3303C9.70437 40.8517 10.2465 40.4761 10.85 40.23C12.3364 39.6022 13.9511 39.3383 15.56 39.46C16.8767 39.5285 18.1131 40.1143 19 41.09C19.6239 41.8382 20.0807 42.711 20.34 43.65C20.34 43.79 20.41 43.93 20.46 44.12C20.6087 44.0879 20.7556 44.0478 20.9 44L26.46 41.29L30.25 39.44C30.3228 39.364 30.4117 39.3053 30.5102 39.2684C30.6088 39.2315 30.7144 39.2173 30.8192 39.2269C30.924 39.2364 31.0252 39.2695 31.1155 39.3235C31.2058 39.3776 31.2827 39.4514 31.3405 39.5393C31.3983 39.6272 31.4356 39.727 31.4495 39.8313C31.4635 39.9356 31.4537 40.0417 31.421 40.1417C31.3883 40.2417 31.3334 40.333 31.2605 40.4089C31.1877 40.4848 31.0986 40.5433 31 40.58C30.68 40.79 30.34 40.96 30 41.14L22.45 45C21.8 45.32 21.12 45.58 20.45 45.89L20.18 47L21.1 48.33C21.2057 48.3045 21.3093 48.2711 21.41 48.23C21.9065 48.0121 22.4428 47.8997 22.985 47.8997C23.5272 47.8997 24.0635 48.0121 24.56 48.23C24.6942 48.2994 24.847 48.3243 24.9963 48.3009C25.1456 48.2775 25.2835 48.2071 25.39 48.1C27.39 46.52 29.34 44.97 31.32 43.41C31.4515 43.3078 31.5961 43.2237 31.75 43.16C31.885 43.1027 32.0359 43.0943 32.1764 43.1363C32.317 43.1783 32.4385 43.268 32.52 43.39C32.6108 43.5074 32.6601 43.6516 32.6601 43.8C32.6601 43.9484 32.6108 44.0926 32.52 44.21C32.4267 44.3199 32.3229 44.4204 32.21 44.51C30.29 46.1 28.38 47.69 26.45 49.25C26.2653 49.3759 26.1153 49.5464 26.014 49.7457C25.9126 49.9449 25.8631 50.1665 25.87 50.39C25.8364 51.1732 25.7629 51.9542 25.65 52.73C25.6443 52.8332 25.6443 52.9367 25.65 53.04C25.9325 52.9683 26.2199 52.9182 26.51 52.89C27.019 52.845 27.531 52.845 28.04 52.89C28.1785 52.9228 28.3239 52.9093 28.454 52.8515C28.5841 52.7937 28.6916 52.6948 28.76 52.57C30.2453 50.5108 31.8584 48.5469 33.59 46.69C33.6963 46.5651 33.8211 46.4572 33.96 46.37C34.0871 46.2985 34.2339 46.2697 34.3786 46.288C34.5233 46.3063 34.6583 46.3706 34.7637 46.4715C34.8691 46.5723 34.9392 46.7044 34.9637 46.8482C34.9883 46.992 34.9659 47.1399 34.9 47.27C34.8248 47.3947 34.7377 47.5119 34.64 47.62C33.13 49.55 31.64 51.47 30.1 53.39C29.99 53.53 29.89 53.69 29.8 53.82C30.0907 54.3761 30.3446 54.9506 30.56 55.54C30.7012 56.1391 30.8015 56.7472 30.86 57.36C31.36 57.36 31.86 57.27 32.44 57.27C32.9319 57.2385 33.425 57.3114 33.8868 57.4837C34.3487 57.656 34.7689 57.924 35.12 58.27C35.4794 58.6843 35.776 59.1493 36 59.65C36.6773 60.8109 36.9876 62.1495 36.89 63.49C36.8647 64.2645 36.5989 65.0119 36.1293 65.6284C35.6598 66.2449 35.0099 66.6998 34.27 66.93C33.4119 67.2895 32.4681 67.393 31.5525 67.228C30.6369 67.0629 29.7886 66.6365 29.11 66ZM21.35 60.2C21.49 60.09 21.66 59.93 21.86 59.8C21.9799 59.7152 22.1231 59.6696 22.27 59.6696C22.4169 59.6696 22.5601 59.7152 22.68 59.8C22.8081 59.8753 22.9084 59.99 22.966 60.1269C23.0237 60.2639 23.0356 60.4157 23 60.56C22.9663 60.7195 22.9125 60.874 22.84 61.02C22.5821 61.6408 22.5062 62.3222 22.6213 62.9845C22.7364 63.6468 23.0377 64.2626 23.49 64.76C23.6271 64.9276 23.8067 65.0554 24.01 65.13C24.773 65.4424 25.5859 65.6152 26.41 65.64C26.6386 65.652 26.8674 65.6174 27.0822 65.5383C27.2971 65.4592 27.4937 65.3373 27.66 65.18C28.0423 64.8827 28.3163 64.4681 28.44 64C28.4813 63.776 28.6098 63.5775 28.7973 63.4482C28.9848 63.3188 29.2159 63.2691 29.44 63.31C29.83 63.38 30.03 63.7 30.06 64.21C30.065 64.4241 30.1386 64.6309 30.27 64.8C30.5101 65.0697 30.8027 65.2875 31.13 65.44C31.5526 65.6179 32.0065 65.7096 32.465 65.7096C32.9235 65.7096 33.3774 65.6179 33.8 65.44C34.2652 65.2897 34.6707 64.9958 34.9582 64.6005C35.2457 64.2052 35.4004 63.7288 35.4 63.24C35.4342 62.1001 35.1203 60.9769 34.5 60.02C34.3176 59.6795 34.0487 59.393 33.7205 59.1894C33.3922 58.9857 33.0161 58.8721 32.63 58.86C31.8074 58.8032 30.9827 58.9367 30.22 59.25C30.0702 59.3186 29.9166 59.3787 29.76 59.43C29.6321 59.4729 29.4952 59.4814 29.363 59.4547C29.2307 59.428 29.1078 59.3671 29.0066 59.278C28.9053 59.1889 28.8292 59.0747 28.786 58.9469C28.7427 58.8192 28.7337 58.6823 28.76 58.55C28.7793 58.3851 28.8302 58.2255 28.91 58.08C29.1491 57.6558 29.2671 57.1741 29.2512 56.6874C29.2353 56.2007 29.0862 55.7277 28.82 55.32C28.6864 55.0078 28.4527 54.749 28.1558 54.5842C27.8589 54.4195 27.5156 54.3582 27.18 54.41C26.7293 54.4789 26.2847 54.5825 25.85 54.72C25.5637 54.8322 25.2833 54.959 25.01 55.1C24.8764 55.1628 24.7291 55.1905 24.5818 55.1807C24.4346 55.1708 24.2923 55.1237 24.1683 55.0437C24.0442 54.9637 23.9426 54.8534 23.873 54.7233C23.8033 54.5932 23.7679 54.4475 23.77 54.3C23.768 54.1373 23.7916 53.9753 23.84 53.82C24.1273 52.7614 24.3016 51.6753 24.36 50.58C24.36 50.44 24.36 50.29 24.36 50.14C24.368 50.0393 24.3403 49.9391 24.2818 49.8568C24.2233 49.7746 24.1377 49.7155 24.04 49.69C23.7128 49.5438 23.3584 49.4683 23 49.4683C22.6416 49.4683 22.2872 49.5438 21.96 49.69C21.62 49.85 21.29 50.05 20.96 50.24C20.15 50.72 19.57 50.42 19.56 49.51C19.5989 49.0519 19.4827 48.5941 19.23 48.21C19.1661 48.1191 19.1313 48.011 19.13 47.9C19.1269 47.8208 19.1054 47.7434 19.0673 47.674C19.0291 47.6046 18.9752 47.545 18.91 47.5C18.778 47.4002 18.6876 47.2551 18.6562 47.0926C18.6248 46.9301 18.6547 46.7618 18.74 46.62C18.9735 46.0302 19.06 45.3925 18.9921 44.7618C18.9241 44.1312 18.7038 43.5265 18.35 43C18.0578 42.4106 17.6097 41.9126 17.0543 41.56C16.499 41.2074 15.8577 41.0137 15.2 41C14.2488 40.9518 13.2962 41.0599 12.38 41.32C11.7 41.4725 11.0659 41.7844 10.53 42.23C10.1911 42.4701 9.92422 42.7981 9.75816 43.1788C9.59209 43.5594 9.53315 43.9782 9.58771 44.3899C9.64226 44.8017 9.80823 45.1907 10.0677 45.5149C10.3272 45.8392 10.6703 46.0865 11.06 46.23L11.26 46.32L12.02 46.64C12.1825 46.6812 12.3304 46.7665 12.4474 46.8865C12.5645 47.0065 12.6461 47.1564 12.6834 47.3198C12.7206 47.4833 12.712 47.6538 12.6584 47.8126C12.6049 47.9715 12.5086 48.1124 12.38 48.22C12.25 48.36 12.12 48.48 12 48.62C11.61 49.12 11.19 49.62 10.84 50.14C10.4601 50.669 10.3054 51.3271 10.41 51.97C10.4794 52.5664 10.7262 53.1282 11.1184 53.5828C11.5106 54.0374 12.0302 54.3639 12.61 54.52L13.4 54.73C13.7802 54.8652 14.1858 54.9139 14.5871 54.8723C14.9885 54.8308 15.3756 54.7002 15.72 54.49C15.8501 54.3844 16.0125 54.3268 16.18 54.3268C16.3475 54.3268 16.5099 54.3844 16.64 54.49C16.7678 54.5972 16.8608 54.7401 16.9071 54.9004C16.9534 55.0607 16.9509 55.2311 16.9 55.39C16.8279 55.596 16.741 55.7965 16.64 55.99C16.2032 56.9269 16.094 57.9835 16.33 58.99C16.3768 59.2513 16.4844 59.4979 16.6442 59.7099C16.8041 59.9219 17.0116 60.0932 17.25 60.21C17.7968 60.4646 18.3617 60.6785 18.94 60.85C19.3603 60.9985 19.8157 61.0159 20.2461 60.8999C20.6765 60.7838 21.0614 60.5397 21.35 60.2Z" fill="black"/>
<path d="M71.22 15C71.4335 15.3609 71.6239 15.735 71.79 16.12C72.3144 17.5363 72.3355 19.0899 71.85 20.52C71.1214 22.5121 70.1863 24.4225 69.06 26.22L68.6 27C68.6 27 68.54 27 68.51 27.07C67.2439 26.3687 66.0657 25.5194 65 24.54C64.6 24.14 64.22 23.72 63.84 23.3C63.1 22.49 62.36 21.68 61.65 20.85C61.17 20.28 60.73 19.67 60.3 19.06C59.87 18.45 59.49 17.76 59.09 17.11C59.61 16.38 59.58 16.27 58.62 15.21C58.697 15.1699 58.7773 15.1365 58.86 15.11C62.3441 14.4293 65.9114 14.2809 69.44 14.67C69.5829 14.6675 69.7247 14.6956 69.8558 14.7526C69.9869 14.8095 70.1043 14.8939 70.2 15C70.46 15.3 70.81 15.22 71.22 15Z" fill="black"/>
<path d="M21.35 60.2C21.0566 60.5329 20.6695 60.7692 20.2394 60.8781C19.8093 60.9869 19.3564 60.9632 18.94 60.81C18.3617 60.6386 17.7968 60.4247 17.25 60.17C17.0175 60.0582 16.8137 59.8946 16.6543 59.6918C16.4948 59.489 16.3839 59.2523 16.33 59C16.0941 57.9936 16.2032 56.937 16.64 56C16.741 55.8066 16.8279 55.606 16.9 55.4C16.9509 55.2412 16.9534 55.0707 16.9071 54.9104C16.8608 54.7501 16.7678 54.6073 16.64 54.5C16.5099 54.3945 16.3475 54.3369 16.18 54.3369C16.0125 54.3369 15.8501 54.3945 15.72 54.5C15.3756 54.7102 14.9885 54.8409 14.5871 54.8824C14.1858 54.9239 13.7802 54.8753 13.4 54.74L12.61 54.53C12.0302 54.3739 11.5106 54.0475 11.1184 53.5929C10.7262 53.1383 10.4794 52.5764 10.41 51.98C10.3054 51.3372 10.4601 50.6791 10.84 50.15C11.19 49.62 11.61 49.15 12 48.63C12.12 48.49 12.25 48.37 12.38 48.23C12.5238 48.1246 12.6334 47.9793 12.6953 47.8121C12.7572 47.6449 12.7686 47.4632 12.7281 47.2896C12.6876 47.116 12.5971 46.958 12.4676 46.8355C12.3382 46.7129 12.1756 46.631 12 46.6L11.24 46.28L11.04 46.19C10.6503 46.0465 10.3072 45.7993 10.0477 45.475C9.78823 45.1507 9.62227 44.7617 9.56771 44.35C9.51316 43.9383 9.5721 43.5195 9.73817 43.1388C9.90423 42.7582 10.1711 42.4301 10.51 42.19C11.0459 41.7445 11.68 41.4326 12.36 41.28C13.2762 41.0199 14.2288 40.9118 15.18 40.96C15.8377 40.9738 16.479 41.1675 17.0343 41.5201C17.5897 41.8727 18.0378 42.3707 18.33 42.96C18.689 43.4961 18.9097 44.1127 18.9725 44.7548C19.0353 45.3969 18.9383 46.0445 18.69 46.64C18.6047 46.7818 18.5748 46.9502 18.6062 47.1126C18.6376 47.2751 18.728 47.4202 18.86 47.52C18.9252 47.565 18.9791 47.6246 19.0173 47.694C19.0554 47.7635 19.0769 47.8408 19.08 47.92C19.0813 48.0311 19.1161 48.1392 19.18 48.23C19.4327 48.6141 19.5489 49.0719 19.51 49.53C19.51 50.44 20.1 50.74 20.91 50.26C21.24 50.07 21.57 49.87 21.91 49.71C22.2372 49.5639 22.5916 49.4883 22.95 49.4883C23.3084 49.4883 23.6628 49.5639 23.99 49.71C24.0877 49.7355 24.1733 49.7946 24.2318 49.8769C24.2903 49.9592 24.318 50.0594 24.31 50.16C24.31 50.31 24.31 50.46 24.31 50.6C24.2517 51.6954 24.0773 52.7814 23.79 53.84C23.7416 53.9954 23.718 54.1573 23.72 54.32C23.7179 54.4676 23.7533 54.6133 23.823 54.7434C23.8926 54.8735 23.9943 54.9837 24.1183 55.0637C24.2423 55.1437 24.3846 55.1909 24.5319 55.2007C24.6791 55.2106 24.8264 55.1828 24.96 55.12C25.2333 54.9791 25.5137 54.8523 25.8 54.74C26.2347 54.6026 26.6793 54.4989 27.13 54.43C27.4656 54.3782 27.8089 54.4395 28.1058 54.6043C28.4027 54.769 28.6364 55.0279 28.77 55.34C29.0362 55.7478 29.1853 56.2208 29.2012 56.7074C29.2171 57.1941 29.0991 57.6758 28.86 58.1C28.7802 58.2456 28.7293 58.4052 28.71 58.57C28.6837 58.7023 28.6927 58.8392 28.736 58.967C28.7792 59.0947 28.8553 59.2089 28.9566 59.298C29.0578 59.3871 29.1807 59.4481 29.313 59.4747C29.4452 59.5014 29.5821 59.4929 29.71 59.45C29.8666 59.3988 30.0202 59.3387 30.17 59.27C30.9327 58.9567 31.7574 58.8233 32.58 58.88C32.9661 58.8922 33.3422 59.0058 33.6705 59.2094C33.9987 59.413 34.2676 59.6995 34.45 60.04C35.0703 60.9969 35.3843 62.1202 35.35 63.26C35.3504 63.7488 35.1957 64.2252 34.9082 64.6205C34.6207 65.0159 34.2152 65.3098 33.75 65.46C33.3274 65.638 32.8735 65.7296 32.415 65.7296C31.9565 65.7296 31.5026 65.638 31.08 65.46C30.7527 65.3075 30.4601 65.0897 30.22 64.82C30.0886 64.6509 30.015 64.4441 30.01 64.23C30.01 63.72 29.78 63.4 29.39 63.33C29.1659 63.2892 28.9348 63.3389 28.7473 63.4682C28.5598 63.5976 28.4313 63.796 28.39 64.02C28.2624 64.4809 27.9887 64.8879 27.61 65.18C27.4437 65.3374 27.2471 65.4593 27.0322 65.5384C26.8174 65.6174 26.5887 65.652 26.36 65.64C25.5359 65.6152 24.723 65.4425 23.96 65.13C23.7567 65.0555 23.5771 64.9277 23.44 64.76C22.9921 64.2556 22.6977 63.6337 22.5914 62.9676C22.4851 62.3014 22.5714 61.6188 22.84 61C22.9126 60.8541 22.9663 60.6995 23 60.54C23.0356 60.3958 23.0237 60.2439 22.966 60.107C22.9084 59.97 22.8081 59.8554 22.68 59.78C22.5601 59.6952 22.4169 59.6497 22.27 59.6497C22.1231 59.6497 21.9799 59.6952 21.86 59.78C21.66 59.93 21.49 60.09 21.35 60.2Z" fill="black"/>
<path d="M48.41 33.72C47.6232 32.6837 47.0983 31.4727 46.88 30.19C46.75 29.482 46.7833 28.7536 46.9774 28.0605C47.1715 27.3673 47.5212 26.7275 48 26.19C48.5265 25.5008 49.2233 24.9605 50.0218 24.622C50.8204 24.2835 51.6932 24.1586 52.5546 24.2595C53.416 24.3603 54.2364 24.6835 54.9351 25.1973C55.6338 25.7111 56.1869 26.3978 56.54 27.19C56.5971 27.3624 56.7191 27.5058 56.88 27.59C57.0153 27.6481 57.1307 27.7442 57.2124 27.8667C57.2941 27.9892 57.3384 28.1328 57.34 28.28C57.5375 29.8108 57.3271 31.3667 56.73 32.79C56.4415 33.5191 55.9538 34.1523 55.3225 34.6174C54.6912 35.0824 53.9418 35.3606 53.16 35.42C52.1548 35.5877 51.1236 35.5018 50.16 35.17C49.4229 34.9099 48.8026 34.3959 48.41 33.72ZM49.72 32.87C49.9484 33.2421 50.3035 33.5191 50.72 33.65C51.4177 33.8702 52.1564 33.9283 52.88 33.82C53.4421 33.7858 53.981 33.5836 54.4268 33.2394C54.8726 32.8953 55.2047 32.4252 55.38 31.89C55.7009 30.9607 55.8599 29.9831 55.85 29C55.8663 28.9012 55.8485 28.7998 55.7994 28.7125C55.7503 28.6253 55.6729 28.5573 55.58 28.52C55.4586 28.4562 55.3577 28.3595 55.2887 28.241C55.2197 28.1225 55.1855 27.987 55.19 27.85C55.1818 27.635 55.1124 27.4269 54.99 27.25C54.6751 26.8222 54.2756 26.4639 53.8163 26.1972C53.3569 25.9306 52.8476 25.7613 52.32 25.7C51.8482 25.6163 51.362 25.6828 50.93 25.89C50.465 26.1015 50.0283 26.3702 49.63 26.69C49.1746 27.0583 48.8228 27.5385 48.6089 28.0837C48.395 28.6289 48.3265 29.2203 48.41 29.8C48.5768 30.9185 49.0279 31.9756 49.72 32.87Z" fill="black"/>
</svg>
