<?xml version="1.0" encoding="utf-8"?>
<!-- Generator: Adobe Illustrator 24.3.0, SVG Export Plug-In . SVG Version: 6.00 Build 0)  -->
<svg version="1.1" id="Layer_1" xmlns="http://www.w3.org/2000/svg" xmlns:xlink="http://www.w3.org/1999/xlink" x="0px" y="0px"
	 viewBox="0 0 80 80" style="enable-background:new 0 0 80 80;" xml:space="preserve">
<path d="M50.5,43.9c1.1,4.5-5.2,8.1-8.8,9.5c-1.6,0.6-3.3,1.1-4.9,1.7c-0.2,0.1-0.4,0-0.5,0c-0.6-0.2-0.7-1-0.2-1.4
	c2.5-1.4,4.3-3.6,5.5-6.2c0.8-1.1,0.8-2.5,1.1-3.8l-2-0.8c-0.1,1.1-1.1,1.8-1.7,2.7c-0.4,0.4-0.9,0.9-1.6,0.9
	c-0.5-0.1-0.9-0.5-1.2-0.8c-1.7-1.8-3.1-3.9-4-6.2L32,39.3c-0.3-1-0.1-1.3,0.8-1.7c0.9-0.4,2-1,3-1.5l-0.2-2.2
	c-3.9,0.2-7.7,1.6-10.7,4.1c-0.4,0.4-1,0.5-1.4,0.1c-0.7-0.9,0.5-1.8,0.9-2.6c1.4-2.2,3.1-4.2,5.1-5.9c2.2-2,4.9-4.2,8.1-3.4
	C42,19,50.1,14.9,58.3,13.7c3.9-0.9,7.8-0.7,11.7-0.5c0.8-0.2,1.6,0.2,2.2,0.7c2.6,3.1,1.3,7.6-0.5,10.8c-2.6,4.9-5.8,9.4-10.1,12.9
	C58.3,40.3,54.7,43,50.5,43.9z M56.8,15.5c-9.5,1.9-20.6,9.1-19.4,20c0.3,3.5,3.3,6.3,6.7,6.9c9.2,2,19-6.9,23.6-14.1
	c-3.6-1.7-6-5-8.5-8C58.3,18.8,56.9,17.3,56.8,15.5z M44,44c0.2,3-1.7,5.7-3.4,8c2.9-0.7,5.4-2.7,7.5-4.8c0.8-0.8,1.2-2,0.9-3.2
	C47.4,44.3,45.7,44.3,44,44z M37,27.5c-1.4-0.1-2.8,0.4-3.9,1.2c-2.4,1.7-4.6,3.7-6.3,6.1c2.7-1.5,5.8-2.5,8.9-2.3
	C35.9,30.8,36.3,29,37,27.5z M37.5,44.9c0.9-0.8,1.3-1.9,2.4-2.5c-1.8-1.2-3.1-2.9-3.7-4.9L33.6,39C34.5,41.2,35.8,43.2,37.5,44.9
	L37.5,44.9z"/>
<path d="M29.1,66c-1.4,1.6-3.6,1.3-5.4,0.7c-1.7-0.6-2.6-2.6-2.7-4.4c-3.9,0.6-7.2-1.6-6.2-5.9c-1.8,0-3.9-0.5-5.1-2.1
	c-1.1-1.4-1.3-3.5-0.2-5c0.3-0.5,0.8-1,1.1-1.6C8.8,47,7.4,45,8.3,43c0.9-3,4.5-3.7,7.3-3.5c2.6,0.1,4.4,2.3,4.9,4.7
	c0.1,0,0.3-0.1,0.4-0.1c2.3-1.1,7.1-3.5,9.3-4.6c0.8-0.8,1.8,0.7,0.7,1.1c-2.1,1.2-8.4,4.4-10.5,5.3L20.2,47l0.9,1.3
	c0.6-0.2,1.2-0.5,1.9-0.4c0.7-0.1,1.3,0.4,2,0.4c2.2-1.4,4.2-3.3,6.3-4.9c0.2-0.2,0.5-0.4,0.9-0.3c0.4,0.1,0.6,0.7,0.3,1.1
	c-2.1,2-4.5,3.5-6.5,5.5c-0.3,1.1-0.2,2.2-0.4,3.3c0.9-0.3,1.9-0.1,2.8-0.2c1.7-2,3.3-4.3,5.1-6.2c0.2-0.2,0.5-0.5,0.8-0.4
	c0.7,0.1,0.7,0.9,0.3,1.3c-1.6,2.1-3.3,4.1-4.8,6.2c0.6,1.1,1,2.3,1.1,3.5c0.9,0,2.1-0.3,3,0.1c2.2,0.9,3.1,3.8,3,6
	C36.8,67.2,31.5,68.5,29.1,66z"/>
<path d="M48.4,33.7c-1.6-2.1-2.4-5.4-0.4-7.5c2.1-3,7.2-2.4,8.5,1c0.1,0.4,0.5,0.4,0.7,0.7c0.5,1.6,0.1,3.4-0.5,4.9
	C55.6,36,50.2,36.6,48.4,33.7z M49.7,32.9c0.9,1.4,3.5,1.3,4.7,0.4c1.2-1,1.4-2.8,1.4-4.2c0.1-0.4-0.4-0.5-0.6-0.8
	c-0.2-0.3-0.1-0.7-0.3-1c-1.7-2.4-5.2-1.8-6.4,0.8C48,29.7,48.7,31.5,49.7,32.9z"/>
</svg>
