<svg width="80" height="80" viewBox="0 0 80 80" fill="none" xmlns="http://www.w3.org/2000/svg">
<path d="M56.92 39.2C56.55 39.39 56.2 39.58 55.84 39.75L48.84 43.07C48.5041 43.2442 48.1291 43.3293 47.7509 43.317C47.3726 43.3048 47.0039 43.1956 46.68 43C46.49 42.89 46.25 42.76 46.18 42.59C45.68 41.26 44.68 40.17 44.84 38.54C45.12 35.7 45.13 32.82 45.34 29.97C45.3921 29.6491 45.3477 29.32 45.2123 29.0245C45.077 28.7289 44.8569 28.4802 44.58 28.31C42.86 27.12 41.13 25.94 39.46 24.69C37.4917 23.1452 35.7335 21.35 34.23 19.35C34.0997 19.2181 34.0006 19.0587 33.94 18.8834C33.8795 18.7081 33.859 18.5215 33.8801 18.3373C33.9012 18.1531 33.9634 17.9759 34.062 17.8189C34.1606 17.6619 34.2932 17.529 34.45 17.43C34.6567 17.2942 34.8364 17.1213 34.98 16.92C35.234 16.4491 35.5989 16.0473 36.0433 15.7493C36.4876 15.4513 36.9979 15.2662 37.53 15.21C40.38 14.67 43.23 14.14 46.07 13.54C51.81 12.32 57.54 11 63.29 9.8C66.92 9.05 70.57 8.41 74.22 7.75C74.588 7.70145 74.9624 7.74432 75.3099 7.8748C75.6574 8.00528 75.9675 8.21936 76.2126 8.49812C76.4578 8.77688 76.6305 9.11173 76.7155 9.47309C76.8005 9.83445 76.7952 10.2112 76.7 10.57C75.5564 15.7717 74.0937 20.8981 72.32 25.92C70.72 30.77 69.52 35.73 68.37 40.71C68.06 42.06 67.63 43.4 67.26 44.71C67.196 44.9576 67.109 45.1987 67 45.43C66.9081 45.6313 66.7711 45.8087 66.5996 45.9485C66.4281 46.0882 66.2267 46.1866 66.011 46.2359C65.7953 46.2853 65.5712 46.2842 65.3559 46.2329C65.1407 46.1816 64.9402 46.0813 64.77 45.94C62.0875 44.0736 59.6074 41.9319 57.37 39.55C57.2269 39.4247 57.0766 39.3079 56.92 39.2ZM54.63 32C55.63 33.66 63.96 42.83 65.18 43.28C65.38 42.58 65.9 41.21 66.06 40.5C67.18 35.67 67.92 32.33 69.43 27.61C70.43 24.43 71.78 20.53 72.8 17.35C72.88 17.1 74.47 12.98 74.56 12.52C68.55 18.43 60.34 26 54.63 32ZM46.94 26.47C47.26 26.23 48.04 25.77 48.33 25.56C50.57 23.9 53.04 22.39 55.33 20.87C59.8 17.94 63.84 15.37 68.33 12.52C68.56 12.38 71.94 10.52 72.14 10.32C71.75 10.24 67.48 10.98 67.14 11.05C61.27 12.33 54.42 14.05 48.54 15.3C44.66 16.12 42.46 16.3 38.54 17.06C38.05 17.16 37.32 18.13 36.99 18.65C39.81 22 43.6 23.88 46.94 26.47ZM67.23 16.47L67 16.34C64.92 17.63 62.79 18.87 60.75 20.23C56.85 22.84 52.99 25.51 49.12 28.17C48.8379 28.3313 48.6086 28.571 48.46 28.86C48.0829 29.732 47.8824 30.6701 47.87 31.62C47.87 33.49 47.79 35.36 47.75 37.23C47.7634 37.5219 47.7968 37.8126 47.85 38.1C48.08 37.77 48.21 37.6 48.32 37.42L51.55 32.17C52.06 31.32 52.5 30.41 53.55 30.1C53.71 30.05 53.83 29.87 53.96 29.74L66.32 17.34L67.23 16.47ZM50.57 39.15C52.1034 38.6462 53.5186 37.8366 54.73 36.77L53.23 35.11L50.57 39.15Z" fill="black"/>
<path d="M4.07 43L5 42.36C9.64 39.09 14.23 35.72 19 32.57C23.3 29.7 27.75 27.06 32.13 24.33C32.344 24.1852 32.5805 24.0771 32.83 24.01C33.1125 23.9227 33.4168 23.9392 33.6882 24.0566C33.9596 24.1739 34.1801 24.3844 34.31 24.65C34.4385 24.8967 34.4789 25.18 34.4243 25.4528C34.3697 25.7257 34.2235 25.9716 34.01 26.15C33.6939 26.404 33.3596 26.6346 33.01 26.84C29.11 29.39 25.17 31.84 21.32 34.48C17.82 36.84 14.42 39.34 10.97 41.77C9.34 42.86 7.75999 43.93 6.18 45C6.00442 45.1314 5.82072 45.2517 5.63 45.36C5.32848 45.5401 4.97123 45.6029 4.62635 45.5365C4.28148 45.4701 3.97309 45.2791 3.76 45C3.55037 44.6888 3.46586 44.31 3.52332 43.9393C3.58079 43.5685 3.77601 43.2331 4.07 43Z" fill="black"/>
<path d="M47.32 69.63C46.32 70.63 45.32 71.63 44.32 72.63C44.0015 72.9318 43.6326 73.1754 43.23 73.35C42.9925 73.4589 42.7257 73.4865 42.4708 73.4287C42.216 73.3709 41.9873 73.2307 41.82 73.03C41.6248 72.8297 41.5044 72.5683 41.4789 72.2898C41.4534 72.0113 41.5244 71.7324 41.68 71.5C41.9829 71.0504 42.317 70.6226 42.68 70.22C46.01 66.44 49.4 62.73 52.68 58.89C55.23 55.89 57.61 52.68 60.07 49.58C60.2569 49.3082 60.4866 49.0685 60.75 48.87C60.9548 48.7119 61.2063 48.6261 61.465 48.6261C61.7237 48.6261 61.9752 48.7119 62.18 48.87C62.4098 49.0281 62.5767 49.2619 62.6517 49.5306C62.7266 49.7993 62.7048 50.0858 62.59 50.34C62.4891 50.577 62.3616 50.8018 62.21 51.01C59.337 55.1704 56.246 59.176 52.95 63.01C51.0833 65.17 49.21 67.3333 47.33 69.5L47.32 69.63Z" fill="black"/>
<path d="M47.82 56.19C44.9267 59.21 42.04 62.2367 39.16 65.27C38.79 65.66 38.47 66.12 38.16 66.54C37.9362 66.827 37.685 67.0916 37.41 67.33C37.1846 67.537 36.8951 67.6605 36.5896 67.6802C36.2842 67.6998 35.9813 67.6142 35.7312 67.4378C35.4811 67.2614 35.299 67.0046 35.2151 66.7103C35.1312 66.416 35.1506 66.1018 35.27 65.82C35.3919 65.4737 35.5748 65.1519 35.81 64.87C37.18 63.29 38.53 61.69 39.97 60.18C44.2665 55.6218 48.8313 51.3242 53.64 47.31C54.2 46.85 54.73 46.31 55.28 45.84C55.5037 45.6392 55.7446 45.4586 56 45.3C56.2426 45.1302 56.5377 45.0521 56.8325 45.0796C57.1274 45.1071 57.4029 45.2383 57.61 45.45C57.8229 45.6839 57.9409 45.9887 57.9409 46.305C57.9409 46.6213 57.8229 46.9261 57.61 47.16C57.3595 47.4738 57.0817 47.765 56.78 48.03L48.38 55.81C48.22 55.96 48.07 56.12 47.91 56.28L47.82 56.19Z" fill="black"/>
<path d="M28.3 38.11C30.88 35.89 33.3 33.74 35.82 31.62C36.2723 31.2464 36.7868 30.9552 37.34 30.76C37.6204 30.6594 37.9287 30.6697 38.2018 30.7886C38.475 30.9075 38.6925 31.1262 38.81 31.4C38.9509 31.6675 38.99 31.9771 38.9202 32.2713C38.8503 32.5655 38.6761 32.8243 38.43 33C36.86 34.38 35.29 35.76 33.74 37.16C31.95 38.79 30.19 40.45 28.4 42.08C27.9405 42.502 27.4453 42.8834 26.92 43.22C26.7851 43.3338 26.6283 43.4187 26.4593 43.4695C26.2903 43.5203 26.1126 43.5359 25.9373 43.5153C25.762 43.4946 25.5928 43.4383 25.4402 43.3496C25.2876 43.261 25.1548 43.142 25.05 43C24.8362 42.7404 24.7331 42.4071 24.763 42.0722C24.793 41.7372 24.9535 41.4275 25.21 41.21C26.25 40.12 27.33 39.08 28.3 38.11Z" fill="black"/>
<path d="M67.23 16.5L66.38 17.34L54 29.74C53.87 29.87 53.75 30.05 53.59 30.1C52.52 30.41 52.08 31.32 51.59 32.17L48.36 37.42C48.25 37.6 48.12 37.77 47.89 38.1C47.8368 37.8127 47.8034 37.522 47.79 37.23C47.79 35.36 47.92 33.49 47.91 31.62C47.9224 30.6701 48.1229 29.732 48.5 28.86C48.6486 28.571 48.8779 28.3314 49.16 28.17C53.03 25.51 56.89 22.84 60.79 20.23C62.79 18.87 64.96 17.63 67.04 16.34L67.23 16.5Z" fill="black"/>
</svg>
