<?xml version="1.0" encoding="utf-8"?>
<!-- Generator: Adobe Illustrator 24.3.0, SVG Export Plug-In . SVG Version: 6.00 Build 0)  -->
<svg version="1.1" id="Layer_1" xmlns="http://www.w3.org/2000/svg" xmlns:xlink="http://www.w3.org/1999/xlink" x="0px" y="0px"
	 viewBox="0 0 80 80" style="enable-background:new 0 0 80 80;" xml:space="preserve">
<path d="M56.9,39.2c-0.6,0.3-7.3,3.5-8.1,3.9c-0.3,0.2-0.7,0.3-1.1,0.2c-0.6,0-1.3-0.3-1.6-0.7c-0.5-1.3-1.5-2.4-1.3-4.1
	c0.3-2.8,0.3-5.7,0.5-8.6c0.1-0.6-0.2-1.3-0.8-1.7c-1.7-1.2-3.4-2.4-5.1-3.6c-2-1.5-3.7-3.3-5.2-5.3c-0.6-0.5-0.4-1.5,0.2-1.9
	c0.7-0.4,0.9-1.3,1.6-1.7c0.4-0.3,1-0.5,1.5-0.5c2.9-0.5,5.7-1.1,8.5-1.7c5.7-1.2,11.5-2.5,17.2-3.7c3.6-0.8,7.3-1.4,10.9-2.1
	c1.5-0.2,2.9,1.3,2.5,2.8c-2.2,10.2-6.3,19.9-8.3,30.1c-0.4,1.6-0.8,3.2-1.4,4.7c-0.2,0.4-0.6,0.7-1,0.8c-0.4,0.1-0.9,0-1.2-0.3
	C61.9,44,59.4,41.6,56.9,39.2z M54.6,32c1,1.7,9.3,10.8,10.5,11.3c1.8-5.5,2.4-10.2,4.3-15.7c1.5-4.9,3.4-10.2,5.1-15.1
	C68.6,18.4,60.3,26,54.6,32z M46.9,26.5c8.3-5.6,16.6-11.1,25.2-16.1c-7.7,0.9-16,3.5-23.6,5c-3.9,0.8-6.1,1-10,1.8
	c-0.5,0.1-1.2,1.1-1.5,1.6C39.8,22,43.6,23.9,46.9,26.5z M50.6,39.2c1.5-0.5,2.9-1.3,4.2-2.4l-1.5-1.7L50.6,39.2z"/>
<path d="M4.1,43c9.3-6.6,18.8-13.4,28.8-19c0.9-0.3,1.8,0.6,1.6,1.4c-0.1,0.7-0.9,1-1.4,1.4c-7.5,4.8-14.9,9.7-22,14.9
	c-1.8,1.2-3.6,2.4-5.3,3.6c-0.3,0.2-0.7,0.2-1,0.2C3.4,45.4,3.1,43.7,4.1,43z"/>
<path d="M47.3,69.6c-1.3,1-4.7,6.1-5.8,2.7c0-0.8,0.7-1.4,1.2-2.1c3.3-3.8,6.7-7.5,10-11.3c2.5-3,4.9-6.2,7.4-9.3
	c0.6-1.1,2.1-1.4,2.6,0c0.2,0.5-0.1,1.1-0.4,1.5C57.8,57.6,52.3,63.5,47.3,69.6z"/>
<path d="M47.8,56.2c-2.9,3-5.8,6-8.7,9.1c-0.8,0.8-1.3,2.2-2.6,2.4c-1,0.1-1.7-1-1.3-1.9c5.7-7.7,13.5-14.3,20.7-20.5
	c1.2-0.8,2.6,0.8,1.6,1.9C56.9,48.1,48.8,55.3,47.8,56.2L47.8,56.2z"/>
<path d="M28.3,38.1c2.6-2.2,5-4.4,7.5-6.5c0.7-0.5,1.5-1.2,2.4-0.8c0.9,0.4,1,1.7,0.2,2.2c-1.6,1.4-3.1,2.8-4.7,4.2
	c-1.8,1.6-3.6,3.3-5.3,4.9c-0.7,0.6-1.5,1.5-2.5,1.4c-0.7-0.1-1.2-0.8-1.2-1.4c0-0.3,0.2-0.6,0.4-0.9C26.2,40.1,27.3,39.1,28.3,38.1
	z"/>
</svg>
