<svg width="80" height="80" viewBox="0 0 80 80" fill="none" xmlns="http://www.w3.org/2000/svg">
<path d="M58.9001 49.42L56.2701 44.93C56.0252 44.5511 55.8111 44.1532 55.6301 43.74C55.3801 43.14 55.0801 43 54.6301 43.08C51.1415 43.6642 47.5922 43.7953 44.0701 43.47C42.0701 43.34 40.8101 41 41.0701 37.81C41.1311 35.7878 41.8041 33.8317 43.0001 32.2C43.2599 31.828 43.5957 31.5154 43.9853 31.2827C44.3749 31.05 44.8093 30.9025 45.2601 30.85C45.9901 30.85 46.7201 30.75 47.4401 30.69L47.8501 30.64C46.8501 28.23 45.9901 25.86 45.0501 23.51C45.0143 23.4357 44.9593 23.3723 44.8907 23.3266C44.822 23.2809 44.7424 23.2544 44.6601 23.25C42.3101 23.4 39.9701 23.57 37.6601 23.71C37.3601 23.71 37.1701 23.89 36.9801 24.27C35.6601 26.99 34.3101 29.69 32.9801 32.4C32.8601 32.63 32.7501 32.87 32.5901 33.2L33.6801 33.47C33.9265 33.5079 34.1703 33.5614 34.4101 33.63C34.677 33.7209 34.9127 33.8856 35.0897 34.1051C35.2667 34.3246 35.3778 34.5899 35.4101 34.87C35.7432 36.5172 35.7771 38.2108 35.5101 39.87C35.4686 40.45 35.2761 41.0091 34.9515 41.4915C34.6269 41.974 34.1817 42.363 33.6601 42.62C32.5401 43.09 31.4101 43.51 30.2601 43.96C30.2798 44.0617 30.3065 44.162 30.3401 44.26C31.3401 46.85 32.4001 49.43 33.4101 52.04C33.6001 52.53 33.8101 52.73 34.1601 52.74C36.1601 52.82 38.2301 52.93 40.2601 53C42.6101 53.08 44.9601 53.12 47.2601 53.19C47.5037 53.1965 47.7456 53.2334 47.9801 53.3C48.7501 53.55 49.0701 54.3 48.9801 55.54C49.3101 55.88 49.6501 56.21 49.9801 56.54C50.5242 57.1558 50.9277 57.8827 51.1625 58.6701C51.3974 59.4576 51.458 60.2868 51.3401 61.1C51.1501 63.29 50.5001 64.99 49.1101 65.61C48.0722 66.0671 46.985 66.4027 45.8701 66.61C43.4101 67.09 40.9501 67.61 38.4901 67.88C35.1401 68.22 31.7901 68.33 28.4401 68.51C27.9361 68.4895 27.4345 68.4294 26.9401 68.33C25.1201 68.12 24.3701 65.89 24.3101 63.88C24.2601 62.15 24.4701 60.39 24.5801 58.65C24.5801 58.13 24.6901 57.65 24.7701 57.1C25.2301 54.04 26.4201 52.48 28.4001 52.38C29.2201 52.38 30.0301 52.38 30.9301 52.38C30.5901 51.38 30.2801 50.5 29.9301 49.61C29.2201 48 28.5901 46.42 28.0001 44.8C27.8701 44.47 27.7301 44.34 27.4701 44.41C26.0901 44.78 24.7101 45.13 23.3201 45.41C22.7001 45.56 22.0601 45.61 21.4401 45.73C21.2545 45.7507 21.0834 45.8398 20.9601 45.98C19.4501 47.98 17.9601 50.1 16.5101 52.06C16.9508 53.0178 17.3381 53.9993 17.6701 55C18.2003 57.3773 17.8448 59.8663 16.6701 62C14.5401 65.26 11.8701 65.75 9.36006 63.55C7.47006 61.9 6.68006 56.36 7.85006 53.48C8.01939 52.9188 8.3186 52.4054 8.72342 51.9815C9.12824 51.5576 9.62728 51.235 10.1801 51.04C10.4041 50.9837 10.6125 50.8778 10.7901 50.73C12.0101 49.66 13.2101 49.56 14.4001 50.86L18.1401 44.53C16.5501 42 16.2201 37.34 17.5801 34C18.1701 32.54 19.0501 31.7 20.1401 31.75C22.3301 31.84 24.5201 32.01 26.7101 32.22C27.8101 32.32 28.9001 32.57 30.0001 32.72C30.0747 32.7157 30.1468 32.6911 30.2085 32.6488C30.2702 32.6065 30.3192 32.5481 30.3501 32.48C31.5901 29.83 32.8201 27.16 34.0601 24.48C34.0601 24.41 34.1201 24.33 34.1701 24.18C34.0578 24.1564 33.9443 24.1397 33.8301 24.13C32.1501 24.22 30.4801 24.32 28.8301 24.4C28.4951 24.429 28.1577 24.4054 27.8301 24.33C27.1201 24.16 26.6601 23.48 26.4601 22.4C25.7742 18.8773 25.9874 15.2385 27.0801 11.82C27.2854 11.0229 27.6595 10.2792 28.1771 9.63916C28.6947 8.99911 29.3436 8.47764 30.0801 8.11C31.3589 7.52566 32.7361 7.18646 34.1401 7.11C38.2901 6.79 42.3701 7.73 46.4601 8.64C46.9282 8.83012 47.452 8.83012 47.9201 8.64C48.4901 8.33 49.0301 8.78 49.3201 9.59C50.2586 11.8922 50.9297 14.2946 51.3201 16.75C51.4523 17.7846 51.3981 18.8345 51.1601 19.85C51.0903 20.3417 50.9078 20.8105 50.6267 21.2199C50.3457 21.6293 49.9738 21.9682 49.5401 22.21C48.9607 22.4233 48.3698 22.6036 47.7701 22.75C47.6201 22.8 47.4601 22.83 47.2601 22.88C48.0411 25.0605 48.9976 27.1741 50.1201 29.2C50.4701 29.7041 50.876 30.1671 51.3301 30.58C51.4301 30.69 51.6001 30.67 51.7401 30.67H55.8701C56.2497 30.662 56.6219 30.7762 56.9316 30.9959C57.2413 31.2156 57.4721 31.5291 57.5901 31.89C58.1601 33.08 58.8601 34.12 59.4301 35.31C60.0272 36.6597 60.2082 38.1569 59.9501 39.61C59.9484 40.1284 59.8074 40.6368 59.5417 41.0819C59.276 41.527 58.8955 41.8925 58.4401 42.14L57.6201 42.49C57.9901 43.04 58.2901 43.49 58.6201 43.95C59.7101 45.52 60.8101 47.1 61.9201 48.65C61.9739 48.7211 62.0434 48.7789 62.1232 48.8188C62.2029 48.8587 62.2909 48.8796 62.3801 48.88C66.1401 48.96 69.8901 49.01 73.6401 49.09C73.9366 49.1202 74.2198 49.2287 74.4605 49.4044C74.7013 49.5802 74.8909 49.8168 75.0101 50.09C77.3101 53.81 76.4501 60.4 72.8601 62.09C71.6317 62.6667 70.3344 63.0834 69.0001 63.33C65.826 63.9713 62.5834 64.2065 59.3501 64.03C58.3555 63.9466 57.3711 63.7692 56.4101 63.5C55.7169 63.2349 55.131 62.7477 54.7439 62.1145C54.3568 61.4813 54.1902 60.7378 54.2701 60C54.3701 57.79 54.4401 55.58 54.6201 53.39C54.7601 51.72 55.4001 50.64 56.4801 50.3C57.3301 50 58.1801 49.67 58.9001 49.42ZM61.2201 60.64C62.9701 60.49 64.6001 60.44 66.2201 60.19C67.9852 59.9359 69.7321 59.5684 71.4501 59.09C73.1401 58.61 73.8201 57.44 74.0101 55.09C74.1101 53.88 73.62 52.24 72.4901 52.25C69.4901 52.25 66.5601 52.33 63.5901 52.39C63.5161 52.3975 63.4446 52.4211 63.3807 52.4591C63.3168 52.4971 63.262 52.5486 63.2201 52.61C62.6601 53.35 62.1001 53.42 61.4801 52.83C61.3301 52.69 61.1401 52.54 60.9801 52.58C59.7601 52.87 58.5501 53.21 57.3401 53.51C56.8901 53.62 56.7001 54.01 56.6701 54.68C56.6701 55.98 56.5301 57.28 56.5001 58.58C56.4701 59.88 56.5001 60.05 57.3801 60.19C58.7001 60.42 60.0001 60.52 61.2201 60.64ZM50.0601 34.24V34.12L45.3401 34.38C45.005 34.4193 44.6904 34.5616 44.4396 34.7873C44.1889 35.013 44.0143 35.3109 43.9401 35.64C43.6285 36.5475 43.4172 37.4865 43.3101 38.44C43.1901 39.37 43.5701 39.93 44.1701 39.93C46.7201 39.93 49.2701 40.05 51.8101 39.93C53.6476 39.7339 55.4712 39.4233 57.2701 39C57.8301 38.89 57.9501 38.46 57.7001 37.64C57.6394 37.4217 57.5556 37.2105 57.4501 37.01C57.0201 36.19 56.5301 35.44 56.1601 34.55C56.1054 34.3365 55.9718 34.1517 55.7862 34.0329C55.6006 33.9141 55.3768 33.8702 55.1601 33.91L50.0601 34.24ZM32.6201 36.54C31.9501 36.44 31.1601 36.3 30.3801 36.19C28.8501 35.98 27.3301 35.73 25.8001 35.59C23.9501 35.42 22.1101 35.35 20.2601 35.23C19.8301 35.23 19.5001 35.52 19.3501 36.16C19.0304 37.4677 18.9224 38.8181 19.0301 40.16C19.1401 41.39 19.4701 41.98 20.1601 42.04C20.969 42.1601 21.7912 42.1601 22.6001 42.04C24.9401 41.58 27.2734 41.0533 29.6001 40.46C30.7558 40.1227 31.891 39.7186 33.0001 39.25C33.3401 39.11 33.4501 38.49 33.2701 38.07C33.0901 37.65 32.8501 37.13 32.6201 36.54Z" fill="black"/>
</svg>
