<svg width="80" height="80" viewBox="0 0 80 80" fill="none" xmlns="http://www.w3.org/2000/svg">
<path d="M25.3599 35.88C25.2399 34.88 25.1799 33.94 24.9999 33C24.3425 29.028 23.9151 25.0213 23.7199 21C23.6599 20.11 23.5599 19.22 23.4899 18.33C23.4753 18.0871 23.5331 17.8454 23.6559 17.6353C23.7788 17.4253 23.9611 17.2564 24.1799 17.15L28.0499 14.71C31.0033 12.83 33.9499 10.94 36.8899 9.03999C37.1795 8.80104 37.5243 8.63834 37.8928 8.56673C38.2614 8.49512 38.642 8.51687 38.9999 8.62999C39.9999 8.96999 40.9999 9.19999 41.9999 9.49999C44.0699 10.11 46.1399 10.78 48.2199 11.36C51.2799 12.21 54.3599 13 57.4299 13.82C57.8203 13.8725 58.1748 14.0754 58.4176 14.3855C58.6605 14.6956 58.7726 15.0884 58.7299 15.48C58.7999 16.73 58.8899 17.99 59.0199 19.24C59.2599 21.38 59.5299 23.51 59.7899 25.65C60.1299 28.47 60.4633 31.29 60.7899 34.11C60.8608 34.416 60.8376 34.7363 60.7234 35.0289C60.6092 35.3215 60.4093 35.5728 60.1499 35.75C58.6162 36.8565 56.9326 37.7387 55.1499 38.37C54.6999 38.54 54.2699 38.74 53.7199 38.97C54.2199 39.11 54.5999 39.19 54.9699 39.33C55.5399 39.55 56.0999 39.81 56.6599 40.05C57.2199 40.29 57.5099 40.44 57.9599 40.58C58.1178 40.612 58.2669 40.6777 58.397 40.7726C58.5272 40.8675 58.6353 40.9893 58.7141 41.1298C58.7929 41.2703 58.8404 41.4261 58.8535 41.5866C58.8666 41.7471 58.8449 41.9086 58.7899 42.06C58.7647 42.2156 58.7647 42.3743 58.7899 42.53C58.8599 43.9 58.9399 45.28 59.0099 46.65C59.022 46.7964 59.022 46.9436 59.0099 47.09C60.0099 47.15 61.0099 47.29 61.9499 47.27C65.1399 47.21 68.2899 47.73 71.4599 47.98C71.9204 48.0815 72.3342 48.3329 72.6364 48.6949C72.9386 49.0568 73.1122 49.5088 73.1299 49.98C73.1299 50.5 73.1299 50.98 73.1299 51.56C73.1299 54.96 73.1899 58.35 73.2399 61.75C73.2662 62.1297 73.1998 62.5101 73.0465 62.8585C72.8932 63.2069 72.6576 63.5128 72.3599 63.75L65.9999 68.86C65.4584 69.4142 64.8385 69.8858 64.16 70.26C63.9004 70.4307 63.5866 70.4986 63.2797 70.4505C62.9729 70.4024 62.6949 70.2418 62.4999 70C62.3891 69.9114 62.2519 69.8621 62.1099 69.86C59.3899 69.57 56.6599 69.35 53.9399 68.99C51.2199 68.63 48.8299 68.15 46.2699 67.74C45.1299 67.55 43.9799 67.41 42.8299 67.26C42.6403 67.2477 42.4565 67.1893 42.2945 67.09C42.1324 66.9907 41.997 66.8534 41.8999 66.69C41.7299 66.42 41.5099 66.19 41.2699 65.88C40.1599 66.4 39.0199 66.88 37.9199 67.45C35.2185 68.7623 32.4162 69.8558 29.5399 70.72C28.6099 71.02 28.1699 70.81 27.6799 69.93C27.0199 70.26 26.4799 69.93 25.8799 69.63C24.3999 68.86 22.8799 68.2 21.3899 67.42C17.9999 65.64 14.5699 63.79 11.1499 62C10.9273 61.889 10.6755 61.8505 10.4299 61.89C10.2664 61.9333 10.0959 61.9436 9.9283 61.9201C9.76075 61.8966 9.59958 61.8399 9.45426 61.7532C9.30894 61.6666 9.18239 61.5518 9.08205 61.4156C8.98171 61.2794 8.9096 61.1245 8.86995 60.96C8.74203 60.2999 8.66182 59.6316 8.62995 58.96C8.43995 56.2 8.25995 53.43 8.07995 50.67C7.96995 49.02 7.86995 47.36 7.77995 45.67C7.77995 44.97 7.77995 44.26 7.71995 43.56C7.69182 43.1255 7.62828 42.6941 7.52995 42.27C7.46003 41.9747 7.50081 41.6641 7.64456 41.3968C7.7883 41.1296 8.02504 40.9244 8.30995 40.82C8.89995 40.6 9.50995 40.44 10.1099 40.27L24.9999 36L25.3599 35.88ZM27.3599 67.81C27.3599 67.11 27.2699 66.47 27.2399 65.81C27.0799 61.4433 26.9266 57.0767 26.7799 52.71C26.7945 52.583 26.7659 52.4548 26.6988 52.3459C26.6317 52.2371 26.53 52.154 26.4099 52.11C24.6199 51.27 22.8499 50.39 21.0699 49.52L10.3099 44.31C10.1699 44.24 10.0099 44.18 9.79995 44.1C9.79995 44.53 9.79995 44.88 9.86995 45.23C10.0299 46.98 10.2099 48.73 10.3399 50.48C10.5499 53.3 10.7199 56.13 10.8999 58.95C10.8999 59.28 11.0299 59.42 11.3699 59.41C11.6017 59.3864 11.8344 59.4444 12.0279 59.574C12.2214 59.7036 12.3636 59.8967 12.4299 60.12C12.5053 60.2729 12.633 60.3935 12.7899 60.46L26.8599 67.59C26.9999 67.67 27.1699 67.72 27.3899 67.81H27.3599ZM43.0499 40.16C43.0499 39.91 43.0499 39.73 42.9799 39.54C42.3999 34.54 41.8099 29.62 41.2399 24.66C41.2399 24.37 41.1299 24.21 40.7999 24.12C36.4199 22.94 32.0466 21.7467 27.6799 20.54C27.0299 20.36 26.4099 20.12 25.6799 19.85L27.5199 35.3C27.7963 35.2459 28.0823 35.2717 28.3444 35.3744C28.6066 35.4772 28.834 35.6525 28.9999 35.88C29.1035 35.9817 29.2364 36.0482 29.3799 36.07C33.0699 36.93 36.6799 38.07 40.2899 39.26L43.0499 40.16ZM53.9999 41.3V41.14L51.5299 40.73C51.3578 40.7231 51.1898 40.6751 51.0399 40.59C50.9405 40.5198 50.8217 40.4822 50.6999 40.4822C50.5782 40.4822 50.4594 40.5198 50.3599 40.59C48.9499 41.22 47.5499 41.83 46.1299 42.44C45.7246 42.6753 45.2754 42.825 44.8099 42.88C44.1343 42.8538 43.4636 42.7532 42.8099 42.58C41.9199 42.32 41.0799 41.88 40.1799 41.58C36.1799 40.32 32.0699 39.1 28.0099 37.84C27.6349 37.7274 27.235 37.7274 26.8599 37.84C24.2699 38.57 21.6799 39.31 19.0799 40.02C16.4799 40.73 14.0799 41.34 11.6099 42.02L11.0699 42.2L26.8299 49.85L27.9999 49.37L28.4599 49.24C31.6133 48.2267 34.7666 47.2267 37.9199 46.24C40.4599 45.45 43.0799 44.97 45.5599 43.95C47.4999 43.16 49.5599 42.62 51.5599 41.95C52.3699 41.72 53.1599 41.52 53.9999 41.3ZM43.2899 53.88V54.25C43.3899 56.62 43.4899 58.99 43.5599 61.36C43.5599 62.36 43.4999 63.36 43.5599 64.36C43.5599 65.13 43.7599 65.28 44.4099 65.36C46.1699 65.55 47.9199 65.85 49.6799 66.08C53.3599 66.5667 57.0466 67.0467 60.7399 67.52C60.9263 67.5352 61.1136 67.5352 61.2999 67.52V56.44H60.8099C59.6399 56.31 58.4799 56.2 57.3199 56.05C55.2399 55.78 53.1699 55.47 51.0999 55.2C49.5299 54.99 47.9599 54.83 46.3999 54.59C45.3599 54.39 44.3499 54.12 43.2899 53.88ZM26.9999 18.1L27.4399 18.25C31.9599 19.45 36.4899 20.64 41.0099 21.86C41.3101 21.9472 41.6256 21.9682 41.9346 21.9216C42.2436 21.8749 42.5389 21.7618 42.7999 21.59C43.6099 21.13 44.4299 20.68 45.2799 20.27C47.3899 19.27 49.5299 18.27 51.6499 17.2C52.7199 16.67 53.7499 16.06 54.8699 15.44C54.6599 15.37 54.5499 15.32 54.4299 15.29C53.0599 14.95 51.6999 14.61 50.3299 14.29C50.1263 14.2404 49.9136 14.2404 49.7099 14.29C49.4679 14.3976 49.1985 14.4275 48.9388 14.3756C48.6791 14.3236 48.4419 14.1924 48.2599 14C48.1395 13.8772 47.9871 13.7906 47.8199 13.75C45.5199 13.16 43.2299 12.56 40.9199 12.02C39.7799 11.75 38.5999 11.58 37.4399 11.4C37.2556 11.3852 37.0719 11.4346 36.9199 11.54L28.5299 17.1C27.9999 17.44 27.5199 17.75 26.9999 18.1ZM45.4099 52.05V52.24C46.9499 52.44 48.4799 52.65 50.0099 52.83C51.8399 53.04 53.6799 53.19 55.5099 53.42C57.0899 53.61 58.6599 53.91 60.2399 54.07C60.7499 54.13 61.3699 54.21 61.7299 53.57C61.8099 53.41 62.0899 53.36 62.2899 53.27C62.47 53.2205 62.647 53.1604 62.8199 53.09L67.9999 50.18C68.0899 50.18 68.16 50.05 68.3299 49.92C67.1799 49.81 66.1399 49.64 65.1099 49.64C61.2899 49.64 57.5099 49.2 53.7099 48.89C52.9999 48.89 52.2099 48.56 51.5699 49.21C51.5699 49.21 51.4699 49.21 51.4099 49.27C49.2499 49.87 47.4199 51.15 45.4099 52.05Z" fill="black"/>
</svg>
