<svg width="80" height="80" viewBox="0 0 80 80" fill="none" xmlns="http://www.w3.org/2000/svg">
<path d="M33.68 24.61L31.41 21.68C30.28 20.21 29.21 18.68 27.98 17.29C26.9468 16.0728 26.287 14.5831 26.08 13C25.6 10.4 25.01 7.82001 24.46 5.23001C24.384 4.88898 24.4025 4.53368 24.5135 4.20239C24.6246 3.8711 24.8239 3.57639 25.09 3.35001C25.3033 3.16428 25.581 3.06967 25.8634 3.08649C26.1457 3.10332 26.4102 3.23025 26.6 3.44001C27.55 4.23001 28.49 5.05001 29.42 5.85001L35.48 11.05C35.8929 11.3438 36.1788 11.7835 36.28 12.28C36.3383 12.4559 36.43 12.6189 36.55 12.76C38.3 15.07 40.05 17.37 41.79 19.69C41.8673 19.8192 41.9799 19.9236 42.1146 19.9909C42.2492 20.0582 42.4003 20.0857 42.55 20.07C43.2733 20.0383 43.9836 20.2691 44.55 20.72C45.4341 21.3225 46.1721 22.1152 46.71 23.04C46.7648 23.1157 46.835 23.1789 46.916 23.2255C46.997 23.272 47.087 23.3008 47.18 23.31C50.12 23.8 53.06 24.31 56 24.74L68.06 26.7C70.56 27.1 73.06 27.54 75.55 27.86C75.8077 27.8745 76.0594 27.9434 76.2886 28.0621C76.5178 28.1809 76.7193 28.3467 76.8799 28.5488C77.0404 28.7509 77.1564 28.9847 77.2202 29.2348C77.284 29.4849 77.2941 29.7457 77.25 30C77.1789 31.7345 76.7535 33.4361 76 35C75.8057 35.3261 75.5255 35.5925 75.19 35.77C74.3405 36.2465 73.6698 36.9874 73.28 37.88C72.0664 40.416 71.4278 43.1887 71.41 46C71.41 46.22 71.41 46.44 71.41 46.77L72.87 45.77L73.44 45.38C73.91 45.02 74.44 44.76 74.95 45.13C75.2643 45.304 75.5208 45.5662 75.6879 45.8843C75.8549 46.2024 75.9252 46.5625 75.89 46.92C75.69 48.55 75.5 50.18 75.28 51.81C75.2528 52.0832 75.1253 52.3367 74.9221 52.5214C74.719 52.706 74.4546 52.8089 74.18 52.81C74.0367 52.8146 73.8964 52.8522 73.77 52.92C72.28 53.98 70.77 55.05 69.3 56.14C69.4 56.29 69.47 56.41 69.56 56.53C69.9162 56.9661 70.2499 57.42 70.56 57.89C71.4161 59.0279 72.3553 60.1009 73.37 61.1C73.81 61.65 74.24 62.21 74.68 62.75C74.8019 62.907 74.943 63.0481 75.1 63.17C75.6136 63.5505 75.9838 64.0932 76.1507 64.7102C76.3177 65.3272 76.2716 65.9824 76.02 66.57C75.8645 66.9644 75.6596 67.3374 75.41 67.68C74.506 68.8832 73.3398 69.8647 72 70.55C71.563 70.7417 71.0892 70.8348 70.6122 70.8227C70.1352 70.8106 69.6667 70.6936 69.24 70.48C69.045 70.3859 68.8792 70.2407 68.76 70.06C67.56 68.56 66.36 67.06 65.19 65.53C64.19 64.3 63.34 63.03 62.41 61.78L62.08 61.37L59.62 63.13L44.52 74C44.3148 74.1783 44.0656 74.2984 43.7982 74.3476C43.5309 74.3969 43.2552 74.3735 43 74.28C42.4663 74.2057 41.9287 74.1623 41.39 74.15C35.8068 72.9673 30.339 71.2941 25.05 69.15C22.68 68.15 20.33 67.15 17.96 66.15C17.0712 65.7602 16.2765 65.1838 15.63 64.46C15.14 63.93 14.63 63.46 14.14 62.92C13.9192 62.6327 13.6001 62.437 13.2439 62.3706C12.8877 62.3041 12.5195 62.3716 12.21 62.56C11.5855 62.963 10.8336 63.1198 10.1 63C9.49432 62.8653 8.94148 62.5559 8.51 62.11C6.64734 60.2628 5.2024 58.0376 4.2726 55.5846C3.34281 53.1316 2.94977 50.5078 3.12 47.89C3.13317 46.2667 3.4678 44.6621 4.10458 43.1688C4.74136 41.6756 5.66766 40.3233 6.83 39.19C7.03785 38.9756 7.26553 38.7814 7.51 38.61C9.48032 37.2172 11.5416 35.9577 13.68 34.84C20.17 31.59 26.62 28.24 33.08 24.93C33.27 24.84 33.45 24.74 33.68 24.61ZM49.24 44.78C49.1891 44.6897 49.1323 44.6028 49.07 44.52C44.5367 38.66 40.01 32.7967 35.49 26.93C35.24 26.6 35.04 26.62 34.72 26.79L14.86 37L13 37.9C14.085 38.6099 14.8962 39.6679 15.3 40.9C15.3468 41.0862 15.4461 41.2549 15.5862 41.3861C15.7263 41.5174 15.9012 41.6055 16.09 41.64C24.4 44.05 32.67 46.47 40.92 49C41.3151 49.1475 41.7416 49.191 42.1584 49.1262C42.5752 49.0614 42.9683 48.8905 43.3 48.63C45.24 47.31 47.23 46.08 49.24 44.78ZM12.84 45.13H12.68C12.53 46.13 12.36 47.21 12.26 48.26C12.11 49.91 12.01 51.57 11.9 53.26C11.9 53.51 11.96 53.77 11.9 54.02C11.9139 54.5523 11.877 55.0847 11.79 55.61C11.7 56.07 11.79 56.33 12.24 56.37C12.4983 56.3766 12.7542 56.4204 13 56.5C14.9291 57.2156 16.5864 58.5163 17.74 60.22C17.9079 60.477 18.1479 60.6788 18.43 60.8C19.43 61.18 20.36 61.53 21.34 61.86C24.97 63.08 28.6 64.3 32.24 65.49C33.69 65.97 35.16 66.39 36.69 66.85C36.64 66.57 36.59 66.33 36.56 66.08C36.545 65.9571 36.545 65.8329 36.56 65.71C36.56 65.37 36.68 65.04 36.69 64.71C36.5348 62.972 36.6768 61.2203 37.11 59.53C37.5438 58.1011 38.1376 56.7257 38.88 55.43C38.7988 55.3915 38.7153 55.3581 38.63 55.33C32.63 53.33 26.73 51.27 20.79 49.21C18.52 48.43 16.26 47.59 14 46.75C13.8105 46.651 13.6516 46.5024 13.54 46.32C13.32 45.92 13.09 45.52 12.84 45.13ZM38.84 67.59C39.84 67.83 40.7 68.22 41.84 67.44C46.3 64.19 50.84 61.1 55.39 57.95L58 56.1L53.13 49.79L52.91 49.91C49.51 52.07 46.11 54.22 42.72 56.4C42.4641 56.6405 42.1262 56.7743 41.775 56.7743C41.4238 56.7743 41.0859 56.6405 40.83 56.4C40.65 56.67 40.47 56.91 40.31 57.16C39.7308 58.0706 39.3493 59.0926 39.19 60.16C38.8727 61.6621 38.8085 63.2067 39 64.73C39.2163 65.6775 39.1713 66.666 38.87 67.59H38.84ZM72.28 30V29.88L46.28 25.75L57 39.8L72.28 30ZM41.05 53.55C41.05 53.01 41.1 52.55 41.15 52.12C41.1705 52.0396 41.1738 51.9558 41.1597 51.874C41.1456 51.7923 41.1144 51.7144 41.0681 51.6455C41.0219 51.5766 40.9616 51.5182 40.8913 51.4742C40.821 51.4302 40.7422 51.4015 40.66 51.39C39.32 51.02 37.99 50.61 36.66 50.22L15.16 43.84C14.87 43.7953 14.6016 43.6599 14.3933 43.4534C14.1849 43.2468 14.0472 42.9796 14 42.69C13.9738 42.6136 13.9291 42.5449 13.87 42.49C13.6381 42.1689 13.4244 41.8351 13.23 41.49C12.9725 40.7793 12.4781 40.179 11.83 39.79C11.5288 39.6119 11.1774 39.5381 10.83 39.58C9.86096 39.8387 8.9777 40.3493 8.27 41.06C6.53183 42.7912 5.51662 45.1183 5.43 47.57C5.21447 49.8985 5.51196 52.2459 6.30153 54.447C7.09109 56.6481 8.35354 58.6494 10 60.31C10.0759 60.4225 10.1738 60.5183 10.2879 60.5917C10.4019 60.6651 10.5297 60.7145 10.6635 60.737C10.7972 60.7594 10.9342 60.7544 11.066 60.7223C11.1977 60.6901 11.3216 60.6315 11.43 60.55C12.0119 60.1989 12.6909 60.0435 13.3676 60.1065C14.0442 60.1695 14.6829 60.4476 15.19 60.9H15.29C14.648 60.0599 13.8241 59.3761 12.88 58.9C12.6492 58.7523 12.3905 58.6536 12.12 58.61C11.3386 58.5266 10.5819 58.2871 9.89483 57.9057C9.20773 57.5244 8.60419 57.0089 8.12 56.39C6.49 54.57 6.31 52.23 6.28 49.87C6.32154 48.4791 6.56405 47.1015 7 45.78C7.21989 44.9808 7.51452 44.204 7.88 43.46C8.05232 43.0924 8.2994 42.7648 8.60547 42.4981C8.91154 42.2313 9.26986 42.0314 9.65756 41.9109C10.0453 41.7905 10.4538 41.7522 10.8571 41.7985C11.2605 41.8448 11.6497 41.9748 12 42.18C12.7263 42.6572 13.3972 43.214 14 43.84C14.4145 44.3386 14.9794 44.6894 15.61 44.84C16.4967 45.0773 17.3683 45.3678 18.22 45.71L38 52.53L41.05 53.55ZM65.37 51C66.5 50.22 67.54 49.48 68.6 48.76C69.17 48.38 69.83 48.07 69.34 47.14C69.34 45.47 69.42 43.79 69.51 42.14C69.51 41.14 69.71 40.24 69.82 39.3C69.16 39.3 68.82 39.76 68.33 40.09C66.92 41.09 65.45 41.98 64 42.9C63.17 43.42 62.35 43.96 61.48 44.41C60.84 44.75 60.7 45.1 61.12 45.72C61.27 45.94 61.45 46.13 61.62 46.34C62.05 46.87 62.49 47.39 62.92 47.93L65.37 51ZM59.49 58L54.91 61.19L43.85 68.89C43.68 69.01 43.46 69.19 43.45 69.36C43.37 70.18 43.36 71 43.32 71.83H43.47L60.64 59.47L59.49 58ZM75 31.18L74.9 31.1L58.41 41.7L59.41 42.95L59.7 42.8L74.1 33.63C74.2517 33.5303 74.3701 33.3875 74.44 33.22C74.6 32.55 74.79 31.86 75 31.18ZM17.5 63C18.93 64.78 37.08 71.29 41.19 71.56V70.71C33.24 68.41 25.37 66 17.5 63ZM32.86 12L29.76 9.34001C29.7152 9.30093 29.6626 9.27182 29.6057 9.25458C29.5488 9.23734 29.4889 9.23237 29.43 9.24001C28.89 9.44001 28.36 9.67001 27.78 9.90001C28.07 11.28 28.36 12.66 28.66 14.04C28.6822 14.1188 28.7234 14.1909 28.78 14.25C29.5588 15.0498 30.4772 15.7005 31.49 16.17C31.86 16.33 32.08 16.17 32.12 15.84C32.2279 15.1553 32.2814 14.4631 32.28 13.77C32.26 13.07 32.21 12.44 32.86 12ZM70 60.17L68.68 61C67.857 61.4824 67.209 62.2145 66.83 63.09C66.7734 63.2017 66.7508 63.3276 66.765 63.452C66.7792 63.5764 66.8296 63.694 66.91 63.79C67.3 64.29 67.64 64.79 68.01 65.34C68.38 65.89 68.57 66.06 68.87 66.45C69.714 65.1759 70.8353 64.1093 72.15 63.33L70 60.17ZM51.67 47.88C51.41 47.54 51.17 47.26 50.95 46.94C50.73 46.62 50.63 46.7 50.4 46.85C48.13 48.32 45.86 49.77 43.6 51.24C43.48 51.32 43.32 51.47 43.31 51.6C43.23 52.12 43.21 52.6 43.15 53.3L51.67 47.88ZM67.89 54.24L73.06 50.51C73.15 50.44 73.27 50.36 73.29 50.26C73.41 49.61 73.51 48.95 73.64 48.15L66.86 52.87L67.89 54.24ZM70.56 68.53C70.77 68.53 70.98 68.59 71.11 68.53C72.2343 67.9522 73.1785 67.0772 73.84 66C73.8918 65.8215 73.9121 65.6354 73.9 65.45C73.72 65.45 73.49 65.37 73.35 65.45C72.7011 65.7485 72.1194 66.1752 71.6399 66.7046C71.1604 67.2339 70.793 67.8549 70.56 68.53Z" fill="black"/>
</svg>
