<?xml version="1.0" encoding="utf-8"?>
<!-- Generator: Adobe Illustrator 24.3.0, SVG Export Plug-In . SVG Version: 6.00 Build 0)  -->
<svg version="1.1" id="Layer_1" xmlns="http://www.w3.org/2000/svg" xmlns:xlink="http://www.w3.org/1999/xlink" x="0px" y="0px"
	 viewBox="0 0 80 80" style="enable-background:new 0 0 80 80;" xml:space="preserve">
<path d="M33.7,24.6l-2.3-2.9c-1.8-2.8-4.9-5.1-5.3-8.7c-0.5-2.6-1.1-5.2-1.6-7.8c-0.2-0.7,0.1-1.4,0.6-1.9C25.5,3,26.2,3,26.6,3.4
	c0.9,0.8,1.9,1.6,2.8,2.4c0,0,6.1,5.2,6.1,5.2c0.4,0.3,0.7,0.7,0.8,1.2c1.7,2.6,3.7,4.9,5.5,7.4c0.2,0.3,0.5,0.4,0.8,0.4
	c2-0.1,3.3,1.8,4.4,3.2c5.6,1.1,15.4,2.5,21.1,3.5c2.7,0.5,5.5,0.7,8.2,1.4c0.7,0.3,1.1,1.2,1,1.9c-0.1,1.7-0.5,3.4-1.2,5
	c-0.2,0.3-0.5,0.6-0.8,0.8c-0.8,0.5-1.5,1.2-1.9,2.1c-1.3,2.8-1.9,5.8-1.9,8.9c0.4-0.3,1.6-1.1,2-1.4c1.1-1.1,2.6,0.2,2.4,1.5
	c-0.2,1.6-0.4,3.3-0.6,4.9c0,0.3-0.2,0.5-0.4,0.7c-0.3,0.3-0.8,0.2-1.2,0.4c-1.5,1.1-3,2.1-4.5,3.2c1.5,2.4,3.6,4.4,5.4,6.6
	c1.7,1.3,2.1,3.1,0.7,4.9c-1.4,1.8-4.5,4.5-6.6,2.4c-2.3-2.8-4.5-5.8-6.7-8.7C61,62.1,46.1,72.9,44.5,74c-0.9,0.8-2.1,0-3.1,0.2
	c-5.6-1.2-11.1-2.9-16.3-5c-2.4-1-4.7-2-7.1-3c-1.6-0.7-2.6-2-3.8-3.2c-0.4-0.6-1.3-0.8-1.9-0.4c-3.6,2.3-6.8-4.3-7.9-7
	c-1.4-3.9-1.8-8.5-0.2-12.4c1.6-4.2,5.9-6.3,9.6-8.3C20.4,31.5,27,28.1,33.7,24.6z M49.2,44.8c-4.5-6-9.2-11.9-13.7-17.9
	c-0.3-0.3-0.5-0.3-0.8-0.1L14.9,37L13,37.9c1.1,0.7,1.9,1.8,2.3,3c0.1,0.4,0.4,0.7,0.8,0.7c8.3,2.4,16.6,4.8,24.8,7.4
	c0.8,0.3,1.7,0.2,2.4-0.4C45.2,47.3,47.2,46.1,49.2,44.8z M12.8,45.1h-0.2c-0.6,3.4-0.6,7-0.9,10.5c-0.1,0.5,0,0.7,0.4,0.8
	c2.3,0.3,4.2,2,5.5,3.8c0.2,0.3,0.4,0.5,0.7,0.6c6.1,2.2,12.1,4.2,18.3,6c-0.2-0.7-0.1-1.4,0-2.1c-0.3-3.2,0.5-6.5,2.2-9.3
	c-6.1-2.1-12.1-4.1-18.1-6.2c-2.3-0.8-4.5-1.6-6.8-2.5C13.4,46.4,13.2,45.7,12.8,45.1z M38.8,67.6c1,0.2,1.9,0.6,3-0.1
	c5.3-3.9,10.8-7.5,16.2-11.3l-4.9-6.3c-3.5,2.2-6.9,4.4-10.4,6.6c-0.5,0.5-1.4,0.5-1.9,0c-1.8,2.3-2.1,5.5-1.8,8.3
	C39.2,65.7,39.2,66.7,38.8,67.6L38.8,67.6z M72.3,30v-0.1l-26-4.1l10.7,14L72.3,30z M41,53.5c-0.1-0.7,0.3-1.3,0-1.9
	c-1.1-0.7-3.1-0.9-4.4-1.4c0,0-21.5-6.4-21.5-6.4c-0.6-0.1-1.1-0.6-1.2-1.2c-0.8-1-1-2.3-2.2-2.9c-1.2-0.7-2.6,0.5-3.6,1.3
	c-1.7,1.7-2.8,4.1-2.8,6.5C5,52.3,6.8,57.9,10.7,60.7c0.3,0,0.6,0,0.8-0.2c1.3-0.8,2.7-0.4,3.9,0.4c-0.8-1-1.9-1.9-3.2-2.3
	c-0.8-0.1-1.5-0.3-2.2-0.7c-2.9-1.6-3.7-4.9-3.6-8c0.2-2.7,0.9-8.4,4.6-8.1c2,0.2,2.9,2.5,4.8,3C19.7,46.1,37,52.3,41,53.5z
	 M65.4,51c1.1-0.8,2.2-1.5,3.2-2.2c0.6-0.4,1.2-0.7,0.7-1.6c0-2.6,0.1-5.3,0.5-7.8c-0.7,0-1,0.5-1.5,0.8c-1.4,1-2.9,1.9-4.3,2.8
	c-0.8,0.5-1.7,1.1-2.5,1.5c-0.6,0.3-0.8,0.7-0.4,1.3C62.2,47.1,64.2,49.6,65.4,51z M59.5,58c-3,2.1-12.5,8.7-15.6,10.9
	c-0.2,0.1-0.4,0.3-0.4,0.5c-0.1,0.8-0.1,1.6-0.1,2.5c0.2,0.2,17.2-12.4,17.3-12.4L59.5,58z M75,31.2L75,31.2L58.4,41.7l1,1.2
	c0,0,0.3-0.2,0.3-0.2l14.4-9.2C74.7,33,74.6,32,75,31.2z M17.5,63c1.4,1.8,19.6,8.3,23.7,8.6v-0.8C33.2,68.4,25.4,66,17.5,63z
	 M32.9,12l-3.1-2.7c-0.6-0.3-1.3,0.4-2,0.6c0.4,1.4,0.5,3,1,4.4c0.8,0.8,1.7,1.5,2.7,1.9c0.4,0.2,0.6,0,0.6-0.3
	c0.1-0.7,0.2-1.4,0.2-2.1C32.3,13.1,32.2,12.4,32.9,12z M70,60.2c-1.2,0.8-3,1.7-3.2,3.3c0.5,1,1.4,2.1,2.1,3c0.8-1.3,2-2.3,3.3-3.1
	L70,60.2z M51.7,47.9c-0.3-0.3-0.5-0.6-0.7-0.9c-0.2-0.3-0.3-0.2-0.5-0.1c-2.3,1.5-4.5,2.9-6.8,4.4c-0.1,0.1-0.3,0.2-0.3,0.4
	c-0.1,0.5-0.1,1-0.2,1.7L51.7,47.9z M67.9,54.2l5.2-3.7c0.1-0.1,0.2-0.1,0.2-0.2c0.1-0.6,0.2-1.3,0.3-2.1l-6.8,4.7L67.9,54.2z
	 M70.6,68.5c0.2,0,0.4,0.1,0.6,0c1.1-0.7,2.7-1.7,2.8-3.1c-0.2,0-0.4-0.1-0.6,0C72.1,66,71,67.2,70.6,68.5z"/>
</svg>
