<svg width="80" height="80" viewBox="0 0 80 80" fill="none" xmlns="http://www.w3.org/2000/svg">
<path d="M23.26 42.66C22.82 42.01 22.34 41.34 21.91 40.66C19.7259 37.2479 18.705 33.2205 19 29.18C19.133 25.8075 20.2178 22.5416 22.129 19.7597C24.0401 16.9779 26.6997 14.7938 29.8 13.46C31.6594 12.5998 33.6574 12.0783 35.7 11.92C35.99 11.92 36.09 11.78 36.2 11.51C36.8667 9.91 37.5333 8.32 38.2 6.74C38.2926 6.4608 38.4537 6.20925 38.6685 6.00836C38.8834 5.80747 39.1452 5.66363 39.43 5.59C39.5136 5.54911 39.5781 5.47743 39.61 5.39C39.6798 5.22722 39.7915 5.0859 39.9339 4.98048C40.0762 4.87506 40.2439 4.80932 40.42 4.79C41.0008 4.61501 41.6273 4.67655 42.1629 4.96124C42.6986 5.24592 43.1001 5.73069 43.28 6.31C43.4996 6.91815 43.6309 7.55461 43.67 8.2C43.67 8.9 43.25 9.3 42.54 9.33C42.4279 9.34751 42.3272 9.40861 42.26 9.5L41 12.12C45.9573 13.015 50.4208 15.6802 53.56 19.62C56.741 23.5037 58.328 28.4506 58 33.46C58.87 33.67 59.72 33.87 60.57 34.09C62.982 34.6298 65.3289 35.4277 67.57 36.47C69.5517 37.4632 71.2664 38.9172 72.57 40.71C73.3711 41.8808 73.7259 43.3 73.57 44.71C73.57 45.6 73.57 46.5 73.57 47.39C73.44 48.8 73.23 50.2 73.07 51.61C73.0653 51.7754 73.0855 51.9406 73.13 52.1C73.23 52.3635 73.2939 52.6394 73.32 52.92C73.277 54.2026 73.1129 55.4783 72.83 56.73C72.531 57.7649 71.8848 58.6654 71 59.28C69.6114 60.3898 67.8876 60.9961 66.11 61C64.999 61.0003 63.8895 61.0805 62.79 61.24C62.2182 61.3426 61.6608 61.5138 61.13 61.75C57.2747 63.3466 53.5895 65.3266 50.13 67.66C47.79 69.23 45.4 70.72 42.99 72.18C41.99 72.76 40.99 73.18 39.99 73.66C39.75 73.78 39.54 73.96 39.31 74.1C39.1055 74.2497 38.8797 74.3677 38.64 74.45C35.3077 75.2798 31.8656 75.5801 28.44 75.34C26.8693 75.157 25.3125 74.8697 23.78 74.48C21.22 73.89 18.66 73.3 16.14 72.58C14.6186 72.0932 13.1291 71.5121 11.68 70.84C11.0888 70.5491 10.5786 70.1166 10.1948 69.581C9.81104 69.0454 9.56548 68.4233 9.48 67.77C9.21 66.56 9.08 65.32 8.91 64.09C8.79 63.2 8.68 62.31 8.61 61.42C8.56 60.87 8.61 60.31 8.61 59.76C8.61 57.82 8.61 55.89 8.61 53.95C8.61 53.32 8.79 52.7 8.86 52.08C8.93 51.46 8.96 50.86 9.02 50.26C9.02416 49.9594 9.11509 49.6664 9.28185 49.4162C9.44862 49.1661 9.68411 48.9695 9.96 48.85C10.72 48.5 11.47 48.12 12.22 47.76C15.06 46.4 17.88 45.03 20.72 43.69C21.49 43.32 22.38 43 23.26 42.66ZM35.52 13.88C35.05 13.95 34.62 14 34.21 14.08C31.9782 14.4755 29.856 15.3406 27.9837 16.618C26.1115 17.8955 24.5321 19.5561 23.35 21.49C21.8979 23.7821 21.0357 26.3979 20.8402 29.1042C20.6448 31.8105 21.1223 34.5231 22.23 37C23.8281 40.9326 26.7253 44.199 30.439 46.2551C34.1528 48.3112 38.4588 49.0329 42.64 48.3C44.9001 47.9445 47.0554 47.0999 48.9553 45.8252C50.8552 44.5505 52.454 42.8765 53.64 40.92C55.186 38.5064 56.0741 35.7305 56.2161 32.8678C56.3582 30.005 55.7494 27.1548 54.45 24.6C53.2567 21.9651 51.4583 19.649 49.2011 17.8401C46.9439 16.0312 44.2916 14.7806 41.46 14.19C41.13 14.11 40.79 14.07 40.46 14.01C40.0443 15.3661 39.8617 16.7828 39.92 18.2C40.73 17.97 41.5 17.76 42.26 17.53C42.4032 17.4655 42.5608 17.4401 42.717 17.4562C42.8732 17.4724 43.0223 17.5296 43.1493 17.622C43.2762 17.7144 43.3765 17.8387 43.4398 17.9824C43.5032 18.1261 43.5274 18.284 43.51 18.44C43.4915 18.6749 43.3994 18.898 43.2468 19.0775C43.0942 19.2571 42.8889 19.3839 42.66 19.44C41.4426 19.9049 40.153 20.152 38.85 20.17C37.42 20.12 35.99 20 34.56 19.84C33.7026 19.771 32.8768 19.4854 32.16 19.01C32.0441 18.9406 31.9434 18.8484 31.8641 18.739C31.7848 18.6295 31.7285 18.5052 31.6986 18.3734C31.6687 18.2416 31.6658 18.1052 31.6901 17.9722C31.7144 17.8393 31.7654 17.7127 31.84 17.6C32.0363 17.3905 32.3055 17.2644 32.592 17.2476C32.8786 17.2309 33.1607 17.3248 33.38 17.51C33.761 17.8516 34.2585 18.0341 34.77 18.02C34.7703 17.7924 34.787 17.5652 34.82 17.34C34.92 16.89 35.07 16.44 35.16 15.99C35.29 15.3 35.39 14.63 35.52 13.88ZM11 54.56C11 54.56 11 54.68 11 54.76C10.93 56.2 10.86 57.65 10.81 59.1C10.807 59.283 10.871 59.4609 10.99 59.6C11.713 60.4114 12.6035 61.0563 13.6 61.49C14.67 61.97 15.77 62.41 16.81 62.95C18.8992 64.1035 21.1367 64.9648 23.46 65.51C23.97 65.61 24.51 65.51 25.02 65.64C25.53 65.77 26.02 65.96 26.55 66.05C27.08 66.14 27.72 66.15 28.3 66.22C28.88 66.29 29.3 66.41 29.78 66.44C31.31 66.52 32.84 66.59 34.37 66.61C35.23 66.61 36.09 66.5 36.91 66.44L37.28 62.51H37.15C35.15 62.19 33.15 61.87 31.15 61.51C30.71 61.44 30.28 61.26 29.83 61.19C29.14 61.09 28.43 61.09 27.75 60.96C27.07 60.83 26.28 60.54 25.54 60.33L23.32 59.74C22.94 59.63 22.57 59.49 22.19 59.4C19.2678 58.6916 16.4458 57.62 13.79 56.21C12.77 55.7 11.88 55.11 11 54.56ZM10.81 62.42C10.81 62.65 10.81 62.79 10.81 62.92C10.93 63.83 11.03 64.75 11.2 65.65C11.3433 66.4467 11.5438 67.2321 11.8 68C11.9249 68.4055 12.1818 68.7575 12.53 69C13.3661 69.4316 14.2484 69.7671 15.16 70C18.04 70.78 20.93 71.48 23.81 72.21C25.5713 72.7571 27.397 73.0698 29.24 73.14C31.05 73.14 32.87 73.04 34.68 72.92C35.4414 72.8186 36.1961 72.6717 36.94 72.48V69C35.94 69 35.04 69 34.13 69C32.52 69 30.91 68.86 29.3 68.78C25.3533 68.5306 21.4582 67.7502 17.72 66.46C15.3623 65.7562 13.1808 64.5598 11.32 62.95L10.81 62.42ZM40 66C40.1151 65.9459 40.2254 65.8823 40.33 65.81L45.84 62.21L50.44 59.21C50.73 59.02 50.94 58.71 51.23 58.53C52.7633 57.59 54.2967 56.67 55.83 55.77C57.8563 54.4589 60.0722 53.4673 62.4 52.83C62.5 52.83 62.62 52.62 62.64 52.5C62.75 51.64 62.83 50.78 62.94 49.91C63.02 49.22 63.12 48.53 63.22 47.8C62.9499 47.8183 62.6838 47.8756 62.43 47.97C61.16 48.71 59.89 49.46 58.64 50.24C57.71 50.82 56.81 51.45 55.9 52.06C53.4518 53.7327 50.8963 55.2426 48.25 56.58C47.07 57.18 45.89 57.8 44.73 58.45C43.23 59.29 41.73 60.17 40.27 61.04C40.0768 61.1373 39.9173 61.2903 39.8121 61.4793C39.7069 61.6683 39.6609 61.8845 39.68 62.1C39.73 62.9126 39.73 63.7274 39.68 64.54C39.6222 64.7919 39.621 65.0534 39.6763 65.3059C39.7316 65.5583 39.8422 65.7954 40 66ZM39.12 71.93C39.57 71.71 39.9 71.58 40.19 71.4C42.19 70.1933 44.16 68.98 46.1 67.76C49.03 65.93 51.83 63.9 54.93 62.34C57.1709 61.115 59.5129 60.0845 61.93 59.26C61.9835 59.2317 62.0301 59.1919 62.0664 59.1435C62.1027 59.0951 62.1278 59.0393 62.14 58.98C62.23 58.29 62.3 57.59 62.38 56.89C62.46 56.19 62.52 55.68 62.61 55.02C62.3031 55.085 62.002 55.1753 61.71 55.29C59.46 56.4 57.17 57.5 55 58.76C53.63 59.55 52.45 60.65 51.11 61.49C47.3163 64.0759 43.38 66.4463 39.32 68.59C39.2674 68.623 39.2223 68.6669 39.1879 68.7186C39.1534 68.7703 39.1303 68.8287 39.12 68.89C39.1 69.85 39.1 70.81 39.1 71.88L39.12 71.93ZM65.12 52.65C65.5004 52.6609 65.8773 52.7249 66.24 52.84C66.948 53.1211 67.7207 53.1973 68.47 53.06C69.0556 52.9862 69.632 52.8521 70.19 52.66C70.4076 52.6031 70.6022 52.4803 70.7472 52.3084C70.8922 52.1365 70.9805 51.924 71 51.7C71.15 50.85 71.34 50 71.46 49.14C71.58 48.28 71.59 47.62 71.65 46.77C70.6997 47.3284 69.6377 47.6699 68.54 47.77C67.4689 47.95 66.3737 47.9296 65.31 47.71C65.3055 47.7599 65.3055 47.8101 65.31 47.86C65.2 48.94 65.09 50.02 64.99 51.1C64.9691 51.1752 64.9691 51.2548 64.99 51.33C65.129 51.5076 65.2166 51.72 65.243 51.944C65.2695 52.168 65.2338 52.3949 65.14 52.6L65.12 52.65ZM64.66 54.85L64.32 58.97C64.8774 58.8998 65.4382 58.8597 66 58.85C67.159 58.8495 68.2912 58.5011 69.25 57.85C70.63 57.06 70.81 55.75 71 54.33C68.92 55.3 66.82 54.88 64.68 54.8L64.66 54.85ZM38 18.2C38.0121 14.8781 38.9356 11.6232 40.67 8.79L39.78 7.68C38.1677 10.9784 37.1713 14.5436 36.84 18.2H38Z" fill="black"/>
</svg>
