<svg width="80" height="80" viewBox="0 0 80 80" fill="none" xmlns="http://www.w3.org/2000/svg">
<path d="M24.85 18.18C24.58 16.59 24.27 15.08 24.07 13.54C23.9546 12.4471 23.8946 11.349 23.89 10.25C23.8885 10.0514 23.96 9.85922 24.0909 9.70989C24.2218 9.56055 24.4029 9.46451 24.6 9.44C25.31 9.26 26.02 9.08 26.74 8.96C29.14 8.55 31.54 8.1 33.95 7.8C35.95 7.55 38.01 7.49 40.05 7.36L48.17 6.86C48.5 6.86 48.82 6.77 49.17 6.74C49.3356 6.70993 49.5063 6.72588 49.6635 6.7861C49.8207 6.84632 49.9583 6.94851 50.0615 7.08155C50.1646 7.21458 50.2292 7.37336 50.2484 7.54059C50.2675 7.70783 50.2404 7.87711 50.17 8.03C49.8547 9.28071 49.7333 10.5724 49.81 11.86C49.81 13.03 49.72 14.22 49.66 15.4C49.66 16.27 49.58 17.14 49.54 18.07H50L62.27 18C62.6131 18.0183 62.9509 18.0926 63.27 18.22C63.4392 18.2801 63.583 18.396 63.6775 18.5487C63.772 18.7014 63.8117 18.8817 63.79 19.06C63.7827 19.239 63.8279 19.4163 63.92 19.57C65.236 21.4307 66.0583 23.5949 66.31 25.86C66.798 28.9859 67.0322 32.1463 67.01 35.31C66.9986 35.4667 67.031 35.6235 67.1033 35.763C67.1757 35.9024 67.2853 36.0191 67.42 36.1C71.2127 38.6846 74.1066 42.3859 75.7 46.69C76.3051 48.2281 76.741 49.8275 77 51.46C77 51.54 77 51.65 77 51.69C77.45 52.17 77.34 52.75 77.31 53.36C77.31 54.5 77.31 55.65 77.24 56.79C77.2235 57.3368 77.1667 57.8816 77.07 58.42C76.9883 58.7296 76.8778 59.0309 76.74 59.32C76.6879 59.4366 76.6444 59.557 76.61 59.68C76.0098 62.356 74.841 64.8715 73.1828 67.0559C71.5247 69.2403 69.4161 71.0424 67 72.34C64.1315 73.9247 60.8711 74.6601 57.6 74.46C51.11 74.08 45.72 71.11 41.6 65.37C41.5425 65.2879 41.4637 65.2231 41.372 65.1826C41.2804 65.1421 41.1794 65.1273 41.08 65.14L23.35 65.29C19.49 65.33 15.63 65.3567 11.77 65.37C11.5005 65.3853 11.2334 65.3115 11.01 65.16C10.8328 64.9354 10.7127 64.6712 10.66 64.39C10.58 64.15 10.59 63.88 10.5 63.65C9.87 61.84 9.18 60.07 8.59 58.25C7.9 56.09 7.2 53.92 6.69 51.7C5.88678 48.4569 5.35824 45.1519 5.11 41.82C5 40.92 5 40 5 39.11C5.08 36.93 5.17 34.75 5.31 32.58C5.4637 28.7206 6.03026 24.8887 7 21.15C7.21018 20.3703 7.5123 19.6184 7.9 18.91C7.96288 18.7025 8.07483 18.5132 8.22637 18.3581C8.37791 18.2029 8.56458 18.0866 8.77058 18.0189C8.97659 17.9513 9.19587 17.9342 9.40987 17.9692C9.62387 18.0042 9.82629 18.0902 10 18.22C10.1072 18.2658 10.2236 18.2863 10.34 18.28L24.45 18.21L24.85 18.18ZM14.46 46.53C14.46 46.18 14.38 45.88 14.36 45.53C14.29 44.53 14.19 43.44 14.2 42.39C14.1892 42.2155 14.2135 42.0406 14.2713 41.8756C14.3292 41.7106 14.4195 41.5589 14.5369 41.4293C14.6543 41.2998 14.7965 41.1951 14.955 41.1213C15.1136 41.0476 15.2853 41.0063 15.46 41C15.96 40.95 16.46 40.93 16.96 40.91C17.89 40.91 18.24 41.2 18.58 42.31C18.7525 42.9019 18.8927 43.5028 19 44.11C19.15 44.92 19.29 45.74 19.44 46.57H19.74L37.92 46.67C38.2 46.67 38.27 46.53 38.35 46.28C39.0091 43.9481 40.1052 41.7627 41.58 39.84C43.1162 37.7741 45.0761 36.0603 47.3285 34.8134C49.5809 33.5664 52.0737 32.8152 54.64 32.61C57.9196 32.329 61.2155 32.9116 64.2 34.3L65.33 34.82V34.48C65.3171 31.5553 65.073 28.6362 64.6 25.75C64.3581 23.8664 63.6727 22.0671 62.6 20.5C62.5245 20.4119 62.4668 20.31 62.43 20.2C62.4218 20.15 62.4033 20.1021 62.3758 20.0595C62.3483 20.0169 62.3124 19.9804 62.2702 19.9523C62.228 19.9241 62.1804 19.905 62.1305 19.896C62.0806 19.887 62.0294 19.8884 61.98 19.9L49.84 20C49.669 20.0149 49.5075 20.0851 49.38 20.2C49.2446 20.3273 49.0658 20.3981 48.88 20.3981C48.6942 20.3981 48.5154 20.3273 48.38 20.2C48.3032 20.1113 48.2051 20.0436 48.0948 20.0033C47.9846 19.9631 47.8659 19.9516 47.75 19.97L37.43 20L10 20.16C9.86511 20.1912 9.72489 20.1912 9.59 20.16C9.31 20.01 9.19 20.16 9.11 20.42C8.83 21.32 8.5 22.21 8.29 23.13C7.49479 26.9297 7.02641 30.7904 6.89 34.67C6.72161 37.4856 6.75837 40.3097 7 43.12C7.1 44.12 7.32 45.12 7.5 46.17C7.5 46.46 7.7 46.53 7.95 46.53H14.06H14.46ZM40.25 63.29C37.7901 58.7987 36.913 53.6103 37.76 48.56H19.76V48.93C19.88 49.84 20.02 50.74 20.09 51.65C20.1372 51.8936 20.1344 52.1442 20.0817 52.3867C20.029 52.6292 19.9275 52.8584 19.7835 53.0604C19.6394 53.2625 19.4558 53.4331 19.2438 53.562C19.0317 53.6908 18.7957 53.7752 18.55 53.81C17.8216 53.8475 17.0956 53.6996 16.44 53.38C16.034 53.2399 15.6796 52.981 15.4228 52.6368C15.166 52.2926 15.0187 51.879 15 51.45C15 51.2 14.92 50.95 14.9 50.7C14.82 49.96 14.76 49.21 14.69 48.46H7.69C7.9 49.53 8.05 50.57 8.33 51.57C8.96333 53.8233 9.63 56.06 10.33 58.28C10.85 59.89 11.48 61.45 12.05 63.04C12.0834 63.1795 12.1673 63.3017 12.2855 63.3829C12.4037 63.4642 12.5478 63.4988 12.69 63.48L37.3 63.29H40.25ZM57.25 44.89C56.9 47.17 56.59 49.43 56.25 51.67C56.06 52.76 55.73 53.82 55.45 54.89C55.3919 55.0602 55.3807 55.2429 55.4176 55.4188C55.4546 55.5948 55.5383 55.7576 55.66 55.89C55.8894 56.1517 56.1477 56.3865 56.43 56.59C58.49 58.02 60.56 59.43 62.64 60.85L62.4 61.23C62.317 61.3578 62.2434 61.4915 62.18 61.63C62.0693 61.8244 62.0387 62.0543 62.0947 62.2708C62.1508 62.4874 62.2889 62.6736 62.48 62.79C62.6694 62.8834 62.879 62.928 63.09 62.92C63.91 62.92 64.74 62.85 65.57 62.86C66.4 62.87 66.82 62.55 66.98 61.63C67.1323 60.522 67.0505 59.3944 66.74 58.32C66.6713 58.105 66.5252 57.9233 66.33 57.81C66.0069 57.6445 65.635 57.6009 65.2824 57.6872C64.9298 57.7735 64.6201 57.9839 64.41 58.28C64.18 58.56 63.99 58.88 63.78 59.19C63.7194 59.1682 63.6621 59.1379 63.61 59.1L58.35 55.41C58.17 55.29 58.16 55.16 58.19 54.92C58.56 52.26 58.91 49.59 59.26 46.92C59.34 46.33 59.38 45.74 59.43 45.13C59.78 45.13 60.09 45.13 60.43 45.21C60.6255 45.2535 60.8292 45.2423 61.0188 45.1776C61.2083 45.1129 61.3764 44.9972 61.5045 44.8433C61.6326 44.6893 61.7159 44.503 61.7451 44.3049C61.7743 44.1067 61.7483 43.9044 61.67 43.72C61.3857 42.4852 60.977 41.2823 60.45 40.13C60.02 39.26 59.45 38.93 58.65 39.8C57.85 40.67 57 41.63 56.2 42.56C56.0795 42.7083 55.9756 42.8692 55.89 43.04C55.8063 43.1598 55.75 43.2966 55.7248 43.4405C55.6997 43.5845 55.7064 43.7323 55.7446 43.8734C55.7827 44.0144 55.8513 44.1455 55.9455 44.2572C56.0398 44.3689 56.1574 44.4586 56.29 44.52C56.58 44.65 56.88 44.75 57.23 44.89H57.25ZM28.86 14C28.86 14.08 28.86 14.19 28.86 14.29C29.04 15.45 29.24 16.61 29.4 17.78C29.4 18.11 29.58 18.14 29.82 18.14L44 18.1H44.28V13.2C39.1278 13.1168 33.9759 13.384 28.86 14Z" fill="black"/>
</svg>
