<svg width="80" height="80" viewBox="0 0 80 80" fill="none" xmlns="http://www.w3.org/2000/svg">
<path d="M11.74 54.05L18.44 52.55C18.44 51.94 18.44 51.43 18.44 50.93C18.4527 50.6162 18.5239 50.3076 18.65 50.02C19.14 48.97 19.65 47.95 20.18 46.92C20.2571 46.7459 20.3545 46.5814 20.47 46.43C20.5475 46.2842 20.66 46.1598 20.7973 46.068C20.9347 45.9762 21.0926 45.9199 21.257 45.9041C21.4214 45.8882 21.5872 45.9133 21.7395 45.9772C21.8919 46.0411 22.026 46.1417 22.13 46.27C22.3429 46.4744 22.5433 46.6915 22.73 46.92C22.9 47.13 23.05 47.35 23.2 47.56H23.29C23.29 47.56 23.35 47.56 23.34 47.56C23.34 45.68 23.34 43.8 23.26 41.93C23.26 40.75 23.17 39.58 23.12 38.36L19.57 38.91L15.57 39.55C15.4408 39.5699 15.3092 39.5699 15.18 39.55C15.005 39.5316 14.838 39.4674 14.6958 39.3638C14.5535 39.2602 14.4412 39.1209 14.37 38.96C14.04 38.29 13.09 37.84 13.67 36.87C13.94 36.41 14.19 35.93 14.49 35.49C17.02 31.85 19.49 28.17 22.11 24.6C25.58 19.89 29.16 15.26 32.74 10.6C33.85 9.16001 35.08 7.81 36.29 6.44C36.5641 6.16709 36.9115 5.97952 37.29 5.9C37.36 5.75 37.41 5.6 37.48 5.47C37.5434 5.32696 37.6394 5.20078 37.7604 5.1016C37.8814 5.00243 38.024 4.93303 38.1767 4.89899C38.3294 4.86495 38.488 4.86721 38.6397 4.9056C38.7913 4.94398 38.9319 5.01742 39.05 5.12C39.2963 5.32974 39.5239 5.56062 39.73 5.81C41.57 7.9 43.4 10.01 45.26 12.1C48.2191 15.3591 51.3644 18.4443 54.68 21.34C57.84 24.15 60.87 27.07 63.75 30.15C64.75 31.15 65.75 32.15 66.75 33.15C66.9628 33.3373 67.1133 33.5852 67.1812 33.8605C67.2491 34.1357 67.2313 34.4252 67.13 34.69C66.9 35.18 66.47 35.33 65.77 35.32C63.95 35.32 62.12 35.32 60.3 35.32H57.8C58.08 38.91 58.36 42.42 58.65 46.03C59.02 45.72 59.32 45.43 59.65 45.18C59.7883 45.0394 59.958 44.9336 60.1451 44.8711C60.3321 44.8086 60.5314 44.7913 60.7264 44.8205C60.9215 44.8498 61.1068 44.9248 61.2674 45.0394C61.4279 45.154 61.559 45.305 61.65 45.48C62.23 46.28 62.84 47.06 63.4 47.89C63.5738 48.198 63.6827 48.5383 63.72 48.89C63.84 49.68 63.92 50.48 64.02 51.37L68.46 50.47C68.46 50 68.46 49.58 68.39 49.16C68.3551 48.9213 68.3551 48.6787 68.39 48.44C68.7138 47.1464 69.2585 45.9184 70 44.81C70.1076 44.6637 70.1732 44.4908 70.19 44.31C70.1848 44.0775 70.2609 43.8504 70.4051 43.6679C70.5493 43.4853 70.7526 43.3588 70.98 43.31C71.218 43.2557 71.467 43.2765 71.6927 43.3697C71.9184 43.4628 72.1096 43.6236 72.24 43.83C72.306 43.9173 72.363 44.0111 72.41 44.11C73.23 45.59 74.0433 47.07 74.85 48.55C75.18 49.17 75.51 49.78 75.85 50.41C75.9975 50.6526 76.0754 50.9311 76.0754 51.215C76.0754 51.4989 75.9975 51.7774 75.85 52.02C75.7583 52.2377 75.7272 52.4761 75.76 52.71L76.54 62.26C76.54 62.56 76.46 62.91 76.86 63.09C76.94 63.09 76.97 63.32 76.97 63.44C76.97 64.05 76.91 64.66 76.87 65.34C76 65.45 75.18 65.58 74.36 65.66L60.29 67C60.0214 67.001 59.7547 67.0448 59.5 67.13C58.7715 67.4134 57.9903 67.5362 57.21 67.49L38.3 68.3C37.9 68.3 37.5 68.37 37.08 68.42C36.0414 70.3546 34.8262 72.1891 33.45 73.9C33.11 74.38 32.83 74.9 32.45 75.39C32.3343 75.599 32.1857 75.7881 32.01 75.95C31.9097 76.0423 31.7896 76.1103 31.6588 76.1488C31.5281 76.1873 31.3902 76.1953 31.2559 76.1721C31.1216 76.1489 30.9944 76.0952 30.8842 76.0151C30.7739 75.935 30.6835 75.8306 30.62 75.71C30.2235 75.0527 29.9428 74.3323 29.79 73.58C29.68 72 29.39 70.44 29.17 68.81C28.22 68.74 27.29 68.66 26.36 68.61C25.4722 68.6125 24.5901 68.4672 23.75 68.18C23.5469 68.1142 23.3319 68.0937 23.12 68.12C19.76 68.19 16.41 68.26 13.05 68.36C11.5 68.36 9.95 68.51 8.39 68.58C7.39 68.58 7.02 68.39 6.8 67.39C6.58 66.39 6.47 65.54 6.35 64.61C5.97 61.61 5.6 58.61 5.22 55.61C5.2 55 5.1 54.36 5 53.75C4.96881 53.3861 4.83341 53.0389 4.61 52.75C4.44788 52.5095 4.38351 52.2163 4.43 51.93C4.63 50.47 4.87 49.01 5.12 47.56C5.19092 47.1642 5.30841 46.7782 5.47 46.41C5.88 45.51 6.64 45.41 7.47 45.98C8.14151 46.5142 8.66769 47.2089 9 48C9.43 48.86 10 49.66 10.43 50.51C11 51.61 11.82 52.62 11.74 54.05ZM38.26 7.22C37.77 7.87 37.33 8.47 36.87 9.07C33 14.15 29 19.19 25.14 24.33C22.22 28.25 19.49 32.33 16.68 36.33C16.51 36.58 16.37 36.85 16.15 37.21H16.7C17.97 36.97 19.23 36.74 20.49 36.47C21.6424 36.3849 22.7718 36.1042 23.83 35.64C23.954 35.5909 24.0866 35.5671 24.22 35.57C24.64 35.51 25.06 35.47 25.48 35.42C25.64 35.42 25.83 35.33 25.96 35.42C26.5226 35.6027 27.1246 35.6269 27.7 35.49C28.45 35.44 29.2 35.37 29.95 35.33C31.95 35.2 34.03 35.17 36.06 34.96C41 34.46 45.93 33.87 50.86 33.33C52.3 33.17 53.75 33.03 55.19 32.95C55.6968 32.965 56.2002 33.0389 56.69 33.17C57.0143 33.2756 57.35 33.3428 57.69 33.37C59.46 33.3 61.23 33.2 63 33.1C63.06 33.1 63.12 33.02 63.2 32.96L62.7 32.4C59.4459 28.8938 56.0147 25.5561 52.42 22.4C47.997 18.4783 43.9063 14.197 40.19 9.60001L38.26 7.22ZM58 65.15C57.92 64.53 57.84 64.01 57.77 63.48C57.18 59.12 56.82 54.73 56.57 50.33C56.29 45.43 56.0033 40.5267 55.71 35.62C55.6834 35.4504 55.6433 35.2832 55.59 35.12C55.29 35.12 55.03 35.12 54.77 35.17C50.95 35.57 47.13 35.95 43.32 36.41C38.79 36.96 34.24 37.41 29.68 37.51C28.29 37.56 26.9 37.68 25.58 37.76C25.3283 38.1878 25.2396 38.692 25.33 39.18C25.46 41.43 25.68 43.68 25.7 45.93C25.75 52.46 25.7 58.93 25.7 65.51C25.7 65.64 25.7 65.78 25.7 65.91C25.6882 65.9767 25.6913 66.0453 25.7091 66.1107C25.7269 66.1761 25.7589 66.2368 25.8028 66.2883C25.8468 66.3399 25.9016 66.3812 25.9633 66.4091C26.0251 66.4371 26.0922 66.451 26.16 66.45C27.07 66.45 27.97 66.45 28.89 66.45C28.89 66.21 28.89 66.05 28.89 65.89C28.71 64.18 28.46 62.48 28.38 60.77C28.26 58.14 28.24 55.51 28.2 52.88C28.1871 52.5569 28.2595 52.2362 28.41 51.95C28.55 51.7 28.86 51.39 29.11 51.38C29.3207 51.3574 29.5245 51.2916 29.7086 51.1866C29.8928 51.0817 30.0532 50.9398 30.18 50.77L34.17 47C34.5883 46.6172 35.1243 46.388 35.69 46.35C36.57 46.27 37.44 46.1 38.31 45.96L44.43 44.96C44.93 44.88 45.49 44.88 45.75 45.33C46.2243 45.9084 46.5474 46.5957 46.69 47.33C46.83 50.14 47.03 52.95 47.16 55.76C47.28 58.37 47.32 60.97 47.43 63.57C47.5251 63.9254 47.5204 64.3001 47.4163 64.653C47.3122 65.0058 47.1128 65.3231 46.84 65.57L58 65.15ZM32.84 70.69H33.03C33.66 69.69 34.3 68.69 34.91 67.69C35.3383 66.8843 35.4828 65.9578 35.32 65.06C35.24 64.27 35.12 63.47 35.06 62.67C34.96 61.44 34.91 60.21 34.83 58.98C34.64 56.17 34.44 53.36 34.25 50.55C34.25 50.38 34.25 50.2 34.17 49.93C33.97 50.09 33.84 50.17 33.74 50.27C32.8 51.27 31.9 52.22 30.93 53.15C30.7045 53.3555 30.5396 53.6189 30.4532 53.9116C30.3668 54.2042 30.3622 54.5149 30.44 54.81C30.98 58.25 31.44 61.69 32.01 65.14C32.29 67 32.56 68.87 32.84 70.69ZM60.33 47.48C59.88 47.96 59.53 48.4 59.11 48.77C58.9948 48.8558 58.9038 48.97 58.846 49.1014C58.7882 49.2329 58.7654 49.3771 58.78 49.52C58.91 51.37 58.99 53.22 59.16 55.06C59.45 58.3 59.8 61.55 60.16 64.86L63.53 64.4C63.5014 63.407 63.2807 62.429 62.88 61.52C62.8071 61.3493 62.7697 61.1656 62.77 60.98C62.56 59.11 62.34 57.25 62.16 55.38C61.98 53.51 61.88 51.64 61.73 49.78C61.7256 49.5669 61.6707 49.3579 61.57 49.17C61.19 48.61 60.78 48.09 60.33 47.48ZM74.19 63.34C74.2031 63.1536 74.2031 62.9664 74.19 62.78C74.01 59.78 73.84 56.84 73.65 53.87C73.65 53.47 73.44 53.09 73.4 52.7C73.32 52.3107 73.32 51.9093 73.4 51.52C73.4578 51.3458 73.4753 51.1608 73.451 50.9789C73.4268 50.797 73.3614 50.6229 73.26 50.47C72.74 49.54 72.26 48.59 71.73 47.65C71.63 47.48 71.51 47.31 71.36 47.09C70.7987 47.8817 70.5691 48.8614 70.72 49.82C70.863 50.4214 70.9566 51.0334 71 51.65C71.23 54.78 71.44 57.91 71.66 61.04C71.66 61.86 71.78 62.69 71.85 63.54C71.9932 63.5487 72.1368 63.5487 72.28 63.54L74.19 63.34ZM23.33 66C23.33 64.91 23.45 63.92 23.45 62.94C23.45 59.32 23.45 55.7 23.4 52.08C23.4 51.49 23.4 50.93 22.77 50.59C22.49 50.44 22.32 50.07 22.11 49.79C21.9 49.51 21.8 49.37 21.59 49.07C21.3737 49.6525 21.1198 50.2204 20.83 50.77C20.6224 51.1444 20.5551 51.5805 20.64 52C20.74 52.88 20.82 53.76 20.89 54.64C21.17 58.11 21.22 61.59 21.76 65.03C21.76 65.31 21.76 65.6 21.83 65.92L23.33 66ZM10.48 66.13C10.28 63.42 10.09 60.78 9.89 58.13C9.76 56.47 9.62 54.81 9.47 53.13C9.46766 52.8951 9.38269 52.6685 9.23 52.49C8.55992 51.8704 8.043 51.1036 7.72 50.25C7.56248 49.8617 7.36118 49.4927 7.12 49.15L6.48 52.4C7.05 52.77 7.09 53.45 7.18 54.08C7.63 57 8.05 60 8.49 63C8.64 64 8.8 65.09 9 66.2L10.48 66.13ZM12.02 56.13L12.38 60.37C14.5664 60.2659 16.746 60.0489 18.91 59.72L18.63 54.9L12.02 56.13ZM65.25 59.52L69.25 59.04C69.11 56.92 68.96 54.86 68.81 52.7L64.27 53.44C64.34 54.18 64.39 54.84 64.46 55.5C64.5022 55.7893 64.5589 56.0764 64.63 56.36C64.77 56.95 64.93 57.54 65.06 58.14C65.14 58.59 65.18 59 65.25 59.53V59.52ZM12.57 62.52L12.72 66L19.72 65.8L19 62.1L12.57 62.52ZM69.76 63.78L69.48 61.28C68.1416 61.3287 66.8065 61.4455 65.48 61.63L65.76 64.15L69.76 63.78Z" fill="black"/>
<path d="M38.26 7.22L40.19 9.6C43.9074 14.162 47.9946 18.4097 52.41 22.3C56.0047 25.4561 59.4359 28.7938 62.69 32.3L63.19 32.86C63.11 32.92 63.05 32.99 62.99 33C61.22 33.1 59.45 33.2 57.68 33.27C57.34 33.2428 57.0043 33.1756 56.68 33.07C56.1902 32.9389 55.6868 32.865 55.18 32.85C53.74 32.93 52.29 33.07 50.85 33.23C45.92 33.77 40.99 34.36 36.05 34.86C34.05 35.07 31.97 35.1 29.94 35.23C29.19 35.23 28.44 35.34 27.69 35.39C27.1296 35.5145 26.5461 35.4868 26 35.31C25.87 35.25 25.68 35.31 25.52 35.31C25.1 35.31 24.68 35.4 24.26 35.46C24.1266 35.4571 23.994 35.4809 23.87 35.53C22.8118 35.9942 21.6824 36.2749 20.53 36.36C19.27 36.63 18.01 36.86 16.74 37.1H16.19C16.41 36.74 16.55 36.47 16.72 36.22C19.53 32.22 22.26 28.22 25.18 24.22C29 19.19 33 14.15 36.87 9.07C37.33 8.47 37.77 7.87 38.26 7.22Z" fill="black"/>
</svg>
