<?xml version="1.0" encoding="utf-8"?>
<!-- Generator: Adobe Illustrator 24.3.0, SVG Export Plug-In . SVG Version: 6.00 Build 0)  -->
<svg version="1.1" id="Layer_1" xmlns="http://www.w3.org/2000/svg" xmlns:xlink="http://www.w3.org/1999/xlink" x="0px" y="0px"
	 viewBox="0 0 80 80" style="enable-background:new 0 0 80 80;" xml:space="preserve">
<path d="M51.1,49.8V54h0.4l7.9-0.1c0.3,0,0.7,0.1,0.9-0.1c0.3-0.4,1-0.5,1.5-0.2c3.4,3.8,6.8,7.6,10.8,10.9c0.7,0.6,1.2,1.5,2,2
	c0.3,0.1,0.5,0.4,0.6,0.7c0.2,0.4,0,0.7,0,1.1c0.2,0.9-0.6,1.8-1.4,2.1c-2,0.3-5-0.5-7.3-0.6c-17-0.6-34,1.8-51.1,1.9
	c-3,0-6.1,0.5-9.1-0.4c-1.1,0-1.5-1.6-0.6-2.1c3.6-2.5,7.3-5,11-7.3c0,0,6.3-4,6.3-4c1-1,1.9-2.1,3.2-2.6c2.3-1.2,5-0.8,7.5-1v-3.3
	c-4-0.1-16.1-0.2-19.9-0.4c-1.3,0-1.4-0.9-1.5-2c0.1-0.8-0.5-1.4-0.7-2.2c-0.8-3.5-1.5-7-1.8-10.6c-0.8-5.1-1.5-10.2-1.1-15.3
	C8.9,18.3,9,16.2,9.1,14c0.2-1.7,0.2-3.9,2-4.7c0.6-0.3,1.2-0.6,1.9-0.2c0.3,0.1,0.6,0.1,0.9,0.1l40.5,0.3l14.4,0.1
	c0.6,0,1-0.5,1.6-0.3c1.6,0.7,2.4,2.8,2.4,4.5c0.2,3.5,0.3,7,0.4,10.5c0,4.3-0.7,8.6-1.1,12.9c-0.4,3.4-0.4,6.9-1.5,10.2
	c-0.1,0.6-0.7,1-1.3,1.1C63.5,48.8,56.9,49.3,51.1,49.8z M55.8,18.5v-0.1c-3.3,0.1-6.6-0.1-9.8,0.3c-2.5,2.1-5.1,4-7.6,6.1
	c-5.4,4.7-10.8,9.4-16.2,14.1c-0.5,0.8-0.1,2.5-0.2,3.5c0,0.4,0.2,0.5,0.5,0.5c1.2-0.1,2.4-0.1,3.6-0.1c0.3,0,0.7-0.1,0.9-0.3
	C36.6,34.4,46.2,26.4,55.8,18.5z M61.1,24.7L40.6,42v0.1l20-0.7C60.8,35.9,60.9,30.3,61.1,24.7z M42.3,18.8l-0.1-0.1l-20,0.4
	c0.1,5.7,0.1,11.2-0.2,16.9C28.9,30.2,35.2,23.9,42.3,18.8z M30.4,42.5c2-0.1,3.9-0.1,5.8-0.2c0.3,0,0.6-0.1,0.8-0.3
	c4.7-3.9,9.3-7.8,14-11.8l9.9-8.4c0.1-0.1,0.3-0.2,0.3-0.4c0.1-1,0.1-2,0.2-3.1c-1-0.1-2.1,0.1-2.9,0.8
	C49.3,26.9,39.7,34.6,30.4,42.5z M46.7,61.3v4.1h0.5L59,65.3c1.7-0.4,5.6,1.8,5-1.5c0-0.5-0.2-1-0.7-1.2c-0.9-0.5-1.7-1.4-2.7-1.6
	c-0.6-0.1-1.2-0.4-1.9-0.6c-0.4-0.2-0.8,0-1,0.4c-0.2,0.3-0.4,0.3-0.6,0.3L46.7,61.3L46.7,61.3z M40.2,61.5c-3.3,0.1-6.7,0.2-10,0.3
	c-1.4,0-2.8,0.3-4.1,0.7c-1.6,0.6-3.2,1.5-4.9,2.2c-0.5,0.2-0.8,0.7-0.6,1.2c0.2,0.7,0.9,0.8,1.5,0.8c0.7,0.4,1.5-0.2,2.2-0.1
	c1.2-0.2,2.4,0.1,3.4-0.7c4.1-0.7,8.3-0.4,12.5-0.4L40.2,61.5z M43.3,51.5c0.2,0.5,0.6,2.8,1.8,2c0.4-0.3,1.8-1.1,1.9-1.6
	c0.2-0.5-0.2-1-0.3-1.5c-0.1-0.4-0.4-0.7-0.7-0.9C44.6,48.8,43.1,50.2,43.3,51.5L43.3,51.5z"/>
</svg>
