<svg width="80" height="80" viewBox="0 0 80 80" fill="none" xmlns="http://www.w3.org/2000/svg">
<path d="M51.14 49.79V54H51.53L59.4 53.92C59.58 53.92 59.77 53.92 59.95 53.92C60.0883 53.9251 60.2247 53.8867 60.34 53.81C60.454 53.6686 60.6006 53.5571 60.7673 53.4851C60.934 53.413 61.1157 53.3825 61.2968 53.3963C61.4779 53.4101 61.6529 53.4677 61.8067 53.5641C61.9606 53.6606 62.0887 53.793 62.18 53.95C62.98 54.87 63.78 55.8 64.59 56.71C67.0769 59.4789 69.7497 62.0749 72.59 64.48C73.0848 64.9631 73.5554 65.4704 74 66C74.1872 66.1825 74.3914 66.3465 74.61 66.49C74.8751 66.6326 75.0809 66.8646 75.1908 67.1449C75.3007 67.4251 75.3075 67.7352 75.21 68.02C75.1952 68.0926 75.1952 68.1674 75.21 68.24C75.2528 68.5098 75.2266 68.7861 75.1339 69.0431C75.0413 69.3001 74.8851 69.5295 74.68 69.71C74.454 70.0149 74.146 70.2492 73.7918 70.3855C73.4377 70.5218 73.052 70.5546 72.68 70.48C70.68 70.23 68.59 69.98 66.54 69.8C65.0604 69.6701 63.5749 69.6201 62.09 69.65C57.93 69.76 53.77 69.93 49.61 70.09C47.1 70.18 44.61 70.26 42.09 70.39C39.57 70.52 37 70.73 34.46 70.91C32.52 71.04 30.58 71.2 28.64 71.3C25.27 71.46 21.9 71.59 18.53 71.72C17.53 71.72 16.53 71.72 15.47 71.72C13.72 71.72 11.98 71.81 10.24 71.82C9.04102 71.91 7.83677 71.7395 6.70998 71.32C6.61055 71.3049 6.50941 71.3049 6.40998 71.32C6.16465 71.3219 5.92561 71.2424 5.73021 71.0941C5.53481 70.9457 5.39407 70.7368 5.32998 70.5C5.25942 70.257 5.26681 69.998 5.35112 69.7594C5.43543 69.5209 5.59241 69.3147 5.79998 69.17C6.04998 68.98 6.33998 68.86 6.58998 68.68C7.51998 68.02 8.41998 67.3 9.37998 66.68C11.86 65.0467 14.35 63.44 16.85 61.86L23.13 57.86C23.2986 57.7414 23.45 57.6 23.58 57.44C24.3186 56.5094 25.2518 55.7515 26.3141 55.2194C27.3765 54.6874 28.5423 54.3941 29.73 54.36C31.08 54.36 32.44 54.24 33.84 54.18V50.9H33.39L19 50.62C17.3 50.62 15.6 50.59 13.9 50.53C12.95 50.53 12.59 50.16 12.46 49.14C12.46 48.94 12.46 48.74 12.39 48.55C12.4162 48.0162 12.265 47.4888 11.96 47.05C11.825 46.8422 11.7394 46.6061 11.71 46.36C10.9646 43.224 10.3938 40.0492 9.99998 36.85C9.99998 36.48 9.99998 36.11 9.91998 35.74C9.68998 34.15 9.43998 32.56 9.21998 30.96C8.75356 27.464 8.60628 23.9327 8.77998 20.41C8.86998 18.28 8.95998 16.16 9.09998 14.04C9.1619 13.1966 9.27881 12.3582 9.44998 11.53C9.52522 11.0606 9.71394 10.6166 9.99975 10.2367C10.2856 9.8568 10.6598 9.55241 11.09 9.35C11.7 9.05 12.27 8.74 12.97 9.16C13.2546 9.26369 13.5614 9.29127 13.86 9.24L54.32 9.54L68.72 9.65C68.9713 9.63698 69.2153 9.56135 69.43 9.43C69.6873 9.28593 69.9882 9.23998 70.2768 9.30065C70.5655 9.36132 70.8224 9.52451 71 9.76C72.0621 10.8245 72.6743 12.2567 72.71 13.76C72.9 17.25 73 20.76 73.13 24.23C73.1424 26.6166 72.9685 29.0005 72.61 31.36C72.39 33.27 72.26 35.2 72.02 37.1C71.67 39.92 71.63 42.79 71.02 45.57C70.89 46.17 70.74 46.76 70.57 47.35C70.5012 47.6402 70.3404 47.9003 70.1114 48.0914C69.8825 48.2825 69.5978 48.3943 69.3 48.41C67.64 48.52 65.99 48.62 64.3 48.75C62.07 48.91 59.85 49.09 57.62 49.26L51.33 49.75C51.2653 49.7561 51.2016 49.7695 51.14 49.79ZM55.8 18.49V18.39H55.21C52.38 18.44 49.54 18.51 46.7 18.54C46.4542 18.5378 46.2106 18.5854 45.9837 18.6799C45.7568 18.7745 45.5515 18.914 45.38 19.09C44.9 19.53 44.38 20 43.93 20.4C42.09 21.86 40.17 23.21 38.39 24.75C32.96 29.42 27.57 34.16 22.18 38.88C22.1178 38.9396 22.0682 39.011 22.0338 39.0899C21.9995 39.1689 21.9812 39.2539 21.98 39.34C21.98 40.34 21.98 41.34 21.98 42.34C21.98 42.75 22.13 42.81 22.47 42.79C23.67 42.73 24.88 42.69 26.09 42.67C26.4255 42.6661 26.7484 42.5419 27 42.32C35.1533 35.5467 43.32 28.79 51.5 22.05L55.8 18.49ZM61.1 24.72L40.58 42V42.1L60.58 41.44C60.77 35.88 60.93 30.34 61.1 24.72ZM42.31 18.77L42.26 18.63L22.26 18.98C22.26 21.85 22.37 24.65 22.34 27.45C22.31 30.25 22.18 33.05 22.09 35.85C28.87 30.22 35.15 23.91 42.31 18.77ZM30.43 42.48C32.43 42.41 34.36 42.36 36.27 42.27C36.5817 42.2474 36.8787 42.1286 37.12 41.93C41.7866 38.01 46.4533 34.08 51.12 30.14L61 21.75C61.13 21.64 61.31 21.5 61.33 21.35C61.42 20.35 61.48 19.35 61.55 18.3C60.5055 18.1627 59.449 18.443 58.61 19.08C50.61 25.82 42.46 32.48 34.37 39.17L30.43 42.48ZM46.73 61.28V65.42H47.25L59 65.34C59.49 65.2592 59.9899 65.2592 60.48 65.34C61.1601 65.5814 61.8785 65.6966 62.6 65.68C63.88 65.68 64.23 65.21 64.02 63.86V63.77C64.0228 63.5359 63.9571 63.3061 63.831 63.1088C63.7048 62.9116 63.5237 62.7556 63.31 62.66C62.67 62.27 62.09 61.8 61.46 61.4C61.188 61.2597 60.8989 61.1555 60.6 61.09C60.51 61.09 60.4 61.09 60.31 61.03C59.79 60.86 59.31 60.67 58.75 60.51C58.5669 60.4288 58.3591 60.4231 58.1718 60.4943C57.9845 60.5654 57.8329 60.7076 57.75 60.89C57.6 61.22 57.4 61.22 57.13 61.22H46.73V61.28ZM40.19 61.51H39.78C36.58 61.62 33.39 61.75 30.19 61.83C28.7914 61.8352 27.4043 62.0821 26.09 62.56C24.44 63.21 22.85 64.01 21.24 64.76C20.9994 64.8524 20.8008 65.0292 20.6811 65.2574C20.5615 65.4856 20.5291 65.7496 20.59 66C20.6472 66.2401 20.7912 66.4506 20.9943 66.5909C21.1974 66.7312 21.4452 66.7914 21.69 66.76C21.82 66.76 21.98 66.76 22.07 66.76C22.2588 66.8679 22.4725 66.9246 22.69 66.9246C22.9074 66.9246 23.1211 66.8679 23.31 66.76C23.6376 66.6774 23.9725 66.6271 24.31 66.61C25.47 66.46 26.69 66.69 27.73 65.89H27.81C29.1 65.74 30.38 65.47 31.67 65.44C34.41 65.38 37.14 65.44 39.88 65.44H40.22L40.19 61.51ZM43.3 51.51C43.45 51.92 43.66 52.63 43.96 53.3C44.0142 53.3916 44.088 53.4701 44.1761 53.5298C44.2643 53.5895 44.3646 53.6288 44.4698 53.6451C44.575 53.6614 44.6825 53.6541 44.7845 53.6238C44.8866 53.5935 44.9807 53.541 45.06 53.47L46.46 52.47C46.6859 52.3433 46.8539 52.1339 46.9285 51.8858C47.0031 51.6377 46.9786 51.3703 46.86 51.14C46.77 50.9 46.69 50.65 46.58 50.42C46.4604 50.0539 46.212 49.7436 45.881 49.5468C45.5499 49.3501 45.1587 49.2801 44.78 49.35C44.311 49.4724 43.9025 49.7609 43.6302 50.1618C43.358 50.5628 43.2407 51.049 43.3 51.53V51.51Z" fill="black"/>
</svg>
