<?xml version="1.0" encoding="utf-8"?>
<!-- Generator: Adobe Illustrator 24.3.0, SVG Export Plug-In . SVG Version: 6.00 Build 0)  -->
<svg version="1.1" id="Layer_1" xmlns="http://www.w3.org/2000/svg" xmlns:xlink="http://www.w3.org/1999/xlink" x="0px" y="0px"
	 viewBox="0 0 80 80" style="enable-background:new 0 0 80 80;" xml:space="preserve">
<path d="M37.3,41.3l2.9-1.7c3.7-2.1,8.4-1.1,12,0.7c0.1-2.4,0.2-4.8,0.3-7.3c0-1.4,0.4-2.8,1.6-3.6c4.3-3.7,8.5-7.3,12.5-11.3
	c1-1,2.8-1.1,2.7,0.8c-0.7,16-1.4,31.9-0.9,47.9c1,0,3.4-0.1,4.3,0c1,0.2,1.1,1.8,0.1,2.1c-8.8,0.3-23.3,0.5-32.1,0.8
	c-5.2,0.1-18.7,0.5-23.8,0.6c-1.8,0.1-3.6,0.1-5.4,0.2c-0.6,0.1-1.3,0-1.8-0.2c-0.1-0.1-0.2,0-0.4,0c-1.4-0.1-2.9,0.3-4.2-0.3
	C4.6,69.4,5,68.1,5.8,68c0.6,0,3.1,0,3.7,0c-0.1-17.1,0.5-34.3,0.5-51.4c0-0.5-0.5-0.8-0.5-1.3c-0.2-0.8,0.5-1.6,1.3-1.6
	c1.2-0.2,2.5-0.4,3.7-0.5c3.9-0.3,7.7-0.6,11.6-0.7c3.3-0.2,6.7,0.6,10,0c0.5-0.2,1.1-0.1,1.3,0.4c0.3,6.3-0.2,12.7-0.2,19.1
	C37.3,35,37.5,38.2,37.3,41.3z M12.2,34.5c-0.2,11.2-0.6,22.4-0.4,33.5c8.1,0.1,16.1-0.3,24.1-0.5c-0.7-11.2-1-22.3-0.9-33.4
	c-0.9,0-1.9,0-2.8,0.1c-1,0-1.6,0.3-2.5,0.1C27.9,34.2,14,34.7,12.2,34.5z M41.9,67.6c0.3-2.3,0.1-4.7,0-7c0.1-1.4-0.7-3.1,0.2-4.4
	c0.8-0.9,2.1-1,3.1-0.6c1.1,0.1,2.8-0.6,3.2,0.9c0.2,3.6,0.1,7.3,0.3,10.9h4.5c-0.2-4.7-0.3-9.5-0.4-14.2c-0.4-1.1-1.6-1.8-2.7-2.2
	c-4-1.3-9-0.8-12.2,2.2c-0.3,0.2-0.4,0.6-0.4,1c0.3,4.5,0.3,9,0.6,13.6H41.9z M18,15c0,5.8-0.5,11.5-0.1,17.2h4.2
	c-0.2-5.8,0-11.6-0.2-17.4L18,15z M35,32l0.5-17.1l-3.8-0.2c-0.3,0-0.3,0.2-0.3,0.3c-0.2,5.7-0.3,11.3-0.3,16.9H35z M66.8,29.5
	c0,0-0.2,0.1-0.2,0.1l-5.2,4.3c-0.1,0.1-0.2,0.3-0.2,0.5c0,1.9,0.1,3.7,0.1,5.6c1.7-1.4,3.3-2.6,4.9-3.9c0.2-0.2,0.3-0.4,0.3-0.7
	C66.6,33.4,66.7,31.5,66.8,29.5L66.8,29.5z M66.3,39l-4.7,3.6c-0.1,0.1-0.2,0.3-0.2,0.5c0,2.1,0.1,4.1,0.1,6.1
	c1.5-1.1,3.1-2,4.6-3.2C66.3,43.7,66.1,41.3,66.3,39z M62,66.9h4.3v-8.3h-0.2c-1.3,0.9-2.9,1.5-4.2,2.5C61.8,62.9,61.9,64.9,62,66.9
	z M61.7,58.3l0.2,0.1l4.3-2.6v-7.1c-1.5,1-2.9,2-4.3,2.9c-0.1,0.1-0.2,0.3-0.2,0.4C61.7,53.4,61.7,57,61.7,58.3z M61.2,31.1l5.6-4.5
	c0.1-0.1,0.1-0.3,0.1-0.4c0-1.8,0.2-3.7,0.3-5.4l-0.2-0.1c0.2,0.3-5.6,5.3-5.8,5.6c-0.1,0.1-0.3,0.3-0.3,0.4
	C61,28.1,61.2,29.6,61.2,31.1L61.2,31.1z M55.2,62.4c1.5-1,3.1-1.7,4.3-2.8c0.1-2.1-0.1-4.3-0.1-6.4c-1.4,1-2.9,1.7-4.1,2.7
	C55.2,58.1,55.3,60.3,55.2,62.4z M59.2,35.9H59c-1.4,1-2.7,2.3-4.2,3.1c-0.1,0.1-0.2,0.2-0.2,0.3c0,0.9-0.1,1.8-0.1,2.7
	c0,0.1,0,0.2,0,0.3c0.5,1,0.4,2,0.3,3.1c0.1,0,0.1,0,0.2-0.1l4-3.4c0.1-0.1,0.1-0.2,0.2-0.3L59.2,35.9z M55,53.4c0,0,0.2,0,0.2,0
	c1.3-1,2.9-1.8,4.1-2.9c0.1-2,0-4-0.1-6c-1.4,1-2.7,2.1-4.1,3.2c-0.1,0.1-0.2,0.3-0.2,0.5C55,50,55,51.7,55,53.4z M54.7,36.6
	c0.1,0,0.1-0.1,0.2-0.1l3.9-3.2c0.2-0.1,0.3-0.4,0.3-0.6c0-1.5-0.1-2.9-0.1-4.4c-1.4,1.2-2.9,2.3-4.2,3.5
	C54.5,33.3,54.7,34.9,54.7,36.6L54.7,36.6z M59.7,67v-4.7h-0.2l-3.9,2.3c-0.4,0.4,0,1.6,0,2.3c0,0.3,0.2,0.3,0.4,0.3
	C56.8,67.1,58.8,67,59.7,67L59.7,67z"/>
<path d="M15.3,52c3.2-4.4,6.9-8.5,10.1-12.9c0.1-0.1,0.2-0.2,0.3-0.2c1.9-0.1,3.6,0,5.6,0.3c-3.7,4.3-7.8,8.4-11.4,13
	c-0.1,0.1-0.2,0.2-0.3,0.2c-0.9,0.1-1.8-0.2-2.8-0.2C16.3,52.3,15.7,52.6,15.3,52z"/>
<path d="M23,52.7c2.7-3.9,6.1-7,9-10.8c0.1,2.8-0.2,5.5,0.1,8.2c0.2,1.1,0.8,2.7-0.9,2.7C28.5,52.8,25.8,52.7,23,52.7z"/>
<path d="M22.9,39c-2.4,3.6-5.3,6.7-8,10.1c0-2.8,0-5.7,0.1-8.5c0.1-0.6,0.1-1.3,0.7-1.7c0.2-0.1,0.4-0.2,0.6-0.1
	C18.5,39.1,20.6,39.1,22.9,39z"/>
</svg>
