<svg width="80" height="80" viewBox="0 0 80 80" fill="none" xmlns="http://www.w3.org/2000/svg">
<path d="M37.34 41.28L40.28 39.56C41.3698 38.8955 42.6141 38.5267 43.89 38.49C45.7806 38.3634 47.6789 38.5664 49.5 39.09C50.44 39.41 51.32 39.88 52.26 40.29C52.2686 40.2002 52.2686 40.1098 52.26 40.02C52.36 37.69 52.44 35.35 52.55 33.02C52.58 32.4045 52.6603 31.7925 52.79 31.19C53.04 30.4605 53.5165 29.8298 54.15 29.39C56.46 27.39 58.79 25.39 61.07 23.39C62.98 21.68 64.83 19.9 66.68 18.11C67.103 17.673 67.6819 17.4213 68.29 17.41C68.4874 17.3895 68.6861 17.4341 68.8558 17.537C69.0255 17.6399 69.1569 17.7955 69.23 17.98C69.3459 18.2587 69.4037 18.5582 69.4 18.86C69.4 19.86 69.28 20.86 69.25 21.93C69.17 24.31 69.16 26.69 69.06 29.07C68.93 32.15 68.73 35.23 68.57 38.32C68.5 39.89 68.42 41.46 68.41 43.03C68.41 48.69 68.41 54.3567 68.41 60.03C68.41 62.23 68.5 64.44 68.54 66.65C68.54 66.65 68.54 66.76 68.54 66.77H71.24C71.63 66.77 72.02 66.77 72.41 66.77C72.5674 66.7449 72.7284 66.7537 72.8822 66.7959C73.036 66.838 73.179 66.9125 73.3016 67.0143C73.4243 67.1162 73.5238 67.243 73.5935 67.3864C73.6632 67.5298 73.7015 67.6864 73.7058 67.8458C73.7101 68.0052 73.6804 68.1636 73.6185 68.3106C73.5566 68.4575 73.4641 68.5896 73.3471 68.6979C73.2301 68.8062 73.0914 68.8883 72.9401 68.9387C72.7888 68.989 72.6286 69.0065 72.47 68.99C71.22 68.99 69.96 69.06 68.71 69.09L53 69.42L40.88 69.71L25.12 70.13L17.12 70.32C15.32 70.37 13.52 70.4 11.72 70.5C11.0969 70.6229 10.4507 70.5386 9.87999 70.26C9.78999 70.2 9.62999 70.26 9.49999 70.26C8.42999 70.26 7.35999 70.26 6.28999 70.26C5.93268 70.2286 5.58891 70.1083 5.28999 69.91C5.14279 69.7946 5.03426 69.6371 4.97888 69.4584C4.92349 69.2797 4.92388 69.0884 4.97999 68.91C4.99877 68.6816 5.09544 68.4666 5.25382 68.3009C5.41219 68.1352 5.62266 68.029 5.84999 68C6.18284 67.9745 6.51715 67.9745 6.84999 68H9.58999C9.59491 67.9067 9.59491 67.8133 9.58999 67.72C9.58999 66.51 9.65999 65.29 9.64999 64.08C9.64999 63.14 9.49999 62.19 9.50999 61.25C9.56999 56.4833 9.63666 51.7333 9.70999 47C9.77999 42.8 9.88999 38.6 9.94999 34.4C10.03 28.4 10.08 22.51 10.14 16.56C10.1371 16.3363 10.0713 16.118 9.94999 15.93C9.7689 15.7375 9.64643 15.4974 9.59696 15.2377C9.54749 14.9781 9.57306 14.7098 9.67067 14.4642C9.76828 14.2186 9.93389 14.0059 10.1481 13.8511C10.3623 13.6962 10.6162 13.6057 10.88 13.59C12.1135 13.3633 13.3588 13.2064 14.61 13.12C18.48 12.85 22.35 12.53 26.23 12.4C28.76 12.32 31.31 12.55 33.84 12.61C34.55 12.61 35.25 12.61 35.95 12.54C36.051 12.5273 36.1473 12.4895 36.23 12.43C36.3826 12.3509 36.553 12.3126 36.7247 12.3185C36.8965 12.3245 37.0638 12.3746 37.2105 12.4641C37.3572 12.5535 37.4784 12.6793 37.5624 12.8292C37.6464 12.9791 37.6903 13.1482 37.69 13.32C37.7 13.5099 37.7 13.7001 37.69 13.89C37.59 19.89 37.46 25.89 37.38 31.89C37.38 34.89 37.38 37.98 37.38 41.02C37.361 41.1057 37.3476 41.1925 37.34 41.28ZM12.24 34.55C12.02 45.78 11.66 56.91 11.84 68.08C19.92 68.19 27.9 67.75 35.95 67.63C35.26 56.47 34.95 45.37 35.1 34.22H34.58C33.81 34.22 33.05 34.22 32.29 34.28C31.53 34.34 31.07 34.42 30.46 34.47C30.2453 34.4698 30.031 34.4498 29.82 34.41C29.6258 34.3653 29.4286 34.3353 29.23 34.32L14.34 34.55C13.64 34.56 12.94 34.55 12.24 34.55ZM41.94 67.55C42.008 67.1665 42.0514 66.779 42.07 66.39C42.07 64.39 42.07 62.47 41.96 60.51C41.96 59.37 41.78 58.23 41.76 57.1C41.7757 56.7327 41.9128 56.3809 42.15 56.1C42.5142 55.732 42.9751 55.4746 43.4795 55.3578C43.9839 55.241 44.5111 55.2695 45 55.44C45.0895 55.4866 45.1891 55.5106 45.29 55.51C45.88 55.51 46.47 55.51 47.05 55.45C47.2596 55.4157 47.4744 55.4324 47.6762 55.4988C47.8779 55.5653 48.0607 55.6794 48.2089 55.8315C48.3571 55.9837 48.4664 56.1693 48.5275 56.3728C48.5887 56.5762 48.5998 56.7914 48.56 57C48.5252 57.456 48.5252 57.914 48.56 58.37C48.56 59.2 48.69 60.01 48.7 60.84C48.7 62.61 48.7 64.39 48.7 66.16C48.7 66.54 48.77 66.92 48.79 67.25H53.28V66.83C53.2 64.83 53.1 62.83 53.04 60.83C52.96 58.24 52.92 55.64 52.85 53.04C52.8285 52.8617 52.7595 52.6924 52.65 52.55C52.0106 51.7407 51.1432 51.1416 50.16 50.83C47.5194 49.9322 44.6618 49.8971 42 50.73C40.4946 51.1325 39.1175 51.914 38 53C37.8594 53.124 37.7493 53.2787 37.6782 53.4521C37.6071 53.6255 37.5769 53.813 37.59 54C37.72 56.48 37.82 58.95 37.92 61.43C37.97 62.63 38.01 63.83 38.07 65.02C38.07 65.87 38.16 66.72 38.21 67.55H41.94ZM18.05 15C18.05 20.77 17.5 26.49 17.94 32.19H22.17C22.17 31.97 22.17 31.79 22.17 31.62C22.17 30.38 22.11 29.14 22.1 27.9C22.0333 23.7333 22 19.5567 22 15.37C21.9875 15.1584 21.9608 14.948 21.92 14.74L18.05 15ZM35.05 32L35.55 14.9L31.77 14.74C31.51 14.74 31.5 14.89 31.49 15.07C31.49 16.07 31.4 17 31.38 17.97C31.3 22.4833 31.2267 27 31.16 31.52C31.1498 31.6798 31.1498 31.8402 31.16 32H35.05ZM66.84 29.46L66.61 29.6L61.4 33.93C61.2906 34.0537 61.2333 34.215 61.24 34.38C61.24 36.04 61.31 37.7 61.35 39.38C61.35 39.54 61.35 39.7 61.35 39.98C63.06 38.62 64.67 37.35 66.27 36.05C66.4364 35.8585 66.5287 35.6137 66.53 35.36C66.62 33.88 66.67 32.36 66.73 30.91C66.8 30.44 66.83 30 66.86 29.46H66.84ZM66.26 39L61.61 42.6C61.497 42.7222 61.436 42.8836 61.44 43.05C61.44 45.05 61.52 46.97 61.57 48.93C61.564 48.9999 61.564 49.0701 61.57 49.14L62 48.85C63.3 47.97 64.59 47.07 65.89 46.2C65.9885 46.1471 66.0699 46.0673 66.1247 45.97C66.1796 45.8726 66.2057 45.7616 66.2 45.65C66.2 44.05 66.2 42.45 66.2 40.85L66.26 39ZM62 66.87H66.26V58.53H66.09C64.77 59.29 63.45 60.06 62.09 60.8C61.996 60.8513 61.9209 60.9315 61.8759 61.0288C61.8309 61.126 61.8183 61.2351 61.84 61.34C61.84 63.08 61.9 64.82 61.94 66.57C61.9534 66.6712 61.9734 66.7714 62 66.87ZM61.7 58.34L61.9 58.4L66.21 55.81V48.75C64.74 49.75 63.29 50.75 61.86 51.68C61.8034 51.7381 61.7592 51.807 61.7299 51.8826C61.7007 51.9582 61.6871 52.039 61.69 52.12C61.69 52.77 61.69 53.42 61.69 54.12L61.7 58.34ZM61.23 31.13L66.84 26.58C66.9394 26.4635 66.9896 26.3129 66.98 26.16C66.98 25.24 66.98 24.32 67.07 23.39C67.16 22.46 67.22 21.63 67.3 20.75L67.13 20.6C67.027 20.8078 66.8994 21.0026 66.75 21.18L61.31 26.18C61.19 26.29 61.03 26.45 61.03 26.58C61.03 27.87 61.14 29.16 61.19 30.46C61.16 30.66 61.17 30.86 61.19 31.13H61.23ZM55.24 62.38C56.69 61.48 58.04 60.65 59.37 59.81C59.4289 59.7532 59.4753 59.6847 59.5063 59.6089C59.5373 59.5332 59.5521 59.4518 59.55 59.37C59.55 57.44 59.47 55.51 59.42 53.58C59.4268 53.4634 59.4268 53.3466 59.42 53.23C58.04 54.11 56.72 54.95 55.42 55.8C55.3721 55.8469 55.3342 55.9029 55.3084 55.9648C55.2827 56.0266 55.2696 56.093 55.27 56.16C55.27 57.97 55.27 59.77 55.27 61.57L55.24 62.38ZM59.16 35.9H58.97L58.56 36.19C57.74 36.85 56.92 37.51 56.08 38.19C55.67 38.5 55.2 38.74 54.78 39.02C54.7252 39.0577 54.679 39.1066 54.6446 39.1635C54.6101 39.2204 54.5881 39.284 54.58 39.35C54.58 40.24 54.5 41.13 54.48 42.02C54.4493 42.1176 54.4493 42.2224 54.48 42.32C54.8556 43.1211 54.9744 44.0188 54.82 44.89C54.8098 45.0565 54.8098 45.2235 54.82 45.39C54.93 45.39 54.96 45.39 54.98 45.33L58.98 41.91C59.0694 41.8185 59.1227 41.6977 59.13 41.57L59.16 35.9ZM55 53.44H55.17C56.5 52.54 57.85 51.64 59.17 50.73C59.2279 50.6724 59.2737 50.6038 59.3046 50.5283C59.3355 50.4527 59.351 50.3717 59.35 50.29C59.35 48.42 59.29 46.54 59.25 44.67C59.25 44.67 59.25 44.6 59.19 44.54L59.01 44.67C57.72 45.67 56.42 46.67 55.14 47.74C55.0133 47.8792 54.9452 48.0619 54.95 48.25C54.95 48.92 55 49.6 55 50.25C55 51.34 55 52.39 55 53.44ZM54.66 36.61C54.7312 36.5702 54.7982 36.5233 54.86 36.47L58.72 33.27C58.8163 33.1974 58.8926 33.1015 58.9416 32.9913C58.9906 32.881 59.0107 32.7601 59 32.64C59 31.3 58.94 29.96 58.91 28.64C58.91 28.54 58.91 28.43 58.91 28.21C57.53 29.36 56.22 30.44 54.91 31.54C54.8418 31.6008 54.7863 31.6745 54.7468 31.7569C54.7074 31.8393 54.6846 31.9287 54.68 32.02C54.65 33.51 54.65 35 54.65 36.61H54.66ZM59.66 67.04V62.32H59.51L55.58 64.59C55.5322 64.6168 55.4911 64.6541 55.4599 64.6992C55.4287 64.7442 55.4082 64.7958 55.4 64.85C55.4 65.51 55.49 66.17 55.54 66.85C55.54 67.11 55.7 67.14 55.92 67.13L58.31 67C58.76 67 59.2 67 59.63 67L59.66 67.04Z" fill="black"/>
<path d="M15.27 52C15.74 51.37 16.18 50.72 16.68 50.1C19.26 46.8667 21.8467 43.64 24.44 40.42C24.77 40.01 25.06 39.56 25.39 39.14C25.4738 39.0342 25.596 38.9659 25.73 38.95C26.73 38.95 27.73 38.89 28.73 38.95C29.56 39 30.38 39.16 31.29 39.29L31 39.7C28.58 42.35 26.13 44.98 23.74 47.7C22.42 49.19 21.19 50.75 19.93 52.29C19.8635 52.3893 19.7693 52.4669 19.6591 52.5131C19.5488 52.5593 19.4275 52.5722 19.31 52.55C18.51 52.46 17.7 52.41 16.9 52.36C16.6874 52.3348 16.4726 52.3348 16.26 52.36C16.0778 52.3981 15.8887 52.3845 15.7138 52.3209C15.5389 52.2573 15.3852 52.1462 15.27 52Z" fill="black"/>
<path d="M23 52.66C25.71 48.79 29.1 45.66 32 41.87C32 42.15 32 42.29 32 42.43C32 44.81 32 47.1733 32 49.52C32.0222 49.7125 32.0589 49.9031 32.11 50.09C32.2497 50.6654 32.3466 51.2503 32.4 51.84C32.4 52.43 31.88 52.84 31.17 52.84C28.45 52.81 25.77 52.73 23 52.66Z" fill="black"/>
<path d="M22.9 39.05C20.5 42.61 17.61 45.75 14.9 49.13C14.9 48.99 14.9 48.84 14.9 48.7C14.9 46 14.9 43.31 14.99 40.61C15.0036 40.1953 15.0882 39.7861 15.24 39.4C15.323 39.208 15.4641 39.0468 15.6435 38.9391C15.8229 38.8315 16.0315 38.7828 16.24 38.8C17.24 38.9 18.24 39.01 19.24 39.04C20.44 39.08 21.64 39.05 22.9 39.05Z" fill="black"/>
</svg>
