<?xml version="1.0" encoding="utf-8"?>
<!-- Generator: Adobe Illustrator 24.3.0, SVG Export Plug-In . SVG Version: 6.00 Build 0)  -->
<svg version="1.1" id="Layer_1" xmlns="http://www.w3.org/2000/svg" xmlns:xlink="http://www.w3.org/1999/xlink" x="0px" y="0px"
	 viewBox="0 0 227 227" style="enable-background:new 0 0 227 227;" xml:space="preserve">
<path d="M19.9,90c1.5-19.7,0.5-39.6,2.5-59.2c0.8-3.1,2.8-5.4,6.1-5.5c6.8,0.1,13.8-0.6,20.5,0.4c1.1,0.5,2.4,0.5,3.5-0.1
	c3.6-1.6,7.3,1.2,7.4,5.4c0.1,4.5,0.2,9,0.4,13.4c-0.7,11.5,16,31.2,26.2,18.9c5.4-8.7,5.2-19.4,5.3-29.3c-0.5-4.2,2.8-8.3,7-8.7
	c8.8-0.9,18.1-2.6,26.9-1.4c4.1,2.3,6.2,7.1,9,10.7c9.4,13,17,27.7,27.3,39.8c7.5,2.6,15.9,3.1,23.6,5.4c3.4,0.8,5.3,3.7,7.2,6.2
	c4.4,6,8.6,12.3,12.8,18.4c3.9,5.4,6.7,11.5,8.2,18c2.3,9.7-8.9,13.4-15.3,17.7c-6.1,3.4-12.1,6.8-17.4,11.4
	c-8.7,6.9-14.3-7.6-18.8-13.1c-5.7-8.3-10.7-16.6-15.1-25.7c-1-1.4-0.9-4-0.6-6c1.3-7.9,2.9-15.8,4.4-23.6c0.2-0.8,0-1.7-0.4-2.4
	c-7.1-10.8-13.9-21.6-21.2-32.3c-0.2,13.3,0.6,26.4,2.9,39.5c1.8,18.8,0.6,37.8,1,56.6c-0.5,5.1,1.3,13-5.1,14.8
	c-0.4,0.1-0.7,0.3-1,0.6c-8.8,14.2-21.4,25.3-32.9,37.3c-1.2,2.6-1.9,5.4-5.4,5.7c-5.5,3.2-11.5,4-17.7,4.6
	c-15.5,1-8.7-6.8-14.3-10.5c-2.8-1.8-3.7-5.4-5.9-7.7c-5.9-5.4-10.4-11.8-15.1-18.2c-2.2-3-4.7-5.9-7.2-8.8
	c-2.3-2.4-6.4-3.7-6.5-7.7C19.8,138.8,19.7,106.5,19.9,90z M33.7,36.5c0.5,37.4-4.5,75.4,0.8,112.5c4.8,1.8,10.3,2.6,14.7,5.8
	c4.2,2.6,7.9,6.1,10.7,10.2c5,6.9,7.3,15,9.1,23.2c0.7,2.6,2.5,4.5,4,6.9c2.6-0.5,5.5-1.1,8.4-1.7c0.4-0.2,0.7-0.5,0.8-0.9
	c0.9-6.1,3.4-11.6,5.8-17.2c6.2-14.2,17.3-22.8,31.3-28.2c1.2-0.5,1.6-0.9,1.6-2.2c-0.5-21.2,1.2-42.5-2.1-63.6
	c-2.5-13.1-1.8-26.4-1.2-39.7c0.1-1.7,0.2-3.5,0.4-5.5c0,0-13.7,0.7-13.7,0.7c0,0.9,0,1.5,0,2.1c0.2,18.9-7.4,46.7-32,39.7
	c-16-4.9-25.5-21.6-23.9-37.8c0-1.3,0.1-2.6,0.2-4.2C48.6,36.5,33.7,36.5,33.7,36.5z M177.4,138.5c7.5-5,14.8-9,22.6-13.3
	c1.3-0.7,1.7-1.6,1-3c-5-10.9-12.2-20.4-19.1-30.2c-0.4-0.6-1-1-1.6-1.2c-5.8-1.2-11.5-4.3-17.4-3.9c-0.6,0.1-1,0.6-1.2,1.1
	c-1,7.7-2,15.3-3,22.9c-0.1,0.6,0,1.2,0.3,1.7c2.5,3.7,5,7.3,7.5,10.9C170.1,128.5,173.8,133.5,177.4,138.5L177.4,138.5z"/>
<path d="M72.2,101.7c6.8-7.8,28.7-16.9,28.2,0.5c-1.7,12.8-10.6,22.7-17.7,33c-2.5,4.4-4.4,9.4-10.5,6.5c-5.9-3.3-11.4-7-15.7-12.4
	c-5.8-6.9-12.3-13.8-14.3-23c-1.5-8,4.6-13.4,12.5-11.4C61.7,94,66.7,97.8,72.2,101.7z"/>
</svg>
