<?xml version="1.0" encoding="utf-8"?>
<!-- Generator: Adobe Illustrator 24.3.0, SVG Export Plug-In . SVG Version: 6.00 Build 0)  -->
<svg version="1.1" id="Layer_1" xmlns="http://www.w3.org/2000/svg" xmlns:xlink="http://www.w3.org/1999/xlink" x="0px" y="0px"
	 viewBox="0 0 227 227" style="enable-background:new 0 0 227 227;" xml:space="preserve">
<path d="M162.3,17.8c8.7,1.6,11.2,8.2,9.4,16.3c2.8,0.4,5.3,0.8,8,1.5c0.4,0.2,0.9,0,1.1-0.4c3.2-5.5,9.3-8.5,15.4-9.4
	c14.9-0.7,9.6,31,10.4,40.9c-0.4,15.7-0.8,31.5-2.2,47.3c-0.7,8.5-0.8,17-0.3,25.5c0,3.5,0.5,11.7-5,10.2c-1.2-0.4-2.6,0.5-3.7-0.4
	c-3.1-1.7-0.8-14.6-1.2-18.5c-9.5-5.1-21-8.4-31.4-12.5c-2.5-0.9-2.5-0.9-4,1.4c-3.4,5.6-7.1,10.9-11.3,16
	c12.4,2.5,24,8.4,32.7,17.7c5.7,6.1,10.1,15.9,4.7,23.5c-4.3,7.1-10.5,12.8-18,16.4c-9,4.3-18.7,7.2-28.6,8.6
	c-24.2,4.3-48.6,0.2-72.8-1.4c-9.1-0.3-17.6-4.3-26.2-6.8c-15.6-4.8-35.5-19.3-28.1-37.8c4.6-11.9,14.9-21.2,26.9-25.3
	c16-5.9,32.9-9.6,49.6-12.2c13.2-15.2,24.5-31.9,35.1-49c4.2-6,9-11.6,14.2-16.7c1.6-2,4.7-3,5.6-5.4
	C144.4,34,145.7,18.5,162.3,17.8z M79.6,128.2c-16.6,3.2-53.8,8.5-58.4,27.5c-1.1,5.7-3,12.9,2,17.4c2.9,2.7,5.5,5.9,9,7.9
	c13.2,8.5,24.1,11.7,39.6,13.1c23.3,1.2,46.7-0.2,69.7-3.6c11.5-2.3,23.7-3.7,31.9-13c10.3-10.6-2.7-24.3-13.2-28.3
	c-4.4-2.6-9.6-3.6-14.7-3.8c-1.3,0.3-2.8-0.4-3.5-1.5c-0.4-0.6-0.8-0.4-1.2,0c-4.4,5.1-8.5,11.7-14.4,15c-3,0.8-6.6-1.1-7.1-4.3
	c0-0.3-0.4-0.5-0.7-0.6c-11.5-5.1-23.8-8.2-35.9-11.9c-0.4-0.1-0.8-0.1-1.2,0c-3.2,3-9.2,2.9-11-1.6c-0.1-0.4-0.1-0.8,0.1-1.2
	C73.6,135.5,76.3,131.8,79.6,128.2z M86.3,135.6c9.3,3,18.5,4.9,27.1,9.4c7.9,4.9,10.1,3.5,15.9-3.2c6.1-7,13-13.4,18.2-21.1
	c8.5-11.8,14.2-25.1,20.4-38.2c2.7-5.6,5.2-11.3,7.8-17c0.4-1.5,0.2-3.2,0.3-4.8c0.1-6.1,0.3-12.1,1.8-18c0.1-0.6,0-0.8-0.6-1
	c-3.3-1.1-6.4-2.2-9.9-1.5c-16.3,6-24.6,22-33,36c-7.2,11.2-16.1,21.3-24,32C102.7,117.7,95.5,127.3,86.3,135.6z M164.3,109.5
	l31.2,6.6l0.8-11.5c-8.1-2.4-15.4-7-23.6-8.9c-0.7-0.1-0.9,0.2-1.2,0.7C169.4,101.1,166.4,104.8,164.3,109.5L164.3,109.5z
	 M196.9,94.2c0.2-4.1,0.4-8.1,0.6-12.1c-5.6-1.3-11.8-3.2-17.5-2.2c-1.8,2.4-2.8,5.4-4.3,8C175.7,88,196.9,94.2,196.9,94.2z
	 M151.5,38.2c3.6-2.2,7.3-3.6,11.2-5c0.2-0.1,0.6-0.5,0.6-0.7C162.7,17,151.6,30.4,151.5,38.2z M199.3,56.2
	c-4.4,3.3-8.3,7.1-11.7,11.4l10.8,2.1C198.7,65.2,199,60.8,199.3,56.2L199.3,56.2z M199.2,41.3c-2-8.8-4.8-15.1-11-4
	C188.2,37.3,199.2,41.3,199.2,41.3z M183.5,54l9.1-7.5l-7.4-2.3L183.5,54z"/>
<path d="M115.4,171.4c-8.8,7-20.5,2.4-27.7-4.6c-0.4-0.4-1-0.5-1.5-0.2c-13.2,6.6-22.7,4.6-30.7-8.1c-1-1.8-3,1.8-4.3,2.4
	c-5.8,4.4-14,9-21.4,6.7c-1.8-1.1-2-4.2-0.1-5.3c8,0.1,15.5-4.2,21.1-9.9c4.7-5.5,7.2-2.3,10.1,2.6c1.7,2.1,3.4,4.2,5.2,6.2
	c5.3,5.5,13.5,1.4,19.2-1.5c1.9-1.2,3.7-0.8,5.4,1c2.3,2.4,4.9,4.5,7.9,6c12,6.8,14.6-7.8,20.7-0.4c4,4.7,9.6,8.3,15.9,5.8
	c4.8-1.1,8.6-6.2,13.5-6c1.8,0.6,3.1,2.8,2.4,4.7c-0.6,2-2.6,2-4.2,2.7C136,180.5,124.6,182.7,115.4,171.4z"/>
</svg>
