<?xml version="1.0" encoding="utf-8"?>
<!-- Generator: Adobe Illustrator 24.3.0, SVG Export Plug-In . SVG Version: 6.00 Build 0)  -->
<svg version="1.1" id="Layer_1" xmlns="http://www.w3.org/2000/svg" xmlns:xlink="http://www.w3.org/1999/xlink" x="0px" y="0px"
	 viewBox="0 0 227 227" style="enable-background:new 0 0 227 227;" xml:space="preserve">
<path d="M169.8,196.8c-32-2.4-64.1-4-96-7c-11.5-0.7-23-1.1-34.2-3.8c-5.6-0.5-3.6-7.5-4.4-11.4c-1.2-17-1-34.1-0.1-51.1
	c0.3-18.6-0.1-37.2,0.1-55.8c0-8-0.9-16.9-6.6-22.8C19.1,42,17.8,58.4,17.3,64.7c0.8,6.9-4.2,5.5-9,5.3c-0.4,0-1-0.5-1.1-0.8
	c-3.5-16.9,4.6-41.3,25.9-33.3c14.8,5.7,14.1,31.6,15.7,45.3c0,0,40-1.1,40-1.1c-0.1-2.9-0.2-6-0.4-9.1c-0.8-8.4-0.1-17.2-2.7-25.3
	c-1.5-3.9-1.1-3.7-5.3-3.6c-5.5-0.7-7.5,16.7-7.9,20.8c-0.1,1.6-1.6,3.6-3.5,3.3c-1.5-0.2-3-0.2-4.6-0.3c0-3-0.1-6,0-8.9
	c0.8-9.5,3.1-22.3,13.4-25.6c13.8-2.9,21.7,12.6,22.3,24.5c0.3,4.2,0.2,8.5,0.3,12.8c0,2,0.1,2.2,1.9,2.2c23.8-1,47.6-0.3,71.5,0.3
	c5.7,0.2,11.4-0.4,16.9-1.8c7.8-2,15.4,1.4,22.8,3.4c1.9,0.6,3.7,2.9,3.3,4.8c-0.6,2.6,0.2,5.1,0.2,7.7c0.1,16.5,0,33.1,0.1,49.6
	c-0.4,12.6-1.5,25.2-2.8,37.7c0.2,5.8,0.4,11.7,0.1,17.5c-0.4,7.9-10.5,5.3-15.8,6.3C189.7,196.5,178.8,196.9,169.8,196.8z
	 M43.3,143.4c-0.5,11.9-0.1,23.8,1,35.6l12.5,0.8c26.2,1.5,52.4,3.7,78.6,5.3c20.2,2.3,40.4,2.3,60.7,2c2.2,0,4.5,0,6.6,0
	c3-5.5,2-11.3,3-16.9c-18.7,4.7-26.2,2.2-43.3-5.3c-12.4,8.9-20.2,12.2-36.1,10.9c-13.4-0.1-22.1-7.4-31.9-15.5
	c-11.8,8.3-22.3,17-37.7,13.2c-5.4-0.9-3.4-11.1,2.4-9.9c2,0.1,4,0.4,5.8-0.8c1.2-0.3,2.5-0.2,3.7-0.7c5.6-2.5,11.9-4.2,16.6-8.3
	c6.2-5.1,7.1-8.4,14.6-2.3c11.3,11,28,16.2,43.4,12c5.8-1.3,11.2-4,15.7-7.9c5.7-5.5,9.4,5.6,24.4,6.5c7.3,1.1,14.8,0.7,22-1.3
	c0.9-0.1,1.6-1,1.5-1.9c0.4-6.2,1-12.1,1.4-18.3c-12.2,1.3-26,1-33.9-9.8c-10.8,6.3-23.5,7.6-35.7,5.3c-7.8-1.2-14.7-5.4-21.6-9.2
	c-7,3.1-13.8,6.9-21.3,9c-7.6,3-15.5,1.3-22.8-1.5C63.9,140.2,54.6,144.9,43.3,143.4z M209,94c-0.1-3.7-0.3-7.5-0.4-11.3
	c-0.1-3-0.1-3.1-3-3.8c-4.8-0.6-9.8-1.9-14.6-0.5c-4,1.2-8.1,1.7-12.3,1.7c-5.2-0.1-10.4-0.1-15.6-0.2c-20.8-1-41.6-0.1-62.3-0.9
	c0,15.1-1,30.1,0.4,45.1c3.9-1.5,7.1-4.2,10.6-6.5c3.8-3.1,7.8,1.2,11.5,2.5c11.6,4.9,25.6,9.2,37.6,3.6c4.9-1.9,9.2-6.5,14.6-6.1
	c4.5,0.6,6.7,5.3,10.5,7.3c6.6,3.9,14.4,6.7,22.1,5.8c-1.1-43.6,7-16.5-23.9-33.3c-8.2,5.5-16.3,10.2-26.7,8.3
	c-4.1-0.7-8.9-1.9-11.2-5.8c-0.5-1.1-1.1-3.5,0.7-3.5c2.9-0.1,5.7-0.4,8.6-0.3c22.9,0.9,26.4-15.2,33.3-7.5
	C193.5,92.9,202.8,96.1,209,94z M49.2,107l40.3-0.6V92.9c-13.7-0.1-27-1.1-40.3,2.1V107z M89,128v-7.7l-39.8,0.6v12.2
	c0.7,0.1,1.1,0.1,1.8,0c19.5-2.9,17.7-12.6,26-7.6C80.7,128.2,84.8,128.3,89,128z"/>
</svg>
