<svg width="80" height="80" viewBox="0 0 80 80" fill="none" xmlns="http://www.w3.org/2000/svg">
<path d="M37.89 19.5L37.2 19.63L35.86 19.85C31.761 20.7164 27.903 22.4747 24.56 25C20.0275 28.2717 16.6514 32.8986 14.9188 38.2132C13.1862 43.5279 13.1866 49.2556 14.92 54.57C17.1574 61.4403 21.9031 67.2144 28.21 70.74C31.3933 72.6162 34.9442 73.7828 38.62 74.16C41.3429 74.4443 44.0936 74.2958 46.77 73.72C53.6292 72.3619 59.8797 68.8603 64.62 63.72C66.5159 61.7097 68.0365 59.3762 69.11 56.83C70.7021 52.8531 71.2744 48.5412 70.7749 44.2866C70.2754 40.0321 68.7199 35.97 66.25 32.47C63.9587 29.3986 61.2062 26.7 58.09 24.47C55.9079 22.8499 53.427 21.6774 50.79 21.02C50.597 20.9614 50.3998 20.9179 50.2 20.89C49.9762 20.8658 49.7509 20.9178 49.5603 21.0376C49.3698 21.1573 49.2252 21.3379 49.15 21.55C49.0795 21.7692 49.0938 22.007 49.1901 22.2162C49.2864 22.4254 49.4576 22.5909 49.67 22.68C49.8762 22.7676 50.0906 22.8346 50.31 22.88C52.4509 23.4119 54.4817 24.3156 56.31 25.55C58.8146 27.263 61.0984 29.2782 63.11 31.55C65.6238 34.3429 67.4264 37.7013 68.3648 41.3398C69.3032 44.9784 69.3495 48.7897 68.5 52.45C67.622 56.5448 65.5312 60.2803 62.5 63.17C58.2591 67.442 52.8783 70.4032 47 71.7C43.3572 72.5642 39.5628 72.5642 35.92 71.7C30.2579 70.3088 25.205 67.1065 21.53 62.58C19.9735 60.8137 18.808 58.7384 18.11 56.49C17.86 55.67 17.7 54.82 17.46 54C16.7323 51.5255 16.428 48.9459 16.56 46.37C16.5958 44.9938 16.7632 43.6242 17.06 42.28C17.5341 40.183 18.414 38.1991 19.65 36.44C20.54 35.24 21.45 34.06 22.3 32.83C24.204 30.1749 26.7315 28.0286 29.66 26.58C32.1172 25.3965 34.7146 24.5296 37.39 24C39.6755 23.3821 42.0758 23.3204 44.39 23.82C44.7887 23.8929 45.1987 23.8759 45.59 23.77C45.8156 23.7192 46.0166 23.5918 46.1588 23.4095C46.301 23.2271 46.3756 23.0012 46.37 22.77C46.4121 22.5379 46.4006 22.2992 46.3365 22.0722C46.2724 21.8452 46.1573 21.6358 46 21.46C45.6506 21.1421 45.2723 20.8575 44.87 20.61C44.38 20.33 43.87 20.14 43.34 19.9C43.076 18.4053 43.002 16.8832 43.12 15.37L43.56 15.26C44.27 15.14 44.99 15.06 45.69 14.9C46.0661 14.8452 46.4063 14.647 46.6394 14.3468C46.8724 14.0466 46.9802 13.6679 46.94 13.29C46.9386 13.0214 46.9118 12.7535 46.86 12.49C46.74 11.62 46.61 10.75 46.5 9.86999C46.44 9.39999 46.43 8.92999 46.38 8.45999C46.3669 7.96487 46.1589 7.49492 45.8013 7.15226C45.4436 6.8096 44.9652 6.62192 44.47 6.62999C44.2237 6.60999 43.9763 6.60999 43.73 6.62999C42.73 6.71999 41.73 6.78999 40.73 6.93999C38.1942 7.22416 35.7005 7.8048 33.3 8.66999C33.1137 8.71846 32.9398 8.80591 32.7898 8.92658C32.6399 9.04726 32.5172 9.19839 32.43 9.36999C32.3724 9.48888 32.2866 9.59188 32.18 9.66999C32.041 9.79175 31.9384 9.94966 31.8837 10.1262C31.829 10.3027 31.8242 10.4909 31.87 10.67C31.92 11.05 31.95 11.43 31.99 11.81C32.07 12.68 32.11 13.57 32.25 14.43C32.2886 15.0153 32.5533 15.5627 32.9881 15.9564C33.4229 16.3502 33.9937 16.5594 34.58 16.54C35.28 16.54 35.98 16.54 36.68 16.48L37.62 16.39L37.89 19.5ZM29.89 60.84C30.15 60.733 30.3981 60.599 30.63 60.44C31.44 59.83 32.2 59.15 33.03 58.56C34.66 57.4 36.35 56.31 38.03 55.15C39.22 54.3 40.38 53.41 41.56 52.53C41.83 52.33 42.08 52.11 42.35 51.92C42.5371 51.8089 42.6879 51.6457 42.7838 51.4504C42.8797 51.255 42.9166 51.036 42.89 50.82C42.81 50.15 42.69 49.48 42.64 48.82C42.43 46.03 42.18 43.24 42.04 40.45C41.9 37.66 41.89 34.58 41.81 31.65C41.8253 31.4937 41.8253 31.3363 41.81 31.18C41.7792 30.982 41.6786 30.8015 41.5264 30.6712C41.3742 30.5409 41.1804 30.4692 40.98 30.4692C40.7796 30.4692 40.5858 30.5409 40.4336 30.6712C40.2814 30.8015 40.1808 30.982 40.15 31.18C40.0935 31.4191 40.0667 31.6643 40.07 31.91C40.07 33.24 40.07 34.58 40.07 35.91C40.07 39.54 40.18 43.17 40.55 46.79C40.66 47.92 40.74 49.04 40.88 50.16C40.9196 50.3454 40.8946 50.5387 40.8091 50.7079C40.7236 50.8771 40.5828 51.012 40.41 51.09C39.81 51.45 39.26 51.87 38.66 52.25C36.1942 53.8397 33.8142 55.5588 31.53 57.4L29.29 59.14C29.1026 59.2504 28.9594 59.4224 28.8846 59.6266C28.8099 59.8309 28.8082 60.0547 28.88 60.26C28.9688 60.4572 29.1191 60.6203 29.3084 60.7249C29.4977 60.8295 29.7158 60.8699 29.93 60.84H29.89ZM23.07 44.33C22.92 43.89 22.8 43.53 22.67 43.17C22.6331 43.0388 22.5662 42.918 22.4746 42.817C22.383 42.7161 22.2692 42.6378 22.1422 42.5884C22.0151 42.5389 21.8784 42.5196 21.7426 42.5321C21.6069 42.5445 21.4759 42.5883 21.36 42.66C20.7166 42.9944 20.1744 43.4951 19.79 44.11C19.6818 44.308 19.6138 44.5256 19.59 44.75C19.5613 44.9567 19.5835 45.1674 19.6549 45.3635C19.7262 45.5597 19.8444 45.7355 19.9992 45.8755C20.154 46.0155 20.3407 46.1155 20.543 46.1669C20.7454 46.2182 20.9572 46.2193 21.16 46.17C21.696 46.0588 22.1787 45.7698 22.53 45.35C22.7449 45.0296 22.9259 44.6878 23.07 44.33ZM41.29 66.1C41.2583 66.3252 41.2756 66.5545 41.3407 66.7724C41.4058 66.9902 41.5172 67.1915 41.6672 67.3624C41.8172 67.5333 42.0023 67.6698 42.2099 67.7625C42.4175 67.8553 42.6426 67.9022 42.87 67.9C43.2565 67.8896 43.6238 67.7294 43.8944 67.4533C44.1649 67.1771 44.3175 66.8066 44.32 66.42C44.2914 66.0357 44.1284 65.6738 43.8596 65.3976C43.5908 65.1215 43.2334 64.9489 42.85 64.91C42.4891 64.8814 42.1303 64.987 41.8424 65.2066C41.5545 65.4262 41.3578 65.7443 41.29 66.1ZM64.6 48.8C64.587 48.4463 64.4345 48.1121 64.176 47.8705C63.9174 47.6288 63.5738 47.4992 63.22 47.51C62.8448 47.5155 62.4838 47.6544 62.2017 47.9017C61.9195 48.1491 61.7346 48.4888 61.68 48.86C61.7031 49.2234 61.866 49.5637 62.1344 49.8098C62.4028 50.0558 62.756 50.1885 63.12 50.18C63.4951 50.1785 63.8558 50.0356 64.1302 49.7798C64.4045 49.524 64.5723 49.1741 64.6 48.8Z" fill="white"/>
<path d="M37.89 19.5L37.61 16.37L36.67 16.46C35.97 16.46 35.27 16.56 34.57 16.52C33.9837 16.5394 33.4129 16.3301 32.9781 15.9364C32.5433 15.5427 32.2786 14.9953 32.24 14.41C32.1 13.55 32.06 12.66 31.98 11.79C31.98 11.41 31.91 11.03 31.86 10.65C31.8142 10.4709 31.819 10.2827 31.8737 10.1062C31.9284 9.92964 32.031 9.77173 32.17 9.64997C32.2765 9.57186 32.3624 9.46887 32.42 9.34997C32.5072 9.17837 32.6299 9.02724 32.7798 8.90657C32.9298 8.78589 33.1037 8.69844 33.29 8.64997C35.6905 7.78478 38.1842 7.20414 40.72 6.91997C41.72 6.76997 42.72 6.69997 43.72 6.60997C43.9663 6.58997 44.2137 6.58997 44.46 6.60997C44.9552 6.6019 45.4336 6.78958 45.7913 7.13224C46.1489 7.4749 46.3569 7.94485 46.37 8.43997C46.42 8.90997 46.43 9.37997 46.49 9.84997C46.6 10.73 46.73 11.6 46.85 12.47C46.9018 12.7335 46.9286 13.0014 46.93 13.27C46.9702 13.6479 46.8624 14.0266 46.6294 14.3268C46.3963 14.627 46.0561 14.8252 45.68 14.88C44.98 15.04 44.26 15.12 43.55 15.24L43.11 15.35C42.992 16.8632 43.066 18.3853 43.33 19.88C43.84 20.12 44.33 20.31 44.86 20.59C45.2623 20.8375 45.6406 21.1221 45.99 21.44C46.152 21.5988 46.2772 21.7913 46.3567 22.0039C46.4362 22.2164 46.468 22.4438 46.45 22.67C46.4557 22.9011 46.381 23.1271 46.2388 23.3094C46.0966 23.4918 45.8956 23.6192 45.67 23.67C45.2787 23.7758 44.8687 23.7929 44.47 23.72C42.1558 23.2203 39.7555 23.2821 37.47 23.9C34.7939 24.4591 32.1997 25.3563 29.75 26.57C26.8215 28.0185 24.2939 30.1649 22.39 32.82C21.54 34.05 20.63 35.23 19.74 36.43C18.504 38.1891 17.6241 40.173 17.15 42.27C16.8532 43.6142 16.6858 44.9838 16.65 46.36C16.518 48.9358 16.8223 51.5155 17.55 53.99C17.79 54.81 17.95 55.66 18.2 56.48C18.898 58.7283 20.0635 60.8037 21.62 62.57C25.295 67.0965 30.3479 70.2988 36.01 71.69C39.6232 72.5433 43.3852 72.5467 47 71.7C53 70.33 56.69 68.64 61 64.31C64.0312 61.4203 66.122 57.6848 67 53.59C67.8495 49.9297 67.8032 46.1184 66.8648 42.4798C65.9264 38.8413 64.1238 35.4829 61.61 32.69C59.5984 30.4182 57.3146 28.403 54.81 26.69C52.9817 25.4556 50.9509 24.5518 48.81 24.02C48.5918 23.9699 48.3779 23.903 48.17 23.82C47.71 23.6 47.37 21.82 47.51 21.39C47.65 20.96 49.65 20.87 50.14 20.93C50.3398 20.9579 50.537 21.0013 50.73 21.06C53.367 21.7174 55.8479 22.8899 58.03 24.51C61.1462 26.74 63.8988 29.4385 66.19 32.51C68.6599 36.01 70.2154 40.0721 70.7149 44.3266C71.2144 48.5811 70.6421 52.8931 69.05 56.87C67.9765 59.4162 66.4559 61.7497 64.56 63.76C59.8197 68.9002 53.5692 72.4019 46.71 73.76C44.0336 74.3358 41.2829 74.4843 38.56 74.2C34.8842 73.8228 31.3333 72.6562 28.15 70.78C21.8618 67.238 17.1383 61.4577 14.92 54.59C13.1819 49.2729 13.1791 43.5409 14.9119 38.222C16.6447 32.9032 20.0234 28.2729 24.56 25C27.9012 22.4676 31.7593 20.7024 35.86 19.83L37.2 19.61L37.89 19.5ZM33.72 10.62C33.7408 11.7848 33.8613 12.9457 34.08 14.09C34.0989 14.2262 34.1656 14.3512 34.2682 14.4428C34.3708 14.5344 34.5025 14.5865 34.64 14.59C34.9085 14.6301 35.1815 14.6301 35.45 14.59C36.63 14.45 37.82 14.32 39 14.12C40.82 13.82 42.64 13.47 44.46 13.12C44.61 13.12 44.75 13.05 44.89 13.02L44.34 8.57997C42.66 8.32997 35.85 9.60997 33.72 10.62ZM39.39 16.07L39.84 19.47H41.19C41.19 18.83 41.19 18.22 41.19 17.62C41.235 16.9962 41.2149 16.3695 41.13 15.75L39.39 16.07Z" fill="black"/>
<path d="M32.15 61.69C31.55 61.69 30 63.21 28.83 61.94C27.88 61.2 28.83 59.41 29.24 59.09L31.48 57.35C33.7642 55.5088 36.1442 53.7897 38.61 52.2C39.21 51.82 39.76 51.4 40.36 51.04C40.5328 50.962 40.6736 50.8271 40.7591 50.6579C40.8446 50.4888 40.8696 50.2954 40.83 50.11C40.69 48.99 40.61 47.87 40.5 46.74C40.13 43.12 40.05 39.49 40.02 35.86C40.02 34.53 40.02 33.19 40.02 31.86C40.0167 31.6143 40.0435 31.3691 40.1 31.13C40.99 28.94 43.1 29.23 43.21 30.63C43.74 31.69 43.89 31.58 43.98 32.02C43.9953 32.1763 43.9953 32.3337 43.98 32.49C44.06 35.42 44.07 38.35 44.21 41.28C44.35 44.21 44.6 46.86 44.81 49.65C44.81 50.33 44.98 51 45.05 51.65C45.0795 51.8637 45.0448 52.0814 44.9505 52.2755C44.8561 52.4695 44.7063 52.6312 44.52 52.74C44.25 52.93 44 53.15 43.73 53.35C42.55 54.23 41.39 55.13 40.2 55.97C38.56 57.13 36.87 58.22 35.2 59.38C34.38 59.97 33.62 60.65 32.81 61.27C32.602 61.428 32.3812 61.5685 32.15 61.69Z" fill="black"/>
<path d="M24.28 45C24.0818 45.4774 23.8408 45.936 23.56 46.37C23.0826 46.93 22.4312 47.3138 21.71 47.46C21.4366 47.5283 21.1505 47.5284 20.8771 47.4603C20.6036 47.3921 20.3511 47.2578 20.1417 47.0692C19.9323 46.8805 19.7725 46.6433 19.6763 46.3784C19.5801 46.1135 19.5505 45.829 19.59 45.55C19.6205 45.2497 19.7161 44.9597 19.87 44.7C20.3842 43.854 21.121 43.1655 22 42.71C22.1554 42.6111 22.332 42.5502 22.5154 42.5324C22.6988 42.5147 22.8838 42.5404 23.0554 42.6077C23.2269 42.6749 23.3801 42.7818 23.5026 42.9194C23.625 43.0571 23.7132 43.2218 23.76 43.4C23.92 43.87 24.07 44.36 24.28 45Z" fill="black"/>
<path d="M40.34 66.66C40.4264 66.2314 40.6658 65.8489 41.0136 65.5839C41.3614 65.3189 41.7938 65.1895 42.23 65.22C42.6917 65.272 43.1208 65.4831 43.4438 65.817C43.7668 66.1509 43.9634 66.5869 44 67.05C44.0002 67.5189 43.8174 67.9693 43.4906 68.3055C43.1638 68.6416 42.7187 68.837 42.25 68.85C41.9738 68.853 41.7002 68.796 41.4481 68.683C41.196 68.5701 40.9715 68.4037 40.7899 68.1955C40.6083 67.9874 40.4741 67.7423 40.3964 67.4772C40.3187 67.2121 40.2995 66.9333 40.34 66.66Z" fill="black"/>
<path d="M65.12 47.54C65.0852 47.9664 64.8928 48.3645 64.5803 48.6566C64.2679 48.9488 63.8577 49.114 63.43 49.12C63.0146 49.1286 62.612 48.9762 62.3064 48.6948C62.0007 48.4134 61.8157 48.0247 61.79 47.61C61.8499 47.1876 62.0596 46.8007 62.3808 46.5199C62.702 46.2391 63.1134 46.083 63.54 46.08C63.7396 46.072 63.9389 46.1034 64.1264 46.1724C64.3139 46.2415 64.486 46.3468 64.6327 46.4824C64.7795 46.618 64.898 46.7812 64.9816 46.9627C65.0653 47.1442 65.1123 47.3404 65.12 47.54Z" fill="black"/>
<path d="M33.72 10.62C35.85 9.61999 42.66 8.32999 44.34 8.61999L44.89 13.06C44.75 13.06 44.61 13.14 44.46 13.16C42.64 13.5 40.82 13.85 39 14.16C37.82 14.36 36.63 14.49 35.45 14.63C35.1815 14.6701 34.9085 14.6701 34.64 14.63C34.5025 14.6266 34.3708 14.5744 34.2682 14.4828C34.1656 14.3912 34.0989 14.2662 34.08 14.13C33.859 12.9726 33.7386 11.7982 33.72 10.62Z" fill="black"/>
<path d="M39.39 16.07L41.13 15.75C41.2149 16.3696 41.235 16.9963 41.19 17.62C41.19 18.22 41.19 18.83 41.19 19.47H39.84L39.39 16.07Z" fill="black"/>
</svg>
