<svg width="80" height="80" viewBox="0 0 80 80" fill="none" xmlns="http://www.w3.org/2000/svg">
<path d="M24.29 66C23.24 67.09 22.22 68.17 21.18 69.23C20.9752 69.4554 20.7395 69.6507 20.48 69.81C20.2726 69.9533 20.0306 70.0383 19.7792 70.0563C19.5277 70.0742 19.2761 70.0244 19.0504 69.9121C18.8248 69.7998 18.6334 69.629 18.4961 69.4176C18.3589 69.2062 18.2808 68.9619 18.27 68.71C18.16 66.96 18.13 65.2 18.13 63.45C18.13 62.45 18.26 61.45 18.31 60.45C18.3151 60.3009 18.2732 60.1539 18.19 60.03C16.5811 57.1995 16.0217 53.8923 16.61 50.69C16.69 50.06 16.81 49.42 16.93 48.8C16.99 48.51 16.93 48.4 16.63 48.29C15.8626 48.0133 15.1171 47.679 14.4 47.29C14.1771 47.1712 13.9875 46.9985 13.8487 46.7875C13.7098 46.5765 13.6261 46.334 13.6052 46.0823C13.5843 45.8306 13.6269 45.5776 13.7291 45.3466C13.8312 45.1156 13.9897 44.9139 14.19 44.76C15.71 43.47 17.27 42.24 18.82 40.99C19.28 40.63 19.67 40.16 20.33 40.14C20.44 40.14 20.57 39.92 20.65 39.79C22.1389 37.3306 23.9369 35.0722 26 33.07L26.83 32.33C26.83 32.33 26.83 32.33 26.83 32.2C26.29 32.13 25.75 32.07 25.22 31.99C23.4 31.72 21.59 31.42 19.77 31.19C18.33 31.02 16.87 30.98 15.43 30.81C13.99 30.64 12.36 30.39 10.83 30.11C10.3853 30.0245 9.96916 29.8285 9.62002 29.54C9.00002 29.05 9.11002 28.39 9.46002 27.7C10.119 26.7617 10.989 25.991 12 25.45C16.1771 22.3868 20.5572 19.6105 25.11 17.14C31.72 13.24 38.33 9.30002 45 5.37002C45.222 5.20025 45.4836 5.09001 45.7601 5.04976C46.0367 5.00951 46.3189 5.04058 46.58 5.14002C46.7207 5.17926 46.8694 5.17926 47.01 5.14002C47.1732 5.07623 47.3488 5.05057 47.5234 5.065C47.6981 5.07944 47.8671 5.13358 48.0176 5.22331C48.1681 5.31303 48.2961 5.43595 48.3918 5.5827C48.4876 5.72944 48.5485 5.89613 48.57 6.07002C48.6849 6.7653 48.6849 7.47473 48.57 8.17002C48.02 11.09 47.44 14 46.8 16.89C45.99 20.59 45.23 24.31 44.23 27.97C43.23 31.45 42 34.86 40.9 38.31C39.9 41.38 39 44.46 38.06 47.54C37.94 47.96 37.89 48.4 37.78 48.82C37.7256 49.0871 37.5945 49.3325 37.4026 49.5262C37.2108 49.7198 36.9666 49.8532 36.7 49.91C36.5265 49.9789 36.3496 50.039 36.17 50.09C35.86 50.09 35.46 50.23 35.25 50.09C34.47 49.54 33.51 49.18 33.25 48.09C32.66 45.8 32.01 43.51 31.35 41.23C30.69 38.95 29.91 36.39 29.16 33.87C28.5512 34.3818 27.9767 34.933 27.44 35.52C26.08 37.21 24.76 38.94 23.44 40.67C23.3455 40.8835 23.3177 41.1205 23.36 41.35C23.3815 41.8355 23.4282 42.3194 23.5 42.8C23.72 44.39 23.95 45.97 24.18 47.56C24.2531 47.9088 24.2316 48.2708 24.1179 48.6085C24.0041 48.9462 23.8022 49.2474 23.533 49.4809C23.2638 49.7144 22.9371 49.8717 22.5867 49.9366C22.2364 50.0015 21.875 49.9716 21.54 49.85C20.94 49.67 20.36 49.44 19.68 49.2C19.56 50.13 19.42 51 19.33 51.89C19.0082 53.9641 19.2966 56.087 20.16 58C20.32 58.29 20.45 58.49 20.8 58.33C20.8659 58.3154 20.9342 58.3154 21 58.33C22.62 58.33 24.23 58.39 25.85 58.47C26.269 58.5106 26.68 58.6116 27.07 58.77C27.3293 58.8277 27.5688 58.9528 27.7644 59.1326C27.9599 59.3124 28.1045 59.5407 28.1836 59.7943C28.2627 60.0478 28.2736 60.3178 28.215 60.5769C28.1564 60.836 28.0305 61.0751 27.85 61.27C27.36 61.96 26.85 62.61 26.3 63.27L25.92 63.81L28.32 64.68C30.4389 65.3811 32.649 65.7686 34.88 65.83C35 65.83 35.21 65.83 35.24 65.76C35.46 65.29 35.96 65.19 36.3 64.9C37.83 63.7416 39.2105 62.398 40.41 60.9C40.5934 60.6238 40.7903 60.3568 41 60.1C41.2144 59.8356 41.5057 59.6444 41.8337 59.5531C42.1616 59.4617 42.5098 59.4746 42.83 59.59C43.1172 59.7213 43.3536 59.9428 43.5034 60.2207C43.6532 60.4987 43.7082 60.818 43.66 61.13C43.66 61.43 43.66 61.73 43.58 62.13L44 61.67C45.6811 59.6164 46.9478 57.2561 47.73 54.72C48.4612 52.2963 48.9371 49.8027 49.15 47.28C49.62 43.76 50.05 40.21 51.49 36.91C52.2497 34.8426 53.6515 33.0729 55.49 31.86C57.0322 31.0191 58.7377 30.5211 60.49 30.4C61.8761 30.3084 63.2581 30.6313 64.4601 31.3276C65.6622 32.0239 66.6298 33.0621 67.24 34.31C68.2671 36.5742 68.455 39.13 67.77 41.52C67.1103 43.4673 66.2171 45.3275 65.11 47.06C64.5 48.16 63.95 49.3 63.44 50.46C62.9756 51.4665 62.9218 52.6145 63.29 53.66C63.3605 53.8298 63.3941 54.0127 63.3887 54.1965C63.3833 54.3803 63.339 54.5608 63.2586 54.7262C63.1783 54.8916 63.0638 55.0381 62.9227 55.1559C62.7816 55.2738 62.6171 55.3604 62.44 55.41C62.2707 55.4637 62.0923 55.4829 61.9154 55.4665C61.7385 55.4501 61.5667 55.3984 61.4101 55.3146C61.2535 55.2307 61.1153 55.1163 61.0036 54.9781C60.892 54.8399 60.8092 54.6807 60.76 54.51C60.7 54.35 60.65 54.19 60.6 54.03C60.1742 52.5742 60.2661 51.0158 60.86 49.62C61.6443 47.6507 62.6295 45.7674 63.8 44C64.6344 42.6474 65.1887 41.1409 65.43 39.57C65.6971 37.9866 65.3733 36.3603 64.52 35C64.1077 34.3338 63.5089 33.8033 62.7978 33.4745C62.0867 33.1456 61.2947 33.0328 60.52 33.15C60.05 33.15 59.59 33.32 59.12 33.39C56.44 33.78 55.12 35.66 54.03 37.9C53.2194 39.8162 52.6776 41.8354 52.42 43.9C52.01 46.53 51.78 49.19 51.28 51.81C50.28 57.16 48.1 61.96 43.93 65.67C43.8552 65.741 43.7955 65.8262 43.7542 65.9207C43.713 66.0151 43.6912 66.1169 43.69 66.22C43.76 67.4 43.89 68.57 43.95 69.74C43.9939 70.2924 43.9568 70.8483 43.84 71.39C43.8034 71.6275 43.7054 71.8514 43.5558 72.0394C43.4061 72.2274 43.2099 72.373 42.9866 72.4619C42.7634 72.5508 42.5208 72.5799 42.2828 72.5462C42.0449 72.5126 41.8199 72.4174 41.63 72.27C40.05 71.22 38.55 70 37 68.87C36.7998 68.7091 36.556 68.6116 36.3 68.59C32.1518 68.6511 28.0443 67.7653 24.29 66ZM45 8.66002V8.59002L40.51 11.23C35.66 14.05 30.86 16.9 26 19.69C21.76 22.15 17.54 24.6 13.54 27.43C13.3518 27.5699 13.1715 27.7201 13 27.88C14 27.99 14.94 28.12 15.84 28.19C18.2982 28.3218 20.748 28.5788 23.18 28.96C25.02 29.3 26.89 29.42 28.76 29.61C28.8599 29.6137 28.9594 29.5949 29.0511 29.5551C29.1428 29.5153 29.2244 29.4555 29.29 29.38C30.69 27.48 32.02 25.53 33.45 23.65C36.72 19.37 40.03 15.13 43.32 10.87C43.92 10.14 44.47 9.40002 45 8.66002Z" fill="black"/>
</svg>
