<svg width="80" height="80" viewBox="0 0 80 80" fill="none" xmlns="http://www.w3.org/2000/svg">
<path d="M3.43005 33.6C3.53005 33.03 3.61005 32.45 3.72005 31.88C4.66005 27.36 8.08005 24.93 12.7201 25.48C15.4978 25.852 18.1621 26.8209 20.5301 28.32C22.0801 29.26 23.5301 30.38 25.0301 31.4C25.2272 31.5244 25.457 31.5871 25.6901 31.58C25.9988 31.5656 26.3021 31.6644 26.5433 31.8577C26.7845 32.0509 26.9468 32.3255 27.0001 32.63C27.0372 32.8352 27.1118 33.0318 27.2201 33.21C27.4601 33.64 27.7401 33.73 28.2201 33.52C32.3101 31.83 36.4601 30.27 40.5101 28.52C43.5101 27.17 46.4301 25.52 49.3901 24.03L63.0001 17.18C63.1535 17.1336 63.2849 17.0329 63.3695 16.8967C63.4542 16.7605 63.4864 16.5982 63.4601 16.44C63.3914 15.3656 63.5838 14.2905 64.0209 13.3066C64.458 12.3227 65.1268 11.4593 65.9701 10.79C66.7579 10.3003 67.6187 9.93907 68.5201 9.71999L68.8601 9.60999H69.9201L70.4301 9.72999C71.9284 9.94193 73.3421 10.5533 74.5228 11.4999C75.7034 12.4465 76.6075 13.6935 77.1401 15.11C77.7448 16.3717 77.9079 17.8001 77.6032 19.1657C77.2986 20.5313 76.5438 21.7549 75.4601 22.64C74.9558 23.11 74.3339 23.4348 73.6601 23.58C72.4779 23.7853 71.2799 23.8857 70.0801 23.88C69.4712 23.7719 68.8794 23.5836 68.3201 23.32L64.4901 25.39C64.8001 25.76 65.0901 26.09 65.3601 26.39C67.6701 29.31 68.1001 31.94 65.9301 35.7C64.5415 38.1248 62.4824 40.0971 60.0001 41.38C58.6995 42.064 57.2453 42.4029 55.7764 42.3644C54.3074 42.3259 52.8729 41.9112 51.6101 41.16C49.8701 40.24 48.2501 39.09 46.5201 38.01C45.7101 38.88 44.8501 39.84 43.9501 40.75C42.2077 42.4911 40.6985 44.4508 39.4601 46.58C39.2627 46.9477 39.1467 47.3535 39.1201 47.77C39.0548 48.6828 39.2307 49.5966 39.6301 50.42C40.8305 53.0176 41.6296 55.7825 42.0001 58.62C42.3047 60.5509 42.1956 62.5244 41.6801 64.41C40.4901 68.59 37.0001 70.3 33.2801 70C29.537 69.4943 25.9922 68.015 23.0001 65.71C17.3825 61.7376 12.6383 56.6565 9.06005 50.78C6.6455 47.0493 4.90568 42.9232 3.92005 38.59C3.71005 37.59 3.59005 36.54 3.43005 35.51V33.6ZM39.4301 60.77C39.2401 59.5 39.0801 58.16 38.8201 56.85C38.0201 52.85 35.8901 49.34 34.0601 45.74L34.0001 45.65C32.3047 43.1037 30.3728 40.7232 28.2301 38.54C27.9601 38.28 27.7501 37.96 27.4801 37.71C27.2101 37.46 26.8601 37.24 26.5601 36.99C26.2601 36.74 26.0101 36.62 25.9801 36.41C25.9001 35.76 25.4101 35.49 24.9801 35.12C22.2471 32.5723 19.0761 30.5396 15.6201 29.12C14.0795 28.4702 12.4084 28.1894 10.7401 28.3C10.003 28.3318 9.28656 28.5528 8.65959 28.9416C8.03262 29.3304 7.51622 29.8739 7.16005 30.52C6.55316 31.6462 6.24988 32.911 6.28005 34.19C6.35718 37.7354 7.22134 41.2195 8.81005 44.39C11.0221 49.1466 13.9906 53.5133 17.6001 57.32C20.6394 60.7181 24.2805 63.5252 28.3401 65.6C30.235 66.6146 32.3506 67.1469 34.5001 67.15C35.5519 67.1736 36.5786 66.8271 37.4011 66.171C38.2235 65.5149 38.7894 64.5908 39.0001 63.56C39.2001 62.68 39.2801 61.76 39.4301 60.77ZM37.1101 45.27C37.5701 44.51 38.0101 43.75 38.4801 43C40.2655 40.3807 42.3532 37.9809 44.7001 35.85C47.4226 33.2219 50.4045 30.8766 53.6001 28.85C58.0271 25.8657 62.6176 23.1315 67.3501 20.66C68.4901 20.07 69.6501 19.5 70.8201 18.92C70.4395 18.1859 69.8872 17.5546 69.2101 17.08C69.1481 17.0484 69.0796 17.0319 69.0101 17.0319C68.9405 17.0319 68.872 17.0484 68.8101 17.08C67 18.08 65.2301 19.08 63.4101 20.02C59.8901 21.84 56.4101 23.61 52.8301 25.41C49.2501 27.21 45.7301 29.23 42.0701 30.9C38.1901 32.68 34.1801 34.17 30.2201 35.79L29.6001 36C32.5107 38.7365 35.0371 41.8549 37.1101 45.27ZM48.4301 36.27C50.4301 37.18 51.9401 38.64 53.9701 39.13C54.6999 39.3203 55.447 39.4376 56.2001 39.48C57.5234 39.4938 58.8078 39.0325 59.8201 38.18C61.7953 36.8724 63.3181 34.9864 64.1801 32.78C64.5217 31.9528 64.5572 31.0309 64.2801 30.18C63.7407 28.9428 62.9664 27.8221 62.0001 26.88L61.3601 27.28C61.4901 27.6 61.6001 27.86 61.6901 28.13C62.1498 29.3453 62.2754 30.6616 62.0538 31.942C61.8322 33.2223 61.2715 34.4199 60.4301 35.41C59.9978 36.0092 59.4474 36.5136 58.8128 36.892C58.1782 37.2703 57.4728 37.5147 56.7401 37.61C55.4535 37.7524 54.1514 37.625 52.9168 37.2359C51.6822 36.8467 50.5424 36.2044 49.5701 35.35L48.4301 36.27ZM51.4901 33.79C52.1101 34.08 52.6101 34.35 53.1301 34.55C53.5093 34.699 53.9057 34.7997 54.3101 34.85C55.2058 35.0639 56.1458 34.994 57.0001 34.65C57.8911 34.1414 58.586 33.3489 58.9739 32.3991C59.3618 31.4493 59.4203 30.3969 59.1401 29.41C58.9801 28.88 58.8501 28.82 58.3601 29.14C56.6801 30.24 54.9901 31.35 53.3601 32.47C52.7001 32.86 52.1401 33.3 51.4901 33.77V33.79ZM66.0701 15.7C66.8201 15.27 67.5101 14.92 68.1601 14.5C68.442 14.2951 68.7815 14.1848 69.1301 14.1848C69.4786 14.1848 69.8181 14.2951 70.1001 14.5C71.3791 15.2971 72.457 16.3785 73.2501 17.66C73.567 18.0556 73.7511 18.5411 73.7763 19.0473C73.8014 19.5536 73.6663 20.0549 73.3901 20.48C73.3811 20.5631 73.3811 20.6469 73.3901 20.73C73.8095 20.3879 74.1552 19.9643 74.4062 19.4847C74.6571 19.0051 74.8081 18.4796 74.8501 17.94C74.9201 15.1 72.3201 12.88 70.0001 12.52C67.8601 12.2 66.4101 13.72 66.0701 15.7Z" fill="black"/>
<path d="M9.70007 37.63C9.79853 39.0615 10.0981 40.472 10.5901 41.82C11.9158 45.4328 13.8133 48.8091 16.2101 51.82C18.7955 55.3271 21.957 58.3702 25.5601 60.82C27.0835 61.9314 28.8422 62.6773 30.7001 63C31.215 63.1048 31.7459 63.1033 32.2602 62.9957C32.7745 62.8881 33.2615 62.6766 33.6912 62.3742C34.121 62.0718 34.4844 61.6849 34.7593 61.2371C35.0343 60.7893 35.2149 60.29 35.2901 59.77C35.4351 58.8456 35.4351 57.9043 35.2901 56.98C34.8836 54.5531 34.0436 52.2192 32.8101 50.09C29.9511 44.6925 25.9967 39.9514 21.2001 36.17C19.396 34.6637 17.2775 33.5805 15.0001 33C14.4833 32.8493 13.9414 32.8045 13.4069 32.8683C12.8724 32.9321 12.3562 33.103 11.8894 33.371C11.4225 33.639 11.0145 33.9985 10.6899 34.4279C10.3653 34.8572 10.1306 35.3478 10.0001 35.87C9.86819 36.4508 9.76804 37.0383 9.70007 37.63Z" fill="white"/>
<path d="M9.70007 37.63C9.76911 37.0484 9.86925 36.4709 10.0001 35.9C10.1273 35.3751 10.3595 34.8813 10.6827 34.4486C11.0059 34.0158 11.4134 33.653 11.8807 33.382C12.3479 33.111 12.8652 32.9375 13.4013 32.8718C13.9374 32.8062 14.4813 32.8498 15.0001 33C17.2714 33.573 19.3861 34.6458 21.1901 36.14C26.0001 39.9144 29.9682 44.6523 32.8401 50.05C34.0736 52.1792 34.9136 54.5131 35.3201 56.94C35.4651 57.8643 35.4651 58.8056 35.3201 59.73C35.2502 60.2567 35.0723 60.7633 34.7976 61.2181C34.5229 61.6729 34.1573 62.0661 33.7236 62.3731C33.2899 62.6801 32.7975 62.8942 32.2773 63.0021C31.757 63.1099 31.2201 63.1092 30.7001 63C28.8464 62.6923 27.0881 61.9636 25.5601 60.87C21.957 58.4202 18.7955 55.3771 16.2101 51.87C13.8133 48.8591 11.9158 45.4828 10.5901 41.87C10.0935 40.5061 9.79385 39.0784 9.70007 37.63Z" fill="black"/>
</svg>
