<svg width="80" height="80" viewBox="0 0 80 80" fill="none" xmlns="http://www.w3.org/2000/svg">
<path d="M76.33 57.55V62.89C76.33 63.19 76.25 63.48 76.23 63.78C76.23 64.38 76.23 65 76.09 65.59C76.0606 65.8936 75.9411 66.1815 75.7469 66.4167C75.5527 66.6519 75.2926 66.8237 75 66.91C73.83 67.29 72.82 66.27 72.85 64.91C72.85 63.91 72.74 62.91 72.67 61.71L72.09 62.47C70.397 64.7283 68.2853 66.6397 65.87 68.1C64.44 68.96 62.98 69.79 61.52 70.61C61.3627 70.6731 61.2294 70.7847 61.1396 70.9285C61.0497 71.0722 61.0078 71.2409 61.02 71.41C61.0333 72.4117 60.9899 73.4133 60.89 74.41C60.8372 74.8858 60.6499 75.3368 60.35 75.71C60.2277 75.8166 60.1438 75.9605 60.1112 76.1196C60.0787 76.2786 60.0994 76.4439 60.17 76.59C60.3005 76.9443 60.3115 77.3315 60.2014 77.6926C60.0912 78.0537 59.866 78.3688 59.56 78.59C59.3027 78.8559 58.9561 79.0174 58.5869 79.0432C58.2177 79.0691 57.8519 78.9575 57.56 78.73C56.922 78.1384 56.364 77.466 55.9 76.73C55.7276 76.2987 55.6624 75.832 55.71 75.37C55.71 74.14 55.71 72.91 55.71 71.66L12.71 65.66C12.79 67.18 12.81 68.74 12.98 70.28C13.0965 70.7623 13.0208 71.271 12.7688 71.6984C12.5168 72.1258 12.1084 72.4384 11.63 72.57C11.3948 72.6161 11.1525 72.6113 10.9193 72.5559C10.6861 72.5006 10.4674 72.396 10.278 72.2492C10.0886 72.1024 9.93274 71.9167 9.82098 71.7047C9.70921 71.4927 9.64411 71.2592 9.63003 71.02C9.43003 69.7 9.31003 68.37 9.15003 67.02C9.10003 66.2 9.00003 65.47 9.00003 64.71C8.46523 64.7522 7.93278 64.6035 7.49711 64.2905C7.06144 63.9775 6.75071 63.5203 6.62003 63C5.73003 60.53 4.82003 58.07 3.94003 55.6C3.75962 55.0802 3.62903 54.5445 3.55003 54C3.45731 53.6434 3.48441 53.2661 3.62716 52.9264C3.76991 52.5867 4.0204 52.3033 4.34003 52.12C4.47577 52.0447 4.57637 51.919 4.62003 51.77C4.70361 51.4225 4.85768 51.0958 5.0727 50.8102C5.28772 50.5247 5.55911 50.2863 5.87003 50.11C7.61003 49.02 9.36003 47.93 11.14 46.9C12.54 46.08 12.57 46.12 12.27 44.49L10 32.19C9.89921 31.8349 9.92842 31.4555 10.0824 31.12C10.2364 30.7845 10.505 30.515 10.84 30.36C11.4136 30.1535 11.8861 29.7347 12.16 29.19C12.2559 29.0608 12.363 28.9404 12.48 28.83C13.67 27.67 14.91 26.57 16.03 25.35C20.0837 20.956 24.4882 16.8993 29.2 13.22C32.6716 10.3462 36.348 7.72926 40.2 5.39C44.8475 2.53601 50.3744 1.46974 55.75 2.39C57.831 2.70631 59.8094 3.50377 61.528 4.71896C63.2467 5.93415 64.6581 7.53355 65.65 9.39C65.7793 9.57892 65.9647 9.72237 66.18 9.8C66.5053 9.89154 66.7888 10.0931 66.9821 10.3703C67.1754 10.6475 67.2666 10.9831 67.24 11.32C67.2283 14.0905 67.4221 16.8581 67.82 19.6C68.04 21.87 68.27 24.14 68.46 26.42C68.4506 26.6014 68.4879 26.7823 68.5685 26.9451C68.649 27.108 68.7701 27.2474 68.92 27.35C70.1144 28.1643 71.0429 29.3119 71.59 30.65C71.7271 31.022 71.9749 31.3431 72.3 31.57C72.6199 31.8294 72.8563 32.1772 72.98 32.57C73.2045 33.4141 73.2989 34.2874 73.26 35.16C73.36 38.4 73.26 41.68 74.26 44.83C74.65 46.09 74.99 47.36 75.46 48.58C75.8606 49.5523 76.0481 50.5991 76.01 51.65C75.8524 52.5076 75.9284 53.3918 76.23 54.21C76.3032 54.4631 76.3303 54.7273 76.31 54.99L76.33 57.55ZM15 30.74L15.12 30.92L15.64 31.08C20.46 32.38 25.29 33.62 30.09 34.98C36 36.67 42 38.39 47.87 40.2C50.6985 41.1696 53.597 41.9218 56.54 42.45C57.82 42.65 59.08 43.03 60.36 43.32C60.45 43.3556 60.5501 43.3556 60.64 43.32C61.64 42.59 62.7 41.86 63.7 41.09C64.31 40.62 64.84 40.09 65.43 39.57C66.6083 38.5765 67.5829 37.3642 68.3 36C68.8055 35.1625 69.0188 34.1809 68.9066 33.2092C68.7944 32.2374 68.363 31.3303 67.68 30.63C67.3822 30.3933 67.0432 30.2136 66.68 30.1C66.35 29.95 65.92 29.93 65.68 29.7C65.2458 29.3334 64.6874 29.1473 64.12 29.18C63.61 29.18 63.12 29.18 62.6 29.18C61.4591 29.0898 60.3302 28.8855 59.23 28.57C58.3791 28.2909 57.6737 27.6856 57.2687 26.8869C56.8637 26.0881 56.7923 25.1614 57.07 24.31C57.2824 23.5941 57.5567 22.8982 57.89 22.23C59.22 19.33 61.68 17.17 63.02 14.23C63.2121 13.8951 63.3327 13.524 63.374 13.1402C63.4153 12.7563 63.3765 12.3681 63.26 12C62.8102 10.7652 62.111 9.63609 61.2061 8.68301C60.3012 7.72994 59.2099 6.97324 58 6.46C56.3908 5.78454 54.6738 5.40187 52.93 5.33C48.906 5.13691 44.9197 6.1841 41.51 8.33C38.5632 10.1498 35.7343 12.1537 33.04 14.33C28.0126 18.1516 23.316 22.39 19 27C18.07 28 17 28.92 16 29.87C15.7 30.15 15.34 30.44 15 30.74ZM32.62 52.63L28.78 52C28.5845 51.9213 28.3702 51.9021 28.1638 51.9448C27.9574 51.9875 27.7683 52.0902 27.62 52.24C27.49 52.4 27.19 52.41 26.96 52.48C26.4944 52.5688 26.0412 52.7131 25.61 52.91C24.61 53.51 23.7 54.19 22.76 54.84C22.6428 54.9496 22.5326 55.0665 22.43 55.19C24.35 55.62 26.19 56.05 28.04 56.45C28.1338 56.4592 28.2284 56.4489 28.3179 56.4196C28.4074 56.3903 28.4899 56.3428 28.56 56.28C29.3 55.6 30.01 54.89 30.76 54.21C31.33 53.67 31.93 53.2 32.62 52.63ZM49.91 61.39C50.77 59.39 52.55 58.28 53.91 56.58L49.52 55.58C49.5369 56.0153 49.4558 56.4489 49.2827 56.8487C49.1096 57.2485 48.849 57.6044 48.52 57.89C47.9134 58.5567 47.3134 59.2233 46.72 59.89C46.52 60.13 46.37 60.41 46.13 60.77L49.91 61.39ZM31.78 57.39C33.13 57.72 34.32 58.03 35.52 58.3C35.6093 58.3003 35.6978 58.2828 35.7802 58.2485C35.8627 58.2141 35.9374 58.1636 36 58.1L39.62 54.53L40.17 54.02C38.83 53.77 37.61 53.54 36.38 53.33C36.27 53.33 36.11 53.47 36 53.57C35.43 54.11 34.87 54.66 34.29 55.19C33.47 55.9 32.69 56.6 31.78 57.41V57.39ZM39.16 59.18L42.9 60.08C43.9 58.08 45.54 56.75 47.06 55.08C46 54.89 45.06 54.72 44.15 54.57C44.0324 54.5703 43.9188 54.6129 43.83 54.69C42.83 55.58 41.83 56.47 40.89 57.38C40.32 58 39.8 58.53 39.16 59.2V59.18ZM15.31 53.55C16.41 53.83 17.31 54.06 18.23 54.27C18.3666 54.2737 18.5004 54.2314 18.61 54.15L22.89 50.83C22.39 50.71 21.89 50.62 21.35 50.45C20.9466 50.2662 20.4973 50.208 20.0604 50.2829C19.6235 50.3578 19.2192 50.5624 18.9 50.87C17.7545 51.8298 16.5559 52.7246 15.31 53.55ZM9.50003 51.55L9.56003 51.73L11.73 52.41C11.7759 52.4173 11.8227 52.4148 11.8675 52.4027C11.9123 52.3907 11.954 52.3693 11.99 52.34L15.25 49.85C15.44 49.69 15.65 49.56 15.95 49.35C15.5476 49.2549 15.1403 49.1814 14.73 49.13C14.28 49.13 13.73 48.93 13.38 49.13C12.05 49.85 10.79 50.72 9.50003 51.54V51.55ZM57.89 57.55L56.72 57.32C56.19 59.23 54.35 60.08 53.5 61.69C55.39 60.85 56.51 59.18 57.89 57.55Z" fill="black"/>
</svg>
