<svg width="80" height="80" viewBox="0 0 80 80" fill="none" xmlns="http://www.w3.org/2000/svg">
<path d="M25.56 75.77C25.363 75.6765 25.1546 75.6093 24.9401 75.57C23.26 75.48 21.57 75.42 19.88 75.34C19.58 75.34 19.28 75.27 18.98 75.24C18.6292 75.2135 18.2948 75.0805 18.0214 74.859C17.748 74.6374 17.5487 74.3378 17.4501 74C17.3027 73.6662 17.277 73.2913 17.3775 72.9405C17.478 72.5897 17.6983 72.2852 18 72.08C18.3026 71.8221 18.6391 71.6068 19 71.44C20.9593 70.6625 23.0343 70.2164 25.14 70.12H25.41C25.35 69.44 25.24 68.77 25.23 68.12C25.22 67.47 25.33 66.89 25.33 66.28C25.33 65.48 25.26 64.69 25.22 63.87L23.09 63.99C19.8358 64.1287 16.5758 63.9714 13.35 63.52C12.4801 63.41 11.6201 63.16 10.7601 63C10.5578 62.9723 10.3519 63.0072 10.1701 63.1C9.96081 63.2314 9.71508 63.2926 9.46866 63.2746C9.22223 63.2566 8.98799 63.1604 8.80005 63C8.28661 62.7174 7.89853 62.2517 7.7132 61.6956C7.52786 61.1396 7.55887 60.5342 7.80005 60C7.48842 59.854 7.21976 59.6299 7.02005 59.3496C6.82035 59.0693 6.69635 58.7423 6.66005 58.4C5.66005 53.65 4.80005 48.88 4.29005 44.06L4.09005 42C4.06854 41.4583 3.92497 40.9285 3.67005 40.45C3.47683 40.0601 3.40706 39.6206 3.47005 39.19C3.55552 38.7023 3.68608 38.2236 3.86005 37.76C3.86005 37.62 3.95005 37.44 4.05005 37.39C4.60005 37.07 4.58005 36.54 4.66005 36.02C4.83033 35.1438 5.25461 34.3369 5.88005 33.7C6.80886 32.6826 7.91742 31.8452 9.15005 31.23C11.2882 30.2042 13.5775 29.5289 15.93 29.23L21.55 28.47C21.38 26.47 21.18 24.29 21.0401 22.16C20.8801 19.74 20.76 17.33 20.66 14.91C20.5913 14.54 20.6472 14.1576 20.8192 13.8228C20.9911 13.488 21.2693 13.2197 21.6101 13.06C21.9401 12.91 22.1 12.45 22.4 12.21C23.0325 11.6322 23.7267 11.1258 24.47 10.7C25.9969 9.99402 27.6165 9.50915 29.2801 9.26002C34.2764 8.41266 39.3584 8.18761 44.41 8.59002C45.8101 8.66002 47.21 8.82002 48.6101 8.91002C48.7151 8.90391 48.8178 8.87688 48.9123 8.83051C49.0067 8.78415 49.091 8.71938 49.16 8.64002C49.7201 8.02002 50.16 7.76002 50.98 8.28002C51.57 8.66002 52.18 9.00002 52.8 9.34002C53.0368 9.45891 53.2893 9.54311 53.55 9.59002C53.8085 9.64803 54.0509 9.76236 54.2601 9.92484C54.4692 10.0873 54.6399 10.294 54.76 10.53C55.3909 11.605 55.7352 12.8239 55.76 14.07C55.85 18.87 55.95 23.67 56.01 28.48C56.01 29.88 55.94 31.28 55.89 32.69C55.8972 33.3391 55.8538 33.9877 55.76 34.63C55.6701 35.0958 55.4789 35.5362 55.2001 35.92C54.304 37.3251 53.1003 38.5082 51.68 39.38C51 39.74 50.3 40.07 49.59 40.38C47.6803 41.0311 45.6777 41.3688 43.66 41.38C43.76 42.46 43.85 43.53 43.98 44.6C44.2001 46.4 44.4434 48.1934 44.71 49.98C44.7421 50.7145 45.0164 51.4177 45.4901 51.98C45.8322 52.4182 45.9992 52.968 45.9585 53.5224C45.9179 54.0769 45.6725 54.5964 45.2701 54.98C44.4839 55.8079 43.6347 56.5735 42.73 57.27C41.68 58.09 40.57 58.85 39.46 59.58C38.8274 59.9775 38.1576 60.3124 37.46 60.58C36.05 61.15 34.64 61.73 33.19 62.16C31.74 62.59 30.19 62.86 28.65 63.16C27.84 63.32 27.74 63.38 27.8 64.16C27.96 65.98 28.1201 67.8 28.2901 69.65C28.4031 69.6604 28.517 69.6604 28.63 69.65C30.96 69.65 33.2901 69.65 35.6301 69.75C36.2778 69.8115 36.9121 69.9734 37.51 70.23C38.0024 70.4121 38.4722 70.6503 38.91 70.94C39.2443 71.1523 39.4972 71.4712 39.6278 71.845C39.7585 72.2188 39.7593 72.6257 39.6301 73C39.5743 73.3463 39.4076 73.665 39.1552 73.9085C38.9027 74.1519 38.5781 74.3069 38.23 74.35C36.6301 74.65 35.03 74.97 33.42 75.18C31.81 75.39 30.42 75.42 28.96 75.55C28.778 75.5865 28.6027 75.6505 28.4401 75.74L25.56 75.77ZM39 32.26C38.7326 32.1998 38.4622 32.153 38.19 32.12C36.62 32.03 35.0401 31.9 33.4701 31.88C28.5201 31.82 23.5601 31.33 18.6201 32.11C16.8401 32.39 15.0601 32.68 13.3101 33.11C12.2601 33.4058 11.2338 33.7802 10.24 34.23C9.22999 34.6533 8.35505 35.345 7.71005 36.23C7.44005 36.57 7.51005 36.84 7.86005 37.01C8.4794 37.3367 9.12498 37.611 9.79005 37.83C10.5803 38.0388 11.3863 38.1826 12.2 38.26C12.61 38.26 12.71 38.46 12.78 38.84C13.28 41.84 13.7801 44.84 14.35 47.84C14.71 49.84 15.1901 51.72 15.59 53.67C15.8601 54.96 16.07 56.25 16.34 57.54C16.3493 57.8052 16.4636 58.0559 16.6577 58.2369C16.8518 58.4178 17.1098 58.5143 17.375 58.505C17.6403 58.4957 17.8909 58.3815 18.0719 58.1874C18.2529 57.9933 18.3493 57.7352 18.34 57.47C18.4053 57.1748 18.4255 56.8713 18.4 56.57C18.3 55.57 18.2 54.66 18.05 53.72C17.36 49.22 16.65 44.72 15.95 40.24C15.85 39.6 15.74 38.95 14.95 38.75C20.2252 39.2679 25.5506 38.7204 30.6101 37.14C30.6101 37.54 30.67 37.84 30.7001 38.14C30.9401 40.35 31.13 42.56 31.42 44.76C31.7901 47.49 32.22 50.21 32.66 52.93C32.7682 53.551 32.9635 54.1536 33.2401 54.72C33.3237 54.8337 33.4329 54.9261 33.5588 54.9899C33.6848 55.0536 33.8239 55.0868 33.965 55.0868C34.1062 55.0868 34.2453 55.0536 34.3713 54.9899C34.4972 54.9261 34.6064 54.8337 34.69 54.72C34.8422 54.5029 34.9481 54.2568 35.0015 53.9971C35.0548 53.7374 35.0543 53.4695 35 53.21C34.89 52.33 34.81 51.45 34.71 50.56C34.25 46.7667 33.7834 42.9767 33.3101 39.19C33.2981 38.8304 33.1797 38.4824 32.9701 38.19C32.8001 37.9976 32.6781 37.7678 32.6138 37.5193C32.5495 37.2708 32.5448 37.0107 32.6 36.76C32.6113 36.681 32.6406 36.6056 32.6857 36.5397C32.7308 36.4738 32.7904 36.4191 32.8601 36.38C33.6 36.02 34.3801 35.72 35.1101 35.38C35.8162 35.042 36.4863 34.6332 37.1101 34.16C37.7804 33.5682 38.4118 32.9335 39 32.26ZM49.6301 15.05C49.8 14.96 50.1101 14.81 50.4001 14.62C51.0601 14.22 51.7101 13.8 52.4001 13.37C52.7201 13.16 52.7301 12.91 52.4001 12.73C52.0746 12.5236 51.716 12.3748 51.34 12.29C50.19 12.13 49.0201 12.03 47.8601 11.94C46.4901 11.84 45.13 11.77 43.76 11.72C39.7733 11.4581 35.7704 11.5921 31.81 12.12C29.9099 12.3087 28.0415 12.7388 26.25 13.4C25.6454 13.6762 25.0693 14.0112 24.5301 14.4C24.1301 14.68 24.15 14.94 24.58 15.17C25.2387 15.5517 25.9238 15.8859 26.63 16.17C26.7104 16.1866 26.7866 16.219 26.8544 16.2653C26.9221 16.3117 26.98 16.3709 27.0246 16.4398C27.0693 16.5086 27.0998 16.5856 27.1145 16.6663C27.1291 16.7471 27.1276 16.8299 27.1101 16.91C27.0444 17.29 27.0076 17.6745 27 18.06C27.2001 20.5334 27.4134 23.01 27.64 25.49C27.7018 26.0324 27.7987 26.5702 27.93 27.1C27.9816 27.293 28.101 27.4609 28.2663 27.5729C28.4316 27.6849 28.6317 27.7336 28.83 27.71C29.0262 27.7398 29.2266 27.6975 29.3939 27.5908C29.5612 27.4842 29.6842 27.3204 29.74 27.13C29.9271 26.541 30.0282 25.928 30.0401 25.31C29.9401 23.65 29.74 21.99 29.58 20.31C29.47 19.13 29.3601 17.95 29.26 16.83C35.2001 17.41 41.09 17.78 46.93 15.95C46.93 16.31 46.9801 16.54 46.9901 16.76C47.0401 19.68 47.0601 22.6 47.1501 25.51C47.2101 27.59 47.37 29.66 47.4501 31.74C47.4501 32.45 47.3601 33.16 47.37 33.87C47.3392 34.1361 47.3919 34.4052 47.521 34.6399C47.65 34.8747 47.8489 35.0634 48.09 35.18C48.2189 35.2487 48.3603 35.2907 48.5057 35.3037C48.6511 35.3166 48.7977 35.3002 48.9367 35.2555C49.0756 35.2107 49.2042 35.1384 49.3147 35.043C49.4253 34.9476 49.5155 34.831 49.5801 34.7C49.8132 34.3644 49.9652 33.9793 50.0242 33.575C50.0832 33.1707 50.0476 32.7582 49.92 32.37C49.7727 32.0549 49.6814 31.7165 49.6501 31.37C49.7301 26.45 49.8301 21.52 49.9001 16.6C49.8547 16.0766 49.7643 15.558 49.6301 15.05Z" fill="black"/>
<path d="M60.94 62.89C61.06 64.18 61.16 65.36 61.27 66.55C61.2785 66.7979 61.3018 67.045 61.34 67.29C61.3776 67.47 61.4641 67.636 61.59 67.77C61.8278 67.9459 62.0098 68.1866 62.1145 68.4632C62.2191 68.7399 62.2419 69.0408 62.18 69.33C62.0553 69.9347 61.8502 70.5199 61.57 71.07C61.4115 71.3226 61.1812 71.5222 60.9087 71.6434C60.6362 71.7645 60.3337 71.8016 60.04 71.75C59.7622 71.7458 59.4949 71.6429 59.2861 71.4597C59.0772 71.2765 58.9404 71.0249 58.9 70.75C58.7834 70.1558 58.7066 69.5545 58.67 68.95C58.54 66.86 58.43 64.77 58.3 62.6C57.96 62.81 57.61 62.98 57.3 63.21C56.77 63.58 56.3 64.02 55.75 64.38C54.98 64.91 54.19 65.38 53.38 65.89C52.23 66.56 51.04 67.18 49.88 67.89C48.88 68.45 47.95 69.05 46.98 69.61C46.6782 69.8543 46.293 69.9711 45.9064 69.9356C45.5198 69.9001 45.1623 69.7151 44.91 69.42C44.6764 69.1025 44.565 68.7114 44.5962 68.3184C44.6274 67.9253 44.7992 67.5567 45.08 67.28C45.293 67.0485 45.539 66.8498 45.81 66.69C47.19 65.91 48.59 65.17 49.96 64.38C51.5 63.49 53.02 62.57 54.54 61.65C55.54 61.03 56.54 60.4 57.54 59.7C57.7955 59.4513 57.9489 59.116 57.97 58.76C58.07 56.68 57.97 54.59 58.22 52.52C58.51 49.66 58.95 46.81 59.42 43.98C59.89 41.15 60.42 38.52 60.99 35.82C61.39 34.04 61.99 32.31 62.51 30.56C62.9 29.29 63.36 28.04 63.76 26.78C63.8168 26.5677 63.7881 26.3415 63.68 26.15C61.6581 23.6394 60.3829 20.6108 60 17.41C59.8504 16.657 59.8622 15.8809 60.0346 15.1328C60.207 14.3847 60.536 13.6816 61 13.07C61.3379 12.7515 61.7403 12.5094 62.18 12.36C62.4804 12.221 62.7958 12.117 63.12 12.05C63.4038 11.9558 63.7074 11.9386 64 12C65.0721 12.4996 66.0393 13.1987 66.85 14.06C67.53 14.77 68.28 15.42 68.95 16.14C70.51 17.83 72.13 19.47 73.54 21.27C75.0755 23.1376 76.1755 25.3239 76.76 27.67C77.04 28.7455 77.0157 29.8775 76.69 30.94C76.5226 31.4793 76.1696 31.9418 75.6937 32.2457C75.2178 32.5495 74.6496 32.675 74.09 32.6C72.5735 32.3715 71.122 31.8263 69.83 31C69.09 30.56 68.32 30.15 67.59 29.69C67.06 29.36 66.59 28.96 66 28.55C65.73 29.43 65.51 30.24 65.24 31.04C64.0156 35.0651 63.0963 39.1768 62.49 43.34C62 46.05 61.49 48.76 61.19 51.5C60.89 54.24 60.96 56.82 60.88 59.5C60.9006 59.5914 60.942 59.6769 61.001 59.7497C61.0599 59.8226 61.1349 59.8808 61.22 59.92C62.5 60.42 63.8 60.92 65.09 61.38C66.72 62 68.37 62.57 69.96 63.27C70.7996 63.4865 71.5532 63.954 72.12 64.61C72.398 65.061 72.4857 65.6039 72.3638 66.1195C72.2419 66.635 71.9205 67.0812 71.47 67.36C71.3378 67.4508 71.1883 67.5135 71.0308 67.5441C70.8733 67.5747 70.7112 67.5725 70.5546 67.5378C70.398 67.5031 70.2502 67.4366 70.1204 67.3424C69.9906 67.2481 69.8815 67.1282 69.8 66.99C69.4628 66.5028 68.9628 66.1517 68.39 66C67.06 65.43 65.69 64.94 64.39 64.38C63.39 63.97 62.45 63.49 61.47 63.05C61.32 63 61.2 63 60.94 62.89ZM74.06 29.46C74.0649 28.5358 73.8489 27.6238 73.43 26.8C72.5192 24.786 71.275 22.9401 69.75 21.34C68.28 19.75 66.75 18.2 65.24 16.66C64.987 16.4537 64.689 16.3098 64.37 16.24C63.83 16.08 63.27 15.97 62.71 15.84C62.71 15.95 62.71 16.07 62.66 16.19C62.61 16.31 62.66 16.44 62.66 16.56C62.9151 18.7664 63.6747 20.8844 64.88 22.75C66.336 24.9763 68.368 26.7664 70.76 27.93C70.9 28 71.01 28.12 71.15 28.19L74.06 29.46Z" fill="black"/>
<path d="M68.6101 21.73C68.1471 21.7312 67.7016 21.9069 67.3624 22.222C67.0232 22.537 66.8153 22.9684 66.7801 23.43C66.7771 23.8337 66.9306 24.2227 67.2085 24.5155C67.4863 24.8083 67.8668 24.9819 68.2701 25C69.0001 25 70.0001 23.72 70.0001 23.07C70.0061 22.8881 69.9739 22.707 69.9055 22.5383C69.8371 22.3697 69.7341 22.2173 69.603 22.091C69.472 21.9646 69.3159 21.8672 69.1449 21.8051C68.9738 21.7429 68.7916 21.7173 68.6101 21.73Z" fill="white"/>
<path d="M68.6101 21.73C68.7916 21.7173 68.9738 21.7429 69.1449 21.8051C69.3159 21.8672 69.472 21.9646 69.603 22.091C69.7341 22.2173 69.8371 22.3697 69.9055 22.5383C69.9739 22.707 70.0061 22.8881 70.0001 23.07C70.0001 23.72 69.0001 25.07 68.3101 24.99C67.9086 24.972 67.5295 24.7997 67.252 24.5091C66.9744 24.2185 66.8197 23.8319 66.8201 23.43C66.8546 22.9752 67.0569 22.5494 67.3877 22.2353C67.7184 21.9212 68.1541 21.7411 68.6101 21.73Z" fill="black"/>
</svg>
