<svg width="80" height="80" viewBox="0 0 80 80" fill="none" xmlns="http://www.w3.org/2000/svg">
<path d="M48.74 52L47.19 47.79L43.94 48.63C39.99 49.63 36.05 50.73 32.1 51.76C31.6091 51.8301 31.1108 51.8301 30.62 51.76C30.4152 51.7415 30.2254 51.6448 30.09 51.49C29.5107 50.853 29.1774 50.0305 29.15 49.17C29.31 47.17 29.45 45.08 29.59 43.03C29.6011 42.9336 29.6011 42.8363 29.59 42.74L22.19 45.12C22.6 46.3 22.99 47.44 23.36 48.58C24.36 51.83 25.45 55.07 26.45 58.32C26.6641 59.1324 26.8278 59.9573 26.94 60.79C27.0753 61.7431 26.8429 62.712 26.29 63.5C25.1738 65.2406 23.5609 66.6062 21.66 67.42C18.5876 68.7202 15.3258 69.5171 12 69.78C9.96296 70.0545 7.89221 69.9357 5.89997 69.43C5.23617 69.2654 4.59723 69.0131 3.99997 68.68C3.62171 68.4913 3.28981 68.2214 3.02796 67.8896C2.76612 67.5578 2.58081 67.1722 2.48528 66.7604C2.38974 66.3487 2.38634 65.9209 2.47531 65.5076C2.56428 65.0944 2.74344 64.7059 2.99997 64.37C3.36572 63.7882 3.8024 63.2541 4.29997 62.78C7.85933 59.2985 12.5268 57.1754 17.49 56.78C19.32 56.62 21.17 56.6 23.06 56.52C22.97 56.22 22.84 55.83 22.71 55.43C21.62 52.34 20.54 49.25 19.43 46.16C19.3342 45.9323 19.1699 45.7401 18.96 45.61C18.7973 45.5273 18.6532 45.4122 18.5366 45.2718C18.4199 45.1314 18.3332 44.9687 18.2817 44.7936C18.2302 44.6185 18.215 44.4347 18.2371 44.2536C18.2591 44.0724 18.318 43.8976 18.41 43.74C18.5123 43.5179 18.5369 43.2678 18.48 43.03C17.63 39.98 16.73 36.94 15.88 33.89C15.51 32.56 15.99 31.89 17.36 31.66C17.9003 31.5186 18.4286 31.3347 18.94 31.11C22.84 29.7767 26.7466 28.4433 30.66 27.11C30.8443 27.0744 31.01 26.9744 31.1272 26.8278C31.2445 26.6812 31.3057 26.4976 31.3 26.31C31.77 22.5 32.3 18.7 32.78 14.89C32.8225 14.6183 32.7985 14.3404 32.71 14.08C32.404 13.4892 32.3287 12.8058 32.4988 12.1625C32.6688 11.5193 33.072 10.9624 33.63 10.6C34.5089 9.96553 35.4545 9.42901 36.45 8.99999C40.1071 7.36416 44.1851 6.91649 48.11 7.71999C50.4 8.18999 52.68 8.77999 54.96 9.31999C55.1421 9.34967 55.3278 9.34967 55.51 9.31999C55.8526 9.25036 56.2056 9.24897 56.5488 9.31589C56.892 9.38281 57.2186 9.51673 57.51 9.70999C58.5437 10.4003 59.5202 11.1728 60.43 12.02C60.8936 12.44 61.1896 13.0137 61.2631 13.6351C61.3366 14.2564 61.1828 14.8833 60.83 15.4C59.7129 17.4184 57.8557 18.9242 55.65 19.6C52.5602 20.6248 49.2846 20.966 46.05 20.6C43.812 20.486 41.6132 19.9676 39.56 19.07C38.28 18.46 37.08 17.7 35.84 17.01L35.35 16.72L34.25 25.79C34.83 25.6 35.25 25.47 35.73 25.31C37.02 24.88 38.3 24.41 39.6 24.01C40.0606 23.9069 40.5379 23.9035 41 24C41.2705 24.0397 41.5222 24.1618 41.7208 24.3497C41.9194 24.5376 42.0553 24.7821 42.11 25.05C42.21 25.37 42.29 25.69 42.38 26.05C42.425 26.2154 42.5044 26.3695 42.6129 26.5021C42.7215 26.6348 42.8568 26.7431 43.01 26.82C43.3884 27.0591 43.685 27.4079 43.86 27.82C44.16 28.64 44.33 29.51 44.55 30.35C44.77 31.19 45.06 32.3 45.33 33.27C45.4734 33.8034 45.7329 34.2985 46.09 34.72C46.3114 35.154 46.4311 35.6328 46.44 36.12C46.44 36.3 46.44 36.5 46.44 36.66C47.29 39.15 48.15 41.66 49.03 44.18L51.16 43.66L56.43 42.36C56.54 42.36 56.72 42.28 56.75 42.19C56.9428 41.6552 57.0965 41.1071 57.21 40.55C57.5366 38.55 57.8466 36.55 58.14 34.55C58.48 32.21 58.7933 29.8767 59.08 27.55C59.14 27.08 59.08 26.55 59.08 26.11C59.0723 25.8785 59.1234 25.6489 59.2285 25.4425C59.3336 25.2362 59.4893 25.0598 59.6811 24.93C59.8729 24.8001 60.0944 24.721 60.3251 24.7C60.5557 24.6791 60.7879 24.7169 61 24.81C61.2514 24.844 61.5072 24.8235 61.75 24.75C65.0012 23.8352 68.4096 23.6204 71.75 24.12C73.5027 24.4447 75.1303 25.2516 76.45 26.45C76.8839 26.774 77.2395 27.1913 77.4907 27.6711C77.742 28.1508 77.8823 28.6809 77.9015 29.2221C77.9207 29.7633 77.8182 30.3019 77.6016 30.7982C77.385 31.2946 77.0598 31.736 76.65 32.09C75.239 33.4622 73.4545 34.3875 71.52 34.75C68.0568 35.5522 64.4817 35.7552 60.95 35.35C60.67 37.49 60.38 39.62 60.13 41.76C60.1033 42.1217 60.1475 42.4852 60.26 42.83C60.3347 43.0386 60.3627 43.2612 60.3418 43.4818C60.3209 43.7025 60.2516 43.9158 60.139 44.1067C60.0264 44.2976 59.8731 44.4614 59.6901 44.5864C59.5071 44.7114 59.2988 44.7945 59.08 44.83C57.91 45.13 56.72 45.35 55.55 45.65C53.74 46.09 51.94 46.57 50.07 47.05C50.28 47.7 50.49 48.31 50.68 48.92C51.16 50.46 51.68 52.01 52.13 53.56C52.2373 53.8621 52.2328 54.1927 52.1172 54.4918C52.0016 54.7909 51.7826 55.0386 51.5 55.19C51.3371 55.2813 51.2154 55.4317 51.16 55.61C51.006 56.868 50.5365 58.0666 49.7953 59.0946C49.054 60.1226 48.0649 60.9466 46.92 61.49C44.8225 62.5192 42.5342 63.1015 40.2 63.2C38.1965 63.4095 36.1726 63.3084 34.2 62.9C31.58 62.28 30.87 60.51 32.28 58.21C32.9595 57.1175 33.8926 56.205 35 55.55C38.3733 53.384 42.2252 52.076 46.22 51.74C46.6296 51.715 47.0404 51.715 47.45 51.74C47.85 51.8 48.23 51.87 48.74 52ZM48.23 17.86C50.4207 17.8888 52.6008 17.5508 54.68 16.86C55.9937 16.4584 57.1369 15.6318 57.93 14.51C58.25 14.02 58.14 13.77 57.56 13.6C57.2664 13.5016 56.982 13.3778 56.71 13.23C56.1794 12.8443 55.6055 12.5221 55 12.27C52.46 11.66 49.92 11.1 47.36 10.61C43.6551 9.93209 39.83 10.5203 36.5 12.28C36.01 12.53 35.87 13.5 36.33 13.78C37.9432 14.8087 39.6124 15.7468 41.33 16.59C43.5299 17.4375 45.8728 17.8518 48.23 17.81V17.86ZM43.59 37.86L43.25 37.97C39.87 39.22 36.48 40.48 33.09 41.72C32.959 41.7565 32.8446 41.8372 32.7663 41.9484C32.6879 42.0595 32.6504 42.1943 32.66 42.33C32.56 43.69 32.43 45.04 32.33 46.4C32.27 47.23 32.24 48.06 32.19 48.89L46.08 44.89L43.59 37.86ZM66.59 26.86C65.74 26.97 64.1 27.18 62.46 27.41C62.01 27.47 61.81 27.72 61.79 28.21C61.79 29.21 61.63 30.29 61.53 31.33C61.5754 31.6042 61.6916 31.8619 61.8669 32.0775C62.0423 32.2932 62.2708 32.4595 62.53 32.56C65.754 32.7946 68.9941 32.456 72.1 31.56C73.0532 31.2764 73.9086 30.7327 74.57 29.99C74.99 29.52 75.01 29.24 74.57 28.86C74.0113 28.3964 73.4045 27.9941 72.76 27.66C71 26.73 69.17 26.78 66.54 26.81L66.59 26.86Z" fill="black"/>
</svg>
