<svg width="80" height="80" viewBox="0 0 80 80" fill="none" xmlns="http://www.w3.org/2000/svg">
<path d="M56.49 54.65C57.1 54.84 57.68 55 58.24 55.19C58.8 55.38 59.07 55.57 59.51 55.68C60.0825 55.8432 60.668 55.9569 61.26 56.02C62.26 56.11 63.18 56.15 64.14 56.17C64.4369 56.194 64.7346 56.1351 65 56C65.69 55.59 66.34 55.12 67 54.68C67.1955 54.5242 67.4028 54.3837 67.62 54.26C67.8012 54.1794 68.0038 54.1601 68.197 54.2053C68.3902 54.2504 68.5633 54.3574 68.69 54.51C68.8221 54.654 68.9049 54.8362 68.9265 55.0304C68.9481 55.2246 68.9073 55.4206 68.81 55.59C68.6812 55.7806 68.5263 55.9523 68.35 56.1C65.4132 58.6721 62.2236 60.9403 58.83 62.87C56.29 64.25 53.83 65.71 51.28 67.14C51.1483 67.2254 51.0244 67.3225 50.91 67.43C50.4819 67.8462 50.024 68.2305 49.54 68.58C46.6498 70.4248 43.442 71.7167 40.08 72.39C35.1789 73.3829 30.0838 72.4327 25.87 69.74C23.7887 68.3032 21.9491 66.5445 20.42 64.53C17.8977 61.3252 15.7441 57.8466 14 54.16C12.43 50.97 10.91 47.75 9.35 44.56C9.06366 43.9606 8.72923 43.3854 8.35 42.84C8.03459 42.2599 7.91201 41.5944 8 40.94C8.01094 40.7877 8.0687 40.6426 8.16537 40.5244C8.26205 40.4062 8.39291 40.3209 8.54 40.28C8.75413 40.2002 8.97503 40.14 9.2 40.1C14 39.27 18.77 38.32 23.48 37.1C27.23 36.1 30.96 35.1 34.71 34.1C35.2838 33.9569 35.8646 33.8434 36.45 33.76C36.6958 33.735 36.9422 33.8019 37.1416 33.9478C37.341 34.0936 37.4794 34.3082 37.53 34.55C38.0319 35.6958 38.6807 36.7715 39.46 37.75C40.2 36.87 40.92 36.06 41.6 35.15C41.23 34.22 40.88 33.28 40.47 32.36C39.71 30.61 39.69 30.59 40.56 28.89C40.8563 28.3184 41.1904 27.7672 41.56 27.24C46.8168 20.0246 53.6724 14.1239 61.59 10C63.74 8.96065 65.9625 8.07834 68.24 7.36001C69.16 7.05001 70.06 6.72 70.97 6.36C71.3191 6.24351 71.6975 6.24935 72.0428 6.37659C72.3882 6.50382 72.6799 6.74485 72.87 7.06C72.9453 7.20343 72.9847 7.363 72.9847 7.525C72.9847 7.68701 72.9453 7.84658 72.87 7.99C72.62 8.53 72.35 9.06 72.11 9.61C71.65 10.61 71.19 11.66 70.75 12.7C69.6132 15.307 68.3174 17.8418 66.87 20.29C65.96 21.91 64.87 23.4 63.81 24.95C63.23 25.83 62.63 26.7 62.05 27.58C60.96 29.23 59.89 30.88 58.81 32.58C58.5941 32.8734 58.4034 33.1845 58.24 33.51C57.8834 34.2381 57.2763 34.8133 56.53 35.13C55.3918 35.781 54.1559 36.2437 52.87 36.5C51.54 36.74 50.24 37.13 48.87 37.35C47.5 37.57 46.19 37.67 44.87 37.83C44.7582 37.8454 44.6536 37.8942 44.57 37.97C43.57 38.97 42.51 39.92 41.46 40.97C42.5644 42.8841 43.7868 44.7276 45.12 46.49L46.71 45C46.6439 44.5628 46.6038 44.122 46.59 43.68C46.5905 43.0069 46.7993 42.3504 47.1879 41.8007C47.5764 41.251 48.1256 40.8351 48.76 40.61C49.2388 40.3855 49.7533 40.2467 50.28 40.2C51.8368 40.0207 53.4128 40.1086 54.94 40.46C55.7936 40.6345 56.5989 40.9928 57.3 41.51C57.6704 41.808 57.9662 42.1881 58.1641 42.6204C58.362 43.0526 58.4564 43.5249 58.44 44C58.427 44.1777 58.4554 44.3561 58.5231 44.521C58.5908 44.6858 58.6958 44.8327 58.83 44.95C59.745 45.859 60.4602 46.9489 60.93 48.15C61.0822 48.5344 61.2592 48.9086 61.46 49.27C61.7039 49.6227 61.8146 50.0505 61.7725 50.4772C61.7304 50.9039 61.5381 51.3018 61.23 51.6C60.1677 52.9726 58.68 53.9539 57 54.39C56.8704 54.4243 56.7434 54.4678 56.62 54.52C56.62 54.52 56.55 54.56 56.49 54.65ZM62.41 58.2C62.2934 58.1335 62.1732 58.0734 62.05 58.02L58.18 57.4C57.9966 57.3958 57.8174 57.3442 57.66 57.25C57.209 56.9344 56.6987 56.7133 56.16 56.6C54.96 56.18 53.76 55.8 52.58 55.36C51.384 54.9463 50.2629 54.3419 49.26 53.57C47.9134 52.5239 46.692 51.326 45.62 50C45.18 49.43 44.71 48.9 44.25 48.35C43.0029 46.8708 41.9136 45.2655 41 43.56C40.74 43.09 40.45 42.62 40.15 42.11C39.22 42.76 38.33 43.36 37.44 43.97C37.2255 44.1436 36.9982 44.3007 36.76 44.44C36.5553 44.5519 36.3149 44.579 36.0905 44.5154C35.8661 44.4518 35.6756 44.3026 35.56 44.1C35.3969 43.9169 35.3068 43.6802 35.3068 43.435C35.3068 43.1898 35.3969 42.9531 35.56 42.77L37.81 39.77C37.94 39.61 38.04 39.43 38.14 39.29L36 35.8C31.62 37 27.33 38.12 23 39.24C18.67 40.36 14.31 41.18 9.9 41.86C10.39 42.69 10.9 43.43 11.25 44.2C12.77 47.2 14.25 50.29 15.76 53.34C17.4597 56.8961 19.5527 60.2504 22 63.34C23.3426 65.1245 24.9474 66.6956 26.76 68C30.6069 70.4835 35.269 71.3729 39.76 70.48C41.9002 70.0484 43.97 69.3215 45.91 68.32C47.3415 67.752 48.6616 66.9362 49.81 65.91C49.9053 65.8454 50.0056 65.7885 50.11 65.74C50.75 65.38 51.4 65.03 52.03 64.66C54.32 63.3 56.61 61.95 58.89 60.58C59.89 59.99 60.83 59.36 61.8 58.74C62.0128 58.5709 62.2164 58.3907 62.41 58.2ZM46.93 35.71C47.32 35.66 47.55 35.64 47.77 35.59C49.22 35.26 50.66 34.86 52.13 34.59C53.4599 34.3282 54.7393 33.8556 55.92 33.19C56.0788 33.1101 56.2134 32.9893 56.31 32.84C57.66 30.76 58.98 28.67 60.31 26.6C61.64 24.53 63.17 22.32 64.6 20.19C64.8752 19.8077 65.1289 19.4104 65.36 19C66.66 16.5 68.08 14.06 69.17 11.44C69.55 10.52 70.02 9.63 70.48 8.66C70.3722 8.67348 70.2654 8.69351 70.16 8.72001C65.8233 10.008 61.6894 11.8999 57.88 14.34C52.0975 18.1043 47.0542 22.8969 43 28.48C42.6226 29.0753 42.2884 29.6969 42 30.34C41.9202 30.5528 41.9202 30.7872 42 31C42.27 31.82 42.58 32.63 42.9 33.49C42.988 33.4297 43.0685 33.3592 43.14 33.28L46.77 28.87C47.98 27.4 49.18 25.87 50.41 24.47C51.965 22.7762 53.6356 21.1924 55.41 19.73C56.64 18.63 57.95 17.62 59.27 16.63C60.0119 16.1299 60.7796 15.6692 61.57 15.25C61.7253 15.1233 61.9196 15.0541 62.12 15.0541C62.3204 15.0541 62.5147 15.1233 62.67 15.25C63.07 15.66 63.79 15.91 63.67 16.67C63.6151 16.9614 63.4917 17.2357 63.31 17.47C62.62 18.36 61.87 19.2 61.2 20.1C59.6972 22.0456 58.002 23.8347 56.14 25.44C54.5032 26.9482 52.9666 28.5616 51.54 30.27C50.1 31.94 48.69 33.64 47.27 35.27C47.18 35.39 47.12 35.48 46.93 35.71ZM46.46 48C47.08 48.71 47.64 49.47 48.32 50.11C49.19 50.95 50.14 51.71 51.09 52.47C51.3723 52.7109 51.7209 52.8608 52.09 52.9C53.9254 53.0111 55.7651 52.7701 57.51 52.19C58.4288 51.8391 59.2392 51.2529 59.86 50.49C59.06 49.07 58.73 47.43 57.39 46.37C55.9343 47.4594 54.2018 48.1178 52.39 48.27C51.552 48.4319 50.6863 48.3712 49.8791 48.0939C49.072 47.8167 48.3516 47.3326 47.79 46.69C47.79 46.69 47.72 46.69 47.67 46.61C47.1037 46.9015 46.6707 47.399 46.46 48ZM52.46 41.94V42C51.95 42 51.46 42 50.94 42C50.4855 42.0356 50.038 42.1332 49.61 42.29C49.3924 42.3333 49.1884 42.4285 49.0154 42.5674C48.8424 42.7063 48.7054 42.8849 48.6161 43.0881C48.5268 43.2912 48.4878 43.5129 48.5024 43.7343C48.517 43.9557 48.5848 44.1704 48.7 44.36C48.7368 44.4186 48.7638 44.4828 48.78 44.55C48.8737 44.9937 49.1066 45.3959 49.4447 45.698C49.7829 46.0002 50.2086 46.1866 50.66 46.23C51.6107 46.4191 52.5931 46.3751 53.5231 46.1017C54.453 45.8283 55.3029 45.3336 56 44.66C56.2436 44.4459 56.3936 44.1449 56.4179 43.8215C56.4422 43.4981 56.3389 43.1781 56.13 42.93C55.6361 42.4192 54.977 42.1003 54.27 42.03C53.69 42 53.09 42 52.5 41.93L52.46 41.94ZM59.55 18.94L59.43 18.82C59.18 19.01 58.92 19.18 58.68 19.38C57.38 20.52 56.11 21.67 54.8 22.79C52.8837 24.4376 51.1413 26.2772 49.6 28.28C47.82 30.59 46 32.87 44.1 35.08C43.68 35.56 43.3 36.08 42.9 36.57L43.01 36.67C43.68 36.04 44.41 35.45 45.01 34.76C46.65 32.9 48.22 30.98 49.85 29.12C51.12 27.67 52.41 26.23 53.75 24.85C55.09 23.47 56.67 22.06 58.11 20.64C58.68 20.14 59.11 19.53 59.59 19L59.55 18.94Z" fill="black"/>
<path d="M46.46 48C46.6731 47.3972 47.11 46.8995 47.68 46.61C47.68 46.61 47.78 46.61 47.8 46.69C48.3616 47.3326 49.082 47.8167 49.8891 48.0939C50.6963 48.3712 51.562 48.4319 52.4 48.27C54.2118 48.1178 55.9443 47.4594 57.4 46.37C58.74 47.43 59.07 49.07 59.87 50.49C59.2492 51.2529 58.4388 51.8391 57.52 52.19C55.7751 52.7701 53.9354 53.0111 52.1 52.9C51.7309 52.8608 51.3823 52.7109 51.1 52.47C50.1 51.71 49.2 50.95 48.33 50.11C47.64 49.46 47.08 48.7 46.46 48Z" fill="black"/>
<path d="M52.67 44.83C53.117 44.781 53.561 44.7075 54 44.61C54.1321 44.5952 54.2596 44.5525 54.374 44.4848C54.4883 44.417 54.5871 44.3258 54.6636 44.2172C54.7402 44.1085 54.7928 43.9848 54.818 43.8543C54.8433 43.7238 54.8405 43.5894 54.81 43.46C54.7397 43.2169 54.5799 43.0096 54.3628 42.8797C54.1457 42.7498 53.8874 42.707 53.64 42.76C53.3692 42.7848 53.1014 42.835 52.84 42.91C52.6907 42.9701 52.5291 42.9933 52.369 42.9777C52.2088 42.962 52.0548 42.9079 51.92 42.82C51.7884 42.727 51.6312 42.6771 51.47 42.6771C51.3088 42.6771 51.1516 42.727 51.02 42.82C50.8402 42.9102 50.695 43.0568 50.6065 43.2374C50.518 43.418 50.4911 43.6227 50.53 43.82C50.5439 44.0271 50.626 44.2239 50.7635 44.3794C50.901 44.535 51.0861 44.6407 51.29 44.68C51.7472 44.7534 52.2077 44.8035 52.67 44.83Z" fill="white"/>
<path d="M59.59 19C59.11 19.57 58.68 20.18 58.16 20.7C56.72 22.12 55.21 23.47 53.8 24.91C52.39 26.35 51.17 27.73 49.9 29.18C48.27 31.04 46.7 32.96 45.06 34.82C44.45 35.51 43.72 36.1 43.06 36.73L42.95 36.63C43.35 36.13 43.73 35.63 44.15 35.14C46.05 32.93 47.87 30.65 49.65 28.34C51.1913 26.3372 52.9337 24.4976 54.85 22.85C56.16 21.73 57.43 20.58 58.73 19.44C58.97 19.24 59.23 19.07 59.48 18.88L59.59 19Z" fill="black"/>
<path d="M28.2 46.59L29.15 45.78C29.5817 45.3904 30.149 45.1857 30.73 45.21C31.32 45.21 31.92 45.21 32.51 45.21C32.6911 45.1923 32.8623 45.119 33 45C33.2 44.85 33.36 44.64 33.55 44.49C33.6909 44.3784 33.8621 44.3116 34.0413 44.2982C34.2206 44.2847 34.3997 44.3252 34.5557 44.4145C34.7117 44.5038 34.8374 44.6378 34.9166 44.7992C34.9958 44.9606 35.0248 45.142 35 45.32C34.9906 45.4317 34.9705 45.5422 34.94 45.65C34.7191 46.1426 34.3546 46.5569 33.8943 46.8389C33.4339 47.1208 32.8991 47.2571 32.36 47.23C31.8143 47.1851 31.2657 47.1851 30.72 47.23C30.5212 47.2716 30.3399 47.3728 30.2 47.52C29.5232 48.1997 28.6934 48.7072 27.78 49C27.62 49 27.49 49.31 27.38 49.49C27.02 50.15 26.73 50.86 26.31 51.49C25.991 51.9373 25.5907 52.3207 25.13 52.62C24.7605 52.8821 24.3129 53.0111 23.8605 52.9856C23.4081 52.9602 22.9778 52.7819 22.64 52.48C21.9823 51.9342 21.499 51.2076 21.25 50.39C21.18 50.18 21.1 49.97 21 49.69C20.7185 50.0774 20.4147 50.448 20.09 50.8C19.7988 51.1044 19.4613 51.3609 19.09 51.56C18.9872 51.6131 18.8747 51.6451 18.7594 51.6542C18.644 51.6632 18.528 51.6492 18.4181 51.6129C18.3082 51.5766 18.2066 51.5187 18.1194 51.4426C18.0322 51.3666 17.961 51.2739 17.91 51.17C17.8133 50.9682 17.7935 50.7381 17.8542 50.5227C17.915 50.3074 18.0521 50.1215 18.24 50C18.5648 49.7536 18.8513 49.4604 19.09 49.13C19.67 48.22 20.21 47.29 20.74 46.36C20.8617 46.0851 20.949 45.7962 21 45.5C21.18 44.93 21.35 44.37 21.55 43.8C21.6087 43.6264 21.6966 43.464 21.81 43.32C21.9194 43.143 22.0812 43.0045 22.273 42.9238C22.4648 42.8432 22.677 42.8244 22.88 42.87C23.1037 42.9228 23.3024 43.051 23.4427 43.2332C23.5829 43.4153 23.6561 43.6402 23.65 43.87C23.7171 44.5855 23.5635 45.3043 23.21 45.93C22.8943 46.631 22.7445 47.3954 22.7722 48.1637C22.8 48.932 23.0045 49.6836 23.37 50.36C23.5549 50.5967 23.7662 50.8114 24 51C24.2427 50.8341 24.4615 50.6356 24.65 50.41C25.02 49.76 25.36 49.09 25.65 48.41C25.7073 48.2209 25.7073 48.0191 25.65 47.83C25.5231 47.2911 25.5325 46.7292 25.6775 46.1949C25.8224 45.6606 26.0982 45.1709 26.48 44.77C26.622 44.6007 26.8192 44.4868 27.0368 44.4484C27.2544 44.41 27.4786 44.4495 27.67 44.56C27.877 44.6296 28.0555 44.765 28.1783 44.9456C28.3011 45.1261 28.3614 45.3419 28.35 45.56C28.3183 45.9057 28.2682 46.2496 28.2 46.59Z" fill="black"/>
<path d="M52.67 44.83C52.2113 44.8065 51.754 44.7597 51.3 44.69C51.0961 44.6507 50.911 44.545 50.7735 44.3895C50.636 44.2339 50.5539 44.0372 50.54 43.83C50.5012 43.6327 50.528 43.428 50.6165 43.2474C50.705 43.0668 50.8503 42.9202 51.03 42.83C51.1616 42.737 51.3188 42.6871 51.48 42.6871C51.6412 42.6871 51.7984 42.737 51.93 42.83C52.0648 42.9179 52.2188 42.972 52.379 42.9877C52.5391 43.0034 52.7007 42.9801 52.85 42.92C53.1114 42.845 53.3792 42.7948 53.65 42.77C53.8974 42.717 54.1557 42.7598 54.3728 42.8897C54.5899 43.0196 54.7497 43.227 54.82 43.47C54.8489 43.5994 54.8502 43.7335 54.8236 43.8635C54.797 43.9934 54.7432 44.1163 54.6657 44.2239C54.5883 44.3316 54.4889 44.4217 54.3742 44.4882C54.2595 44.5548 54.1319 44.5963 54 44.61C53.561 44.7075 53.117 44.781 52.67 44.83Z" fill="black"/>
</svg>
