<?xml version="1.0" encoding="utf-8"?>
<!-- Generator: Adobe Illustrator 24.3.0, SVG Export Plug-In . SVG Version: 6.00 Build 0)  -->
<svg version="1.1" id="Layer_1" xmlns="http://www.w3.org/2000/svg" xmlns:xlink="http://www.w3.org/1999/xlink" x="0px" y="0px"
	 viewBox="0 0 80 80" style="enable-background:new 0 0 80 80;" xml:space="preserve">
<path d="M70.8,63.2c-0.2-1.6-0.9-3.2-1.8-4.5c-0.6-0.8-1-1.5-2.1-1.7c-0.7-0.4-1.3,0.2-1.5,0.8c-1.3,2.3-2.7,4.5-4,6.8
	c-0.3-0.2-0.6-0.3-0.9-0.5c-0.5-0.3-0.5-0.4-0.2-0.9c1.3-2.2,2.7-4.3,4-6.5c0.4-0.5,0.4-1.3-0.3-1.6c-4.6-2.4-8.5-5.8-12.7-8.9
	c-0.2-0.2-0.3-0.4-0.3-0.7c-0.4-4-0.4-8-0.4-12c-0.2-5-0.9-10-1.1-15c-0.2-1.6-0.2-3.2-0.1-4.7c0-0.7-0.3-1.4-0.9-1.7
	c-12,1.3-24,2.7-36.1,2.7c0,0-1.1,0-1.1,0c-1.4,0.1-1.1,2.2-1.2,3.2C10,32.2,10.2,46.4,11,60.6c0.4,1.8-0.5,4.3,1,5.7
	c3.2,0.3,6.5,0.1,9.7,0.2c2.3,0.2,12,0.1,14.5,0.1c0.7,0.2,1.4-0.3,2.1-0.4c0,0,6.4-0.3,6.4-0.3s1-0.1,1-0.1c1-0.2,2-0.2,3,0
	c0.3,0.1,0.6,0,0.9-0.1c0.3-0.2,0.4-0.4,0.5-0.7c0.7-1.4,0.4-3,0.7-4.5c-0.1-0.2,8.8,5.3,9,5.4c1,0.5,1.9,1,2.7,1.7
	C65.6,69.9,71.1,67.3,70.8,63.2z M38.4,49.4l-4.2-7.3c2.7,0.1,5.2,0.4,7.8,0.6L38.4,49.4z M48.7,62c0,0.6-0.1,1.2-0.3,1.7
	c-3.7,0.3-8.3,0.5-12,0.8c-7.8,0.5-15.7-0.3-23.5,0.1c0.3-1.8-0.1-3.5-0.2-5.2c-0.2-4.8-0.4-9.7-0.5-14.5
	c-0.4-9.5-0.3-18.9-0.3-28.4c5.5,0,11.1,0,16.5-0.5c6.4-0.4,12.6-1.5,19-1.9c-0.2,5.6,0.4,11.2,1.1,16.7c0.3,4.5,0.2,9,0.4,13.5
	c-1.7-1-3.3-2.5-5-3.6c-2.3,0.2-4.6-0.3-6.9-0.4c-1.6-0.1-3.2,0-4.7,0.1c-0.4,0-0.8,0.3-1,0.6c-0.2,0.4-0.2,0.9,0.1,1.2
	c1.4,2.6,2.9,5.1,4.6,7.5c0.3,0.5,0.7,0.9,1.2,1.2c0.3,0.2,0.5,0.8,0.9,1c3.9,2.4,7.4,5,11.2,7.5C48.8,60.2,48.6,61.1,48.7,62z
	 M68.8,64.5c-1.1,2.1-4,2.9-5.9,1.4c1.2-2.4,2.5-4.6,3.7-6.9c1.4,1.1,2.1,2.8,2.4,4.5C69,63.8,69,64.2,68.8,64.5z"/>
<path d="M22.7,23.9c-2.5,0.1-4.4,0.2-6.4,0.3c-0.7,0-1.1-0.3-1.1-0.8c0-0.5,0.4-0.9,1.1-0.9l9.2-0.7c3.2-0.2,6.3-0.5,9.5-0.7
	c0.9,0,2-0.5,2.8-0.1c0.4,0.3,0.6,0.9,0.3,1.3c-0.3,0.5-1.1,0.5-1.6,0.6C32,23.3,26.9,23.7,22.7,23.9z"/>
<path d="M16.2,30.4c-0.6,0.1-1.2-0.5-0.9-1.1c0.1-0.2,0.2-0.4,0.4-0.5c1.2-0.2,2.5-0.3,3.7-0.5c3.7-0.4,7.4-0.7,11.1-0.8
	c1.4,0,2.7-0.3,4.1-0.3c0.2,0,0.4,0.1,0.6,0.3c0.9,1-0.3,1.7-1.3,1.7C28.7,29.4,21.5,30,16.2,30.4z"/>
<path d="M42.5,33c0.4,0,0.9-0.1,1.3,0.3c0.5,0.5,0.2,1.6-0.6,1.6c-2.6,0.1-8.3,0.5-10.8,0.6c0,0-0.7,0-0.7,0
	c-0.7,0.1-1.2-0.8-0.7-1.3c0.5-0.5,1.3-0.4,2-0.5C34.5,33.6,41.1,33.1,42.5,33z"/>
<path d="M21.8,35.8c-0.5,0-3.8,0.2-4.3,0.1c-1.2-0.4-0.7-1.7,0.5-1.6c0,0,6.7-0.5,6.7-0.5c0.9,0.1,2.7-0.5,2.8,1
	c-0.1,0.5-0.5,0.9-1,0.9C26.5,35.6,21.8,35.7,21.8,35.8L21.8,35.8z"/>
<path d="M40.8,29.1c-0.6,0-1.2,0.1-1.8,0.1c-0.9,0.1-1.3-0.8-0.8-1.4c0.1-0.2,0.4-0.3,0.6-0.3c1.4-0.2,2.7-0.3,4-0.4
	c0.8-0.1,1.4,0.9,0.8,1.6C42.9,29.3,41.7,29,40.8,29.1L40.8,29.1z"/>
</svg>
