<svg width="80" height="80" viewBox="0 0 80 80" fill="none" xmlns="http://www.w3.org/2000/svg">
<path d="M61.38 64.64C62.73 62.3 64.04 60.05 65.38 57.79C65.4836 57.5986 65.6005 57.4149 65.73 57.24C65.8543 57.0542 66.0468 56.9248 66.2658 56.8799C66.4847 56.8349 66.7126 56.8781 66.9 57C66.9 57 66.96 57.06 67 57.07C68 57.23 68.46 58.07 69 58.74C69.9733 60.0588 70.6054 61.5978 70.84 63.22C70.9563 63.9082 70.829 64.6155 70.48 65.22C70.0364 66.0672 69.3998 66.7983 68.6215 67.3542C67.8433 67.91 66.9453 68.2751 66 68.42C64.7341 68.5562 63.4604 68.2448 62.4 67.54C62.0698 67.3014 61.7588 67.0373 61.47 66.75C61.4031 66.6939 61.3291 66.6469 61.25 66.61C60.74 66.34 60.25 66.1 59.7 65.8L51.4 60.8C51.2 60.68 50.99 60.58 50.74 60.45C50.589 60.8933 50.5378 61.3646 50.59 61.83C50.5976 62.9146 50.3974 63.9907 50 65C49.9719 65.1459 49.9142 65.2846 49.8306 65.4074C49.7469 65.5303 49.639 65.6347 49.5135 65.7143C49.388 65.7939 49.2476 65.847 49.1008 65.8704C48.954 65.8937 48.804 65.8868 48.66 65.85C47.6695 65.6554 46.6505 65.6554 45.66 65.85L44.66 65.92L38.28 66.2C38.1503 66.188 38.0197 66.2086 37.9 66.26C37.3808 66.5424 36.7871 66.6576 36.2 66.59H25.11C23.96 66.59 22.81 66.48 21.66 66.47C19.11 66.47 16.57 66.47 14.03 66.4C13.48 66.4 12.94 66.4 12.4 66.4C12.2459 66.4122 12.0915 66.3802 11.9551 66.3075C11.8187 66.2349 11.7059 66.1247 11.63 65.99C11.3443 65.5116 11.1699 64.975 11.12 64.42C11.1703 63.1454 11.1302 61.8689 11 60.6C10.9 59.1667 10.82 57.7367 10.76 56.31C10.59 51.83 10.37 47.31 10.27 42.88C10.14 37.16 10.1 31.44 10.05 25.73C10.05 23.14 10.1 20.55 10.12 17.97C10.145 17.6004 10.145 17.2296 10.12 16.86C10.1103 16.2729 10.2552 15.6935 10.54 15.18C10.6054 15.0397 10.7125 14.923 10.8468 14.8461C10.9811 14.7691 11.1359 14.7355 11.29 14.75H12.4C14.79 14.7 17.19 14.7 19.58 14.6C23.05 14.47 26.58 14.34 29.99 14.07C33.29 13.8 36.56 13.34 39.84 12.98C42.2 12.73 44.56 12.52 46.91 12.28C47.2773 12.2419 47.6415 12.1784 48 12.09C48.1547 12.035 48.3231 12.0315 48.4799 12.0802C48.6368 12.1289 48.7736 12.227 48.87 12.36C49.222 12.756 49.4113 13.2703 49.4 13.8C49.3017 15.3836 49.3385 16.9727 49.51 18.55C49.62 20.44 49.74 22.32 49.88 24.21C49.94 25.03 50.07 25.85 50.14 26.67C50.24 27.78 50.25 28.89 50.41 29.98C50.5547 31.1812 50.6248 32.3901 50.62 33.6C50.62 34.79 50.62 35.99 50.62 37.19C50.62 39.99 50.77 42.79 51.02 45.59C51.0188 45.7183 51.0481 45.845 51.1055 45.9598C51.1629 46.0745 51.2467 46.174 51.35 46.25C53.95 48.25 56.52 50.25 59.15 52.15C60.55 53.15 62.07 54.04 63.54 54.97C63.6913 55.0486 63.8484 55.1155 64.01 55.17C64.124 55.2082 64.2288 55.27 64.3175 55.3512C64.4062 55.4325 64.4768 55.5314 64.5249 55.6417C64.573 55.752 64.5974 55.8711 64.5965 55.9914C64.5957 56.1116 64.5696 56.2304 64.52 56.34C64.464 56.4802 64.3936 56.6143 64.31 56.74C62.98 58.91 61.65 61.07 60.31 63.24C60.01 63.74 60.03 63.8 60.52 64.11C60.8 64.3 61.1 64.47 61.38 64.64ZM11.83 16.46V18.34C11.83 24.1 11.83 29.86 11.89 35.63C11.89 38.69 12.05 41.75 12.16 44.82C12.27 48.1 12.41 51.38 12.53 54.66C12.59 56.22 12.62 57.79 12.7 59.35C12.79 61.08 13.23 62.79 12.92 64.6H13.67C15.93 64.6 18.19 64.47 20.45 64.49C22.34 64.49 24.23 64.69 26.12 64.68C29.55 64.68 32.99 64.86 36.41 64.54L38.68 64.35L43.62 64C44.34 63.95 45.06 63.93 45.77 63.89C46.64 63.84 47.5 63.77 48.42 63.7C48.6357 63.1604 48.7313 62.5803 48.7 62C48.5911 61.116 48.7737 60.2207 49.22 59.45C48.54 59 47.87 58.59 47.22 58.15C44.19 56.09 41.15 54 38 52C37.8086 51.8322 37.6435 51.6367 37.51 51.42C37.39 51.28 37.3 51.06 37.15 50.99C36.6301 50.7046 36.1979 50.2828 35.9 49.77C35.17 48.67 34.43 47.57 33.74 46.43C32.91 45.06 32.12 43.66 31.33 42.25C31.2042 42.0807 31.1278 41.8799 31.1094 41.6699C31.0909 41.4598 31.131 41.2488 31.2253 41.0602C31.3196 40.8716 31.4644 40.7128 31.6435 40.6015C31.8227 40.4903 32.0291 40.4309 32.24 40.43C33.82 40.35 35.41 40.29 36.99 40.35C38.79 40.42 40.59 40.65 42.38 40.79C42.7159 40.8069 43.0525 40.7766 43.38 40.7C43.5593 40.6617 43.7454 40.67 43.9205 40.7243C44.0956 40.7786 44.2538 40.877 44.38 41.01C44.8128 41.4045 45.2668 41.7751 45.74 42.12C46.74 42.84 47.67 43.53 48.65 44.22C48.7227 44.2645 48.7998 44.3013 48.88 44.33C48.88 44.06 48.88 43.85 48.88 43.63C48.7 40.6567 48.6133 37.68 48.62 34.7C48.62 33.42 48.55 32.14 48.45 30.86C48.35 29.58 48.2 28.09 48 26.72C47.5666 24.0754 47.3492 21.3999 47.35 18.72C47.35 17.39 47.35 16.07 47.35 14.72C47.35 14.53 47.35 14.34 47.35 14.12C46.45 14.18 45.61 14.2 44.77 14.29C41.87 14.63 38.99 15.01 36.09 15.29C33.52 15.57 30.95 15.83 28.37 16.01C25.79 16.19 23.16 16.31 20.55 16.38C18.21 16.45 15.86 16.43 13.55 16.45L11.83 16.46ZM39.53 51C40.1 51.34 40.53 51.68 41.1 51.95C42.467 52.7084 43.7861 53.55 45.05 54.47C46.88 55.75 48.74 57.01 50.64 58.19C53.11 59.73 55.64 61.19 58.13 62.68L58.4 62.81L62.4 56.5C62.13 56.33 61.9 56.16 61.66 56.02C58.94 54.3851 56.334 52.5676 53.86 50.58C52.86 49.83 51.95 49.07 50.98 48.33C50.29 47.8 49.54 47.33 48.87 46.78C47.49 45.56 45.98 44.49 44.51 43.36C44.38 43.26 44.24 43.18 44.07 43.07L39.53 51ZM38.42 49.41L42.07 42.66C39.41 42.54 36.89 42.16 34.24 42.1L38.42 49.41ZM62.89 65.91C63.7192 66.5176 64.7506 66.7826 65.77 66.65C66.4004 66.5353 66.997 66.2808 67.5162 65.9053C68.0353 65.5298 68.4637 65.0428 68.77 64.48C68.9573 64.1896 69.0385 63.8434 69 63.5C68.7699 61.934 68.0729 60.4738 67 59.31C66.8869 59.1968 66.7591 59.0992 66.62 59.02C65.39 61.3 64.17 63.54 62.89 65.86V65.91Z" fill="black"/>
<path d="M39.53 51L44 43C44.17 43.11 44.31 43.19 44.44 43.29C45.91 44.42 47.44 45.49 48.8 46.71C49.47 47.29 50.22 47.71 50.91 48.26C51.91 49 52.83 49.76 53.79 50.51C56.2689 52.5155 58.8816 54.3498 61.61 56C61.85 56.14 62.08 56.31 62.35 56.48L58.35 62.79L58.08 62.66C55.58 61.17 53.08 59.66 50.59 58.17C48.69 56.99 46.83 55.73 45 54.45C43.7531 53.5214 42.4507 52.6698 41.1 51.9C40.58 51.63 40.1 51.29 39.53 51Z" fill="black"/>
<path d="M22.67 23.93C20.2 24.06 18.23 24.17 16.25 24.26C15.54 24.26 15.14 24 15.12 23.48C15.1 22.96 15.47 22.62 16.17 22.57L25.33 21.9C28.49 21.66 31.65 21.42 34.81 21.16C35.52 21.1 36.23 20.98 36.93 20.89C37.1823 20.8512 37.4399 20.9104 37.65 21.0554C37.8601 21.2004 38.0068 21.4203 38.06 21.67C38.1125 21.8951 38.0764 22.1318 37.9591 22.331C37.8418 22.5303 37.6523 22.6767 37.43 22.74C37.073 22.8315 36.7079 22.8884 36.34 22.91C33.42 23.15 30.49 23.39 27.57 23.61C25.77 23.74 24 23.85 22.67 23.93Z" fill="black"/>
<path d="M16.25 30.36H16.13C15.9112 30.3657 15.6986 30.2867 15.5365 30.1396C15.3744 29.9924 15.2754 29.7884 15.26 29.57C15.2546 29.4602 15.2712 29.3504 15.3086 29.247C15.346 29.1436 15.4036 29.0486 15.4781 28.9677C15.5525 28.8867 15.6423 28.8214 15.7422 28.7754C15.8421 28.7295 15.9501 28.7038 16.06 28.7C17.18 28.56 18.3 28.43 19.42 28.31C23.11 27.91 26.81 27.65 30.52 27.48C31.74 27.42 32.94 27.26 34.15 27.15C34.3032 27.14 34.4568 27.14 34.61 27.15C34.8182 27.1706 35.0133 27.2607 35.1639 27.4059C35.3145 27.551 35.4118 27.7427 35.44 27.95C35.4659 28.1455 35.4246 28.3441 35.3229 28.5131C35.2211 28.682 35.065 28.8114 34.88 28.88C34.5575 28.9942 34.2212 29.0649 33.88 29.09L28.17 29.49L21.67 29.97L16.25 30.36Z" fill="black"/>
<path d="M42.49 33C42.7 33 42.92 33 43.14 33C43.2543 33.0026 43.3669 33.0277 43.4714 33.0738C43.576 33.12 43.6705 33.1862 43.7494 33.2689C43.8283 33.3515 43.8902 33.4489 43.9315 33.5555C43.9728 33.6621 43.9927 33.7757 43.99 33.89C44.0009 34.0117 43.9875 34.1343 43.9506 34.2508C43.9136 34.3672 43.8538 34.4751 43.7747 34.5682C43.6956 34.6613 43.5987 34.7377 43.4897 34.793C43.3807 34.8482 43.2619 34.8812 43.14 34.89L36.69 35.26L32.33 35.51H31.68C31.4652 35.5325 31.2502 35.4688 31.0823 35.3329C30.9145 35.1969 30.8075 34.9998 30.785 34.785C30.7625 34.5702 30.8262 34.3552 30.9621 34.1873C31.0981 34.0195 31.2952 33.9125 31.51 33.89C31.9752 33.7933 32.4462 33.7265 32.92 33.69L40.4 33.16L42.49 33Z" fill="black"/>
<path d="M21.81 35.76L18.23 35.89C17.9906 35.9149 17.7494 35.9149 17.51 35.89C17.3281 35.8553 17.1639 35.7586 17.0454 35.6163C16.9269 35.4741 16.8613 35.2951 16.86 35.11C16.8581 34.9356 16.914 34.7656 17.0189 34.6263C17.1239 34.487 17.2719 34.3863 17.44 34.34C17.6295 34.2874 17.8238 34.2539 18.02 34.24L24.72 33.75C25.24 33.75 25.72 33.75 26.28 33.7C26.4096 33.685 26.5404 33.685 26.67 33.7C26.9085 33.7362 27.1258 33.8573 27.282 34.041C27.4382 34.2248 27.5227 34.4588 27.52 34.7C27.4894 34.947 27.372 35.1751 27.1889 35.3436C27.0057 35.5121 26.7687 35.61 26.52 35.62L21.83 35.72L21.81 35.76Z" fill="black"/>
<path d="M40.8 29.09C40.2 29.14 39.59 29.19 38.99 29.22C38.39 29.25 38.05 28.97 37.99 28.51C37.9776 28.3952 37.9887 28.279 38.0228 28.1686C38.0568 28.0582 38.1129 27.9559 38.1878 27.8679C38.2627 27.7799 38.3547 27.7082 38.4582 27.6569C38.5617 27.6057 38.6746 27.5761 38.79 27.57C39.79 27.44 40.73 27.37 41.7 27.27C42.06 27.27 42.43 27.19 42.8 27.17C42.9243 27.1547 43.0505 27.1645 43.171 27.1986C43.2915 27.2328 43.404 27.2907 43.5018 27.369C43.5996 27.4472 43.6808 27.5443 43.7406 27.6543C43.8004 27.7644 43.8376 27.8853 43.85 28.01C43.8677 28.1378 43.8571 28.2679 43.819 28.3911C43.7808 28.5144 43.716 28.6277 43.6292 28.7231C43.5424 28.8185 43.4356 28.8937 43.3165 28.9433C43.1974 28.9928 43.0689 29.0156 42.94 29.01C42.23 29.08 41.52 29.1 40.8 29.15V29.09Z" fill="black"/>
</svg>
