<svg width="80" height="80" viewBox="0 0 80 80" fill="none" xmlns="http://www.w3.org/2000/svg">
<path d="M41.8 71.25H38.87L38.31 71.12C36.6524 70.7923 35.0161 70.3648 33.41 69.84C31.1502 68.8706 29.1221 67.4322 27.46 65.62C27.1578 65.2884 26.9294 64.8964 26.79 64.47C26.6706 64.1664 26.6274 63.8381 26.664 63.5139C26.7006 63.1897 26.8159 62.8794 27 62.61C27.0564 62.4906 27.1381 62.385 27.2394 62.3004C27.3407 62.2157 27.4592 62.1541 27.5867 62.1199C27.7142 62.0856 27.8476 62.0795 27.9777 62.102C28.1078 62.1245 28.2314 62.175 28.34 62.25C28.8329 62.5525 29.2835 62.919 29.68 63.34C30.5318 64.2309 31.5514 64.9446 32.68 65.44C32.62 62.88 32.55 60.44 32.52 57.9C32.52 57.36 32.39 57.1 32.03 56.9C30.727 56.173 29.568 55.2139 28.61 54.07C28.5289 53.9951 28.4261 53.9479 28.3164 53.9354C28.2068 53.9228 28.096 53.9454 28 54C26.43 54.72 24.9 55.55 23.32 56.2C21.6207 56.9248 19.7924 57.2984 17.945 57.2984C16.0976 57.2984 14.2693 56.9248 12.57 56.2C8.00001 54.34 5.71001 47.2 8.05001 41.49C9.73001 37.39 12.05 34.67 15.44 33.62C15.87 33.48 16.31 33.4 16.78 33.29C16.66 32.9 16.56 32.6 16.47 32.29C16.0577 30.9989 15.8848 29.6433 15.96 28.29C16.1126 26.313 16.9345 24.4471 18.29 23C19.1307 22.0178 20.1649 21.2196 21.328 20.6552C22.4912 20.0908 23.7582 19.7725 25.05 19.72C25.9046 19.6972 26.7598 19.7306 27.61 19.82C27.61 18.82 27.61 17.75 27.61 16.7C27.74 13.45 28.72 10.89 30.85 9.31C31.9166 8.52684 33.1666 8.03097 34.48 7.87C36.18 7.62 37.6 8.34 38.73 10.12L39.26 10.94C41.34 9.38 41.82 9.12 43.83 9.37C45.3663 9.53201 46.8792 9.86748 48.34 10.37C51.03 11.37 52.76 13.76 53.41 17.55L53.75 19.55C53.93 19.46 54.09 19.36 54.25 19.3C56.44 18.41 58.62 18.16 60.5 20.3C61.4784 21.3809 62.245 22.636 62.76 24C63.76 26.67 64.39 29.53 65.18 32.31C65.34 32.86 65.46 33.42 65.6 33.97C66.5569 33.8122 67.5357 33.8477 68.4786 34.0744C69.4215 34.3011 70.3095 34.7145 71.09 35.29C74.19 37.22 75.5 42.38 74 46.59C73.3439 48.5668 72.2225 50.3571 70.73 51.81C68.0241 54.4377 64.6242 56.2383 60.93 57C59.3547 57.3667 57.7223 57.4167 56.1275 57.1472C54.5327 56.8776 53.0073 56.294 51.64 55.43C51.21 55.15 50.76 54.58 50.36 54.65C49.96 54.72 49.57 55.38 49.22 55.84C49.0362 56.0955 48.9255 56.3963 48.9 56.71C48.9 58.15 48.9 59.59 48.9 61.03C48.9 61.61 48.71 62.18 48.65 62.77C48.58 63.62 48.55 64.48 48.49 65.42C49.7849 64.688 50.8883 63.66 51.71 62.42C51.9536 62.0606 52.2316 61.7257 52.54 61.42C52.6381 61.3155 52.7575 61.2334 52.8901 61.1791C53.0228 61.1248 53.1655 61.0996 53.3087 61.1053C53.4519 61.111 53.5922 61.1474 53.7201 61.2121C53.848 61.2767 53.9605 61.3681 54.05 61.48C54.2847 61.7659 54.4442 62.106 54.5141 62.4692C54.5839 62.8325 54.5619 63.2074 54.45 63.56C54.3582 63.9149 54.2096 64.2526 54.01 64.56C53.2508 65.5976 52.4152 66.577 51.51 67.49C49.5786 69.2532 47.1662 70.4019 44.58 70.79C43.63 71 42.71 71.11 41.8 71.25ZM45.19 39.44C45.277 39.399 45.3673 39.3655 45.46 39.34C47.63 39.34 49.8 39.34 51.97 39.34C52.1342 39.3481 52.2984 39.3237 52.4531 39.2682C52.6079 39.2127 52.7502 39.1273 52.8719 39.0168C52.9936 38.9062 53.0922 38.7728 53.1623 38.624C53.2323 38.4753 53.2723 38.3142 53.28 38.15C53.3554 37.7885 53.3066 37.4121 53.1414 37.0818C52.9762 36.7515 52.7044 36.4866 52.37 36.33C52.2087 36.2446 52.0738 36.1166 51.98 35.96C51.77 35.62 51.6 35.22 51.37 34.91C50.9 34.3 50.37 33.75 49.93 33.14C47.54 30.03 45.17 26.89 42.77 23.79C42.0183 22.7047 41.0258 21.808 39.87 21.17C39.11 20.8 38.53 21.17 38.44 22.27C38.4475 22.406 38.427 22.5421 38.38 22.67C37.96 23.31 37.55 23.96 37.09 24.53C35.17 26.96 33.22 29.35 31.29 31.77C29.9939 33.2311 28.8884 34.8507 28 36.59C27.8539 36.8574 27.7683 37.1536 27.7493 37.4578C27.7303 37.7619 27.7783 38.0665 27.89 38.35C27.9615 38.5845 28.1099 38.788 28.3113 38.9277C28.5127 39.0674 28.7554 39.1352 29 39.12C30.32 39.12 31.63 38.98 33 38.93C33.6 38.93 34.2 38.93 34.86 38.93C34.86 39.33 34.86 39.59 34.86 39.85C34.86 41.5 34.86 43.16 34.96 44.85C34.96 45.72 35.23 46.59 35.23 47.47C35.25 53.7143 35.6407 59.952 36.4 66.15C36.48 66.8 36.66 67.02 37.11 67.1C39.769 67.5435 42.4901 67.4448 45.11 66.81C45.53 66.71 45.67 66.52 45.65 65.94C45.56 63.67 45.5 61.4 45.43 59.13C45.43 59.04 45.43 58.88 45.43 58.86C45.02 58.66 45.15 58.16 45.14 57.77C45.08 55.88 45 54 45 52.1C45 47.88 45.12 43.67 45.19 39.44Z" fill="black"/>
</svg>
