<?xml version="1.0" encoding="utf-8"?>
<!-- Generator: Adobe Illustrator 24.3.0, SVG Export Plug-In . SVG Version: 6.00 Build 0)  -->
<svg version="1.1" id="Layer_1" xmlns="http://www.w3.org/2000/svg" xmlns:xlink="http://www.w3.org/1999/xlink" x="0px" y="0px"
	 viewBox="0 0 80 80" style="enable-background:new 0 0 80 80;" xml:space="preserve">
<path d="M41.8,71.2h-2.9c-1.8-0.4-3.7-0.8-5.5-1.4c-2.2-1-8.7-4.6-6.2-7.5c0.9-0.7,1.8,0.5,2.4,1c0.9,0.9,1.9,1.6,3,2.1
	c-0.1-2.6-0.1-5-0.2-7.5c0-0.5-0.1-0.8-0.5-1c-1.3-0.7-2.5-1.7-3.4-2.8c-0.2-0.2-0.4-0.2-0.6-0.1c-4.8,2.6-10.1,4.7-15.4,2.2
	C3.4,51.8,6.7,35,16.8,33.3c-3.1-7.5,2.9-14.8,10.8-13.5c-0.2-3.7,0.2-8.5,3.2-10.5c2.5-1.8,6-2.4,7.9,0.8c0,0,0.5,0.8,0.5,0.8
	c2.1-1.6,2.6-1.8,4.6-1.6c1.5,0.2,3,0.5,4.5,1c3.5,1.2,4.9,5,5.4,9.2c8.7-4.4,10.1,8.8,11.8,14.4c6.6-1,10.7,6.2,8.4,12.6
	c-1.9,5.6-7.5,9.2-13.1,10.4c-3.1,0.7-6.6,0.2-9.3-1.6c-0.4-0.3-0.9-0.8-1.3-0.8c-0.5,0.2-1.4,1.4-1.5,2.1c0,1.4,0,2.9,0,4.3
	c-0.2,1.5-0.4,2.8-0.4,4.4c1.3-0.7,2.4-1.8,3.2-3c0.4-0.5,0.8-1.3,1.6-1.3c0.7,0,1.1,0.8,1.2,1.4c0.2,2.1-1.8,3.6-3,5
	C48.9,70,45.3,70.8,41.8,71.2z M45.2,39.4c2.2-0.3,4.5,0,6.8-0.1c0.5,0,1-0.3,1.2-0.7c0.4-0.8,0.1-1.9-0.8-2.3
	c-3.2-4.1-6.4-8.4-9.6-12.5c-0.8-1.1-4-4.6-4.3-1.5c-0.1,0.9-0.9,1.6-1.3,2.3c-1.9,2.4-3.9,4.8-5.8,7.2c-1.3,1.5-2.4,3.1-3.3,4.8
	c-0.3,0.5-0.3,1.2-0.1,1.8c0.1,0.5,0.6,0.8,1.1,0.8c1.9,0,3.9-0.3,5.9-0.2c0.2,8.9,0.5,18.4,1.5,27.2c0.1,0.6,0.3,0.9,0.7,0.9
	c2.7,0.4,5.4,0.3,8-0.3c0.4-0.1,0.6-0.3,0.5-0.9c-0.1-2.4-0.2-4.7-0.2-7.1c-0.4-0.2-0.3-0.7-0.3-1.1C44.9,51.7,45.1,45.6,45.2,39.4z
	"/>
</svg>
