<svg width="80" height="80" viewBox="0 0 80 80" fill="none" xmlns="http://www.w3.org/2000/svg">
<path d="M39.71 25.08C40.9 23.86 42.1 22.55 43.39 21.33C47.6194 17.1969 52.3935 13.6609 57.58 10.82C60.4666 9.19002 63.6127 8.07026 66.88 7.51C69.17 7.05859 71.5434 7.32036 73.68 8.26C74.9486 8.87779 76.0476 9.79518 76.8822 10.9329C77.7168 12.0706 78.2617 13.3945 78.47 14.79C78.9558 17.5308 78.8741 20.3421 78.23 23.05C77.274 27.3986 75.7156 31.5924 73.6 35.51C68.6177 45.0149 61.9805 53.5552 54 60.73C50.0241 64.4372 45.5796 67.6075 40.78 70.16C40.32 70.4 39.85 70.63 39.37 70.85C39.1304 70.9498 38.8689 70.9856 38.6112 70.9541C38.3536 70.9225 38.1085 70.8246 37.9 70.67C37.26 70.28 36.56 70.01 35.9 69.67C29.8102 66.6578 24.1446 62.8549 19.05 58.36C14.1187 54.1217 9.83636 49.1824 6.34001 43.7C4.25992 40.4961 2.71947 36.9726 1.78001 33.27C0.969274 30.3765 1.01094 27.3104 1.90001 24.44C2.39174 22.9711 3.20538 21.6306 4.28151 20.5164C5.35764 19.4022 6.66907 18.5425 8.12001 18C11.0392 16.8688 14.1936 16.4805 17.3 16.87C22.9678 17.5106 28.4694 19.1885 33.53 21.82C35.57 22.78 37.55 23.92 39.71 25.08ZM34.41 49.85C34.41 50.85 34.41 51.71 34.41 52.6C34.41 54.1 34.27 55.6 34.22 57.1C34.22 58.37 34.6 58.77 35.86 58.74C36.64 58.74 37.42 58.74 38.21 58.8C39.67 58.85 41.13 58.96 42.59 58.94C42.8979 58.946 43.2036 58.8864 43.4867 58.7651C43.7698 58.6439 44.0238 58.4638 44.2319 58.2367C44.44 58.0097 44.5974 57.741 44.6936 57.4485C44.7899 57.1559 44.8227 56.8462 44.79 56.54C44.79 54.54 44.79 52.54 44.79 50.54C44.79 50.49 44.79 50.45 44.86 50.38C45.37 50.38 45.86 50.47 46.41 50.5C47.97 50.59 49.53 50.71 51.09 50.74C51.5191 50.7678 51.9446 50.6453 52.2931 50.3934C52.6417 50.1416 52.8917 49.7762 53 49.36C53.2829 48.5446 53.5036 47.7088 53.66 46.86C53.92 45.28 54.13 43.7 54.28 42.11C54.3195 41.9322 54.318 41.7478 54.2757 41.5707C54.2334 41.3936 54.1513 41.2284 54.0356 41.0877C53.92 40.947 53.7739 40.8345 53.6083 40.7587C53.4427 40.6828 53.2621 40.6457 53.08 40.65C52.32 40.65 51.56 40.59 50.8 40.55L45.58 40.24C44.93 40.24 44.95 40.24 44.95 39.56C44.95 37.47 44.95 35.39 44.95 33.3C44.9596 33.1318 44.9346 32.9635 44.8764 32.8054C44.8183 32.6473 44.7283 32.5029 44.612 32.381C44.4958 32.2591 44.3557 32.1624 44.2006 32.0969C44.0454 32.0313 43.8784 31.9984 43.71 32C43.4205 31.975 43.1295 31.975 42.84 32C41.78 32 40.73 32.08 39.67 32.14C39.1677 32.1569 38.6668 32.2036 38.17 32.28C37.4 32.4 36.64 32.58 35.87 32.7C35.557 32.713 35.2615 32.8479 35.0466 33.0759C34.8317 33.3038 34.7145 33.6068 34.72 33.92C34.72 34.72 34.62 35.51 34.61 36.31C34.61 37.31 34.61 38.39 34.61 39.55C32.78 39.29 31.11 39.09 29.44 38.81C28.49 38.65 27.97 38.9 27.76 39.81C27.66 40.29 27.64 40.81 27.52 41.26C27.0973 43.3548 26.863 45.4834 26.82 47.62C26.7772 47.8847 26.7933 48.1555 26.8673 48.4132C26.9414 48.6709 27.0714 48.909 27.2481 49.1106C27.4249 49.3122 27.644 49.4723 27.8898 49.5794C28.1356 49.6864 28.402 49.7379 28.67 49.73C29.27 49.79 29.88 49.82 30.48 49.82C31.72 49.86 33 49.85 34.41 49.85Z" fill="black"/>
</svg>
