<svg width="80" height="80" viewBox="0 0 80 80" fill="none" xmlns="http://www.w3.org/2000/svg">
<path d="M74.16 32.53C73.94 33.69 73.75 34.87 73.48 36.02C72.8404 38.5218 71.9213 40.9437 70.74 43.24C70.6915 43.3208 70.6262 43.3903 70.5486 43.4438C70.471 43.4972 70.3828 43.5335 70.29 43.55C66.96 43.83 63.62 44.08 60.29 44.35C60.2151 44.3661 60.1378 44.3672 60.0625 44.3533C59.9872 44.3393 59.9154 44.3106 59.8512 44.2688C59.7871 44.2269 59.7319 44.1728 59.6887 44.1095C59.6456 44.0462 59.6155 43.975 59.6 43.9C59.23 42.9 58.78 41.83 58.47 40.77C58.2211 39.8592 58.0275 38.9342 57.89 38C57.8737 37.7973 57.8015 37.603 57.6815 37.4389C57.5615 37.2747 57.3982 37.147 57.21 37.07C56.9808 36.9359 56.7259 36.8516 56.4619 36.8226C56.198 36.7936 55.9308 36.8205 55.678 36.9016C55.4251 36.9828 55.1922 37.1163 54.9944 37.2935C54.7966 37.4707 54.6384 37.6876 54.53 37.93C53.4877 40.0439 52.2454 42.053 50.82 43.93C50.121 44.9528 49.4865 46.0182 48.92 47.12C48.7998 47.272 48.6659 47.4126 48.52 47.54C48.3879 47.3781 48.277 47.2 48.19 47.01C47.11 43.25 46 39.47 45 35.69C44.8045 34.7573 44.3743 33.89 43.75 33.17C43.5238 32.9476 43.248 32.7822 42.9453 32.6875C42.6426 32.5927 42.3217 32.5714 42.0091 32.6251C41.6965 32.6788 41.4011 32.8061 41.1474 32.9965C40.8937 33.1869 40.689 33.4349 40.55 33.72C39.26 36.52 37.92 39.3 36.76 42.15C35.6 45 34.76 47.77 33.71 50.58C33.62 50.82 33.54 51.06 33.45 51.29H33.26C33.21 50.85 33.16 50.42 33.09 49.99C33.0607 49.5478 32.9904 49.1092 32.88 48.68C32.22 46.68 31.4 44.75 30.88 42.68C29.93 39.15 29.16 35.57 28.29 32.02C27.69 29.57 27.06 27.13 26.42 24.68C26.11 23.51 25.51 23.37 24.42 23.93C23.7945 24.29 23.327 24.8717 23.11 25.56C21.44 29.56 20.32 33.74 19 37.85C18.58 39.18 18 40.46 17.57 41.77C17.5411 41.9034 17.461 42.0201 17.3469 42.0949C17.2328 42.1697 17.0938 42.1967 16.96 42.17L10.28 41.78C10.0678 41.7598 9.87116 41.6597 9.73 41.5C8.07284 39.1626 6.79698 36.5772 5.95 33.84C5.04531 30.3295 5.20544 26.6292 6.41 23.21C8.51 16.87 13.11 13.21 19.09 10.92C22.9353 9.51297 27.1547 9.51297 31 10.92C32.1295 11.3427 33.2039 11.9 34.2 12.58C36.6 14.09 38.96 15.67 41.33 17.24C41.7644 17.5505 42.1817 17.8843 42.58 18.24C43.77 17.44 44.91 16.61 46.12 15.9C48.5624 14.3124 51.1755 13.0042 53.91 12C55.6389 11.406 57.4779 11.202 59.295 11.4025C61.112 11.6031 62.8622 12.2033 64.42 13.16C64.8081 13.3787 65.1704 13.6403 65.5 13.94C67.7625 16.037 69.8094 18.3552 71.61 20.86C72.9098 22.8646 73.7089 25.1521 73.94 27.53C74.02 28.09 74.09 28.66 74.16 29.23V32.53Z" fill="black"/>
<path d="M40.26 70.67C39.5 70.44 38.73 70.26 37.99 69.98C37.3117 69.7273 36.6642 69.3985 36.06 69C35.8047 68.8223 35.6052 68.5756 35.4848 68.2887C35.3644 68.0019 35.328 67.6867 35.38 67.38C35.3718 67.2681 35.341 67.1589 35.2894 67.0593C35.2379 66.9596 35.1666 66.8714 35.08 66.8C30.9733 63.0667 26.85 59.33 22.71 55.59C19.344 52.6656 16.155 49.5434 13.16 46.24C13.03 46.09 12.91 45.93 12.7 45.67H13.35C15.28 45.67 17.21 45.67 19.14 45.67C20.22 45.67 20.56 45.22 20.55 44.15C20.5773 43.7235 20.6753 43.3044 20.84 42.91C21.84 40.17 22.84 37.43 23.84 34.57C24.09 35.38 24.29 36.1 24.55 36.8C25.8 40.23 27 43.65 28.32 47C29.5 49.94 30.84 52.82 32.13 55.72C32.22 56.0003 32.415 56.2349 32.6741 56.3747C32.9332 56.5145 33.2363 56.5487 33.52 56.47C34.05 56.34 34.33 55.88 34.38 55.19C34.4325 54.8969 34.5375 54.6157 34.69 54.36C34.86 54 35.09 53.66 35.24 53.28C37.24 48.2733 39.2233 43.2533 41.19 38.22C41.24 38.1 41.31 38 41.42 37.79C41.9 39.35 42.31 40.79 42.8 42.26C43.94 45.56 45.1033 48.8467 46.29 52.12C46.3522 52.4009 46.4819 52.6624 46.668 52.8818C46.854 53.1013 47.0907 53.2721 47.3576 53.3795C47.6245 53.4868 47.9136 53.5275 48.1998 53.498C48.486 53.4684 48.7606 53.3696 49 53.21C49.3283 52.9101 49.5964 52.5503 49.79 52.15C51.24 49.58 52.66 46.99 54.09 44.41C54.42 43.82 54.77 43.23 55.16 42.55C55.39 43.3 55.56 43.94 55.8 44.55C56.1 45.33 56.44 46.1 56.8 46.85C57.39 48 57.74 48 59 48C59.15 48 59.32 47.95 59.43 48C60.4923 48.5407 61.6804 48.7859 62.87 48.71C64.35 48.78 65.87 48.71 67.33 48.71C67.3403 48.7628 67.3403 48.8172 67.33 48.87C64.5535 52.5273 61.4142 55.8945 57.96 58.92C54.48 61.74 50.96 64.47 47.41 67.24C45.4439 68.7976 43.1964 69.9622 40.79 70.67H40.26Z" fill="black"/>
</svg>
