<svg width="80" height="80" viewBox="0 0 80 80" fill="none" xmlns="http://www.w3.org/2000/svg">
<path d="M60.25 40.46C61.25 40.24 62.15 39.96 63.1 39.82C64.4449 39.5863 65.828 39.7247 67.1 40.22C67.8714 40.4569 68.5219 40.9818 68.9167 41.6856C69.3114 42.3894 69.42 43.2182 69.22 44C69.22 44.11 69.22 44.21 69.16 44.35C69.84 44.27 70.51 44.16 71.16 44.13C71.7974 44.0882 72.4374 44.1116 73.07 44.2C73.8791 44.4131 74.6132 44.8465 75.1905 45.4521C75.7679 46.0577 76.1658 46.8116 76.34 47.63C76.4478 48.4917 76.2458 49.3636 75.77 50.09C75.1058 51.2549 74.2621 52.3078 73.27 53.21C73.15 53.31 73.11 53.5 73.02 53.64C72.88 53.9598 72.6873 54.2539 72.45 54.51C70.45 56.16 68.33 57.74 66.32 59.42C64.5339 60.8835 62.6118 62.1727 60.58 63.27C58.3097 64.7251 55.9135 65.9734 53.42 67C51.9371 67.5629 50.4033 67.9815 48.84 68.25C47.6135 68.318 46.3833 68.2273 45.18 67.98C43.4244 67.7617 41.727 67.2084 40.18 66.35C38.37 65.35 36.58 64.24 34.79 63.17C34.18 62.81 33.59 62.44 33 62.06C30.5094 60.4688 27.6871 59.4698 24.75 59.14C24.4637 59.1194 24.1763 59.1194 23.89 59.14C24.01 59.39 24.08 59.56 24.16 59.72C25.0491 61.5116 25.5694 63.4635 25.69 65.46C25.7173 66.1895 25.5983 66.9172 25.34 67.6C25.2685 67.8541 25.143 68.0897 24.9719 68.2906C24.8009 68.4916 24.5884 68.6532 24.349 68.7643C24.1096 68.8755 23.849 68.9335 23.5851 68.9345C23.3212 68.9355 23.0602 68.8794 22.82 68.77C20.9228 68.1153 19.2371 66.9615 17.94 65.43C15.5758 62.7697 13.4946 59.8708 11.73 56.78C9.53558 53.1097 7.90092 49.1326 6.88 44.98C6.45661 43.3402 6.45661 41.6198 6.88 39.98C7.04267 39.3818 7.29558 38.812 7.63 38.29C8.01269 37.6654 8.58956 37.1835 9.27226 36.918C9.95496 36.6525 10.7059 36.6181 11.41 36.82C13.1447 37.2677 14.6903 38.2595 15.82 39.65C16.4 40.32 16.95 41.02 17.51 41.71C17.65 41.9 17.76 41.97 18 41.84L25.59 37.84L25.69 37.75L23.43 35.6C21.9538 34.3619 20.6129 32.9708 19.43 31.45C17.9306 29.4115 16.7035 27.186 15.78 24.83C15.3102 23.5897 15.1125 22.2629 15.2005 20.9395C15.2885 19.6161 15.6601 18.3272 16.29 17.16C16.9209 15.8286 17.8333 14.6499 18.9642 13.7055C20.095 12.7611 21.4174 12.0735 22.84 11.69C24.0613 11.417 25.3226 11.373 26.56 11.56C28.1 11.77 29.64 12.02 31.16 12.32C31.7376 12.4586 32.2906 12.6846 32.8 12.99C35.1819 14.356 37.3854 16.0119 39.36 17.92C40.11 18.67 40.75 19.52 41.46 20.31C41.73 20.61 42.04 20.86 42.46 21.23C42.513 21.1195 42.5731 21.0126 42.64 20.91C45.45 17.77 48.42 14.82 52.24 12.91C55.1971 11.3726 58.6365 11.0462 61.83 12C63.3157 12.5391 64.6332 13.46 65.65 14.67C68.24 17.36 68.99 20.67 68.65 24.24C68.2663 27.7468 67.0116 31.102 65 34C63.65 36.09 62.07 38 60.59 40L60.25 40.46ZM19.16 58.05C19.59 57.94 19.97 57.82 20.37 57.73C20.4893 57.7137 20.6006 57.6606 20.6884 57.5782C20.7762 57.4958 20.8362 57.3881 20.86 57.27C20.9072 57.0791 21.0018 56.9031 21.135 56.7584C21.2683 56.6137 21.4358 56.505 21.6222 56.4422C21.8086 56.3794 22.0078 56.3646 22.2015 56.3992C22.3951 56.4337 22.5769 56.5166 22.73 56.64C22.8551 56.7738 23.0145 56.8706 23.1908 56.92C23.3671 56.9694 23.5537 56.9694 23.73 56.92C23.8659 56.8999 24.0041 56.8999 24.14 56.92C27.2824 57.0561 30.3457 57.9479 33.07 59.52C34.75 60.43 36.32 61.52 37.96 62.52C39.11 63.22 40.3 63.88 41.49 64.52C43.0706 65.247 44.7596 65.7098 46.49 65.89C48.1304 66.1248 49.8036 65.9354 51.35 65.34C53.2391 64.6992 55.0611 63.8752 56.79 62.88C59.06 61.54 61.38 60.28 63.54 58.78C65.4382 57.3988 67.2608 55.9167 69 54.34C70.8715 52.834 72.5123 51.0618 73.87 49.08C74.0665 48.8537 74.1852 48.5702 74.2086 48.2714C74.232 47.9726 74.1589 47.6742 74 47.42C73.8111 47.0962 73.5433 46.8255 73.2216 46.6332C72.8998 46.4408 72.5346 46.3331 72.16 46.32C69.9576 46.2686 67.8044 46.9746 66.06 48.32C64.6048 49.4413 63.0782 50.4667 61.49 51.39C59.49 52.56 57.27 53.52 55.19 54.66C53.2675 55.7738 51.0916 56.3763 48.87 56.41C46.6831 56.5505 44.5031 56.0463 42.6 54.96C40.43 53.59 38.81 51.58 36.74 50.11C36.633 50.0205 36.5458 49.9096 36.4842 49.7845C36.4226 49.6593 36.3879 49.5227 36.3822 49.3833C36.3766 49.2439 36.4001 49.1049 36.4514 48.9751C36.5027 48.8454 36.5806 48.7278 36.68 48.63C36.7635 48.519 36.8693 48.4266 36.9906 48.3588C37.1118 48.2909 37.2458 48.2491 37.3841 48.2359C37.5224 48.2227 37.662 48.2385 37.7938 48.2823C37.9257 48.326 38.047 48.3968 38.15 48.49C39.1433 49.2335 40.0948 50.0314 41 50.88C42.81 52.62 44.72 54.01 47.4 54.17C50.3002 54.3917 53.1785 53.5214 55.47 51.73C55.9167 51.4014 56.2855 50.9783 56.5499 50.4909C56.8144 50.0034 56.9681 49.4636 57 48.91C57.06 48.15 56.8 47.91 56.06 47.71C54.6279 47.4679 53.1635 47.4917 51.74 47.78C50.4056 48.0201 49.0331 47.9376 47.7371 47.5392C46.441 47.1408 45.2591 46.4382 44.29 45.49C42.39 43.67 40.46 41.88 38.56 40.05C37.6933 39.2492 36.667 38.6409 35.5484 38.2652C34.4298 37.8894 33.2444 37.7548 32.07 37.87C30.614 38.0471 29.2016 38.484 27.9 39.16C23.8621 40.9739 19.9262 43.0069 16.11 45.25C15.35 45.67 14.64 46.17 13.87 46.66L19.16 58.05ZM59.16 49.85C60.07 49.3 60.92 48.85 61.71 48.3C63.33 47.22 64.92 46.1 66.52 44.99C66.6198 44.9189 66.6936 44.817 66.73 44.7C66.8546 44.3133 66.9548 43.9192 67.03 43.52C67.0915 43.2775 67.0599 43.0208 66.9414 42.8006C66.8229 42.5803 66.6262 42.4124 66.39 42.33C66.2091 42.2398 66.0176 42.1726 65.82 42.13C64.3789 41.8126 62.8762 41.9274 61.5 42.46C60.8207 42.6167 60.1765 42.8981 59.6 43.29C58.8103 44.072 58.0752 44.9073 57.4 45.79C59.07 46.61 59.51 48 59.18 49.85H59.16Z" fill="black"/>
</svg>
