<svg width="80" height="80" viewBox="0 0 80 80" fill="none" xmlns="http://www.w3.org/2000/svg">
<path d="M49.5 2.73001C50.5 2.83001 51.5 2.88001 52.5 3.06001C54.58 3.44001 56.64 3.90001 58.71 4.32001C59.2305 4.44066 59.7583 4.5275 60.29 4.58001C61.3718 4.75848 62.3599 5.30195 63.09 6.12001C63.3744 6.44778 63.5583 6.85048 63.62 7.28001C64.4423 11.3154 64.7781 15.4347 64.62 19.55C64.62 19.75 64.62 19.94 64.62 20.18C64.7563 20.143 64.885 20.0821 65 20C66.613 19.0456 68.4672 18.5769 70.34 18.65C71.4309 18.6097 72.512 18.8678 73.4671 19.3964C74.4222 19.9251 75.2149 20.7042 75.76 21.65C76.02 22.04 76.39 22.36 76.63 22.76C76.8662 23.1288 77.0292 23.5396 77.11 23.97C77.2 24.58 77.11 25.22 77.17 25.83C77.431 27.5436 77.2661 29.2952 76.69 30.93C75.942 33.1336 74.7737 35.1712 73.25 36.93C70.4125 40.0685 66.8728 42.4911 62.92 44C61.45 44.51 59.99 45 58.54 45.61C57.9244 45.8778 57.3236 46.1782 56.74 46.51C56.6146 46.5714 56.4998 46.6524 56.4 46.75C56.1446 47.0076 55.9641 47.3298 55.8778 47.6821C55.7915 48.0344 55.8026 48.4035 55.91 48.75C56.1579 49.021 56.4758 49.2185 56.8286 49.3208C57.1814 49.4231 57.5555 49.4263 57.91 49.33C58.4296 49.04 58.9336 48.7229 59.42 48.38L59.15 48.08C58.9304 47.8757 58.7776 47.6098 58.7116 47.3172C58.6456 47.0246 58.6694 46.7188 58.78 46.44C58.8875 46.1647 59.07 45.925 59.3069 45.7482C59.5438 45.5715 59.8255 45.4647 60.12 45.44C60.5419 45.3656 60.9759 45.4022 61.3794 45.5463C61.7829 45.6904 62.142 45.9369 62.4214 46.2617C62.7008 46.5865 62.8909 46.9784 62.9731 47.3988C63.0552 47.8193 63.0266 48.2539 62.89 48.66C62.5991 49.4603 62.1381 50.188 61.5389 50.7929C60.9396 51.3979 60.2164 51.8657 59.4189 52.1642C58.6214 52.4626 57.7687 52.5846 56.9195 52.5218C56.0703 52.4589 55.2448 52.2127 54.5 51.8C53.5748 51.2053 52.9073 50.2843 52.63 49.22C52.48 49.33 52.34 49.42 52.21 49.53C50.1162 51.3253 47.6855 52.6851 45.06 53.53C44.9174 53.596 44.7924 53.6947 44.6952 53.8181C44.5979 53.9415 44.531 54.086 44.5 54.24C44.3376 55.9724 44.4422 57.7194 44.81 59.42C45.0776 61.1276 45.8389 62.7196 47 64C47.4593 64.4804 47.9805 64.8974 48.55 65.24C49.14 65.64 49.78 65.95 50.4 66.3C50.5112 66.3787 50.6323 66.4426 50.76 66.49C52.3479 66.8416 53.767 67.7276 54.78 69C56.39 70.82 56.37 72.63 54.71 74.25C52.7503 76.1856 50.257 77.4914 47.55 78C45.3658 78.4682 43.155 78.8022 40.93 79C39.1111 79.0764 37.2891 79.0129 35.48 78.81C33.9198 78.7596 32.3702 78.5348 30.86 78.14C28.3369 77.5191 26.1345 75.9831 24.68 73.83C24.3214 73.3221 24.1331 72.7136 24.142 72.0919C24.151 71.4702 24.3569 70.8674 24.73 70.37C25.208 69.6688 25.8115 69.062 26.51 68.58C29.4874 66.5483 32.1207 64.0535 34.31 61.19C35.6936 59.3817 36.3404 57.1162 36.12 54.85C36.1624 54.459 36.0564 54.0663 35.8231 53.7496C35.5897 53.4329 35.246 53.2154 34.86 53.14C32.3088 52.1979 29.9922 50.7138 28.07 48.79C27.48 48.24 26.78 47.79 26.07 47.25C26.05 47.6191 26.0065 47.9865 25.94 48.35C25.7022 49.4801 25.1756 50.5292 24.4114 51.395C23.6473 52.2608 22.6717 52.9137 21.58 53.29C20.8651 53.5014 20.1132 53.5573 19.375 53.4538C18.6367 53.3503 17.9292 53.0898 17.3 52.69C16.8408 52.4084 16.4788 51.993 16.2625 51.4996C16.0462 51.0063 15.986 50.4586 16.09 49.93C16.19 49.29 16.29 48.64 16.36 48C16.55 46.14 18.96 44.32 20.66 44.81C21.1059 44.9607 21.5102 45.2142 21.84 45.55C22.0457 45.7565 22.1784 46.0244 22.2181 46.3131C22.2578 46.6019 22.2023 46.8957 22.06 47.15C21.9247 47.4171 21.7121 47.6372 21.4499 47.7817C21.1877 47.9262 20.888 47.9883 20.59 47.96C19.78 47.96 19.59 48.06 19.5 48.88C19.45 49.27 19.39 49.66 19.33 50.05C19.6639 50.2493 20.0539 50.3337 20.4404 50.2903C20.8268 50.247 21.1885 50.0783 21.47 49.81C22.85 48.72 22.99 47.29 22.74 45.7C22.6898 45.197 22.5359 44.7098 22.2881 44.2692C22.0402 43.8286 21.7038 43.4441 21.3 43.14C20.7059 42.7076 19.9844 42.4859 19.25 42.51C17.25 42.51 15.17 42.56 13.13 42.51C12.1017 42.4896 11.076 42.3994 10.06 42.24C8.6069 42.0209 7.27092 41.3159 6.26999 40.24C6.20999 40.17 6.12999 40.11 5.99999 39.99L5.81999 40.88C5.73999 40.82 5.68999 40.8 5.66999 40.76C4.39999 37.89 3.25999 34.94 3.45999 31.76C3.64988 29.7751 4.01463 27.8108 4.54999 25.89C4.92469 24.6693 5.64339 23.5826 6.61999 22.76C8.3304 21.0947 10.4419 19.8995 12.75 19.29C13.2886 19.1482 13.853 19.134 14.3981 19.2485C14.9432 19.3631 15.454 19.6033 15.89 19.95L17.61 21.25C17.61 20.25 17.56 19.25 17.61 18.38C17.72 16.48 17.88 14.59 18.01 12.69C18.0333 12.4586 17.9989 12.225 17.91 12.01C17.6051 11.47 17.4814 10.8464 17.557 10.2309C17.6326 9.61533 17.9035 9.04024 18.33 8.59001C19.3055 7.42031 20.571 6.52721 22 6.00001C24.6189 4.91919 27.3874 4.24474 30.21 4.00001C35.06 3.57001 39.92 3.26001 44.77 2.90001L45.59 2.79001L49.5 2.73001ZM61 10.65C60.8994 10.6755 60.8021 10.7124 60.71 10.76C57 13.12 52.86 14 48.63 14.6C44.4429 15.1374 40.2182 15.3248 36 15.16C32.64 15.05 29.28 14.84 25.93 14.6C24.32 14.49 22.73 14.19 21.08 13.97C21.08 14.14 21.01 14.35 20.99 14.56C20.5219 19.4118 20.7576 24.3057 21.69 29.09C22.5897 34.1292 24.5459 38.9209 27.43 43.15C27.8323 43.6258 28.2666 44.0735 28.73 44.49C28.9108 44.6945 29.081 44.9081 29.24 45.13C29.4229 45.4841 29.6406 45.8191 29.89 46.13C30.5156 46.7679 31.1838 47.3626 31.89 47.91C36.09 51.14 40.68 52 45.66 49.98C48.2935 48.8573 50.6213 47.1226 52.45 44.92C55.6513 41.1574 58.0077 36.7515 59.36 32C60.6998 27.586 61.4003 23.0027 61.44 18.39C61.5093 15.8023 61.3621 13.2132 61 10.65ZM21.79 39.72C21.7667 39.6072 21.7332 39.4968 21.69 39.39C19.8737 35.389 18.667 31.1385 18.11 26.78C18.04 26.24 18.04 25.68 17.41 25.4C17.29 25.4 17.23 25.16 17.13 25.03C16.8618 24.6086 16.5501 24.2164 16.2 23.86C15.6083 23.3363 14.9727 22.8645 14.3 22.45C13.9681 22.2645 13.5762 22.2177 13.21 22.32C12.4151 22.6165 11.6458 22.9778 10.91 23.4C9.40803 24.2028 8.20144 25.4639 7.46582 26.9999C6.73021 28.5359 6.50396 30.2665 6.81999 31.94C6.83479 32.1164 6.83479 32.2937 6.81999 32.47C6.75471 33.0281 6.75471 33.5919 6.81999 34.15C7.04999 35.04 7.41999 35.9 7.73999 36.77C7.93392 37.3787 8.29936 37.9186 8.79246 38.3248C9.28557 38.731 9.8854 38.9862 10.52 39.06C12.03 39.24 13.52 39.25 15.07 39.34C17.31 39.47 19.55 39 21.79 39.72ZM58 42.31C59.4 41.87 60.73 41.47 62 41.02C64.6179 40.0499 67.0027 38.5407 69 36.59C70.0446 35.6562 70.9866 34.6137 71.81 33.48C72.7213 32.2955 73.3043 30.8917 73.5 29.41C73.63 28.22 73.62 27.01 73.65 25.8C73.6515 25.2145 73.5334 24.635 73.303 24.0967C73.0726 23.5585 72.7347 23.073 72.31 22.67C72.0556 22.395 71.7459 22.1771 71.4011 22.0306C71.0564 21.8841 70.6845 21.8123 70.31 21.82C68.8639 21.7118 67.4156 21.9987 66.12 22.65C65.5397 22.8776 65.0269 23.2493 64.63 23.73C64.41 24.07 64.05 24.28 63.99 24.73C63.6306 27.8348 62.94 30.8922 61.93 33.85C61.1905 36.4779 60.0396 38.9721 58.52 41.24C58.41 41.6 58.24 42 58 42.31ZM31.31 69.12C31.4913 69.4858 31.7527 69.8061 32.0747 70.0571C32.3967 70.3081 32.771 70.4834 33.17 70.57C36.88 71.582 40.733 71.9673 44.57 71.71C45.5695 71.6274 46.556 71.4294 47.51 71.12C47.8051 71.0284 48.0737 70.867 48.2931 70.6493C48.5125 70.4317 48.6761 70.1644 48.77 69.87C48.8166 69.7815 48.8442 69.6843 48.8512 69.5846C48.8581 69.4849 48.8442 69.3848 48.8103 69.2907C48.7765 69.1966 48.7234 69.1106 48.6545 69.0382C48.5855 68.9658 48.5023 68.9085 48.41 68.87C48.04 68.68 47.69 68.44 47.32 68.27C46.0978 67.67 45.0156 66.8195 44.1438 65.7737C43.272 64.7279 42.6302 63.5102 42.26 62.2C41.5649 60.0251 41.2901 57.7377 41.45 55.46C41.45 55.05 41.51 54.65 41.55 54.22H39C39 54.38 39 54.5 39 54.62C39.2167 56.0916 39.1353 57.5918 38.7608 59.0313C38.3863 60.4709 37.7263 61.8205 36.82 63C35.82 64.25 34.82 65.41 33.71 66.58C32.92 67.49 32.09 68.32 31.31 69.12Z" fill="black"/>
<path d="M43.66 32.87C43.66 35.58 43.66 38.29 43.66 41C43.6604 41.7914 43.5902 42.5812 43.45 43.36C43.3888 43.846 43.1513 44.2927 42.7827 44.6152C42.414 44.9378 41.9398 45.1139 41.45 45.11C41.03 45.11 40.62 45.11 40.2 45.11C39.58 45.11 38.95 45.16 38.33 45.25C38.0539 45.3191 37.7649 45.3181 37.4893 45.2473C37.2136 45.1764 36.96 45.0379 36.7514 44.8442C36.5429 44.6505 36.386 44.4079 36.2949 44.1382C36.2038 43.8686 36.1815 43.5805 36.23 43.3C36.36 39.49 36.52 35.67 36.63 31.85C36.7 29.36 36.75 26.85 36.7 24.37C36.7047 23.8077 36.8521 23.2558 37.1284 22.766C37.4048 22.2763 37.801 21.8647 38.28 21.57C38.656 21.367 39.086 21.2866 39.51 21.34C40.37 21.34 41.22 21.55 42.09 21.6C42.309 21.5865 42.5284 21.6173 42.7352 21.6907C42.942 21.764 43.1319 21.8783 43.2934 22.0268C43.4549 22.1753 43.5848 22.3548 43.6753 22.5547C43.7658 22.7546 43.815 22.9707 43.82 23.19C43.9 24.69 43.87 26.19 43.88 27.7V32.86L43.66 32.87Z" fill="black"/>
</svg>
