<?xml version="1.0" encoding="utf-8"?>
<!-- Generator: Adobe Illustrator 24.3.0, SVG Export Plug-In . SVG Version: 6.00 Build 0)  -->
<svg version="1.1" id="Layer_1" xmlns="http://www.w3.org/2000/svg" xmlns:xlink="http://www.w3.org/1999/xlink" x="0px" y="0px"
	 viewBox="0 0 80 80" style="enable-background:new 0 0 80 80;" xml:space="preserve">
<path d="M49.5,2.7c3.1,0.2,6.2,1,9.2,1.6c1.6,0.3,3.3,0.5,4.4,1.8c0.3,0.3,0.5,0.7,0.5,1.2c0.9,4.2,1.1,8.6,1,12.9
	c3.4-2.1,8.9-2.5,11.1,1.5c0.6,0.7,1.2,1.4,1.3,2.3c0.1,0.6,0,1.2,0.1,1.9c0.9,8.6-6.9,15.3-14.2,18.2c-2.2,0.8-4.6,1.4-6.5,2.7
	c-0.8,0.8-0.9,2.3,0.4,2.6c1,0.3,1.8-0.4,2.6-0.9l-0.3-0.3c-0.7-0.6-0.6-1.8,0.2-2.3c1.4-0.9,3.4,0,3.7,1.7
	c0.3,5.4-8.9,7.3-10.3,1.8c-2.3,1.9-4.8,3.4-7.6,4.3c-0.3,0.1-0.5,0.4-0.6,0.7c-0.4,5,0.9,10,5.9,12.1c1.6,0.6,3.3,1.2,4.4,2.7
	c4,4.5-3.5,8.3-7.2,9c-5.5,1.2-11.2,1.4-16.7,0.1c-2.5-0.6-4.7-2.2-6.2-4.3c-0.4-0.5-0.5-1.1-0.5-1.7c0-1.5,1.2-2.7,2.4-3.5
	c4.3-3.1,11.3-8.8,9.3-14.8c-0.2-0.3-0.6-0.5-1-0.6c-3.5-1.1-5.9-3.7-8.8-5.9c-0.1,3.4-3.2,6.7-6.7,6.2c-1.2-0.2-2.6-0.8-3.1-2
	c-0.5-1.1,0-2.3,0.1-3.5c0.2-1.9,2.6-3.7,4.3-3.2c0.7,0.3,1.4,0.7,1.6,1.5c0.1,0.9-0.7,1.8-1.6,1.6c-1.4-0.2-1,1.1-1.3,2.1
	c0.7,0.4,1.6,0.3,2.1-0.2c1.7-1.4,1.6-3.7,0.8-5.5c-0.6-1.1-1.8-1.8-3-1.8C14.9,42.3,9.3,43.6,6,40l-0.2,0.9
	c-1.5-2.7-2.5-5.9-2.4-9.1c0.5-3.1,0.6-6.8,3.2-9c2.2-2,6.4-5,9.3-2.8c0,0,1.7,1.3,1.7,1.3c-0.2-3.2,0.5-6.1,0.3-9.2
	c-0.6-1.1-0.4-2.5,0.4-3.4c2.9-3.3,7.7-4,11.9-4.6c4.9-0.4,9.7-0.7,14.6-1.1C45.4,2.7,48.8,2.8,49.5,2.7z M61,10.6
	c-7.5,4.4-16.5,4.6-25,4.5c-5-0.2-10-0.4-14.9-1.2c-1.3,12,1.3,25.8,10.8,33.9c6.5,5.4,15.5,3.3,20.6-3C60.4,35.6,62.5,22.5,61,10.6
	z M21.8,39.7c-1.8-4.1-3.1-8.4-3.7-12.9c-0.1-0.5-0.1-1.1-0.7-1.4c-0.3-0.3-0.7-1.1-1.2-1.5c-0.9-0.6-1.8-1.8-3-1.5
	c-4.1,1.2-7.3,5.2-6.4,9.6c-0.2,1.7,0.2,3.3,0.9,4.8c0.2,0.6,0.6,1.1,1.1,1.6c1.8,1.3,4.2,0.7,6.3,1C17.3,39.5,19.5,39,21.8,39.7z
	 M58,42.3c4.1-1.1,8-2.7,11-5.7c2.1-1.9,4.2-4.3,4.5-7.2c0.2-2.6,0.7-6-2.1-7.4c-2.4-0.7-6.3,0.2-7.4,2.7C63.3,30.9,61.3,37,58,42.3
	z M31.3,69.1c0.4,0.7,1.1,1.3,1.9,1.4c2.9,0.9,14.3,2.6,15.6-0.7c0.2-0.4,0-0.9-0.4-1c-5.9-2.4-7.6-8.8-6.9-14.7H39
	C40.1,60.7,35.4,64.9,31.3,69.1z"/>
<path d="M43.7,32.9c0,2.7,0,5.4,0,8.1c-0.1,1.2,0.1,2.7-0.9,3.6c-1.3,1-3,0.2-4.5,0.6c-1.2,0.3-2.3-0.8-2.1-2
	c0.2-6.3,0.6-12.6,0.5-18.9c0-1.5,1.2-3.2,2.8-3c0.9,0,1.7,0.2,2.6,0.3c0.7,0,1.3,0.3,1.6,1c0.4,1.7,0.1,3.4,0.2,5.1
	c0,0,0,5.2,0,5.2L43.7,32.9z"/>
</svg>
