<svg width="80" height="80" viewBox="0 0 80 80" fill="none" xmlns="http://www.w3.org/2000/svg">
<path d="M67.36 20.7C67.1094 21.1487 66.7714 21.5427 66.3661 21.8587C65.9608 22.1747 65.4963 22.4064 65 22.54C64.29 22.84 63.5 23.02 62.74 23.26L59.65 24.26C59.9769 24.7912 60.3447 25.296 60.75 25.77C61.62 26.65 62.58 27.48 63.51 28.32L66.41 30.92C66.6107 31.1003 66.7918 31.3014 66.95 31.52C67.52 32.27 67.15 33.08 66.09 33.3C65.3094 33.4388 64.5214 33.5323 63.73 33.58C61.9343 33.6422 60.1366 33.5385 58.36 33.27H57.85V33.79L58 41.16C58.0071 41.3208 57.9807 41.4813 57.9224 41.6313C57.8641 41.7813 57.7752 41.9176 57.6614 42.0314C57.5476 42.1452 57.4113 42.2341 57.2613 42.2924C57.1113 42.3507 56.9508 42.3771 56.79 42.37C56.5177 42.3786 56.2454 42.3517 55.98 42.29C54.6283 42.0017 53.3272 41.513 52.12 40.84C51.55 40.54 50.97 40.26 50.3 39.93C50.3 40.67 49.89 41.29 50.1 42.02C50.8614 44.4912 51.7595 46.9183 52.79 49.29C54.57 53.58 56.32 57.87 58.19 62.14C59.37 64.82 60.73 67.45 62.01 70.14C62.24 70.63 62.54 71.14 62.73 71.59C62.8615 71.9898 62.952 72.4019 63 72.82C63.0167 72.9924 62.9769 73.1655 62.8867 73.3134C62.7966 73.4613 62.6609 73.5759 62.5 73.64C62.3018 73.757 62.0784 73.8245 61.8486 73.8367C61.6188 73.8489 61.3894 73.8054 61.18 73.71C60.9151 73.5784 60.6639 73.421 60.43 73.24L52.77 67.7C52.7006 67.6533 52.6269 67.6131 52.55 67.58C52.44 68.2 52.35 68.8 52.23 69.39C51.81 71.52 51.38 73.64 50.96 75.77C50.91 76.02 50.96 76.29 50.87 76.54C50.8214 76.8119 50.674 77.0562 50.4562 77.226C50.2384 77.3958 49.9655 77.4791 49.69 77.46C49.4517 77.471 49.2159 77.4076 49.0152 77.2786C48.8145 77.1496 48.6589 76.9614 48.57 76.74C47.5042 74.5621 46.5985 72.3095 45.86 70C45.02 67 44.25 64 43.42 61.07C42.88 59.13 42.29 57.2 41.7 55.18C41.51 56.18 41.28 57 41.18 57.88C40.85 60.57 40.53 63.27 40.28 65.97C40.06 68.38 39.94 70.8 39.76 73.21C39.7485 73.548 39.6982 73.8835 39.61 74.21C39.39 74.98 38.5 75.13 37.78 74.62C37.2843 74.2672 36.9077 73.7719 36.7 73.2C35.84 71.2 34.95 69.29 34.09 67.33C33.48 65.95 32.89 64.57 32.29 63.19C32.29 63.13 32.29 63.08 32.08 62.95C31.9985 63.0757 31.9047 63.1929 31.8 63.3C30.8 64.23 29.8 65.16 28.75 66.08C28.4335 66.3702 28.0996 66.6407 27.75 66.89C27.5393 67.0503 27.2875 67.1476 27.0238 67.1707C26.7601 67.1937 26.4952 67.1414 26.26 67.02C26.052 66.9275 25.8874 66.7588 25.8 66.5486C25.7125 66.3384 25.709 66.1027 25.79 65.89C26.53 63.23 27.28 60.57 28.27 57.95C29.34 55.13 30.27 52.27 31.27 49.42C31.8 47.9 32.35 46.42 32.88 44.85C32.9152 44.7516 32.9452 44.6515 32.97 44.55L31.54 45C31.298 45.1093 31.0355 45.1659 30.77 45.1659C30.5045 45.1659 30.242 45.1093 30 45C29.8881 44.9747 29.7719 44.9747 29.66 45C28.47 45 27.91 44.46 28.28 43.55C28.83 42.2 29.42 40.87 30 39.55L30.86 37.55C30.07 37.32 29.3 37.05 28.5 36.85C26.4311 36.3194 24.3999 35.6512 22.42 34.85L21.91 34.64C21.7093 34.5769 21.5335 34.4521 21.4079 34.2833C21.2822 34.1145 21.2129 33.9104 21.21 33.7C21.2039 33.4702 21.2771 33.2453 21.4173 33.0632C21.5576 32.8811 21.7563 32.7528 21.98 32.7C23.08 32.29 24.17 31.88 25.25 31.46C25.63 31.31 25.97 31.12 26.41 30.91L24 29.85C21.5541 28.702 19.2954 27.1917 17.3 25.37C16.58 24.72 16.95 23.77 18.01 23.55C19.07 23.33 20.01 23.28 21.01 23.03C22.96 22.54 24.87 21.96 26.8 21.42C27.21 21.3 27.31 21.14 27.22 20.76C27.03 19.89 26.96 19 26.8 18.12C26.59 16.9 26.29 15.69 26.14 14.47C26.025 13.3739 25.9749 12.272 25.99 11.17C25.99 10.56 26.52 10.3 27.24 10.17C28.1408 10.0645 29.0475 10.3118 29.77 10.86C31.15 11.66 32.5367 12.4533 33.93 13.24C34.06 13.32 34.2 13.38 34.38 13.47C35.15 12.47 35.94 11.47 36.66 10.47C38.12 8.47001 39.54 6.36001 40.98 4.30001C41.0963 4.09233 41.2663 3.91969 41.4721 3.80008C41.6778 3.68047 41.912 3.61828 42.15 3.62C42.4183 3.60464 42.6857 3.66261 42.9235 3.7877C43.1613 3.91278 43.3606 4.10025 43.5 4.33C44.31 5.74001 45.07 7.18001 45.92 8.58001C46.42 9.39001 47.05 10.14 47.62 10.93C47.75 11.11 47.89 11.13 48.15 11.06C51.71 10.0533 55.2833 9.05334 58.87 8.06001C60.03 7.74001 60.87 8.41 60.64 9.4C60.1118 11.093 59.4428 12.7387 58.64 14.32C58.16 15.32 57.77 16.42 57.32 17.52L58.59 17.75C60.22 18.12 61.86 18.48 63.48 18.86C64.26 19.05 65.01 19.3 65.8 19.47C66.1189 19.5025 66.4239 19.6172 66.6851 19.803C66.9463 19.9889 67.1548 20.2394 67.29 20.53L67.36 20.7ZM51.18 24.59C51.1373 24.1071 51.0537 23.6287 50.93 23.16C50.2525 21.3441 48.9566 19.8251 47.27 18.87C46.6014 18.4575 45.8354 18.2297 45.05 18.21C44.4739 18.175 43.8961 18.175 43.32 18.21C41.118 18.3109 38.9836 19.0016 37.14 20.21C35.521 21.1428 34.3005 22.6372 33.71 24.41C33.6053 24.8157 33.4716 25.2134 33.31 25.6C32.9943 26.3422 32.9276 27.1667 33.12 27.95C33.8 30.48 35.68 32.24 38.47 33.41C39.5149 33.887 40.6569 34.1128 41.8047 34.0694C42.9525 34.026 44.0741 33.7146 45.08 33.16C48.79 31.11 51.12 28.39 51.18 24.59ZM48.31 44.17L46.47 46.43C46.306 46.6396 46.0837 46.796 45.831 46.8796C45.5784 46.9633 45.3067 46.9704 45.05 46.9C44.7957 46.8685 44.5593 46.753 44.3781 46.5719C44.197 46.3907 44.0815 46.1543 44.05 45.9C44.0548 45.8101 44.0548 45.7199 44.05 45.63C43.67 46.91 43.38 48.19 43.05 49.46C42.8446 50.1222 42.8272 50.8285 43 51.5C44.17 55.57 45.32 59.65 46.48 63.73C46.55 63.98 46.61 64.24 46.68 64.49C46.7823 64.3789 46.8636 64.2501 46.92 64.11C47.5867 62.6567 48.2833 61.2067 49.01 59.76C49.102 59.5381 49.2618 59.3509 49.4665 59.2252C49.6713 59.0995 49.9105 59.0417 50.15 59.06C50.498 59.0377 50.8468 59.0885 51.174 59.209C51.5013 59.3296 51.7996 59.5173 52.05 59.76C52.75 60.5 53.5 61.21 54.25 61.92C55 62.63 55.54 63.06 56.19 63.62C53.36 57.19 50.79 50.69 48.31 44.17ZM38.2 61.83H38.28C38.28 61.39 38.35 60.95 38.41 60.52C38.89 56.82 39.78 53.17 40.59 49.52C41.0567 47.3867 41.52 45.2533 41.98 43.12C41.98 43.03 42.03 42.92 41.98 42.85C41.58 42.28 41.16 41.72 40.78 41.21C39.1 42.01 37.46 42.78 35.78 43.57C35.6517 43.6444 35.5582 43.7667 35.52 43.91C34.4267 47.05 33.34 50.19 32.26 53.33C31.86 54.5 31.47 55.68 31.06 56.88L31.19 56.8L33.55 54.53C33.7584 54.3501 34.0082 54.2248 34.277 54.1654C34.5459 54.1061 34.8252 54.1145 35.09 54.19C35.3026 54.2542 35.4877 54.3873 35.6163 54.5684C35.7449 54.7494 35.8095 54.9681 35.8 55.19C35.7973 55.3438 35.8245 55.4966 35.88 55.64L37 58.54C37.4 59.64 37.8 60.73 38.2 61.83Z" fill="black"/>
<path d="M45.76 23.11C45.44 25.18 45.15 27.26 44.76 29.33C44.6 30.33 43.98 30.69 42.89 30.79C42.32 30.84 41.72 30.96 41.27 30.54C40.9497 30.3166 40.6903 30.0165 40.5157 29.6672C40.341 29.3179 40.2565 28.9304 40.27 28.54C40.54 26.64 40.79 24.74 41.04 22.83C41.0702 22.4975 41.1971 22.1812 41.405 21.9199C41.613 21.6587 41.8928 21.4641 42.21 21.36C42.2754 21.3423 42.3366 21.3117 42.39 21.27C42.5971 21.0588 42.8541 20.9031 43.1372 20.8175C43.4204 20.7319 43.7206 20.719 44.01 20.78C44.94 20.83 45.48 21.24 45.54 22.01C45.56 22.3764 45.56 22.7436 45.54 23.11H45.76Z" fill="black"/>
</svg>
