<?xml version="1.0" encoding="utf-8"?>
<!-- Generator: Adobe Illustrator 24.3.0, SVG Export Plug-In . SVG Version: 6.00 Build 0)  -->
<svg version="1.1" id="Layer_1" xmlns="http://www.w3.org/2000/svg" xmlns:xlink="http://www.w3.org/1999/xlink" x="0px" y="0px"
	 viewBox="0 0 227 227" style="enable-background:new 0 0 227 227;" xml:space="preserve">
<path d="M112.6,207.8c-3.5-0.8-7.2-1.6-9.9-4.1c-12.6-9.9-12.3-26.7-5.2-40.4c4.9-9.8,13.1-12.9,22.6-12.6
	c7.1,1.9,12.4,8.4,15.8,14.6c7.5,13.6,0.5,34.5-13.5,40C119.2,206.4,116,208.1,112.6,207.8z"/>
<path d="M115.2,24.9c11.7,0.1,23.1,2.6,34.4,6.3c17.8,5.4,33.3,14.5,44.2,30.5c5.6,8.5,20.7,27.6,19.7,37.2
	c-0.7,2.4-3.7,4.8-5.9,2.7c-4.1-3-5.2-8.1-8.2-11.9c-9-13.7-20.3-23.7-32.2-32.8c-18.5-8.4-38.9-15.8-59.5-13
	c-17.8,2-35.2,3.6-49.3,16.6c-3.7,3.5-8.7,6-11.6,10.2c-4.1,9.8-12.7,16.2-20.2,23.2c-5,3.4-9.7-3.5-12.2-7.3
	c-1.4-2-1.5-4.8-0.2-6.9c5.9-9.8,12.2-19.2,20.3-26.2C55.8,36.4,88.2,25.9,115.2,24.9z"/>
<path d="M112.1,69c11.9-0.8,22.2,2.6,33.4,5.1c15.6,2.5,32.2,8.3,40.9,22.5c1.7,3,4,6.2,3.3,9.8c-0.7,3.4-4.4,6.4-7.3,3.1
	c-4.1-5.3-8.9-10-15.2-12.7c-12.2-6-24.9-9.5-37.9-11.7c-7.6-1.3-14.7,0.5-21.9,3c-24.7,7.4-40.4,26.7-57.4,45.4
	c-2.3,3-7.8,0.4-9.8-2c-3.3-5.7,1.4-12,3.6-17.2C56,91.8,86.2,68.2,112.1,69z"/>
<path d="M110.2,115.1c11.7,1.6,23.2,4.7,34.8,7.3c2.3,0.6,4.3,1.8,5.9,3.5c4.6,4.2,7.5,10,10.9,15.5c1.2,1.7,1.5,4,0.7,6
	c-0.9,2.6-2.6,2.9-4.7,3.2c-1.7,0.9-3.2,0.2-4.7-1c-6.7-5.5-13.4-10.9-20.2-16.2c-5.4-5.3-11.9-2.2-18.2-0.8
	c-13.3,3.6-23.5,15.3-32.8,25.2c-3.8,4.4-7.7,4.4-12.4,3.3c-3.9,0.3-5.5-2.4-4.8-7.3C67.2,131.6,90.7,116.4,110.2,115.1z"/>
</svg>
